0
SECTION
2
HEADER
9
$EXTMAX
10
    -900.000
20
      90.000
9
$EXTMIN
10
    5000.000
20
   -3000.000
0
ENDSEC
0
SECTION
2
ENTITIES
0
LINE
8
default
6
CONTINUOUS
10
        0.00
20
       -0.00
11
        7.10
21
       -0.01
39
 0
62
 1
 0
LINE
8
default
6
CONTINUOUS
10
        0.00
20
       -0.00
11
       -7.10
21
       -0.01
39
 0
62
 1
 0
LINE
8
default
6
CONTINUOUS
10
        7.10
20
       -0.01
11
       14.20
21
       -0.05
39
 0
62
 1
 0
LINE
8
default
6
CONTINUOUS
10
       -7.10
20
       -0.01
11
      -14.20
21
       -0.05
39
 0
62
 1
 0
LINE
8
default
6
CONTINUOUS
10
       14.20
20
       -0.05
11
       21.30
21
       -0.11
39
 0
62
 1
 0
LINE
8
default
6
CONTINUOUS
10
      -14.20
20
       -0.05
11
      -21.30
21
       -0.11
39
 0
62
 1
 0
LINE
8
default
6
CONTINUOUS
10
       21.30
20
       -0.11
11
       28.40
21
       -0.19
39
 0
62
 1
 0
LINE
8
default
6
CONTINUOUS
10
      -21.30
20
       -0.11
11
      -28.40
21
       -0.19
39
 0
62
 1
 0
LINE
8
default
6
CONTINUOUS
10
       28.40
20
       -0.19
11
       35.50
21
       -0.30
39
 0
62
 1
 0
LINE
8
default
6
CONTINUOUS
10
      -28.40
20
       -0.19
11
      -35.50
21
       -0.30
39
 0
62
 1
 0
LINE
8
default
6
CONTINUOUS
10
       35.50
20
       -0.30
11
       42.59
21
       -0.44
39
 0
62
 1
 0
LINE
8
default
6
CONTINUOUS
10
      -35.50
20
       -0.30
11
      -42.59
21
       -0.44
39
 0
62
 1
 0
LINE
8
default
6
CONTINUOUS
10
       42.59
20
       -0.44
11
       49.67
21
       -0.60
39
 0
62
 1
 0
LINE
8
default
6
CONTINUOUS
10
      -42.59
20
       -0.44
11
      -49.67
21
       -0.60
39
 0
62
 1
 0
LINE
8
default
6
CONTINUOUS
10
       49.67
20
       -0.60
11
       56.76
21
       -0.78
39
 0
62
 1
 0
LINE
8
default
6
CONTINUOUS
10
      -49.67
20
       -0.60
11
      -56.76
21
       -0.78
39
 0
62
 1
 0
LINE
8
default
6
CONTINUOUS
10
       56.76
20
       -0.78
11
       63.83
21
       -0.98
39
 0
62
 1
 0
LINE
8
default
6
CONTINUOUS
10
      -56.76
20
       -0.78
11
      -63.83
21
       -0.98
39
 0
62
 1
 0
LINE
8
default
6
CONTINUOUS
10
       63.83
20
       -0.98
11
       70.90
21
       -1.21
39
 0
62
 1
 0
LINE
8
default
6
CONTINUOUS
10
      -63.83
20
       -0.98
11
      -70.90
21
       -1.21
39
 0
62
 1
 0
LINE
8
default
6
CONTINUOUS
10
       70.90
20
       -1.21
11
       77.97
21
       -1.47
39
 0
62
 1
 0
LINE
8
default
6
CONTINUOUS
10
      -70.90
20
       -1.21
11
      -77.97
21
       -1.47
39
 0
62
 1
 0
LINE
8
default
6
CONTINUOUS
10
       77.97
20
       -1.47
11
       85.02
21
       -1.75
39
 0
62
 1
 0
LINE
8
default
6
CONTINUOUS
10
      -77.97
20
       -1.47
11
      -85.02
21
       -1.75
39
 0
62
 1
 0
LINE
8
default
6
CONTINUOUS
10
       85.02
20
       -1.75
11
       92.07
21
       -2.05
39
 0
62
 1
 0
LINE
8
default
6
CONTINUOUS
10
      -85.02
20
       -1.75
11
      -92.07
21
       -2.05
39
 0
62
 1
 0
LINE
8
default
6
CONTINUOUS
10
       92.07
20
       -2.05
11
       99.10
21
       -2.38
39
 0
62
 1
 0
LINE
8
default
6
CONTINUOUS
10
      -92.07
20
       -2.05
11
      -99.10
21
       -2.38
39
 0
62
 1
 0
LINE
8
default
6
CONTINUOUS
10
       99.10
20
       -2.38
11
      106.13
21
       -2.73
39
 0
62
 1
 0
LINE
8
default
6
CONTINUOUS
10
      -99.10
20
       -2.38
11
     -106.13
21
       -2.73
39
 0
62
 1
 0
LINE
8
default
6
CONTINUOUS
10
      106.13
20
       -2.73
11
      113.15
21
       -3.11
39
 0
62
 1
 0
LINE
8
default
6
CONTINUOUS
10
     -106.13
20
       -2.73
11
     -113.15
21
       -3.11
39
 0
62
 1
 0
LINE
8
default
6
CONTINUOUS
10
      113.15
20
       -3.11
11
      120.15
21
       -3.50
39
 0
62
 1
 0
LINE
8
default
6
CONTINUOUS
10
     -113.15
20
       -3.11
11
     -120.15
21
       -3.50
39
 0
62
 1
 0
LINE
8
default
6
CONTINUOUS
10
      120.15
20
       -3.50
11
      127.15
21
       -3.93
39
 0
62
 1
 0
LINE
8
default
6
CONTINUOUS
10
     -120.15
20
       -3.50
11
     -127.15
21
       -3.93
39
 0
62
 1
 0
LINE
8
default
6
CONTINUOUS
10
      127.15
20
       -3.93
11
      134.13
21
       -4.37
39
 0
62
 1
 0
LINE
8
default
6
CONTINUOUS
10
     -127.15
20
       -3.93
11
     -134.13
21
       -4.37
39
 0
62
 1
 0
LINE
8
default
6
CONTINUOUS
10
      134.13
20
       -4.37
11
      141.10
21
       -4.85
39
 0
62
 1
 0
LINE
8
default
6
CONTINUOUS
10
     -134.13
20
       -4.37
11
     -141.10
21
       -4.85
39
 0
62
 1
 0
LINE
8
default
6
CONTINUOUS
10
      141.10
20
       -4.85
11
      148.05
21
       -5.34
39
 0
62
 1
 0
LINE
8
default
6
CONTINUOUS
10
     -141.10
20
       -4.85
11
     -148.05
21
       -5.34
39
 0
62
 1
 0
LINE
8
default
6
CONTINUOUS
10
      148.05
20
       -5.34
11
      154.99
21
       -5.86
39
 0
62
 1
 0
LINE
8
default
6
CONTINUOUS
10
     -148.05
20
       -5.34
11
     -154.99
21
       -5.86
39
 0
62
 1
 0
LINE
8
default
6
CONTINUOUS
10
      154.99
20
       -5.86
11
      161.91
21
       -6.40
39
 0
62
 1
 0
LINE
8
default
6
CONTINUOUS
10
     -154.99
20
       -5.86
11
     -161.91
21
       -6.40
39
 0
62
 1
 0
LINE
8
default
6
CONTINUOUS
10
      161.91
20
       -6.40
11
      168.82
21
       -6.97
39
 0
62
 1
 0
LINE
8
default
6
CONTINUOUS
10
     -161.91
20
       -6.40
11
     -168.82
21
       -6.97
39
 0
62
 1
 0
LINE
8
default
6
CONTINUOUS
10
      168.82
20
       -6.97
11
      175.71
21
       -7.56
39
 0
62
 1
 0
LINE
8
default
6
CONTINUOUS
10
     -168.82
20
       -6.97
11
     -175.71
21
       -7.56
39
 0
62
 1
 0
LINE
8
default
6
CONTINUOUS
10
      175.71
20
       -7.56
11
      182.58
21
       -8.17
39
 0
62
 1
 0
LINE
8
default
6
CONTINUOUS
10
     -175.71
20
       -7.56
11
     -182.58
21
       -8.17
39
 0
62
 1
 0
LINE
8
default
6
CONTINUOUS
10
      182.58
20
       -8.17
11
      189.44
21
       -8.81
39
 0
62
 1
 0
LINE
8
default
6
CONTINUOUS
10
     -182.58
20
       -8.17
11
     -189.44
21
       -8.81
39
 0
62
 1
 0
LINE
8
default
6
CONTINUOUS
10
      189.44
20
       -8.81
11
      196.27
21
       -9.47
39
 0
62
 1
 0
LINE
8
default
6
CONTINUOUS
10
     -189.44
20
       -8.81
11
     -196.27
21
       -9.47
39
 0
62
 1
 0
LINE
8
default
6
CONTINUOUS
10
      196.27
20
       -9.47
11
      203.09
21
      -10.15
39
 0
62
 1
 0
LINE
8
default
6
CONTINUOUS
10
     -196.27
20
       -9.47
11
     -203.09
21
      -10.15
39
 0
62
 1
 0
LINE
8
default
6
CONTINUOUS
10
      203.09
20
      -10.15
11
      209.88
21
      -10.86
39
 0
62
 1
 0
LINE
8
default
6
CONTINUOUS
10
     -203.09
20
      -10.15
11
     -209.88
21
      -10.86
39
 0
62
 1
 0
LINE
8
default
6
CONTINUOUS
10
      209.88
20
      -10.86
11
      216.66
21
      -11.59
39
 0
62
 1
 0
LINE
8
default
6
CONTINUOUS
10
     -209.88
20
      -10.86
11
     -216.66
21
      -11.59
39
 0
62
 1
 0
LINE
8
default
6
CONTINUOUS
10
      216.66
20
      -11.59
11
      223.41
21
      -12.34
39
 0
62
 1
 0
LINE
8
default
6
CONTINUOUS
10
     -216.66
20
      -11.59
11
     -223.41
21
      -12.34
39
 0
62
 1
 0
LINE
8
default
6
CONTINUOUS
10
      223.41
20
      -12.34
11
      230.14
21
      -13.12
39
 0
62
 1
 0
LINE
8
default
6
CONTINUOUS
10
     -223.41
20
      -12.34
11
     -230.14
21
      -13.12
39
 0
62
 1
 0
LINE
8
default
6
CONTINUOUS
10
      230.14
20
      -13.12
11
      236.85
21
      -13.92
39
 0
62
 1
 0
LINE
8
default
6
CONTINUOUS
10
     -230.14
20
      -13.12
11
     -236.85
21
      -13.92
39
 0
62
 1
 0
LINE
8
default
6
CONTINUOUS
10
      236.85
20
      -13.92
11
      243.53
21
      -14.74
39
 0
62
 1
 0
LINE
8
default
6
CONTINUOUS
10
     -236.85
20
      -13.92
11
     -243.53
21
      -14.74
39
 0
62
 1
 0
LINE
8
default
6
CONTINUOUS
10
      243.53
20
      -14.74
11
      250.19
21
      -15.58
39
 0
62
 1
 0
LINE
8
default
6
CONTINUOUS
10
     -243.53
20
      -14.74
11
     -250.19
21
      -15.58
39
 0
62
 1
 0
LINE
8
default
6
CONTINUOUS
10
      250.19
20
      -15.58
11
      256.82
21
      -16.45
39
 0
62
 1
 0
LINE
8
default
6
CONTINUOUS
10
     -250.19
20
      -15.58
11
     -256.82
21
      -16.45
39
 0
62
 1
 0
LINE
8
default
6
CONTINUOUS
10
      256.82
20
      -16.45
11
      263.43
21
      -17.34
39
 0
62
 1
 0
LINE
8
default
6
CONTINUOUS
10
     -256.82
20
      -16.45
11
     -263.43
21
      -17.34
39
 0
62
 1
 0
LINE
8
default
6
CONTINUOUS
10
      263.43
20
      -17.34
11
      270.01
21
      -18.26
39
 0
62
 1
 0
LINE
8
default
6
CONTINUOUS
10
     -263.43
20
      -17.34
11
     -270.01
21
      -18.26
39
 0
62
 1
 0
LINE
8
default
6
CONTINUOUS
10
      270.01
20
      -18.26
11
      276.57
21
      -19.19
39
 0
62
 1
 0
LINE
8
default
6
CONTINUOUS
10
     -270.01
20
      -18.26
11
     -276.57
21
      -19.19
39
 0
62
 1
 0
LINE
8
default
6
CONTINUOUS
10
      276.57
20
      -19.19
11
      283.10
21
      -20.15
39
 0
62
 1
 0
LINE
8
default
6
CONTINUOUS
10
     -276.57
20
      -19.19
11
     -283.10
21
      -20.15
39
 0
62
 1
 0
LINE
8
default
6
CONTINUOUS
10
      283.10
20
      -20.15
11
      289.60
21
      -21.13
39
 0
62
 1
 0
LINE
8
default
6
CONTINUOUS
10
     -283.10
20
      -20.15
11
     -289.60
21
      -21.13
39
 0
62
 1
 0
LINE
8
default
6
CONTINUOUS
10
      289.60
20
      -21.13
11
      296.07
21
      -22.13
39
 0
62
 1
 0
LINE
8
default
6
CONTINUOUS
10
     -289.60
20
      -21.13
11
     -296.07
21
      -22.13
39
 0
62
 1
 0
LINE
8
default
6
CONTINUOUS
10
      296.07
20
      -22.13
11
      302.51
21
      -23.16
39
 0
62
 1
 0
LINE
8
default
6
CONTINUOUS
10
     -296.07
20
      -22.13
11
     -302.51
21
      -23.16
39
 0
62
 1
 0
LINE
8
default
6
CONTINUOUS
10
      302.51
20
      -23.16
11
      308.92
21
      -24.20
39
 0
62
 1
 0
LINE
8
default
6
CONTINUOUS
10
     -302.51
20
      -23.16
11
     -308.92
21
      -24.20
39
 0
62
 1
 0
LINE
8
default
6
CONTINUOUS
10
      308.92
20
      -24.20
11
      315.30
21
      -25.27
39
 0
62
 1
 0
LINE
8
default
6
CONTINUOUS
10
     -308.92
20
      -24.20
11
     -315.30
21
      -25.27
39
 0
62
 1
 0
LINE
8
default
6
CONTINUOUS
10
      315.30
20
      -25.27
11
      321.64
21
      -26.36
39
 0
62
 1
 0
LINE
8
default
6
CONTINUOUS
10
     -315.30
20
      -25.27
11
     -321.64
21
      -26.36
39
 0
62
 1
 0
LINE
8
default
6
CONTINUOUS
10
      321.64
20
      -26.36
11
      327.96
21
      -27.47
39
 0
62
 1
 0
LINE
8
default
6
CONTINUOUS
10
     -321.64
20
      -26.36
11
     -327.96
21
      -27.47
39
 0
62
 1
 0
LINE
8
default
6
CONTINUOUS
10
      327.96
20
      -27.47
11
      334.24
21
      -28.61
39
 0
62
 1
 0
LINE
8
default
6
CONTINUOUS
10
     -327.96
20
      -27.47
11
     -334.24
21
      -28.61
39
 0
62
 1
 0
LINE
8
default
6
CONTINUOUS
10
      334.24
20
      -28.61
11
      340.49
21
      -29.76
39
 0
62
 1
 0
LINE
8
default
6
CONTINUOUS
10
     -334.24
20
      -28.61
11
     -340.49
21
      -29.76
39
 0
62
 1
 0
LINE
8
default
6
CONTINUOUS
10
      340.49
20
      -29.76
11
      346.71
21
      -30.94
39
 0
62
 1
 0
LINE
8
default
6
CONTINUOUS
10
     -340.49
20
      -29.76
11
     -346.71
21
      -30.94
39
 0
62
 1
 0
LINE
8
default
6
CONTINUOUS
10
      346.71
20
      -30.94
11
      352.89
21
      -32.13
39
 0
62
 1
 0
LINE
8
default
6
CONTINUOUS
10
     -346.71
20
      -30.94
11
     -352.89
21
      -32.13
39
 0
62
 1
 0
LINE
8
default
6
CONTINUOUS
10
      352.89
20
      -32.13
11
      359.03
21
      -33.35
39
 0
62
 1
 0
LINE
8
default
6
CONTINUOUS
10
     -352.89
20
      -32.13
11
     -359.03
21
      -33.35
39
 0
62
 1
 0
LINE
8
default
6
CONTINUOUS
10
      359.03
20
      -33.35
11
      365.14
21
      -34.59
39
 0
62
 1
 0
LINE
8
default
6
CONTINUOUS
10
     -359.03
20
      -33.35
11
     -365.14
21
      -34.59
39
 0
62
 1
 0
LINE
8
default
6
CONTINUOUS
10
      365.14
20
      -34.59
11
      371.22
21
      -35.85
39
 0
62
 1
 0
LINE
8
default
6
CONTINUOUS
10
     -365.14
20
      -34.59
11
     -371.22
21
      -35.85
39
 0
62
 1
 0
LINE
8
default
6
CONTINUOUS
10
      371.22
20
      -35.85
11
      377.25
21
      -37.13
39
 0
62
 1
 0
LINE
8
default
6
CONTINUOUS
10
     -371.22
20
      -35.85
11
     -377.25
21
      -37.13
39
 0
62
 1
 0
LINE
8
default
6
CONTINUOUS
10
      377.25
20
      -37.14
11
      383.25
21
      -38.52
39
 0
62
 1
 0
LINE
8
default
6
CONTINUOUS
10
     -377.25
20
      -37.14
11
     -383.25
21
      -38.52
39
 0
62
 1
 0
LINE
8
default
6
CONTINUOUS
10
      383.25
20
      -38.52
11
      389.21
21
      -40.00
39
 0
62
 1
 0
LINE
8
default
6
CONTINUOUS
10
     -383.25
20
      -38.52
11
     -389.21
21
      -40.00
39
 0
62
 1
 0
LINE
8
default
6
CONTINUOUS
10
      389.21
20
      -40.00
11
      395.13
21
      -41.59
39
 0
62
 1
 0
LINE
8
default
6
CONTINUOUS
10
     -389.21
20
      -40.00
11
     -395.13
21
      -41.59
39
 0
62
 1
 0
LINE
8
default
6
CONTINUOUS
10
      395.13
20
      -41.59
11
      401.01
21
      -43.28
39
 0
62
 1
 0
LINE
8
default
6
CONTINUOUS
10
     -395.13
20
      -41.59
11
     -401.01
21
      -43.28
39
 0
62
 1
 0
LINE
8
default
6
CONTINUOUS
10
      401.01
20
      -43.28
11
      406.86
21
      -45.06
39
 0
62
 1
 0
LINE
8
default
6
CONTINUOUS
10
     -401.01
20
      -43.28
11
     -406.86
21
      -45.06
39
 0
62
 1
 0
LINE
8
default
6
CONTINUOUS
10
      406.86
20
      -45.06
11
      412.66
21
      -46.95
39
 0
62
 1
 0
LINE
8
default
6
CONTINUOUS
10
     -406.86
20
      -45.06
11
     -412.66
21
      -46.95
39
 0
62
 1
 0
LINE
8
default
6
CONTINUOUS
10
      412.66
20
      -46.95
11
      418.42
21
      -48.94
39
 0
62
 1
 0
LINE
8
default
6
CONTINUOUS
10
     -412.66
20
      -46.95
11
     -418.42
21
      -48.94
39
 0
62
 1
 0
LINE
8
default
6
CONTINUOUS
10
      418.42
20
      -48.94
11
      424.13
21
      -51.01
39
 0
62
 1
 0
LINE
8
default
6
CONTINUOUS
10
     -418.42
20
      -48.94
11
     -424.13
21
      -51.01
39
 0
62
 1
 0
LINE
8
default
6
CONTINUOUS
10
      424.13
20
      -51.01
11
      429.81
21
      -53.18
39
 0
62
 1
 0
LINE
8
default
6
CONTINUOUS
10
     -424.13
20
      -51.01
11
     -429.81
21
      -53.18
39
 0
62
 1
 0
LINE
8
default
6
CONTINUOUS
10
      429.81
20
      -53.18
11
      435.44
21
      -55.44
39
 0
62
 1
 0
LINE
8
default
6
CONTINUOUS
10
     -429.81
20
      -53.18
11
     -435.44
21
      -55.44
39
 0
62
 1
 0
LINE
8
default
6
CONTINUOUS
10
      435.44
20
      -55.44
11
      441.03
21
      -57.79
39
 0
62
 1
 0
LINE
8
default
6
CONTINUOUS
10
     -435.44
20
      -55.44
11
     -441.03
21
      -57.79
39
 0
62
 1
 0
LINE
8
default
6
CONTINUOUS
10
      441.03
20
      -57.79
11
      446.57
21
      -60.23
39
 0
62
 1
 0
LINE
8
default
6
CONTINUOUS
10
     -441.03
20
      -57.79
11
     -446.57
21
      -60.23
39
 0
62
 1
 0
LINE
8
default
6
CONTINUOUS
10
      446.57
20
      -60.23
11
      452.07
21
      -62.75
39
 0
62
 1
 0
LINE
8
default
6
CONTINUOUS
10
     -446.57
20
      -60.23
11
     -452.07
21
      -62.75
39
 0
62
 1
 0
LINE
8
default
6
CONTINUOUS
10
      452.07
20
      -62.75
11
      457.53
21
      -65.35
39
 0
62
 1
 0
LINE
8
default
6
CONTINUOUS
10
     -452.07
20
      -62.75
11
     -457.53
21
      -65.35
39
 0
62
 1
 0
LINE
8
default
6
CONTINUOUS
10
      457.53
20
      -65.35
11
      462.94
21
      -68.04
39
 0
62
 1
 0
LINE
8
default
6
CONTINUOUS
10
     -457.53
20
      -65.35
11
     -462.94
21
      -68.04
39
 0
62
 1
 0
LINE
8
default
6
CONTINUOUS
10
      462.94
20
      -68.04
11
      468.30
21
      -70.80
39
 0
62
 1
 0
LINE
8
default
6
CONTINUOUS
10
     -462.94
20
      -68.04
11
     -468.30
21
      -70.80
39
 0
62
 1
 0
LINE
8
default
6
CONTINUOUS
10
      468.30
20
      -70.80
11
      473.62
21
      -73.64
39
 0
62
 1
 0
LINE
8
default
6
CONTINUOUS
10
     -468.30
20
      -70.80
11
     -473.62
21
      -73.64
39
 0
62
 1
 0
LINE
8
default
6
CONTINUOUS
10
      473.62
20
      -73.64
11
      478.89
21
      -76.55
39
 0
62
 1
 0
LINE
8
default
6
CONTINUOUS
10
     -473.62
20
      -73.64
11
     -478.89
21
      -76.55
39
 0
62
 1
 0
LINE
8
default
6
CONTINUOUS
10
      478.89
20
      -76.55
11
      484.11
21
      -79.53
39
 0
62
 1
 0
LINE
8
default
6
CONTINUOUS
10
     -478.89
20
      -76.55
11
     -484.11
21
      -79.53
39
 0
62
 1
 0
LINE
8
default
6
CONTINUOUS
10
      484.11
20
      -79.53
11
      489.28
21
      -82.59
39
 0
62
 1
 0
LINE
8
default
6
CONTINUOUS
10
     -484.11
20
      -79.53
11
     -489.28
21
      -82.59
39
 0
62
 1
 0
LINE
8
default
6
CONTINUOUS
10
      489.28
20
      -82.59
11
      494.40
21
      -85.71
39
 0
62
 1
 0
LINE
8
default
6
CONTINUOUS
10
     -489.28
20
      -82.59
11
     -494.40
21
      -85.71
39
 0
62
 1
 0
LINE
8
default
6
CONTINUOUS
10
      494.40
20
      -85.71
11
      499.48
21
      -88.90
39
 0
62
 1
 0
LINE
8
default
6
CONTINUOUS
10
     -494.40
20
      -85.71
11
     -499.48
21
      -88.90
39
 0
62
 1
 0
LINE
8
default
6
CONTINUOUS
10
      499.48
20
      -88.90
11
      504.50
21
      -92.15
39
 0
62
 1
 0
LINE
8
default
6
CONTINUOUS
10
     -499.48
20
      -88.90
11
     -504.50
21
      -92.15
39
 0
62
 1
 0
LINE
8
default
6
CONTINUOUS
10
      504.50
20
      -92.15
11
      509.47
21
      -95.46
39
 0
62
 1
 0
LINE
8
default
6
CONTINUOUS
10
     -504.50
20
      -92.15
11
     -509.47
21
      -95.46
39
 0
62
 1
 0
LINE
8
default
6
CONTINUOUS
10
      509.47
20
      -95.46
11
      514.40
21
      -98.83
39
 0
62
 1
 0
LINE
8
default
6
CONTINUOUS
10
     -509.47
20
      -95.46
11
     -514.40
21
      -98.83
39
 0
62
 1
 0
LINE
8
default
6
CONTINUOUS
10
      514.40
20
      -98.83
11
      519.27
21
     -102.26
39
 0
62
 1
 0
LINE
8
default
6
CONTINUOUS
10
     -514.40
20
      -98.83
11
     -519.27
21
     -102.26
39
 0
62
 1
 0
LINE
8
default
6
CONTINUOUS
10
      519.27
20
     -102.26
11
      524.09
21
     -105.75
39
 0
62
 1
 0
LINE
8
default
6
CONTINUOUS
10
     -519.27
20
     -102.26
11
     -524.09
21
     -105.75
39
 0
62
 1
 0
LINE
8
default
6
CONTINUOUS
10
      524.09
20
     -105.75
11
      528.85
21
     -109.28
39
 0
62
 1
 0
LINE
8
default
6
CONTINUOUS
10
     -524.09
20
     -105.75
11
     -528.85
21
     -109.28
39
 0
62
 1
 0
LINE
8
default
6
CONTINUOUS
10
      528.85
20
     -109.28
11
      533.57
21
     -112.87
39
 0
62
 1
 0
LINE
8
default
6
CONTINUOUS
10
     -528.85
20
     -109.28
11
     -533.57
21
     -112.87
39
 0
62
 1
 0
LINE
8
default
6
CONTINUOUS
10
      533.57
20
     -112.87
11
      538.23
21
     -116.51
39
 0
62
 1
 0
LINE
8
default
6
CONTINUOUS
10
     -533.57
20
     -112.87
11
     -538.23
21
     -116.51
39
 0
62
 1
 0
LINE
8
default
6
CONTINUOUS
10
      538.23
20
     -116.51
11
      542.83
21
     -120.19
39
 0
62
 1
 0
LINE
8
default
6
CONTINUOUS
10
     -538.23
20
     -116.51
11
     -542.83
21
     -120.19
39
 0
62
 1
 0
LINE
8
default
6
CONTINUOUS
10
      542.83
20
     -120.19
11
      547.39
21
     -123.92
39
 0
62
 1
 0
LINE
8
default
6
CONTINUOUS
10
     -542.83
20
     -120.19
11
     -547.39
21
     -123.92
39
 0
62
 1
 0
LINE
8
default
6
CONTINUOUS
10
      547.39
20
     -123.92
11
      551.88
21
     -127.69
39
 0
62
 1
 0
LINE
8
default
6
CONTINUOUS
10
     -547.39
20
     -123.92
11
     -551.88
21
     -127.69
39
 0
62
 1
 0
LINE
8
default
6
CONTINUOUS
10
      551.88
20
     -127.69
11
      556.33
21
     -131.49
39
 0
62
 1
 0
LINE
8
default
6
CONTINUOUS
10
     -551.88
20
     -127.69
11
     -556.33
21
     -131.49
39
 0
62
 1
 0
LINE
8
default
6
CONTINUOUS
10
      556.33
20
     -131.49
11
      560.71
21
     -135.34
39
 0
62
 1
 0
LINE
8
default
6
CONTINUOUS
10
     -556.33
20
     -131.49
11
     -560.71
21
     -135.34
39
 0
62
 1
 0
LINE
8
default
6
CONTINUOUS
10
      560.71
20
     -135.34
11
      565.04
21
     -139.22
39
 0
62
 1
 0
LINE
8
default
6
CONTINUOUS
10
     -560.71
20
     -135.34
11
     -565.04
21
     -139.22
39
 0
62
 1
 0
LINE
8
default
6
CONTINUOUS
10
      565.04
20
     -139.22
11
      569.32
21
     -143.14
39
 0
62
 1
 0
LINE
8
default
6
CONTINUOUS
10
     -565.04
20
     -139.22
11
     -569.32
21
     -143.14
39
 0
62
 1
 0
LINE
8
default
6
CONTINUOUS
10
      569.32
20
     -143.14
11
      573.54
21
     -147.08
39
 0
62
 1
 0
LINE
8
default
6
CONTINUOUS
10
     -569.32
20
     -143.14
11
     -573.54
21
     -147.08
39
 0
62
 1
 0
LINE
8
default
6
CONTINUOUS
10
      573.54
20
     -147.08
11
      575.50
21
     -148.95
39
 0
62
 1
 0
LINE
8
default
6
CONTINUOUS
10
     -573.54
20
     -147.08
11
     -575.50
21
     -148.95
39
 0
62
 1
 0
LINE
8
default
6
CONTINUOUS
10
        0.00
20
     -271.02
11
        9.03
21
     -271.01
39
 0
62
 1
 0
LINE
8
default
6
CONTINUOUS
10
        0.00
20
     -271.02
11
       -9.03
21
     -271.01
39
 0
62
 1
 0
LINE
8
default
6
CONTINUOUS
10
        9.03
20
     -271.01
11
       18.06
21
     -270.97
39
 0
62
 1
 0
LINE
8
default
6
CONTINUOUS
10
       -9.03
20
     -271.01
11
      -18.06
21
     -270.97
39
 0
62
 1
 0
LINE
8
default
6
CONTINUOUS
10
       18.06
20
     -270.97
11
       27.09
21
     -270.91
39
 0
62
 1
 0
LINE
8
default
6
CONTINUOUS
10
      -18.06
20
     -270.97
11
      -27.09
21
     -270.91
39
 0
62
 1
 0
LINE
8
default
6
CONTINUOUS
10
       27.09
20
     -270.91
11
       36.11
21
     -270.83
39
 0
62
 1
 0
LINE
8
default
6
CONTINUOUS
10
      -27.09
20
     -270.91
11
      -36.11
21
     -270.83
39
 0
62
 1
 0
LINE
8
default
6
CONTINUOUS
10
       36.11
20
     -270.83
11
       45.13
21
     -270.72
39
 0
62
 1
 0
LINE
8
default
6
CONTINUOUS
10
      -36.11
20
     -270.83
11
      -45.13
21
     -270.72
39
 0
62
 1
 0
LINE
8
default
6
CONTINUOUS
10
       45.13
20
     -270.72
11
       54.15
21
     -270.58
39
 0
62
 1
 0
LINE
8
default
6
CONTINUOUS
10
      -45.13
20
     -270.72
11
      -54.15
21
     -270.58
39
 0
62
 1
 0
LINE
8
default
6
CONTINUOUS
10
       54.15
20
     -270.58
11
       63.16
21
     -270.42
39
 0
62
 1
 0
LINE
8
default
6
CONTINUOUS
10
      -54.15
20
     -270.58
11
      -63.16
21
     -270.42
39
 0
62
 1
 0
LINE
8
default
6
CONTINUOUS
10
       63.16
20
     -270.42
11
       72.16
21
     -270.24
39
 0
62
 1
 0
LINE
8
default
6
CONTINUOUS
10
      -63.16
20
     -270.42
11
      -72.16
21
     -270.24
39
 0
62
 1
 0
LINE
8
default
6
CONTINUOUS
10
       72.16
20
     -270.24
11
       81.16
21
     -270.04
39
 0
62
 1
 0
LINE
8
default
6
CONTINUOUS
10
      -72.16
20
     -270.24
11
      -81.16
21
     -270.04
39
 0
62
 1
 0
LINE
8
default
6
CONTINUOUS
10
       81.16
20
     -270.04
11
       90.15
21
     -269.81
39
 0
62
 1
 0
LINE
8
default
6
CONTINUOUS
10
      -81.16
20
     -270.04
11
      -90.15
21
     -269.81
39
 0
62
 1
 0
LINE
8
default
6
CONTINUOUS
10
       90.15
20
     -269.81
11
       99.13
21
     -269.55
39
 0
62
 1
 0
LINE
8
default
6
CONTINUOUS
10
      -90.15
20
     -269.81
11
      -99.13
21
     -269.55
39
 0
62
 1
 0
LINE
8
default
6
CONTINUOUS
10
       99.13
20
     -269.55
11
      108.10
21
     -269.27
39
 0
62
 1
 0
LINE
8
default
6
CONTINUOUS
10
      -99.13
20
     -269.55
11
     -108.10
21
     -269.27
39
 0
62
 1
 0
LINE
8
default
6
CONTINUOUS
10
      108.10
20
     -269.27
11
      117.06
21
     -268.97
39
 0
62
 1
 0
LINE
8
default
6
CONTINUOUS
10
     -108.10
20
     -269.27
11
     -117.06
21
     -268.97
39
 0
62
 1
 0
LINE
8
default
6
CONTINUOUS
10
      117.06
20
     -268.97
11
      126.01
21
     -268.64
39
 0
62
 1
 0
LINE
8
default
6
CONTINUOUS
10
     -117.06
20
     -268.97
11
     -126.01
21
     -268.64
39
 0
62
 1
 0
LINE
8
default
6
CONTINUOUS
10
      126.01
20
     -268.64
11
      134.94
21
     -268.29
39
 0
62
 1
 0
LINE
8
default
6
CONTINUOUS
10
     -126.01
20
     -268.64
11
     -134.94
21
     -268.29
39
 0
62
 1
 0
LINE
8
default
6
CONTINUOUS
10
      134.94
20
     -268.29
11
      143.87
21
     -267.91
39
 0
62
 1
 0
LINE
8
default
6
CONTINUOUS
10
     -134.94
20
     -268.29
11
     -143.87
21
     -267.91
39
 0
62
 1
 0
LINE
8
default
6
CONTINUOUS
10
      143.87
20
     -267.91
11
      152.77
21
     -267.52
39
 0
62
 1
 0
LINE
8
default
6
CONTINUOUS
10
     -143.87
20
     -267.91
11
     -152.77
21
     -267.52
39
 0
62
 1
 0
LINE
8
default
6
CONTINUOUS
10
      152.77
20
     -267.52
11
      161.67
21
     -267.09
39
 0
62
 1
 0
LINE
8
default
6
CONTINUOUS
10
     -152.77
20
     -267.52
11
     -161.67
21
     -267.09
39
 0
62
 1
 0
LINE
8
default
6
CONTINUOUS
10
      161.67
20
     -267.09
11
      170.54
21
     -266.65
39
 0
62
 1
 0
LINE
8
default
6
CONTINUOUS
10
     -161.67
20
     -267.09
11
     -170.54
21
     -266.65
39
 0
62
 1
 0
LINE
8
default
6
CONTINUOUS
10
      170.54
20
     -266.65
11
      179.40
21
     -266.17
39
 0
62
 1
 0
LINE
8
default
6
CONTINUOUS
10
     -170.54
20
     -266.65
11
     -179.40
21
     -266.17
39
 0
62
 1
 0
LINE
8
default
6
CONTINUOUS
10
      179.40
20
     -266.17
11
      188.24
21
     -265.68
39
 0
62
 1
 0
LINE
8
default
6
CONTINUOUS
10
     -179.40
20
     -266.17
11
     -188.24
21
     -265.68
39
 0
62
 1
 0
LINE
8
default
6
CONTINUOUS
10
      188.24
20
     -265.68
11
      197.06
21
     -265.16
39
 0
62
 1
 0
LINE
8
default
6
CONTINUOUS
10
     -188.24
20
     -265.68
11
     -197.06
21
     -265.16
39
 0
62
 1
 0
LINE
8
default
6
CONTINUOUS
10
      197.06
20
     -265.16
11
      205.87
21
     -264.62
39
 0
62
 1
 0
LINE
8
default
6
CONTINUOUS
10
     -197.06
20
     -265.16
11
     -205.87
21
     -264.62
39
 0
62
 1
 0
LINE
8
default
6
CONTINUOUS
10
      205.87
20
     -264.62
11
      214.65
21
     -264.05
39
 0
62
 1
 0
LINE
8
default
6
CONTINUOUS
10
     -205.87
20
     -264.62
11
     -214.65
21
     -264.05
39
 0
62
 1
 0
LINE
8
default
6
CONTINUOUS
10
      214.65
20
     -264.05
11
      223.41
21
     -263.46
39
 0
62
 1
 0
LINE
8
default
6
CONTINUOUS
10
     -214.65
20
     -264.05
11
     -223.41
21
     -263.46
39
 0
62
 1
 0
LINE
8
default
6
CONTINUOUS
10
      223.41
20
     -263.46
11
      232.15
21
     -262.85
39
 0
62
 1
 0
LINE
8
default
6
CONTINUOUS
10
     -223.41
20
     -263.46
11
     -232.15
21
     -262.85
39
 0
62
 1
 0
LINE
8
default
6
CONTINUOUS
10
      232.15
20
     -262.85
11
      240.86
21
     -262.21
39
 0
62
 1
 0
LINE
8
default
6
CONTINUOUS
10
     -232.15
20
     -262.85
11
     -240.86
21
     -262.21
39
 0
62
 1
 0
LINE
8
default
6
CONTINUOUS
10
      240.86
20
     -262.21
11
      249.55
21
     -261.55
39
 0
62
 1
 0
LINE
8
default
6
CONTINUOUS
10
     -240.86
20
     -262.21
11
     -249.55
21
     -261.55
39
 0
62
 1
 0
LINE
8
default
6
CONTINUOUS
10
      249.55
20
     -261.55
11
      258.22
21
     -260.87
39
 0
62
 1
 0
LINE
8
default
6
CONTINUOUS
10
     -249.55
20
     -261.55
11
     -258.22
21
     -260.87
39
 0
62
 1
 0
LINE
8
default
6
CONTINUOUS
10
      258.22
20
     -260.87
11
      266.86
21
     -260.16
39
 0
62
 1
 0
LINE
8
default
6
CONTINUOUS
10
     -258.22
20
     -260.87
11
     -266.86
21
     -260.16
39
 0
62
 1
 0
LINE
8
default
6
CONTINUOUS
10
      266.86
20
     -260.16
11
      275.47
21
     -259.43
39
 0
62
 1
 0
LINE
8
default
6
CONTINUOUS
10
     -266.86
20
     -260.16
11
     -275.47
21
     -259.43
39
 0
62
 1
 0
LINE
8
default
6
CONTINUOUS
10
      275.47
20
     -259.43
11
      284.06
21
     -258.68
39
 0
62
 1
 0
LINE
8
default
6
CONTINUOUS
10
     -275.47
20
     -259.43
11
     -284.06
21
     -258.68
39
 0
62
 1
 0
LINE
8
default
6
CONTINUOUS
10
      284.06
20
     -258.68
11
      292.61
21
     -257.90
39
 0
62
 1
 0
LINE
8
default
6
CONTINUOUS
10
     -284.06
20
     -258.68
11
     -292.61
21
     -257.90
39
 0
62
 1
 0
LINE
8
default
6
CONTINUOUS
10
      292.61
20
     -257.90
11
      301.14
21
     -257.10
39
 0
62
 1
 0
LINE
8
default
6
CONTINUOUS
10
     -292.61
20
     -257.90
11
     -301.14
21
     -257.10
39
 0
62
 1
 0
LINE
8
default
6
CONTINUOUS
10
      301.14
20
     -257.10
11
      309.64
21
     -256.28
39
 0
62
 1
 0
LINE
8
default
6
CONTINUOUS
10
     -301.14
20
     -257.10
11
     -309.64
21
     -256.28
39
 0
62
 1
 0
LINE
8
default
6
CONTINUOUS
10
      309.64
20
     -256.28
11
      318.11
21
     -255.44
39
 0
62
 1
 0
LINE
8
default
6
CONTINUOUS
10
     -309.64
20
     -256.28
11
     -318.11
21
     -255.44
39
 0
62
 1
 0
LINE
8
default
6
CONTINUOUS
10
      318.11
20
     -255.44
11
      326.54
21
     -254.57
39
 0
62
 1
 0
LINE
8
default
6
CONTINUOUS
10
     -318.11
20
     -255.44
11
     -326.54
21
     -254.57
39
 0
62
 1
 0
LINE
8
default
6
CONTINUOUS
10
      326.54
20
     -254.57
11
      334.94
21
     -253.68
39
 0
62
 1
 0
LINE
8
default
6
CONTINUOUS
10
     -326.54
20
     -254.57
11
     -334.94
21
     -253.68
39
 0
62
 1
 0
LINE
8
default
6
CONTINUOUS
10
      334.94
20
     -253.68
11
      343.31
21
     -252.76
39
 0
62
 1
 0
LINE
8
default
6
CONTINUOUS
10
     -334.94
20
     -253.68
11
     -343.31
21
     -252.76
39
 0
62
 1
 0
LINE
8
default
6
CONTINUOUS
10
      343.31
20
     -252.76
11
      351.65
21
     -251.83
39
 0
62
 1
 0
LINE
8
default
6
CONTINUOUS
10
     -343.31
20
     -252.76
11
     -351.65
21
     -251.83
39
 0
62
 1
 0
LINE
8
default
6
CONTINUOUS
10
      351.65
20
     -251.83
11
      359.95
21
     -250.87
39
 0
62
 1
 0
LINE
8
default
6
CONTINUOUS
10
     -351.65
20
     -251.83
11
     -359.95
21
     -250.87
39
 0
62
 1
 0
LINE
8
default
6
CONTINUOUS
10
      359.95
20
     -250.87
11
      368.21
21
     -249.89
39
 0
62
 1
 0
LINE
8
default
6
CONTINUOUS
10
     -359.95
20
     -250.87
11
     -368.21
21
     -249.89
39
 0
62
 1
 0
LINE
8
default
6
CONTINUOUS
10
      368.21
20
     -249.89
11
      376.44
21
     -248.89
39
 0
62
 1
 0
LINE
8
default
6
CONTINUOUS
10
     -368.21
20
     -249.89
11
     -376.44
21
     -248.89
39
 0
62
 1
 0
LINE
8
default
6
CONTINUOUS
10
      376.44
20
     -248.89
11
      384.63
21
     -247.86
39
 0
62
 1
 0
LINE
8
default
6
CONTINUOUS
10
     -376.44
20
     -248.89
11
     -384.63
21
     -247.86
39
 0
62
 1
 0
LINE
8
default
6
CONTINUOUS
10
      384.63
20
     -247.86
11
      392.78
21
     -246.79
39
 0
62
 1
 0
LINE
8
default
6
CONTINUOUS
10
     -384.63
20
     -247.86
11
     -392.78
21
     -246.79
39
 0
62
 1
 0
LINE
8
default
6
CONTINUOUS
10
      392.78
20
     -246.79
11
      400.89
21
     -245.70
39
 0
62
 1
 0
LINE
8
default
6
CONTINUOUS
10
     -392.78
20
     -246.79
11
     -400.89
21
     -245.70
39
 0
62
 1
 0
LINE
8
default
6
CONTINUOUS
10
      400.89
20
     -245.70
11
      408.96
21
     -244.58
39
 0
62
 1
 0
LINE
8
default
6
CONTINUOUS
10
     -400.89
20
     -245.70
11
     -408.96
21
     -244.58
39
 0
62
 1
 0
LINE
8
default
6
CONTINUOUS
10
      408.96
20
     -244.58
11
      416.99
21
     -243.43
39
 0
62
 1
 0
LINE
8
default
6
CONTINUOUS
10
     -408.96
20
     -244.58
11
     -416.99
21
     -243.43
39
 0
62
 1
 0
LINE
8
default
6
CONTINUOUS
10
      416.99
20
     -243.43
11
      424.98
21
     -242.25
39
 0
62
 1
 0
LINE
8
default
6
CONTINUOUS
10
     -416.99
20
     -243.43
11
     -424.98
21
     -242.25
39
 0
62
 1
 0
LINE
8
default
6
CONTINUOUS
10
      424.98
20
     -242.25
11
      432.93
21
     -241.04
39
 0
62
 1
 0
LINE
8
default
6
CONTINUOUS
10
     -424.98
20
     -242.25
11
     -432.93
21
     -241.04
39
 0
62
 1
 0
LINE
8
default
6
CONTINUOUS
10
      432.93
20
     -241.04
11
      440.83
21
     -239.81
39
 0
62
 1
 0
LINE
8
default
6
CONTINUOUS
10
     -432.93
20
     -241.04
11
     -440.83
21
     -239.81
39
 0
62
 1
 0
LINE
8
default
6
CONTINUOUS
10
      440.83
20
     -239.81
11
      448.69
21
     -238.54
39
 0
62
 1
 0
LINE
8
default
6
CONTINUOUS
10
     -440.83
20
     -239.81
11
     -448.69
21
     -238.54
39
 0
62
 1
 0
LINE
8
default
6
CONTINUOUS
10
      448.69
20
     -238.54
11
      456.50
21
     -237.25
39
 0
62
 1
 0
LINE
8
default
6
CONTINUOUS
10
     -448.69
20
     -238.54
11
     -456.50
21
     -237.25
39
 0
62
 1
 0
LINE
8
default
6
CONTINUOUS
10
      456.50
20
     -237.25
11
      464.27
21
     -235.93
39
 0
62
 1
 0
LINE
8
default
6
CONTINUOUS
10
     -456.50
20
     -237.25
11
     -464.27
21
     -235.93
39
 0
62
 1
 0
LINE
8
default
6
CONTINUOUS
10
      464.27
20
     -235.93
11
      471.99
21
     -234.58
39
 0
62
 1
 0
LINE
8
default
6
CONTINUOUS
10
     -464.27
20
     -235.93
11
     -471.99
21
     -234.58
39
 0
62
 1
 0
LINE
8
default
6
CONTINUOUS
10
      471.99
20
     -234.58
11
      479.67
21
     -233.20
39
 0
62
 1
 0
LINE
8
default
6
CONTINUOUS
10
     -471.99
20
     -234.58
11
     -479.67
21
     -233.20
39
 0
62
 1
 0
LINE
8
default
6
CONTINUOUS
10
      479.67
20
     -233.20
11
      487.29
21
     -231.80
39
 0
62
 1
 0
LINE
8
default
6
CONTINUOUS
10
     -479.67
20
     -233.20
11
     -487.29
21
     -231.80
39
 0
62
 1
 0
LINE
8
default
6
CONTINUOUS
10
      487.29
20
     -231.80
11
      494.87
21
     -230.37
39
 0
62
 1
 0
LINE
8
default
6
CONTINUOUS
10
     -487.29
20
     -231.80
11
     -494.87
21
     -230.37
39
 0
62
 1
 0
LINE
8
default
6
CONTINUOUS
10
      494.87
20
     -230.37
11
      502.40
21
     -228.92
39
 0
62
 1
 0
LINE
8
default
6
CONTINUOUS
10
     -494.87
20
     -230.37
11
     -502.40
21
     -228.92
39
 0
62
 1
 0
LINE
8
default
6
CONTINUOUS
10
      502.40
20
     -228.92
11
      509.88
21
     -227.44
39
 0
62
 1
 0
LINE
8
default
6
CONTINUOUS
10
     -502.40
20
     -228.92
11
     -509.88
21
     -227.44
39
 0
62
 1
 0
LINE
8
default
6
CONTINUOUS
10
      509.88
20
     -227.44
11
      517.30
21
     -225.93
39
 0
62
 1
 0
LINE
8
default
6
CONTINUOUS
10
     -509.88
20
     -227.44
11
     -517.30
21
     -225.93
39
 0
62
 1
 0
LINE
8
default
6
CONTINUOUS
10
      517.30
20
     -225.93
11
      524.68
21
     -224.40
39
 0
62
 1
 0
LINE
8
default
6
CONTINUOUS
10
     -517.30
20
     -225.93
11
     -524.68
21
     -224.40
39
 0
62
 1
 0
LINE
8
default
6
CONTINUOUS
10
      524.68
20
     -224.40
11
      532.00
21
     -222.84
39
 0
62
 1
 0
LINE
8
default
6
CONTINUOUS
10
     -524.68
20
     -224.40
11
     -532.00
21
     -222.84
39
 0
62
 1
 0
LINE
8
default
6
CONTINUOUS
10
      532.00
20
     -222.84
11
      539.27
21
     -221.25
39
 0
62
 1
 0
LINE
8
default
6
CONTINUOUS
10
     -532.00
20
     -222.84
11
     -539.27
21
     -221.25
39
 0
62
 1
 0
LINE
8
default
6
CONTINUOUS
10
      539.27
20
     -221.25
11
      546.49
21
     -219.65
39
 0
62
 1
 0
LINE
8
default
6
CONTINUOUS
10
     -539.27
20
     -221.25
11
     -546.49
21
     -219.65
39
 0
62
 1
 0
LINE
8
default
6
CONTINUOUS
10
      546.49
20
     -219.65
11
      553.65
21
     -218.01
39
 0
62
 1
 0
LINE
8
default
6
CONTINUOUS
10
     -546.49
20
     -219.65
11
     -553.65
21
     -218.01
39
 0
62
 1
 0
LINE
8
default
6
CONTINUOUS
10
      553.65
20
     -218.01
11
      560.76
21
     -216.36
39
 0
62
 1
 0
LINE
8
default
6
CONTINUOUS
10
     -553.65
20
     -218.01
11
     -560.76
21
     -216.36
39
 0
62
 1
 0
LINE
8
default
6
CONTINUOUS
10
      560.76
20
     -216.36
11
      567.81
21
     -214.68
39
 0
62
 1
 0
LINE
8
default
6
CONTINUOUS
10
     -560.76
20
     -216.36
11
     -567.81
21
     -214.68
39
 0
62
 1
 0
LINE
8
default
6
CONTINUOUS
10
      567.81
20
     -214.68
11
      574.80
21
     -212.97
39
 0
62
 1
 0
LINE
8
default
6
CONTINUOUS
10
     -567.81
20
     -214.68
11
     -574.80
21
     -212.97
39
 0
62
 1
 0
LINE
8
default
6
CONTINUOUS
10
      574.80
20
     -212.97
11
      575.50
21
     -212.80
39
 0
62
 1
 0
LINE
8
default
6
CONTINUOUS
10
     -574.80
20
     -212.97
11
     -575.50
21
     -212.80
39
 0
62
 1
 0
LINE
8
default
6
CONTINUOUS
10
      575.50
20
     -148.95
11
      575.50
21
     -212.80
39
 0
62
 1
 0
LINE
8
default
6
CONTINUOUS
10
     -575.50
20
     -148.95
11
     -575.50
21
     -212.80
39
 0
62
 1
 0
LINE
8
default
6
CONTINUOUS
10
        0.00
20
      654.62
11
        2.03
21
      654.61
39
 0
62
 3
 0
LINE
8
default
6
CONTINUOUS
10
        0.00
20
      654.62
11
       -2.03
21
      654.61
39
 0
62
 1
 0
LINE
8
default
6
CONTINUOUS
10
        2.03
20
      654.61
11
        4.05
21
      654.61
39
 0
62
 3
 0
LINE
8
default
6
CONTINUOUS
10
       -2.03
20
      654.61
11
       -4.05
21
      654.61
39
 0
62
 1
 0
LINE
8
default
6
CONTINUOUS
10
        4.05
20
      654.61
11
        6.08
21
      654.59
39
 0
62
 3
 0
LINE
8
default
6
CONTINUOUS
10
       -4.05
20
      654.61
11
       -6.08
21
      654.59
39
 0
62
 1
 0
LINE
8
default
6
CONTINUOUS
10
        6.08
20
      654.59
11
        8.11
21
      654.57
39
 0
62
 3
 0
LINE
8
default
6
CONTINUOUS
10
       -6.08
20
      654.59
11
       -8.11
21
      654.57
39
 0
62
 1
 0
LINE
8
default
6
CONTINUOUS
10
        8.11
20
      654.57
11
       10.14
21
      654.55
39
 0
62
 3
 0
LINE
8
default
6
CONTINUOUS
10
       -8.11
20
      654.57
11
      -10.14
21
      654.55
39
 0
62
 1
 0
LINE
8
default
6
CONTINUOUS
10
       10.14
20
      654.55
11
       12.16
21
      654.52
39
 0
62
 3
 0
LINE
8
default
6
CONTINUOUS
10
      -10.14
20
      654.55
11
      -12.16
21
      654.52
39
 0
62
 1
 0
LINE
8
default
6
CONTINUOUS
10
       12.16
20
      654.52
11
       14.19
21
      654.48
39
 0
62
 3
 0
LINE
8
default
6
CONTINUOUS
10
      -12.16
20
      654.52
11
      -14.19
21
      654.48
39
 0
62
 1
 0
LINE
8
default
6
CONTINUOUS
10
       14.19
20
      654.48
11
       16.22
21
      654.44
39
 0
62
 3
 0
LINE
8
default
6
CONTINUOUS
10
      -14.19
20
      654.48
11
      -16.22
21
      654.44
39
 0
62
 1
 0
LINE
8
default
6
CONTINUOUS
10
       16.22
20
      654.44
11
       18.24
21
      654.40
39
 0
62
 3
 0
LINE
8
default
6
CONTINUOUS
10
      -16.22
20
      654.44
11
      -18.24
21
      654.40
39
 0
62
 1
 0
LINE
8
default
6
CONTINUOUS
10
       18.24
20
      654.40
11
       20.27
21
      654.34
39
 0
62
 3
 0
LINE
8
default
6
CONTINUOUS
10
      -18.24
20
      654.40
11
      -20.27
21
      654.34
39
 0
62
 1
 0
LINE
8
default
6
CONTINUOUS
10
       20.27
20
      654.34
11
       22.30
21
      654.29
39
 0
62
 3
 0
LINE
8
default
6
CONTINUOUS
10
      -20.27
20
      654.34
11
      -22.30
21
      654.29
39
 0
62
 1
 0
LINE
8
default
6
CONTINUOUS
10
       22.30
20
      654.29
11
       24.32
21
      654.22
39
 0
62
 3
 0
LINE
8
default
6
CONTINUOUS
10
      -22.30
20
      654.29
11
      -24.32
21
      654.22
39
 0
62
 1
 0
LINE
8
default
6
CONTINUOUS
10
       24.32
20
      654.22
11
       26.35
21
      654.15
39
 0
62
 3
 0
LINE
8
default
6
CONTINUOUS
10
      -24.32
20
      654.22
11
      -26.35
21
      654.15
39
 0
62
 1
 0
LINE
8
default
6
CONTINUOUS
10
       26.35
20
      654.15
11
       28.37
21
      654.08
39
 0
62
 3
 0
LINE
8
default
6
CONTINUOUS
10
      -26.35
20
      654.15
11
      -28.37
21
      654.08
39
 0
62
 1
 0
LINE
8
default
6
CONTINUOUS
10
       28.37
20
      654.08
11
       30.40
21
      654.00
39
 0
62
 3
 0
LINE
8
default
6
CONTINUOUS
10
      -28.37
20
      654.08
11
      -30.40
21
      654.00
39
 0
62
 1
 0
LINE
8
default
6
CONTINUOUS
10
       30.40
20
      654.00
11
       32.43
21
      653.92
39
 0
62
 3
 0
LINE
8
default
6
CONTINUOUS
10
      -30.40
20
      654.00
11
      -32.43
21
      653.92
39
 0
62
 1
 0
LINE
8
default
6
CONTINUOUS
10
       32.43
20
      653.92
11
       34.45
21
      653.83
39
 0
62
 3
 0
LINE
8
default
6
CONTINUOUS
10
      -32.43
20
      653.92
11
      -34.45
21
      653.83
39
 0
62
 1
 0
LINE
8
default
6
CONTINUOUS
10
       34.45
20
      653.83
11
       36.48
21
      653.73
39
 0
62
 3
 0
LINE
8
default
6
CONTINUOUS
10
      -34.45
20
      653.83
11
      -36.48
21
      653.73
39
 0
62
 1
 0
LINE
8
default
6
CONTINUOUS
10
       36.48
20
      653.73
11
       38.50
21
      653.63
39
 0
62
 3
 0
LINE
8
default
6
CONTINUOUS
10
      -36.48
20
      653.73
11
      -38.50
21
      653.63
39
 0
62
 1
 0
LINE
8
default
6
CONTINUOUS
10
       38.50
20
      653.63
11
       40.52
21
      653.52
39
 0
62
 3
 0
LINE
8
default
6
CONTINUOUS
10
      -38.50
20
      653.63
11
      -40.52
21
      653.52
39
 0
62
 1
 0
LINE
8
default
6
CONTINUOUS
10
       40.52
20
      653.52
11
       42.55
21
      653.41
39
 0
62
 3
 0
LINE
8
default
6
CONTINUOUS
10
      -40.52
20
      653.52
11
      -42.55
21
      653.41
39
 0
62
 1
 0
LINE
8
default
6
CONTINUOUS
10
       42.55
20
      653.41
11
       44.57
21
      653.29
39
 0
62
 3
 0
LINE
8
default
6
CONTINUOUS
10
      -42.55
20
      653.41
11
      -44.57
21
      653.29
39
 0
62
 1
 0
LINE
8
default
6
CONTINUOUS
10
       44.57
20
      653.29
11
       46.60
21
      653.17
39
 0
62
 3
 0
LINE
8
default
6
CONTINUOUS
10
      -44.57
20
      653.29
11
      -46.60
21
      653.17
39
 0
62
 1
 0
LINE
8
default
6
CONTINUOUS
10
       46.60
20
      653.17
11
       48.62
21
      653.04
39
 0
62
 3
 0
LINE
8
default
6
CONTINUOUS
10
      -46.60
20
      653.17
11
      -48.62
21
      653.04
39
 0
62
 1
 0
LINE
8
default
6
CONTINUOUS
10
       48.62
20
      653.04
11
       50.64
21
      652.91
39
 0
62
 3
 0
LINE
8
default
6
CONTINUOUS
10
      -48.62
20
      653.04
11
      -50.64
21
      652.91
39
 0
62
 1
 0
LINE
8
default
6
CONTINUOUS
10
       50.64
20
      652.91
11
       52.66
21
      652.77
39
 0
62
 3
 0
LINE
8
default
6
CONTINUOUS
10
      -50.64
20
      652.91
11
      -52.66
21
      652.77
39
 0
62
 1
 0
LINE
8
default
6
CONTINUOUS
10
       52.66
20
      652.77
11
       54.69
21
      652.62
39
 0
62
 3
 0
LINE
8
default
6
CONTINUOUS
10
      -52.66
20
      652.77
11
      -54.69
21
      652.62
39
 0
62
 1
 0
LINE
8
default
6
CONTINUOUS
10
       54.69
20
      652.62
11
       56.71
21
      652.47
39
 0
62
 3
 0
LINE
8
default
6
CONTINUOUS
10
      -54.69
20
      652.62
11
      -56.71
21
      652.47
39
 0
62
 1
 0
LINE
8
default
6
CONTINUOUS
10
       56.71
20
      652.47
11
       58.73
21
      652.31
39
 0
62
 3
 0
LINE
8
default
6
CONTINUOUS
10
      -56.71
20
      652.47
11
      -58.73
21
      652.31
39
 0
62
 1
 0
LINE
8
default
6
CONTINUOUS
10
       58.73
20
      652.31
11
       60.75
21
      652.15
39
 0
62
 3
 0
LINE
8
default
6
CONTINUOUS
10
      -58.73
20
      652.31
11
      -60.75
21
      652.15
39
 0
62
 1
 0
LINE
8
default
6
CONTINUOUS
10
       60.75
20
      652.15
11
       62.77
21
      651.99
39
 0
62
 3
 0
LINE
8
default
6
CONTINUOUS
10
      -60.75
20
      652.15
11
      -62.77
21
      651.99
39
 0
62
 1
 0
LINE
8
default
6
CONTINUOUS
10
       62.77
20
      651.99
11
       64.79
21
      651.81
39
 0
62
 3
 0
LINE
8
default
6
CONTINUOUS
10
      -62.77
20
      651.99
11
      -64.79
21
      651.81
39
 0
62
 1
 0
LINE
8
default
6
CONTINUOUS
10
       64.79
20
      651.81
11
       66.81
21
      651.64
39
 0
62
 3
 0
LINE
8
default
6
CONTINUOUS
10
      -64.79
20
      651.81
11
      -66.81
21
      651.64
39
 0
62
 1
 0
LINE
8
default
6
CONTINUOUS
10
       66.81
20
      651.64
11
       68.83
21
      651.45
39
 0
62
 3
 0
LINE
8
default
6
CONTINUOUS
10
      -66.81
20
      651.64
11
      -68.83
21
      651.45
39
 0
62
 1
 0
LINE
8
default
6
CONTINUOUS
10
       68.83
20
      651.45
11
       70.85
21
      651.26
39
 0
62
 3
 0
LINE
8
default
6
CONTINUOUS
10
      -68.83
20
      651.45
11
      -70.85
21
      651.26
39
 0
62
 1
 0
LINE
8
default
6
CONTINUOUS
10
       70.85
20
      651.26
11
       72.86
21
      651.07
39
 0
62
 3
 0
LINE
8
default
6
CONTINUOUS
10
      -70.85
20
      651.26
11
      -72.86
21
      651.07
39
 0
62
 1
 0
LINE
8
default
6
CONTINUOUS
10
       72.86
20
      651.07
11
       74.88
21
      650.87
39
 0
62
 3
 0
LINE
8
default
6
CONTINUOUS
10
      -72.86
20
      651.07
11
      -74.88
21
      650.87
39
 0
62
 1
 0
LINE
8
default
6
CONTINUOUS
10
       74.88
20
      650.87
11
       76.90
21
      650.67
39
 0
62
 3
 0
LINE
8
default
6
CONTINUOUS
10
      -74.88
20
      650.87
11
      -76.90
21
      650.67
39
 0
62
 1
 0
LINE
8
default
6
CONTINUOUS
10
       76.90
20
      650.67
11
       78.92
21
      650.45
39
 0
62
 3
 0
LINE
8
default
6
CONTINUOUS
10
      -76.90
20
      650.67
11
      -78.92
21
      650.45
39
 0
62
 1
 0
LINE
8
default
6
CONTINUOUS
10
       78.92
20
      650.45
11
       80.93
21
      650.24
39
 0
62
 3
 0
LINE
8
default
6
CONTINUOUS
10
      -78.92
20
      650.45
11
      -80.93
21
      650.24
39
 0
62
 1
 0
LINE
8
default
6
CONTINUOUS
10
       80.93
20
      650.24
11
       82.95
21
      650.02
39
 0
62
 3
 0
LINE
8
default
6
CONTINUOUS
10
      -80.93
20
      650.24
11
      -82.95
21
      650.02
39
 0
62
 1
 0
LINE
8
default
6
CONTINUOUS
10
       82.95
20
      650.02
11
       84.96
21
      649.79
39
 0
62
 3
 0
LINE
8
default
6
CONTINUOUS
10
      -82.95
20
      650.02
11
      -84.96
21
      649.79
39
 0
62
 1
 0
LINE
8
default
6
CONTINUOUS
10
       84.96
20
      649.79
11
       86.97
21
      649.56
39
 0
62
 3
 0
LINE
8
default
6
CONTINUOUS
10
      -84.96
20
      649.79
11
      -86.97
21
      649.56
39
 0
62
 1
 0
LINE
8
default
6
CONTINUOUS
10
       86.97
20
      649.56
11
       88.99
21
      649.32
39
 0
62
 3
 0
LINE
8
default
6
CONTINUOUS
10
      -86.97
20
      649.56
11
      -88.99
21
      649.32
39
 0
62
 1
 0
LINE
8
default
6
CONTINUOUS
10
       88.99
20
      649.32
11
       91.00
21
      649.08
39
 0
62
 3
 0
LINE
8
default
6
CONTINUOUS
10
      -88.99
20
      649.32
11
      -91.00
21
      649.08
39
 0
62
 1
 0
LINE
8
default
6
CONTINUOUS
10
       91.00
20
      649.08
11
       93.01
21
      648.83
39
 0
62
 3
 0
LINE
8
default
6
CONTINUOUS
10
      -91.00
20
      649.08
11
      -93.01
21
      648.83
39
 0
62
 1
 0
LINE
8
default
6
CONTINUOUS
10
       93.01
20
      648.83
11
       95.02
21
      648.57
39
 0
62
 3
 0
LINE
8
default
6
CONTINUOUS
10
      -93.01
20
      648.83
11
      -95.02
21
      648.57
39
 0
62
 1
 0
LINE
8
default
6
CONTINUOUS
10
       95.02
20
      648.57
11
       97.03
21
      648.31
39
 0
62
 3
 0
LINE
8
default
6
CONTINUOUS
10
      -95.02
20
      648.57
11
      -97.03
21
      648.31
39
 0
62
 1
 0
LINE
8
default
6
CONTINUOUS
10
       97.03
20
      648.31
11
       99.04
21
      648.05
39
 0
62
 3
 0
LINE
8
default
6
CONTINUOUS
10
      -97.03
20
      648.31
11
      -99.04
21
      648.05
39
 0
62
 1
 0
LINE
8
default
6
CONTINUOUS
10
       99.04
20
      648.05
11
      101.05
21
      647.78
39
 0
62
 3
 0
LINE
8
default
6
CONTINUOUS
10
      -99.04
20
      648.05
11
     -101.05
21
      647.78
39
 0
62
 1
 0
LINE
8
default
6
CONTINUOUS
10
      101.05
20
      647.78
11
      103.06
21
      647.50
39
 0
62
 3
 0
LINE
8
default
6
CONTINUOUS
10
     -101.05
20
      647.78
11
     -103.06
21
      647.50
39
 0
62
 1
 0
LINE
8
default
6
CONTINUOUS
10
      103.06
20
      647.50
11
      105.07
21
      647.22
39
 0
62
 3
 0
LINE
8
default
6
CONTINUOUS
10
     -103.06
20
      647.50
11
     -105.07
21
      647.22
39
 0
62
 1
 0
LINE
8
default
6
CONTINUOUS
10
      105.07
20
      647.22
11
      107.08
21
      646.94
39
 0
62
 3
 0
LINE
8
default
6
CONTINUOUS
10
     -105.07
20
      647.22
11
     -107.08
21
      646.94
39
 0
62
 1
 0
LINE
8
default
6
CONTINUOUS
10
      107.08
20
      646.94
11
      109.08
21
      646.64
39
 0
62
 3
 0
LINE
8
default
6
CONTINUOUS
10
     -107.08
20
      646.94
11
     -109.08
21
      646.64
39
 0
62
 1
 0
LINE
8
default
6
CONTINUOUS
10
      109.08
20
      646.64
11
      111.09
21
      646.35
39
 0
62
 3
 0
LINE
8
default
6
CONTINUOUS
10
     -109.08
20
      646.64
11
     -111.09
21
      646.35
39
 0
62
 1
 0
LINE
8
default
6
CONTINUOUS
10
      111.09
20
      646.35
11
      113.09
21
      646.04
39
 0
62
 3
 0
LINE
8
default
6
CONTINUOUS
10
     -111.09
20
      646.35
11
     -113.09
21
      646.04
39
 0
62
 1
 0
LINE
8
default
6
CONTINUOUS
10
      113.09
20
      646.04
11
      115.10
21
      645.73
39
 0
62
 3
 0
LINE
8
default
6
CONTINUOUS
10
     -113.09
20
      646.04
11
     -115.10
21
      645.73
39
 0
62
 1
 0
LINE
8
default
6
CONTINUOUS
10
      115.10
20
      645.73
11
      117.10
21
      645.42
39
 0
62
 3
 0
LINE
8
default
6
CONTINUOUS
10
     -115.10
20
      645.73
11
     -117.10
21
      645.42
39
 0
62
 1
 0
LINE
8
default
6
CONTINUOUS
10
      117.10
20
      645.42
11
      119.10
21
      645.10
39
 0
62
 3
 0
LINE
8
default
6
CONTINUOUS
10
     -117.10
20
      645.42
11
     -119.10
21
      645.10
39
 0
62
 1
 0
LINE
8
default
6
CONTINUOUS
10
      119.10
20
      645.10
11
      121.10
21
      644.78
39
 0
62
 3
 0
LINE
8
default
6
CONTINUOUS
10
     -119.10
20
      645.10
11
     -121.10
21
      644.78
39
 0
62
 1
 0
LINE
8
default
6
CONTINUOUS
10
      121.10
20
      644.78
11
      123.10
21
      644.45
39
 0
62
 3
 0
LINE
8
default
6
CONTINUOUS
10
     -121.10
20
      644.78
11
     -123.10
21
      644.45
39
 0
62
 1
 0
LINE
8
default
6
CONTINUOUS
10
      123.10
20
      644.45
11
      125.10
21
      644.11
39
 0
62
 3
 0
LINE
8
default
6
CONTINUOUS
10
     -123.10
20
      644.45
11
     -125.10
21
      644.11
39
 0
62
 1
 0
LINE
8
default
6
CONTINUOUS
10
      125.10
20
      644.11
11
      127.10
21
      643.77
39
 0
62
 3
 0
LINE
8
default
6
CONTINUOUS
10
     -125.10
20
      644.11
11
     -127.10
21
      643.77
39
 0
62
 1
 0
LINE
8
default
6
CONTINUOUS
10
      127.10
20
      643.77
11
      129.10
21
      643.42
39
 0
62
 3
 0
LINE
8
default
6
CONTINUOUS
10
     -127.10
20
      643.77
11
     -129.10
21
      643.42
39
 0
62
 1
 0
LINE
8
default
6
CONTINUOUS
10
      129.10
20
      643.42
11
      131.09
21
      643.07
39
 0
62
 3
 0
LINE
8
default
6
CONTINUOUS
10
     -129.10
20
      643.42
11
     -131.09
21
      643.07
39
 0
62
 1
 0
LINE
8
default
6
CONTINUOUS
10
      131.09
20
      643.07
11
      133.09
21
      642.72
39
 0
62
 3
 0
LINE
8
default
6
CONTINUOUS
10
     -131.09
20
      643.07
11
     -133.09
21
      642.72
39
 0
62
 1
 0
LINE
8
default
6
CONTINUOUS
10
      133.09
20
      642.72
11
      135.08
21
      642.35
39
 0
62
 3
 0
LINE
8
default
6
CONTINUOUS
10
     -133.09
20
      642.72
11
     -135.08
21
      642.35
39
 0
62
 1
 0
LINE
8
default
6
CONTINUOUS
10
      135.08
20
      642.35
11
      137.08
21
      641.99
39
 0
62
 3
 0
LINE
8
default
6
CONTINUOUS
10
     -135.08
20
      642.35
11
     -137.08
21
      641.99
39
 0
62
 1
 0
LINE
8
default
6
CONTINUOUS
10
      137.08
20
      641.99
11
      139.07
21
      641.61
39
 0
62
 3
 0
LINE
8
default
6
CONTINUOUS
10
     -137.08
20
      641.99
11
     -139.07
21
      641.61
39
 0
62
 1
 0
LINE
8
default
6
CONTINUOUS
10
      139.07
20
      641.61
11
      141.06
21
      641.23
39
 0
62
 3
 0
LINE
8
default
6
CONTINUOUS
10
     -139.07
20
      641.61
11
     -141.06
21
      641.23
39
 0
62
 1
 0
LINE
8
default
6
CONTINUOUS
10
      141.06
20
      641.23
11
      143.05
21
      640.85
39
 0
62
 3
 0
LINE
8
default
6
CONTINUOUS
10
     -141.06
20
      641.23
11
     -143.05
21
      640.85
39
 0
62
 1
 0
LINE
8
default
6
CONTINUOUS
10
      143.05
20
      640.85
11
      145.04
21
      640.46
39
 0
62
 3
 0
LINE
8
default
6
CONTINUOUS
10
     -143.05
20
      640.85
11
     -145.04
21
      640.46
39
 0
62
 1
 0
LINE
8
default
6
CONTINUOUS
10
      145.04
20
      640.46
11
      147.03
21
      640.07
39
 0
62
 3
 0
LINE
8
default
6
CONTINUOUS
10
     -145.04
20
      640.46
11
     -147.03
21
      640.07
39
 0
62
 1
 0
LINE
8
default
6
CONTINUOUS
10
      147.03
20
      640.07
11
      149.02
21
      639.67
39
 0
62
 3
 0
LINE
8
default
6
CONTINUOUS
10
     -147.03
20
      640.07
11
     -149.02
21
      639.67
39
 0
62
 1
 0
LINE
8
default
6
CONTINUOUS
10
      149.02
20
      639.67
11
      151.00
21
      639.26
39
 0
62
 3
 0
LINE
8
default
6
CONTINUOUS
10
     -149.02
20
      639.67
11
     -151.00
21
      639.26
39
 0
62
 1
 0
LINE
8
default
6
CONTINUOUS
10
      151.00
20
      639.26
11
      152.99
21
      638.85
39
 0
62
 3
 0
LINE
8
default
6
CONTINUOUS
10
     -151.00
20
      639.26
11
     -152.99
21
      638.85
39
 0
62
 1
 0
LINE
8
default
6
CONTINUOUS
10
      152.99
20
      638.85
11
      154.97
21
      638.43
39
 0
62
 3
 0
LINE
8
default
6
CONTINUOUS
10
     -152.99
20
      638.85
11
     -154.97
21
      638.43
39
 0
62
 1
 0
LINE
8
default
6
CONTINUOUS
10
      154.97
20
      638.43
11
      156.95
21
      638.01
39
 0
62
 3
 0
LINE
8
default
6
CONTINUOUS
10
     -154.97
20
      638.43
11
     -156.95
21
      638.01
39
 0
62
 1
 0
LINE
8
default
6
CONTINUOUS
10
      156.95
20
      638.01
11
      158.94
21
      637.59
39
 0
62
 3
 0
LINE
8
default
6
CONTINUOUS
10
     -156.95
20
      638.01
11
     -158.94
21
      637.59
39
 0
62
 1
 0
LINE
8
default
6
CONTINUOUS
10
      158.94
20
      637.59
11
      160.92
21
      637.15
39
 0
62
 3
 0
LINE
8
default
6
CONTINUOUS
10
     -158.94
20
      637.59
11
     -160.92
21
      637.15
39
 0
62
 1
 0
LINE
8
default
6
CONTINUOUS
10
      160.92
20
      637.15
11
      162.90
21
      636.72
39
 0
62
 3
 0
LINE
8
default
6
CONTINUOUS
10
     -160.92
20
      637.15
11
     -162.90
21
      636.72
39
 0
62
 1
 0
LINE
8
default
6
CONTINUOUS
10
      162.90
20
      636.72
11
      164.87
21
      636.27
39
 0
62
 3
 0
LINE
8
default
6
CONTINUOUS
10
     -162.90
20
      636.72
11
     -164.87
21
      636.27
39
 0
62
 1
 0
LINE
8
default
6
CONTINUOUS
10
      164.87
20
      636.27
11
      166.85
21
      635.82
39
 0
62
 3
 0
LINE
8
default
6
CONTINUOUS
10
     -164.87
20
      636.27
11
     -166.85
21
      635.82
39
 0
62
 1
 0
LINE
8
default
6
CONTINUOUS
10
      166.85
20
      635.82
11
      168.83
21
      635.37
39
 0
62
 3
 0
LINE
8
default
6
CONTINUOUS
10
     -166.85
20
      635.82
11
     -168.83
21
      635.37
39
 0
62
 1
 0
LINE
8
default
6
CONTINUOUS
10
      168.83
20
      635.37
11
      170.80
21
      634.91
39
 0
62
 3
 0
LINE
8
default
6
CONTINUOUS
10
     -168.83
20
      635.37
11
     -170.80
21
      634.91
39
 0
62
 1
 0
LINE
8
default
6
CONTINUOUS
10
      170.80
20
      634.91
11
      172.78
21
      634.45
39
 0
62
 3
 0
LINE
8
default
6
CONTINUOUS
10
     -170.80
20
      634.91
11
     -172.78
21
      634.45
39
 0
62
 1
 0
LINE
8
default
6
CONTINUOUS
10
      172.78
20
      634.45
11
      174.75
21
      633.98
39
 0
62
 3
 0
LINE
8
default
6
CONTINUOUS
10
     -172.78
20
      634.45
11
     -174.75
21
      633.98
39
 0
62
 1
 0
LINE
8
default
6
CONTINUOUS
10
      174.75
20
      633.98
11
      176.72
21
      633.50
39
 0
62
 3
 0
LINE
8
default
6
CONTINUOUS
10
     -174.75
20
      633.98
11
     -176.72
21
      633.50
39
 0
62
 1
 0
LINE
8
default
6
CONTINUOUS
10
      176.72
20
      633.50
11
      178.69
21
      633.02
39
 0
62
 3
 0
LINE
8
default
6
CONTINUOUS
10
     -176.72
20
      633.50
11
     -178.69
21
      633.02
39
 0
62
 1
 0
LINE
8
default
6
CONTINUOUS
10
      178.69
20
      633.02
11
      180.66
21
      632.54
39
 0
62
 3
 0
LINE
8
default
6
CONTINUOUS
10
     -178.69
20
      633.02
11
     -180.66
21
      632.54
39
 0
62
 1
 0
LINE
8
default
6
CONTINUOUS
10
      180.66
20
      632.54
11
      182.62
21
      632.05
39
 0
62
 3
 0
LINE
8
default
6
CONTINUOUS
10
     -180.66
20
      632.54
11
     -182.62
21
      632.05
39
 0
62
 1
 0
LINE
8
default
6
CONTINUOUS
10
      182.62
20
      632.05
11
      184.59
21
      631.55
39
 0
62
 3
 0
LINE
8
default
6
CONTINUOUS
10
     -182.62
20
      632.05
11
     -184.59
21
      631.55
39
 0
62
 1
 0
LINE
8
default
6
CONTINUOUS
10
      184.59
20
      631.55
11
      186.55
21
      631.05
39
 0
62
 3
 0
LINE
8
default
6
CONTINUOUS
10
     -184.59
20
      631.55
11
     -186.55
21
      631.05
39
 0
62
 1
 0
LINE
8
default
6
CONTINUOUS
10
      186.55
20
      631.05
11
      188.52
21
      630.54
39
 0
62
 3
 0
LINE
8
default
6
CONTINUOUS
10
     -186.55
20
      631.05
11
     -188.52
21
      630.54
39
 0
62
 1
 0
LINE
8
default
6
CONTINUOUS
10
      188.52
20
      630.54
11
      190.48
21
      630.03
39
 0
62
 3
 0
LINE
8
default
6
CONTINUOUS
10
     -188.52
20
      630.54
11
     -190.48
21
      630.03
39
 0
62
 1
 0
LINE
8
default
6
CONTINUOUS
10
      190.48
20
      630.03
11
      192.44
21
      629.51
39
 0
62
 3
 0
LINE
8
default
6
CONTINUOUS
10
     -190.48
20
      630.03
11
     -192.44
21
      629.51
39
 0
62
 1
 0
LINE
8
default
6
CONTINUOUS
10
      192.44
20
      629.51
11
      194.40
21
      628.99
39
 0
62
 3
 0
LINE
8
default
6
CONTINUOUS
10
     -192.44
20
      629.51
11
     -194.40
21
      628.99
39
 0
62
 1
 0
LINE
8
default
6
CONTINUOUS
10
      194.40
20
      628.99
11
      196.35
21
      628.46
39
 0
62
 3
 0
LINE
8
default
6
CONTINUOUS
10
     -194.40
20
      628.99
11
     -196.35
21
      628.46
39
 0
62
 1
 0
LINE
8
default
6
CONTINUOUS
10
      196.35
20
      628.46
11
      198.31
21
      627.93
39
 0
62
 3
 0
LINE
8
default
6
CONTINUOUS
10
     -196.35
20
      628.46
11
     -198.31
21
      627.93
39
 0
62
 1
 0
LINE
8
default
6
CONTINUOUS
10
      198.31
20
      627.93
11
      200.15
21
      627.42
39
 0
62
 3
 0
LINE
8
default
6
CONTINUOUS
10
     -198.31
20
      627.93
11
     -200.15
21
      627.42
39
 0
62
 1
 0
LINE
8
default
6
CONTINUOUS
10
      200.15
20
      627.42
11
      201.99
21
      626.90
39
 0
62
 3
 0
LINE
8
default
6
CONTINUOUS
10
     -200.15
20
      627.42
11
     -201.99
21
      626.90
39
 0
62
 1
 0
LINE
8
default
6
CONTINUOUS
10
      201.99
20
      626.90
11
      203.83
21
      626.38
39
 0
62
 3
 0
LINE
8
default
6
CONTINUOUS
10
     -201.99
20
      626.90
11
     -203.83
21
      626.38
39
 0
62
 1
 0
LINE
8
default
6
CONTINUOUS
10
      203.83
20
      626.38
11
      205.67
21
      625.85
39
 0
62
 3
 0
LINE
8
default
6
CONTINUOUS
10
     -203.83
20
      626.38
11
     -205.67
21
      625.85
39
 0
62
 1
 0
LINE
8
default
6
CONTINUOUS
10
      205.67
20
      625.85
11
      207.50
21
      625.32
39
 0
62
 3
 0
LINE
8
default
6
CONTINUOUS
10
     -205.67
20
      625.85
11
     -207.50
21
      625.32
39
 0
62
 1
 0
LINE
8
default
6
CONTINUOUS
10
      207.50
20
      625.32
11
      209.33
21
      624.78
39
 0
62
 3
 0
LINE
8
default
6
CONTINUOUS
10
     -207.50
20
      625.32
11
     -209.33
21
      624.78
39
 0
62
 1
 0
LINE
8
default
6
CONTINUOUS
10
      209.33
20
      624.78
11
      211.16
21
      624.23
39
 0
62
 3
 0
LINE
8
default
6
CONTINUOUS
10
     -209.33
20
      624.78
11
     -211.16
21
      624.23
39
 0
62
 1
 0
LINE
8
default
6
CONTINUOUS
10
      211.16
20
      624.23
11
      212.99
21
      623.67
39
 0
62
 3
 0
LINE
8
default
6
CONTINUOUS
10
     -211.16
20
      624.23
11
     -212.99
21
      623.67
39
 0
62
 1
 0
LINE
8
default
6
CONTINUOUS
10
      212.99
20
      623.67
11
      214.82
21
      623.11
39
 0
62
 3
 0
LINE
8
default
6
CONTINUOUS
10
     -212.99
20
      623.67
11
     -214.82
21
      623.11
39
 0
62
 1
 0
LINE
8
default
6
CONTINUOUS
10
      214.82
20
      623.11
11
      216.64
21
      622.55
39
 0
62
 3
 0
LINE
8
default
6
CONTINUOUS
10
     -214.82
20
      623.11
11
     -216.64
21
      622.55
39
 0
62
 1
 0
LINE
8
default
6
CONTINUOUS
10
      216.64
20
      622.55
11
      218.47
21
      621.97
39
 0
62
 3
 0
LINE
8
default
6
CONTINUOUS
10
     -216.64
20
      622.55
11
     -218.47
21
      621.97
39
 0
62
 1
 0
LINE
8
default
6
CONTINUOUS
10
      218.47
20
      621.97
11
      220.29
21
      621.39
39
 0
62
 3
 0
LINE
8
default
6
CONTINUOUS
10
     -218.47
20
      621.97
11
     -220.29
21
      621.39
39
 0
62
 1
 0
LINE
8
default
6
CONTINUOUS
10
      220.29
20
      621.39
11
      222.10
21
      620.80
39
 0
62
 3
 0
LINE
8
default
6
CONTINUOUS
10
     -220.29
20
      621.39
11
     -222.10
21
      620.80
39
 0
62
 1
 0
LINE
8
default
6
CONTINUOUS
10
      222.10
20
      620.80
11
      223.92
21
      620.21
39
 0
62
 3
 0
LINE
8
default
6
CONTINUOUS
10
     -222.10
20
      620.80
11
     -223.92
21
      620.21
39
 0
62
 1
 0
LINE
8
default
6
CONTINUOUS
10
      223.92
20
      620.21
11
      225.73
21
      619.61
39
 0
62
 3
 0
LINE
8
default
6
CONTINUOUS
10
     -223.92
20
      620.21
11
     -225.73
21
      619.61
39
 0
62
 1
 0
LINE
8
default
6
CONTINUOUS
10
      225.73
20
      619.61
11
      227.55
21
      619.00
39
 0
62
 3
 0
LINE
8
default
6
CONTINUOUS
10
     -225.73
20
      619.61
11
     -227.55
21
      619.00
39
 0
62
 1
 0
LINE
8
default
6
CONTINUOUS
10
      227.55
20
      619.00
11
      229.36
21
      618.39
39
 0
62
 3
 0
LINE
8
default
6
CONTINUOUS
10
     -227.55
20
      619.00
11
     -229.36
21
      618.39
39
 0
62
 1
 0
LINE
8
default
6
CONTINUOUS
10
      229.36
20
      618.39
11
      231.16
21
      617.77
39
 0
62
 3
 0
LINE
8
default
6
CONTINUOUS
10
     -229.36
20
      618.39
11
     -231.16
21
      617.77
39
 0
62
 1
 0
LINE
8
default
6
CONTINUOUS
10
      231.16
20
      617.77
11
      232.97
21
      617.14
39
 0
62
 3
 0
LINE
8
default
6
CONTINUOUS
10
     -231.16
20
      617.77
11
     -232.97
21
      617.14
39
 0
62
 1
 0
LINE
8
default
6
CONTINUOUS
10
      232.97
20
      617.14
11
      234.77
21
      616.51
39
 0
62
 3
 0
LINE
8
default
6
CONTINUOUS
10
     -232.97
20
      617.14
11
     -234.77
21
      616.51
39
 0
62
 1
 0
LINE
8
default
6
CONTINUOUS
10
      234.77
20
      616.51
11
      236.57
21
      615.87
39
 0
62
 3
 0
LINE
8
default
6
CONTINUOUS
10
     -234.77
20
      616.51
11
     -236.57
21
      615.87
39
 0
62
 1
 0
LINE
8
default
6
CONTINUOUS
10
      236.57
20
      615.87
11
      238.37
21
      615.22
39
 0
62
 3
 0
LINE
8
default
6
CONTINUOUS
10
     -236.57
20
      615.87
11
     -238.37
21
      615.22
39
 0
62
 1
 0
LINE
8
default
6
CONTINUOUS
10
      238.37
20
      615.22
11
      240.17
21
      614.57
39
 0
62
 3
 0
LINE
8
default
6
CONTINUOUS
10
     -238.37
20
      615.22
11
     -240.17
21
      614.57
39
 0
62
 1
 0
LINE
8
default
6
CONTINUOUS
10
      240.17
20
      614.57
11
      241.96
21
      613.91
39
 0
62
 3
 0
LINE
8
default
6
CONTINUOUS
10
     -240.17
20
      614.57
11
     -241.96
21
      613.91
39
 0
62
 1
 0
LINE
8
default
6
CONTINUOUS
10
      241.96
20
      613.91
11
      243.75
21
      613.24
39
 0
62
 3
 0
LINE
8
default
6
CONTINUOUS
10
     -241.96
20
      613.91
11
     -243.75
21
      613.24
39
 0
62
 1
 0
LINE
8
default
6
CONTINUOUS
10
      243.75
20
      613.24
11
      245.54
21
      612.57
39
 0
62
 3
 0
LINE
8
default
6
CONTINUOUS
10
     -243.75
20
      613.24
11
     -245.54
21
      612.57
39
 0
62
 1
 0
LINE
8
default
6
CONTINUOUS
10
      245.54
20
      612.57
11
      247.33
21
      611.89
39
 0
62
 3
 0
LINE
8
default
6
CONTINUOUS
10
     -245.54
20
      612.57
11
     -247.33
21
      611.89
39
 0
62
 1
 0
LINE
8
default
6
CONTINUOUS
10
      247.33
20
      611.89
11
      249.11
21
      611.21
39
 0
62
 3
 0
LINE
8
default
6
CONTINUOUS
10
     -247.33
20
      611.89
11
     -249.11
21
      611.21
39
 0
62
 1
 0
LINE
8
default
6
CONTINUOUS
10
      249.11
20
      611.21
11
      250.89
21
      610.51
39
 0
62
 3
 0
LINE
8
default
6
CONTINUOUS
10
     -249.11
20
      611.21
11
     -250.89
21
      610.51
39
 0
62
 1
 0
LINE
8
default
6
CONTINUOUS
10
      250.89
20
      610.51
11
      252.67
21
      609.82
39
 0
62
 3
 0
LINE
8
default
6
CONTINUOUS
10
     -250.89
20
      610.51
11
     -252.67
21
      609.82
39
 0
62
 1
 0
LINE
8
default
6
CONTINUOUS
10
      252.67
20
      609.82
11
      254.45
21
      609.11
39
 0
62
 3
 0
LINE
8
default
6
CONTINUOUS
10
     -252.67
20
      609.82
11
     -254.45
21
      609.11
39
 0
62
 1
 0
LINE
8
default
6
CONTINUOUS
10
      254.45
20
      609.11
11
      256.22
21
      608.40
39
 0
62
 3
 0
LINE
8
default
6
CONTINUOUS
10
     -254.45
20
      609.11
11
     -256.22
21
      608.40
39
 0
62
 1
 0
LINE
8
default
6
CONTINUOUS
10
      256.22
20
      608.40
11
      257.99
21
      607.68
39
 0
62
 3
 0
LINE
8
default
6
CONTINUOUS
10
     -256.22
20
      608.40
11
     -257.99
21
      607.68
39
 0
62
 1
 0
LINE
8
default
6
CONTINUOUS
10
      257.99
20
      607.68
11
      259.76
21
      606.96
39
 0
62
 3
 0
LINE
8
default
6
CONTINUOUS
10
     -257.99
20
      607.68
11
     -259.76
21
      606.96
39
 0
62
 1
 0
LINE
8
default
6
CONTINUOUS
10
      259.76
20
      606.96
11
      261.53
21
      606.23
39
 0
62
 3
 0
LINE
8
default
6
CONTINUOUS
10
     -259.76
20
      606.96
11
     -261.53
21
      606.23
39
 0
62
 1
 0
LINE
8
default
6
CONTINUOUS
10
      261.53
20
      606.23
11
      263.29
21
      605.49
39
 0
62
 3
 0
LINE
8
default
6
CONTINUOUS
10
     -261.53
20
      606.23
11
     -263.29
21
      605.49
39
 0
62
 1
 0
LINE
8
default
6
CONTINUOUS
10
      263.29
20
      605.49
11
      265.05
21
      604.75
39
 0
62
 3
 0
LINE
8
default
6
CONTINUOUS
10
     -263.29
20
      605.49
11
     -265.05
21
      604.75
39
 0
62
 1
 0
LINE
8
default
6
CONTINUOUS
10
      265.05
20
      604.75
11
      266.81
21
      604.00
39
 0
62
 3
 0
LINE
8
default
6
CONTINUOUS
10
     -265.05
20
      604.75
11
     -266.81
21
      604.00
39
 0
62
 1
 0
LINE
8
default
6
CONTINUOUS
10
      266.81
20
      604.00
11
      268.56
21
      603.25
39
 0
62
 3
 0
LINE
8
default
6
CONTINUOUS
10
     -266.81
20
      604.00
11
     -268.56
21
      603.25
39
 0
62
 1
 0
LINE
8
default
6
CONTINUOUS
10
      268.56
20
      603.25
11
      270.32
21
      602.49
39
 0
62
 3
 0
LINE
8
default
6
CONTINUOUS
10
     -268.56
20
      603.25
11
     -270.32
21
      602.49
39
 0
62
 1
 0
LINE
8
default
6
CONTINUOUS
10
      270.32
20
      602.49
11
      272.07
21
      601.72
39
 0
62
 3
 0
LINE
8
default
6
CONTINUOUS
10
     -270.32
20
      602.49
11
     -272.07
21
      601.72
39
 0
62
 1
 0
LINE
8
default
6
CONTINUOUS
10
      272.07
20
      601.72
11
      273.81
21
      600.94
39
 0
62
 3
 0
LINE
8
default
6
CONTINUOUS
10
     -272.07
20
      601.72
11
     -273.81
21
      600.94
39
 0
62
 1
 0
LINE
8
default
6
CONTINUOUS
10
      273.81
20
      600.94
11
      275.56
21
      600.16
39
 0
62
 3
 0
LINE
8
default
6
CONTINUOUS
10
     -273.81
20
      600.94
11
     -275.56
21
      600.16
39
 0
62
 1
 0
LINE
8
default
6
CONTINUOUS
10
      275.56
20
      600.16
11
      277.30
21
      599.38
39
 0
62
 3
 0
LINE
8
default
6
CONTINUOUS
10
     -275.56
20
      600.16
11
     -277.30
21
      599.38
39
 0
62
 1
 0
LINE
8
default
6
CONTINUOUS
10
      277.30
20
      599.38
11
      279.04
21
      598.58
39
 0
62
 3
 0
LINE
8
default
6
CONTINUOUS
10
     -277.30
20
      599.38
11
     -279.04
21
      598.58
39
 0
62
 1
 0
LINE
8
default
6
CONTINUOUS
10
      279.04
20
      598.58
11
      280.77
21
      597.79
39
 0
62
 3
 0
LINE
8
default
6
CONTINUOUS
10
     -279.04
20
      598.58
11
     -280.77
21
      597.79
39
 0
62
 1
 0
LINE
8
default
6
CONTINUOUS
10
      280.77
20
      597.79
11
      282.51
21
      596.98
39
 0
62
 3
 0
LINE
8
default
6
CONTINUOUS
10
     -280.77
20
      597.79
11
     -282.51
21
      596.98
39
 0
62
 1
 0
LINE
8
default
6
CONTINUOUS
10
      282.51
20
      596.98
11
      284.24
21
      596.17
39
 0
62
 3
 0
LINE
8
default
6
CONTINUOUS
10
     -282.51
20
      596.98
11
     -284.24
21
      596.17
39
 0
62
 1
 0
LINE
8
default
6
CONTINUOUS
10
      284.24
20
      596.17
11
      285.96
21
      595.35
39
 0
62
 3
 0
LINE
8
default
6
CONTINUOUS
10
     -284.24
20
      596.17
11
     -285.96
21
      595.35
39
 0
62
 1
 0
LINE
8
default
6
CONTINUOUS
10
      285.96
20
      595.35
11
      287.69
21
      594.53
39
 0
62
 3
 0
LINE
8
default
6
CONTINUOUS
10
     -285.96
20
      595.35
11
     -287.69
21
      594.53
39
 0
62
 1
 0
LINE
8
default
6
CONTINUOUS
10
      287.69
20
      594.53
11
      289.41
21
      593.70
39
 0
62
 3
 0
LINE
8
default
6
CONTINUOUS
10
     -287.69
20
      594.53
11
     -289.41
21
      593.70
39
 0
62
 1
 0
LINE
8
default
6
CONTINUOUS
10
      289.41
20
      593.70
11
      291.13
21
      592.86
39
 0
62
 3
 0
LINE
8
default
6
CONTINUOUS
10
     -289.41
20
      593.70
11
     -291.13
21
      592.86
39
 0
62
 1
 0
LINE
8
default
6
CONTINUOUS
10
      291.13
20
      592.86
11
      292.84
21
      592.02
39
 0
62
 3
 0
LINE
8
default
6
CONTINUOUS
10
     -291.13
20
      592.86
11
     -292.84
21
      592.02
39
 0
62
 1
 0
LINE
8
default
6
CONTINUOUS
10
      292.84
20
      592.02
11
      294.55
21
      591.17
39
 0
62
 3
 0
LINE
8
default
6
CONTINUOUS
10
     -292.84
20
      592.02
11
     -294.55
21
      591.17
39
 0
62
 1
 0
LINE
8
default
6
CONTINUOUS
10
      294.55
20
      591.17
11
      296.26
21
      590.31
39
 0
62
 3
 0
LINE
8
default
6
CONTINUOUS
10
     -294.55
20
      591.17
11
     -296.26
21
      590.31
39
 0
62
 1
 0
LINE
8
default
6
CONTINUOUS
10
      296.26
20
      590.31
11
      297.97
21
      589.45
39
 0
62
 3
 0
LINE
8
default
6
CONTINUOUS
10
     -296.26
20
      590.31
11
     -297.97
21
      589.45
39
 0
62
 1
 0
LINE
8
default
6
CONTINUOUS
10
      297.97
20
      589.45
11
      299.67
21
      588.58
39
 0
62
 3
 0
LINE
8
default
6
CONTINUOUS
10
     -297.97
20
      589.45
11
     -299.67
21
      588.58
39
 0
62
 1
 0
LINE
8
default
6
CONTINUOUS
10
      299.67
20
      588.58
11
      301.37
21
      587.71
39
 0
62
 3
 0
LINE
8
default
6
CONTINUOUS
10
     -299.67
20
      588.58
11
     -301.37
21
      587.71
39
 0
62
 1
 0
LINE
8
default
6
CONTINUOUS
10
      301.37
20
      587.71
11
      303.07
21
      586.83
39
 0
62
 3
 0
LINE
8
default
6
CONTINUOUS
10
     -301.37
20
      587.71
11
     -303.07
21
      586.83
39
 0
62
 1
 0
LINE
8
default
6
CONTINUOUS
10
      303.07
20
      586.83
11
      304.76
21
      585.94
39
 0
62
 3
 0
LINE
8
default
6
CONTINUOUS
10
     -303.07
20
      586.83
11
     -304.76
21
      585.94
39
 0
62
 1
 0
LINE
8
default
6
CONTINUOUS
10
      304.76
20
      585.94
11
      306.45
21
      585.05
39
 0
62
 3
 0
LINE
8
default
6
CONTINUOUS
10
     -304.76
20
      585.94
11
     -306.45
21
      585.05
39
 0
62
 1
 0
LINE
8
default
6
CONTINUOUS
10
      306.45
20
      585.05
11
      308.14
21
      584.15
39
 0
62
 3
 0
LINE
8
default
6
CONTINUOUS
10
     -306.45
20
      585.05
11
     -308.14
21
      584.15
39
 0
62
 1
 0
LINE
8
default
6
CONTINUOUS
10
      308.14
20
      584.15
11
      309.82
21
      583.25
39
 0
62
 3
 0
LINE
8
default
6
CONTINUOUS
10
     -308.14
20
      584.15
11
     -309.82
21
      583.25
39
 0
62
 1
 0
LINE
8
default
6
CONTINUOUS
10
      309.82
20
      583.25
11
      311.50
21
      582.34
39
 0
62
 3
 0
LINE
8
default
6
CONTINUOUS
10
     -309.82
20
      583.25
11
     -311.50
21
      582.34
39
 0
62
 1
 0
LINE
8
default
6
CONTINUOUS
10
      311.50
20
      582.34
11
      313.18
21
      581.42
39
 0
62
 3
 0
LINE
8
default
6
CONTINUOUS
10
     -311.50
20
      582.34
11
     -313.18
21
      581.42
39
 0
62
 1
 0
LINE
8
default
6
CONTINUOUS
10
      313.18
20
      581.42
11
      314.85
21
      580.50
39
 0
62
 3
 0
LINE
8
default
6
CONTINUOUS
10
     -313.18
20
      581.42
11
     -314.85
21
      580.50
39
 0
62
 1
 0
LINE
8
default
6
CONTINUOUS
10
      314.85
20
      580.50
11
      316.52
21
      579.57
39
 0
62
 3
 0
LINE
8
default
6
CONTINUOUS
10
     -314.85
20
      580.50
11
     -316.52
21
      579.57
39
 0
62
 1
 0
LINE
8
default
6
CONTINUOUS
10
      316.52
20
      579.57
11
      318.19
21
      578.64
39
 0
62
 3
 0
LINE
8
default
6
CONTINUOUS
10
     -316.52
20
      579.57
11
     -318.19
21
      578.64
39
 0
62
 1
 0
LINE
8
default
6
CONTINUOUS
10
      318.19
20
      578.64
11
      319.85
21
      577.70
39
 0
62
 3
 0
LINE
8
default
6
CONTINUOUS
10
     -318.19
20
      578.64
11
     -319.85
21
      577.70
39
 0
62
 1
 0
LINE
8
default
6
CONTINUOUS
10
      319.85
20
      577.70
11
      321.51
21
      576.75
39
 0
62
 3
 0
LINE
8
default
6
CONTINUOUS
10
     -319.85
20
      577.70
11
     -321.51
21
      576.75
39
 0
62
 1
 0
LINE
8
default
6
CONTINUOUS
10
      321.51
20
      576.75
11
      323.17
21
      575.80
39
 0
62
 3
 0
LINE
8
default
6
CONTINUOUS
10
     -321.51
20
      576.75
11
     -323.17
21
      575.80
39
 0
62
 1
 0
LINE
8
default
6
CONTINUOUS
10
      323.17
20
      575.80
11
      324.82
21
      574.84
39
 0
62
 3
 0
LINE
8
default
6
CONTINUOUS
10
     -323.17
20
      575.80
11
     -324.82
21
      574.84
39
 0
62
 1
 0
LINE
8
default
6
CONTINUOUS
10
      324.82
20
      574.84
11
      326.47
21
      573.88
39
 0
62
 3
 0
LINE
8
default
6
CONTINUOUS
10
     -324.82
20
      574.84
11
     -326.47
21
      573.88
39
 0
62
 1
 0
LINE
8
default
6
CONTINUOUS
10
      326.47
20
      573.88
11
      328.12
21
      572.91
39
 0
62
 3
 0
LINE
8
default
6
CONTINUOUS
10
     -326.47
20
      573.88
11
     -328.12
21
      572.91
39
 0
62
 1
 0
LINE
8
default
6
CONTINUOUS
10
      328.12
20
      572.91
11
      329.76
21
      571.93
39
 0
62
 3
 0
LINE
8
default
6
CONTINUOUS
10
     -328.12
20
      572.91
11
     -329.76
21
      571.93
39
 0
62
 1
 0
LINE
8
default
6
CONTINUOUS
10
      329.76
20
      571.93
11
      331.40
21
      570.95
39
 0
62
 3
 0
LINE
8
default
6
CONTINUOUS
10
     -329.76
20
      571.93
11
     -331.40
21
      570.95
39
 0
62
 1
 0
LINE
8
default
6
CONTINUOUS
10
      331.40
20
      570.95
11
      333.04
21
      569.96
39
 0
62
 3
 0
LINE
8
default
6
CONTINUOUS
10
     -331.40
20
      570.95
11
     -333.04
21
      569.96
39
 0
62
 1
 0
LINE
8
default
6
CONTINUOUS
10
      333.04
20
      569.96
11
      334.67
21
      568.97
39
 0
62
 3
 0
LINE
8
default
6
CONTINUOUS
10
     -333.04
20
      569.96
11
     -334.67
21
      568.97
39
 0
62
 1
 0
LINE
8
default
6
CONTINUOUS
10
      334.67
20
      568.97
11
      336.30
21
      567.97
39
 0
62
 3
 0
LINE
8
default
6
CONTINUOUS
10
     -334.67
20
      568.97
11
     -336.30
21
      567.97
39
 0
62
 1
 0
LINE
8
default
6
CONTINUOUS
10
      336.30
20
      567.97
11
      337.92
21
      566.97
39
 0
62
 3
 0
LINE
8
default
6
CONTINUOUS
10
     -336.30
20
      567.97
11
     -337.92
21
      566.97
39
 0
62
 1
 0
LINE
8
default
6
CONTINUOUS
10
      337.92
20
      566.97
11
      339.55
21
      565.95
39
 0
62
 3
 0
LINE
8
default
6
CONTINUOUS
10
     -337.92
20
      566.97
11
     -339.55
21
      565.95
39
 0
62
 1
 0
LINE
8
default
6
CONTINUOUS
10
      339.55
20
      565.95
11
      341.16
21
      564.94
39
 0
62
 3
 0
LINE
8
default
6
CONTINUOUS
10
     -339.55
20
      565.95
11
     -341.16
21
      564.94
39
 0
62
 1
 0
LINE
8
default
6
CONTINUOUS
10
      341.16
20
      564.94
11
      342.78
21
      563.91
39
 0
62
 3
 0
LINE
8
default
6
CONTINUOUS
10
     -341.16
20
      564.94
11
     -342.78
21
      563.91
39
 0
62
 1
 0
LINE
8
default
6
CONTINUOUS
10
      342.78
20
      563.91
11
      344.39
21
      562.89
39
 0
62
 3
 0
LINE
8
default
6
CONTINUOUS
10
     -342.78
20
      563.91
11
     -344.39
21
      562.89
39
 0
62
 1
 0
LINE
8
default
6
CONTINUOUS
10
      344.39
20
      562.89
11
      345.99
21
      561.85
39
 0
62
 3
 0
LINE
8
default
6
CONTINUOUS
10
     -344.39
20
      562.89
11
     -345.99
21
      561.85
39
 0
62
 1
 0
LINE
8
default
6
CONTINUOUS
10
      345.99
20
      561.85
11
      347.60
21
      560.81
39
 0
62
 3
 0
LINE
8
default
6
CONTINUOUS
10
     -345.99
20
      561.85
11
     -347.60
21
      560.81
39
 0
62
 1
 0
LINE
8
default
6
CONTINUOUS
10
      347.60
20
      560.81
11
      349.20
21
      559.76
39
 0
62
 3
 0
LINE
8
default
6
CONTINUOUS
10
     -347.60
20
      560.81
11
     -349.20
21
      559.76
39
 0
62
 1
 0
LINE
8
default
6
CONTINUOUS
10
      349.20
20
      559.76
11
      350.79
21
      558.71
39
 0
62
 3
 0
LINE
8
default
6
CONTINUOUS
10
     -349.20
20
      559.76
11
     -350.79
21
      558.71
39
 0
62
 1
 0
LINE
8
default
6
CONTINUOUS
10
      350.79
20
      558.71
11
      352.38
21
      557.66
39
 0
62
 3
 0
LINE
8
default
6
CONTINUOUS
10
     -350.79
20
      558.71
11
     -352.38
21
      557.66
39
 0
62
 1
 0
LINE
8
default
6
CONTINUOUS
10
      352.38
20
      557.66
11
      353.97
21
      556.59
39
 0
62
 3
 0
LINE
8
default
6
CONTINUOUS
10
     -352.38
20
      557.66
11
     -353.97
21
      556.59
39
 0
62
 1
 0
LINE
8
default
6
CONTINUOUS
10
      353.97
20
      556.59
11
      355.55
21
      555.52
39
 0
62
 3
 0
LINE
8
default
6
CONTINUOUS
10
     -353.97
20
      556.59
11
     -355.55
21
      555.52
39
 0
62
 1
 0
LINE
8
default
6
CONTINUOUS
10
      355.55
20
      555.52
11
      357.13
21
      554.45
39
 0
62
 3
 0
LINE
8
default
6
CONTINUOUS
10
     -355.55
20
      555.52
11
     -357.13
21
      554.45
39
 0
62
 1
 0
LINE
8
default
6
CONTINUOUS
10
      357.13
20
      554.45
11
      358.71
21
      553.37
39
 0
62
 3
 0
LINE
8
default
6
CONTINUOUS
10
     -357.13
20
      554.45
11
     -358.71
21
      553.37
39
 0
62
 1
 0
LINE
8
default
6
CONTINUOUS
10
      358.71
20
      553.37
11
      360.28
21
      552.28
39
 0
62
 3
 0
LINE
8
default
6
CONTINUOUS
10
     -358.71
20
      553.37
11
     -360.28
21
      552.28
39
 0
62
 1
 0
LINE
8
default
6
CONTINUOUS
10
      360.28
20
      552.28
11
      361.85
21
      551.19
39
 0
62
 3
 0
LINE
8
default
6
CONTINUOUS
10
     -360.28
20
      552.28
11
     -361.85
21
      551.19
39
 0
62
 1
 0
LINE
8
default
6
CONTINUOUS
10
      361.85
20
      551.19
11
      363.42
21
      550.09
39
 0
62
 3
 0
LINE
8
default
6
CONTINUOUS
10
     -361.85
20
      551.19
11
     -363.42
21
      550.09
39
 0
62
 1
 0
LINE
8
default
6
CONTINUOUS
10
      363.42
20
      550.09
11
      364.98
21
      548.99
39
 0
62
 3
 0
LINE
8
default
6
CONTINUOUS
10
     -363.42
20
      550.09
11
     -364.98
21
      548.99
39
 0
62
 1
 0
LINE
8
default
6
CONTINUOUS
10
      364.98
20
      548.99
11
      366.53
21
      547.88
39
 0
62
 3
 0
LINE
8
default
6
CONTINUOUS
10
     -364.98
20
      548.99
11
     -366.53
21
      547.88
39
 0
62
 1
 0
LINE
8
default
6
CONTINUOUS
10
      366.53
20
      547.88
11
      368.09
21
      546.77
39
 0
62
 3
 0
LINE
8
default
6
CONTINUOUS
10
     -366.53
20
      547.88
11
     -368.09
21
      546.77
39
 0
62
 1
 0
LINE
8
default
6
CONTINUOUS
10
      368.09
20
      546.77
11
      369.08
21
      546.05
39
 0
62
 3
 0
LINE
8
default
6
CONTINUOUS
10
     -368.09
20
      546.77
11
     -369.08
21
      546.05
39
 0
62
 1
 0
LINE
8
default
6
CONTINUOUS
10
      369.08
20
      546.05
11
      370.08
21
      545.32
39
 0
62
 3
 0
LINE
8
default
6
CONTINUOUS
10
     -369.08
20
      546.05
11
     -370.08
21
      545.32
39
 0
62
 1
 0
LINE
8
default
6
CONTINUOUS
10
      370.08
20
      545.32
11
      371.07
21
      544.59
39
 0
62
 3
 0
LINE
8
default
6
CONTINUOUS
10
     -370.08
20
      545.32
11
     -371.07
21
      544.59
39
 0
62
 1
 0
LINE
8
default
6
CONTINUOUS
10
      371.07
20
      544.59
11
      372.06
21
      543.86
39
 0
62
 3
 0
LINE
8
default
6
CONTINUOUS
10
     -371.07
20
      544.59
11
     -372.06
21
      543.86
39
 0
62
 1
 0
LINE
8
default
6
CONTINUOUS
10
      372.06
20
      543.86
11
      373.05
21
      543.13
39
 0
62
 3
 0
LINE
8
default
6
CONTINUOUS
10
     -372.06
20
      543.86
11
     -373.05
21
      543.13
39
 0
62
 1
 0
LINE
8
default
6
CONTINUOUS
10
      373.05
20
      543.13
11
      374.04
21
      542.39
39
 0
62
 3
 0
LINE
8
default
6
CONTINUOUS
10
     -373.05
20
      543.13
11
     -374.04
21
      542.39
39
 0
62
 1
 0
LINE
8
default
6
CONTINUOUS
10
      374.04
20
      542.39
11
      375.02
21
      541.65
39
 0
62
 3
 0
LINE
8
default
6
CONTINUOUS
10
     -374.04
20
      542.39
11
     -375.02
21
      541.65
39
 0
62
 1
 0
LINE
8
default
6
CONTINUOUS
10
      375.02
20
      541.65
11
      376.00
21
      540.91
39
 0
62
 3
 0
LINE
8
default
6
CONTINUOUS
10
     -375.02
20
      541.65
11
     -376.00
21
      540.91
39
 0
62
 1
 0
LINE
8
default
6
CONTINUOUS
10
      376.00
20
      540.91
11
      376.98
21
      540.16
39
 0
62
 3
 0
LINE
8
default
6
CONTINUOUS
10
     -376.00
20
      540.91
11
     -376.98
21
      540.16
39
 0
62
 1
 0
LINE
8
default
6
CONTINUOUS
10
      376.98
20
      540.16
11
      377.96
21
      539.41
39
 0
62
 3
 0
LINE
8
default
6
CONTINUOUS
10
     -376.98
20
      540.16
11
     -377.96
21
      539.41
39
 0
62
 1
 0
LINE
8
default
6
CONTINUOUS
10
      377.96
20
      539.41
11
      378.93
21
      538.65
39
 0
62
 3
 0
LINE
8
default
6
CONTINUOUS
10
     -377.96
20
      539.41
11
     -378.93
21
      538.65
39
 0
62
 1
 0
LINE
8
default
6
CONTINUOUS
10
      378.93
20
      538.65
11
      379.90
21
      537.90
39
 0
62
 3
 0
LINE
8
default
6
CONTINUOUS
10
     -378.93
20
      538.65
11
     -379.90
21
      537.90
39
 0
62
 1
 0
LINE
8
default
6
CONTINUOUS
10
      379.90
20
      537.90
11
      380.87
21
      537.14
39
 0
62
 3
 0
LINE
8
default
6
CONTINUOUS
10
     -379.90
20
      537.90
11
     -380.87
21
      537.14
39
 0
62
 1
 0
LINE
8
default
6
CONTINUOUS
10
      380.87
20
      537.14
11
      381.84
21
      536.37
39
 0
62
 3
 0
LINE
8
default
6
CONTINUOUS
10
     -380.87
20
      537.14
11
     -381.84
21
      536.37
39
 0
62
 1
 0
LINE
8
default
6
CONTINUOUS
10
      381.84
20
      536.37
11
      382.80
21
      535.61
39
 0
62
 3
 0
LINE
8
default
6
CONTINUOUS
10
     -381.84
20
      536.37
11
     -382.80
21
      535.61
39
 0
62
 1
 0
LINE
8
default
6
CONTINUOUS
10
      382.80
20
      535.61
11
      383.76
21
      534.84
39
 0
62
 3
 0
LINE
8
default
6
CONTINUOUS
10
     -382.80
20
      535.61
11
     -383.76
21
      534.84
39
 0
62
 1
 0
LINE
8
default
6
CONTINUOUS
10
      383.76
20
      534.84
11
      384.72
21
      534.06
39
 0
62
 3
 0
LINE
8
default
6
CONTINUOUS
10
     -383.76
20
      534.84
11
     -384.72
21
      534.06
39
 0
62
 1
 0
LINE
8
default
6
CONTINUOUS
10
      384.72
20
      534.06
11
      385.67
21
      533.29
39
 0
62
 3
 0
LINE
8
default
6
CONTINUOUS
10
     -384.72
20
      534.06
11
     -385.67
21
      533.29
39
 0
62
 1
 0
LINE
8
default
6
CONTINUOUS
10
      385.67
20
      533.29
11
      386.63
21
      532.51
39
 0
62
 3
 0
LINE
8
default
6
CONTINUOUS
10
     -385.67
20
      533.29
11
     -386.63
21
      532.51
39
 0
62
 1
 0
LINE
8
default
6
CONTINUOUS
10
      386.63
20
      532.51
11
      387.58
21
      531.73
39
 0
62
 3
 0
LINE
8
default
6
CONTINUOUS
10
     -386.63
20
      532.51
11
     -387.58
21
      531.73
39
 0
62
 1
 0
LINE
8
default
6
CONTINUOUS
10
      387.58
20
      531.73
11
      388.53
21
      530.94
39
 0
62
 3
 0
LINE
8
default
6
CONTINUOUS
10
     -387.58
20
      531.73
11
     -388.53
21
      530.94
39
 0
62
 1
 0
LINE
8
default
6
CONTINUOUS
10
      388.53
20
      530.94
11
      389.47
21
      530.15
39
 0
62
 3
 0
LINE
8
default
6
CONTINUOUS
10
     -388.53
20
      530.94
11
     -389.47
21
      530.15
39
 0
62
 1
 0
LINE
8
default
6
CONTINUOUS
10
      389.47
20
      530.15
11
      390.42
21
      529.36
39
 0
62
 3
 0
LINE
8
default
6
CONTINUOUS
10
     -389.47
20
      530.15
11
     -390.42
21
      529.36
39
 0
62
 1
 0
LINE
8
default
6
CONTINUOUS
10
      390.42
20
      529.36
11
      391.36
21
      528.57
39
 0
62
 3
 0
LINE
8
default
6
CONTINUOUS
10
     -390.42
20
      529.36
11
     -391.36
21
      528.57
39
 0
62
 1
 0
LINE
8
default
6
CONTINUOUS
10
      391.36
20
      528.57
11
      392.30
21
      527.77
39
 0
62
 3
 0
LINE
8
default
6
CONTINUOUS
10
     -391.36
20
      528.57
11
     -392.30
21
      527.77
39
 0
62
 1
 0
LINE
8
default
6
CONTINUOUS
10
      392.30
20
      527.77
11
      393.23
21
      526.97
39
 0
62
 3
 0
LINE
8
default
6
CONTINUOUS
10
     -392.30
20
      527.77
11
     -393.23
21
      526.97
39
 0
62
 1
 0
LINE
8
default
6
CONTINUOUS
10
      393.23
20
      526.97
11
      394.16
21
      526.17
39
 0
62
 3
 0
LINE
8
default
6
CONTINUOUS
10
     -393.23
20
      526.97
11
     -394.16
21
      526.17
39
 0
62
 1
 0
LINE
8
default
6
CONTINUOUS
10
      394.16
20
      526.17
11
      395.09
21
      525.36
39
 0
62
 3
 0
LINE
8
default
6
CONTINUOUS
10
     -394.16
20
      526.17
11
     -395.09
21
      525.36
39
 0
62
 1
 0
LINE
8
default
6
CONTINUOUS
10
      395.09
20
      525.36
11
      396.02
21
      524.55
39
 0
62
 3
 0
LINE
8
default
6
CONTINUOUS
10
     -395.09
20
      525.36
11
     -396.02
21
      524.55
39
 0
62
 1
 0
LINE
8
default
6
CONTINUOUS
10
      396.02
20
      524.55
11
      396.95
21
      523.74
39
 0
62
 3
 0
LINE
8
default
6
CONTINUOUS
10
     -396.02
20
      524.55
11
     -396.95
21
      523.74
39
 0
62
 1
 0
LINE
8
default
6
CONTINUOUS
10
      396.95
20
      523.74
11
      397.87
21
      522.92
39
 0
62
 3
 0
LINE
8
default
6
CONTINUOUS
10
     -396.95
20
      523.74
11
     -397.87
21
      522.92
39
 0
62
 1
 0
LINE
8
default
6
CONTINUOUS
10
      397.87
20
      522.92
11
      398.79
21
      522.10
39
 0
62
 3
 0
LINE
8
default
6
CONTINUOUS
10
     -397.87
20
      522.92
11
     -398.79
21
      522.10
39
 0
62
 1
 0
LINE
8
default
6
CONTINUOUS
10
      398.79
20
      522.10
11
      399.70
21
      521.28
39
 0
62
 3
 0
LINE
8
default
6
CONTINUOUS
10
     -398.79
20
      522.10
11
     -399.70
21
      521.28
39
 0
62
 1
 0
LINE
8
default
6
CONTINUOUS
10
      399.70
20
      521.28
11
      400.62
21
      520.45
39
 0
62
 3
 0
LINE
8
default
6
CONTINUOUS
10
     -399.70
20
      521.28
11
     -400.62
21
      520.45
39
 0
62
 1
 0
LINE
8
default
6
CONTINUOUS
10
      400.62
20
      520.45
11
      401.53
21
      519.63
39
 0
62
 3
 0
LINE
8
default
6
CONTINUOUS
10
     -400.62
20
      520.45
11
     -401.53
21
      519.63
39
 0
62
 1
 0
LINE
8
default
6
CONTINUOUS
10
      401.53
20
      519.63
11
      402.44
21
      518.80
39
 0
62
 3
 0
LINE
8
default
6
CONTINUOUS
10
     -401.53
20
      519.63
11
     -402.44
21
      518.80
39
 0
62
 1
 0
LINE
8
default
6
CONTINUOUS
10
      402.44
20
      518.80
11
      403.34
21
      517.96
39
 0
62
 3
 0
LINE
8
default
6
CONTINUOUS
10
     -402.44
20
      518.80
11
     -403.34
21
      517.96
39
 0
62
 1
 0
LINE
8
default
6
CONTINUOUS
10
      403.34
20
      517.96
11
      404.25
21
      517.12
39
 0
62
 3
 0
LINE
8
default
6
CONTINUOUS
10
     -403.34
20
      517.96
11
     -404.25
21
      517.12
39
 0
62
 1
 0
LINE
8
default
6
CONTINUOUS
10
      404.25
20
      517.12
11
      405.15
21
      516.28
39
 0
62
 3
 0
LINE
8
default
6
CONTINUOUS
10
     -404.25
20
      517.12
11
     -405.15
21
      516.28
39
 0
62
 1
 0
LINE
8
default
6
CONTINUOUS
10
      405.15
20
      516.28
11
      406.04
21
      515.44
39
 0
62
 3
 0
LINE
8
default
6
CONTINUOUS
10
     -405.15
20
      516.28
11
     -406.04
21
      515.44
39
 0
62
 1
 0
LINE
8
default
6
CONTINUOUS
10
      406.04
20
      515.44
11
      406.94
21
      514.60
39
 0
62
 3
 0
LINE
8
default
6
CONTINUOUS
10
     -406.04
20
      515.44
11
     -406.94
21
      514.60
39
 0
62
 1
 0
LINE
8
default
6
CONTINUOUS
10
      406.94
20
      514.60
11
      407.83
21
      513.75
39
 0
62
 3
 0
LINE
8
default
6
CONTINUOUS
10
     -406.94
20
      514.60
11
     -407.83
21
      513.75
39
 0
62
 1
 0
LINE
8
default
6
CONTINUOUS
10
      407.83
20
      513.75
11
      408.72
21
      512.90
39
 0
62
 3
 0
LINE
8
default
6
CONTINUOUS
10
     -407.83
20
      513.75
11
     -408.72
21
      512.90
39
 0
62
 1
 0
LINE
8
default
6
CONTINUOUS
10
      408.72
20
      512.90
11
      409.61
21
      512.04
39
 0
62
 3
 0
LINE
8
default
6
CONTINUOUS
10
     -408.72
20
      512.90
11
     -409.61
21
      512.04
39
 0
62
 1
 0
LINE
8
default
6
CONTINUOUS
10
      409.61
20
      512.04
11
      410.49
21
      511.18
39
 0
62
 3
 0
LINE
8
default
6
CONTINUOUS
10
     -409.61
20
      512.04
11
     -410.49
21
      511.18
39
 0
62
 1
 0
LINE
8
default
6
CONTINUOUS
10
      410.49
20
      511.18
11
      411.37
21
      510.32
39
 0
62
 3
 0
LINE
8
default
6
CONTINUOUS
10
     -410.49
20
      511.18
11
     -411.37
21
      510.32
39
 0
62
 1
 0
LINE
8
default
6
CONTINUOUS
10
      411.37
20
      510.32
11
      412.25
21
      509.46
39
 0
62
 3
 0
LINE
8
default
6
CONTINUOUS
10
     -411.37
20
      510.32
11
     -412.25
21
      509.46
39
 0
62
 1
 0
LINE
8
default
6
CONTINUOUS
10
      412.25
20
      509.46
11
      413.12
21
      508.59
39
 0
62
 3
 0
LINE
8
default
6
CONTINUOUS
10
     -412.25
20
      509.46
11
     -413.12
21
      508.59
39
 0
62
 1
 0
LINE
8
default
6
CONTINUOUS
10
      413.12
20
      508.59
11
      414.00
21
      507.72
39
 0
62
 3
 0
LINE
8
default
6
CONTINUOUS
10
     -413.12
20
      508.59
11
     -414.00
21
      507.72
39
 0
62
 1
 0
LINE
8
default
6
CONTINUOUS
10
      414.00
20
      507.72
11
      414.87
21
      506.85
39
 0
62
 3
 0
LINE
8
default
6
CONTINUOUS
10
     -414.00
20
      507.72
11
     -414.87
21
      506.85
39
 0
62
 1
 0
LINE
8
default
6
CONTINUOUS
10
      414.87
20
      506.85
11
      415.73
21
      505.98
39
 0
62
 3
 0
LINE
8
default
6
CONTINUOUS
10
     -414.87
20
      506.85
11
     -415.73
21
      505.98
39
 0
62
 1
 0
LINE
8
default
6
CONTINUOUS
10
      415.73
20
      505.98
11
      416.60
21
      505.10
39
 0
62
 3
 0
LINE
8
default
6
CONTINUOUS
10
     -415.73
20
      505.98
11
     -416.60
21
      505.10
39
 0
62
 1
 0
LINE
8
default
6
CONTINUOUS
10
      416.60
20
      505.10
11
      417.46
21
      504.22
39
 0
62
 3
 0
LINE
8
default
6
CONTINUOUS
10
     -416.60
20
      505.10
11
     -417.46
21
      504.22
39
 0
62
 1
 0
LINE
8
default
6
CONTINUOUS
10
      417.46
20
      504.22
11
      418.31
21
      503.34
39
 0
62
 3
 0
LINE
8
default
6
CONTINUOUS
10
     -417.46
20
      504.22
11
     -418.31
21
      503.34
39
 0
62
 1
 0
LINE
8
default
6
CONTINUOUS
10
      418.31
20
      503.34
11
      419.17
21
      502.45
39
 0
62
 3
 0
LINE
8
default
6
CONTINUOUS
10
     -418.31
20
      503.34
11
     -419.17
21
      502.45
39
 0
62
 1
 0
LINE
8
default
6
CONTINUOUS
10
      419.17
20
      502.45
11
      420.02
21
      501.56
39
 0
62
 3
 0
LINE
8
default
6
CONTINUOUS
10
     -419.17
20
      502.45
11
     -420.02
21
      501.56
39
 0
62
 1
 0
LINE
8
default
6
CONTINUOUS
10
      420.02
20
      501.56
11
      420.87
21
      500.67
39
 0
62
 3
 0
LINE
8
default
6
CONTINUOUS
10
     -420.02
20
      501.56
11
     -420.87
21
      500.67
39
 0
62
 1
 0
LINE
8
default
6
CONTINUOUS
10
      420.87
20
      500.67
11
      421.72
21
      499.78
39
 0
62
 3
 0
LINE
8
default
6
CONTINUOUS
10
     -420.87
20
      500.67
11
     -421.72
21
      499.78
39
 0
62
 1
 0
LINE
8
default
6
CONTINUOUS
10
      421.72
20
      499.78
11
      422.56
21
      498.88
39
 0
62
 3
 0
LINE
8
default
6
CONTINUOUS
10
     -421.72
20
      499.78
11
     -422.56
21
      498.88
39
 0
62
 1
 0
LINE
8
default
6
CONTINUOUS
10
      422.56
20
      498.88
11
      423.40
21
      497.98
39
 0
62
 3
 0
LINE
8
default
6
CONTINUOUS
10
     -422.56
20
      498.88
11
     -423.40
21
      497.98
39
 0
62
 1
 0
LINE
8
default
6
CONTINUOUS
10
      423.40
20
      497.98
11
      424.24
21
      497.08
39
 0
62
 3
 0
LINE
8
default
6
CONTINUOUS
10
     -423.40
20
      497.98
11
     -424.24
21
      497.08
39
 0
62
 1
 0
LINE
8
default
6
CONTINUOUS
10
      424.24
20
      497.08
11
      425.07
21
      496.17
39
 0
62
 3
 0
LINE
8
default
6
CONTINUOUS
10
     -424.24
20
      497.08
11
     -425.07
21
      496.17
39
 0
62
 1
 0
LINE
8
default
6
CONTINUOUS
10
      425.07
20
      496.17
11
      425.90
21
      495.26
39
 0
62
 3
 0
LINE
8
default
6
CONTINUOUS
10
     -425.07
20
      496.17
11
     -425.90
21
      495.26
39
 0
62
 1
 0
LINE
8
default
6
CONTINUOUS
10
      425.90
20
      495.26
11
      426.73
21
      494.35
39
 0
62
 3
 0
LINE
8
default
6
CONTINUOUS
10
     -425.90
20
      495.26
11
     -426.73
21
      494.35
39
 0
62
 1
 0
LINE
8
default
6
CONTINUOUS
10
      426.73
20
      494.35
11
      427.56
21
      493.44
39
 0
62
 3
 0
LINE
8
default
6
CONTINUOUS
10
     -426.73
20
      494.35
11
     -427.56
21
      493.44
39
 0
62
 1
 0
LINE
8
default
6
CONTINUOUS
10
      427.56
20
      493.44
11
      428.38
21
      492.52
39
 0
62
 3
 0
LINE
8
default
6
CONTINUOUS
10
     -427.56
20
      493.44
11
     -428.38
21
      492.52
39
 0
62
 1
 0
LINE
8
default
6
CONTINUOUS
10
      428.38
20
      492.52
11
      429.20
21
      491.60
39
 0
62
 3
 0
LINE
8
default
6
CONTINUOUS
10
     -428.38
20
      492.52
11
     -429.20
21
      491.60
39
 0
62
 1
 0
LINE
8
default
6
CONTINUOUS
10
      429.20
20
      491.60
11
      430.02
21
      490.68
39
 0
62
 3
 0
LINE
8
default
6
CONTINUOUS
10
     -429.20
20
      491.60
11
     -430.02
21
      490.68
39
 0
62
 1
 0
LINE
8
default
6
CONTINUOUS
10
      430.02
20
      490.68
11
      430.83
21
      489.76
39
 0
62
 3
 0
LINE
8
default
6
CONTINUOUS
10
     -430.02
20
      490.68
11
     -430.83
21
      489.76
39
 0
62
 1
 0
LINE
8
default
6
CONTINUOUS
10
      430.83
20
      489.76
11
      431.64
21
      488.83
39
 0
62
 3
 0
LINE
8
default
6
CONTINUOUS
10
     -430.83
20
      489.76
11
     -431.64
21
      488.83
39
 0
62
 1
 0
LINE
8
default
6
CONTINUOUS
10
      431.64
20
      488.83
11
      432.45
21
      487.90
39
 0
62
 3
 0
LINE
8
default
6
CONTINUOUS
10
     -431.64
20
      488.83
11
     -432.45
21
      487.90
39
 0
62
 1
 0
LINE
8
default
6
CONTINUOUS
10
      432.45
20
      487.90
11
      433.25
21
      486.97
39
 0
62
 3
 0
LINE
8
default
6
CONTINUOUS
10
     -432.45
20
      487.90
11
     -433.25
21
      486.97
39
 0
62
 1
 0
LINE
8
default
6
CONTINUOUS
10
      433.25
20
      486.97
11
      434.05
21
      486.03
39
 0
62
 3
 0
LINE
8
default
6
CONTINUOUS
10
     -433.25
20
      486.97
11
     -434.05
21
      486.03
39
 0
62
 1
 0
LINE
8
default
6
CONTINUOUS
10
      434.05
20
      486.03
11
      434.85
21
      485.10
39
 0
62
 3
 0
LINE
8
default
6
CONTINUOUS
10
     -434.05
20
      486.03
11
     -434.85
21
      485.10
39
 0
62
 1
 0
LINE
8
default
6
CONTINUOUS
10
      434.85
20
      485.10
11
      435.65
21
      484.16
39
 0
62
 3
 0
LINE
8
default
6
CONTINUOUS
10
     -434.85
20
      485.10
11
     -435.65
21
      484.16
39
 0
62
 1
 0
LINE
8
default
6
CONTINUOUS
10
      435.65
20
      484.16
11
      436.44
21
      483.21
39
 0
62
 3
 0
LINE
8
default
6
CONTINUOUS
10
     -435.65
20
      484.16
11
     -436.44
21
      483.21
39
 0
62
 1
 0
LINE
8
default
6
CONTINUOUS
10
      436.44
20
      483.21
11
      437.23
21
      482.27
39
 0
62
 3
 0
LINE
8
default
6
CONTINUOUS
10
     -436.44
20
      483.21
11
     -437.23
21
      482.27
39
 0
62
 1
 0
LINE
8
default
6
CONTINUOUS
10
      437.23
20
      482.27
11
      438.01
21
      481.32
39
 0
62
 3
 0
LINE
8
default
6
CONTINUOUS
10
     -437.23
20
      482.27
11
     -438.01
21
      481.32
39
 0
62
 1
 0
LINE
8
default
6
CONTINUOUS
10
      438.01
20
      481.32
11
      438.80
21
      480.37
39
 0
62
 3
 0
LINE
8
default
6
CONTINUOUS
10
     -438.01
20
      481.32
11
     -438.80
21
      480.37
39
 0
62
 1
 0
LINE
8
default
6
CONTINUOUS
10
      438.80
20
      480.37
11
      439.57
21
      479.42
39
 0
62
 3
 0
LINE
8
default
6
CONTINUOUS
10
     -438.80
20
      480.37
11
     -439.57
21
      479.42
39
 0
62
 1
 0
LINE
8
default
6
CONTINUOUS
10
      439.57
20
      479.42
11
      440.35
21
      478.46
39
 0
62
 3
 0
LINE
8
default
6
CONTINUOUS
10
     -439.57
20
      479.42
11
     -440.35
21
      478.46
39
 0
62
 1
 0
LINE
8
default
6
CONTINUOUS
10
      440.35
20
      478.46
11
      441.12
21
      477.50
39
 0
62
 3
 0
LINE
8
default
6
CONTINUOUS
10
     -440.35
20
      478.46
11
     -441.12
21
      477.50
39
 0
62
 1
 0
LINE
8
default
6
CONTINUOUS
10
      441.12
20
      477.50
11
      441.89
21
      476.54
39
 0
62
 3
 0
LINE
8
default
6
CONTINUOUS
10
     -441.12
20
      477.50
11
     -441.89
21
      476.54
39
 0
62
 1
 0
LINE
8
default
6
CONTINUOUS
10
      441.89
20
      476.54
11
      442.66
21
      475.58
39
 0
62
 3
 0
LINE
8
default
6
CONTINUOUS
10
     -441.89
20
      476.54
11
     -442.66
21
      475.58
39
 0
62
 1
 0
LINE
8
default
6
CONTINUOUS
10
      442.66
20
      475.58
11
      443.42
21
      474.61
39
 0
62
 3
 0
LINE
8
default
6
CONTINUOUS
10
     -442.66
20
      475.58
11
     -443.42
21
      474.61
39
 0
62
 1
 0
LINE
8
default
6
CONTINUOUS
10
      443.42
20
      474.61
11
      444.19
21
      473.64
39
 0
62
 3
 0
LINE
8
default
6
CONTINUOUS
10
     -443.42
20
      474.61
11
     -444.19
21
      473.64
39
 0
62
 1
 0
LINE
8
default
6
CONTINUOUS
10
      444.19
20
      473.64
11
      444.94
21
      472.67
39
 0
62
 3
 0
LINE
8
default
6
CONTINUOUS
10
     -444.19
20
      473.64
11
     -444.94
21
      472.67
39
 0
62
 1
 0
LINE
8
default
6
CONTINUOUS
10
      444.94
20
      472.67
11
      445.70
21
      471.70
39
 0
62
 3
 0
LINE
8
default
6
CONTINUOUS
10
     -444.94
20
      472.67
11
     -445.70
21
      471.70
39
 0
62
 1
 0
LINE
8
default
6
CONTINUOUS
10
      445.70
20
      471.70
11
      446.45
21
      470.72
39
 0
62
 3
 0
LINE
8
default
6
CONTINUOUS
10
     -445.70
20
      471.70
11
     -446.45
21
      470.72
39
 0
62
 1
 0
LINE
8
default
6
CONTINUOUS
10
      446.45
20
      470.72
11
      447.20
21
      469.75
39
 0
62
 3
 0
LINE
8
default
6
CONTINUOUS
10
     -446.45
20
      470.72
11
     -447.20
21
      469.75
39
 0
62
 1
 0
LINE
8
default
6
CONTINUOUS
10
      447.20
20
      469.75
11
      447.94
21
      468.76
39
 0
62
 3
 0
LINE
8
default
6
CONTINUOUS
10
     -447.20
20
      469.75
11
     -447.94
21
      468.76
39
 0
62
 1
 0
LINE
8
default
6
CONTINUOUS
10
      447.94
20
      468.76
11
      448.68
21
      467.78
39
 0
62
 3
 0
LINE
8
default
6
CONTINUOUS
10
     -447.94
20
      468.76
11
     -448.68
21
      467.78
39
 0
62
 1
 0
LINE
8
default
6
CONTINUOUS
10
      448.68
20
      467.78
11
      449.42
21
      466.80
39
 0
62
 3
 0
LINE
8
default
6
CONTINUOUS
10
     -448.68
20
      467.78
11
     -449.42
21
      466.80
39
 0
62
 1
 0
LINE
8
default
6
CONTINUOUS
10
      449.42
20
      466.80
11
      450.15
21
      465.81
39
 0
62
 3
 0
LINE
8
default
6
CONTINUOUS
10
     -449.42
20
      466.80
11
     -450.15
21
      465.81
39
 0
62
 1
 0
LINE
8
default
6
CONTINUOUS
10
      450.15
20
      465.81
11
      450.89
21
      464.82
39
 0
62
 3
 0
LINE
8
default
6
CONTINUOUS
10
     -450.15
20
      465.81
11
     -450.89
21
      464.82
39
 0
62
 1
 0
LINE
8
default
6
CONTINUOUS
10
      450.89
20
      464.82
11
      451.61
21
      463.83
39
 0
62
 3
 0
LINE
8
default
6
CONTINUOUS
10
     -450.89
20
      464.82
11
     -451.61
21
      463.83
39
 0
62
 1
 0
LINE
8
default
6
CONTINUOUS
10
      451.61
20
      463.83
11
      452.34
21
      462.83
39
 0
62
 3
 0
LINE
8
default
6
CONTINUOUS
10
     -451.61
20
      463.83
11
     -452.34
21
      462.83
39
 0
62
 1
 0
LINE
8
default
6
CONTINUOUS
10
      452.34
20
      462.83
11
      453.78
21
      460.83
39
 0
62
 3
 0
LINE
8
default
6
CONTINUOUS
10
     -452.34
20
      462.83
11
     -453.78
21
      460.83
39
 0
62
 1
 0
LINE
8
default
6
CONTINUOUS
10
      453.78
20
      460.83
11
      454.16
21
      460.30
39
 0
62
 3
 0
LINE
8
default
6
CONTINUOUS
10
     -453.78
20
      460.83
11
     -454.16
21
      460.30
39
 0
62
 1
 0
LINE
8
default
6
CONTINUOUS
10
      454.16
20
      460.30
11
      454.54
21
      459.76
39
 0
62
 3
 0
LINE
8
default
6
CONTINUOUS
10
     -454.16
20
      460.30
11
     -454.54
21
      459.76
39
 0
62
 1
 0
LINE
8
default
6
CONTINUOUS
10
      454.54
20
      459.76
11
      454.91
21
      459.22
39
 0
62
 3
 0
LINE
8
default
6
CONTINUOUS
10
     -454.54
20
      459.76
11
     -454.91
21
      459.22
39
 0
62
 1
 0
LINE
8
default
6
CONTINUOUS
10
      454.91
20
      459.22
11
      455.28
21
      458.68
39
 0
62
 3
 0
LINE
8
default
6
CONTINUOUS
10
     -454.91
20
      459.22
11
     -455.28
21
      458.68
39
 0
62
 1
 0
LINE
8
default
6
CONTINUOUS
10
      455.28
20
      458.68
11
      455.65
21
      458.14
39
 0
62
 3
 0
LINE
8
default
6
CONTINUOUS
10
     -455.28
20
      458.68
11
     -455.65
21
      458.14
39
 0
62
 1
 0
LINE
8
default
6
CONTINUOUS
10
      455.65
20
      458.14
11
      456.01
21
      457.59
39
 0
62
 3
 0
LINE
8
default
6
CONTINUOUS
10
     -455.65
20
      458.14
11
     -456.01
21
      457.59
39
 0
62
 1
 0
LINE
8
default
6
CONTINUOUS
10
      456.01
20
      457.59
11
      456.37
21
      457.04
39
 0
62
 3
 0
LINE
8
default
6
CONTINUOUS
10
     -456.01
20
      457.59
11
     -456.37
21
      457.04
39
 0
62
 1
 0
LINE
8
default
6
CONTINUOUS
10
      456.37
20
      457.04
11
      456.73
21
      456.49
39
 0
62
 3
 0
LINE
8
default
6
CONTINUOUS
10
     -456.37
20
      457.04
11
     -456.73
21
      456.49
39
 0
62
 1
 0
LINE
8
default
6
CONTINUOUS
10
      456.73
20
      456.49
11
      457.08
21
      455.94
39
 0
62
 3
 0
LINE
8
default
6
CONTINUOUS
10
     -456.73
20
      456.49
11
     -457.08
21
      455.94
39
 0
62
 1
 0
LINE
8
default
6
CONTINUOUS
10
      457.08
20
      455.94
11
      457.43
21
      455.38
39
 0
62
 3
 0
LINE
8
default
6
CONTINUOUS
10
     -457.08
20
      455.94
11
     -457.43
21
      455.38
39
 0
62
 1
 0
LINE
8
default
6
CONTINUOUS
10
      457.43
20
      455.38
11
      457.78
21
      454.82
39
 0
62
 3
 0
LINE
8
default
6
CONTINUOUS
10
     -457.43
20
      455.38
11
     -457.78
21
      454.82
39
 0
62
 1
 0
LINE
8
default
6
CONTINUOUS
10
      457.78
20
      454.82
11
      458.12
21
      454.27
39
 0
62
 3
 0
LINE
8
default
6
CONTINUOUS
10
     -457.78
20
      454.82
11
     -458.12
21
      454.27
39
 0
62
 1
 0
LINE
8
default
6
CONTINUOUS
10
      458.12
20
      454.27
11
      458.46
21
      453.70
39
 0
62
 3
 0
LINE
8
default
6
CONTINUOUS
10
     -458.12
20
      454.27
11
     -458.46
21
      453.70
39
 0
62
 1
 0
LINE
8
default
6
CONTINUOUS
10
      458.46
20
      453.70
11
      458.80
21
      453.14
39
 0
62
 3
 0
LINE
8
default
6
CONTINUOUS
10
     -458.46
20
      453.70
11
     -458.80
21
      453.14
39
 0
62
 1
 0
LINE
8
default
6
CONTINUOUS
10
      458.80
20
      453.14
11
      459.13
21
      452.57
39
 0
62
 3
 0
LINE
8
default
6
CONTINUOUS
10
     -458.80
20
      453.14
11
     -459.13
21
      452.57
39
 0
62
 1
 0
LINE
8
default
6
CONTINUOUS
10
      459.13
20
      452.57
11
      459.46
21
      452.01
39
 0
62
 3
 0
LINE
8
default
6
CONTINUOUS
10
     -459.13
20
      452.57
11
     -459.46
21
      452.01
39
 0
62
 1
 0
LINE
8
default
6
CONTINUOUS
10
      459.46
20
      452.01
11
      459.78
21
      451.44
39
 0
62
 3
 0
LINE
8
default
6
CONTINUOUS
10
     -459.46
20
      452.01
11
     -459.78
21
      451.44
39
 0
62
 1
 0
LINE
8
default
6
CONTINUOUS
10
      459.78
20
      451.44
11
      460.10
21
      450.86
39
 0
62
 3
 0
LINE
8
default
6
CONTINUOUS
10
     -459.78
20
      451.44
11
     -460.10
21
      450.86
39
 0
62
 1
 0
LINE
8
default
6
CONTINUOUS
10
      460.10
20
      450.86
11
      460.42
21
      450.29
39
 0
62
 3
 0
LINE
8
default
6
CONTINUOUS
10
     -460.10
20
      450.86
11
     -460.42
21
      450.29
39
 0
62
 1
 0
LINE
8
default
6
CONTINUOUS
10
      460.42
20
      450.29
11
      460.74
21
      449.71
39
 0
62
 3
 0
LINE
8
default
6
CONTINUOUS
10
     -460.42
20
      450.29
11
     -460.74
21
      449.71
39
 0
62
 1
 0
LINE
8
default
6
CONTINUOUS
10
      460.74
20
      449.71
11
      461.05
21
      449.14
39
 0
62
 3
 0
LINE
8
default
6
CONTINUOUS
10
     -460.74
20
      449.71
11
     -461.05
21
      449.14
39
 0
62
 1
 0
LINE
8
default
6
CONTINUOUS
10
      461.05
20
      449.14
11
      461.36
21
      448.56
39
 0
62
 3
 0
LINE
8
default
6
CONTINUOUS
10
     -461.05
20
      449.14
11
     -461.36
21
      448.56
39
 0
62
 1
 0
LINE
8
default
6
CONTINUOUS
10
      461.36
20
      448.56
11
      461.66
21
      447.98
39
 0
62
 3
 0
LINE
8
default
6
CONTINUOUS
10
     -461.36
20
      448.56
11
     -461.66
21
      447.98
39
 0
62
 1
 0
LINE
8
default
6
CONTINUOUS
10
      461.66
20
      447.98
11
      461.96
21
      447.39
39
 0
62
 3
 0
LINE
8
default
6
CONTINUOUS
10
     -461.66
20
      447.98
11
     -461.96
21
      447.39
39
 0
62
 1
 0
LINE
8
default
6
CONTINUOUS
10
      461.96
20
      447.39
11
      462.26
21
      446.81
39
 0
62
 3
 0
LINE
8
default
6
CONTINUOUS
10
     -461.96
20
      447.39
11
     -462.26
21
      446.81
39
 0
62
 1
 0
LINE
8
default
6
CONTINUOUS
10
      462.26
20
      446.81
11
      462.55
21
      446.22
39
 0
62
 3
 0
LINE
8
default
6
CONTINUOUS
10
     -462.26
20
      446.81
11
     -462.55
21
      446.22
39
 0
62
 1
 0
LINE
8
default
6
CONTINUOUS
10
      462.55
20
      446.22
11
      462.84
21
      445.63
39
 0
62
 3
 0
LINE
8
default
6
CONTINUOUS
10
     -462.55
20
      446.22
11
     -462.84
21
      445.63
39
 0
62
 1
 0
LINE
8
default
6
CONTINUOUS
10
      462.84
20
      445.63
11
      463.12
21
      445.04
39
 0
62
 3
 0
LINE
8
default
6
CONTINUOUS
10
     -462.84
20
      445.63
11
     -463.12
21
      445.04
39
 0
62
 1
 0
LINE
8
default
6
CONTINUOUS
10
      463.12
20
      445.04
11
      463.40
21
      444.45
39
 0
62
 3
 0
LINE
8
default
6
CONTINUOUS
10
     -463.12
20
      445.04
11
     -463.40
21
      444.45
39
 0
62
 1
 0
LINE
8
default
6
CONTINUOUS
10
      463.40
20
      444.45
11
      463.68
21
      443.85
39
 0
62
 3
 0
LINE
8
default
6
CONTINUOUS
10
     -463.40
20
      444.45
11
     -463.68
21
      443.85
39
 0
62
 1
 0
LINE
8
default
6
CONTINUOUS
10
      463.68
20
      443.85
11
      463.96
21
      443.26
39
 0
62
 3
 0
LINE
8
default
6
CONTINUOUS
10
     -463.68
20
      443.85
11
     -463.96
21
      443.26
39
 0
62
 1
 0
LINE
8
default
6
CONTINUOUS
10
      463.96
20
      443.26
11
      464.23
21
      442.66
39
 0
62
 3
 0
LINE
8
default
6
CONTINUOUS
10
     -463.96
20
      443.26
11
     -464.23
21
      442.66
39
 0
62
 1
 0
LINE
8
default
6
CONTINUOUS
10
      464.23
20
      442.66
11
      464.49
21
      442.06
39
 0
62
 3
 0
LINE
8
default
6
CONTINUOUS
10
     -464.23
20
      442.66
11
     -464.49
21
      442.06
39
 0
62
 1
 0
LINE
8
default
6
CONTINUOUS
10
      464.49
20
      442.06
11
      464.76
21
      441.46
39
 0
62
 3
 0
LINE
8
default
6
CONTINUOUS
10
     -464.49
20
      442.06
11
     -464.76
21
      441.46
39
 0
62
 1
 0
LINE
8
default
6
CONTINUOUS
10
      464.76
20
      441.46
11
      465.02
21
      440.86
39
 0
62
 3
 0
LINE
8
default
6
CONTINUOUS
10
     -464.76
20
      441.46
11
     -465.02
21
      440.86
39
 0
62
 1
 0
LINE
8
default
6
CONTINUOUS
10
      465.02
20
      440.86
11
      465.27
21
      440.25
39
 0
62
 3
 0
LINE
8
default
6
CONTINUOUS
10
     -465.02
20
      440.86
11
     -465.27
21
      440.25
39
 0
62
 1
 0
LINE
8
default
6
CONTINUOUS
10
      465.27
20
      440.25
11
      465.52
21
      439.64
39
 0
62
 3
 0
LINE
8
default
6
CONTINUOUS
10
     -465.27
20
      440.25
11
     -465.52
21
      439.64
39
 0
62
 1
 0
LINE
8
default
6
CONTINUOUS
10
      465.52
20
      439.64
11
      465.77
21
      439.04
39
 0
62
 3
 0
LINE
8
default
6
CONTINUOUS
10
     -465.52
20
      439.64
11
     -465.77
21
      439.04
39
 0
62
 1
 0
LINE
8
default
6
CONTINUOUS
10
      465.77
20
      439.04
11
      466.02
21
      438.43
39
 0
62
 3
 0
LINE
8
default
6
CONTINUOUS
10
     -465.77
20
      439.04
11
     -466.02
21
      438.43
39
 0
62
 1
 0
LINE
8
default
6
CONTINUOUS
10
      466.02
20
      438.43
11
      466.26
21
      437.82
39
 0
62
 3
 0
LINE
8
default
6
CONTINUOUS
10
     -466.02
20
      438.43
11
     -466.26
21
      437.82
39
 0
62
 1
 0
LINE
8
default
6
CONTINUOUS
10
      466.26
20
      437.82
11
      466.49
21
      437.21
39
 0
62
 3
 0
LINE
8
default
6
CONTINUOUS
10
     -466.26
20
      437.82
11
     -466.49
21
      437.21
39
 0
62
 1
 0
LINE
8
default
6
CONTINUOUS
10
      466.49
20
      437.21
11
      466.73
21
      436.59
39
 0
62
 3
 0
LINE
8
default
6
CONTINUOUS
10
     -466.49
20
      437.21
11
     -466.73
21
      436.59
39
 0
62
 1
 0
LINE
8
default
6
CONTINUOUS
10
      466.73
20
      436.59
11
      466.96
21
      435.98
39
 0
62
 3
 0
LINE
8
default
6
CONTINUOUS
10
     -466.73
20
      436.59
11
     -466.96
21
      435.98
39
 0
62
 1
 0
LINE
8
default
6
CONTINUOUS
10
      466.96
20
      435.98
11
      467.18
21
      435.36
39
 0
62
 3
 0
LINE
8
default
6
CONTINUOUS
10
     -466.96
20
      435.98
11
     -467.18
21
      435.36
39
 0
62
 1
 0
LINE
8
default
6
CONTINUOUS
10
      467.18
20
      435.36
11
      467.40
21
      434.74
39
 0
62
 3
 0
LINE
8
default
6
CONTINUOUS
10
     -467.18
20
      435.36
11
     -467.40
21
      434.74
39
 0
62
 1
 0
LINE
8
default
6
CONTINUOUS
10
      467.40
20
      434.74
11
      467.62
21
      434.12
39
 0
62
 3
 0
LINE
8
default
6
CONTINUOUS
10
     -467.40
20
      434.74
11
     -467.62
21
      434.12
39
 0
62
 1
 0
LINE
8
default
6
CONTINUOUS
10
      467.62
20
      434.12
11
      467.83
21
      433.50
39
 0
62
 3
 0
LINE
8
default
6
CONTINUOUS
10
     -467.62
20
      434.12
11
     -467.83
21
      433.50
39
 0
62
 1
 0
LINE
8
default
6
CONTINUOUS
10
      467.83
20
      433.50
11
      468.04
21
      432.88
39
 0
62
 3
 0
LINE
8
default
6
CONTINUOUS
10
     -467.83
20
      433.50
11
     -468.04
21
      432.88
39
 0
62
 1
 0
LINE
8
default
6
CONTINUOUS
10
      468.04
20
      432.88
11
      468.25
21
      432.26
39
 0
62
 3
 0
LINE
8
default
6
CONTINUOUS
10
     -468.04
20
      432.88
11
     -468.25
21
      432.26
39
 0
62
 1
 0
LINE
8
default
6
CONTINUOUS
10
      468.25
20
      432.26
11
      468.45
21
      431.63
39
 0
62
 3
 0
LINE
8
default
6
CONTINUOUS
10
     -468.25
20
      432.26
11
     -468.45
21
      431.63
39
 0
62
 1
 0
LINE
8
default
6
CONTINUOUS
10
      468.45
20
      431.63
11
      468.65
21
      431.01
39
 0
62
 3
 0
LINE
8
default
6
CONTINUOUS
10
     -468.45
20
      431.63
11
     -468.65
21
      431.01
39
 0
62
 1
 0
LINE
8
default
6
CONTINUOUS
10
      468.65
20
      431.01
11
      468.84
21
      430.38
39
 0
62
 3
 0
LINE
8
default
6
CONTINUOUS
10
     -468.65
20
      431.01
11
     -468.84
21
      430.38
39
 0
62
 1
 0
LINE
8
default
6
CONTINUOUS
10
      468.84
20
      430.38
11
      469.03
21
      429.75
39
 0
62
 3
 0
LINE
8
default
6
CONTINUOUS
10
     -468.84
20
      430.38
11
     -469.03
21
      429.75
39
 0
62
 1
 0
LINE
8
default
6
CONTINUOUS
10
      469.03
20
      429.75
11
      469.22
21
      429.12
39
 0
62
 3
 0
LINE
8
default
6
CONTINUOUS
10
     -469.03
20
      429.75
11
     -469.22
21
      429.12
39
 0
62
 1
 0
LINE
8
default
6
CONTINUOUS
10
      469.22
20
      429.12
11
      469.40
21
      428.49
39
 0
62
 3
 0
LINE
8
default
6
CONTINUOUS
10
     -469.22
20
      429.12
11
     -469.40
21
      428.49
39
 0
62
 1
 0
LINE
8
default
6
CONTINUOUS
10
      469.40
20
      428.49
11
      469.58
21
      427.86
39
 0
62
 3
 0
LINE
8
default
6
CONTINUOUS
10
     -469.40
20
      428.49
11
     -469.58
21
      427.86
39
 0
62
 1
 0
LINE
8
default
6
CONTINUOUS
10
      469.58
20
      427.86
11
      469.75
21
      427.23
39
 0
62
 3
 0
LINE
8
default
6
CONTINUOUS
10
     -469.58
20
      427.86
11
     -469.75
21
      427.23
39
 0
62
 1
 0
LINE
8
default
6
CONTINUOUS
10
      469.75
20
      427.23
11
      469.92
21
      426.60
39
 0
62
 3
 0
LINE
8
default
6
CONTINUOUS
10
     -469.75
20
      427.23
11
     -469.92
21
      426.60
39
 0
62
 1
 0
LINE
8
default
6
CONTINUOUS
10
      469.92
20
      426.60
11
      470.09
21
      425.96
39
 0
62
 3
 0
LINE
8
default
6
CONTINUOUS
10
     -469.92
20
      426.60
11
     -470.09
21
      425.96
39
 0
62
 1
 0
LINE
8
default
6
CONTINUOUS
10
      470.09
20
      425.96
11
      470.25
21
      425.33
39
 0
62
 3
 0
LINE
8
default
6
CONTINUOUS
10
     -470.09
20
      425.96
11
     -470.25
21
      425.33
39
 0
62
 1
 0
LINE
8
default
6
CONTINUOUS
10
      470.25
20
      425.33
11
      470.41
21
      424.69
39
 0
62
 3
 0
LINE
8
default
6
CONTINUOUS
10
     -470.25
20
      425.33
11
     -470.41
21
      424.69
39
 0
62
 1
 0
LINE
8
default
6
CONTINUOUS
10
      470.41
20
      424.69
11
      470.57
21
      424.05
39
 0
62
 3
 0
LINE
8
default
6
CONTINUOUS
10
     -470.41
20
      424.69
11
     -470.57
21
      424.05
39
 0
62
 1
 0
LINE
8
default
6
CONTINUOUS
10
      470.57
20
      424.05
11
      470.72
21
      423.41
39
 0
62
 3
 0
LINE
8
default
6
CONTINUOUS
10
     -470.57
20
      424.05
11
     -470.72
21
      423.41
39
 0
62
 1
 0
LINE
8
default
6
CONTINUOUS
10
      470.72
20
      423.41
11
      470.86
21
      422.77
39
 0
62
 3
 0
LINE
8
default
6
CONTINUOUS
10
     -470.72
20
      423.41
11
     -470.86
21
      422.77
39
 0
62
 1
 0
LINE
8
default
6
CONTINUOUS
10
      470.86
20
      422.77
11
      471.01
21
      422.13
39
 0
62
 3
 0
LINE
8
default
6
CONTINUOUS
10
     -470.86
20
      422.77
11
     -471.01
21
      422.13
39
 0
62
 1
 0
LINE
8
default
6
CONTINUOUS
10
      471.01
20
      422.13
11
      471.15
21
      421.49
39
 0
62
 3
 0
LINE
8
default
6
CONTINUOUS
10
     -471.01
20
      422.13
11
     -471.15
21
      421.49
39
 0
62
 1
 0
LINE
8
default
6
CONTINUOUS
10
      471.15
20
      421.49
11
      471.28
21
      420.85
39
 0
62
 3
 0
LINE
8
default
6
CONTINUOUS
10
     -471.15
20
      421.49
11
     -471.28
21
      420.85
39
 0
62
 1
 0
LINE
8
default
6
CONTINUOUS
10
      471.28
20
      420.85
11
      471.41
21
      420.21
39
 0
62
 3
 0
LINE
8
default
6
CONTINUOUS
10
     -471.28
20
      420.85
11
     -471.41
21
      420.21
39
 0
62
 1
 0
LINE
8
default
6
CONTINUOUS
10
      471.41
20
      420.21
11
      471.54
21
      419.56
39
 0
62
 3
 0
LINE
8
default
6
CONTINUOUS
10
     -471.41
20
      420.21
11
     -471.54
21
      419.56
39
 0
62
 1
 0
LINE
8
default
6
CONTINUOUS
10
      471.54
20
      419.56
11
      471.66
21
      418.92
39
 0
62
 3
 0
LINE
8
default
6
CONTINUOUS
10
     -471.54
20
      419.56
11
     -471.66
21
      418.92
39
 0
62
 1
 0
LINE
8
default
6
CONTINUOUS
10
      471.66
20
      418.92
11
      471.78
21
      418.27
39
 0
62
 3
 0
LINE
8
default
6
CONTINUOUS
10
     -471.66
20
      418.92
11
     -471.78
21
      418.27
39
 0
62
 1
 0
LINE
8
default
6
CONTINUOUS
10
      471.78
20
      418.27
11
      471.89
21
      417.63
39
 0
62
 3
 0
LINE
8
default
6
CONTINUOUS
10
     -471.78
20
      418.27
11
     -471.89
21
      417.63
39
 0
62
 1
 0
LINE
8
default
6
CONTINUOUS
10
      471.89
20
      417.63
11
      472.00
21
      416.98
39
 0
62
 3
 0
LINE
8
default
6
CONTINUOUS
10
     -471.89
20
      417.63
11
     -472.00
21
      416.98
39
 0
62
 1
 0
LINE
8
default
6
CONTINUOUS
10
      472.00
20
      416.98
11
      472.11
21
      416.33
39
 0
62
 3
 0
LINE
8
default
6
CONTINUOUS
10
     -472.00
20
      416.98
11
     -472.11
21
      416.33
39
 0
62
 1
 0
LINE
8
default
6
CONTINUOUS
10
      472.11
20
      416.33
11
      472.21
21
      415.68
39
 0
62
 3
 0
LINE
8
default
6
CONTINUOUS
10
     -472.11
20
      416.33
11
     -472.21
21
      415.68
39
 0
62
 1
 0
LINE
8
default
6
CONTINUOUS
10
      472.21
20
      415.68
11
      472.31
21
      415.04
39
 0
62
 3
 0
LINE
8
default
6
CONTINUOUS
10
     -472.21
20
      415.68
11
     -472.31
21
      415.04
39
 0
62
 1
 0
LINE
8
default
6
CONTINUOUS
10
      472.31
20
      415.04
11
      472.41
21
      414.39
39
 0
62
 3
 0
LINE
8
default
6
CONTINUOUS
10
     -472.31
20
      415.04
11
     -472.41
21
      414.39
39
 0
62
 1
 0
LINE
8
default
6
CONTINUOUS
10
      472.41
20
      414.39
11
      472.50
21
      413.74
39
 0
62
 3
 0
LINE
8
default
6
CONTINUOUS
10
     -472.41
20
      414.39
11
     -472.50
21
      413.74
39
 0
62
 1
 0
LINE
8
default
6
CONTINUOUS
10
      472.50
20
      413.74
11
      472.58
21
      413.09
39
 0
62
 3
 0
LINE
8
default
6
CONTINUOUS
10
     -472.50
20
      413.74
11
     -472.58
21
      413.09
39
 0
62
 1
 0
LINE
8
default
6
CONTINUOUS
10
      472.58
20
      413.09
11
      472.66
21
      412.44
39
 0
62
 3
 0
LINE
8
default
6
CONTINUOUS
10
     -472.58
20
      413.09
11
     -472.66
21
      412.44
39
 0
62
 1
 0
LINE
8
default
6
CONTINUOUS
10
      472.66
20
      412.44
11
      472.74
21
      411.78
39
 0
62
 3
 0
LINE
8
default
6
CONTINUOUS
10
     -472.66
20
      412.44
11
     -472.74
21
      411.78
39
 0
62
 1
 0
LINE
8
default
6
CONTINUOUS
10
      472.74
20
      411.78
11
      472.82
21
      411.13
39
 0
62
 3
 0
LINE
8
default
6
CONTINUOUS
10
     -472.74
20
      411.78
11
     -472.82
21
      411.13
39
 0
62
 1
 0
LINE
8
default
6
CONTINUOUS
10
      472.82
20
      411.13
11
      472.89
21
      410.48
39
 0
62
 3
 0
LINE
8
default
6
CONTINUOUS
10
     -472.82
20
      411.13
11
     -472.89
21
      410.48
39
 0
62
 1
 0
LINE
8
default
6
CONTINUOUS
10
      472.89
20
      410.48
11
      472.95
21
      409.83
39
 0
62
 3
 0
LINE
8
default
6
CONTINUOUS
10
     -472.89
20
      410.48
11
     -472.95
21
      409.83
39
 0
62
 1
 0
LINE
8
default
6
CONTINUOUS
10
      472.95
20
      409.83
11
      473.01
21
      409.17
39
 0
62
 3
 0
LINE
8
default
6
CONTINUOUS
10
     -472.95
20
      409.83
11
     -473.01
21
      409.17
39
 0
62
 1
 0
LINE
8
default
6
CONTINUOUS
10
      473.01
20
      409.17
11
      473.07
21
      408.52
39
 0
62
 3
 0
LINE
8
default
6
CONTINUOUS
10
     -473.01
20
      409.17
11
     -473.07
21
      408.52
39
 0
62
 1
 0
LINE
8
default
6
CONTINUOUS
10
      473.07
20
      408.52
11
      473.13
21
      407.87
39
 0
62
 3
 0
LINE
8
default
6
CONTINUOUS
10
     -473.07
20
      408.52
11
     -473.13
21
      407.87
39
 0
62
 1
 0
LINE
8
default
6
CONTINUOUS
10
      473.13
20
      407.87
11
      473.18
21
      407.21
39
 0
62
 3
 0
LINE
8
default
6
CONTINUOUS
10
     -473.13
20
      407.87
11
     -473.18
21
      407.21
39
 0
62
 1
 0
LINE
8
default
6
CONTINUOUS
10
      473.18
20
      407.21
11
      473.22
21
      406.56
39
 0
62
 3
 0
LINE
8
default
6
CONTINUOUS
10
     -473.18
20
      407.21
11
     -473.22
21
      406.56
39
 0
62
 1
 0
LINE
8
default
6
CONTINUOUS
10
      473.22
20
      406.56
11
      473.26
21
      405.90
39
 0
62
 3
 0
LINE
8
default
6
CONTINUOUS
10
     -473.22
20
      406.56
11
     -473.26
21
      405.90
39
 0
62
 1
 0
LINE
8
default
6
CONTINUOUS
10
      473.26
20
      405.90
11
      473.30
21
      405.25
39
 0
62
 3
 0
LINE
8
default
6
CONTINUOUS
10
     -473.26
20
      405.90
11
     -473.30
21
      405.25
39
 0
62
 1
 0
LINE
8
default
6
CONTINUOUS
10
      473.30
20
      405.25
11
      473.33
21
      404.59
39
 0
62
 3
 0
LINE
8
default
6
CONTINUOUS
10
     -473.30
20
      405.25
11
     -473.33
21
      404.59
39
 0
62
 1
 0
LINE
8
default
6
CONTINUOUS
10
      473.33
20
      404.59
11
      473.36
21
      403.94
39
 0
62
 3
 0
LINE
8
default
6
CONTINUOUS
10
     -473.33
20
      404.59
11
     -473.36
21
      403.94
39
 0
62
 1
 0
LINE
8
default
6
CONTINUOUS
10
      473.36
20
      403.94
11
      473.39
21
      403.28
39
 0
62
 3
 0
LINE
8
default
6
CONTINUOUS
10
     -473.36
20
      403.94
11
     -473.39
21
      403.28
39
 0
62
 1
 0
LINE
8
default
6
CONTINUOUS
10
      473.39
20
      403.28
11
      473.41
21
      402.62
39
 0
62
 3
 0
LINE
8
default
6
CONTINUOUS
10
     -473.39
20
      403.28
11
     -473.41
21
      402.62
39
 0
62
 1
 0
LINE
8
default
6
CONTINUOUS
10
      473.41
20
      402.62
11
      473.43
21
      401.97
39
 0
62
 3
 0
LINE
8
default
6
CONTINUOUS
10
     -473.41
20
      402.62
11
     -473.43
21
      401.97
39
 0
62
 1
 0
LINE
8
default
6
CONTINUOUS
10
      473.43
20
      401.97
11
      473.44
21
      401.31
39
 0
62
 3
 0
LINE
8
default
6
CONTINUOUS
10
     -473.43
20
      401.97
11
     -473.44
21
      401.31
39
 0
62
 1
 0
LINE
8
default
6
CONTINUOUS
10
      473.44
20
      401.31
11
      473.45
21
      400.66
39
 0
62
 3
 0
LINE
8
default
6
CONTINUOUS
10
     -473.44
20
      401.31
11
     -473.45
21
      400.66
39
 0
62
 1
 0
LINE
8
default
6
CONTINUOUS
10
      473.45
20
      400.66
11
      473.45
21
      400.00
39
 0
62
 3
 0
LINE
8
default
6
CONTINUOUS
10
     -473.45
20
      400.66
11
     -473.45
21
      400.00
39
 0
62
 1
 0
LINE
8
default
6
CONTINUOUS
10
        0.00
20
       -0.00
11
        0.00
21
     -271.02
39
 0
62
 3
 0
LINE
8
default
6
CONTINUOUS
10
        0.00
20
       -0.00
11
        0.00
21
     -271.02
39
 0
62
 1
 0
LINE
8
default
6
CONTINUOUS
10
       24.71
20
       -0.15
11
       24.71
21
     -270.93
39
 0
62
 3
 0
LINE
8
default
6
CONTINUOUS
10
      -24.71
20
       -0.15
11
      -24.71
21
     -270.93
39
 0
62
 1
 0
LINE
8
default
6
CONTINUOUS
10
       49.41
20
       -0.59
11
       49.41
21
     -270.65
39
 0
62
 3
 0
LINE
8
default
6
CONTINUOUS
10
      -49.41
20
       -0.59
11
      -49.41
21
     -270.65
39
 0
62
 1
 0
LINE
8
default
6
CONTINUOUS
10
       74.07
20
       -1.33
11
       74.07
21
     -270.20
39
 0
62
 3
 0
LINE
8
default
6
CONTINUOUS
10
      -74.07
20
       -1.33
11
      -74.07
21
     -270.20
39
 0
62
 1
 0
LINE
8
default
6
CONTINUOUS
10
       98.68
20
       -2.36
11
       98.68
21
     -269.56
39
 0
62
 3
 0
LINE
8
default
6
CONTINUOUS
10
      -98.68
20
       -2.36
11
      -98.68
21
     -269.56
39
 0
62
 1
 0
LINE
8
default
6
CONTINUOUS
10
      123.24
20
       -3.69
11
      123.24
21
     -268.74
39
 0
62
 3
 0
LINE
8
default
6
CONTINUOUS
10
     -123.24
20
       -3.69
11
     -123.24
21
     -268.74
39
 0
62
 1
 0
LINE
8
default
6
CONTINUOUS
10
      147.73
20
       -5.32
11
      147.73
21
     -267.74
39
 0
62
 3
 0
LINE
8
default
6
CONTINUOUS
10
     -147.73
20
       -5.32
11
     -147.73
21
     -267.74
39
 0
62
 1
 0
LINE
8
default
6
CONTINUOUS
10
      172.13
20
       -7.25
11
      172.13
21
     -266.56
39
 0
62
 3
 0
LINE
8
default
6
CONTINUOUS
10
     -172.13
20
       -7.25
11
     -172.13
21
     -266.56
39
 0
62
 1
 0
LINE
8
default
6
CONTINUOUS
10
      196.43
20
       -9.48
11
      196.43
21
     -265.20
39
 0
62
 3
 0
LINE
8
default
6
CONTINUOUS
10
     -196.43
20
       -9.48
11
     -196.43
21
     -265.20
39
 0
62
 1
 0
LINE
8
default
6
CONTINUOUS
10
      220.62
20
      -12.03
11
      220.62
21
     -263.65
39
 0
62
 3
 0
LINE
8
default
6
CONTINUOUS
10
     -220.62
20
      -12.03
11
     -220.62
21
     -263.65
39
 0
62
 1
 0
LINE
8
default
6
CONTINUOUS
10
      244.68
20
      -14.89
11
      244.68
21
     -261.92
39
 0
62
 3
 0
LINE
8
default
6
CONTINUOUS
10
     -244.68
20
      -14.89
11
     -244.68
21
     -261.92
39
 0
62
 1
 0
LINE
8
default
6
CONTINUOUS
10
      268.61
20
      -18.06
11
      268.61
21
     -260.01
39
 0
62
 3
 0
LINE
8
default
6
CONTINUOUS
10
     -268.61
20
      -18.06
11
     -268.61
21
     -260.01
39
 0
62
 1
 0
LINE
8
default
6
CONTINUOUS
10
      292.38
20
      -21.56
11
      292.38
21
     -257.92
39
 0
62
 3
 0
LINE
8
default
6
CONTINUOUS
10
     -292.38
20
      -21.56
11
     -292.38
21
     -257.92
39
 0
62
 1
 0
LINE
8
default
6
CONTINUOUS
10
      315.98
20
      -25.39
11
      315.98
21
     -255.65
39
 0
62
 3
 0
LINE
8
default
6
CONTINUOUS
10
     -315.98
20
      -25.39
11
     -315.98
21
     -255.65
39
 0
62
 1
 0
LINE
8
default
6
CONTINUOUS
10
      339.41
20
      -29.56
11
      339.41
21
     -253.19
39
 0
62
 3
 0
LINE
8
default
6
CONTINUOUS
10
     -339.41
20
      -29.56
11
     -339.41
21
     -253.19
39
 0
62
 1
 0
LINE
8
default
6
CONTINUOUS
10
      362.63
20
      -34.08
11
      362.63
21
     -250.55
39
 0
62
 3
 0
LINE
8
default
6
CONTINUOUS
10
     -362.63
20
      -34.08
11
     -362.63
21
     -250.55
39
 0
62
 1
 0
LINE
8
default
6
CONTINUOUS
10
      385.65
20
      -39.11
11
      385.65
21
     -247.72
39
 0
62
 3
 0
LINE
8
default
6
CONTINUOUS
10
     -385.65
20
      -39.11
11
     -385.65
21
     -247.72
39
 0
62
 1
 0
LINE
8
default
6
CONTINUOUS
10
      408.40
20
      -45.57
11
      408.40
21
     -244.66
39
 0
62
 3
 0
LINE
8
default
6
CONTINUOUS
10
     -408.40
20
      -45.57
11
     -408.40
21
     -244.66
39
 0
62
 1
 0
LINE
8
default
6
CONTINUOUS
10
      430.84
20
      -53.60
11
      430.84
21
     -241.36
39
 0
62
 3
 0
LINE
8
default
6
CONTINUOUS
10
     -430.84
20
      -53.60
11
     -430.84
21
     -241.36
39
 0
62
 1
 0
LINE
8
default
6
CONTINUOUS
10
      452.92
20
      -63.16
11
      452.92
21
     -237.84
39
 0
62
 3
 0
LINE
8
default
6
CONTINUOUS
10
     -452.92
20
      -63.16
11
     -452.92
21
     -237.84
39
 0
62
 1
 0
LINE
8
default
6
CONTINUOUS
10
      474.61
20
      -74.18
11
      474.61
21
     -234.11
39
 0
62
 3
 0
LINE
8
default
6
CONTINUOUS
10
     -474.61
20
      -74.18
11
     -474.61
21
     -234.11
39
 0
62
 1
 0
LINE
8
default
6
CONTINUOUS
10
      495.84
20
      -86.61
11
      495.84
21
     -230.19
39
 0
62
 3
 0
LINE
8
default
6
CONTINUOUS
10
     -495.84
20
      -86.61
11
     -495.84
21
     -230.19
39
 0
62
 1
 0
LINE
8
default
6
CONTINUOUS
10
      516.58
20
     -100.37
11
      516.58
21
     -226.07
39
 0
62
 3
 0
LINE
8
default
6
CONTINUOUS
10
     -516.58
20
     -100.37
11
     -516.58
21
     -226.07
39
 0
62
 1
 0
LINE
8
default
6
CONTINUOUS
10
      536.80
20
     -115.39
11
      536.80
21
     -221.79
39
 0
62
 3
 0
LINE
8
default
6
CONTINUOUS
10
     -536.80
20
     -115.39
11
     -536.80
21
     -221.79
39
 0
62
 1
 0
LINE
8
default
6
CONTINUOUS
10
      556.45
20
     -131.60
11
      556.45
21
     -217.36
39
 0
62
 3
 0
LINE
8
default
6
CONTINUOUS
10
     -556.45
20
     -131.60
11
     -556.45
21
     -217.36
39
 0
62
 1
 0
LINE
8
default
6
CONTINUOUS
10
      575.50
20
     -148.95
11
      575.50
21
     -212.80
39
 0
62
 3
 0
LINE
8
default
6
CONTINUOUS
10
     -575.50
20
     -148.95
11
     -575.50
21
     -212.80
39
 0
62
 1
 0
LINE
8
default
6
CONTINUOUS
10
        0.00
20
      654.62
11
        0.00
21
      704.62
39
 0
62
 1
 0
LINE
8
default
6
CONTINUOUS
10
        0.00
20
      654.62
11
        0.00
21
      704.62
39
 0
62
 2
 0
LINE
8
default
6
CONTINUOUS
10
       24.71
20
      654.21
11
       24.71
21
      704.21
39
 0
62
 1
 0
LINE
8
default
6
CONTINUOUS
10
       24.71
20
      654.21
11
       26.40
21
      704.18
39
 0
62
 2
 0
LINE
8
default
6
CONTINUOUS
10
       49.37
20
      652.99
11
       49.37
21
      702.99
39
 0
62
 1
 0
LINE
8
default
6
CONTINUOUS
10
       49.37
20
      652.99
11
       52.68
21
      702.88
39
 0
62
 2
 0
LINE
8
default
6
CONTINUOUS
10
       73.95
20
      650.96
11
       73.95
21
      700.96
39
 0
62
 1
 0
LINE
8
default
6
CONTINUOUS
10
       73.95
20
      650.96
11
       78.87
21
      700.72
39
 0
62
 2
 0
LINE
8
default
6
CONTINUOUS
10
       98.40
20
      648.13
11
       98.40
21
      698.13
39
 0
62
 1
 0
LINE
8
default
6
CONTINUOUS
10
       98.40
20
      648.13
11
      104.94
21
      697.71
39
 0
62
 2
 0
LINE
8
default
6
CONTINUOUS
10
      122.69
20
      644.52
11
      122.69
21
      694.52
39
 0
62
 1
 0
LINE
8
default
6
CONTINUOUS
10
      122.69
20
      644.52
11
      130.83
21
      693.85
39
 0
62
 2
 0
LINE
8
default
6
CONTINUOUS
10
      146.77
20
      640.12
11
      146.77
21
      690.12
39
 0
62
 1
 0
LINE
8
default
6
CONTINUOUS
10
      146.77
20
      640.12
11
      156.51
21
      689.16
39
 0
62
 2
 0
LINE
8
default
6
CONTINUOUS
10
      170.62
20
      634.95
11
      170.62
21
      684.95
39
 0
62
 1
 0
LINE
8
default
6
CONTINUOUS
10
      170.62
20
      634.95
11
      181.94
21
      683.66
39
 0
62
 2
 0
LINE
8
default
6
CONTINUOUS
10
      194.19
20
      629.04
11
      194.19
21
      679.04
39
 0
62
 1
 0
LINE
8
default
6
CONTINUOUS
10
      194.19
20
      629.04
11
      207.08
21
      677.35
39
 0
62
 2
 0
LINE
8
default
6
CONTINUOUS
10
      217.42
20
      622.30
11
      217.42
21
      672.30
39
 0
62
 1
 0
LINE
8
default
6
CONTINUOUS
10
      217.42
20
      622.30
11
      232.45
21
      669.99
39
 0
62
 2
 0
LINE
8
default
6
CONTINUOUS
10
      240.20
20
      614.55
11
      240.20
21
      664.55
39
 0
62
 1
 0
LINE
8
default
6
CONTINUOUS
10
      240.20
20
      614.55
11
      257.45
21
      661.48
39
 0
62
 2
 0
LINE
8
default
6
CONTINUOUS
10
      262.48
20
      605.83
11
      262.48
21
      655.83
39
 0
62
 1
 0
LINE
8
default
6
CONTINUOUS
10
      262.48
20
      605.83
11
      281.74
21
      651.98
39
 0
62
 2
 0
LINE
8
default
6
CONTINUOUS
10
      284.20
20
      596.19
11
      284.20
21
      646.19
39
 0
62
 1
 0
LINE
8
default
6
CONTINUOUS
10
      284.20
20
      596.19
11
      305.44
21
      641.45
39
 0
62
 2
 0
LINE
8
default
6
CONTINUOUS
10
      305.32
20
      585.65
11
      305.32
21
      635.65
39
 0
62
 1
 0
LINE
8
default
6
CONTINUOUS
10
      305.32
20
      585.65
11
      328.66
21
      629.87
39
 0
62
 2
 0
LINE
8
default
6
CONTINUOUS
10
      325.80
20
      574.28
11
      325.80
21
      624.28
39
 0
62
 1
 0
LINE
8
default
6
CONTINUOUS
10
      325.80
20
      574.28
11
      351.02
21
      617.45
39
 0
62
 2
 0
LINE
8
default
6
CONTINUOUS
10
      345.58
20
      562.12
11
      345.58
21
      612.12
39
 0
62
 1
 0
LINE
8
default
6
CONTINUOUS
10
      345.58
20
      562.12
11
      372.65
21
      604.16
39
 0
62
 2
 0
LINE
8
default
6
CONTINUOUS
10
      364.64
20
      549.22
11
      364.64
21
      599.22
39
 0
62
 1
 0
LINE
8
default
6
CONTINUOUS
10
      364.64
20
      549.22
11
      393.50
21
      590.05
39
 0
62
 2
 0
LINE
8
default
6
CONTINUOUS
10
      382.84
20
      535.57
11
      382.84
21
      585.57
39
 0
62
 1
 0
LINE
8
default
6
CONTINUOUS
10
      382.84
20
      535.57
11
      414.09
21
      574.60
39
 0
62
 2
 0
LINE
8
default
6
CONTINUOUS
10
      399.95
20
      521.06
11
      399.95
21
      571.06
39
 0
62
 1
 0
LINE
8
default
6
CONTINUOUS
10
      399.95
20
      521.06
11
      433.45
21
      558.17
39
 0
62
 2
 0
LINE
8
default
6
CONTINUOUS
10
      415.91
20
      505.80
11
      415.91
21
      555.80
39
 0
62
 1
 0
LINE
8
default
6
CONTINUOUS
10
      415.91
20
      505.80
11
      451.55
21
      540.87
39
 0
62
 2
 0
LINE
8
default
6
CONTINUOUS
10
      430.68
20
      489.93
11
      430.68
21
      539.93
39
 0
62
 1
 0
LINE
8
default
6
CONTINUOUS
10
      430.68
20
      489.93
11
      468.22
21
      522.96
39
 0
62
 2
 0
LINE
8
default
6
CONTINUOUS
10
      444.23
20
      473.59
11
      444.23
21
      523.59
39
 0
62
 1
 0
LINE
8
default
6
CONTINUOUS
10
      444.23
20
      473.59
11
      483.65
21
      504.34
39
 0
62
 2
 0
LINE
8
default
6
CONTINUOUS
10
      456.49
20
      456.86
11
      456.49
21
      506.86
39
 0
62
 1
 0
LINE
8
default
6
CONTINUOUS
10
      456.49
20
      456.86
11
      498.46
21
      484.04
39
 0
62
 2
 0
LINE
8
default
6
CONTINUOUS
10
      465.81
20
      438.95
11
      465.81
21
      488.95
39
 0
62
 1
 0
LINE
8
default
6
CONTINUOUS
10
      465.81
20
      438.95
11
      512.21
21
      457.56
39
 0
62
 2
 0
LINE
8
default
6
CONTINUOUS
10
      471.42
20
      420.15
11
      471.42
21
      470.15
39
 0
62
 1
 0
LINE
8
default
6
CONTINUOUS
10
      471.42
20
      420.15
11
      520.48
21
      429.80
39
 0
62
 2
 0
LINE
8
default
6
CONTINUOUS
10
      473.45
20
      400.00
11
      473.45
21
      450.00
39
 0
62
 1
 0
LINE
8
default
6
CONTINUOUS
10
      473.45
20
      400.00
11
      523.45
21
      400.67
39
 0
62
 2
 0
ENDSEC
0
EOF
