0
SECTION
2
HEADER
9
$EXTMAX
10
    -900.000
20
      90.000
9
$EXTMIN
10
    5000.000
20
   -3000.000
0
ENDSEC
0
SECTION
2
ENTITIES
0
LINE
8
default
6
CONTINUOUS
10
        0.00
20
       -0.00
11
        6.10
21
       -0.01
39
 0
62
 1
 0
LINE
8
default
6
CONTINUOUS
10
        0.00
20
       -0.00
11
       -6.10
21
       -0.01
39
 0
62
 1
 0
LINE
8
default
6
CONTINUOUS
10
        6.10
20
       -0.01
11
       12.19
21
       -0.04
39
 0
62
 1
 0
LINE
8
default
6
CONTINUOUS
10
       -6.10
20
       -0.01
11
      -12.19
21
       -0.04
39
 0
62
 1
 0
LINE
8
default
6
CONTINUOUS
10
       12.19
20
       -0.04
11
       18.29
21
       -0.10
39
 0
62
 1
 0
LINE
8
default
6
CONTINUOUS
10
      -12.19
20
       -0.04
11
      -18.29
21
       -0.10
39
 0
62
 1
 0
LINE
8
default
6
CONTINUOUS
10
       18.29
20
       -0.10
11
       24.38
21
       -0.18
39
 0
62
 1
 0
LINE
8
default
6
CONTINUOUS
10
      -18.29
20
       -0.10
11
      -24.38
21
       -0.18
39
 0
62
 1
 0
LINE
8
default
6
CONTINUOUS
10
       24.38
20
       -0.18
11
       30.47
21
       -0.28
39
 0
62
 1
 0
LINE
8
default
6
CONTINUOUS
10
      -24.38
20
       -0.18
11
      -30.47
21
       -0.28
39
 0
62
 1
 0
LINE
8
default
6
CONTINUOUS
10
       30.47
20
       -0.28
11
       36.56
21
       -0.40
39
 0
62
 1
 0
LINE
8
default
6
CONTINUOUS
10
      -30.47
20
       -0.28
11
      -36.56
21
       -0.40
39
 0
62
 1
 0
LINE
8
default
6
CONTINUOUS
10
       36.56
20
       -0.40
11
       42.64
21
       -0.55
39
 0
62
 1
 0
LINE
8
default
6
CONTINUOUS
10
      -36.56
20
       -0.40
11
      -42.64
21
       -0.55
39
 0
62
 1
 0
LINE
8
default
6
CONTINUOUS
10
       42.64
20
       -0.55
11
       48.72
21
       -0.72
39
 0
62
 1
 0
LINE
8
default
6
CONTINUOUS
10
      -42.64
20
       -0.55
11
      -48.72
21
       -0.72
39
 0
62
 1
 0
LINE
8
default
6
CONTINUOUS
10
       48.72
20
       -0.72
11
       54.80
21
       -0.90
39
 0
62
 1
 0
LINE
8
default
6
CONTINUOUS
10
      -48.72
20
       -0.72
11
      -54.80
21
       -0.90
39
 0
62
 1
 0
LINE
8
default
6
CONTINUOUS
10
       54.80
20
       -0.90
11
       60.87
21
       -1.12
39
 0
62
 1
 0
LINE
8
default
6
CONTINUOUS
10
      -54.80
20
       -0.90
11
      -60.87
21
       -1.12
39
 0
62
 1
 0
LINE
8
default
6
CONTINUOUS
10
       60.87
20
       -1.12
11
       66.93
21
       -1.35
39
 0
62
 1
 0
LINE
8
default
6
CONTINUOUS
10
      -60.87
20
       -1.12
11
      -66.93
21
       -1.35
39
 0
62
 1
 0
LINE
8
default
6
CONTINUOUS
10
       66.93
20
       -1.35
11
       72.99
21
       -1.61
39
 0
62
 1
 0
LINE
8
default
6
CONTINUOUS
10
      -66.93
20
       -1.35
11
      -72.99
21
       -1.61
39
 0
62
 1
 0
LINE
8
default
6
CONTINUOUS
10
       72.99
20
       -1.61
11
       79.04
21
       -1.89
39
 0
62
 1
 0
LINE
8
default
6
CONTINUOUS
10
      -72.99
20
       -1.61
11
      -79.04
21
       -1.89
39
 0
62
 1
 0
LINE
8
default
6
CONTINUOUS
10
       79.04
20
       -1.89
11
       85.08
21
       -2.19
39
 0
62
 1
 0
LINE
8
default
6
CONTINUOUS
10
      -79.04
20
       -1.89
11
      -85.08
21
       -2.19
39
 0
62
 1
 0
LINE
8
default
6
CONTINUOUS
10
       85.08
20
       -2.19
11
       91.11
21
       -2.51
39
 0
62
 1
 0
LINE
8
default
6
CONTINUOUS
10
      -85.08
20
       -2.19
11
      -91.11
21
       -2.51
39
 0
62
 1
 0
LINE
8
default
6
CONTINUOUS
10
       91.11
20
       -2.51
11
       97.13
21
       -2.86
39
 0
62
 1
 0
LINE
8
default
6
CONTINUOUS
10
      -91.11
20
       -2.51
11
      -97.13
21
       -2.86
39
 0
62
 1
 0
LINE
8
default
6
CONTINUOUS
10
       97.13
20
       -2.86
11
      103.15
21
       -3.22
39
 0
62
 1
 0
LINE
8
default
6
CONTINUOUS
10
      -97.13
20
       -2.86
11
     -103.15
21
       -3.22
39
 0
62
 1
 0
LINE
8
default
6
CONTINUOUS
10
      103.15
20
       -3.22
11
      109.15
21
       -3.61
39
 0
62
 1
 0
LINE
8
default
6
CONTINUOUS
10
     -103.15
20
       -3.22
11
     -109.15
21
       -3.61
39
 0
62
 1
 0
LINE
8
default
6
CONTINUOUS
10
      109.15
20
       -3.61
11
      115.14
21
       -4.02
39
 0
62
 1
 0
LINE
8
default
6
CONTINUOUS
10
     -109.15
20
       -3.61
11
     -115.14
21
       -4.02
39
 0
62
 1
 0
LINE
8
default
6
CONTINUOUS
10
      115.14
20
       -4.02
11
      121.12
21
       -4.46
39
 0
62
 1
 0
LINE
8
default
6
CONTINUOUS
10
     -115.14
20
       -4.02
11
     -121.12
21
       -4.46
39
 0
62
 1
 0
LINE
8
default
6
CONTINUOUS
10
      121.12
20
       -4.46
11
      127.09
21
       -4.91
39
 0
62
 1
 0
LINE
8
default
6
CONTINUOUS
10
     -121.12
20
       -4.46
11
     -127.09
21
       -4.91
39
 0
62
 1
 0
LINE
8
default
6
CONTINUOUS
10
      127.09
20
       -4.91
11
      133.05
21
       -5.39
39
 0
62
 1
 0
LINE
8
default
6
CONTINUOUS
10
     -127.09
20
       -4.91
11
     -133.05
21
       -5.39
39
 0
62
 1
 0
LINE
8
default
6
CONTINUOUS
10
      133.05
20
       -5.39
11
      138.99
21
       -5.89
39
 0
62
 1
 0
LINE
8
default
6
CONTINUOUS
10
     -133.05
20
       -5.39
11
     -138.99
21
       -5.89
39
 0
62
 1
 0
LINE
8
default
6
CONTINUOUS
10
      138.99
20
       -5.89
11
      144.92
21
       -6.41
39
 0
62
 1
 0
LINE
8
default
6
CONTINUOUS
10
     -138.99
20
       -5.89
11
     -144.92
21
       -6.41
39
 0
62
 1
 0
LINE
8
default
6
CONTINUOUS
10
      144.92
20
       -6.41
11
      150.84
21
       -6.95
39
 0
62
 1
 0
LINE
8
default
6
CONTINUOUS
10
     -144.92
20
       -6.41
11
     -150.84
21
       -6.95
39
 0
62
 1
 0
LINE
8
default
6
CONTINUOUS
10
      150.84
20
       -6.95
11
      156.74
21
       -7.51
39
 0
62
 1
 0
LINE
8
default
6
CONTINUOUS
10
     -150.84
20
       -6.95
11
     -156.74
21
       -7.51
39
 0
62
 1
 0
LINE
8
default
6
CONTINUOUS
10
      156.74
20
       -7.51
11
      162.62
21
       -8.10
39
 0
62
 1
 0
LINE
8
default
6
CONTINUOUS
10
     -156.74
20
       -7.51
11
     -162.62
21
       -8.10
39
 0
62
 1
 0
LINE
8
default
6
CONTINUOUS
10
      162.62
20
       -8.10
11
      168.49
21
       -8.71
39
 0
62
 1
 0
LINE
8
default
6
CONTINUOUS
10
     -162.62
20
       -8.10
11
     -168.49
21
       -8.71
39
 0
62
 1
 0
LINE
8
default
6
CONTINUOUS
10
      168.49
20
       -8.71
11
      174.34
21
       -9.34
39
 0
62
 1
 0
LINE
8
default
6
CONTINUOUS
10
     -168.49
20
       -8.71
11
     -174.34
21
       -9.34
39
 0
62
 1
 0
LINE
8
default
6
CONTINUOUS
10
      174.34
20
       -9.34
11
      180.17
21
       -9.99
39
 0
62
 1
 0
LINE
8
default
6
CONTINUOUS
10
     -174.34
20
       -9.34
11
     -180.17
21
       -9.99
39
 0
62
 1
 0
LINE
8
default
6
CONTINUOUS
10
      180.17
20
       -9.99
11
      185.99
21
      -10.66
39
 0
62
 1
 0
LINE
8
default
6
CONTINUOUS
10
     -180.17
20
       -9.99
11
     -185.99
21
      -10.66
39
 0
62
 1
 0
LINE
8
default
6
CONTINUOUS
10
      185.99
20
      -10.66
11
      191.78
21
      -11.35
39
 0
62
 1
 0
LINE
8
default
6
CONTINUOUS
10
     -185.99
20
      -10.66
11
     -191.78
21
      -11.35
39
 0
62
 1
 0
LINE
8
default
6
CONTINUOUS
10
      191.78
20
      -11.35
11
      197.56
21
      -12.06
39
 0
62
 1
 0
LINE
8
default
6
CONTINUOUS
10
     -191.78
20
      -11.35
11
     -197.56
21
      -12.06
39
 0
62
 1
 0
LINE
8
default
6
CONTINUOUS
10
      197.56
20
      -12.06
11
      203.32
21
      -12.80
39
 0
62
 1
 0
LINE
8
default
6
CONTINUOUS
10
     -197.56
20
      -12.06
11
     -203.32
21
      -12.80
39
 0
62
 1
 0
LINE
8
default
6
CONTINUOUS
10
      203.32
20
      -12.80
11
      209.06
21
      -13.56
39
 0
62
 1
 0
LINE
8
default
6
CONTINUOUS
10
     -203.32
20
      -12.80
11
     -209.06
21
      -13.56
39
 0
62
 1
 0
LINE
8
default
6
CONTINUOUS
10
      209.06
20
      -13.56
11
      214.77
21
      -14.33
39
 0
62
 1
 0
LINE
8
default
6
CONTINUOUS
10
     -209.06
20
      -13.56
11
     -214.77
21
      -14.33
39
 0
62
 1
 0
LINE
8
default
6
CONTINUOUS
10
      214.77
20
      -14.33
11
      220.47
21
      -15.13
39
 0
62
 1
 0
LINE
8
default
6
CONTINUOUS
10
     -214.77
20
      -14.33
11
     -220.47
21
      -15.13
39
 0
62
 1
 0
LINE
8
default
6
CONTINUOUS
10
      220.47
20
      -15.13
11
      226.14
21
      -15.95
39
 0
62
 1
 0
LINE
8
default
6
CONTINUOUS
10
     -220.47
20
      -15.13
11
     -226.14
21
      -15.95
39
 0
62
 1
 0
LINE
8
default
6
CONTINUOUS
10
      226.14
20
      -15.95
11
      231.79
21
      -16.79
39
 0
62
 1
 0
LINE
8
default
6
CONTINUOUS
10
     -226.14
20
      -15.95
11
     -231.79
21
      -16.79
39
 0
62
 1
 0
LINE
8
default
6
CONTINUOUS
10
      231.79
20
      -16.79
11
      237.42
21
      -17.65
39
 0
62
 1
 0
LINE
8
default
6
CONTINUOUS
10
     -231.79
20
      -16.79
11
     -237.42
21
      -17.65
39
 0
62
 1
 0
LINE
8
default
6
CONTINUOUS
10
      237.42
20
      -17.65
11
      243.02
21
      -18.53
39
 0
62
 1
 0
LINE
8
default
6
CONTINUOUS
10
     -237.42
20
      -17.65
11
     -243.02
21
      -18.53
39
 0
62
 1
 0
LINE
8
default
6
CONTINUOUS
10
      243.02
20
      -18.53
11
      248.60
21
      -19.43
39
 0
62
 1
 0
LINE
8
default
6
CONTINUOUS
10
     -243.02
20
      -18.53
11
     -248.60
21
      -19.43
39
 0
62
 1
 0
LINE
8
default
6
CONTINUOUS
10
      248.60
20
      -19.43
11
      254.16
21
      -20.35
39
 0
62
 1
 0
LINE
8
default
6
CONTINUOUS
10
     -248.60
20
      -19.43
11
     -254.16
21
      -20.35
39
 0
62
 1
 0
LINE
8
default
6
CONTINUOUS
10
      254.16
20
      -20.35
11
      259.69
21
      -21.30
39
 0
62
 1
 0
LINE
8
default
6
CONTINUOUS
10
     -254.16
20
      -20.35
11
     -259.69
21
      -21.30
39
 0
62
 1
 0
LINE
8
default
6
CONTINUOUS
10
      259.69
20
      -21.30
11
      265.19
21
      -22.26
39
 0
62
 1
 0
LINE
8
default
6
CONTINUOUS
10
     -259.69
20
      -21.30
11
     -265.19
21
      -22.26
39
 0
62
 1
 0
LINE
8
default
6
CONTINUOUS
10
      265.19
20
      -22.26
11
      270.67
21
      -23.24
39
 0
62
 1
 0
LINE
8
default
6
CONTINUOUS
10
     -265.19
20
      -22.26
11
     -270.67
21
      -23.24
39
 0
62
 1
 0
LINE
8
default
6
CONTINUOUS
10
      270.67
20
      -23.24
11
      276.12
21
      -24.24
39
 0
62
 1
 0
LINE
8
default
6
CONTINUOUS
10
     -270.67
20
      -23.24
11
     -276.12
21
      -24.24
39
 0
62
 1
 0
LINE
8
default
6
CONTINUOUS
10
      276.12
20
      -24.24
11
      281.54
21
      -25.27
39
 0
62
 1
 0
LINE
8
default
6
CONTINUOUS
10
     -276.12
20
      -24.24
11
     -281.54
21
      -25.27
39
 0
62
 1
 0
LINE
8
default
6
CONTINUOUS
10
      281.54
20
      -25.27
11
      286.93
21
      -26.31
39
 0
62
 1
 0
LINE
8
default
6
CONTINUOUS
10
     -281.54
20
      -25.27
11
     -286.93
21
      -26.31
39
 0
62
 1
 0
LINE
8
default
6
CONTINUOUS
10
      286.93
20
      -26.31
11
      292.30
21
      -27.37
39
 0
62
 1
 0
LINE
8
default
6
CONTINUOUS
10
     -286.93
20
      -26.31
11
     -292.30
21
      -27.37
39
 0
62
 1
 0
LINE
8
default
6
CONTINUOUS
10
      292.30
20
      -27.37
11
      297.63
21
      -28.48
39
 0
62
 1
 0
LINE
8
default
6
CONTINUOUS
10
     -292.30
20
      -27.37
11
     -297.63
21
      -28.48
39
 0
62
 1
 0
LINE
8
default
6
CONTINUOUS
10
      297.63
20
      -28.48
11
      302.94
21
      -29.64
39
 0
62
 1
 0
LINE
8
default
6
CONTINUOUS
10
     -297.63
20
      -28.48
11
     -302.94
21
      -29.64
39
 0
62
 1
 0
LINE
8
default
6
CONTINUOUS
10
      302.94
20
      -29.64
11
      308.21
21
      -30.86
39
 0
62
 1
 0
LINE
8
default
6
CONTINUOUS
10
     -302.94
20
      -29.64
11
     -308.21
21
      -30.86
39
 0
62
 1
 0
LINE
8
default
6
CONTINUOUS
10
      308.21
20
      -30.86
11
      313.46
21
      -32.13
39
 0
62
 1
 0
LINE
8
default
6
CONTINUOUS
10
     -308.21
20
      -30.86
11
     -313.46
21
      -32.13
39
 0
62
 1
 0
LINE
8
default
6
CONTINUOUS
10
      313.46
20
      -32.13
11
      318.67
21
      -33.45
39
 0
62
 1
 0
LINE
8
default
6
CONTINUOUS
10
     -313.46
20
      -32.13
11
     -318.67
21
      -33.45
39
 0
62
 1
 0
LINE
8
default
6
CONTINUOUS
10
      318.67
20
      -33.45
11
      323.85
21
      -34.83
39
 0
62
 1
 0
LINE
8
default
6
CONTINUOUS
10
     -318.67
20
      -33.45
11
     -323.85
21
      -34.83
39
 0
62
 1
 0
LINE
8
default
6
CONTINUOUS
10
      323.85
20
      -34.83
11
      329.00
21
      -36.27
39
 0
62
 1
 0
LINE
8
default
6
CONTINUOUS
10
     -323.85
20
      -34.83
11
     -329.00
21
      -36.27
39
 0
62
 1
 0
LINE
8
default
6
CONTINUOUS
10
      329.00
20
      -36.27
11
      334.12
21
      -37.75
39
 0
62
 1
 0
LINE
8
default
6
CONTINUOUS
10
     -329.00
20
      -36.27
11
     -334.12
21
      -37.75
39
 0
62
 1
 0
LINE
8
default
6
CONTINUOUS
10
      334.12
20
      -37.75
11
      339.20
21
      -39.28
39
 0
62
 1
 0
LINE
8
default
6
CONTINUOUS
10
     -334.12
20
      -37.75
11
     -339.20
21
      -39.28
39
 0
62
 1
 0
LINE
8
default
6
CONTINUOUS
10
      339.20
20
      -39.28
11
      344.25
21
      -40.87
39
 0
62
 1
 0
LINE
8
default
6
CONTINUOUS
10
     -339.20
20
      -39.28
11
     -344.25
21
      -40.87
39
 0
62
 1
 0
LINE
8
default
6
CONTINUOUS
10
      344.25
20
      -40.87
11
      349.27
21
      -42.50
39
 0
62
 1
 0
LINE
8
default
6
CONTINUOUS
10
     -344.25
20
      -40.87
11
     -349.27
21
      -42.50
39
 0
62
 1
 0
LINE
8
default
6
CONTINUOUS
10
      349.27
20
      -42.50
11
      354.25
21
      -44.18
39
 0
62
 1
 0
LINE
8
default
6
CONTINUOUS
10
     -349.27
20
      -42.50
11
     -354.25
21
      -44.18
39
 0
62
 1
 0
LINE
8
default
6
CONTINUOUS
10
      354.25
20
      -44.18
11
      359.19
21
      -45.91
39
 0
62
 1
 0
LINE
8
default
6
CONTINUOUS
10
     -354.25
20
      -44.18
11
     -359.19
21
      -45.91
39
 0
62
 1
 0
LINE
8
default
6
CONTINUOUS
10
      359.19
20
      -45.91
11
      364.10
21
      -47.69
39
 0
62
 1
 0
LINE
8
default
6
CONTINUOUS
10
     -359.19
20
      -45.91
11
     -364.10
21
      -47.69
39
 0
62
 1
 0
LINE
8
default
6
CONTINUOUS
10
      364.10
20
      -47.69
11
      368.97
21
      -49.51
39
 0
62
 1
 0
LINE
8
default
6
CONTINUOUS
10
     -364.10
20
      -47.69
11
     -368.97
21
      -49.51
39
 0
62
 1
 0
LINE
8
default
6
CONTINUOUS
10
      368.97
20
      -49.51
11
      373.80
21
      -51.38
39
 0
62
 1
 0
LINE
8
default
6
CONTINUOUS
10
     -368.97
20
      -49.51
11
     -373.80
21
      -51.38
39
 0
62
 1
 0
LINE
8
default
6
CONTINUOUS
10
      373.80
20
      -51.38
11
      378.60
21
      -53.29
39
 0
62
 1
 0
LINE
8
default
6
CONTINUOUS
10
     -373.80
20
      -51.38
11
     -378.60
21
      -53.29
39
 0
62
 1
 0
LINE
8
default
6
CONTINUOUS
10
      378.60
20
      -53.29
11
      383.36
21
      -55.24
39
 0
62
 1
 0
LINE
8
default
6
CONTINUOUS
10
     -378.60
20
      -53.29
11
     -383.36
21
      -55.24
39
 0
62
 1
 0
LINE
8
default
6
CONTINUOUS
10
      383.36
20
      -55.24
11
      388.08
21
      -57.24
39
 0
62
 1
 0
LINE
8
default
6
CONTINUOUS
10
     -383.36
20
      -55.24
11
     -388.08
21
      -57.24
39
 0
62
 1
 0
LINE
8
default
6
CONTINUOUS
10
      388.08
20
      -57.24
11
      392.77
21
      -59.27
39
 0
62
 1
 0
LINE
8
default
6
CONTINUOUS
10
     -388.08
20
      -57.24
11
     -392.77
21
      -59.27
39
 0
62
 1
 0
LINE
8
default
6
CONTINUOUS
10
      392.77
20
      -59.27
11
      397.41
21
      -61.35
39
 0
62
 1
 0
LINE
8
default
6
CONTINUOUS
10
     -392.77
20
      -59.27
11
     -397.41
21
      -61.35
39
 0
62
 1
 0
LINE
8
default
6
CONTINUOUS
10
      397.41
20
      -61.35
11
      402.01
21
      -63.47
39
 0
62
 1
 0
LINE
8
default
6
CONTINUOUS
10
     -397.41
20
      -61.35
11
     -402.01
21
      -63.47
39
 0
62
 1
 0
LINE
8
default
6
CONTINUOUS
10
      402.01
20
      -63.47
11
      406.58
21
      -65.62
39
 0
62
 1
 0
LINE
8
default
6
CONTINUOUS
10
     -402.01
20
      -63.47
11
     -406.58
21
      -65.62
39
 0
62
 1
 0
LINE
8
default
6
CONTINUOUS
10
      406.58
20
      -65.62
11
      411.10
21
      -67.81
39
 0
62
 1
 0
LINE
8
default
6
CONTINUOUS
10
     -406.58
20
      -65.62
11
     -411.10
21
      -67.81
39
 0
62
 1
 0
LINE
8
default
6
CONTINUOUS
10
      411.10
20
      -67.81
11
      415.58
21
      -70.04
39
 0
62
 1
 0
LINE
8
default
6
CONTINUOUS
10
     -411.10
20
      -67.81
11
     -415.58
21
      -70.04
39
 0
62
 1
 0
LINE
8
default
6
CONTINUOUS
10
      415.58
20
      -70.04
11
      420.02
21
      -72.31
39
 0
62
 1
 0
LINE
8
default
6
CONTINUOUS
10
     -415.58
20
      -70.04
11
     -420.02
21
      -72.31
39
 0
62
 1
 0
LINE
8
default
6
CONTINUOUS
10
      420.02
20
      -72.31
11
      424.42
21
      -74.61
39
 0
62
 1
 0
LINE
8
default
6
CONTINUOUS
10
     -420.02
20
      -72.31
11
     -424.42
21
      -74.61
39
 0
62
 1
 0
LINE
8
default
6
CONTINUOUS
10
      424.42
20
      -74.61
11
      428.78
21
      -76.94
39
 0
62
 1
 0
LINE
8
default
6
CONTINUOUS
10
     -424.42
20
      -74.61
11
     -428.78
21
      -76.94
39
 0
62
 1
 0
LINE
8
default
6
CONTINUOUS
10
      428.78
20
      -76.94
11
      433.09
21
      -79.30
39
 0
62
 1
 0
LINE
8
default
6
CONTINUOUS
10
     -428.78
20
      -76.94
11
     -433.09
21
      -79.30
39
 0
62
 1
 0
LINE
8
default
6
CONTINUOUS
10
      433.09
20
      -79.30
11
      437.36
21
      -81.70
39
 0
62
 1
 0
LINE
8
default
6
CONTINUOUS
10
     -433.09
20
      -79.30
11
     -437.36
21
      -81.70
39
 0
62
 1
 0
LINE
8
default
6
CONTINUOUS
10
      437.36
20
      -81.70
11
      441.58
21
      -84.13
39
 0
62
 1
 0
LINE
8
default
6
CONTINUOUS
10
     -437.36
20
      -81.70
11
     -441.58
21
      -84.13
39
 0
62
 1
 0
LINE
8
default
6
CONTINUOUS
10
      441.58
20
      -84.13
11
      445.76
21
      -86.59
39
 0
62
 1
 0
LINE
8
default
6
CONTINUOUS
10
     -441.58
20
      -84.13
11
     -445.76
21
      -86.59
39
 0
62
 1
 0
LINE
8
default
6
CONTINUOUS
10
      445.76
20
      -86.59
11
      449.90
21
      -89.08
39
 0
62
 1
 0
LINE
8
default
6
CONTINUOUS
10
     -445.76
20
      -86.59
11
     -449.90
21
      -89.08
39
 0
62
 1
 0
LINE
8
default
6
CONTINUOUS
10
      449.90
20
      -89.08
11
      453.99
21
      -91.59
39
 0
62
 1
 0
LINE
8
default
6
CONTINUOUS
10
     -449.90
20
      -89.08
11
     -453.99
21
      -91.59
39
 0
62
 1
 0
LINE
8
default
6
CONTINUOUS
10
      453.99
20
      -91.59
11
      458.04
21
      -94.13
39
 0
62
 1
 0
LINE
8
default
6
CONTINUOUS
10
     -453.99
20
      -91.59
11
     -458.04
21
      -94.13
39
 0
62
 1
 0
LINE
8
default
6
CONTINUOUS
10
      458.04
20
      -94.13
11
      462.04
21
      -96.70
39
 0
62
 1
 0
LINE
8
default
6
CONTINUOUS
10
     -458.04
20
      -94.13
11
     -462.04
21
      -96.70
39
 0
62
 1
 0
LINE
8
default
6
CONTINUOUS
10
      462.04
20
      -96.70
11
      466.00
21
      -99.29
39
 0
62
 1
 0
LINE
8
default
6
CONTINUOUS
10
     -462.04
20
      -96.70
11
     -466.00
21
      -99.29
39
 0
62
 1
 0
LINE
8
default
6
CONTINUOUS
10
      466.00
20
      -99.29
11
      469.90
21
     -101.91
39
 0
62
 1
 0
LINE
8
default
6
CONTINUOUS
10
     -466.00
20
      -99.29
11
     -469.90
21
     -101.91
39
 0
62
 1
 0
LINE
8
default
6
CONTINUOUS
10
      469.90
20
     -101.91
11
      473.76
21
     -104.55
39
 0
62
 1
 0
LINE
8
default
6
CONTINUOUS
10
     -469.90
20
     -101.91
11
     -473.76
21
     -104.55
39
 0
62
 1
 0
LINE
8
default
6
CONTINUOUS
10
      473.76
20
     -104.55
11
      477.58
21
     -107.21
39
 0
62
 1
 0
LINE
8
default
6
CONTINUOUS
10
     -473.76
20
     -104.55
11
     -477.58
21
     -107.21
39
 0
62
 1
 0
LINE
8
default
6
CONTINUOUS
10
      477.58
20
     -107.21
11
      481.34
21
     -109.89
39
 0
62
 1
 0
LINE
8
default
6
CONTINUOUS
10
     -477.58
20
     -107.21
11
     -481.34
21
     -109.89
39
 0
62
 1
 0
LINE
8
default
6
CONTINUOUS
10
      481.34
20
     -109.89
11
      485.06
21
     -112.60
39
 0
62
 1
 0
LINE
8
default
6
CONTINUOUS
10
     -481.34
20
     -109.89
11
     -485.06
21
     -112.60
39
 0
62
 1
 0
LINE
8
default
6
CONTINUOUS
10
      485.06
20
     -112.60
11
      488.73
21
     -115.32
39
 0
62
 1
 0
LINE
8
default
6
CONTINUOUS
10
     -485.06
20
     -112.60
11
     -488.73
21
     -115.32
39
 0
62
 1
 0
LINE
8
default
6
CONTINUOUS
10
      488.73
20
     -115.32
11
      492.35
21
     -118.06
39
 0
62
 1
 0
LINE
8
default
6
CONTINUOUS
10
     -488.73
20
     -115.32
11
     -492.35
21
     -118.06
39
 0
62
 1
 0
LINE
8
default
6
CONTINUOUS
10
      492.35
20
     -118.06
11
      495.92
21
     -120.82
39
 0
62
 1
 0
LINE
8
default
6
CONTINUOUS
10
     -492.35
20
     -118.06
11
     -495.92
21
     -120.82
39
 0
62
 1
 0
LINE
8
default
6
CONTINUOUS
10
      495.92
20
     -120.82
11
      499.44
21
     -123.59
39
 0
62
 1
 0
LINE
8
default
6
CONTINUOUS
10
     -495.92
20
     -120.82
11
     -499.44
21
     -123.59
39
 0
62
 1
 0
LINE
8
default
6
CONTINUOUS
10
      499.44
20
     -123.59
11
      502.92
21
     -126.38
39
 0
62
 1
 0
LINE
8
default
6
CONTINUOUS
10
     -499.44
20
     -123.59
11
     -502.92
21
     -126.38
39
 0
62
 1
 0
LINE
8
default
6
CONTINUOUS
10
      502.92
20
     -126.38
11
      506.34
21
     -129.18
39
 0
62
 1
 0
LINE
8
default
6
CONTINUOUS
10
     -502.92
20
     -126.38
11
     -506.34
21
     -129.18
39
 0
62
 1
 0
LINE
8
default
6
CONTINUOUS
10
      506.34
20
     -129.18
11
      509.71
21
     -132.00
39
 0
62
 1
 0
LINE
8
default
6
CONTINUOUS
10
     -506.34
20
     -129.18
11
     -509.71
21
     -132.00
39
 0
62
 1
 0
LINE
8
default
6
CONTINUOUS
10
      509.71
20
     -132.00
11
      513.03
21
     -134.82
39
 0
62
 1
 0
LINE
8
default
6
CONTINUOUS
10
     -509.71
20
     -132.00
11
     -513.03
21
     -134.82
39
 0
62
 1
 0
LINE
8
default
6
CONTINUOUS
10
      513.03
20
     -134.82
11
      516.30
21
     -137.66
39
 0
62
 1
 0
LINE
8
default
6
CONTINUOUS
10
     -513.03
20
     -134.82
11
     -516.30
21
     -137.66
39
 0
62
 1
 0
LINE
8
default
6
CONTINUOUS
10
      516.30
20
     -137.66
11
      519.51
21
     -140.51
39
 0
62
 1
 0
LINE
8
default
6
CONTINUOUS
10
     -516.30
20
     -137.66
11
     -519.51
21
     -140.51
39
 0
62
 1
 0
LINE
8
default
6
CONTINUOUS
10
      519.51
20
     -140.51
11
      522.68
21
     -143.37
39
 0
62
 1
 0
LINE
8
default
6
CONTINUOUS
10
     -519.51
20
     -140.51
11
     -522.68
21
     -143.37
39
 0
62
 1
 0
LINE
8
default
6
CONTINUOUS
10
      522.68
20
     -143.37
11
      525.79
21
     -146.24
39
 0
62
 1
 0
LINE
8
default
6
CONTINUOUS
10
     -522.68
20
     -143.37
11
     -525.79
21
     -146.24
39
 0
62
 1
 0
LINE
8
default
6
CONTINUOUS
10
      525.79
20
     -146.24
11
      528.85
21
     -149.12
39
 0
62
 1
 0
LINE
8
default
6
CONTINUOUS
10
     -525.79
20
     -146.24
11
     -528.85
21
     -149.12
39
 0
62
 1
 0
LINE
8
default
6
CONTINUOUS
10
      528.85
20
     -149.12
11
      531.86
21
     -152.00
39
 0
62
 1
 0
LINE
8
default
6
CONTINUOUS
10
     -528.85
20
     -149.12
11
     -531.86
21
     -152.00
39
 0
62
 1
 0
LINE
8
default
6
CONTINUOUS
10
      531.86
20
     -152.00
11
      534.81
21
     -154.89
39
 0
62
 1
 0
LINE
8
default
6
CONTINUOUS
10
     -531.86
20
     -152.00
11
     -534.81
21
     -154.89
39
 0
62
 1
 0
LINE
8
default
6
CONTINUOUS
10
      534.81
20
     -154.89
11
      537.71
21
     -157.78
39
 0
62
 1
 0
LINE
8
default
6
CONTINUOUS
10
     -534.81
20
     -154.89
11
     -537.71
21
     -157.78
39
 0
62
 1
 0
LINE
8
default
6
CONTINUOUS
10
      537.71
20
     -157.78
11
      539.00
21
     -159.09
39
 0
62
 1
 0
LINE
8
default
6
CONTINUOUS
10
     -537.71
20
     -157.78
11
     -539.00
21
     -159.09
39
 0
62
 1
 0
LINE
8
default
6
CONTINUOUS
10
        0.00
20
     -309.33
11
        6.37
21
     -309.32
39
 0
62
 1
 0
LINE
8
default
6
CONTINUOUS
10
        0.00
20
     -309.33
11
       -6.37
21
     -309.32
39
 0
62
 1
 0
LINE
8
default
6
CONTINUOUS
10
        6.37
20
     -309.32
11
       12.74
21
     -309.30
39
 0
62
 1
 0
LINE
8
default
6
CONTINUOUS
10
       -6.37
20
     -309.32
11
      -12.74
21
     -309.30
39
 0
62
 1
 0
LINE
8
default
6
CONTINUOUS
10
       12.74
20
     -309.30
11
       19.10
21
     -309.27
39
 0
62
 1
 0
LINE
8
default
6
CONTINUOUS
10
      -12.74
20
     -309.30
11
      -19.10
21
     -309.27
39
 0
62
 1
 0
LINE
8
default
6
CONTINUOUS
10
       19.10
20
     -309.27
11
       25.47
21
     -309.23
39
 0
62
 1
 0
LINE
8
default
6
CONTINUOUS
10
      -19.10
20
     -309.27
11
      -25.47
21
     -309.23
39
 0
62
 1
 0
LINE
8
default
6
CONTINUOUS
10
       25.47
20
     -309.23
11
       31.83
21
     -309.17
39
 0
62
 1
 0
LINE
8
default
6
CONTINUOUS
10
      -25.47
20
     -309.23
11
      -31.83
21
     -309.17
39
 0
62
 1
 0
LINE
8
default
6
CONTINUOUS
10
       31.83
20
     -309.17
11
       38.19
21
     -309.10
39
 0
62
 1
 0
LINE
8
default
6
CONTINUOUS
10
      -31.83
20
     -309.17
11
      -38.19
21
     -309.10
39
 0
62
 1
 0
LINE
8
default
6
CONTINUOUS
10
       38.19
20
     -309.10
11
       44.55
21
     -309.02
39
 0
62
 1
 0
LINE
8
default
6
CONTINUOUS
10
      -38.19
20
     -309.10
11
      -44.55
21
     -309.02
39
 0
62
 1
 0
LINE
8
default
6
CONTINUOUS
10
       44.55
20
     -309.02
11
       50.90
21
     -308.92
39
 0
62
 1
 0
LINE
8
default
6
CONTINUOUS
10
      -44.55
20
     -309.02
11
      -50.90
21
     -308.92
39
 0
62
 1
 0
LINE
8
default
6
CONTINUOUS
10
       50.90
20
     -308.92
11
       57.25
21
     -308.81
39
 0
62
 1
 0
LINE
8
default
6
CONTINUOUS
10
      -50.90
20
     -308.92
11
      -57.25
21
     -308.81
39
 0
62
 1
 0
LINE
8
default
6
CONTINUOUS
10
       57.25
20
     -308.81
11
       63.59
21
     -308.69
39
 0
62
 1
 0
LINE
8
default
6
CONTINUOUS
10
      -57.25
20
     -308.81
11
      -63.59
21
     -308.69
39
 0
62
 1
 0
LINE
8
default
6
CONTINUOUS
10
       63.59
20
     -308.69
11
       69.92
21
     -308.56
39
 0
62
 1
 0
LINE
8
default
6
CONTINUOUS
10
      -63.59
20
     -308.69
11
      -69.92
21
     -308.56
39
 0
62
 1
 0
LINE
8
default
6
CONTINUOUS
10
       69.92
20
     -308.56
11
       76.25
21
     -308.41
39
 0
62
 1
 0
LINE
8
default
6
CONTINUOUS
10
      -69.92
20
     -308.56
11
      -76.25
21
     -308.41
39
 0
62
 1
 0
LINE
8
default
6
CONTINUOUS
10
       76.25
20
     -308.41
11
       82.57
21
     -308.25
39
 0
62
 1
 0
LINE
8
default
6
CONTINUOUS
10
      -76.25
20
     -308.41
11
      -82.57
21
     -308.25
39
 0
62
 1
 0
LINE
8
default
6
CONTINUOUS
10
       82.57
20
     -308.25
11
       88.88
21
     -308.08
39
 0
62
 1
 0
LINE
8
default
6
CONTINUOUS
10
      -82.57
20
     -308.25
11
      -88.88
21
     -308.08
39
 0
62
 1
 0
LINE
8
default
6
CONTINUOUS
10
       88.88
20
     -308.08
11
       95.18
21
     -307.89
39
 0
62
 1
 0
LINE
8
default
6
CONTINUOUS
10
      -88.88
20
     -308.08
11
      -95.18
21
     -307.89
39
 0
62
 1
 0
LINE
8
default
6
CONTINUOUS
10
       95.18
20
     -307.89
11
      101.47
21
     -307.70
39
 0
62
 1
 0
LINE
8
default
6
CONTINUOUS
10
      -95.18
20
     -307.89
11
     -101.47
21
     -307.70
39
 0
62
 1
 0
LINE
8
default
6
CONTINUOUS
10
      101.47
20
     -307.70
11
      107.76
21
     -307.49
39
 0
62
 1
 0
LINE
8
default
6
CONTINUOUS
10
     -101.47
20
     -307.70
11
     -107.76
21
     -307.49
39
 0
62
 1
 0
LINE
8
default
6
CONTINUOUS
10
      107.76
20
     -307.49
11
      114.03
21
     -307.26
39
 0
62
 1
 0
LINE
8
default
6
CONTINUOUS
10
     -107.76
20
     -307.49
11
     -114.03
21
     -307.26
39
 0
62
 1
 0
LINE
8
default
6
CONTINUOUS
10
      114.03
20
     -307.26
11
      120.29
21
     -307.03
39
 0
62
 1
 0
LINE
8
default
6
CONTINUOUS
10
     -114.03
20
     -307.26
11
     -120.29
21
     -307.03
39
 0
62
 1
 0
LINE
8
default
6
CONTINUOUS
10
      120.29
20
     -307.03
11
      126.54
21
     -306.78
39
 0
62
 1
 0
LINE
8
default
6
CONTINUOUS
10
     -120.29
20
     -307.03
11
     -126.54
21
     -306.78
39
 0
62
 1
 0
LINE
8
default
6
CONTINUOUS
10
      126.54
20
     -306.78
11
      132.77
21
     -306.52
39
 0
62
 1
 0
LINE
8
default
6
CONTINUOUS
10
     -126.54
20
     -306.78
11
     -132.77
21
     -306.52
39
 0
62
 1
 0
LINE
8
default
6
CONTINUOUS
10
      132.77
20
     -306.52
11
      139.00
21
     -306.25
39
 0
62
 1
 0
LINE
8
default
6
CONTINUOUS
10
     -132.77
20
     -306.52
11
     -139.00
21
     -306.25
39
 0
62
 1
 0
LINE
8
default
6
CONTINUOUS
10
      139.00
20
     -306.25
11
      145.20
21
     -305.96
39
 0
62
 1
 0
LINE
8
default
6
CONTINUOUS
10
     -139.00
20
     -306.25
11
     -145.20
21
     -305.96
39
 0
62
 1
 0
LINE
8
default
6
CONTINUOUS
10
      145.20
20
     -305.96
11
      151.40
21
     -305.66
39
 0
62
 1
 0
LINE
8
default
6
CONTINUOUS
10
     -145.20
20
     -305.96
11
     -151.40
21
     -305.66
39
 0
62
 1
 0
LINE
8
default
6
CONTINUOUS
10
      151.40
20
     -305.66
11
      157.58
21
     -305.35
39
 0
62
 1
 0
LINE
8
default
6
CONTINUOUS
10
     -151.40
20
     -305.66
11
     -157.58
21
     -305.35
39
 0
62
 1
 0
LINE
8
default
6
CONTINUOUS
10
      157.58
20
     -305.35
11
      163.74
21
     -305.03
39
 0
62
 1
 0
LINE
8
default
6
CONTINUOUS
10
     -157.58
20
     -305.35
11
     -163.74
21
     -305.03
39
 0
62
 1
 0
LINE
8
default
6
CONTINUOUS
10
      163.74
20
     -305.03
11
      169.89
21
     -304.69
39
 0
62
 1
 0
LINE
8
default
6
CONTINUOUS
10
     -163.74
20
     -305.03
11
     -169.89
21
     -304.69
39
 0
62
 1
 0
LINE
8
default
6
CONTINUOUS
10
      169.89
20
     -304.69
11
      176.02
21
     -304.35
39
 0
62
 1
 0
LINE
8
default
6
CONTINUOUS
10
     -169.89
20
     -304.69
11
     -176.02
21
     -304.35
39
 0
62
 1
 0
LINE
8
default
6
CONTINUOUS
10
      176.02
20
     -304.35
11
      182.13
21
     -303.99
39
 0
62
 1
 0
LINE
8
default
6
CONTINUOUS
10
     -176.02
20
     -304.35
11
     -182.13
21
     -303.99
39
 0
62
 1
 0
LINE
8
default
6
CONTINUOUS
10
      182.13
20
     -303.99
11
      188.22
21
     -303.61
39
 0
62
 1
 0
LINE
8
default
6
CONTINUOUS
10
     -182.13
20
     -303.99
11
     -188.22
21
     -303.61
39
 0
62
 1
 0
LINE
8
default
6
CONTINUOUS
10
      188.22
20
     -303.61
11
      194.30
21
     -303.23
39
 0
62
 1
 0
LINE
8
default
6
CONTINUOUS
10
     -188.22
20
     -303.61
11
     -194.30
21
     -303.23
39
 0
62
 1
 0
LINE
8
default
6
CONTINUOUS
10
      194.30
20
     -303.23
11
      200.36
21
     -302.83
39
 0
62
 1
 0
LINE
8
default
6
CONTINUOUS
10
     -194.30
20
     -303.23
11
     -200.36
21
     -302.83
39
 0
62
 1
 0
LINE
8
default
6
CONTINUOUS
10
      200.36
20
     -302.83
11
      206.39
21
     -302.43
39
 0
62
 1
 0
LINE
8
default
6
CONTINUOUS
10
     -200.36
20
     -302.83
11
     -206.39
21
     -302.43
39
 0
62
 1
 0
LINE
8
default
6
CONTINUOUS
10
      206.39
20
     -302.43
11
      212.41
21
     -302.00
39
 0
62
 1
 0
LINE
8
default
6
CONTINUOUS
10
     -206.39
20
     -302.43
11
     -212.41
21
     -302.00
39
 0
62
 1
 0
LINE
8
default
6
CONTINUOUS
10
      212.41
20
     -302.00
11
      218.40
21
     -301.57
39
 0
62
 1
 0
LINE
8
default
6
CONTINUOUS
10
     -212.41
20
     -302.00
11
     -218.40
21
     -301.57
39
 0
62
 1
 0
LINE
8
default
6
CONTINUOUS
10
      218.40
20
     -301.57
11
      224.37
21
     -301.13
39
 0
62
 1
 0
LINE
8
default
6
CONTINUOUS
10
     -218.40
20
     -301.57
11
     -224.37
21
     -301.13
39
 0
62
 1
 0
LINE
8
default
6
CONTINUOUS
10
      224.37
20
     -301.13
11
      230.32
21
     -300.67
39
 0
62
 1
 0
LINE
8
default
6
CONTINUOUS
10
     -224.37
20
     -301.13
11
     -230.32
21
     -300.67
39
 0
62
 1
 0
LINE
8
default
6
CONTINUOUS
10
      230.32
20
     -300.67
11
      236.25
21
     -300.20
39
 0
62
 1
 0
LINE
8
default
6
CONTINUOUS
10
     -230.32
20
     -300.67
11
     -236.25
21
     -300.20
39
 0
62
 1
 0
LINE
8
default
6
CONTINUOUS
10
      236.25
20
     -300.20
11
      242.15
21
     -299.72
39
 0
62
 1
 0
LINE
8
default
6
CONTINUOUS
10
     -236.25
20
     -300.20
11
     -242.15
21
     -299.72
39
 0
62
 1
 0
LINE
8
default
6
CONTINUOUS
10
      242.15
20
     -299.72
11
      248.03
21
     -299.23
39
 0
62
 1
 0
LINE
8
default
6
CONTINUOUS
10
     -242.15
20
     -299.72
11
     -248.03
21
     -299.23
39
 0
62
 1
 0
LINE
8
default
6
CONTINUOUS
10
      248.03
20
     -299.23
11
      253.88
21
     -298.72
39
 0
62
 1
 0
LINE
8
default
6
CONTINUOUS
10
     -248.03
20
     -299.23
11
     -253.88
21
     -298.72
39
 0
62
 1
 0
LINE
8
default
6
CONTINUOUS
10
      253.88
20
     -298.72
11
      259.71
21
     -298.21
39
 0
62
 1
 0
LINE
8
default
6
CONTINUOUS
10
     -253.88
20
     -298.72
11
     -259.71
21
     -298.21
39
 0
62
 1
 0
LINE
8
default
6
CONTINUOUS
10
      259.71
20
     -298.21
11
      265.52
21
     -297.68
39
 0
62
 1
 0
LINE
8
default
6
CONTINUOUS
10
     -259.71
20
     -298.21
11
     -265.52
21
     -297.68
39
 0
62
 1
 0
LINE
8
default
6
CONTINUOUS
10
      265.52
20
     -297.68
11
      271.29
21
     -297.14
39
 0
62
 1
 0
LINE
8
default
6
CONTINUOUS
10
     -265.52
20
     -297.68
11
     -271.29
21
     -297.14
39
 0
62
 1
 0
LINE
8
default
6
CONTINUOUS
10
      271.29
20
     -297.14
11
      277.04
21
     -296.59
39
 0
62
 1
 0
LINE
8
default
6
CONTINUOUS
10
     -271.29
20
     -297.14
11
     -277.04
21
     -296.59
39
 0
62
 1
 0
LINE
8
default
6
CONTINUOUS
10
      277.04
20
     -296.59
11
      282.76
21
     -296.03
39
 0
62
 1
 0
LINE
8
default
6
CONTINUOUS
10
     -277.04
20
     -296.59
11
     -282.76
21
     -296.03
39
 0
62
 1
 0
LINE
8
default
6
CONTINUOUS
10
      282.76
20
     -296.03
11
      288.45
21
     -295.45
39
 0
62
 1
 0
LINE
8
default
6
CONTINUOUS
10
     -282.76
20
     -296.03
11
     -288.45
21
     -295.45
39
 0
62
 1
 0
LINE
8
default
6
CONTINUOUS
10
      288.45
20
     -295.45
11
      294.12
21
     -294.87
39
 0
62
 1
 0
LINE
8
default
6
CONTINUOUS
10
     -288.45
20
     -295.45
11
     -294.12
21
     -294.87
39
 0
62
 1
 0
LINE
8
default
6
CONTINUOUS
10
      294.12
20
     -294.87
11
      299.75
21
     -294.27
39
 0
62
 1
 0
LINE
8
default
6
CONTINUOUS
10
     -294.12
20
     -294.87
11
     -299.75
21
     -294.27
39
 0
62
 1
 0
LINE
8
default
6
CONTINUOUS
10
      299.75
20
     -294.27
11
      305.36
21
     -293.66
39
 0
62
 1
 0
LINE
8
default
6
CONTINUOUS
10
     -299.75
20
     -294.27
11
     -305.36
21
     -293.66
39
 0
62
 1
 0
LINE
8
default
6
CONTINUOUS
10
      305.36
20
     -293.66
11
      310.93
21
     -293.05
39
 0
62
 1
 0
LINE
8
default
6
CONTINUOUS
10
     -305.36
20
     -293.66
11
     -310.93
21
     -293.05
39
 0
62
 1
 0
LINE
8
default
6
CONTINUOUS
10
      310.93
20
     -293.05
11
      316.48
21
     -292.41
39
 0
62
 1
 0
LINE
8
default
6
CONTINUOUS
10
     -310.93
20
     -293.05
11
     -316.48
21
     -292.41
39
 0
62
 1
 0
LINE
8
default
6
CONTINUOUS
10
      316.48
20
     -292.41
11
      321.99
21
     -291.77
39
 0
62
 1
 0
LINE
8
default
6
CONTINUOUS
10
     -316.48
20
     -292.41
11
     -321.99
21
     -291.77
39
 0
62
 1
 0
LINE
8
default
6
CONTINUOUS
10
      321.99
20
     -291.77
11
      327.47
21
     -291.12
39
 0
62
 1
 0
LINE
8
default
6
CONTINUOUS
10
     -321.99
20
     -291.77
11
     -327.47
21
     -291.12
39
 0
62
 1
 0
LINE
8
default
6
CONTINUOUS
10
      327.47
20
     -291.12
11
      332.91
21
     -290.46
39
 0
62
 1
 0
LINE
8
default
6
CONTINUOUS
10
     -327.47
20
     -291.12
11
     -332.91
21
     -290.46
39
 0
62
 1
 0
LINE
8
default
6
CONTINUOUS
10
      332.91
20
     -290.46
11
      338.33
21
     -289.78
39
 0
62
 1
 0
LINE
8
default
6
CONTINUOUS
10
     -332.91
20
     -290.46
11
     -338.33
21
     -289.78
39
 0
62
 1
 0
LINE
8
default
6
CONTINUOUS
10
      338.33
20
     -289.78
11
      343.71
21
     -289.10
39
 0
62
 1
 0
LINE
8
default
6
CONTINUOUS
10
     -338.33
20
     -289.78
11
     -343.71
21
     -289.10
39
 0
62
 1
 0
LINE
8
default
6
CONTINUOUS
10
      343.71
20
     -289.10
11
      349.05
21
     -288.40
39
 0
62
 1
 0
LINE
8
default
6
CONTINUOUS
10
     -343.71
20
     -289.10
11
     -349.05
21
     -288.40
39
 0
62
 1
 0
LINE
8
default
6
CONTINUOUS
10
      349.05
20
     -288.40
11
      354.36
21
     -287.70
39
 0
62
 1
 0
LINE
8
default
6
CONTINUOUS
10
     -349.05
20
     -288.40
11
     -354.36
21
     -287.70
39
 0
62
 1
 0
LINE
8
default
6
CONTINUOUS
10
      354.36
20
     -287.70
11
      359.63
21
     -286.97
39
 0
62
 1
 0
LINE
8
default
6
CONTINUOUS
10
     -354.36
20
     -287.70
11
     -359.63
21
     -286.97
39
 0
62
 1
 0
LINE
8
default
6
CONTINUOUS
10
      359.63
20
     -286.97
11
      364.87
21
     -286.23
39
 0
62
 1
 0
LINE
8
default
6
CONTINUOUS
10
     -359.63
20
     -286.97
11
     -364.87
21
     -286.23
39
 0
62
 1
 0
LINE
8
default
6
CONTINUOUS
10
      364.87
20
     -286.23
11
      370.08
21
     -285.48
39
 0
62
 1
 0
LINE
8
default
6
CONTINUOUS
10
     -364.87
20
     -286.23
11
     -370.08
21
     -285.48
39
 0
62
 1
 0
LINE
8
default
6
CONTINUOUS
10
      370.08
20
     -285.48
11
      375.24
21
     -284.71
39
 0
62
 1
 0
LINE
8
default
6
CONTINUOUS
10
     -370.08
20
     -285.48
11
     -375.24
21
     -284.71
39
 0
62
 1
 0
LINE
8
default
6
CONTINUOUS
10
      375.24
20
     -284.71
11
      380.37
21
     -283.92
39
 0
62
 1
 0
LINE
8
default
6
CONTINUOUS
10
     -375.24
20
     -284.71
11
     -380.37
21
     -283.92
39
 0
62
 1
 0
LINE
8
default
6
CONTINUOUS
10
      380.37
20
     -283.92
11
      385.46
21
     -283.12
39
 0
62
 1
 0
LINE
8
default
6
CONTINUOUS
10
     -380.37
20
     -283.92
11
     -385.46
21
     -283.12
39
 0
62
 1
 0
LINE
8
default
6
CONTINUOUS
10
      385.46
20
     -283.12
11
      390.51
21
     -282.30
39
 0
62
 1
 0
LINE
8
default
6
CONTINUOUS
10
     -385.46
20
     -283.12
11
     -390.51
21
     -282.30
39
 0
62
 1
 0
LINE
8
default
6
CONTINUOUS
10
      390.51
20
     -282.30
11
      395.52
21
     -281.46
39
 0
62
 1
 0
LINE
8
default
6
CONTINUOUS
10
     -390.51
20
     -282.30
11
     -395.52
21
     -281.46
39
 0
62
 1
 0
LINE
8
default
6
CONTINUOUS
10
      395.52
20
     -281.46
11
      400.49
21
     -280.61
39
 0
62
 1
 0
LINE
8
default
6
CONTINUOUS
10
     -395.52
20
     -281.46
11
     -400.49
21
     -280.61
39
 0
62
 1
 0
LINE
8
default
6
CONTINUOUS
10
      400.49
20
     -280.61
11
      405.43
21
     -279.75
39
 0
62
 1
 0
LINE
8
default
6
CONTINUOUS
10
     -400.49
20
     -280.61
11
     -405.43
21
     -279.75
39
 0
62
 1
 0
LINE
8
default
6
CONTINUOUS
10
      405.43
20
     -279.75
11
      410.32
21
     -278.87
39
 0
62
 1
 0
LINE
8
default
6
CONTINUOUS
10
     -405.43
20
     -279.75
11
     -410.32
21
     -278.87
39
 0
62
 1
 0
LINE
8
default
6
CONTINUOUS
10
      410.32
20
     -278.87
11
      415.17
21
     -277.98
39
 0
62
 1
 0
LINE
8
default
6
CONTINUOUS
10
     -410.32
20
     -278.87
11
     -415.17
21
     -277.98
39
 0
62
 1
 0
LINE
8
default
6
CONTINUOUS
10
      415.17
20
     -277.98
11
      419.98
21
     -277.07
39
 0
62
 1
 0
LINE
8
default
6
CONTINUOUS
10
     -415.17
20
     -277.98
11
     -419.98
21
     -277.07
39
 0
62
 1
 0
LINE
8
default
6
CONTINUOUS
10
      419.98
20
     -277.07
11
      424.75
21
     -276.15
39
 0
62
 1
 0
LINE
8
default
6
CONTINUOUS
10
     -419.98
20
     -277.07
11
     -424.75
21
     -276.15
39
 0
62
 1
 0
LINE
8
default
6
CONTINUOUS
10
      424.75
20
     -276.15
11
      429.47
21
     -275.21
39
 0
62
 1
 0
LINE
8
default
6
CONTINUOUS
10
     -424.75
20
     -276.15
11
     -429.47
21
     -275.21
39
 0
62
 1
 0
LINE
8
default
6
CONTINUOUS
10
      429.47
20
     -275.21
11
      434.15
21
     -274.26
39
 0
62
 1
 0
LINE
8
default
6
CONTINUOUS
10
     -429.47
20
     -275.21
11
     -434.15
21
     -274.26
39
 0
62
 1
 0
LINE
8
default
6
CONTINUOUS
10
      434.15
20
     -274.26
11
      438.79
21
     -273.30
39
 0
62
 1
 0
LINE
8
default
6
CONTINUOUS
10
     -434.15
20
     -274.26
11
     -438.79
21
     -273.30
39
 0
62
 1
 0
LINE
8
default
6
CONTINUOUS
10
      438.79
20
     -273.30
11
      443.39
21
     -272.32
39
 0
62
 1
 0
LINE
8
default
6
CONTINUOUS
10
     -438.79
20
     -273.30
11
     -443.39
21
     -272.32
39
 0
62
 1
 0
LINE
8
default
6
CONTINUOUS
10
      443.39
20
     -272.32
11
      447.94
21
     -271.33
39
 0
62
 1
 0
LINE
8
default
6
CONTINUOUS
10
     -443.39
20
     -272.32
11
     -447.94
21
     -271.33
39
 0
62
 1
 0
LINE
8
default
6
CONTINUOUS
10
      447.94
20
     -271.33
11
      452.44
21
     -270.33
39
 0
62
 1
 0
LINE
8
default
6
CONTINUOUS
10
     -447.94
20
     -271.33
11
     -452.44
21
     -270.33
39
 0
62
 1
 0
LINE
8
default
6
CONTINUOUS
10
      452.44
20
     -270.33
11
      456.90
21
     -269.32
39
 0
62
 1
 0
LINE
8
default
6
CONTINUOUS
10
     -452.44
20
     -270.33
11
     -456.90
21
     -269.32
39
 0
62
 1
 0
LINE
8
default
6
CONTINUOUS
10
      456.90
20
     -269.32
11
      461.32
21
     -268.29
39
 0
62
 1
 0
LINE
8
default
6
CONTINUOUS
10
     -456.90
20
     -269.32
11
     -461.32
21
     -268.29
39
 0
62
 1
 0
LINE
8
default
6
CONTINUOUS
10
      461.32
20
     -268.29
11
      465.68
21
     -267.25
39
 0
62
 1
 0
LINE
8
default
6
CONTINUOUS
10
     -461.32
20
     -268.29
11
     -465.68
21
     -267.25
39
 0
62
 1
 0
LINE
8
default
6
CONTINUOUS
10
      465.68
20
     -267.25
11
      470.01
21
     -266.20
39
 0
62
 1
 0
LINE
8
default
6
CONTINUOUS
10
     -465.68
20
     -267.25
11
     -470.01
21
     -266.20
39
 0
62
 1
 0
LINE
8
default
6
CONTINUOUS
10
      470.01
20
     -266.20
11
      474.28
21
     -265.14
39
 0
62
 1
 0
LINE
8
default
6
CONTINUOUS
10
     -470.01
20
     -266.20
11
     -474.28
21
     -265.14
39
 0
62
 1
 0
LINE
8
default
6
CONTINUOUS
10
      474.28
20
     -265.14
11
      478.51
21
     -264.07
39
 0
62
 1
 0
LINE
8
default
6
CONTINUOUS
10
     -474.28
20
     -265.14
11
     -478.51
21
     -264.07
39
 0
62
 1
 0
LINE
8
default
6
CONTINUOUS
10
      478.51
20
     -264.07
11
      482.69
21
     -262.99
39
 0
62
 1
 0
LINE
8
default
6
CONTINUOUS
10
     -478.51
20
     -264.07
11
     -482.69
21
     -262.99
39
 0
62
 1
 0
LINE
8
default
6
CONTINUOUS
10
      482.69
20
     -262.99
11
      486.82
21
     -261.89
39
 0
62
 1
 0
LINE
8
default
6
CONTINUOUS
10
     -482.69
20
     -262.99
11
     -486.82
21
     -261.89
39
 0
62
 1
 0
LINE
8
default
6
CONTINUOUS
10
      486.82
20
     -261.89
11
      490.90
21
     -260.79
39
 0
62
 1
 0
LINE
8
default
6
CONTINUOUS
10
     -486.82
20
     -261.89
11
     -490.90
21
     -260.79
39
 0
62
 1
 0
LINE
8
default
6
CONTINUOUS
10
      490.90
20
     -260.79
11
      494.94
21
     -259.67
39
 0
62
 1
 0
LINE
8
default
6
CONTINUOUS
10
     -490.90
20
     -260.79
11
     -494.94
21
     -259.67
39
 0
62
 1
 0
LINE
8
default
6
CONTINUOUS
10
      494.94
20
     -259.67
11
      498.92
21
     -258.55
39
 0
62
 1
 0
LINE
8
default
6
CONTINUOUS
10
     -494.94
20
     -259.67
11
     -498.92
21
     -258.55
39
 0
62
 1
 0
LINE
8
default
6
CONTINUOUS
10
      498.92
20
     -258.55
11
      502.85
21
     -257.41
39
 0
62
 1
 0
LINE
8
default
6
CONTINUOUS
10
     -498.92
20
     -258.55
11
     -502.85
21
     -257.41
39
 0
62
 1
 0
LINE
8
default
6
CONTINUOUS
10
      502.85
20
     -257.41
11
      506.74
21
     -256.27
39
 0
62
 1
 0
LINE
8
default
6
CONTINUOUS
10
     -502.85
20
     -257.41
11
     -506.74
21
     -256.27
39
 0
62
 1
 0
LINE
8
default
6
CONTINUOUS
10
      506.74
20
     -256.27
11
      510.57
21
     -255.11
39
 0
62
 1
 0
LINE
8
default
6
CONTINUOUS
10
     -506.74
20
     -256.27
11
     -510.57
21
     -255.11
39
 0
62
 1
 0
LINE
8
default
6
CONTINUOUS
10
      510.57
20
     -255.11
11
      514.35
21
     -253.95
39
 0
62
 1
 0
LINE
8
default
6
CONTINUOUS
10
     -510.57
20
     -255.11
11
     -514.35
21
     -253.95
39
 0
62
 1
 0
LINE
8
default
6
CONTINUOUS
10
      514.35
20
     -253.95
11
      518.08
21
     -252.78
39
 0
62
 1
 0
LINE
8
default
6
CONTINUOUS
10
     -514.35
20
     -253.95
11
     -518.08
21
     -252.78
39
 0
62
 1
 0
LINE
8
default
6
CONTINUOUS
10
      518.08
20
     -252.78
11
      521.76
21
     -251.60
39
 0
62
 1
 0
LINE
8
default
6
CONTINUOUS
10
     -518.08
20
     -252.78
11
     -521.76
21
     -251.60
39
 0
62
 1
 0
LINE
8
default
6
CONTINUOUS
10
      521.76
20
     -251.60
11
      525.39
21
     -250.41
39
 0
62
 1
 0
LINE
8
default
6
CONTINUOUS
10
     -521.76
20
     -251.60
11
     -525.39
21
     -250.41
39
 0
62
 1
 0
LINE
8
default
6
CONTINUOUS
10
      525.39
20
     -250.41
11
      528.96
21
     -249.21
39
 0
62
 1
 0
LINE
8
default
6
CONTINUOUS
10
     -525.39
20
     -250.41
11
     -528.96
21
     -249.21
39
 0
62
 1
 0
LINE
8
default
6
CONTINUOUS
10
      528.96
20
     -249.21
11
      532.49
21
     -248.01
39
 0
62
 1
 0
LINE
8
default
6
CONTINUOUS
10
     -528.96
20
     -249.21
11
     -532.49
21
     -248.01
39
 0
62
 1
 0
LINE
8
default
6
CONTINUOUS
10
      532.49
20
     -248.01
11
      535.95
21
     -246.79
39
 0
62
 1
 0
LINE
8
default
6
CONTINUOUS
10
     -532.49
20
     -248.01
11
     -535.95
21
     -246.79
39
 0
62
 1
 0
LINE
8
default
6
CONTINUOUS
10
      535.95
20
     -246.79
11
      539.00
21
     -245.71
39
 0
62
 1
 0
LINE
8
default
6
CONTINUOUS
10
     -535.95
20
     -246.79
11
     -539.00
21
     -245.71
39
 0
62
 1
 0
LINE
8
default
6
CONTINUOUS
10
      539.00
20
     -159.09
11
      539.00
21
     -245.71
39
 0
62
 1
 0
LINE
8
default
6
CONTINUOUS
10
     -539.00
20
     -159.09
11
     -539.00
21
     -245.71
39
 0
62
 1
 0
LINE
8
default
6
CONTINUOUS
10
        0.00
20
      640.83
11
        2.33
21
      640.83
39
 0
62
 3
 0
LINE
8
default
6
CONTINUOUS
10
        0.00
20
      640.83
11
       -2.33
21
      640.83
39
 0
62
 1
 0
LINE
8
default
6
CONTINUOUS
10
        2.33
20
      640.83
11
        4.66
21
      640.81
39
 0
62
 3
 0
LINE
8
default
6
CONTINUOUS
10
       -2.33
20
      640.83
11
       -4.66
21
      640.81
39
 0
62
 1
 0
LINE
8
default
6
CONTINUOUS
10
        4.66
20
      640.81
11
        6.99
21
      640.79
39
 0
62
 3
 0
LINE
8
default
6
CONTINUOUS
10
       -4.66
20
      640.81
11
       -6.99
21
      640.79
39
 0
62
 1
 0
LINE
8
default
6
CONTINUOUS
10
        6.99
20
      640.79
11
        9.32
21
      640.76
39
 0
62
 3
 0
LINE
8
default
6
CONTINUOUS
10
       -6.99
20
      640.79
11
       -9.32
21
      640.76
39
 0
62
 1
 0
LINE
8
default
6
CONTINUOUS
10
        9.32
20
      640.76
11
       11.65
21
      640.73
39
 0
62
 3
 0
LINE
8
default
6
CONTINUOUS
10
       -9.32
20
      640.76
11
      -11.65
21
      640.73
39
 0
62
 1
 0
LINE
8
default
6
CONTINUOUS
10
       11.65
20
      640.73
11
       13.98
21
      640.68
39
 0
62
 3
 0
LINE
8
default
6
CONTINUOUS
10
      -11.65
20
      640.73
11
      -13.98
21
      640.68
39
 0
62
 1
 0
LINE
8
default
6
CONTINUOUS
10
       13.98
20
      640.68
11
       16.31
21
      640.63
39
 0
62
 3
 0
LINE
8
default
6
CONTINUOUS
10
      -13.98
20
      640.68
11
      -16.31
21
      640.63
39
 0
62
 1
 0
LINE
8
default
6
CONTINUOUS
10
       16.31
20
      640.63
11
       18.64
21
      640.56
39
 0
62
 3
 0
LINE
8
default
6
CONTINUOUS
10
      -16.31
20
      640.63
11
      -18.64
21
      640.56
39
 0
62
 1
 0
LINE
8
default
6
CONTINUOUS
10
       18.64
20
      640.56
11
       20.97
21
      640.49
39
 0
62
 3
 0
LINE
8
default
6
CONTINUOUS
10
      -18.64
20
      640.56
11
      -20.97
21
      640.49
39
 0
62
 1
 0
LINE
8
default
6
CONTINUOUS
10
       20.97
20
      640.49
11
       23.30
21
      640.41
39
 0
62
 3
 0
LINE
8
default
6
CONTINUOUS
10
      -20.97
20
      640.49
11
      -23.30
21
      640.41
39
 0
62
 1
 0
LINE
8
default
6
CONTINUOUS
10
       23.30
20
      640.41
11
       25.62
21
      640.33
39
 0
62
 3
 0
LINE
8
default
6
CONTINUOUS
10
      -23.30
20
      640.41
11
      -25.62
21
      640.33
39
 0
62
 1
 0
LINE
8
default
6
CONTINUOUS
10
       25.62
20
      640.33
11
       27.95
21
      640.23
39
 0
62
 3
 0
LINE
8
default
6
CONTINUOUS
10
      -25.62
20
      640.33
11
      -27.95
21
      640.23
39
 0
62
 1
 0
LINE
8
default
6
CONTINUOUS
10
       27.95
20
      640.23
11
       30.28
21
      640.12
39
 0
62
 3
 0
LINE
8
default
6
CONTINUOUS
10
      -27.95
20
      640.23
11
      -30.28
21
      640.12
39
 0
62
 1
 0
LINE
8
default
6
CONTINUOUS
10
       30.28
20
      640.12
11
       32.61
21
      640.01
39
 0
62
 3
 0
LINE
8
default
6
CONTINUOUS
10
      -30.28
20
      640.12
11
      -32.61
21
      640.01
39
 0
62
 1
 0
LINE
8
default
6
CONTINUOUS
10
       32.61
20
      640.01
11
       34.93
21
      639.89
39
 0
62
 3
 0
LINE
8
default
6
CONTINUOUS
10
      -32.61
20
      640.01
11
      -34.93
21
      639.89
39
 0
62
 1
 0
LINE
8
default
6
CONTINUOUS
10
       34.93
20
      639.89
11
       37.26
21
      639.76
39
 0
62
 3
 0
LINE
8
default
6
CONTINUOUS
10
      -34.93
20
      639.89
11
      -37.26
21
      639.76
39
 0
62
 1
 0
LINE
8
default
6
CONTINUOUS
10
       37.26
20
      639.76
11
       39.59
21
      639.62
39
 0
62
 3
 0
LINE
8
default
6
CONTINUOUS
10
      -37.26
20
      639.76
11
      -39.59
21
      639.62
39
 0
62
 1
 0
LINE
8
default
6
CONTINUOUS
10
       39.59
20
      639.62
11
       41.91
21
      639.48
39
 0
62
 3
 0
LINE
8
default
6
CONTINUOUS
10
      -39.59
20
      639.62
11
      -41.91
21
      639.48
39
 0
62
 1
 0
LINE
8
default
6
CONTINUOUS
10
       41.91
20
      639.48
11
       44.24
21
      639.32
39
 0
62
 3
 0
LINE
8
default
6
CONTINUOUS
10
      -41.91
20
      639.48
11
      -44.24
21
      639.32
39
 0
62
 1
 0
LINE
8
default
6
CONTINUOUS
10
       44.24
20
      639.32
11
       46.56
21
      639.16
39
 0
62
 3
 0
LINE
8
default
6
CONTINUOUS
10
      -44.24
20
      639.32
11
      -46.56
21
      639.16
39
 0
62
 1
 0
LINE
8
default
6
CONTINUOUS
10
       46.56
20
      639.16
11
       48.88
21
      638.99
39
 0
62
 3
 0
LINE
8
default
6
CONTINUOUS
10
      -46.56
20
      639.16
11
      -48.88
21
      638.99
39
 0
62
 1
 0
LINE
8
default
6
CONTINUOUS
10
       48.88
20
      638.99
11
       51.21
21
      638.81
39
 0
62
 3
 0
LINE
8
default
6
CONTINUOUS
10
      -48.88
20
      638.99
11
      -51.21
21
      638.81
39
 0
62
 1
 0
LINE
8
default
6
CONTINUOUS
10
       51.21
20
      638.81
11
       53.53
21
      638.62
39
 0
62
 3
 0
LINE
8
default
6
CONTINUOUS
10
      -51.21
20
      638.81
11
      -53.53
21
      638.62
39
 0
62
 1
 0
LINE
8
default
6
CONTINUOUS
10
       53.53
20
      638.62
11
       55.85
21
      638.43
39
 0
62
 3
 0
LINE
8
default
6
CONTINUOUS
10
      -53.53
20
      638.62
11
      -55.85
21
      638.43
39
 0
62
 1
 0
LINE
8
default
6
CONTINUOUS
10
       55.85
20
      638.43
11
       58.17
21
      638.22
39
 0
62
 3
 0
LINE
8
default
6
CONTINUOUS
10
      -55.85
20
      638.43
11
      -58.17
21
      638.22
39
 0
62
 1
 0
LINE
8
default
6
CONTINUOUS
10
       58.17
20
      638.22
11
       60.49
21
      638.01
39
 0
62
 3
 0
LINE
8
default
6
CONTINUOUS
10
      -58.17
20
      638.22
11
      -60.49
21
      638.01
39
 0
62
 1
 0
LINE
8
default
6
CONTINUOUS
10
       60.49
20
      638.01
11
       62.81
21
      637.79
39
 0
62
 3
 0
LINE
8
default
6
CONTINUOUS
10
      -60.49
20
      638.01
11
      -62.81
21
      637.79
39
 0
62
 1
 0
LINE
8
default
6
CONTINUOUS
10
       62.81
20
      637.79
11
       65.13
21
      637.56
39
 0
62
 3
 0
LINE
8
default
6
CONTINUOUS
10
      -62.81
20
      637.79
11
      -65.13
21
      637.56
39
 0
62
 1
 0
LINE
8
default
6
CONTINUOUS
10
       65.13
20
      637.56
11
       67.45
21
      637.32
39
 0
62
 3
 0
LINE
8
default
6
CONTINUOUS
10
      -65.13
20
      637.56
11
      -67.45
21
      637.32
39
 0
62
 1
 0
LINE
8
default
6
CONTINUOUS
10
       67.45
20
      637.32
11
       69.77
21
      637.07
39
 0
62
 3
 0
LINE
8
default
6
CONTINUOUS
10
      -67.45
20
      637.32
11
      -69.77
21
      637.07
39
 0
62
 1
 0
LINE
8
default
6
CONTINUOUS
10
       69.77
20
      637.07
11
       72.08
21
      636.82
39
 0
62
 3
 0
LINE
8
default
6
CONTINUOUS
10
      -69.77
20
      637.07
11
      -72.08
21
      636.82
39
 0
62
 1
 0
LINE
8
default
6
CONTINUOUS
10
       72.08
20
      636.82
11
       74.40
21
      636.56
39
 0
62
 3
 0
LINE
8
default
6
CONTINUOUS
10
      -72.08
20
      636.82
11
      -74.40
21
      636.56
39
 0
62
 1
 0
LINE
8
default
6
CONTINUOUS
10
       74.40
20
      636.56
11
       76.71
21
      636.28
39
 0
62
 3
 0
LINE
8
default
6
CONTINUOUS
10
      -74.40
20
      636.56
11
      -76.71
21
      636.28
39
 0
62
 1
 0
LINE
8
default
6
CONTINUOUS
10
       76.71
20
      636.28
11
       79.03
21
      636.01
39
 0
62
 3
 0
LINE
8
default
6
CONTINUOUS
10
      -76.71
20
      636.28
11
      -79.03
21
      636.01
39
 0
62
 1
 0
LINE
8
default
6
CONTINUOUS
10
       79.03
20
      636.01
11
       81.34
21
      635.72
39
 0
62
 3
 0
LINE
8
default
6
CONTINUOUS
10
      -79.03
20
      636.01
11
      -81.34
21
      635.72
39
 0
62
 1
 0
LINE
8
default
6
CONTINUOUS
10
       81.34
20
      635.72
11
       83.65
21
      635.42
39
 0
62
 3
 0
LINE
8
default
6
CONTINUOUS
10
      -81.34
20
      635.72
11
      -83.65
21
      635.42
39
 0
62
 1
 0
LINE
8
default
6
CONTINUOUS
10
       83.65
20
      635.42
11
       85.96
21
      635.12
39
 0
62
 3
 0
LINE
8
default
6
CONTINUOUS
10
      -83.65
20
      635.42
11
      -85.96
21
      635.12
39
 0
62
 1
 0
LINE
8
default
6
CONTINUOUS
10
       85.96
20
      635.12
11
       88.27
21
      634.80
39
 0
62
 3
 0
LINE
8
default
6
CONTINUOUS
10
      -85.96
20
      635.12
11
      -88.27
21
      634.80
39
 0
62
 1
 0
LINE
8
default
6
CONTINUOUS
10
       88.27
20
      634.80
11
       90.58
21
      634.48
39
 0
62
 3
 0
LINE
8
default
6
CONTINUOUS
10
      -88.27
20
      634.80
11
      -90.58
21
      634.48
39
 0
62
 1
 0
LINE
8
default
6
CONTINUOUS
10
       90.58
20
      634.48
11
       92.88
21
      634.16
39
 0
62
 3
 0
LINE
8
default
6
CONTINUOUS
10
      -90.58
20
      634.48
11
      -92.88
21
      634.16
39
 0
62
 1
 0
LINE
8
default
6
CONTINUOUS
10
       92.88
20
      634.16
11
       95.19
21
      633.82
39
 0
62
 3
 0
LINE
8
default
6
CONTINUOUS
10
      -92.88
20
      634.16
11
      -95.19
21
      633.82
39
 0
62
 1
 0
LINE
8
default
6
CONTINUOUS
10
       95.19
20
      633.82
11
       97.49
21
      633.47
39
 0
62
 3
 0
LINE
8
default
6
CONTINUOUS
10
      -95.19
20
      633.82
11
      -97.49
21
      633.47
39
 0
62
 1
 0
LINE
8
default
6
CONTINUOUS
10
       97.49
20
      633.47
11
       99.80
21
      633.12
39
 0
62
 3
 0
LINE
8
default
6
CONTINUOUS
10
      -97.49
20
      633.47
11
      -99.80
21
      633.12
39
 0
62
 1
 0
LINE
8
default
6
CONTINUOUS
10
       99.80
20
      633.12
11
      102.10
21
      632.76
39
 0
62
 3
 0
LINE
8
default
6
CONTINUOUS
10
      -99.80
20
      633.12
11
     -102.10
21
      632.76
39
 0
62
 1
 0
LINE
8
default
6
CONTINUOUS
10
      102.10
20
      632.76
11
      104.40
21
      632.39
39
 0
62
 3
 0
LINE
8
default
6
CONTINUOUS
10
     -102.10
20
      632.76
11
     -104.40
21
      632.39
39
 0
62
 1
 0
LINE
8
default
6
CONTINUOUS
10
      104.40
20
      632.39
11
      106.70
21
      632.01
39
 0
62
 3
 0
LINE
8
default
6
CONTINUOUS
10
     -104.40
20
      632.39
11
     -106.70
21
      632.01
39
 0
62
 1
 0
LINE
8
default
6
CONTINUOUS
10
      106.70
20
      632.01
11
      108.99
21
      631.62
39
 0
62
 3
 0
LINE
8
default
6
CONTINUOUS
10
     -106.70
20
      632.01
11
     -108.99
21
      631.62
39
 0
62
 1
 0
LINE
8
default
6
CONTINUOUS
10
      108.99
20
      631.62
11
      111.29
21
      631.22
39
 0
62
 3
 0
LINE
8
default
6
CONTINUOUS
10
     -108.99
20
      631.62
11
     -111.29
21
      631.22
39
 0
62
 1
 0
LINE
8
default
6
CONTINUOUS
10
      111.29
20
      631.22
11
      113.59
21
      630.82
39
 0
62
 3
 0
LINE
8
default
6
CONTINUOUS
10
     -111.29
20
      631.22
11
     -113.59
21
      630.82
39
 0
62
 1
 0
LINE
8
default
6
CONTINUOUS
10
      113.59
20
      630.82
11
      115.88
21
      630.41
39
 0
62
 3
 0
LINE
8
default
6
CONTINUOUS
10
     -113.59
20
      630.82
11
     -115.88
21
      630.41
39
 0
62
 1
 0
LINE
8
default
6
CONTINUOUS
10
      115.88
20
      630.41
11
      118.17
21
      629.99
39
 0
62
 3
 0
LINE
8
default
6
CONTINUOUS
10
     -115.88
20
      630.41
11
     -118.17
21
      629.99
39
 0
62
 1
 0
LINE
8
default
6
CONTINUOUS
10
      118.17
20
      629.99
11
      120.46
21
      629.56
39
 0
62
 3
 0
LINE
8
default
6
CONTINUOUS
10
     -118.17
20
      629.99
11
     -120.46
21
      629.56
39
 0
62
 1
 0
LINE
8
default
6
CONTINUOUS
10
      120.46
20
      629.56
11
      122.75
21
      629.13
39
 0
62
 3
 0
LINE
8
default
6
CONTINUOUS
10
     -120.46
20
      629.56
11
     -122.75
21
      629.13
39
 0
62
 1
 0
LINE
8
default
6
CONTINUOUS
10
      122.75
20
      629.13
11
      125.04
21
      628.68
39
 0
62
 3
 0
LINE
8
default
6
CONTINUOUS
10
     -122.75
20
      629.13
11
     -125.04
21
      628.68
39
 0
62
 1
 0
LINE
8
default
6
CONTINUOUS
10
      125.04
20
      628.68
11
      127.32
21
      628.23
39
 0
62
 3
 0
LINE
8
default
6
CONTINUOUS
10
     -125.04
20
      628.68
11
     -127.32
21
      628.23
39
 0
62
 1
 0
LINE
8
default
6
CONTINUOUS
10
      127.32
20
      628.23
11
      129.61
21
      627.77
39
 0
62
 3
 0
LINE
8
default
6
CONTINUOUS
10
     -127.32
20
      628.23
11
     -129.61
21
      627.77
39
 0
62
 1
 0
LINE
8
default
6
CONTINUOUS
10
      129.61
20
      627.77
11
      131.89
21
      627.30
39
 0
62
 3
 0
LINE
8
default
6
CONTINUOUS
10
     -129.61
20
      627.77
11
     -131.89
21
      627.30
39
 0
62
 1
 0
LINE
8
default
6
CONTINUOUS
10
      131.89
20
      627.30
11
      134.17
21
      626.82
39
 0
62
 3
 0
LINE
8
default
6
CONTINUOUS
10
     -131.89
20
      627.30
11
     -134.17
21
      626.82
39
 0
62
 1
 0
LINE
8
default
6
CONTINUOUS
10
      134.17
20
      626.82
11
      136.45
21
      626.34
39
 0
62
 3
 0
LINE
8
default
6
CONTINUOUS
10
     -134.17
20
      626.82
11
     -136.45
21
      626.34
39
 0
62
 1
 0
LINE
8
default
6
CONTINUOUS
10
      136.45
20
      626.34
11
      138.73
21
      625.84
39
 0
62
 3
 0
LINE
8
default
6
CONTINUOUS
10
     -136.45
20
      626.34
11
     -138.73
21
      625.84
39
 0
62
 1
 0
LINE
8
default
6
CONTINUOUS
10
      138.73
20
      625.84
11
      141.00
21
      625.34
39
 0
62
 3
 0
LINE
8
default
6
CONTINUOUS
10
     -138.73
20
      625.84
11
     -141.00
21
      625.34
39
 0
62
 1
 0
LINE
8
default
6
CONTINUOUS
10
      141.00
20
      625.34
11
      143.27
21
      624.83
39
 0
62
 3
 0
LINE
8
default
6
CONTINUOUS
10
     -141.00
20
      625.34
11
     -143.27
21
      624.83
39
 0
62
 1
 0
LINE
8
default
6
CONTINUOUS
10
      143.27
20
      624.83
11
      145.55
21
      624.31
39
 0
62
 3
 0
LINE
8
default
6
CONTINUOUS
10
     -143.27
20
      624.83
11
     -145.55
21
      624.31
39
 0
62
 1
 0
LINE
8
default
6
CONTINUOUS
10
      145.55
20
      624.31
11
      147.82
21
      623.79
39
 0
62
 3
 0
LINE
8
default
6
CONTINUOUS
10
     -145.55
20
      624.31
11
     -147.82
21
      623.79
39
 0
62
 1
 0
LINE
8
default
6
CONTINUOUS
10
      147.82
20
      623.79
11
      150.08
21
      623.25
39
 0
62
 3
 0
LINE
8
default
6
CONTINUOUS
10
     -147.82
20
      623.79
11
     -150.08
21
      623.25
39
 0
62
 1
 0
LINE
8
default
6
CONTINUOUS
10
      150.08
20
      623.25
11
      152.35
21
      622.71
39
 0
62
 3
 0
LINE
8
default
6
CONTINUOUS
10
     -150.08
20
      623.25
11
     -152.35
21
      622.71
39
 0
62
 1
 0
LINE
8
default
6
CONTINUOUS
10
      152.35
20
      622.71
11
      154.61
21
      622.16
39
 0
62
 3
 0
LINE
8
default
6
CONTINUOUS
10
     -152.35
20
      622.71
11
     -154.61
21
      622.16
39
 0
62
 1
 0
LINE
8
default
6
CONTINUOUS
10
      154.61
20
      622.16
11
      156.88
21
      621.60
39
 0
62
 3
 0
LINE
8
default
6
CONTINUOUS
10
     -154.61
20
      622.16
11
     -156.88
21
      621.60
39
 0
62
 1
 0
LINE
8
default
6
CONTINUOUS
10
      156.88
20
      621.60
11
      159.14
21
      621.03
39
 0
62
 3
 0
LINE
8
default
6
CONTINUOUS
10
     -156.88
20
      621.60
11
     -159.14
21
      621.03
39
 0
62
 1
 0
LINE
8
default
6
CONTINUOUS
10
      159.14
20
      621.03
11
      161.39
21
      620.46
39
 0
62
 3
 0
LINE
8
default
6
CONTINUOUS
10
     -159.14
20
      621.03
11
     -161.39
21
      620.46
39
 0
62
 1
 0
LINE
8
default
6
CONTINUOUS
10
      161.39
20
      620.46
11
      163.65
21
      619.88
39
 0
62
 3
 0
LINE
8
default
6
CONTINUOUS
10
     -161.39
20
      620.46
11
     -163.65
21
      619.88
39
 0
62
 1
 0
LINE
8
default
6
CONTINUOUS
10
      163.65
20
      619.88
11
      165.90
21
      619.28
39
 0
62
 3
 0
LINE
8
default
6
CONTINUOUS
10
     -163.65
20
      619.88
11
     -165.90
21
      619.28
39
 0
62
 1
 0
LINE
8
default
6
CONTINUOUS
10
      165.90
20
      619.28
11
      168.16
21
      618.68
39
 0
62
 3
 0
LINE
8
default
6
CONTINUOUS
10
     -165.90
20
      619.28
11
     -168.16
21
      618.68
39
 0
62
 1
 0
LINE
8
default
6
CONTINUOUS
10
      168.16
20
      618.68
11
      170.41
21
      618.08
39
 0
62
 3
 0
LINE
8
default
6
CONTINUOUS
10
     -168.16
20
      618.68
11
     -170.41
21
      618.08
39
 0
62
 1
 0
LINE
8
default
6
CONTINUOUS
10
      170.41
20
      618.08
11
      172.65
21
      617.46
39
 0
62
 3
 0
LINE
8
default
6
CONTINUOUS
10
     -170.41
20
      618.08
11
     -172.65
21
      617.46
39
 0
62
 1
 0
LINE
8
default
6
CONTINUOUS
10
      172.65
20
      617.46
11
      174.90
21
      616.84
39
 0
62
 3
 0
LINE
8
default
6
CONTINUOUS
10
     -172.65
20
      617.46
11
     -174.90
21
      616.84
39
 0
62
 1
 0
LINE
8
default
6
CONTINUOUS
10
      174.90
20
      616.84
11
      177.14
21
      616.21
39
 0
62
 3
 0
LINE
8
default
6
CONTINUOUS
10
     -174.90
20
      616.84
11
     -177.14
21
      616.21
39
 0
62
 1
 0
LINE
8
default
6
CONTINUOUS
10
      177.14
20
      616.21
11
      179.38
21
      615.57
39
 0
62
 3
 0
LINE
8
default
6
CONTINUOUS
10
     -177.14
20
      616.21
11
     -179.38
21
      615.57
39
 0
62
 1
 0
LINE
8
default
6
CONTINUOUS
10
      179.38
20
      615.57
11
      181.62
21
      614.92
39
 0
62
 3
 0
LINE
8
default
6
CONTINUOUS
10
     -179.38
20
      615.57
11
     -181.62
21
      614.92
39
 0
62
 1
 0
LINE
8
default
6
CONTINUOUS
10
      181.62
20
      614.92
11
      183.86
21
      614.26
39
 0
62
 3
 0
LINE
8
default
6
CONTINUOUS
10
     -181.62
20
      614.92
11
     -183.86
21
      614.26
39
 0
62
 1
 0
LINE
8
default
6
CONTINUOUS
10
      183.86
20
      614.26
11
      186.09
21
      613.60
39
 0
62
 3
 0
LINE
8
default
6
CONTINUOUS
10
     -183.86
20
      614.26
11
     -186.09
21
      613.60
39
 0
62
 1
 0
LINE
8
default
6
CONTINUOUS
10
      186.09
20
      613.60
11
      188.32
21
      612.93
39
 0
62
 3
 0
LINE
8
default
6
CONTINUOUS
10
     -186.09
20
      613.60
11
     -188.32
21
      612.93
39
 0
62
 1
 0
LINE
8
default
6
CONTINUOUS
10
      188.32
20
      612.93
11
      190.55
21
      612.25
39
 0
62
 3
 0
LINE
8
default
6
CONTINUOUS
10
     -188.32
20
      612.93
11
     -190.55
21
      612.25
39
 0
62
 1
 0
LINE
8
default
6
CONTINUOUS
10
      190.55
20
      612.25
11
      192.77
21
      611.56
39
 0
62
 3
 0
LINE
8
default
6
CONTINUOUS
10
     -190.55
20
      612.25
11
     -192.77
21
      611.56
39
 0
62
 1
 0
LINE
8
default
6
CONTINUOUS
10
      192.77
20
      611.56
11
      195.00
21
      610.87
39
 0
62
 3
 0
LINE
8
default
6
CONTINUOUS
10
     -192.77
20
      611.56
11
     -195.00
21
      610.87
39
 0
62
 1
 0
LINE
8
default
6
CONTINUOUS
10
      195.00
20
      610.87
11
      197.22
21
      610.16
39
 0
62
 3
 0
LINE
8
default
6
CONTINUOUS
10
     -195.00
20
      610.87
11
     -197.22
21
      610.16
39
 0
62
 1
 0
LINE
8
default
6
CONTINUOUS
10
      197.22
20
      610.16
11
      199.44
21
      609.45
39
 0
62
 3
 0
LINE
8
default
6
CONTINUOUS
10
     -197.22
20
      610.16
11
     -199.44
21
      609.45
39
 0
62
 1
 0
LINE
8
default
6
CONTINUOUS
10
      199.44
20
      609.45
11
      201.65
21
      608.73
39
 0
62
 3
 0
LINE
8
default
6
CONTINUOUS
10
     -199.44
20
      609.45
11
     -201.65
21
      608.73
39
 0
62
 1
 0
LINE
8
default
6
CONTINUOUS
10
      201.65
20
      608.73
11
      203.87
21
      608.00
39
 0
62
 3
 0
LINE
8
default
6
CONTINUOUS
10
     -201.65
20
      608.73
11
     -203.87
21
      608.00
39
 0
62
 1
 0
LINE
8
default
6
CONTINUOUS
10
      203.87
20
      608.00
11
      206.08
21
      607.27
39
 0
62
 3
 0
LINE
8
default
6
CONTINUOUS
10
     -203.87
20
      608.00
11
     -206.08
21
      607.27
39
 0
62
 1
 0
LINE
8
default
6
CONTINUOUS
10
      206.08
20
      607.27
11
      208.29
21
      606.53
39
 0
62
 3
 0
LINE
8
default
6
CONTINUOUS
10
     -206.08
20
      607.27
11
     -208.29
21
      606.53
39
 0
62
 1
 0
LINE
8
default
6
CONTINUOUS
10
      208.29
20
      606.53
11
      210.49
21
      605.77
39
 0
62
 3
 0
LINE
8
default
6
CONTINUOUS
10
     -208.29
20
      606.53
11
     -210.49
21
      605.77
39
 0
62
 1
 0
LINE
8
default
6
CONTINUOUS
10
      210.49
20
      605.77
11
      212.70
21
      605.02
39
 0
62
 3
 0
LINE
8
default
6
CONTINUOUS
10
     -210.49
20
      605.77
11
     -212.70
21
      605.02
39
 0
62
 1
 0
LINE
8
default
6
CONTINUOUS
10
      212.70
20
      605.02
11
      214.90
21
      604.25
39
 0
62
 3
 0
LINE
8
default
6
CONTINUOUS
10
     -212.70
20
      605.02
11
     -214.90
21
      604.25
39
 0
62
 1
 0
LINE
8
default
6
CONTINUOUS
10
      214.90
20
      604.25
11
      217.09
21
      603.47
39
 0
62
 3
 0
LINE
8
default
6
CONTINUOUS
10
     -214.90
20
      604.25
11
     -217.09
21
      603.47
39
 0
62
 1
 0
LINE
8
default
6
CONTINUOUS
10
      217.09
20
      603.47
11
      219.29
21
      602.69
39
 0
62
 3
 0
LINE
8
default
6
CONTINUOUS
10
     -217.09
20
      603.47
11
     -219.29
21
      602.69
39
 0
62
 1
 0
LINE
8
default
6
CONTINUOUS
10
      219.29
20
      602.69
11
      221.48
21
      601.90
39
 0
62
 3
 0
LINE
8
default
6
CONTINUOUS
10
     -219.29
20
      602.69
11
     -221.48
21
      601.90
39
 0
62
 1
 0
LINE
8
default
6
CONTINUOUS
10
      221.48
20
      601.90
11
      223.67
21
      601.10
39
 0
62
 3
 0
LINE
8
default
6
CONTINUOUS
10
     -221.48
20
      601.90
11
     -223.67
21
      601.10
39
 0
62
 1
 0
LINE
8
default
6
CONTINUOUS
10
      223.67
20
      601.10
11
      225.86
21
      600.29
39
 0
62
 3
 0
LINE
8
default
6
CONTINUOUS
10
     -223.67
20
      601.10
11
     -225.86
21
      600.29
39
 0
62
 1
 0
LINE
8
default
6
CONTINUOUS
10
      225.86
20
      600.29
11
      227.57
21
      599.65
39
 0
62
 3
 0
LINE
8
default
6
CONTINUOUS
10
     -225.86
20
      600.29
11
     -227.57
21
      599.65
39
 0
62
 1
 0
LINE
8
default
6
CONTINUOUS
10
      227.57
20
      599.65
11
      229.29
21
      599.01
39
 0
62
 3
 0
LINE
8
default
6
CONTINUOUS
10
     -227.57
20
      599.65
11
     -229.29
21
      599.01
39
 0
62
 1
 0
LINE
8
default
6
CONTINUOUS
10
      229.29
20
      599.01
11
      231.01
21
      598.35
39
 0
62
 3
 0
LINE
8
default
6
CONTINUOUS
10
     -229.29
20
      599.01
11
     -231.01
21
      598.35
39
 0
62
 1
 0
LINE
8
default
6
CONTINUOUS
10
      231.01
20
      598.35
11
      232.72
21
      597.69
39
 0
62
 3
 0
LINE
8
default
6
CONTINUOUS
10
     -231.01
20
      598.35
11
     -232.72
21
      597.69
39
 0
62
 1
 0
LINE
8
default
6
CONTINUOUS
10
      232.72
20
      597.69
11
      234.43
21
      597.02
39
 0
62
 3
 0
LINE
8
default
6
CONTINUOUS
10
     -232.72
20
      597.69
11
     -234.43
21
      597.02
39
 0
62
 1
 0
LINE
8
default
6
CONTINUOUS
10
      234.43
20
      597.02
11
      236.13
21
      596.35
39
 0
62
 3
 0
LINE
8
default
6
CONTINUOUS
10
     -234.43
20
      597.02
11
     -236.13
21
      596.35
39
 0
62
 1
 0
LINE
8
default
6
CONTINUOUS
10
      236.13
20
      596.35
11
      237.84
21
      595.67
39
 0
62
 3
 0
LINE
8
default
6
CONTINUOUS
10
     -236.13
20
      596.35
11
     -237.84
21
      595.67
39
 0
62
 1
 0
LINE
8
default
6
CONTINUOUS
10
      237.84
20
      595.67
11
      239.54
21
      594.98
39
 0
62
 3
 0
LINE
8
default
6
CONTINUOUS
10
     -237.84
20
      595.67
11
     -239.54
21
      594.98
39
 0
62
 1
 0
LINE
8
default
6
CONTINUOUS
10
      239.54
20
      594.98
11
      241.24
21
      594.29
39
 0
62
 3
 0
LINE
8
default
6
CONTINUOUS
10
     -239.54
20
      594.98
11
     -241.24
21
      594.29
39
 0
62
 1
 0
LINE
8
default
6
CONTINUOUS
10
      241.24
20
      594.29
11
      242.94
21
      593.59
39
 0
62
 3
 0
LINE
8
default
6
CONTINUOUS
10
     -241.24
20
      594.29
11
     -242.94
21
      593.59
39
 0
62
 1
 0
LINE
8
default
6
CONTINUOUS
10
      242.94
20
      593.59
11
      244.63
21
      592.89
39
 0
62
 3
 0
LINE
8
default
6
CONTINUOUS
10
     -242.94
20
      593.59
11
     -244.63
21
      592.89
39
 0
62
 1
 0
LINE
8
default
6
CONTINUOUS
10
      244.63
20
      592.89
11
      246.32
21
      592.17
39
 0
62
 3
 0
LINE
8
default
6
CONTINUOUS
10
     -244.63
20
      592.89
11
     -246.32
21
      592.17
39
 0
62
 1
 0
LINE
8
default
6
CONTINUOUS
10
      246.32
20
      592.17
11
      248.01
21
      591.45
39
 0
62
 3
 0
LINE
8
default
6
CONTINUOUS
10
     -246.32
20
      592.17
11
     -248.01
21
      591.45
39
 0
62
 1
 0
LINE
8
default
6
CONTINUOUS
10
      248.01
20
      591.45
11
      249.70
21
      590.73
39
 0
62
 3
 0
LINE
8
default
6
CONTINUOUS
10
     -248.01
20
      591.45
11
     -249.70
21
      590.73
39
 0
62
 1
 0
LINE
8
default
6
CONTINUOUS
10
      249.70
20
      590.73
11
      251.38
21
      590.00
39
 0
62
 3
 0
LINE
8
default
6
CONTINUOUS
10
     -249.70
20
      590.73
11
     -251.38
21
      590.00
39
 0
62
 1
 0
LINE
8
default
6
CONTINUOUS
10
      251.38
20
      590.00
11
      253.06
21
      589.26
39
 0
62
 3
 0
LINE
8
default
6
CONTINUOUS
10
     -251.38
20
      590.00
11
     -253.06
21
      589.26
39
 0
62
 1
 0
LINE
8
default
6
CONTINUOUS
10
      253.06
20
      589.26
11
      254.74
21
      588.52
39
 0
62
 3
 0
LINE
8
default
6
CONTINUOUS
10
     -253.06
20
      589.26
11
     -254.74
21
      588.52
39
 0
62
 1
 0
LINE
8
default
6
CONTINUOUS
10
      254.74
20
      588.52
11
      256.41
21
      587.77
39
 0
62
 3
 0
LINE
8
default
6
CONTINUOUS
10
     -254.74
20
      588.52
11
     -256.41
21
      587.77
39
 0
62
 1
 0
LINE
8
default
6
CONTINUOUS
10
      256.41
20
      587.77
11
      258.08
21
      587.01
39
 0
62
 3
 0
LINE
8
default
6
CONTINUOUS
10
     -256.41
20
      587.77
11
     -258.08
21
      587.01
39
 0
62
 1
 0
LINE
8
default
6
CONTINUOUS
10
      258.08
20
      587.01
11
      259.75
21
      586.25
39
 0
62
 3
 0
LINE
8
default
6
CONTINUOUS
10
     -258.08
20
      587.01
11
     -259.75
21
      586.25
39
 0
62
 1
 0
LINE
8
default
6
CONTINUOUS
10
      259.75
20
      586.25
11
      261.42
21
      585.48
39
 0
62
 3
 0
LINE
8
default
6
CONTINUOUS
10
     -259.75
20
      586.25
11
     -261.42
21
      585.48
39
 0
62
 1
 0
LINE
8
default
6
CONTINUOUS
10
      261.42
20
      585.48
11
      263.08
21
      584.70
39
 0
62
 3
 0
LINE
8
default
6
CONTINUOUS
10
     -261.42
20
      585.48
11
     -263.08
21
      584.70
39
 0
62
 1
 0
LINE
8
default
6
CONTINUOUS
10
      263.08
20
      584.70
11
      264.74
21
      583.92
39
 0
62
 3
 0
LINE
8
default
6
CONTINUOUS
10
     -263.08
20
      584.70
11
     -264.74
21
      583.92
39
 0
62
 1
 0
LINE
8
default
6
CONTINUOUS
10
      264.74
20
      583.92
11
      266.40
21
      583.14
39
 0
62
 3
 0
LINE
8
default
6
CONTINUOUS
10
     -264.74
20
      583.92
11
     -266.40
21
      583.14
39
 0
62
 1
 0
LINE
8
default
6
CONTINUOUS
10
      266.40
20
      583.14
11
      268.05
21
      582.34
39
 0
62
 3
 0
LINE
8
default
6
CONTINUOUS
10
     -266.40
20
      583.14
11
     -268.05
21
      582.34
39
 0
62
 1
 0
LINE
8
default
6
CONTINUOUS
10
      268.05
20
      582.34
11
      269.71
21
      581.54
39
 0
62
 3
 0
LINE
8
default
6
CONTINUOUS
10
     -268.05
20
      582.34
11
     -269.71
21
      581.54
39
 0
62
 1
 0
LINE
8
default
6
CONTINUOUS
10
      269.71
20
      581.54
11
      271.35
21
      580.73
39
 0
62
 3
 0
LINE
8
default
6
CONTINUOUS
10
     -269.71
20
      581.54
11
     -271.35
21
      580.73
39
 0
62
 1
 0
LINE
8
default
6
CONTINUOUS
10
      271.35
20
      580.73
11
      273.00
21
      579.92
39
 0
62
 3
 0
LINE
8
default
6
CONTINUOUS
10
     -271.35
20
      580.73
11
     -273.00
21
      579.92
39
 0
62
 1
 0
LINE
8
default
6
CONTINUOUS
10
      273.00
20
      579.92
11
      274.64
21
      579.10
39
 0
62
 3
 0
LINE
8
default
6
CONTINUOUS
10
     -273.00
20
      579.92
11
     -274.64
21
      579.10
39
 0
62
 1
 0
LINE
8
default
6
CONTINUOUS
10
      274.64
20
      579.10
11
      276.28
21
      578.28
39
 0
62
 3
 0
LINE
8
default
6
CONTINUOUS
10
     -274.64
20
      579.10
11
     -276.28
21
      578.28
39
 0
62
 1
 0
LINE
8
default
6
CONTINUOUS
10
      276.28
20
      578.28
11
      277.92
21
      577.45
39
 0
62
 3
 0
LINE
8
default
6
CONTINUOUS
10
     -276.28
20
      578.28
11
     -277.92
21
      577.45
39
 0
62
 1
 0
LINE
8
default
6
CONTINUOUS
10
      277.92
20
      577.45
11
      279.55
21
      576.61
39
 0
62
 3
 0
LINE
8
default
6
CONTINUOUS
10
     -277.92
20
      577.45
11
     -279.55
21
      576.61
39
 0
62
 1
 0
LINE
8
default
6
CONTINUOUS
10
      279.55
20
      576.61
11
      281.18
21
      575.77
39
 0
62
 3
 0
LINE
8
default
6
CONTINUOUS
10
     -279.55
20
      576.61
11
     -281.18
21
      575.77
39
 0
62
 1
 0
LINE
8
default
6
CONTINUOUS
10
      281.18
20
      575.77
11
      282.81
21
      574.92
39
 0
62
 3
 0
LINE
8
default
6
CONTINUOUS
10
     -281.18
20
      575.77
11
     -282.81
21
      574.92
39
 0
62
 1
 0
LINE
8
default
6
CONTINUOUS
10
      282.81
20
      574.92
11
      284.43
21
      574.06
39
 0
62
 3
 0
LINE
8
default
6
CONTINUOUS
10
     -282.81
20
      574.92
11
     -284.43
21
      574.06
39
 0
62
 1
 0
LINE
8
default
6
CONTINUOUS
10
      284.43
20
      574.06
11
      286.05
21
      573.20
39
 0
62
 3
 0
LINE
8
default
6
CONTINUOUS
10
     -284.43
20
      574.06
11
     -286.05
21
      573.20
39
 0
62
 1
 0
LINE
8
default
6
CONTINUOUS
10
      286.05
20
      573.20
11
      287.67
21
      572.33
39
 0
62
 3
 0
LINE
8
default
6
CONTINUOUS
10
     -286.05
20
      573.20
11
     -287.67
21
      572.33
39
 0
62
 1
 0
LINE
8
default
6
CONTINUOUS
10
      287.67
20
      572.33
11
      289.28
21
      571.46
39
 0
62
 3
 0
LINE
8
default
6
CONTINUOUS
10
     -287.67
20
      572.33
11
     -289.28
21
      571.46
39
 0
62
 1
 0
LINE
8
default
6
CONTINUOUS
10
      289.28
20
      571.46
11
      290.89
21
      570.58
39
 0
62
 3
 0
LINE
8
default
6
CONTINUOUS
10
     -289.28
20
      571.46
11
     -290.89
21
      570.58
39
 0
62
 1
 0
LINE
8
default
6
CONTINUOUS
10
      290.89
20
      570.58
11
      292.50
21
      569.69
39
 0
62
 3
 0
LINE
8
default
6
CONTINUOUS
10
     -290.89
20
      570.58
11
     -292.50
21
      569.69
39
 0
62
 1
 0
LINE
8
default
6
CONTINUOUS
10
      292.50
20
      569.69
11
      294.10
21
      568.80
39
 0
62
 3
 0
LINE
8
default
6
CONTINUOUS
10
     -292.50
20
      569.69
11
     -294.10
21
      568.80
39
 0
62
 1
 0
LINE
8
default
6
CONTINUOUS
10
      294.10
20
      568.80
11
      295.70
21
      567.90
39
 0
62
 3
 0
LINE
8
default
6
CONTINUOUS
10
     -294.10
20
      568.80
11
     -295.70
21
      567.90
39
 0
62
 1
 0
LINE
8
default
6
CONTINUOUS
10
      295.70
20
      567.90
11
      297.30
21
      567.00
39
 0
62
 3
 0
LINE
8
default
6
CONTINUOUS
10
     -295.70
20
      567.90
11
     -297.30
21
      567.00
39
 0
62
 1
 0
LINE
8
default
6
CONTINUOUS
10
      297.30
20
      567.00
11
      298.89
21
      566.09
39
 0
62
 3
 0
LINE
8
default
6
CONTINUOUS
10
     -297.30
20
      567.00
11
     -298.89
21
      566.09
39
 0
62
 1
 0
LINE
8
default
6
CONTINUOUS
10
      298.89
20
      566.09
11
      300.48
21
      565.17
39
 0
62
 3
 0
LINE
8
default
6
CONTINUOUS
10
     -298.89
20
      566.09
11
     -300.48
21
      565.17
39
 0
62
 1
 0
LINE
8
default
6
CONTINUOUS
10
      300.48
20
      565.17
11
      302.07
21
      564.25
39
 0
62
 3
 0
LINE
8
default
6
CONTINUOUS
10
     -300.48
20
      565.17
11
     -302.07
21
      564.25
39
 0
62
 1
 0
LINE
8
default
6
CONTINUOUS
10
      302.07
20
      564.25
11
      303.65
21
      563.32
39
 0
62
 3
 0
LINE
8
default
6
CONTINUOUS
10
     -302.07
20
      564.25
11
     -303.65
21
      563.32
39
 0
62
 1
 0
LINE
8
default
6
CONTINUOUS
10
      303.65
20
      563.32
11
      305.23
21
      562.38
39
 0
62
 3
 0
LINE
8
default
6
CONTINUOUS
10
     -303.65
20
      563.32
11
     -305.23
21
      562.38
39
 0
62
 1
 0
LINE
8
default
6
CONTINUOUS
10
      305.23
20
      562.38
11
      306.81
21
      561.44
39
 0
62
 3
 0
LINE
8
default
6
CONTINUOUS
10
     -305.23
20
      562.38
11
     -306.81
21
      561.44
39
 0
62
 1
 0
LINE
8
default
6
CONTINUOUS
10
      306.81
20
      561.44
11
      308.38
21
      560.50
39
 0
62
 3
 0
LINE
8
default
6
CONTINUOUS
10
     -306.81
20
      561.44
11
     -308.38
21
      560.50
39
 0
62
 1
 0
LINE
8
default
6
CONTINUOUS
10
      308.38
20
      560.50
11
      309.95
21
      559.55
39
 0
62
 3
 0
LINE
8
default
6
CONTINUOUS
10
     -308.38
20
      560.50
11
     -309.95
21
      559.55
39
 0
62
 1
 0
LINE
8
default
6
CONTINUOUS
10
      309.95
20
      559.55
11
      311.51
21
      558.59
39
 0
62
 3
 0
LINE
8
default
6
CONTINUOUS
10
     -309.95
20
      559.55
11
     -311.51
21
      558.59
39
 0
62
 1
 0
LINE
8
default
6
CONTINUOUS
10
      311.51
20
      558.59
11
      313.07
21
      557.62
39
 0
62
 3
 0
LINE
8
default
6
CONTINUOUS
10
     -311.51
20
      558.59
11
     -313.07
21
      557.62
39
 0
62
 1
 0
LINE
8
default
6
CONTINUOUS
10
      313.07
20
      557.62
11
      314.63
21
      556.66
39
 0
62
 3
 0
LINE
8
default
6
CONTINUOUS
10
     -313.07
20
      557.62
11
     -314.63
21
      556.66
39
 0
62
 1
 0
LINE
8
default
6
CONTINUOUS
10
      314.63
20
      556.66
11
      316.19
21
      555.68
39
 0
62
 3
 0
LINE
8
default
6
CONTINUOUS
10
     -314.63
20
      556.66
11
     -316.19
21
      555.68
39
 0
62
 1
 0
LINE
8
default
6
CONTINUOUS
10
      316.19
20
      555.68
11
      317.74
21
      554.70
39
 0
62
 3
 0
LINE
8
default
6
CONTINUOUS
10
     -316.19
20
      555.68
11
     -317.74
21
      554.70
39
 0
62
 1
 0
LINE
8
default
6
CONTINUOUS
10
      317.74
20
      554.70
11
      319.28
21
      553.71
39
 0
62
 3
 0
LINE
8
default
6
CONTINUOUS
10
     -317.74
20
      554.70
11
     -319.28
21
      553.71
39
 0
62
 1
 0
LINE
8
default
6
CONTINUOUS
10
      319.28
20
      553.71
11
      320.83
21
      552.72
39
 0
62
 3
 0
LINE
8
default
6
CONTINUOUS
10
     -319.28
20
      553.71
11
     -320.83
21
      552.72
39
 0
62
 1
 0
LINE
8
default
6
CONTINUOUS
10
      320.83
20
      552.72
11
      322.37
21
      551.72
39
 0
62
 3
 0
LINE
8
default
6
CONTINUOUS
10
     -320.83
20
      552.72
11
     -322.37
21
      551.72
39
 0
62
 1
 0
LINE
8
default
6
CONTINUOUS
10
      322.37
20
      551.72
11
      323.90
21
      550.71
39
 0
62
 3
 0
LINE
8
default
6
CONTINUOUS
10
     -322.37
20
      551.72
11
     -323.90
21
      550.71
39
 0
62
 1
 0
LINE
8
default
6
CONTINUOUS
10
      323.90
20
      550.71
11
      325.43
21
      549.70
39
 0
62
 3
 0
LINE
8
default
6
CONTINUOUS
10
     -323.90
20
      550.71
11
     -325.43
21
      549.70
39
 0
62
 1
 0
LINE
8
default
6
CONTINUOUS
10
      325.43
20
      549.70
11
      326.96
21
      548.69
39
 0
62
 3
 0
LINE
8
default
6
CONTINUOUS
10
     -325.43
20
      549.70
11
     -326.96
21
      548.69
39
 0
62
 1
 0
LINE
8
default
6
CONTINUOUS
10
      326.96
20
      548.69
11
      328.49
21
      547.67
39
 0
62
 3
 0
LINE
8
default
6
CONTINUOUS
10
     -326.96
20
      548.69
11
     -328.49
21
      547.67
39
 0
62
 1
 0
LINE
8
default
6
CONTINUOUS
10
      328.49
20
      547.67
11
      330.01
21
      546.64
39
 0
62
 3
 0
LINE
8
default
6
CONTINUOUS
10
     -328.49
20
      547.67
11
     -330.01
21
      546.64
39
 0
62
 1
 0
LINE
8
default
6
CONTINUOUS
10
      330.01
20
      546.64
11
      331.52
21
      545.61
39
 0
62
 3
 0
LINE
8
default
6
CONTINUOUS
10
     -330.01
20
      546.64
11
     -331.52
21
      545.61
39
 0
62
 1
 0
LINE
8
default
6
CONTINUOUS
10
      331.52
20
      545.61
11
      333.03
21
      544.57
39
 0
62
 3
 0
LINE
8
default
6
CONTINUOUS
10
     -331.52
20
      545.61
11
     -333.03
21
      544.57
39
 0
62
 1
 0
LINE
8
default
6
CONTINUOUS
10
      333.03
20
      544.57
11
      334.54
21
      543.52
39
 0
62
 3
 0
LINE
8
default
6
CONTINUOUS
10
     -333.03
20
      544.57
11
     -334.54
21
      543.52
39
 0
62
 1
 0
LINE
8
default
6
CONTINUOUS
10
      334.54
20
      543.52
11
      336.05
21
      542.47
39
 0
62
 3
 0
LINE
8
default
6
CONTINUOUS
10
     -334.54
20
      543.52
11
     -336.05
21
      542.47
39
 0
62
 1
 0
LINE
8
default
6
CONTINUOUS
10
      336.05
20
      542.47
11
      337.55
21
      541.42
39
 0
62
 3
 0
LINE
8
default
6
CONTINUOUS
10
     -336.05
20
      542.47
11
     -337.55
21
      541.42
39
 0
62
 1
 0
LINE
8
default
6
CONTINUOUS
10
      337.55
20
      541.42
11
      339.05
21
      540.35
39
 0
62
 3
 0
LINE
8
default
6
CONTINUOUS
10
     -337.55
20
      541.42
11
     -339.05
21
      540.35
39
 0
62
 1
 0
LINE
8
default
6
CONTINUOUS
10
      339.05
20
      540.35
11
      340.54
21
      539.29
39
 0
62
 3
 0
LINE
8
default
6
CONTINUOUS
10
     -339.05
20
      540.35
11
     -340.54
21
      539.29
39
 0
62
 1
 0
LINE
8
default
6
CONTINUOUS
10
      340.54
20
      539.29
11
      342.03
21
      538.21
39
 0
62
 3
 0
LINE
8
default
6
CONTINUOUS
10
     -340.54
20
      539.29
11
     -342.03
21
      538.21
39
 0
62
 1
 0
LINE
8
default
6
CONTINUOUS
10
      342.03
20
      538.21
11
      343.51
21
      537.13
39
 0
62
 3
 0
LINE
8
default
6
CONTINUOUS
10
     -342.03
20
      538.21
11
     -343.51
21
      537.13
39
 0
62
 1
 0
LINE
8
default
6
CONTINUOUS
10
      343.51
20
      537.13
11
      344.99
21
      536.05
39
 0
62
 3
 0
LINE
8
default
6
CONTINUOUS
10
     -343.51
20
      537.13
11
     -344.99
21
      536.05
39
 0
62
 1
 0
LINE
8
default
6
CONTINUOUS
10
      344.99
20
      536.05
11
      346.47
21
      534.96
39
 0
62
 3
 0
LINE
8
default
6
CONTINUOUS
10
     -344.99
20
      536.05
11
     -346.47
21
      534.96
39
 0
62
 1
 0
LINE
8
default
6
CONTINUOUS
10
      346.47
20
      534.96
11
      347.94
21
      533.87
39
 0
62
 3
 0
LINE
8
default
6
CONTINUOUS
10
     -346.47
20
      534.96
11
     -347.94
21
      533.87
39
 0
62
 1
 0
LINE
8
default
6
CONTINUOUS
10
      347.94
20
      533.87
11
      349.41
21
      532.76
39
 0
62
 3
 0
LINE
8
default
6
CONTINUOUS
10
     -347.94
20
      533.87
11
     -349.41
21
      532.76
39
 0
62
 1
 0
LINE
8
default
6
CONTINUOUS
10
      349.41
20
      532.76
11
      350.87
21
      531.66
39
 0
62
 3
 0
LINE
8
default
6
CONTINUOUS
10
     -349.41
20
      532.76
11
     -350.87
21
      531.66
39
 0
62
 1
 0
LINE
8
default
6
CONTINUOUS
10
      350.87
20
      531.66
11
      352.33
21
      530.55
39
 0
62
 3
 0
LINE
8
default
6
CONTINUOUS
10
     -350.87
20
      531.66
11
     -352.33
21
      530.55
39
 0
62
 1
 0
LINE
8
default
6
CONTINUOUS
10
      352.33
20
      530.55
11
      353.79
21
      529.43
39
 0
62
 3
 0
LINE
8
default
6
CONTINUOUS
10
     -352.33
20
      530.55
11
     -353.79
21
      529.43
39
 0
62
 1
 0
LINE
8
default
6
CONTINUOUS
10
      353.79
20
      529.43
11
      355.24
21
      528.31
39
 0
62
 3
 0
LINE
8
default
6
CONTINUOUS
10
     -353.79
20
      529.43
11
     -355.24
21
      528.31
39
 0
62
 1
 0
LINE
8
default
6
CONTINUOUS
10
      355.24
20
      528.31
11
      356.69
21
      527.18
39
 0
62
 3
 0
LINE
8
default
6
CONTINUOUS
10
     -355.24
20
      528.31
11
     -356.69
21
      527.18
39
 0
62
 1
 0
LINE
8
default
6
CONTINUOUS
10
      356.69
20
      527.18
11
      358.13
21
      526.04
39
 0
62
 3
 0
LINE
8
default
6
CONTINUOUS
10
     -356.69
20
      527.18
11
     -358.13
21
      526.04
39
 0
62
 1
 0
LINE
8
default
6
CONTINUOUS
10
      358.13
20
      526.04
11
      359.57
21
      524.91
39
 0
62
 3
 0
LINE
8
default
6
CONTINUOUS
10
     -358.13
20
      526.04
11
     -359.57
21
      524.91
39
 0
62
 1
 0
LINE
8
default
6
CONTINUOUS
10
      359.57
20
      524.91
11
      361.00
21
      523.76
39
 0
62
 3
 0
LINE
8
default
6
CONTINUOUS
10
     -359.57
20
      524.91
11
     -361.00
21
      523.76
39
 0
62
 1
 0
LINE
8
default
6
CONTINUOUS
10
      361.00
20
      523.76
11
      362.43
21
      522.61
39
 0
62
 3
 0
LINE
8
default
6
CONTINUOUS
10
     -361.00
20
      523.76
11
     -362.43
21
      522.61
39
 0
62
 1
 0
LINE
8
default
6
CONTINUOUS
10
      362.43
20
      522.61
11
      363.86
21
      521.46
39
 0
62
 3
 0
LINE
8
default
6
CONTINUOUS
10
     -362.43
20
      522.61
11
     -363.86
21
      521.46
39
 0
62
 1
 0
LINE
8
default
6
CONTINUOUS
10
      363.86
20
      521.46
11
      365.28
21
      520.30
39
 0
62
 3
 0
LINE
8
default
6
CONTINUOUS
10
     -363.86
20
      521.46
11
     -365.28
21
      520.30
39
 0
62
 1
 0
LINE
8
default
6
CONTINUOUS
10
      365.28
20
      520.30
11
      366.70
21
      519.13
39
 0
62
 3
 0
LINE
8
default
6
CONTINUOUS
10
     -365.28
20
      520.30
11
     -366.70
21
      519.13
39
 0
62
 1
 0
LINE
8
default
6
CONTINUOUS
10
      366.70
20
      519.13
11
      368.11
21
      517.96
39
 0
62
 3
 0
LINE
8
default
6
CONTINUOUS
10
     -366.70
20
      519.13
11
     -368.11
21
      517.96
39
 0
62
 1
 0
LINE
8
default
6
CONTINUOUS
10
      368.11
20
      517.96
11
      369.52
21
      516.78
39
 0
62
 3
 0
LINE
8
default
6
CONTINUOUS
10
     -368.11
20
      517.96
11
     -369.52
21
      516.78
39
 0
62
 1
 0
LINE
8
default
6
CONTINUOUS
10
      369.52
20
      516.78
11
      370.92
21
      515.60
39
 0
62
 3
 0
LINE
8
default
6
CONTINUOUS
10
     -369.52
20
      516.78
11
     -370.92
21
      515.60
39
 0
62
 1
 0
LINE
8
default
6
CONTINUOUS
10
      370.92
20
      515.60
11
      372.32
21
      514.41
39
 0
62
 3
 0
LINE
8
default
6
CONTINUOUS
10
     -370.92
20
      515.60
11
     -372.32
21
      514.41
39
 0
62
 1
 0
LINE
8
default
6
CONTINUOUS
10
      372.32
20
      514.41
11
      373.72
21
      513.22
39
 0
62
 3
 0
LINE
8
default
6
CONTINUOUS
10
     -372.32
20
      514.41
11
     -373.72
21
      513.22
39
 0
62
 1
 0
LINE
8
default
6
CONTINUOUS
10
      373.72
20
      513.22
11
      375.11
21
      512.02
39
 0
62
 3
 0
LINE
8
default
6
CONTINUOUS
10
     -373.72
20
      513.22
11
     -375.11
21
      512.02
39
 0
62
 1
 0
LINE
8
default
6
CONTINUOUS
10
      375.11
20
      512.02
11
      376.49
21
      510.82
39
 0
62
 3
 0
LINE
8
default
6
CONTINUOUS
10
     -375.11
20
      512.02
11
     -376.49
21
      510.82
39
 0
62
 1
 0
LINE
8
default
6
CONTINUOUS
10
      376.49
20
      510.82
11
      377.87
21
      509.61
39
 0
62
 3
 0
LINE
8
default
6
CONTINUOUS
10
     -376.49
20
      510.82
11
     -377.87
21
      509.61
39
 0
62
 1
 0
LINE
8
default
6
CONTINUOUS
10
      377.87
20
      509.61
11
      379.25
21
      508.40
39
 0
62
 3
 0
LINE
8
default
6
CONTINUOUS
10
     -377.87
20
      509.61
11
     -379.25
21
      508.40
39
 0
62
 1
 0
LINE
8
default
6
CONTINUOUS
10
      379.25
20
      508.40
11
      380.62
21
      507.18
39
 0
62
 3
 0
LINE
8
default
6
CONTINUOUS
10
     -379.25
20
      508.40
11
     -380.62
21
      507.18
39
 0
62
 1
 0
LINE
8
default
6
CONTINUOUS
10
      380.62
20
      507.18
11
      381.20
21
      506.66
39
 0
62
 3
 0
LINE
8
default
6
CONTINUOUS
10
     -380.62
20
      507.18
11
     -381.20
21
      506.66
39
 0
62
 1
 0
LINE
8
default
6
CONTINUOUS
10
      381.20
20
      506.66
11
      381.78
21
      506.14
39
 0
62
 3
 0
LINE
8
default
6
CONTINUOUS
10
     -381.20
20
      506.66
11
     -381.78
21
      506.14
39
 0
62
 1
 0
LINE
8
default
6
CONTINUOUS
10
      381.78
20
      506.14
11
      382.35
21
      505.62
39
 0
62
 3
 0
LINE
8
default
6
CONTINUOUS
10
     -381.78
20
      506.14
11
     -382.35
21
      505.62
39
 0
62
 1
 0
LINE
8
default
6
CONTINUOUS
10
      382.35
20
      505.62
11
      382.93
21
      505.10
39
 0
62
 3
 0
LINE
8
default
6
CONTINUOUS
10
     -382.35
20
      505.62
11
     -382.93
21
      505.10
39
 0
62
 1
 0
LINE
8
default
6
CONTINUOUS
10
      382.93
20
      505.10
11
      383.50
21
      504.57
39
 0
62
 3
 0
LINE
8
default
6
CONTINUOUS
10
     -382.93
20
      505.10
11
     -383.50
21
      504.57
39
 0
62
 1
 0
LINE
8
default
6
CONTINUOUS
10
      383.50
20
      504.57
11
      384.07
21
      504.04
39
 0
62
 3
 0
LINE
8
default
6
CONTINUOUS
10
     -383.50
20
      504.57
11
     -384.07
21
      504.04
39
 0
62
 1
 0
LINE
8
default
6
CONTINUOUS
10
      384.07
20
      504.04
11
      384.64
21
      503.51
39
 0
62
 3
 0
LINE
8
default
6
CONTINUOUS
10
     -384.07
20
      504.04
11
     -384.64
21
      503.51
39
 0
62
 1
 0
LINE
8
default
6
CONTINUOUS
10
      384.64
20
      503.51
11
      385.20
21
      502.98
39
 0
62
 3
 0
LINE
8
default
6
CONTINUOUS
10
     -384.64
20
      503.51
11
     -385.20
21
      502.98
39
 0
62
 1
 0
LINE
8
default
6
CONTINUOUS
10
      385.20
20
      502.98
11
      385.77
21
      502.45
39
 0
62
 3
 0
LINE
8
default
6
CONTINUOUS
10
     -385.20
20
      502.98
11
     -385.77
21
      502.45
39
 0
62
 1
 0
LINE
8
default
6
CONTINUOUS
10
      385.77
20
      502.45
11
      386.33
21
      501.92
39
 0
62
 3
 0
LINE
8
default
6
CONTINUOUS
10
     -385.77
20
      502.45
11
     -386.33
21
      501.92
39
 0
62
 1
 0
LINE
8
default
6
CONTINUOUS
10
      386.33
20
      501.92
11
      386.89
21
      501.38
39
 0
62
 3
 0
LINE
8
default
6
CONTINUOUS
10
     -386.33
20
      501.92
11
     -386.89
21
      501.38
39
 0
62
 1
 0
LINE
8
default
6
CONTINUOUS
10
      386.89
20
      501.38
11
      387.45
21
      500.84
39
 0
62
 3
 0
LINE
8
default
6
CONTINUOUS
10
     -386.89
20
      501.38
11
     -387.45
21
      500.84
39
 0
62
 1
 0
LINE
8
default
6
CONTINUOUS
10
      387.45
20
      500.84
11
      388.01
21
      500.30
39
 0
62
 3
 0
LINE
8
default
6
CONTINUOUS
10
     -387.45
20
      500.84
11
     -388.01
21
      500.30
39
 0
62
 1
 0
LINE
8
default
6
CONTINUOUS
10
      388.01
20
      500.30
11
      388.56
21
      499.76
39
 0
62
 3
 0
LINE
8
default
6
CONTINUOUS
10
     -388.01
20
      500.30
11
     -388.56
21
      499.76
39
 0
62
 1
 0
LINE
8
default
6
CONTINUOUS
10
      388.56
20
      499.76
11
      389.12
21
      499.21
39
 0
62
 3
 0
LINE
8
default
6
CONTINUOUS
10
     -388.56
20
      499.76
11
     -389.12
21
      499.21
39
 0
62
 1
 0
LINE
8
default
6
CONTINUOUS
10
      389.12
20
      499.21
11
      389.67
21
      498.67
39
 0
62
 3
 0
LINE
8
default
6
CONTINUOUS
10
     -389.12
20
      499.21
11
     -389.67
21
      498.67
39
 0
62
 1
 0
LINE
8
default
6
CONTINUOUS
10
      389.67
20
      498.67
11
      390.22
21
      498.12
39
 0
62
 3
 0
LINE
8
default
6
CONTINUOUS
10
     -389.67
20
      498.67
11
     -390.22
21
      498.12
39
 0
62
 1
 0
LINE
8
default
6
CONTINUOUS
10
      390.22
20
      498.12
11
      390.77
21
      497.57
39
 0
62
 3
 0
LINE
8
default
6
CONTINUOUS
10
     -390.22
20
      498.12
11
     -390.77
21
      497.57
39
 0
62
 1
 0
LINE
8
default
6
CONTINUOUS
10
      390.77
20
      497.57
11
      391.31
21
      497.02
39
 0
62
 3
 0
LINE
8
default
6
CONTINUOUS
10
     -390.77
20
      497.57
11
     -391.31
21
      497.02
39
 0
62
 1
 0
LINE
8
default
6
CONTINUOUS
10
      391.31
20
      497.02
11
      391.86
21
      496.47
39
 0
62
 3
 0
LINE
8
default
6
CONTINUOUS
10
     -391.31
20
      497.02
11
     -391.86
21
      496.47
39
 0
62
 1
 0
LINE
8
default
6
CONTINUOUS
10
      391.86
20
      496.47
11
      392.40
21
      495.91
39
 0
62
 3
 0
LINE
8
default
6
CONTINUOUS
10
     -391.86
20
      496.47
11
     -392.40
21
      495.91
39
 0
62
 1
 0
LINE
8
default
6
CONTINUOUS
10
      392.40
20
      495.91
11
      392.94
21
      495.36
39
 0
62
 3
 0
LINE
8
default
6
CONTINUOUS
10
     -392.40
20
      495.91
11
     -392.94
21
      495.36
39
 0
62
 1
 0
LINE
8
default
6
CONTINUOUS
10
      392.94
20
      495.36
11
      393.48
21
      494.80
39
 0
62
 3
 0
LINE
8
default
6
CONTINUOUS
10
     -392.94
20
      495.36
11
     -393.48
21
      494.80
39
 0
62
 1
 0
LINE
8
default
6
CONTINUOUS
10
      393.48
20
      494.80
11
      394.02
21
      494.24
39
 0
62
 3
 0
LINE
8
default
6
CONTINUOUS
10
     -393.48
20
      494.80
11
     -394.02
21
      494.24
39
 0
62
 1
 0
LINE
8
default
6
CONTINUOUS
10
      394.02
20
      494.24
11
      394.55
21
      493.67
39
 0
62
 3
 0
LINE
8
default
6
CONTINUOUS
10
     -394.02
20
      494.24
11
     -394.55
21
      493.67
39
 0
62
 1
 0
LINE
8
default
6
CONTINUOUS
10
      394.55
20
      493.67
11
      395.09
21
      493.11
39
 0
62
 3
 0
LINE
8
default
6
CONTINUOUS
10
     -394.55
20
      493.67
11
     -395.09
21
      493.11
39
 0
62
 1
 0
LINE
8
default
6
CONTINUOUS
10
      395.09
20
      493.11
11
      395.62
21
      492.54
39
 0
62
 3
 0
LINE
8
default
6
CONTINUOUS
10
     -395.09
20
      493.11
11
     -395.62
21
      492.54
39
 0
62
 1
 0
LINE
8
default
6
CONTINUOUS
10
      395.62
20
      492.54
11
      396.15
21
      491.98
39
 0
62
 3
 0
LINE
8
default
6
CONTINUOUS
10
     -395.62
20
      492.54
11
     -396.15
21
      491.98
39
 0
62
 1
 0
LINE
8
default
6
CONTINUOUS
10
      396.15
20
      491.98
11
      396.68
21
      491.41
39
 0
62
 3
 0
LINE
8
default
6
CONTINUOUS
10
     -396.15
20
      491.98
11
     -396.68
21
      491.41
39
 0
62
 1
 0
LINE
8
default
6
CONTINUOUS
10
      396.68
20
      491.41
11
      397.20
21
      490.84
39
 0
62
 3
 0
LINE
8
default
6
CONTINUOUS
10
     -396.68
20
      491.41
11
     -397.20
21
      490.84
39
 0
62
 1
 0
LINE
8
default
6
CONTINUOUS
10
      397.20
20
      490.84
11
      397.73
21
      490.26
39
 0
62
 3
 0
LINE
8
default
6
CONTINUOUS
10
     -397.20
20
      490.84
11
     -397.73
21
      490.26
39
 0
62
 1
 0
LINE
8
default
6
CONTINUOUS
10
      397.73
20
      490.26
11
      398.25
21
      489.69
39
 0
62
 3
 0
LINE
8
default
6
CONTINUOUS
10
     -397.73
20
      490.26
11
     -398.25
21
      489.69
39
 0
62
 1
 0
LINE
8
default
6
CONTINUOUS
10
      398.25
20
      489.69
11
      398.77
21
      489.11
39
 0
62
 3
 0
LINE
8
default
6
CONTINUOUS
10
     -398.25
20
      489.69
11
     -398.77
21
      489.11
39
 0
62
 1
 0
LINE
8
default
6
CONTINUOUS
10
      398.77
20
      489.11
11
      399.29
21
      488.53
39
 0
62
 3
 0
LINE
8
default
6
CONTINUOUS
10
     -398.77
20
      489.11
11
     -399.29
21
      488.53
39
 0
62
 1
 0
LINE
8
default
6
CONTINUOUS
10
      399.29
20
      488.53
11
      399.80
21
      487.95
39
 0
62
 3
 0
LINE
8
default
6
CONTINUOUS
10
     -399.29
20
      488.53
11
     -399.80
21
      487.95
39
 0
62
 1
 0
LINE
8
default
6
CONTINUOUS
10
      399.80
20
      487.95
11
      400.32
21
      487.37
39
 0
62
 3
 0
LINE
8
default
6
CONTINUOUS
10
     -399.80
20
      487.95
11
     -400.32
21
      487.37
39
 0
62
 1
 0
LINE
8
default
6
CONTINUOUS
10
      400.32
20
      487.37
11
      400.83
21
      486.79
39
 0
62
 3
 0
LINE
8
default
6
CONTINUOUS
10
     -400.32
20
      487.37
11
     -400.83
21
      486.79
39
 0
62
 1
 0
LINE
8
default
6
CONTINUOUS
10
      400.83
20
      486.79
11
      401.34
21
      486.20
39
 0
62
 3
 0
LINE
8
default
6
CONTINUOUS
10
     -400.83
20
      486.79
11
     -401.34
21
      486.20
39
 0
62
 1
 0
LINE
8
default
6
CONTINUOUS
10
      401.34
20
      486.20
11
      401.85
21
      485.62
39
 0
62
 3
 0
LINE
8
default
6
CONTINUOUS
10
     -401.34
20
      486.20
11
     -401.85
21
      485.62
39
 0
62
 1
 0
LINE
8
default
6
CONTINUOUS
10
      401.85
20
      485.62
11
      402.36
21
      485.03
39
 0
62
 3
 0
LINE
8
default
6
CONTINUOUS
10
     -401.85
20
      485.62
11
     -402.36
21
      485.03
39
 0
62
 1
 0
LINE
8
default
6
CONTINUOUS
10
      402.36
20
      485.03
11
      402.86
21
      484.44
39
 0
62
 3
 0
LINE
8
default
6
CONTINUOUS
10
     -402.36
20
      485.03
11
     -402.86
21
      484.44
39
 0
62
 1
 0
LINE
8
default
6
CONTINUOUS
10
      402.86
20
      484.44
11
      403.36
21
      483.85
39
 0
62
 3
 0
LINE
8
default
6
CONTINUOUS
10
     -402.86
20
      484.44
11
     -403.36
21
      483.85
39
 0
62
 1
 0
LINE
8
default
6
CONTINUOUS
10
      403.36
20
      483.85
11
      403.86
21
      483.26
39
 0
62
 3
 0
LINE
8
default
6
CONTINUOUS
10
     -403.36
20
      483.85
11
     -403.86
21
      483.26
39
 0
62
 1
 0
LINE
8
default
6
CONTINUOUS
10
      403.86
20
      483.26
11
      404.36
21
      482.66
39
 0
62
 3
 0
LINE
8
default
6
CONTINUOUS
10
     -403.86
20
      483.26
11
     -404.36
21
      482.66
39
 0
62
 1
 0
LINE
8
default
6
CONTINUOUS
10
      404.36
20
      482.66
11
      404.86
21
      482.06
39
 0
62
 3
 0
LINE
8
default
6
CONTINUOUS
10
     -404.36
20
      482.66
11
     -404.86
21
      482.06
39
 0
62
 1
 0
LINE
8
default
6
CONTINUOUS
10
      404.86
20
      482.06
11
      405.35
21
      481.47
39
 0
62
 3
 0
LINE
8
default
6
CONTINUOUS
10
     -404.86
20
      482.06
11
     -405.35
21
      481.47
39
 0
62
 1
 0
LINE
8
default
6
CONTINUOUS
10
      405.35
20
      481.47
11
      405.85
21
      480.87
39
 0
62
 3
 0
LINE
8
default
6
CONTINUOUS
10
     -405.35
20
      481.47
11
     -405.85
21
      480.87
39
 0
62
 1
 0
LINE
8
default
6
CONTINUOUS
10
      405.85
20
      480.87
11
      406.34
21
      480.26
39
 0
62
 3
 0
LINE
8
default
6
CONTINUOUS
10
     -405.85
20
      480.87
11
     -406.34
21
      480.26
39
 0
62
 1
 0
LINE
8
default
6
CONTINUOUS
10
      406.34
20
      480.26
11
      406.83
21
      479.66
39
 0
62
 3
 0
LINE
8
default
6
CONTINUOUS
10
     -406.34
20
      480.26
11
     -406.83
21
      479.66
39
 0
62
 1
 0
LINE
8
default
6
CONTINUOUS
10
      406.83
20
      479.66
11
      407.31
21
      479.06
39
 0
62
 3
 0
LINE
8
default
6
CONTINUOUS
10
     -406.83
20
      479.66
11
     -407.31
21
      479.06
39
 0
62
 1
 0
LINE
8
default
6
CONTINUOUS
10
      407.31
20
      479.06
11
      407.80
21
      478.45
39
 0
62
 3
 0
LINE
8
default
6
CONTINUOUS
10
     -407.31
20
      479.06
11
     -407.80
21
      478.45
39
 0
62
 1
 0
LINE
8
default
6
CONTINUOUS
10
      407.80
20
      478.45
11
      408.28
21
      477.84
39
 0
62
 3
 0
LINE
8
default
6
CONTINUOUS
10
     -407.80
20
      478.45
11
     -408.28
21
      477.84
39
 0
62
 1
 0
LINE
8
default
6
CONTINUOUS
10
      408.28
20
      477.84
11
      408.76
21
      477.23
39
 0
62
 3
 0
LINE
8
default
6
CONTINUOUS
10
     -408.28
20
      477.84
11
     -408.76
21
      477.23
39
 0
62
 1
 0
LINE
8
default
6
CONTINUOUS
10
      408.76
20
      477.23
11
      409.24
21
      476.62
39
 0
62
 3
 0
LINE
8
default
6
CONTINUOUS
10
     -408.76
20
      477.23
11
     -409.24
21
      476.62
39
 0
62
 1
 0
LINE
8
default
6
CONTINUOUS
10
      409.24
20
      476.62
11
      409.72
21
      476.01
39
 0
62
 3
 0
LINE
8
default
6
CONTINUOUS
10
     -409.24
20
      476.62
11
     -409.72
21
      476.01
39
 0
62
 1
 0
LINE
8
default
6
CONTINUOUS
10
      409.72
20
      476.01
11
      410.19
21
      475.39
39
 0
62
 3
 0
LINE
8
default
6
CONTINUOUS
10
     -409.72
20
      476.01
11
     -410.19
21
      475.39
39
 0
62
 1
 0
LINE
8
default
6
CONTINUOUS
10
      410.19
20
      475.39
11
      410.66
21
      474.78
39
 0
62
 3
 0
LINE
8
default
6
CONTINUOUS
10
     -410.19
20
      475.39
11
     -410.66
21
      474.78
39
 0
62
 1
 0
LINE
8
default
6
CONTINUOUS
10
      410.66
20
      474.78
11
      411.13
21
      474.16
39
 0
62
 3
 0
LINE
8
default
6
CONTINUOUS
10
     -410.66
20
      474.78
11
     -411.13
21
      474.16
39
 0
62
 1
 0
LINE
8
default
6
CONTINUOUS
10
      411.13
20
      474.16
11
      411.60
21
      473.54
39
 0
62
 3
 0
LINE
8
default
6
CONTINUOUS
10
     -411.13
20
      474.16
11
     -411.60
21
      473.54
39
 0
62
 1
 0
LINE
8
default
6
CONTINUOUS
10
      411.60
20
      473.54
11
      412.07
21
      472.92
39
 0
62
 3
 0
LINE
8
default
6
CONTINUOUS
10
     -411.60
20
      473.54
11
     -412.07
21
      472.92
39
 0
62
 1
 0
LINE
8
default
6
CONTINUOUS
10
      412.07
20
      472.92
11
      412.53
21
      472.30
39
 0
62
 3
 0
LINE
8
default
6
CONTINUOUS
10
     -412.07
20
      472.92
11
     -412.53
21
      472.30
39
 0
62
 1
 0
LINE
8
default
6
CONTINUOUS
10
      412.53
20
      472.30
11
      412.99
21
      471.67
39
 0
62
 3
 0
LINE
8
default
6
CONTINUOUS
10
     -412.53
20
      472.30
11
     -412.99
21
      471.67
39
 0
62
 1
 0
LINE
8
default
6
CONTINUOUS
10
      412.99
20
      471.67
11
      413.45
21
      471.05
39
 0
62
 3
 0
LINE
8
default
6
CONTINUOUS
10
     -412.99
20
      471.67
11
     -413.45
21
      471.05
39
 0
62
 1
 0
LINE
8
default
6
CONTINUOUS
10
      413.45
20
      471.05
11
      413.91
21
      470.42
39
 0
62
 3
 0
LINE
8
default
6
CONTINUOUS
10
     -413.45
20
      471.05
11
     -413.91
21
      470.42
39
 0
62
 1
 0
LINE
8
default
6
CONTINUOUS
10
      413.91
20
      470.42
11
      414.37
21
      469.79
39
 0
62
 3
 0
LINE
8
default
6
CONTINUOUS
10
     -413.91
20
      470.42
11
     -414.37
21
      469.79
39
 0
62
 1
 0
LINE
8
default
6
CONTINUOUS
10
      414.37
20
      469.79
11
      414.82
21
      469.16
39
 0
62
 3
 0
LINE
8
default
6
CONTINUOUS
10
     -414.37
20
      469.79
11
     -414.82
21
      469.16
39
 0
62
 1
 0
LINE
8
default
6
CONTINUOUS
10
      414.82
20
      469.16
11
      415.27
21
      468.53
39
 0
62
 3
 0
LINE
8
default
6
CONTINUOUS
10
     -414.82
20
      469.16
11
     -415.27
21
      468.53
39
 0
62
 1
 0
LINE
8
default
6
CONTINUOUS
10
      415.27
20
      468.53
11
      415.72
21
      467.90
39
 0
62
 3
 0
LINE
8
default
6
CONTINUOUS
10
     -415.27
20
      468.53
11
     -415.72
21
      467.90
39
 0
62
 1
 0
LINE
8
default
6
CONTINUOUS
10
      415.72
20
      467.90
11
      416.17
21
      467.26
39
 0
62
 3
 0
LINE
8
default
6
CONTINUOUS
10
     -415.72
20
      467.90
11
     -416.17
21
      467.26
39
 0
62
 1
 0
LINE
8
default
6
CONTINUOUS
10
      416.17
20
      467.26
11
      416.62
21
      466.63
39
 0
62
 3
 0
LINE
8
default
6
CONTINUOUS
10
     -416.17
20
      467.26
11
     -416.62
21
      466.63
39
 0
62
 1
 0
LINE
8
default
6
CONTINUOUS
10
      416.62
20
      466.63
11
      417.06
21
      465.99
39
 0
62
 3
 0
LINE
8
default
6
CONTINUOUS
10
     -416.62
20
      466.63
11
     -417.06
21
      465.99
39
 0
62
 1
 0
LINE
8
default
6
CONTINUOUS
10
      417.06
20
      465.99
11
      417.50
21
      465.35
39
 0
62
 3
 0
LINE
8
default
6
CONTINUOUS
10
     -417.06
20
      465.99
11
     -417.50
21
      465.35
39
 0
62
 1
 0
LINE
8
default
6
CONTINUOUS
10
      417.50
20
      465.35
11
      417.94
21
      464.71
39
 0
62
 3
 0
LINE
8
default
6
CONTINUOUS
10
     -417.50
20
      465.35
11
     -417.94
21
      464.71
39
 0
62
 1
 0
LINE
8
default
6
CONTINUOUS
10
      417.94
20
      464.71
11
      418.38
21
      464.07
39
 0
62
 3
 0
LINE
8
default
6
CONTINUOUS
10
     -417.94
20
      464.71
11
     -418.38
21
      464.07
39
 0
62
 1
 0
LINE
8
default
6
CONTINUOUS
10
      418.38
20
      464.07
11
      418.81
21
      463.42
39
 0
62
 3
 0
LINE
8
default
6
CONTINUOUS
10
     -418.38
20
      464.07
11
     -418.81
21
      463.42
39
 0
62
 1
 0
LINE
8
default
6
CONTINUOUS
10
      418.81
20
      463.42
11
      419.24
21
      462.78
39
 0
62
 3
 0
LINE
8
default
6
CONTINUOUS
10
     -418.81
20
      463.42
11
     -419.24
21
      462.78
39
 0
62
 1
 0
LINE
8
default
6
CONTINUOUS
10
      419.24
20
      462.78
11
      419.67
21
      462.13
39
 0
62
 3
 0
LINE
8
default
6
CONTINUOUS
10
     -419.24
20
      462.78
11
     -419.67
21
      462.13
39
 0
62
 1
 0
LINE
8
default
6
CONTINUOUS
10
      419.67
20
      462.13
11
      420.10
21
      461.49
39
 0
62
 3
 0
LINE
8
default
6
CONTINUOUS
10
     -419.67
20
      462.13
11
     -420.10
21
      461.49
39
 0
62
 1
 0
LINE
8
default
6
CONTINUOUS
10
      420.10
20
      461.49
11
      420.53
21
      460.84
39
 0
62
 3
 0
LINE
8
default
6
CONTINUOUS
10
     -420.10
20
      461.49
11
     -420.53
21
      460.84
39
 0
62
 1
 0
LINE
8
default
6
CONTINUOUS
10
      420.53
20
      460.84
11
      420.95
21
      460.19
39
 0
62
 3
 0
LINE
8
default
6
CONTINUOUS
10
     -420.53
20
      460.84
11
     -420.95
21
      460.19
39
 0
62
 1
 0
LINE
8
default
6
CONTINUOUS
10
      420.95
20
      460.19
11
      421.37
21
      459.53
39
 0
62
 3
 0
LINE
8
default
6
CONTINUOUS
10
     -420.95
20
      460.19
11
     -421.37
21
      459.53
39
 0
62
 1
 0
LINE
8
default
6
CONTINUOUS
10
      421.37
20
      459.53
11
      421.79
21
      458.88
39
 0
62
 3
 0
LINE
8
default
6
CONTINUOUS
10
     -421.37
20
      459.53
11
     -421.79
21
      458.88
39
 0
62
 1
 0
LINE
8
default
6
CONTINUOUS
10
      421.79
20
      458.88
11
      422.21
21
      458.23
39
 0
62
 3
 0
LINE
8
default
6
CONTINUOUS
10
     -421.79
20
      458.88
11
     -422.21
21
      458.23
39
 0
62
 1
 0
LINE
8
default
6
CONTINUOUS
10
      422.21
20
      458.23
11
      422.62
21
      457.57
39
 0
62
 3
 0
LINE
8
default
6
CONTINUOUS
10
     -422.21
20
      458.23
11
     -422.62
21
      457.57
39
 0
62
 1
 0
LINE
8
default
6
CONTINUOUS
10
      422.62
20
      457.57
11
      423.04
21
      456.91
39
 0
62
 3
 0
LINE
8
default
6
CONTINUOUS
10
     -422.62
20
      457.57
11
     -423.04
21
      456.91
39
 0
62
 1
 0
LINE
8
default
6
CONTINUOUS
10
      423.04
20
      456.91
11
      423.45
21
      456.25
39
 0
62
 3
 0
LINE
8
default
6
CONTINUOUS
10
     -423.04
20
      456.91
11
     -423.45
21
      456.25
39
 0
62
 1
 0
LINE
8
default
6
CONTINUOUS
10
      423.45
20
      456.25
11
      423.86
21
      455.59
39
 0
62
 3
 0
LINE
8
default
6
CONTINUOUS
10
     -423.45
20
      456.25
11
     -423.86
21
      455.59
39
 0
62
 1
 0
LINE
8
default
6
CONTINUOUS
10
      423.86
20
      455.59
11
      424.26
21
      454.93
39
 0
62
 3
 0
LINE
8
default
6
CONTINUOUS
10
     -423.86
20
      455.59
11
     -424.26
21
      454.93
39
 0
62
 1
 0
LINE
8
default
6
CONTINUOUS
10
      424.26
20
      454.93
11
      424.67
21
      454.27
39
 0
62
 3
 0
LINE
8
default
6
CONTINUOUS
10
     -424.26
20
      454.93
11
     -424.67
21
      454.27
39
 0
62
 1
 0
LINE
8
default
6
CONTINUOUS
10
      424.67
20
      454.27
11
      425.07
21
      453.61
39
 0
62
 3
 0
LINE
8
default
6
CONTINUOUS
10
     -424.67
20
      454.27
11
     -425.07
21
      453.61
39
 0
62
 1
 0
LINE
8
default
6
CONTINUOUS
10
      425.07
20
      453.61
11
      425.47
21
      452.94
39
 0
62
 3
 0
LINE
8
default
6
CONTINUOUS
10
     -425.07
20
      453.61
11
     -425.47
21
      452.94
39
 0
62
 1
 0
LINE
8
default
6
CONTINUOUS
10
      425.47
20
      452.94
11
      425.87
21
      452.27
39
 0
62
 3
 0
LINE
8
default
6
CONTINUOUS
10
     -425.47
20
      452.94
11
     -425.87
21
      452.27
39
 0
62
 1
 0
LINE
8
default
6
CONTINUOUS
10
      425.87
20
      452.27
11
      426.26
21
      451.60
39
 0
62
 3
 0
LINE
8
default
6
CONTINUOUS
10
     -425.87
20
      452.27
11
     -426.26
21
      451.60
39
 0
62
 1
 0
LINE
8
default
6
CONTINUOUS
10
      426.26
20
      451.60
11
      426.65
21
      450.94
39
 0
62
 3
 0
LINE
8
default
6
CONTINUOUS
10
     -426.26
20
      451.60
11
     -426.65
21
      450.94
39
 0
62
 1
 0
LINE
8
default
6
CONTINUOUS
10
      426.65
20
      450.94
11
      427.04
21
      450.26
39
 0
62
 3
 0
LINE
8
default
6
CONTINUOUS
10
     -426.65
20
      450.94
11
     -427.04
21
      450.26
39
 0
62
 1
 0
LINE
8
default
6
CONTINUOUS
10
      427.04
20
      450.26
11
      427.43
21
      449.59
39
 0
62
 3
 0
LINE
8
default
6
CONTINUOUS
10
     -427.04
20
      450.26
11
     -427.43
21
      449.59
39
 0
62
 1
 0
LINE
8
default
6
CONTINUOUS
10
      427.43
20
      449.59
11
      427.82
21
      448.92
39
 0
62
 3
 0
LINE
8
default
6
CONTINUOUS
10
     -427.43
20
      449.59
11
     -427.82
21
      448.92
39
 0
62
 1
 0
LINE
8
default
6
CONTINUOUS
10
      427.82
20
      448.92
11
      428.20
21
      448.24
39
 0
62
 3
 0
LINE
8
default
6
CONTINUOUS
10
     -427.82
20
      448.92
11
     -428.20
21
      448.24
39
 0
62
 1
 0
LINE
8
default
6
CONTINUOUS
10
      428.20
20
      448.24
11
      428.59
21
      447.57
39
 0
62
 3
 0
LINE
8
default
6
CONTINUOUS
10
     -428.20
20
      448.24
11
     -428.59
21
      447.57
39
 0
62
 1
 0
LINE
8
default
6
CONTINUOUS
10
      428.59
20
      447.57
11
      428.83
21
      447.13
39
 0
62
 3
 0
LINE
8
default
6
CONTINUOUS
10
     -428.59
20
      447.57
11
     -428.83
21
      447.13
39
 0
62
 1
 0
LINE
8
default
6
CONTINUOUS
10
      428.83
20
      447.13
11
      429.07
21
      446.69
39
 0
62
 3
 0
LINE
8
default
6
CONTINUOUS
10
     -428.83
20
      447.13
11
     -429.07
21
      446.69
39
 0
62
 1
 0
LINE
8
default
6
CONTINUOUS
10
      429.07
20
      446.69
11
      429.31
21
      446.25
39
 0
62
 3
 0
LINE
8
default
6
CONTINUOUS
10
     -429.07
20
      446.69
11
     -429.31
21
      446.25
39
 0
62
 1
 0
LINE
8
default
6
CONTINUOUS
10
      429.31
20
      446.25
11
      429.55
21
      445.81
39
 0
62
 3
 0
LINE
8
default
6
CONTINUOUS
10
     -429.31
20
      446.25
11
     -429.55
21
      445.81
39
 0
62
 1
 0
LINE
8
default
6
CONTINUOUS
10
      429.55
20
      445.81
11
      429.79
21
      445.36
39
 0
62
 3
 0
LINE
8
default
6
CONTINUOUS
10
     -429.55
20
      445.81
11
     -429.79
21
      445.36
39
 0
62
 1
 0
LINE
8
default
6
CONTINUOUS
10
      429.79
20
      445.36
11
      430.02
21
      444.92
39
 0
62
 3
 0
LINE
8
default
6
CONTINUOUS
10
     -429.79
20
      445.36
11
     -430.02
21
      444.92
39
 0
62
 1
 0
LINE
8
default
6
CONTINUOUS
10
      430.02
20
      444.92
11
      430.26
21
      444.47
39
 0
62
 3
 0
LINE
8
default
6
CONTINUOUS
10
     -430.02
20
      444.92
11
     -430.26
21
      444.47
39
 0
62
 1
 0
LINE
8
default
6
CONTINUOUS
10
      430.26
20
      444.47
11
      430.49
21
      444.02
39
 0
62
 3
 0
LINE
8
default
6
CONTINUOUS
10
     -430.26
20
      444.47
11
     -430.49
21
      444.02
39
 0
62
 1
 0
LINE
8
default
6
CONTINUOUS
10
      430.49
20
      444.02
11
      430.71
21
      443.57
39
 0
62
 3
 0
LINE
8
default
6
CONTINUOUS
10
     -430.49
20
      444.02
11
     -430.71
21
      443.57
39
 0
62
 1
 0
LINE
8
default
6
CONTINUOUS
10
      430.71
20
      443.57
11
      430.94
21
      443.12
39
 0
62
 3
 0
LINE
8
default
6
CONTINUOUS
10
     -430.71
20
      443.57
11
     -430.94
21
      443.12
39
 0
62
 1
 0
LINE
8
default
6
CONTINUOUS
10
      430.94
20
      443.12
11
      431.16
21
      442.67
39
 0
62
 3
 0
LINE
8
default
6
CONTINUOUS
10
     -430.94
20
      443.12
11
     -431.16
21
      442.67
39
 0
62
 1
 0
LINE
8
default
6
CONTINUOUS
10
      431.16
20
      442.67
11
      431.38
21
      442.22
39
 0
62
 3
 0
LINE
8
default
6
CONTINUOUS
10
     -431.16
20
      442.67
11
     -431.38
21
      442.22
39
 0
62
 1
 0
LINE
8
default
6
CONTINUOUS
10
      431.38
20
      442.22
11
      431.60
21
      441.77
39
 0
62
 3
 0
LINE
8
default
6
CONTINUOUS
10
     -431.38
20
      442.22
11
     -431.60
21
      441.77
39
 0
62
 1
 0
LINE
8
default
6
CONTINUOUS
10
      431.60
20
      441.77
11
      431.82
21
      441.32
39
 0
62
 3
 0
LINE
8
default
6
CONTINUOUS
10
     -431.60
20
      441.77
11
     -431.82
21
      441.32
39
 0
62
 1
 0
LINE
8
default
6
CONTINUOUS
10
      431.82
20
      441.32
11
      432.03
21
      440.86
39
 0
62
 3
 0
LINE
8
default
6
CONTINUOUS
10
     -431.82
20
      441.32
11
     -432.03
21
      440.86
39
 0
62
 1
 0
LINE
8
default
6
CONTINUOUS
10
      432.03
20
      440.86
11
      432.25
21
      440.40
39
 0
62
 3
 0
LINE
8
default
6
CONTINUOUS
10
     -432.03
20
      440.86
11
     -432.25
21
      440.40
39
 0
62
 1
 0
LINE
8
default
6
CONTINUOUS
10
      432.25
20
      440.40
11
      432.46
21
      439.95
39
 0
62
 3
 0
LINE
8
default
6
CONTINUOUS
10
     -432.25
20
      440.40
11
     -432.46
21
      439.95
39
 0
62
 1
 0
LINE
8
default
6
CONTINUOUS
10
      432.46
20
      439.95
11
      432.66
21
      439.49
39
 0
62
 3
 0
LINE
8
default
6
CONTINUOUS
10
     -432.46
20
      439.95
11
     -432.66
21
      439.49
39
 0
62
 1
 0
LINE
8
default
6
CONTINUOUS
10
      432.66
20
      439.49
11
      432.87
21
      439.03
39
 0
62
 3
 0
LINE
8
default
6
CONTINUOUS
10
     -432.66
20
      439.49
11
     -432.87
21
      439.03
39
 0
62
 1
 0
LINE
8
default
6
CONTINUOUS
10
      432.87
20
      439.03
11
      433.07
21
      438.57
39
 0
62
 3
 0
LINE
8
default
6
CONTINUOUS
10
     -432.87
20
      439.03
11
     -433.07
21
      438.57
39
 0
62
 1
 0
LINE
8
default
6
CONTINUOUS
10
      433.07
20
      438.57
11
      433.27
21
      438.11
39
 0
62
 3
 0
LINE
8
default
6
CONTINUOUS
10
     -433.07
20
      438.57
11
     -433.27
21
      438.11
39
 0
62
 1
 0
LINE
8
default
6
CONTINUOUS
10
      433.27
20
      438.11
11
      433.47
21
      437.65
39
 0
62
 3
 0
LINE
8
default
6
CONTINUOUS
10
     -433.27
20
      438.11
11
     -433.47
21
      437.65
39
 0
62
 1
 0
LINE
8
default
6
CONTINUOUS
10
      433.47
20
      437.65
11
      433.67
21
      437.18
39
 0
62
 3
 0
LINE
8
default
6
CONTINUOUS
10
     -433.47
20
      437.65
11
     -433.67
21
      437.18
39
 0
62
 1
 0
LINE
8
default
6
CONTINUOUS
10
      433.67
20
      437.18
11
      433.86
21
      436.72
39
 0
62
 3
 0
LINE
8
default
6
CONTINUOUS
10
     -433.67
20
      437.18
11
     -433.86
21
      436.72
39
 0
62
 1
 0
LINE
8
default
6
CONTINUOUS
10
      433.86
20
      436.72
11
      434.05
21
      436.25
39
 0
62
 3
 0
LINE
8
default
6
CONTINUOUS
10
     -433.86
20
      436.72
11
     -434.05
21
      436.25
39
 0
62
 1
 0
LINE
8
default
6
CONTINUOUS
10
      434.05
20
      436.25
11
      434.24
21
      435.79
39
 0
62
 3
 0
LINE
8
default
6
CONTINUOUS
10
     -434.05
20
      436.25
11
     -434.24
21
      435.79
39
 0
62
 1
 0
LINE
8
default
6
CONTINUOUS
10
      434.24
20
      435.79
11
      434.43
21
      435.32
39
 0
62
 3
 0
LINE
8
default
6
CONTINUOUS
10
     -434.24
20
      435.79
11
     -434.43
21
      435.32
39
 0
62
 1
 0
LINE
8
default
6
CONTINUOUS
10
      434.43
20
      435.32
11
      434.61
21
      434.85
39
 0
62
 3
 0
LINE
8
default
6
CONTINUOUS
10
     -434.43
20
      435.32
11
     -434.61
21
      434.85
39
 0
62
 1
 0
LINE
8
default
6
CONTINUOUS
10
      434.61
20
      434.85
11
      434.79
21
      434.38
39
 0
62
 3
 0
LINE
8
default
6
CONTINUOUS
10
     -434.61
20
      434.85
11
     -434.79
21
      434.38
39
 0
62
 1
 0
LINE
8
default
6
CONTINUOUS
10
      434.79
20
      434.38
11
      434.97
21
      433.91
39
 0
62
 3
 0
LINE
8
default
6
CONTINUOUS
10
     -434.79
20
      434.38
11
     -434.97
21
      433.91
39
 0
62
 1
 0
LINE
8
default
6
CONTINUOUS
10
      434.97
20
      433.91
11
      435.15
21
      433.44
39
 0
62
 3
 0
LINE
8
default
6
CONTINUOUS
10
     -434.97
20
      433.91
11
     -435.15
21
      433.44
39
 0
62
 1
 0
LINE
8
default
6
CONTINUOUS
10
      435.15
20
      433.44
11
      435.32
21
      432.97
39
 0
62
 3
 0
LINE
8
default
6
CONTINUOUS
10
     -435.15
20
      433.44
11
     -435.32
21
      432.97
39
 0
62
 1
 0
LINE
8
default
6
CONTINUOUS
10
      435.32
20
      432.97
11
      435.50
21
      432.50
39
 0
62
 3
 0
LINE
8
default
6
CONTINUOUS
10
     -435.32
20
      432.97
11
     -435.50
21
      432.50
39
 0
62
 1
 0
LINE
8
default
6
CONTINUOUS
10
      435.50
20
      432.50
11
      435.67
21
      432.02
39
 0
62
 3
 0
LINE
8
default
6
CONTINUOUS
10
     -435.50
20
      432.50
11
     -435.67
21
      432.02
39
 0
62
 1
 0
LINE
8
default
6
CONTINUOUS
10
      435.67
20
      432.02
11
      435.83
21
      431.55
39
 0
62
 3
 0
LINE
8
default
6
CONTINUOUS
10
     -435.67
20
      432.02
11
     -435.83
21
      431.55
39
 0
62
 1
 0
LINE
8
default
6
CONTINUOUS
10
      435.83
20
      431.55
11
      436.00
21
      431.07
39
 0
62
 3
 0
LINE
8
default
6
CONTINUOUS
10
     -435.83
20
      431.55
11
     -436.00
21
      431.07
39
 0
62
 1
 0
LINE
8
default
6
CONTINUOUS
10
      436.00
20
      431.07
11
      436.16
21
      430.60
39
 0
62
 3
 0
LINE
8
default
6
CONTINUOUS
10
     -436.00
20
      431.07
11
     -436.16
21
      430.60
39
 0
62
 1
 0
LINE
8
default
6
CONTINUOUS
10
      436.16
20
      430.60
11
      436.32
21
      430.12
39
 0
62
 3
 0
LINE
8
default
6
CONTINUOUS
10
     -436.16
20
      430.60
11
     -436.32
21
      430.12
39
 0
62
 1
 0
LINE
8
default
6
CONTINUOUS
10
      436.32
20
      430.12
11
      436.48
21
      429.65
39
 0
62
 3
 0
LINE
8
default
6
CONTINUOUS
10
     -436.32
20
      430.12
11
     -436.48
21
      429.65
39
 0
62
 1
 0
LINE
8
default
6
CONTINUOUS
10
      436.48
20
      429.65
11
      436.64
21
      429.17
39
 0
62
 3
 0
LINE
8
default
6
CONTINUOUS
10
     -436.48
20
      429.65
11
     -436.64
21
      429.17
39
 0
62
 1
 0
LINE
8
default
6
CONTINUOUS
10
      436.64
20
      429.17
11
      436.79
21
      428.69
39
 0
62
 3
 0
LINE
8
default
6
CONTINUOUS
10
     -436.64
20
      429.17
11
     -436.79
21
      428.69
39
 0
62
 1
 0
LINE
8
default
6
CONTINUOUS
10
      436.79
20
      428.69
11
      436.94
21
      428.21
39
 0
62
 3
 0
LINE
8
default
6
CONTINUOUS
10
     -436.79
20
      428.69
11
     -436.94
21
      428.21
39
 0
62
 1
 0
LINE
8
default
6
CONTINUOUS
10
      436.94
20
      428.21
11
      437.09
21
      427.73
39
 0
62
 3
 0
LINE
8
default
6
CONTINUOUS
10
     -436.94
20
      428.21
11
     -437.09
21
      427.73
39
 0
62
 1
 0
LINE
8
default
6
CONTINUOUS
10
      437.09
20
      427.73
11
      437.24
21
      427.25
39
 0
62
 3
 0
LINE
8
default
6
CONTINUOUS
10
     -437.09
20
      427.73
11
     -437.24
21
      427.25
39
 0
62
 1
 0
LINE
8
default
6
CONTINUOUS
10
      437.24
20
      427.25
11
      437.38
21
      426.76
39
 0
62
 3
 0
LINE
8
default
6
CONTINUOUS
10
     -437.24
20
      427.25
11
     -437.38
21
      426.76
39
 0
62
 1
 0
LINE
8
default
6
CONTINUOUS
10
      437.38
20
      426.76
11
      437.52
21
      426.28
39
 0
62
 3
 0
LINE
8
default
6
CONTINUOUS
10
     -437.38
20
      426.76
11
     -437.52
21
      426.28
39
 0
62
 1
 0
LINE
8
default
6
CONTINUOUS
10
      437.52
20
      426.28
11
      437.66
21
      425.80
39
 0
62
 3
 0
LINE
8
default
6
CONTINUOUS
10
     -437.52
20
      426.28
11
     -437.66
21
      425.80
39
 0
62
 1
 0
LINE
8
default
6
CONTINUOUS
10
      437.66
20
      425.80
11
      437.80
21
      425.31
39
 0
62
 3
 0
LINE
8
default
6
CONTINUOUS
10
     -437.66
20
      425.80
11
     -437.80
21
      425.31
39
 0
62
 1
 0
LINE
8
default
6
CONTINUOUS
10
      437.80
20
      425.31
11
      437.93
21
      424.83
39
 0
62
 3
 0
LINE
8
default
6
CONTINUOUS
10
     -437.80
20
      425.31
11
     -437.93
21
      424.83
39
 0
62
 1
 0
LINE
8
default
6
CONTINUOUS
10
      437.93
20
      424.83
11
      438.06
21
      424.34
39
 0
62
 3
 0
LINE
8
default
6
CONTINUOUS
10
     -437.93
20
      424.83
11
     -438.06
21
      424.34
39
 0
62
 1
 0
LINE
8
default
6
CONTINUOUS
10
      438.06
20
      424.34
11
      438.19
21
      423.86
39
 0
62
 3
 0
LINE
8
default
6
CONTINUOUS
10
     -438.06
20
      424.34
11
     -438.19
21
      423.86
39
 0
62
 1
 0
LINE
8
default
6
CONTINUOUS
10
      438.19
20
      423.86
11
      438.32
21
      423.37
39
 0
62
 3
 0
LINE
8
default
6
CONTINUOUS
10
     -438.19
20
      423.86
11
     -438.32
21
      423.37
39
 0
62
 1
 0
LINE
8
default
6
CONTINUOUS
10
      438.32
20
      423.37
11
      438.44
21
      422.88
39
 0
62
 3
 0
LINE
8
default
6
CONTINUOUS
10
     -438.32
20
      423.37
11
     -438.44
21
      422.88
39
 0
62
 1
 0
LINE
8
default
6
CONTINUOUS
10
      438.44
20
      422.88
11
      438.57
21
      422.40
39
 0
62
 3
 0
LINE
8
default
6
CONTINUOUS
10
     -438.44
20
      422.88
11
     -438.57
21
      422.40
39
 0
62
 1
 0
LINE
8
default
6
CONTINUOUS
10
      438.57
20
      422.40
11
      438.68
21
      421.91
39
 0
62
 3
 0
LINE
8
default
6
CONTINUOUS
10
     -438.57
20
      422.40
11
     -438.68
21
      421.91
39
 0
62
 1
 0
LINE
8
default
6
CONTINUOUS
10
      438.68
20
      421.91
11
      438.80
21
      421.42
39
 0
62
 3
 0
LINE
8
default
6
CONTINUOUS
10
     -438.68
20
      421.91
11
     -438.80
21
      421.42
39
 0
62
 1
 0
LINE
8
default
6
CONTINUOUS
10
      438.80
20
      421.42
11
      438.92
21
      420.93
39
 0
62
 3
 0
LINE
8
default
6
CONTINUOUS
10
     -438.80
20
      421.42
11
     -438.92
21
      420.93
39
 0
62
 1
 0
LINE
8
default
6
CONTINUOUS
10
      438.92
20
      420.93
11
      439.03
21
      420.44
39
 0
62
 3
 0
LINE
8
default
6
CONTINUOUS
10
     -438.92
20
      420.93
11
     -439.03
21
      420.44
39
 0
62
 1
 0
LINE
8
default
6
CONTINUOUS
10
      439.03
20
      420.44
11
      439.14
21
      419.95
39
 0
62
 3
 0
LINE
8
default
6
CONTINUOUS
10
     -439.03
20
      420.44
11
     -439.14
21
      419.95
39
 0
62
 1
 0
LINE
8
default
6
CONTINUOUS
10
      439.14
20
      419.95
11
      439.25
21
      419.46
39
 0
62
 3
 0
LINE
8
default
6
CONTINUOUS
10
     -439.14
20
      419.95
11
     -439.25
21
      419.46
39
 0
62
 1
 0
LINE
8
default
6
CONTINUOUS
10
      439.25
20
      419.46
11
      439.35
21
      418.96
39
 0
62
 3
 0
LINE
8
default
6
CONTINUOUS
10
     -439.25
20
      419.46
11
     -439.35
21
      418.96
39
 0
62
 1
 0
LINE
8
default
6
CONTINUOUS
10
      439.35
20
      418.96
11
      439.45
21
      418.47
39
 0
62
 3
 0
LINE
8
default
6
CONTINUOUS
10
     -439.35
20
      418.96
11
     -439.45
21
      418.47
39
 0
62
 1
 0
LINE
8
default
6
CONTINUOUS
10
      439.45
20
      418.47
11
      439.55
21
      417.98
39
 0
62
 3
 0
LINE
8
default
6
CONTINUOUS
10
     -439.45
20
      418.47
11
     -439.55
21
      417.98
39
 0
62
 1
 0
LINE
8
default
6
CONTINUOUS
10
      439.55
20
      417.98
11
      439.65
21
      417.49
39
 0
62
 3
 0
LINE
8
default
6
CONTINUOUS
10
     -439.55
20
      417.98
11
     -439.65
21
      417.49
39
 0
62
 1
 0
LINE
8
default
6
CONTINUOUS
10
      439.65
20
      417.49
11
      439.75
21
      416.99
39
 0
62
 3
 0
LINE
8
default
6
CONTINUOUS
10
     -439.65
20
      417.49
11
     -439.75
21
      416.99
39
 0
62
 1
 0
LINE
8
default
6
CONTINUOUS
10
      439.75
20
      416.99
11
      439.84
21
      416.50
39
 0
62
 3
 0
LINE
8
default
6
CONTINUOUS
10
     -439.75
20
      416.99
11
     -439.84
21
      416.50
39
 0
62
 1
 0
LINE
8
default
6
CONTINUOUS
10
      439.84
20
      416.50
11
      439.93
21
      416.00
39
 0
62
 3
 0
LINE
8
default
6
CONTINUOUS
10
     -439.84
20
      416.50
11
     -439.93
21
      416.00
39
 0
62
 1
 0
LINE
8
default
6
CONTINUOUS
10
      439.93
20
      416.00
11
      440.02
21
      415.51
39
 0
62
 3
 0
LINE
8
default
6
CONTINUOUS
10
     -439.93
20
      416.00
11
     -440.02
21
      415.51
39
 0
62
 1
 0
LINE
8
default
6
CONTINUOUS
10
      440.02
20
      415.51
11
      440.10
21
      415.01
39
 0
62
 3
 0
LINE
8
default
6
CONTINUOUS
10
     -440.02
20
      415.51
11
     -440.10
21
      415.01
39
 0
62
 1
 0
LINE
8
default
6
CONTINUOUS
10
      440.10
20
      415.01
11
      440.18
21
      414.51
39
 0
62
 3
 0
LINE
8
default
6
CONTINUOUS
10
     -440.10
20
      415.01
11
     -440.18
21
      414.51
39
 0
62
 1
 0
LINE
8
default
6
CONTINUOUS
10
      440.18
20
      414.51
11
      440.26
21
      414.02
39
 0
62
 3
 0
LINE
8
default
6
CONTINUOUS
10
     -440.18
20
      414.51
11
     -440.26
21
      414.02
39
 0
62
 1
 0
LINE
8
default
6
CONTINUOUS
10
      440.26
20
      414.02
11
      440.34
21
      413.52
39
 0
62
 3
 0
LINE
8
default
6
CONTINUOUS
10
     -440.26
20
      414.02
11
     -440.34
21
      413.52
39
 0
62
 1
 0
LINE
8
default
6
CONTINUOUS
10
      440.34
20
      413.52
11
      440.42
21
      413.02
39
 0
62
 3
 0
LINE
8
default
6
CONTINUOUS
10
     -440.34
20
      413.52
11
     -440.42
21
      413.02
39
 0
62
 1
 0
LINE
8
default
6
CONTINUOUS
10
      440.42
20
      413.02
11
      440.49
21
      412.53
39
 0
62
 3
 0
LINE
8
default
6
CONTINUOUS
10
     -440.42
20
      413.02
11
     -440.49
21
      412.53
39
 0
62
 1
 0
LINE
8
default
6
CONTINUOUS
10
      440.49
20
      412.53
11
      440.56
21
      412.03
39
 0
62
 3
 0
LINE
8
default
6
CONTINUOUS
10
     -440.49
20
      412.53
11
     -440.56
21
      412.03
39
 0
62
 1
 0
LINE
8
default
6
CONTINUOUS
10
      440.56
20
      412.03
11
      440.63
21
      411.53
39
 0
62
 3
 0
LINE
8
default
6
CONTINUOUS
10
     -440.56
20
      412.03
11
     -440.63
21
      411.53
39
 0
62
 1
 0
LINE
8
default
6
CONTINUOUS
10
      440.63
20
      411.53
11
      440.69
21
      411.03
39
 0
62
 3
 0
LINE
8
default
6
CONTINUOUS
10
     -440.63
20
      411.53
11
     -440.69
21
      411.03
39
 0
62
 1
 0
LINE
8
default
6
CONTINUOUS
10
      440.69
20
      411.03
11
      440.76
21
      410.53
39
 0
62
 3
 0
LINE
8
default
6
CONTINUOUS
10
     -440.69
20
      411.03
11
     -440.76
21
      410.53
39
 0
62
 1
 0
LINE
8
default
6
CONTINUOUS
10
      440.76
20
      410.53
11
      440.82
21
      410.03
39
 0
62
 3
 0
LINE
8
default
6
CONTINUOUS
10
     -440.76
20
      410.53
11
     -440.82
21
      410.03
39
 0
62
 1
 0
LINE
8
default
6
CONTINUOUS
10
      440.82
20
      410.03
11
      440.87
21
      409.53
39
 0
62
 3
 0
LINE
8
default
6
CONTINUOUS
10
     -440.82
20
      410.03
11
     -440.87
21
      409.53
39
 0
62
 1
 0
LINE
8
default
6
CONTINUOUS
10
      440.87
20
      409.53
11
      440.93
21
      409.03
39
 0
62
 3
 0
LINE
8
default
6
CONTINUOUS
10
     -440.87
20
      409.53
11
     -440.93
21
      409.03
39
 0
62
 1
 0
LINE
8
default
6
CONTINUOUS
10
      440.93
20
      409.03
11
      440.98
21
      408.53
39
 0
62
 3
 0
LINE
8
default
6
CONTINUOUS
10
     -440.93
20
      409.03
11
     -440.98
21
      408.53
39
 0
62
 1
 0
LINE
8
default
6
CONTINUOUS
10
      440.98
20
      408.53
11
      441.03
21
      408.03
39
 0
62
 3
 0
LINE
8
default
6
CONTINUOUS
10
     -440.98
20
      408.53
11
     -441.03
21
      408.03
39
 0
62
 1
 0
LINE
8
default
6
CONTINUOUS
10
      441.03
20
      408.03
11
      441.08
21
      407.53
39
 0
62
 3
 0
LINE
8
default
6
CONTINUOUS
10
     -441.03
20
      408.03
11
     -441.08
21
      407.53
39
 0
62
 1
 0
LINE
8
default
6
CONTINUOUS
10
      441.08
20
      407.53
11
      441.12
21
      407.03
39
 0
62
 3
 0
LINE
8
default
6
CONTINUOUS
10
     -441.08
20
      407.53
11
     -441.12
21
      407.03
39
 0
62
 1
 0
LINE
8
default
6
CONTINUOUS
10
      441.12
20
      407.03
11
      441.17
21
      406.53
39
 0
62
 3
 0
LINE
8
default
6
CONTINUOUS
10
     -441.12
20
      407.03
11
     -441.17
21
      406.53
39
 0
62
 1
 0
LINE
8
default
6
CONTINUOUS
10
      441.17
20
      406.53
11
      441.21
21
      406.03
39
 0
62
 3
 0
LINE
8
default
6
CONTINUOUS
10
     -441.17
20
      406.53
11
     -441.21
21
      406.03
39
 0
62
 1
 0
LINE
8
default
6
CONTINUOUS
10
      441.21
20
      406.03
11
      441.24
21
      405.53
39
 0
62
 3
 0
LINE
8
default
6
CONTINUOUS
10
     -441.21
20
      406.03
11
     -441.24
21
      405.53
39
 0
62
 1
 0
LINE
8
default
6
CONTINUOUS
10
      441.24
20
      405.53
11
      441.28
21
      405.02
39
 0
62
 3
 0
LINE
8
default
6
CONTINUOUS
10
     -441.24
20
      405.53
11
     -441.28
21
      405.02
39
 0
62
 1
 0
LINE
8
default
6
CONTINUOUS
10
      441.28
20
      405.02
11
      441.31
21
      404.52
39
 0
62
 3
 0
LINE
8
default
6
CONTINUOUS
10
     -441.28
20
      405.02
11
     -441.31
21
      404.52
39
 0
62
 1
 0
LINE
8
default
6
CONTINUOUS
10
      441.31
20
      404.52
11
      441.34
21
      404.02
39
 0
62
 3
 0
LINE
8
default
6
CONTINUOUS
10
     -441.31
20
      404.52
11
     -441.34
21
      404.02
39
 0
62
 1
 0
LINE
8
default
6
CONTINUOUS
10
      441.34
20
      404.02
11
      441.37
21
      403.52
39
 0
62
 3
 0
LINE
8
default
6
CONTINUOUS
10
     -441.34
20
      404.02
11
     -441.37
21
      403.52
39
 0
62
 1
 0
LINE
8
default
6
CONTINUOUS
10
      441.37
20
      403.52
11
      441.40
21
      403.02
39
 0
62
 3
 0
LINE
8
default
6
CONTINUOUS
10
     -441.37
20
      403.52
11
     -441.40
21
      403.02
39
 0
62
 1
 0
LINE
8
default
6
CONTINUOUS
10
      441.40
20
      403.02
11
      441.42
21
      402.51
39
 0
62
 3
 0
LINE
8
default
6
CONTINUOUS
10
     -441.40
20
      403.02
11
     -441.42
21
      402.51
39
 0
62
 1
 0
LINE
8
default
6
CONTINUOUS
10
      441.42
20
      402.51
11
      441.44
21
      402.01
39
 0
62
 3
 0
LINE
8
default
6
CONTINUOUS
10
     -441.42
20
      402.51
11
     -441.44
21
      402.01
39
 0
62
 1
 0
LINE
8
default
6
CONTINUOUS
10
      441.44
20
      402.01
11
      441.46
21
      401.51
39
 0
62
 3
 0
LINE
8
default
6
CONTINUOUS
10
     -441.44
20
      402.01
11
     -441.46
21
      401.51
39
 0
62
 1
 0
LINE
8
default
6
CONTINUOUS
10
      441.46
20
      401.51
11
      441.47
21
      401.01
39
 0
62
 3
 0
LINE
8
default
6
CONTINUOUS
10
     -441.46
20
      401.51
11
     -441.47
21
      401.01
39
 0
62
 1
 0
LINE
8
default
6
CONTINUOUS
10
      441.47
20
      401.01
11
      441.48
21
      400.50
39
 0
62
 3
 0
LINE
8
default
6
CONTINUOUS
10
     -441.47
20
      401.01
11
     -441.48
21
      400.50
39
 0
62
 1
 0
LINE
8
default
6
CONTINUOUS
10
      441.48
20
      400.50
11
      441.49
21
      400.00
39
 0
62
 3
 0
LINE
8
default
6
CONTINUOUS
10
     -441.48
20
      400.50
11
     -441.49
21
      400.00
39
 0
62
 1
 0
LINE
8
default
6
CONTINUOUS
10
       22.65
20
       -0.16
11
       22.65
21
     -309.25
39
 0
62
 3
 0
LINE
8
default
6
CONTINUOUS
10
      -22.65
20
       -0.16
11
      -22.65
21
     -309.25
39
 0
62
 1
 0
LINE
8
default
6
CONTINUOUS
10
       67.75
20
       -1.39
11
       67.75
21
     -308.60
39
 0
62
 3
 0
LINE
8
default
6
CONTINUOUS
10
      -67.75
20
       -1.39
11
      -67.75
21
     -308.60
39
 0
62
 1
 0
LINE
8
default
6
CONTINUOUS
10
      112.46
20
       -3.84
11
      112.46
21
     -307.32
39
 0
62
 3
 0
LINE
8
default
6
CONTINUOUS
10
     -112.46
20
       -3.84
11
     -112.46
21
     -307.32
39
 0
62
 1
 0
LINE
8
default
6
CONTINUOUS
10
      156.60
20
       -7.50
11
      156.60
21
     -305.40
39
 0
62
 3
 0
LINE
8
default
6
CONTINUOUS
10
     -156.60
20
       -7.50
11
     -156.60
21
     -305.40
39
 0
62
 1
 0
LINE
8
default
6
CONTINUOUS
10
      199.98
20
      -12.37
11
      199.98
21
     -302.86
39
 0
62
 3
 0
LINE
8
default
6
CONTINUOUS
10
     -199.98
20
      -12.37
11
     -199.98
21
     -302.86
39
 0
62
 1
 0
LINE
8
default
6
CONTINUOUS
10
      242.42
20
      -18.43
11
      242.42
21
     -299.70
39
 0
62
 3
 0
LINE
8
default
6
CONTINUOUS
10
     -242.42
20
      -18.43
11
     -242.42
21
     -299.70
39
 0
62
 1
 0
LINE
8
default
6
CONTINUOUS
10
      283.72
20
      -25.69
11
      283.72
21
     -295.93
39
 0
62
 3
 0
LINE
8
default
6
CONTINUOUS
10
     -283.72
20
      -25.69
11
     -283.72
21
     -295.93
39
 0
62
 1
 0
LINE
8
default
6
CONTINUOUS
10
      323.64
20
      -34.78
11
      323.64
21
     -291.58
39
 0
62
 3
 0
LINE
8
default
6
CONTINUOUS
10
     -323.64
20
      -34.78
11
     -323.64
21
     -291.58
39
 0
62
 1
 0
LINE
8
default
6
CONTINUOUS
10
      361.82
20
      -46.86
11
      361.82
21
     -286.67
39
 0
62
 3
 0
LINE
8
default
6
CONTINUOUS
10
     -361.82
20
      -46.86
11
     -361.82
21
     -286.67
39
 0
62
 1
 0
LINE
8
default
6
CONTINUOUS
10
      397.91
20
      -61.58
11
      397.91
21
     -281.06
39
 0
62
 3
 0
LINE
8
default
6
CONTINUOUS
10
     -397.91
20
      -61.58
11
     -397.91
21
     -281.06
39
 0
62
 1
 0
LINE
8
default
6
CONTINUOUS
10
      431.64
20
      -78.51
11
      431.64
21
     -274.77
39
 0
62
 3
 0
LINE
8
default
6
CONTINUOUS
10
     -431.64
20
      -78.51
11
     -431.64
21
     -274.77
39
 0
62
 1
 0
LINE
8
default
6
CONTINUOUS
10
      462.75
20
      -97.17
11
      462.75
21
     -267.95
39
 0
62
 3
 0
LINE
8
default
6
CONTINUOUS
10
     -462.75
20
      -97.17
11
     -462.75
21
     -267.95
39
 0
62
 1
 0
LINE
8
default
6
CONTINUOUS
10
      491.09
20
     -117.10
11
      491.09
21
     -260.74
39
 0
62
 3
 0
LINE
8
default
6
CONTINUOUS
10
     -491.09
20
     -117.10
11
     -491.09
21
     -260.74
39
 0
62
 1
 0
LINE
8
default
6
CONTINUOUS
10
      516.52
20
     -137.86
11
      516.52
21
     -253.27
39
 0
62
 3
 0
LINE
8
default
6
CONTINUOUS
10
     -516.52
20
     -137.86
11
     -516.52
21
     -253.27
39
 0
62
 1
 0
LINE
8
default
6
CONTINUOUS
10
      539.00
20
     -159.09
11
      539.00
21
     -245.71
39
 0
62
 3
 0
LINE
8
default
6
CONTINUOUS
10
     -539.00
20
     -159.09
11
     -539.00
21
     -245.71
39
 0
62
 1
 0
LINE
8
default
6
CONTINUOUS
10
       22.64
20
      640.44
11
       22.64
21
      690.44
39
 0
62
 1
 0
LINE
8
default
6
CONTINUOUS
10
       22.64
20
      640.44
11
       24.35
21
      690.41
39
 0
62
 2
 0
LINE
8
default
6
CONTINUOUS
10
       67.62
20
      637.30
11
       67.62
21
      687.30
39
 0
62
 1
 0
LINE
8
default
6
CONTINUOUS
10
       67.62
20
      637.30
11
       72.91
21
      687.02
39
 0
62
 2
 0
LINE
8
default
6
CONTINUOUS
10
      111.90
20
      631.12
11
      111.90
21
      681.12
39
 0
62
 1
 0
LINE
8
default
6
CONTINUOUS
10
      111.90
20
      631.12
11
      120.56
21
      680.36
39
 0
62
 2
 0
LINE
8
default
6
CONTINUOUS
10
      155.09
20
      622.04
11
      155.09
21
      672.04
39
 0
62
 1
 0
LINE
8
default
6
CONTINUOUS
10
      155.09
20
      622.04
11
      167.08
21
      670.58
39
 0
62
 2
 0
LINE
8
default
6
CONTINUOUS
10
      196.84
20
      610.28
11
      196.84
21
      660.28
39
 0
62
 1
 0
LINE
8
default
6
CONTINUOUS
10
      196.84
20
      610.28
11
      211.94
21
      657.95
39
 0
62
 2
 0
LINE
8
default
6
CONTINUOUS
10
      236.81
20
      596.08
11
      236.81
21
      646.08
39
 0
62
 1
 0
LINE
8
default
6
CONTINUOUS
10
      236.81
20
      596.08
11
      255.34
21
      642.52
39
 0
62
 2
 0
LINE
8
default
6
CONTINUOUS
10
      274.49
20
      579.18
11
      274.49
21
      629.18
39
 0
62
 1
 0
LINE
8
default
6
CONTINUOUS
10
      274.49
20
      579.18
11
      296.80
21
      623.93
39
 0
62
 2
 0
LINE
8
default
6
CONTINUOUS
10
      309.41
20
      559.87
11
      309.41
21
      609.87
39
 0
62
 1
 0
LINE
8
default
6
CONTINUOUS
10
      309.41
20
      559.87
11
      335.35
21
      602.62
39
 0
62
 2
 0
LINE
8
default
6
CONTINUOUS
10
      341.23
20
      538.79
11
      341.23
21
      588.79
39
 0
62
 1
 0
LINE
8
default
6
CONTINUOUS
10
      341.23
20
      538.79
11
      370.47
21
      579.35
39
 0
62
 2
 0
LINE
8
default
6
CONTINUOUS
10
      369.71
20
      516.62
11
      369.71
21
      566.62
39
 0
62
 1
 0
LINE
8
default
6
CONTINUOUS
10
      369.71
20
      516.62
11
      401.91
21
      554.87
39
 0
62
 2
 0
LINE
8
default
6
CONTINUOUS
10
      394.47
20
      493.76
11
      394.47
21
      543.76
39
 0
62
 1
 0
LINE
8
default
6
CONTINUOUS
10
      394.47
20
      493.76
11
      430.68
21
      528.24
39
 0
62
 2
 0
LINE
8
default
6
CONTINUOUS
10
      414.34
20
      469.84
11
      414.34
21
      519.84
39
 0
62
 1
 0
LINE
8
default
6
CONTINUOUS
10
      414.34
20
      469.84
11
      454.81
21
      499.20
39
 0
62
 2
 0
LINE
8
default
6
CONTINUOUS
10
      429.49
20
      445.92
11
      429.49
21
      495.92
39
 0
62
 1
 0
LINE
8
default
6
CONTINUOUS
10
      429.49
20
      445.92
11
      473.49
21
      469.67
39
 0
62
 2
 0
LINE
8
default
6
CONTINUOUS
10
      438.60
20
      422.24
11
      438.60
21
      472.24
39
 0
62
 1
 0
LINE
8
default
6
CONTINUOUS
10
      438.60
20
      422.24
11
      487.17
21
      434.13
39
 0
62
 2
 0
LINE
8
default
6
CONTINUOUS
10
      441.49
20
      400.00
11
      441.49
21
      450.00
39
 0
62
 1
 0
LINE
8
default
6
CONTINUOUS
10
      441.49
20
      400.00
11
      491.48
21
      401.00
39
 0
62
 2
 0
ENDSEC
0
EOF
