0
SECTION
2
HEADER
9
$EXTMAX
10
    -900.000
20
      90.000
9
$EXTMIN
10
    5000.000
20
   -3000.000
0
ENDSEC
0
SECTION
2
ENTITIES
0
LINE
8
default
6
CONTINUOUS
10
         .00
20
         .00
11
        6.42
21
        -.01
39
 0
62
 1
 0
LINE
8
default
6
CONTINUOUS
10
         .00
20
         .00
11
       -6.42
21
        -.01
39
 0
62
 1
 0
LINE
8
default
6
CONTINUOUS
10
        6.42
20
        -.01
11
       12.84
21
        -.04
39
 0
62
 1
 0
LINE
8
default
6
CONTINUOUS
10
       -6.42
20
        -.01
11
      -12.84
21
        -.04
39
 0
62
 1
 0
LINE
8
default
6
CONTINUOUS
10
       12.84
20
        -.04
11
       19.25
21
        -.09
39
 0
62
 1
 0
LINE
8
default
6
CONTINUOUS
10
      -12.84
20
        -.04
11
      -19.25
21
        -.09
39
 0
62
 1
 0
LINE
8
default
6
CONTINUOUS
10
       19.25
20
        -.09
11
       25.67
21
        -.16
39
 0
62
 1
 0
LINE
8
default
6
CONTINUOUS
10
      -19.25
20
        -.09
11
      -25.67
21
        -.16
39
 0
62
 1
 0
LINE
8
default
6
CONTINUOUS
10
       25.67
20
        -.16
11
       32.08
21
        -.24
39
 0
62
 1
 0
LINE
8
default
6
CONTINUOUS
10
      -25.67
20
        -.16
11
      -32.08
21
        -.24
39
 0
62
 1
 0
LINE
8
default
6
CONTINUOUS
10
       32.08
20
        -.24
11
       38.49
21
        -.35
39
 0
62
 1
 0
LINE
8
default
6
CONTINUOUS
10
      -32.08
20
        -.24
11
      -38.49
21
        -.35
39
 0
62
 1
 0
LINE
8
default
6
CONTINUOUS
10
       38.49
20
        -.35
11
       44.90
21
        -.48
39
 0
62
 1
 0
LINE
8
default
6
CONTINUOUS
10
      -38.49
20
        -.35
11
      -44.90
21
        -.48
39
 0
62
 1
 0
LINE
8
default
6
CONTINUOUS
10
       44.90
20
        -.48
11
       51.30
21
        -.62
39
 0
62
 1
 0
LINE
8
default
6
CONTINUOUS
10
      -44.90
20
        -.48
11
      -51.30
21
        -.62
39
 0
62
 1
 0
LINE
8
default
6
CONTINUOUS
10
       51.30
20
        -.62
11
       57.69
21
        -.79
39
 0
62
 1
 0
LINE
8
default
6
CONTINUOUS
10
      -51.30
20
        -.62
11
      -57.69
21
        -.79
39
 0
62
 1
 0
LINE
8
default
6
CONTINUOUS
10
       57.69
20
        -.79
11
       64.09
21
        -.97
39
 0
62
 1
 0
LINE
8
default
6
CONTINUOUS
10
      -57.69
20
        -.79
11
      -64.09
21
        -.97
39
 0
62
 1
 0
LINE
8
default
6
CONTINUOUS
10
       64.09
20
        -.97
11
       70.47
21
       -1.17
39
 0
62
 1
 0
LINE
8
default
6
CONTINUOUS
10
      -64.09
20
        -.97
11
      -70.47
21
       -1.17
39
 0
62
 1
 0
LINE
8
default
6
CONTINUOUS
10
       70.47
20
       -1.17
11
       76.85
21
       -1.40
39
 0
62
 1
 0
LINE
8
default
6
CONTINUOUS
10
      -70.47
20
       -1.17
11
      -76.85
21
       -1.40
39
 0
62
 1
 0
LINE
8
default
6
CONTINUOUS
10
       76.85
20
       -1.40
11
       83.21
21
       -1.64
39
 0
62
 1
 0
LINE
8
default
6
CONTINUOUS
10
      -76.85
20
       -1.40
11
      -83.21
21
       -1.64
39
 0
62
 1
 0
LINE
8
default
6
CONTINUOUS
10
       83.21
20
       -1.64
11
       89.58
21
       -1.90
39
 0
62
 1
 0
LINE
8
default
6
CONTINUOUS
10
      -83.21
20
       -1.64
11
      -89.58
21
       -1.90
39
 0
62
 1
 0
LINE
8
default
6
CONTINUOUS
10
       89.58
20
       -1.90
11
       95.93
21
       -2.18
39
 0
62
 1
 0
LINE
8
default
6
CONTINUOUS
10
      -89.58
20
       -1.90
11
      -95.93
21
       -2.18
39
 0
62
 1
 0
LINE
8
default
6
CONTINUOUS
10
       95.93
20
       -2.18
11
      102.27
21
       -2.48
39
 0
62
 1
 0
LINE
8
default
6
CONTINUOUS
10
      -95.93
20
       -2.18
11
     -102.27
21
       -2.48
39
 0
62
 1
 0
LINE
8
default
6
CONTINUOUS
10
      102.27
20
       -2.48
11
      108.60
21
       -2.80
39
 0
62
 1
 0
LINE
8
default
6
CONTINUOUS
10
     -102.27
20
       -2.48
11
     -108.60
21
       -2.80
39
 0
62
 1
 0
LINE
8
default
6
CONTINUOUS
10
      108.60
20
       -2.80
11
      114.92
21
       -3.13
39
 0
62
 1
 0
LINE
8
default
6
CONTINUOUS
10
     -108.60
20
       -2.80
11
     -114.92
21
       -3.13
39
 0
62
 1
 0
LINE
8
default
6
CONTINUOUS
10
      114.92
20
       -3.13
11
      121.23
21
       -3.49
39
 0
62
 1
 0
LINE
8
default
6
CONTINUOUS
10
     -114.92
20
       -3.13
11
     -121.23
21
       -3.49
39
 0
62
 1
 0
LINE
8
default
6
CONTINUOUS
10
      121.23
20
       -3.49
11
      127.53
21
       -3.87
39
 0
62
 1
 0
LINE
8
default
6
CONTINUOUS
10
     -121.23
20
       -3.49
11
     -127.53
21
       -3.87
39
 0
62
 1
 0
LINE
8
default
6
CONTINUOUS
10
      127.53
20
       -3.87
11
      133.81
21
       -4.26
39
 0
62
 1
 0
LINE
8
default
6
CONTINUOUS
10
     -127.53
20
       -3.87
11
     -133.81
21
       -4.26
39
 0
62
 1
 0
LINE
8
default
6
CONTINUOUS
10
      133.81
20
       -4.26
11
      140.09
21
       -4.68
39
 0
62
 1
 0
LINE
8
default
6
CONTINUOUS
10
     -133.81
20
       -4.26
11
     -140.09
21
       -4.68
39
 0
62
 1
 0
LINE
8
default
6
CONTINUOUS
10
      140.09
20
       -4.68
11
      146.34
21
       -5.11
39
 0
62
 1
 0
LINE
8
default
6
CONTINUOUS
10
     -140.09
20
       -4.68
11
     -146.34
21
       -5.11
39
 0
62
 1
 0
LINE
8
default
6
CONTINUOUS
10
      146.34
20
       -5.11
11
      152.59
21
       -5.56
39
 0
62
 1
 0
LINE
8
default
6
CONTINUOUS
10
     -146.34
20
       -5.11
11
     -152.59
21
       -5.56
39
 0
62
 1
 0
LINE
8
default
6
CONTINUOUS
10
      152.59
20
       -5.56
11
      158.81
21
       -6.03
39
 0
62
 1
 0
LINE
8
default
6
CONTINUOUS
10
     -152.59
20
       -5.56
11
     -158.81
21
       -6.03
39
 0
62
 1
 0
LINE
8
default
6
CONTINUOUS
10
      158.81
20
       -6.03
11
      165.03
21
       -6.52
39
 0
62
 1
 0
LINE
8
default
6
CONTINUOUS
10
     -158.81
20
       -6.03
11
     -165.03
21
       -6.52
39
 0
62
 1
 0
LINE
8
default
6
CONTINUOUS
10
      165.03
20
       -6.52
11
      171.22
21
       -7.03
39
 0
62
 1
 0
LINE
8
default
6
CONTINUOUS
10
     -165.03
20
       -6.52
11
     -171.22
21
       -7.03
39
 0
62
 1
 0
LINE
8
default
6
CONTINUOUS
10
      171.22
20
       -7.03
11
      177.40
21
       -7.56
39
 0
62
 1
 0
LINE
8
default
6
CONTINUOUS
10
     -171.22
20
       -7.03
11
     -177.40
21
       -7.56
39
 0
62
 1
 0
LINE
8
default
6
CONTINUOUS
10
      177.40
20
       -7.56
11
      183.56
21
       -8.10
39
 0
62
 1
 0
LINE
8
default
6
CONTINUOUS
10
     -177.40
20
       -7.56
11
     -183.56
21
       -8.10
39
 0
62
 1
 0
LINE
8
default
6
CONTINUOUS
10
      183.56
20
       -8.10
11
      189.70
21
       -8.67
39
 0
62
 1
 0
LINE
8
default
6
CONTINUOUS
10
     -183.56
20
       -8.10
11
     -189.70
21
       -8.67
39
 0
62
 1
 0
LINE
8
default
6
CONTINUOUS
10
      189.70
20
       -8.67
11
      195.82
21
       -9.25
39
 0
62
 1
 0
LINE
8
default
6
CONTINUOUS
10
     -189.70
20
       -8.67
11
     -195.82
21
       -9.25
39
 0
62
 1
 0
LINE
8
default
6
CONTINUOUS
10
      195.82
20
       -9.25
11
      201.93
21
       -9.85
39
 0
62
 1
 0
LINE
8
default
6
CONTINUOUS
10
     -195.82
20
       -9.25
11
     -201.93
21
       -9.85
39
 0
62
 1
 0
LINE
8
default
6
CONTINUOUS
10
      201.93
20
       -9.85
11
      208.01
21
      -10.47
39
 0
62
 1
 0
LINE
8
default
6
CONTINUOUS
10
     -201.93
20
       -9.85
11
     -208.01
21
      -10.47
39
 0
62
 1
 0
LINE
8
default
6
CONTINUOUS
10
      208.01
20
      -10.47
11
      214.07
21
      -11.11
39
 0
62
 1
 0
LINE
8
default
6
CONTINUOUS
10
     -208.01
20
      -10.47
11
     -214.07
21
      -11.11
39
 0
62
 1
 0
LINE
8
default
6
CONTINUOUS
10
      214.07
20
      -11.11
11
      220.11
21
      -11.76
39
 0
62
 1
 0
LINE
8
default
6
CONTINUOUS
10
     -214.07
20
      -11.11
11
     -220.11
21
      -11.76
39
 0
62
 1
 0
LINE
8
default
6
CONTINUOUS
10
      220.11
20
      -11.76
11
      226.13
21
      -12.44
39
 0
62
 1
 0
LINE
8
default
6
CONTINUOUS
10
     -220.11
20
      -11.76
11
     -226.13
21
      -12.44
39
 0
62
 1
 0
LINE
8
default
6
CONTINUOUS
10
      226.13
20
      -12.44
11
      232.13
21
      -13.13
39
 0
62
 1
 0
LINE
8
default
6
CONTINUOUS
10
     -226.13
20
      -12.44
11
     -232.13
21
      -13.13
39
 0
62
 1
 0
LINE
8
default
6
CONTINUOUS
10
      232.13
20
      -13.13
11
      238.10
21
      -13.84
39
 0
62
 1
 0
LINE
8
default
6
CONTINUOUS
10
     -232.13
20
      -13.13
11
     -238.10
21
      -13.84
39
 0
62
 1
 0
LINE
8
default
6
CONTINUOUS
10
      238.10
20
      -13.84
11
      244.05
21
      -14.57
39
 0
62
 1
 0
LINE
8
default
6
CONTINUOUS
10
     -238.10
20
      -13.84
11
     -244.05
21
      -14.57
39
 0
62
 1
 0
LINE
8
default
6
CONTINUOUS
10
      244.05
20
      -14.57
11
      249.98
21
      -15.32
39
 0
62
 1
 0
LINE
8
default
6
CONTINUOUS
10
     -244.05
20
      -14.57
11
     -249.98
21
      -15.32
39
 0
62
 1
 0
LINE
8
default
6
CONTINUOUS
10
      249.98
20
      -15.32
11
      255.88
21
      -16.08
39
 0
62
 1
 0
LINE
8
default
6
CONTINUOUS
10
     -249.98
20
      -15.32
11
     -255.88
21
      -16.08
39
 0
62
 1
 0
LINE
8
default
6
CONTINUOUS
10
      255.88
20
      -16.08
11
      261.75
21
      -16.86
39
 0
62
 1
 0
LINE
8
default
6
CONTINUOUS
10
     -255.88
20
      -16.08
11
     -261.75
21
      -16.86
39
 0
62
 1
 0
LINE
8
default
6
CONTINUOUS
10
      261.75
20
      -16.86
11
      267.60
21
      -17.66
39
 0
62
 1
 0
LINE
8
default
6
CONTINUOUS
10
     -261.75
20
      -16.86
11
     -267.60
21
      -17.66
39
 0
62
 1
 0
LINE
8
default
6
CONTINUOUS
10
      267.60
20
      -17.66
11
      273.42
21
      -18.48
39
 0
62
 1
 0
LINE
8
default
6
CONTINUOUS
10
     -267.60
20
      -17.66
11
     -273.42
21
      -18.48
39
 0
62
 1
 0
LINE
8
default
6
CONTINUOUS
10
      273.42
20
      -18.48
11
      279.21
21
      -19.32
39
 0
62
 1
 0
LINE
8
default
6
CONTINUOUS
10
     -273.42
20
      -18.48
11
     -279.21
21
      -19.32
39
 0
62
 1
 0
LINE
8
default
6
CONTINUOUS
10
      279.21
20
      -19.32
11
      284.98
21
      -20.17
39
 0
62
 1
 0
LINE
8
default
6
CONTINUOUS
10
     -279.21
20
      -19.32
11
     -284.98
21
      -20.17
39
 0
62
 1
 0
LINE
8
default
6
CONTINUOUS
10
      284.98
20
      -20.17
11
      290.72
21
      -21.04
39
 0
62
 1
 0
LINE
8
default
6
CONTINUOUS
10
     -284.98
20
      -20.17
11
     -290.72
21
      -21.04
39
 0
62
 1
 0
LINE
8
default
6
CONTINUOUS
10
      290.72
20
      -21.04
11
      296.43
21
      -21.93
39
 0
62
 1
 0
LINE
8
default
6
CONTINUOUS
10
     -290.72
20
      -21.04
11
     -296.43
21
      -21.93
39
 0
62
 1
 0
LINE
8
default
6
CONTINUOUS
10
      296.43
20
      -21.93
11
      302.10
21
      -22.83
39
 0
62
 1
 0
LINE
8
default
6
CONTINUOUS
10
     -296.43
20
      -21.93
11
     -302.10
21
      -22.83
39
 0
62
 1
 0
LINE
8
default
6
CONTINUOUS
10
      302.10
20
      -22.83
11
      307.75
21
      -23.75
39
 0
62
 1
 0
LINE
8
default
6
CONTINUOUS
10
     -302.10
20
      -22.83
11
     -307.75
21
      -23.75
39
 0
62
 1
 0
LINE
8
default
6
CONTINUOUS
10
      307.75
20
      -23.75
11
      313.37
21
      -24.69
39
 0
62
 1
 0
LINE
8
default
6
CONTINUOUS
10
     -307.75
20
      -23.75
11
     -313.37
21
      -24.69
39
 0
62
 1
 0
LINE
8
default
6
CONTINUOUS
10
      313.37
20
      -24.69
11
      318.96
21
      -25.65
39
 0
62
 1
 0
LINE
8
default
6
CONTINUOUS
10
     -313.37
20
      -24.69
11
     -318.96
21
      -25.65
39
 0
62
 1
 0
LINE
8
default
6
CONTINUOUS
10
      318.96
20
      -25.65
11
      324.51
21
      -26.62
39
 0
62
 1
 0
LINE
8
default
6
CONTINUOUS
10
     -318.96
20
      -25.65
11
     -324.51
21
      -26.62
39
 0
62
 1
 0
LINE
8
default
6
CONTINUOUS
10
      324.51
20
      -26.62
11
      330.03
21
      -27.61
39
 0
62
 1
 0
LINE
8
default
6
CONTINUOUS
10
     -324.51
20
      -26.62
11
     -330.03
21
      -27.61
39
 0
62
 1
 0
LINE
8
default
6
CONTINUOUS
10
      330.03
20
      -27.61
11
      335.52
21
      -28.61
39
 0
62
 1
 0
LINE
8
default
6
CONTINUOUS
10
     -330.03
20
      -27.61
11
     -335.52
21
      -28.61
39
 0
62
 1
 0
LINE
8
default
6
CONTINUOUS
10
      335.52
20
      -28.61
11
      340.98
21
      -29.64
39
 0
62
 1
 0
LINE
8
default
6
CONTINUOUS
10
     -335.52
20
      -28.61
11
     -340.98
21
      -29.64
39
 0
62
 1
 0
LINE
8
default
6
CONTINUOUS
10
      340.98
20
      -29.64
11
      346.40
21
      -30.68
39
 0
62
 1
 0
LINE
8
default
6
CONTINUOUS
10
     -340.98
20
      -29.64
11
     -346.40
21
      -30.68
39
 0
62
 1
 0
LINE
8
default
6
CONTINUOUS
10
      346.40
20
      -30.68
11
      351.79
21
      -31.74
39
 0
62
 1
 0
LINE
8
default
6
CONTINUOUS
10
     -346.40
20
      -30.68
11
     -351.79
21
      -31.74
39
 0
62
 1
 0
LINE
8
default
6
CONTINUOUS
10
      351.79
20
      -31.74
11
      357.14
21
      -32.84
39
 0
62
 1
 0
LINE
8
default
6
CONTINUOUS
10
     -351.79
20
      -31.74
11
     -357.14
21
      -32.84
39
 0
62
 1
 0
LINE
8
default
6
CONTINUOUS
10
      357.14
20
      -32.84
11
      362.46
21
      -33.96
39
 0
62
 1
 0
LINE
8
default
6
CONTINUOUS
10
     -357.14
20
      -32.84
11
     -362.46
21
      -33.96
39
 0
62
 1
 0
LINE
8
default
6
CONTINUOUS
10
      362.46
20
      -33.96
11
      367.73
21
      -35.13
39
 0
62
 1
 0
LINE
8
default
6
CONTINUOUS
10
     -362.46
20
      -33.96
11
     -367.73
21
      -35.13
39
 0
62
 1
 0
LINE
8
default
6
CONTINUOUS
10
      367.73
20
      -35.13
11
      372.98
21
      -36.33
39
 0
62
 1
 0
LINE
8
default
6
CONTINUOUS
10
     -367.73
20
      -35.13
11
     -372.98
21
      -36.33
39
 0
62
 1
 0
LINE
8
default
6
CONTINUOUS
10
      372.98
20
      -36.33
11
      378.18
21
      -37.57
39
 0
62
 1
 0
LINE
8
default
6
CONTINUOUS
10
     -372.98
20
      -36.33
11
     -378.18
21
      -37.57
39
 0
62
 1
 0
LINE
8
default
6
CONTINUOUS
10
      378.18
20
      -37.57
11
      383.35
21
      -38.86
39
 0
62
 1
 0
LINE
8
default
6
CONTINUOUS
10
     -378.18
20
      -37.57
11
     -383.35
21
      -38.86
39
 0
62
 1
 0
LINE
8
default
6
CONTINUOUS
10
      383.35
20
      -38.86
11
      388.48
21
      -40.20
39
 0
62
 1
 0
LINE
8
default
6
CONTINUOUS
10
     -383.35
20
      -38.86
11
     -388.48
21
      -40.20
39
 0
62
 1
 0
LINE
8
default
6
CONTINUOUS
10
      388.48
20
      -40.20
11
      393.57
21
      -41.59
39
 0
62
 1
 0
LINE
8
default
6
CONTINUOUS
10
     -388.48
20
      -40.20
11
     -393.57
21
      -41.59
39
 0
62
 1
 0
LINE
8
default
6
CONTINUOUS
10
      393.57
20
      -41.59
11
      398.62
21
      -43.03
39
 0
62
 1
 0
LINE
8
default
6
CONTINUOUS
10
     -393.57
20
      -41.59
11
     -398.62
21
      -43.03
39
 0
62
 1
 0
LINE
8
default
6
CONTINUOUS
10
      398.62
20
      -43.03
11
      403.63
21
      -44.52
39
 0
62
 1
 0
LINE
8
default
6
CONTINUOUS
10
     -398.62
20
      -43.03
11
     -403.63
21
      -44.52
39
 0
62
 1
 0
LINE
8
default
6
CONTINUOUS
10
      403.63
20
      -44.52
11
      408.61
21
      -46.07
39
 0
62
 1
 0
LINE
8
default
6
CONTINUOUS
10
     -403.63
20
      -44.52
11
     -408.61
21
      -46.07
39
 0
62
 1
 0
LINE
8
default
6
CONTINUOUS
10
      408.61
20
      -46.07
11
      413.54
21
      -47.68
39
 0
62
 1
 0
LINE
8
default
6
CONTINUOUS
10
     -408.61
20
      -46.07
11
     -413.54
21
      -47.68
39
 0
62
 1
 0
LINE
8
default
6
CONTINUOUS
10
      413.54
20
      -47.68
11
      418.42
21
      -49.34
39
 0
62
 1
 0
LINE
8
default
6
CONTINUOUS
10
     -413.54
20
      -47.68
11
     -418.42
21
      -49.34
39
 0
62
 1
 0
LINE
8
default
6
CONTINUOUS
10
      418.42
20
      -49.34
11
      423.27
21
      -51.06
39
 0
62
 1
 0
LINE
8
default
6
CONTINUOUS
10
     -418.42
20
      -49.34
11
     -423.27
21
      -51.06
39
 0
62
 1
 0
LINE
8
default
6
CONTINUOUS
10
      423.27
20
      -51.06
11
      428.08
21
      -52.84
39
 0
62
 1
 0
LINE
8
default
6
CONTINUOUS
10
     -423.27
20
      -51.06
11
     -428.08
21
      -52.84
39
 0
62
 1
 0
LINE
8
default
6
CONTINUOUS
10
      428.08
20
      -52.84
11
      432.84
21
      -54.68
39
 0
62
 1
 0
LINE
8
default
6
CONTINUOUS
10
     -428.08
20
      -52.84
11
     -432.84
21
      -54.68
39
 0
62
 1
 0
LINE
8
default
6
CONTINUOUS
10
      432.84
20
      -54.68
11
      437.56
21
      -56.59
39
 0
62
 1
 0
LINE
8
default
6
CONTINUOUS
10
     -432.84
20
      -54.68
11
     -437.56
21
      -56.59
39
 0
62
 1
 0
LINE
8
default
6
CONTINUOUS
10
      437.56
20
      -56.59
11
      442.23
21
      -58.55
39
 0
62
 1
 0
LINE
8
default
6
CONTINUOUS
10
     -437.56
20
      -56.59
11
     -442.23
21
      -58.55
39
 0
62
 1
 0
LINE
8
default
6
CONTINUOUS
10
      442.23
20
      -58.55
11
      446.86
21
      -60.58
39
 0
62
 1
 0
LINE
8
default
6
CONTINUOUS
10
     -442.23
20
      -58.55
11
     -446.86
21
      -60.58
39
 0
62
 1
 0
LINE
8
default
6
CONTINUOUS
10
      446.86
20
      -60.58
11
      451.45
21
      -62.66
39
 0
62
 1
 0
LINE
8
default
6
CONTINUOUS
10
     -446.86
20
      -60.58
11
     -451.45
21
      -62.66
39
 0
62
 1
 0
LINE
8
default
6
CONTINUOUS
10
      451.45
20
      -62.66
11
      455.99
21
      -64.81
39
 0
62
 1
 0
LINE
8
default
6
CONTINUOUS
10
     -451.45
20
      -62.66
11
     -455.99
21
      -64.81
39
 0
62
 1
 0
LINE
8
default
6
CONTINUOUS
10
      455.99
20
      -64.81
11
      460.49
21
      -67.02
39
 0
62
 1
 0
LINE
8
default
6
CONTINUOUS
10
     -455.99
20
      -64.81
11
     -460.49
21
      -67.02
39
 0
62
 1
 0
LINE
8
default
6
CONTINUOUS
10
      460.49
20
      -67.02
11
      464.93
21
      -69.29
39
 0
62
 1
 0
LINE
8
default
6
CONTINUOUS
10
     -460.49
20
      -67.02
11
     -464.93
21
      -69.29
39
 0
62
 1
 0
LINE
8
default
6
CONTINUOUS
10
      464.93
20
      -69.29
11
      469.34
21
      -71.63
39
 0
62
 1
 0
LINE
8
default
6
CONTINUOUS
10
     -464.93
20
      -69.29
11
     -469.34
21
      -71.63
39
 0
62
 1
 0
LINE
8
default
6
CONTINUOUS
10
      469.34
20
      -71.63
11
      473.69
21
      -74.02
39
 0
62
 1
 0
LINE
8
default
6
CONTINUOUS
10
     -469.34
20
      -71.63
11
     -473.69
21
      -74.02
39
 0
62
 1
 0
LINE
8
default
6
CONTINUOUS
10
      473.69
20
      -74.02
11
      478.00
21
      -76.48
39
 0
62
 1
 0
LINE
8
default
6
CONTINUOUS
10
     -473.69
20
      -74.02
11
     -478.00
21
      -76.48
39
 0
62
 1
 0
LINE
8
default
6
CONTINUOUS
10
      478.00
20
      -76.48
11
      482.26
21
      -78.99
39
 0
62
 1
 0
LINE
8
default
6
CONTINUOUS
10
     -478.00
20
      -76.48
11
     -482.26
21
      -78.99
39
 0
62
 1
 0
LINE
8
default
6
CONTINUOUS
10
      482.26
20
      -78.99
11
      486.47
21
      -81.56
39
 0
62
 1
 0
LINE
8
default
6
CONTINUOUS
10
     -482.26
20
      -78.99
11
     -486.47
21
      -81.56
39
 0
62
 1
 0
LINE
8
default
6
CONTINUOUS
10
      486.47
20
      -81.56
11
      490.64
21
      -84.19
39
 0
62
 1
 0
LINE
8
default
6
CONTINUOUS
10
     -486.47
20
      -81.56
11
     -490.64
21
      -84.19
39
 0
62
 1
 0
LINE
8
default
6
CONTINUOUS
10
      490.64
20
      -84.19
11
      494.75
21
      -86.88
39
 0
62
 1
 0
LINE
8
default
6
CONTINUOUS
10
     -490.64
20
      -84.19
11
     -494.75
21
      -86.88
39
 0
62
 1
 0
LINE
8
default
6
CONTINUOUS
10
      494.75
20
      -86.88
11
      498.82
21
      -89.66
39
 0
62
 1
 0
LINE
8
default
6
CONTINUOUS
10
     -494.75
20
      -86.88
11
     -498.82
21
      -89.66
39
 0
62
 1
 0
LINE
8
default
6
CONTINUOUS
10
      498.82
20
      -89.66
11
      502.83
21
      -92.59
39
 0
62
 1
 0
LINE
8
default
6
CONTINUOUS
10
     -498.82
20
      -89.66
11
     -502.83
21
      -92.59
39
 0
62
 1
 0
LINE
8
default
6
CONTINUOUS
10
      502.83
20
      -92.59
11
      506.80
21
      -95.78
39
 0
62
 1
 0
LINE
8
default
6
CONTINUOUS
10
     -502.83
20
      -92.59
11
     -506.80
21
      -95.78
39
 0
62
 1
 0
LINE
8
default
6
CONTINUOUS
10
      506.80
20
      -95.78
11
      510.71
21
      -99.35
39
 0
62
 1
 0
LINE
8
default
6
CONTINUOUS
10
     -506.80
20
      -95.78
11
     -510.71
21
      -99.35
39
 0
62
 1
 0
LINE
8
default
6
CONTINUOUS
10
      510.71
20
      -99.35
11
      514.58
21
     -103.46
39
 0
62
 1
 0
LINE
8
default
6
CONTINUOUS
10
     -510.71
20
      -99.35
11
     -514.58
21
     -103.46
39
 0
62
 1
 0
LINE
8
default
6
CONTINUOUS
10
      514.58
20
     -103.46
11
      518.39
21
     -108.28
39
 0
62
 1
 0
LINE
8
default
6
CONTINUOUS
10
     -514.58
20
     -103.46
11
     -518.39
21
     -108.28
39
 0
62
 1
 0
LINE
8
default
6
CONTINUOUS
10
      518.39
20
     -108.28
11
      522.15
21
     -114.01
39
 0
62
 1
 0
LINE
8
default
6
CONTINUOUS
10
     -518.39
20
     -108.28
11
     -522.15
21
     -114.01
39
 0
62
 1
 0
LINE
8
default
6
CONTINUOUS
10
      522.15
20
     -114.01
11
      525.86
21
     -120.85
39
 0
62
 1
 0
LINE
8
default
6
CONTINUOUS
10
     -522.15
20
     -114.01
11
     -525.86
21
     -120.85
39
 0
62
 1
 0
LINE
8
default
6
CONTINUOUS
10
      525.86
20
     -120.85
11
      527.00
21
     -123.24
39
 0
62
 1
 0
LINE
8
default
6
CONTINUOUS
10
     -525.86
20
     -120.85
11
     -527.00
21
     -123.24
39
 0
62
 1
 0
LINE
8
default
6
CONTINUOUS
10
         .00
20
     -246.46
11
        6.43
21
     -246.45
39
 0
62
 1
 0
LINE
8
default
6
CONTINUOUS
10
         .00
20
     -246.46
11
       -6.43
21
     -246.45
39
 0
62
 1
 0
LINE
8
default
6
CONTINUOUS
10
        6.43
20
     -246.45
11
       12.86
21
     -246.43
39
 0
62
 1
 0
LINE
8
default
6
CONTINUOUS
10
       -6.43
20
     -246.45
11
      -12.86
21
     -246.43
39
 0
62
 1
 0
LINE
8
default
6
CONTINUOUS
10
       12.86
20
     -246.43
11
       19.30
21
     -246.40
39
 0
62
 1
 0
LINE
8
default
6
CONTINUOUS
10
      -12.86
20
     -246.43
11
      -19.30
21
     -246.40
39
 0
62
 1
 0
LINE
8
default
6
CONTINUOUS
10
       19.30
20
     -246.40
11
       25.72
21
     -246.35
39
 0
62
 1
 0
LINE
8
default
6
CONTINUOUS
10
      -19.30
20
     -246.40
11
      -25.72
21
     -246.35
39
 0
62
 1
 0
LINE
8
default
6
CONTINUOUS
10
       25.72
20
     -246.35
11
       32.15
21
     -246.28
39
 0
62
 1
 0
LINE
8
default
6
CONTINUOUS
10
      -25.72
20
     -246.35
11
      -32.15
21
     -246.28
39
 0
62
 1
 0
LINE
8
default
6
CONTINUOUS
10
       32.15
20
     -246.28
11
       38.57
21
     -246.21
39
 0
62
 1
 0
LINE
8
default
6
CONTINUOUS
10
      -32.15
20
     -246.28
11
      -38.57
21
     -246.21
39
 0
62
 1
 0
LINE
8
default
6
CONTINUOUS
10
       38.57
20
     -246.21
11
       44.99
21
     -246.12
39
 0
62
 1
 0
LINE
8
default
6
CONTINUOUS
10
      -38.57
20
     -246.21
11
      -44.99
21
     -246.12
39
 0
62
 1
 0
LINE
8
default
6
CONTINUOUS
10
       44.99
20
     -246.12
11
       51.41
21
     -246.01
39
 0
62
 1
 0
LINE
8
default
6
CONTINUOUS
10
      -44.99
20
     -246.12
11
      -51.41
21
     -246.01
39
 0
62
 1
 0
LINE
8
default
6
CONTINUOUS
10
       51.41
20
     -246.01
11
       57.82
21
     -245.89
39
 0
62
 1
 0
LINE
8
default
6
CONTINUOUS
10
      -51.41
20
     -246.01
11
      -57.82
21
     -245.89
39
 0
62
 1
 0
LINE
8
default
6
CONTINUOUS
10
       57.82
20
     -245.89
11
       64.22
21
     -245.76
39
 0
62
 1
 0
LINE
8
default
6
CONTINUOUS
10
      -57.82
20
     -245.89
11
      -64.22
21
     -245.76
39
 0
62
 1
 0
LINE
8
default
6
CONTINUOUS
10
       64.22
20
     -245.76
11
       70.62
21
     -245.61
39
 0
62
 1
 0
LINE
8
default
6
CONTINUOUS
10
      -64.22
20
     -245.76
11
      -70.62
21
     -245.61
39
 0
62
 1
 0
LINE
8
default
6
CONTINUOUS
10
       70.62
20
     -245.61
11
       77.01
21
     -245.45
39
 0
62
 1
 0
LINE
8
default
6
CONTINUOUS
10
      -70.62
20
     -245.61
11
      -77.01
21
     -245.45
39
 0
62
 1
 0
LINE
8
default
6
CONTINUOUS
10
       77.01
20
     -245.45
11
       83.39
21
     -245.27
39
 0
62
 1
 0
LINE
8
default
6
CONTINUOUS
10
      -77.01
20
     -245.45
11
      -83.39
21
     -245.27
39
 0
62
 1
 0
LINE
8
default
6
CONTINUOUS
10
       83.39
20
     -245.27
11
       89.77
21
     -245.09
39
 0
62
 1
 0
LINE
8
default
6
CONTINUOUS
10
      -83.39
20
     -245.27
11
      -89.77
21
     -245.09
39
 0
62
 1
 0
LINE
8
default
6
CONTINUOUS
10
       89.77
20
     -245.09
11
       96.13
21
     -244.88
39
 0
62
 1
 0
LINE
8
default
6
CONTINUOUS
10
      -89.77
20
     -245.09
11
      -96.13
21
     -244.88
39
 0
62
 1
 0
LINE
8
default
6
CONTINUOUS
10
       96.13
20
     -244.88
11
      102.49
21
     -244.67
39
 0
62
 1
 0
LINE
8
default
6
CONTINUOUS
10
      -96.13
20
     -244.88
11
     -102.49
21
     -244.67
39
 0
62
 1
 0
LINE
8
default
6
CONTINUOUS
10
      102.49
20
     -244.67
11
      108.83
21
     -244.43
39
 0
62
 1
 0
LINE
8
default
6
CONTINUOUS
10
     -102.49
20
     -244.67
11
     -108.83
21
     -244.43
39
 0
62
 1
 0
LINE
8
default
6
CONTINUOUS
10
      108.83
20
     -244.43
11
      115.17
21
     -244.19
39
 0
62
 1
 0
LINE
8
default
6
CONTINUOUS
10
     -108.83
20
     -244.43
11
     -115.17
21
     -244.19
39
 0
62
 1
 0
LINE
8
default
6
CONTINUOUS
10
      115.17
20
     -244.19
11
      121.49
21
     -243.93
39
 0
62
 1
 0
LINE
8
default
6
CONTINUOUS
10
     -115.17
20
     -244.19
11
     -121.49
21
     -243.93
39
 0
62
 1
 0
LINE
8
default
6
CONTINUOUS
10
      121.49
20
     -243.93
11
      127.80
21
     -243.66
39
 0
62
 1
 0
LINE
8
default
6
CONTINUOUS
10
     -121.49
20
     -243.93
11
     -127.80
21
     -243.66
39
 0
62
 1
 0
LINE
8
default
6
CONTINUOUS
10
      127.80
20
     -243.66
11
      134.10
21
     -243.37
39
 0
62
 1
 0
LINE
8
default
6
CONTINUOUS
10
     -127.80
20
     -243.66
11
     -134.10
21
     -243.37
39
 0
62
 1
 0
LINE
8
default
6
CONTINUOUS
10
      134.10
20
     -243.37
11
      140.38
21
     -243.07
39
 0
62
 1
 0
LINE
8
default
6
CONTINUOUS
10
     -134.10
20
     -243.37
11
     -140.38
21
     -243.07
39
 0
62
 1
 0
LINE
8
default
6
CONTINUOUS
10
      140.38
20
     -243.07
11
      146.65
21
     -242.76
39
 0
62
 1
 0
LINE
8
default
6
CONTINUOUS
10
     -140.38
20
     -243.07
11
     -146.65
21
     -242.76
39
 0
62
 1
 0
LINE
8
default
6
CONTINUOUS
10
      146.65
20
     -242.76
11
      152.91
21
     -242.43
39
 0
62
 1
 0
LINE
8
default
6
CONTINUOUS
10
     -146.65
20
     -242.76
11
     -152.91
21
     -242.43
39
 0
62
 1
 0
LINE
8
default
6
CONTINUOUS
10
      152.91
20
     -242.43
11
      159.15
21
     -242.09
39
 0
62
 1
 0
LINE
8
default
6
CONTINUOUS
10
     -152.91
20
     -242.43
11
     -159.15
21
     -242.09
39
 0
62
 1
 0
LINE
8
default
6
CONTINUOUS
10
      159.15
20
     -242.09
11
      165.37
21
     -241.74
39
 0
62
 1
 0
LINE
8
default
6
CONTINUOUS
10
     -159.15
20
     -242.09
11
     -165.37
21
     -241.74
39
 0
62
 1
 0
LINE
8
default
6
CONTINUOUS
10
      165.37
20
     -241.74
11
      171.58
21
     -241.37
39
 0
62
 1
 0
LINE
8
default
6
CONTINUOUS
10
     -165.37
20
     -241.74
11
     -171.58
21
     -241.37
39
 0
62
 1
 0
LINE
8
default
6
CONTINUOUS
10
      171.58
20
     -241.37
11
      177.77
21
     -240.99
39
 0
62
 1
 0
LINE
8
default
6
CONTINUOUS
10
     -171.58
20
     -241.37
11
     -177.77
21
     -240.99
39
 0
62
 1
 0
LINE
8
default
6
CONTINUOUS
10
      177.77
20
     -240.99
11
      183.95
21
     -240.59
39
 0
62
 1
 0
LINE
8
default
6
CONTINUOUS
10
     -177.77
20
     -240.99
11
     -183.95
21
     -240.59
39
 0
62
 1
 0
LINE
8
default
6
CONTINUOUS
10
      183.95
20
     -240.58
11
      190.10
21
     -240.14
39
 0
62
 1
 0
LINE
8
default
6
CONTINUOUS
10
     -183.95
20
     -240.58
11
     -190.10
21
     -240.14
39
 0
62
 1
 0
LINE
8
default
6
CONTINUOUS
10
      190.10
20
     -240.14
11
      196.24
21
     -239.67
39
 0
62
 1
 0
LINE
8
default
6
CONTINUOUS
10
     -190.10
20
     -240.14
11
     -196.24
21
     -239.67
39
 0
62
 1
 0
LINE
8
default
6
CONTINUOUS
10
      196.24
20
     -239.67
11
      202.35
21
     -239.18
39
 0
62
 1
 0
LINE
8
default
6
CONTINUOUS
10
     -196.24
20
     -239.67
11
     -202.35
21
     -239.18
39
 0
62
 1
 0
LINE
8
default
6
CONTINUOUS
10
      202.35
20
     -239.18
11
      208.45
21
     -238.67
39
 0
62
 1
 0
LINE
8
default
6
CONTINUOUS
10
     -202.35
20
     -239.18
11
     -208.45
21
     -238.67
39
 0
62
 1
 0
LINE
8
default
6
CONTINUOUS
10
      208.45
20
     -238.67
11
      214.53
21
     -238.14
39
 0
62
 1
 0
LINE
8
default
6
CONTINUOUS
10
     -208.45
20
     -238.67
11
     -214.53
21
     -238.14
39
 0
62
 1
 0
LINE
8
default
6
CONTINUOUS
10
      214.53
20
     -238.14
11
      220.58
21
     -237.59
39
 0
62
 1
 0
LINE
8
default
6
CONTINUOUS
10
     -214.53
20
     -238.14
11
     -220.58
21
     -237.59
39
 0
62
 1
 0
LINE
8
default
6
CONTINUOUS
10
      220.58
20
     -237.59
11
      226.61
21
     -237.02
39
 0
62
 1
 0
LINE
8
default
6
CONTINUOUS
10
     -220.58
20
     -237.59
11
     -226.61
21
     -237.02
39
 0
62
 1
 0
LINE
8
default
6
CONTINUOUS
10
      226.61
20
     -237.02
11
      232.62
21
     -236.43
39
 0
62
 1
 0
LINE
8
default
6
CONTINUOUS
10
     -226.61
20
     -237.02
11
     -232.62
21
     -236.43
39
 0
62
 1
 0
LINE
8
default
6
CONTINUOUS
10
      232.62
20
     -236.43
11
      238.61
21
     -235.82
39
 0
62
 1
 0
LINE
8
default
6
CONTINUOUS
10
     -232.62
20
     -236.43
11
     -238.61
21
     -235.82
39
 0
62
 1
 0
LINE
8
default
6
CONTINUOUS
10
      238.61
20
     -235.82
11
      244.57
21
     -235.20
39
 0
62
 1
 0
LINE
8
default
6
CONTINUOUS
10
     -238.61
20
     -235.82
11
     -244.57
21
     -235.20
39
 0
62
 1
 0
LINE
8
default
6
CONTINUOUS
10
      244.57
20
     -235.20
11
      250.50
21
     -234.55
39
 0
62
 1
 0
LINE
8
default
6
CONTINUOUS
10
     -244.57
20
     -235.20
11
     -250.50
21
     -234.55
39
 0
62
 1
 0
LINE
8
default
6
CONTINUOUS
10
      250.50
20
     -234.55
11
      256.42
21
     -233.90
39
 0
62
 1
 0
LINE
8
default
6
CONTINUOUS
10
     -250.50
20
     -234.55
11
     -256.42
21
     -233.90
39
 0
62
 1
 0
LINE
8
default
6
CONTINUOUS
10
      256.42
20
     -233.90
11
      262.30
21
     -233.22
39
 0
62
 1
 0
LINE
8
default
6
CONTINUOUS
10
     -256.42
20
     -233.90
11
     -262.30
21
     -233.22
39
 0
62
 1
 0
LINE
8
default
6
CONTINUOUS
10
      262.30
20
     -233.22
11
      268.16
21
     -232.53
39
 0
62
 1
 0
LINE
8
default
6
CONTINUOUS
10
     -262.30
20
     -233.22
11
     -268.16
21
     -232.53
39
 0
62
 1
 0
LINE
8
default
6
CONTINUOUS
10
      268.16
20
     -232.53
11
      274.00
21
     -231.82
39
 0
62
 1
 0
LINE
8
default
6
CONTINUOUS
10
     -268.16
20
     -232.53
11
     -274.00
21
     -231.82
39
 0
62
 1
 0
LINE
8
default
6
CONTINUOUS
10
      274.00
20
     -231.82
11
      279.80
21
     -231.10
39
 0
62
 1
 0
LINE
8
default
6
CONTINUOUS
10
     -274.00
20
     -231.82
11
     -279.80
21
     -231.10
39
 0
62
 1
 0
LINE
8
default
6
CONTINUOUS
10
      279.80
20
     -231.10
11
      285.58
21
     -230.36
39
 0
62
 1
 0
LINE
8
default
6
CONTINUOUS
10
     -279.80
20
     -231.10
11
     -285.58
21
     -230.36
39
 0
62
 1
 0
LINE
8
default
6
CONTINUOUS
10
      285.58
20
     -230.36
11
      291.33
21
     -229.61
39
 0
62
 1
 0
LINE
8
default
6
CONTINUOUS
10
     -285.58
20
     -230.36
11
     -291.33
21
     -229.61
39
 0
62
 1
 0
LINE
8
default
6
CONTINUOUS
10
      291.33
20
     -229.61
11
      297.05
21
     -228.84
39
 0
62
 1
 0
LINE
8
default
6
CONTINUOUS
10
     -291.33
20
     -229.61
11
     -297.05
21
     -228.84
39
 0
62
 1
 0
LINE
8
default
6
CONTINUOUS
10
      297.05
20
     -228.84
11
      302.74
21
     -228.06
39
 0
62
 1
 0
LINE
8
default
6
CONTINUOUS
10
     -297.05
20
     -228.84
11
     -302.74
21
     -228.06
39
 0
62
 1
 0
LINE
8
default
6
CONTINUOUS
10
      302.74
20
     -228.06
11
      308.40
21
     -227.26
39
 0
62
 1
 0
LINE
8
default
6
CONTINUOUS
10
     -302.74
20
     -228.06
11
     -308.40
21
     -227.26
39
 0
62
 1
 0
LINE
8
default
6
CONTINUOUS
10
      308.40
20
     -227.26
11
      314.03
21
     -226.44
39
 0
62
 1
 0
LINE
8
default
6
CONTINUOUS
10
     -308.40
20
     -227.26
11
     -314.03
21
     -226.44
39
 0
62
 1
 0
LINE
8
default
6
CONTINUOUS
10
      314.03
20
     -226.44
11
      319.63
21
     -225.62
39
 0
62
 1
 0
LINE
8
default
6
CONTINUOUS
10
     -314.03
20
     -226.44
11
     -319.63
21
     -225.62
39
 0
62
 1
 0
LINE
8
default
6
CONTINUOUS
10
      319.63
20
     -225.62
11
      325.20
21
     -224.78
39
 0
62
 1
 0
LINE
8
default
6
CONTINUOUS
10
     -319.63
20
     -225.62
11
     -325.20
21
     -224.78
39
 0
62
 1
 0
LINE
8
default
6
CONTINUOUS
10
      325.20
20
     -224.78
11
      330.73
21
     -223.92
39
 0
62
 1
 0
LINE
8
default
6
CONTINUOUS
10
     -325.20
20
     -224.78
11
     -330.73
21
     -223.92
39
 0
62
 1
 0
LINE
8
default
6
CONTINUOUS
10
      330.73
20
     -223.92
11
      336.23
21
     -223.05
39
 0
62
 1
 0
LINE
8
default
6
CONTINUOUS
10
     -330.73
20
     -223.92
11
     -336.23
21
     -223.05
39
 0
62
 1
 0
LINE
8
default
6
CONTINUOUS
10
      336.23
20
     -223.05
11
      341.70
21
     -222.17
39
 0
62
 1
 0
LINE
8
default
6
CONTINUOUS
10
     -336.23
20
     -223.05
11
     -341.70
21
     -222.17
39
 0
62
 1
 0
LINE
8
default
6
CONTINUOUS
10
      341.70
20
     -222.17
11
      347.13
21
     -221.27
39
 0
62
 1
 0
LINE
8
default
6
CONTINUOUS
10
     -341.70
20
     -222.17
11
     -347.13
21
     -221.27
39
 0
62
 1
 0
LINE
8
default
6
CONTINUOUS
10
      347.13
20
     -221.27
11
      352.53
21
     -220.36
39
 0
62
 1
 0
LINE
8
default
6
CONTINUOUS
10
     -347.13
20
     -221.27
11
     -352.53
21
     -220.36
39
 0
62
 1
 0
LINE
8
default
6
CONTINUOUS
10
      352.53
20
     -220.36
11
      357.90
21
     -219.44
39
 0
62
 1
 0
LINE
8
default
6
CONTINUOUS
10
     -352.53
20
     -220.36
11
     -357.90
21
     -219.44
39
 0
62
 1
 0
LINE
8
default
6
CONTINUOUS
10
      357.90
20
     -219.44
11
      363.22
21
     -218.50
39
 0
62
 1
 0
LINE
8
default
6
CONTINUOUS
10
     -357.90
20
     -219.44
11
     -363.22
21
     -218.50
39
 0
62
 1
 0
LINE
8
default
6
CONTINUOUS
10
      363.22
20
     -218.50
11
      368.51
21
     -217.56
39
 0
62
 1
 0
LINE
8
default
6
CONTINUOUS
10
     -363.22
20
     -218.50
11
     -368.51
21
     -217.56
39
 0
62
 1
 0
LINE
8
default
6
CONTINUOUS
10
      368.51
20
     -217.56
11
      373.77
21
     -216.60
39
 0
62
 1
 0
LINE
8
default
6
CONTINUOUS
10
     -368.51
20
     -217.56
11
     -373.77
21
     -216.60
39
 0
62
 1
 0
LINE
8
default
6
CONTINUOUS
10
      373.77
20
     -216.60
11
      378.98
21
     -215.62
39
 0
62
 1
 0
LINE
8
default
6
CONTINUOUS
10
     -373.77
20
     -216.60
11
     -378.98
21
     -215.62
39
 0
62
 1
 0
LINE
8
default
6
CONTINUOUS
10
      378.98
20
     -215.62
11
      384.16
21
     -214.64
39
 0
62
 1
 0
LINE
8
default
6
CONTINUOUS
10
     -378.98
20
     -215.62
11
     -384.16
21
     -214.64
39
 0
62
 1
 0
LINE
8
default
6
CONTINUOUS
10
      384.16
20
     -214.64
11
      389.30
21
     -213.64
39
 0
62
 1
 0
LINE
8
default
6
CONTINUOUS
10
     -384.16
20
     -214.64
11
     -389.30
21
     -213.64
39
 0
62
 1
 0
LINE
8
default
6
CONTINUOUS
10
      389.30
20
     -213.64
11
      394.41
21
     -212.63
39
 0
62
 1
 0
LINE
8
default
6
CONTINUOUS
10
     -389.30
20
     -213.64
11
     -394.41
21
     -212.63
39
 0
62
 1
 0
LINE
8
default
6
CONTINUOUS
10
      394.41
20
     -212.63
11
      399.47
21
     -211.61
39
 0
62
 1
 0
LINE
8
default
6
CONTINUOUS
10
     -394.41
20
     -212.63
11
     -399.47
21
     -211.61
39
 0
62
 1
 0
LINE
8
default
6
CONTINUOUS
10
      399.47
20
     -211.61
11
      404.49
21
     -210.58
39
 0
62
 1
 0
LINE
8
default
6
CONTINUOUS
10
     -399.47
20
     -211.61
11
     -404.49
21
     -210.58
39
 0
62
 1
 0
LINE
8
default
6
CONTINUOUS
10
      404.49
20
     -210.58
11
      409.47
21
     -209.53
39
 0
62
 1
 0
LINE
8
default
6
CONTINUOUS
10
     -404.49
20
     -210.58
11
     -409.47
21
     -209.53
39
 0
62
 1
 0
LINE
8
default
6
CONTINUOUS
10
      409.47
20
     -209.53
11
      414.41
21
     -208.48
39
 0
62
 1
 0
LINE
8
default
6
CONTINUOUS
10
     -409.47
20
     -209.53
11
     -414.41
21
     -208.48
39
 0
62
 1
 0
LINE
8
default
6
CONTINUOUS
10
      414.41
20
     -208.48
11
      419.31
21
     -207.41
39
 0
62
 1
 0
LINE
8
default
6
CONTINUOUS
10
     -414.41
20
     -208.48
11
     -419.31
21
     -207.41
39
 0
62
 1
 0
LINE
8
default
6
CONTINUOUS
10
      419.31
20
     -207.41
11
      424.17
21
     -206.34
39
 0
62
 1
 0
LINE
8
default
6
CONTINUOUS
10
     -419.31
20
     -207.41
11
     -424.17
21
     -206.34
39
 0
62
 1
 0
LINE
8
default
6
CONTINUOUS
10
      424.17
20
     -206.34
11
      428.98
21
     -205.25
39
 0
62
 1
 0
LINE
8
default
6
CONTINUOUS
10
     -424.17
20
     -206.34
11
     -428.98
21
     -205.25
39
 0
62
 1
 0
LINE
8
default
6
CONTINUOUS
10
      428.98
20
     -205.25
11
      433.76
21
     -204.15
39
 0
62
 1
 0
LINE
8
default
6
CONTINUOUS
10
     -428.98
20
     -205.25
11
     -433.76
21
     -204.15
39
 0
62
 1
 0
LINE
8
default
6
CONTINUOUS
10
      433.76
20
     -204.15
11
      438.48
21
     -203.04
39
 0
62
 1
 0
LINE
8
default
6
CONTINUOUS
10
     -433.76
20
     -204.15
11
     -438.48
21
     -203.04
39
 0
62
 1
 0
LINE
8
default
6
CONTINUOUS
10
      438.48
20
     -203.04
11
      443.17
21
     -201.92
39
 0
62
 1
 0
LINE
8
default
6
CONTINUOUS
10
     -438.48
20
     -203.04
11
     -443.17
21
     -201.92
39
 0
62
 1
 0
LINE
8
default
6
CONTINUOUS
10
      443.17
20
     -201.92
11
      447.81
21
     -200.79
39
 0
62
 1
 0
LINE
8
default
6
CONTINUOUS
10
     -443.17
20
     -201.92
11
     -447.81
21
     -200.79
39
 0
62
 1
 0
LINE
8
default
6
CONTINUOUS
10
      447.81
20
     -200.79
11
      452.41
21
     -199.65
39
 0
62
 1
 0
LINE
8
default
6
CONTINUOUS
10
     -447.81
20
     -200.79
11
     -452.41
21
     -199.65
39
 0
62
 1
 0
LINE
8
default
6
CONTINUOUS
10
      452.41
20
     -199.65
11
      456.96
21
     -198.50
39
 0
62
 1
 0
LINE
8
default
6
CONTINUOUS
10
     -452.41
20
     -199.65
11
     -456.96
21
     -198.50
39
 0
62
 1
 0
LINE
8
default
6
CONTINUOUS
10
      456.96
20
     -198.50
11
      461.46
21
     -197.35
39
 0
62
 1
 0
LINE
8
default
6
CONTINUOUS
10
     -456.96
20
     -198.50
11
     -461.46
21
     -197.35
39
 0
62
 1
 0
LINE
8
default
6
CONTINUOUS
10
      461.46
20
     -197.35
11
      465.92
21
     -196.18
39
 0
62
 1
 0
LINE
8
default
6
CONTINUOUS
10
     -461.46
20
     -197.35
11
     -465.92
21
     -196.18
39
 0
62
 1
 0
LINE
8
default
6
CONTINUOUS
10
      465.92
20
     -196.18
11
      470.33
21
     -195.00
39
 0
62
 1
 0
LINE
8
default
6
CONTINUOUS
10
     -465.92
20
     -196.18
11
     -470.33
21
     -195.00
39
 0
62
 1
 0
LINE
8
default
6
CONTINUOUS
10
      470.33
20
     -195.00
11
      474.70
21
     -193.81
39
 0
62
 1
 0
LINE
8
default
6
CONTINUOUS
10
     -470.33
20
     -195.00
11
     -474.70
21
     -193.81
39
 0
62
 1
 0
LINE
8
default
6
CONTINUOUS
10
      474.70
20
     -193.81
11
      479.01
21
     -192.62
39
 0
62
 1
 0
LINE
8
default
6
CONTINUOUS
10
     -474.70
20
     -193.81
11
     -479.01
21
     -192.62
39
 0
62
 1
 0
LINE
8
default
6
CONTINUOUS
10
      479.01
20
     -192.62
11
      483.28
21
     -191.42
39
 0
62
 1
 0
LINE
8
default
6
CONTINUOUS
10
     -479.01
20
     -192.62
11
     -483.28
21
     -191.42
39
 0
62
 1
 0
LINE
8
default
6
CONTINUOUS
10
      483.28
20
     -191.42
11
      487.50
21
     -190.20
39
 0
62
 1
 0
LINE
8
default
6
CONTINUOUS
10
     -483.28
20
     -191.42
11
     -487.50
21
     -190.20
39
 0
62
 1
 0
LINE
8
default
6
CONTINUOUS
10
      487.50
20
     -190.20
11
      491.68
21
     -188.98
39
 0
62
 1
 0
LINE
8
default
6
CONTINUOUS
10
     -487.50
20
     -190.20
11
     -491.68
21
     -188.98
39
 0
62
 1
 0
LINE
8
default
6
CONTINUOUS
10
      491.68
20
     -188.98
11
      495.80
21
     -187.75
39
 0
62
 1
 0
LINE
8
default
6
CONTINUOUS
10
     -491.68
20
     -188.98
11
     -495.80
21
     -187.75
39
 0
62
 1
 0
LINE
8
default
6
CONTINUOUS
10
      495.80
20
     -187.75
11
      499.87
21
     -186.52
39
 0
62
 1
 0
LINE
8
default
6
CONTINUOUS
10
     -495.80
20
     -187.75
11
     -499.87
21
     -186.52
39
 0
62
 1
 0
LINE
8
default
6
CONTINUOUS
10
      499.87
20
     -186.52
11
      503.90
21
     -185.27
39
 0
62
 1
 0
LINE
8
default
6
CONTINUOUS
10
     -499.87
20
     -186.52
11
     -503.90
21
     -185.27
39
 0
62
 1
 0
LINE
8
default
6
CONTINUOUS
10
      503.90
20
     -185.27
11
      507.87
21
     -184.02
39
 0
62
 1
 0
LINE
8
default
6
CONTINUOUS
10
     -503.90
20
     -185.27
11
     -507.87
21
     -184.02
39
 0
62
 1
 0
LINE
8
default
6
CONTINUOUS
10
      507.87
20
     -184.02
11
      511.79
21
     -182.76
39
 0
62
 1
 0
LINE
8
default
6
CONTINUOUS
10
     -507.87
20
     -184.02
11
     -511.79
21
     -182.76
39
 0
62
 1
 0
LINE
8
default
6
CONTINUOUS
10
      511.79
20
     -182.76
11
      515.67
21
     -181.49
39
 0
62
 1
 0
LINE
8
default
6
CONTINUOUS
10
     -511.79
20
     -182.76
11
     -515.67
21
     -181.49
39
 0
62
 1
 0
LINE
8
default
6
CONTINUOUS
10
      515.67
20
     -181.49
11
      519.49
21
     -180.21
39
 0
62
 1
 0
LINE
8
default
6
CONTINUOUS
10
     -515.67
20
     -181.49
11
     -519.49
21
     -180.21
39
 0
62
 1
 0
LINE
8
default
6
CONTINUOUS
10
      519.49
20
     -180.21
11
      523.25
21
     -178.93
39
 0
62
 1
 0
LINE
8
default
6
CONTINUOUS
10
     -519.49
20
     -180.21
11
     -523.25
21
     -178.93
39
 0
62
 1
 0
LINE
8
default
6
CONTINUOUS
10
      523.25
20
     -178.93
11
      526.97
21
     -177.64
39
 0
62
 1
 0
LINE
8
default
6
CONTINUOUS
10
     -523.25
20
     -178.93
11
     -526.97
21
     -177.64
39
 0
62
 1
 0
LINE
8
default
6
CONTINUOUS
10
      526.97
20
     -177.64
11
      527.00
21
     -177.63
39
 0
62
 1
 0
LINE
8
default
6
CONTINUOUS
10
     -526.97
20
     -177.64
11
     -527.00
21
     -177.63
39
 0
62
 1
 0
LINE
8
default
6
CONTINUOUS
10
      527.00
20
     -123.24
11
      527.00
21
     -177.63
39
 0
62
 1
 0
LINE
8
default
6
CONTINUOUS
10
     -527.00
20
     -123.24
11
     -527.00
21
     -177.63
39
 0
62
 1
 0
LINE
8
default
6
CONTINUOUS
10
         .00
20
      621.83
11
        1.71
21
      621.83
39
 0
62
 3
 0
LINE
8
default
6
CONTINUOUS
10
         .00
20
      621.83
11
       -1.71
21
      621.83
39
 0
62
 1
 0
LINE
8
default
6
CONTINUOUS
10
        1.71
20
      621.83
11
        3.41
21
      621.82
39
 0
62
 3
 0
LINE
8
default
6
CONTINUOUS
10
       -1.71
20
      621.83
11
       -3.41
21
      621.82
39
 0
62
 1
 0
LINE
8
default
6
CONTINUOUS
10
        3.41
20
      621.82
11
        5.12
21
      621.81
39
 0
62
 3
 0
LINE
8
default
6
CONTINUOUS
10
       -3.41
20
      621.82
11
       -5.12
21
      621.81
39
 0
62
 1
 0
LINE
8
default
6
CONTINUOUS
10
        5.12
20
      621.81
11
        6.83
21
      621.80
39
 0
62
 3
 0
LINE
8
default
6
CONTINUOUS
10
       -5.12
20
      621.81
11
       -6.83
21
      621.80
39
 0
62
 1
 0
LINE
8
default
6
CONTINUOUS
10
        6.83
20
      621.80
11
        8.53
21
      621.79
39
 0
62
 3
 0
LINE
8
default
6
CONTINUOUS
10
       -6.83
20
      621.80
11
       -8.53
21
      621.79
39
 0
62
 1
 0
LINE
8
default
6
CONTINUOUS
10
        8.53
20
      621.79
11
       10.24
21
      621.77
39
 0
62
 3
 0
LINE
8
default
6
CONTINUOUS
10
       -8.53
20
      621.79
11
      -10.24
21
      621.77
39
 0
62
 1
 0
LINE
8
default
6
CONTINUOUS
10
       10.24
20
      621.77
11
       11.95
21
      621.75
39
 0
62
 3
 0
LINE
8
default
6
CONTINUOUS
10
      -10.24
20
      621.77
11
      -11.95
21
      621.75
39
 0
62
 1
 0
LINE
8
default
6
CONTINUOUS
10
       11.95
20
      621.75
11
       13.65
21
      621.73
39
 0
62
 3
 0
LINE
8
default
6
CONTINUOUS
10
      -11.95
20
      621.75
11
      -13.65
21
      621.73
39
 0
62
 1
 0
LINE
8
default
6
CONTINUOUS
10
       13.65
20
      621.73
11
       15.36
21
      621.70
39
 0
62
 3
 0
LINE
8
default
6
CONTINUOUS
10
      -13.65
20
      621.73
11
      -15.36
21
      621.70
39
 0
62
 1
 0
LINE
8
default
6
CONTINUOUS
10
       15.36
20
      621.70
11
       17.06
21
      621.68
39
 0
62
 3
 0
LINE
8
default
6
CONTINUOUS
10
      -15.36
20
      621.70
11
      -17.06
21
      621.68
39
 0
62
 1
 0
LINE
8
default
6
CONTINUOUS
10
       17.06
20
      621.68
11
       18.77
21
      621.64
39
 0
62
 3
 0
LINE
8
default
6
CONTINUOUS
10
      -17.06
20
      621.68
11
      -18.77
21
      621.64
39
 0
62
 1
 0
LINE
8
default
6
CONTINUOUS
10
       18.77
20
      621.64
11
       20.48
21
      621.61
39
 0
62
 3
 0
LINE
8
default
6
CONTINUOUS
10
      -18.77
20
      621.64
11
      -20.48
21
      621.61
39
 0
62
 1
 0
LINE
8
default
6
CONTINUOUS
10
       20.48
20
      621.61
11
       22.18
21
      621.57
39
 0
62
 3
 0
LINE
8
default
6
CONTINUOUS
10
      -20.48
20
      621.61
11
      -22.18
21
      621.57
39
 0
62
 1
 0
LINE
8
default
6
CONTINUOUS
10
       22.18
20
      621.57
11
       23.89
21
      621.53
39
 0
62
 3
 0
LINE
8
default
6
CONTINUOUS
10
      -22.18
20
      621.57
11
      -23.89
21
      621.53
39
 0
62
 1
 0
LINE
8
default
6
CONTINUOUS
10
       23.89
20
      621.53
11
       25.59
21
      621.49
39
 0
62
 3
 0
LINE
8
default
6
CONTINUOUS
10
      -23.89
20
      621.53
11
      -25.59
21
      621.49
39
 0
62
 1
 0
LINE
8
default
6
CONTINUOUS
10
       25.59
20
      621.49
11
       27.30
21
      621.44
39
 0
62
 3
 0
LINE
8
default
6
CONTINUOUS
10
      -25.59
20
      621.49
11
      -27.30
21
      621.44
39
 0
62
 1
 0
LINE
8
default
6
CONTINUOUS
10
       27.30
20
      621.44
11
       29.01
21
      621.39
39
 0
62
 3
 0
LINE
8
default
6
CONTINUOUS
10
      -27.30
20
      621.44
11
      -29.01
21
      621.39
39
 0
62
 1
 0
LINE
8
default
6
CONTINUOUS
10
       29.01
20
      621.39
11
       30.71
21
      621.33
39
 0
62
 3
 0
LINE
8
default
6
CONTINUOUS
10
      -29.01
20
      621.39
11
      -30.71
21
      621.33
39
 0
62
 1
 0
LINE
8
default
6
CONTINUOUS
10
       30.71
20
      621.33
11
       32.42
21
      621.28
39
 0
62
 3
 0
LINE
8
default
6
CONTINUOUS
10
      -30.71
20
      621.33
11
      -32.42
21
      621.28
39
 0
62
 1
 0
LINE
8
default
6
CONTINUOUS
10
       32.42
20
      621.28
11
       34.12
21
      621.22
39
 0
62
 3
 0
LINE
8
default
6
CONTINUOUS
10
      -32.42
20
      621.28
11
      -34.12
21
      621.22
39
 0
62
 1
 0
LINE
8
default
6
CONTINUOUS
10
       34.12
20
      621.22
11
       35.83
21
      621.16
39
 0
62
 3
 0
LINE
8
default
6
CONTINUOUS
10
      -34.12
20
      621.22
11
      -35.83
21
      621.16
39
 0
62
 1
 0
LINE
8
default
6
CONTINUOUS
10
       35.83
20
      621.16
11
       37.53
21
      621.09
39
 0
62
 3
 0
LINE
8
default
6
CONTINUOUS
10
      -35.83
20
      621.16
11
      -37.53
21
      621.09
39
 0
62
 1
 0
LINE
8
default
6
CONTINUOUS
10
       37.53
20
      621.09
11
       39.24
21
      621.02
39
 0
62
 3
 0
LINE
8
default
6
CONTINUOUS
10
      -37.53
20
      621.09
11
      -39.24
21
      621.02
39
 0
62
 1
 0
LINE
8
default
6
CONTINUOUS
10
       39.24
20
      621.02
11
       40.94
21
      620.95
39
 0
62
 3
 0
LINE
8
default
6
CONTINUOUS
10
      -39.24
20
      621.02
11
      -40.94
21
      620.95
39
 0
62
 1
 0
LINE
8
default
6
CONTINUOUS
10
       40.94
20
      620.95
11
       42.65
21
      620.88
39
 0
62
 3
 0
LINE
8
default
6
CONTINUOUS
10
      -40.94
20
      620.95
11
      -42.65
21
      620.88
39
 0
62
 1
 0
LINE
8
default
6
CONTINUOUS
10
       42.65
20
      620.88
11
       44.35
21
      620.80
39
 0
62
 3
 0
LINE
8
default
6
CONTINUOUS
10
      -42.65
20
      620.88
11
      -44.35
21
      620.80
39
 0
62
 1
 0
LINE
8
default
6
CONTINUOUS
10
       44.35
20
      620.80
11
       46.06
21
      620.72
39
 0
62
 3
 0
LINE
8
default
6
CONTINUOUS
10
      -44.35
20
      620.80
11
      -46.06
21
      620.72
39
 0
62
 1
 0
LINE
8
default
6
CONTINUOUS
10
       46.06
20
      620.72
11
       47.76
21
      620.63
39
 0
62
 3
 0
LINE
8
default
6
CONTINUOUS
10
      -46.06
20
      620.72
11
      -47.76
21
      620.63
39
 0
62
 1
 0
LINE
8
default
6
CONTINUOUS
10
       47.76
20
      620.63
11
       49.47
21
      620.55
39
 0
62
 3
 0
LINE
8
default
6
CONTINUOUS
10
      -47.76
20
      620.63
11
      -49.47
21
      620.55
39
 0
62
 1
 0
LINE
8
default
6
CONTINUOUS
10
       49.47
20
      620.55
11
       51.17
21
      620.46
39
 0
62
 3
 0
LINE
8
default
6
CONTINUOUS
10
      -49.47
20
      620.55
11
      -51.17
21
      620.46
39
 0
62
 1
 0
LINE
8
default
6
CONTINUOUS
10
       51.17
20
      620.46
11
       52.87
21
      620.36
39
 0
62
 3
 0
LINE
8
default
6
CONTINUOUS
10
      -51.17
20
      620.46
11
      -52.87
21
      620.36
39
 0
62
 1
 0
LINE
8
default
6
CONTINUOUS
10
       52.87
20
      620.36
11
       54.58
21
      620.27
39
 0
62
 3
 0
LINE
8
default
6
CONTINUOUS
10
      -52.87
20
      620.36
11
      -54.58
21
      620.27
39
 0
62
 1
 0
LINE
8
default
6
CONTINUOUS
10
       54.58
20
      620.27
11
       56.28
21
      620.17
39
 0
62
 3
 0
LINE
8
default
6
CONTINUOUS
10
      -54.58
20
      620.27
11
      -56.28
21
      620.17
39
 0
62
 1
 0
LINE
8
default
6
CONTINUOUS
10
       56.28
20
      620.17
11
       57.99
21
      620.07
39
 0
62
 3
 0
LINE
8
default
6
CONTINUOUS
10
      -56.28
20
      620.17
11
      -57.99
21
      620.07
39
 0
62
 1
 0
LINE
8
default
6
CONTINUOUS
10
       57.99
20
      620.07
11
       59.69
21
      619.96
39
 0
62
 3
 0
LINE
8
default
6
CONTINUOUS
10
      -57.99
20
      620.07
11
      -59.69
21
      619.96
39
 0
62
 1
 0
LINE
8
default
6
CONTINUOUS
10
       59.69
20
      619.96
11
       61.39
21
      619.85
39
 0
62
 3
 0
LINE
8
default
6
CONTINUOUS
10
      -59.69
20
      619.96
11
      -61.39
21
      619.85
39
 0
62
 1
 0
LINE
8
default
6
CONTINUOUS
10
       61.39
20
      619.85
11
       63.09
21
      619.74
39
 0
62
 3
 0
LINE
8
default
6
CONTINUOUS
10
      -61.39
20
      619.85
11
      -63.09
21
      619.74
39
 0
62
 1
 0
LINE
8
default
6
CONTINUOUS
10
       63.09
20
      619.74
11
       64.80
21
      619.63
39
 0
62
 3
 0
LINE
8
default
6
CONTINUOUS
10
      -63.09
20
      619.74
11
      -64.80
21
      619.63
39
 0
62
 1
 0
LINE
8
default
6
CONTINUOUS
10
       64.80
20
      619.63
11
       66.50
21
      619.51
39
 0
62
 3
 0
LINE
8
default
6
CONTINUOUS
10
      -64.80
20
      619.63
11
      -66.50
21
      619.51
39
 0
62
 1
 0
LINE
8
default
6
CONTINUOUS
10
       66.50
20
      619.51
11
       68.20
21
      619.39
39
 0
62
 3
 0
LINE
8
default
6
CONTINUOUS
10
      -66.50
20
      619.51
11
      -68.20
21
      619.39
39
 0
62
 1
 0
LINE
8
default
6
CONTINUOUS
10
       68.20
20
      619.39
11
       69.90
21
      619.27
39
 0
62
 3
 0
LINE
8
default
6
CONTINUOUS
10
      -68.20
20
      619.39
11
      -69.90
21
      619.27
39
 0
62
 1
 0
LINE
8
default
6
CONTINUOUS
10
       69.90
20
      619.27
11
       71.61
21
      619.14
39
 0
62
 3
 0
LINE
8
default
6
CONTINUOUS
10
      -69.90
20
      619.27
11
      -71.61
21
      619.14
39
 0
62
 1
 0
LINE
8
default
6
CONTINUOUS
10
       71.61
20
      619.14
11
       73.31
21
      619.01
39
 0
62
 3
 0
LINE
8
default
6
CONTINUOUS
10
      -71.61
20
      619.14
11
      -73.31
21
      619.01
39
 0
62
 1
 0
LINE
8
default
6
CONTINUOUS
10
       73.31
20
      619.01
11
       75.01
21
      618.88
39
 0
62
 3
 0
LINE
8
default
6
CONTINUOUS
10
      -73.31
20
      619.01
11
      -75.01
21
      618.88
39
 0
62
 1
 0
LINE
8
default
6
CONTINUOUS
10
       75.01
20
      618.88
11
       76.71
21
      618.74
39
 0
62
 3
 0
LINE
8
default
6
CONTINUOUS
10
      -75.01
20
      618.88
11
      -76.71
21
      618.74
39
 0
62
 1
 0
LINE
8
default
6
CONTINUOUS
10
       76.71
20
      618.74
11
       78.41
21
      618.61
39
 0
62
 3
 0
LINE
8
default
6
CONTINUOUS
10
      -76.71
20
      618.74
11
      -78.41
21
      618.61
39
 0
62
 1
 0
LINE
8
default
6
CONTINUOUS
10
       78.41
20
      618.61
11
       80.11
21
      618.46
39
 0
62
 3
 0
LINE
8
default
6
CONTINUOUS
10
      -78.41
20
      618.61
11
      -80.11
21
      618.46
39
 0
62
 1
 0
LINE
8
default
6
CONTINUOUS
10
       80.11
20
      618.46
11
       81.81
21
      618.32
39
 0
62
 3
 0
LINE
8
default
6
CONTINUOUS
10
      -80.11
20
      618.46
11
      -81.81
21
      618.32
39
 0
62
 1
 0
LINE
8
default
6
CONTINUOUS
10
       81.81
20
      618.32
11
       83.51
21
      618.17
39
 0
62
 3
 0
LINE
8
default
6
CONTINUOUS
10
      -81.81
20
      618.32
11
      -83.51
21
      618.17
39
 0
62
 1
 0
LINE
8
default
6
CONTINUOUS
10
       83.51
20
      618.17
11
       85.21
21
      618.02
39
 0
62
 3
 0
LINE
8
default
6
CONTINUOUS
10
      -83.51
20
      618.17
11
      -85.21
21
      618.02
39
 0
62
 1
 0
LINE
8
default
6
CONTINUOUS
10
       85.21
20
      618.02
11
       86.91
21
      617.87
39
 0
62
 3
 0
LINE
8
default
6
CONTINUOUS
10
      -85.21
20
      618.02
11
      -86.91
21
      617.87
39
 0
62
 1
 0
LINE
8
default
6
CONTINUOUS
10
       86.91
20
      617.87
11
       88.61
21
      617.71
39
 0
62
 3
 0
LINE
8
default
6
CONTINUOUS
10
      -86.91
20
      617.87
11
      -88.61
21
      617.71
39
 0
62
 1
 0
LINE
8
default
6
CONTINUOUS
10
       88.61
20
      617.71
11
       90.31
21
      617.55
39
 0
62
 3
 0
LINE
8
default
6
CONTINUOUS
10
      -88.61
20
      617.71
11
      -90.31
21
      617.55
39
 0
62
 1
 0
LINE
8
default
6
CONTINUOUS
10
       90.31
20
      617.55
11
       92.01
21
      617.39
39
 0
62
 3
 0
LINE
8
default
6
CONTINUOUS
10
      -90.31
20
      617.55
11
      -92.01
21
      617.39
39
 0
62
 1
 0
LINE
8
default
6
CONTINUOUS
10
       92.01
20
      617.39
11
       93.71
21
      617.22
39
 0
62
 3
 0
LINE
8
default
6
CONTINUOUS
10
      -92.01
20
      617.39
11
      -93.71
21
      617.22
39
 0
62
 1
 0
LINE
8
default
6
CONTINUOUS
10
       93.71
20
      617.22
11
       95.40
21
      617.05
39
 0
62
 3
 0
LINE
8
default
6
CONTINUOUS
10
      -93.71
20
      617.22
11
      -95.40
21
      617.05
39
 0
62
 1
 0
LINE
8
default
6
CONTINUOUS
10
       95.40
20
      617.05
11
       97.10
21
      616.88
39
 0
62
 3
 0
LINE
8
default
6
CONTINUOUS
10
      -95.40
20
      617.05
11
      -97.10
21
      616.88
39
 0
62
 1
 0
LINE
8
default
6
CONTINUOUS
10
       97.10
20
      616.88
11
       98.80
21
      616.71
39
 0
62
 3
 0
LINE
8
default
6
CONTINUOUS
10
      -97.10
20
      616.88
11
      -98.80
21
      616.71
39
 0
62
 1
 0
LINE
8
default
6
CONTINUOUS
10
       98.80
20
      616.71
11
      100.50
21
      616.53
39
 0
62
 3
 0
LINE
8
default
6
CONTINUOUS
10
      -98.80
20
      616.71
11
     -100.50
21
      616.53
39
 0
62
 1
 0
LINE
8
default
6
CONTINUOUS
10
      100.50
20
      616.53
11
      102.19
21
      616.35
39
 0
62
 3
 0
LINE
8
default
6
CONTINUOUS
10
     -100.50
20
      616.53
11
     -102.19
21
      616.35
39
 0
62
 1
 0
LINE
8
default
6
CONTINUOUS
10
      102.19
20
      616.35
11
      103.89
21
      616.16
39
 0
62
 3
 0
LINE
8
default
6
CONTINUOUS
10
     -102.19
20
      616.35
11
     -103.89
21
      616.16
39
 0
62
 1
 0
LINE
8
default
6
CONTINUOUS
10
      103.89
20
      616.16
11
      105.59
21
      615.98
39
 0
62
 3
 0
LINE
8
default
6
CONTINUOUS
10
     -103.89
20
      616.16
11
     -105.59
21
      615.98
39
 0
62
 1
 0
LINE
8
default
6
CONTINUOUS
10
      105.59
20
      615.98
11
      107.28
21
      615.79
39
 0
62
 3
 0
LINE
8
default
6
CONTINUOUS
10
     -105.59
20
      615.98
11
     -107.28
21
      615.79
39
 0
62
 1
 0
LINE
8
default
6
CONTINUOUS
10
      107.28
20
      615.79
11
      108.98
21
      615.59
39
 0
62
 3
 0
LINE
8
default
6
CONTINUOUS
10
     -107.28
20
      615.79
11
     -108.98
21
      615.59
39
 0
62
 1
 0
LINE
8
default
6
CONTINUOUS
10
      108.98
20
      615.59
11
      110.67
21
      615.40
39
 0
62
 3
 0
LINE
8
default
6
CONTINUOUS
10
     -108.98
20
      615.59
11
     -110.67
21
      615.40
39
 0
62
 1
 0
LINE
8
default
6
CONTINUOUS
10
      110.67
20
      615.40
11
      112.37
21
      615.20
39
 0
62
 3
 0
LINE
8
default
6
CONTINUOUS
10
     -110.67
20
      615.40
11
     -112.37
21
      615.20
39
 0
62
 1
 0
LINE
8
default
6
CONTINUOUS
10
      112.37
20
      615.20
11
      114.06
21
      615.00
39
 0
62
 3
 0
LINE
8
default
6
CONTINUOUS
10
     -112.37
20
      615.20
11
     -114.06
21
      615.00
39
 0
62
 1
 0
LINE
8
default
6
CONTINUOUS
10
      114.06
20
      615.00
11
      115.76
21
      614.79
39
 0
62
 3
 0
LINE
8
default
6
CONTINUOUS
10
     -114.06
20
      615.00
11
     -115.76
21
      614.79
39
 0
62
 1
 0
LINE
8
default
6
CONTINUOUS
10
      115.76
20
      614.79
11
      117.45
21
      614.58
39
 0
62
 3
 0
LINE
8
default
6
CONTINUOUS
10
     -115.76
20
      614.79
11
     -117.45
21
      614.58
39
 0
62
 1
 0
LINE
8
default
6
CONTINUOUS
10
      117.45
20
      614.58
11
      119.14
21
      614.37
39
 0
62
 3
 0
LINE
8
default
6
CONTINUOUS
10
     -117.45
20
      614.58
11
     -119.14
21
      614.37
39
 0
62
 1
 0
LINE
8
default
6
CONTINUOUS
10
      119.14
20
      614.37
11
      120.84
21
      614.16
39
 0
62
 3
 0
LINE
8
default
6
CONTINUOUS
10
     -119.14
20
      614.37
11
     -120.84
21
      614.16
39
 0
62
 1
 0
LINE
8
default
6
CONTINUOUS
10
      120.84
20
      614.16
11
      122.53
21
      613.94
39
 0
62
 3
 0
LINE
8
default
6
CONTINUOUS
10
     -120.84
20
      614.16
11
     -122.53
21
      613.94
39
 0
62
 1
 0
LINE
8
default
6
CONTINUOUS
10
      122.53
20
      613.94
11
      124.22
21
      613.72
39
 0
62
 3
 0
LINE
8
default
6
CONTINUOUS
10
     -122.53
20
      613.94
11
     -124.22
21
      613.72
39
 0
62
 1
 0
LINE
8
default
6
CONTINUOUS
10
      124.22
20
      613.72
11
      125.91
21
      613.50
39
 0
62
 3
 0
LINE
8
default
6
CONTINUOUS
10
     -124.22
20
      613.72
11
     -125.91
21
      613.50
39
 0
62
 1
 0
LINE
8
default
6
CONTINUOUS
10
      125.91
20
      613.50
11
      127.60
21
      613.27
39
 0
62
 3
 0
LINE
8
default
6
CONTINUOUS
10
     -125.91
20
      613.50
11
     -127.60
21
      613.27
39
 0
62
 1
 0
LINE
8
default
6
CONTINUOUS
10
      127.60
20
      613.27
11
      129.30
21
      613.04
39
 0
62
 3
 0
LINE
8
default
6
CONTINUOUS
10
     -127.60
20
      613.27
11
     -129.30
21
      613.04
39
 0
62
 1
 0
LINE
8
default
6
CONTINUOUS
10
      129.30
20
      613.04
11
      130.99
21
      612.81
39
 0
62
 3
 0
LINE
8
default
6
CONTINUOUS
10
     -129.30
20
      613.04
11
     -130.99
21
      612.81
39
 0
62
 1
 0
LINE
8
default
6
CONTINUOUS
10
      130.99
20
      612.81
11
      132.68
21
      612.57
39
 0
62
 3
 0
LINE
8
default
6
CONTINUOUS
10
     -130.99
20
      612.81
11
     -132.68
21
      612.57
39
 0
62
 1
 0
LINE
8
default
6
CONTINUOUS
10
      132.68
20
      612.57
11
      134.37
21
      612.33
39
 0
62
 3
 0
LINE
8
default
6
CONTINUOUS
10
     -132.68
20
      612.57
11
     -134.37
21
      612.33
39
 0
62
 1
 0
LINE
8
default
6
CONTINUOUS
10
      134.37
20
      612.33
11
      136.06
21
      612.09
39
 0
62
 3
 0
LINE
8
default
6
CONTINUOUS
10
     -134.37
20
      612.33
11
     -136.06
21
      612.09
39
 0
62
 1
 0
LINE
8
default
6
CONTINUOUS
10
      136.06
20
      612.09
11
      137.74
21
      611.85
39
 0
62
 3
 0
LINE
8
default
6
CONTINUOUS
10
     -136.06
20
      612.09
11
     -137.74
21
      611.85
39
 0
62
 1
 0
LINE
8
default
6
CONTINUOUS
10
      137.74
20
      611.85
11
      139.43
21
      611.60
39
 0
62
 3
 0
LINE
8
default
6
CONTINUOUS
10
     -137.74
20
      611.85
11
     -139.43
21
      611.60
39
 0
62
 1
 0
LINE
8
default
6
CONTINUOUS
10
      139.43
20
      611.60
11
      141.12
21
      611.35
39
 0
62
 3
 0
LINE
8
default
6
CONTINUOUS
10
     -139.43
20
      611.60
11
     -141.12
21
      611.35
39
 0
62
 1
 0
LINE
8
default
6
CONTINUOUS
10
      141.12
20
      611.35
11
      142.81
21
      611.10
39
 0
62
 3
 0
LINE
8
default
6
CONTINUOUS
10
     -141.12
20
      611.35
11
     -142.81
21
      611.10
39
 0
62
 1
 0
LINE
8
default
6
CONTINUOUS
10
      142.81
20
      611.10
11
      144.50
21
      610.84
39
 0
62
 3
 0
LINE
8
default
6
CONTINUOUS
10
     -142.81
20
      611.10
11
     -144.50
21
      610.84
39
 0
62
 1
 0
LINE
8
default
6
CONTINUOUS
10
      144.50
20
      610.84
11
      146.18
21
      610.58
39
 0
62
 3
 0
LINE
8
default
6
CONTINUOUS
10
     -144.50
20
      610.84
11
     -146.18
21
      610.58
39
 0
62
 1
 0
LINE
8
default
6
CONTINUOUS
10
      146.18
20
      610.58
11
      147.87
21
      610.32
39
 0
62
 3
 0
LINE
8
default
6
CONTINUOUS
10
     -146.18
20
      610.58
11
     -147.87
21
      610.32
39
 0
62
 1
 0
LINE
8
default
6
CONTINUOUS
10
      147.87
20
      610.32
11
      149.55
21
      610.05
39
 0
62
 3
 0
LINE
8
default
6
CONTINUOUS
10
     -147.87
20
      610.32
11
     -149.55
21
      610.05
39
 0
62
 1
 0
LINE
8
default
6
CONTINUOUS
10
      149.55
20
      610.05
11
      151.24
21
      609.78
39
 0
62
 3
 0
LINE
8
default
6
CONTINUOUS
10
     -149.55
20
      610.05
11
     -151.24
21
      609.78
39
 0
62
 1
 0
LINE
8
default
6
CONTINUOUS
10
      151.24
20
      609.78
11
      152.92
21
      609.51
39
 0
62
 3
 0
LINE
8
default
6
CONTINUOUS
10
     -151.24
20
      609.78
11
     -152.92
21
      609.51
39
 0
62
 1
 0
LINE
8
default
6
CONTINUOUS
10
      152.92
20
      609.51
11
      154.61
21
      609.24
39
 0
62
 3
 0
LINE
8
default
6
CONTINUOUS
10
     -152.92
20
      609.51
11
     -154.61
21
      609.24
39
 0
62
 1
 0
LINE
8
default
6
CONTINUOUS
10
      154.61
20
      609.24
11
      156.29
21
      608.96
39
 0
62
 3
 0
LINE
8
default
6
CONTINUOUS
10
     -154.61
20
      609.24
11
     -156.29
21
      608.96
39
 0
62
 1
 0
LINE
8
default
6
CONTINUOUS
10
      156.29
20
      608.96
11
      157.98
21
      608.68
39
 0
62
 3
 0
LINE
8
default
6
CONTINUOUS
10
     -156.29
20
      608.96
11
     -157.98
21
      608.68
39
 0
62
 1
 0
LINE
8
default
6
CONTINUOUS
10
      157.98
20
      608.68
11
      159.66
21
      608.40
39
 0
62
 3
 0
LINE
8
default
6
CONTINUOUS
10
     -157.98
20
      608.68
11
     -159.66
21
      608.40
39
 0
62
 1
 0
LINE
8
default
6
CONTINUOUS
10
      159.66
20
      608.40
11
      161.34
21
      608.11
39
 0
62
 3
 0
LINE
8
default
6
CONTINUOUS
10
     -159.66
20
      608.40
11
     -161.34
21
      608.11
39
 0
62
 1
 0
LINE
8
default
6
CONTINUOUS
10
      161.34
20
      608.11
11
      163.02
21
      607.82
39
 0
62
 3
 0
LINE
8
default
6
CONTINUOUS
10
     -161.34
20
      608.11
11
     -163.02
21
      607.82
39
 0
62
 1
 0
LINE
8
default
6
CONTINUOUS
10
      163.02
20
      607.82
11
      164.70
21
      607.53
39
 0
62
 3
 0
LINE
8
default
6
CONTINUOUS
10
     -163.02
20
      607.82
11
     -164.70
21
      607.53
39
 0
62
 1
 0
LINE
8
default
6
CONTINUOUS
10
      164.70
20
      607.53
11
      168.06
21
      606.93
39
 0
62
 3
 0
LINE
8
default
6
CONTINUOUS
10
     -164.70
20
      607.53
11
     -168.06
21
      606.93
39
 0
62
 1
 0
LINE
8
default
6
CONTINUOUS
10
      168.06
20
      606.93
11
      169.12
21
      606.74
39
 0
62
 3
 0
LINE
8
default
6
CONTINUOUS
10
     -168.06
20
      606.93
11
     -169.12
21
      606.74
39
 0
62
 1
 0
LINE
8
default
6
CONTINUOUS
10
      169.12
20
      606.74
11
      170.18
21
      606.55
39
 0
62
 3
 0
LINE
8
default
6
CONTINUOUS
10
     -169.12
20
      606.74
11
     -170.18
21
      606.55
39
 0
62
 1
 0
LINE
8
default
6
CONTINUOUS
10
      170.18
20
      606.55
11
      171.24
21
      606.35
39
 0
62
 3
 0
LINE
8
default
6
CONTINUOUS
10
     -170.18
20
      606.55
11
     -171.24
21
      606.35
39
 0
62
 1
 0
LINE
8
default
6
CONTINUOUS
10
      171.24
20
      606.35
11
      172.29
21
      606.16
39
 0
62
 3
 0
LINE
8
default
6
CONTINUOUS
10
     -171.24
20
      606.35
11
     -172.29
21
      606.16
39
 0
62
 1
 0
LINE
8
default
6
CONTINUOUS
10
      172.29
20
      606.16
11
      173.35
21
      605.96
39
 0
62
 3
 0
LINE
8
default
6
CONTINUOUS
10
     -172.29
20
      606.16
11
     -173.35
21
      605.96
39
 0
62
 1
 0
LINE
8
default
6
CONTINUOUS
10
      173.35
20
      605.96
11
      174.41
21
      605.75
39
 0
62
 3
 0
LINE
8
default
6
CONTINUOUS
10
     -173.35
20
      605.96
11
     -174.41
21
      605.75
39
 0
62
 1
 0
LINE
8
default
6
CONTINUOUS
10
      174.41
20
      605.75
11
      175.46
21
      605.55
39
 0
62
 3
 0
LINE
8
default
6
CONTINUOUS
10
     -174.41
20
      605.75
11
     -175.46
21
      605.55
39
 0
62
 1
 0
LINE
8
default
6
CONTINUOUS
10
      175.46
20
      605.55
11
      176.52
21
      605.34
39
 0
62
 3
 0
LINE
8
default
6
CONTINUOUS
10
     -175.46
20
      605.55
11
     -176.52
21
      605.34
39
 0
62
 1
 0
LINE
8
default
6
CONTINUOUS
10
      176.52
20
      605.34
11
      177.57
21
      605.13
39
 0
62
 3
 0
LINE
8
default
6
CONTINUOUS
10
     -176.52
20
      605.34
11
     -177.57
21
      605.13
39
 0
62
 1
 0
LINE
8
default
6
CONTINUOUS
10
      177.57
20
      605.13
11
      178.63
21
      604.92
39
 0
62
 3
 0
LINE
8
default
6
CONTINUOUS
10
     -177.57
20
      605.13
11
     -178.63
21
      604.92
39
 0
62
 1
 0
LINE
8
default
6
CONTINUOUS
10
      178.63
20
      604.92
11
      179.68
21
      604.71
39
 0
62
 3
 0
LINE
8
default
6
CONTINUOUS
10
     -178.63
20
      604.92
11
     -179.68
21
      604.71
39
 0
62
 1
 0
LINE
8
default
6
CONTINUOUS
10
      179.68
20
      604.71
11
      180.73
21
      604.49
39
 0
62
 3
 0
LINE
8
default
6
CONTINUOUS
10
     -179.68
20
      604.71
11
     -180.73
21
      604.49
39
 0
62
 1
 0
LINE
8
default
6
CONTINUOUS
10
      180.73
20
      604.49
11
      181.79
21
      604.27
39
 0
62
 3
 0
LINE
8
default
6
CONTINUOUS
10
     -180.73
20
      604.49
11
     -181.79
21
      604.27
39
 0
62
 1
 0
LINE
8
default
6
CONTINUOUS
10
      181.79
20
      604.27
11
      182.84
21
      604.05
39
 0
62
 3
 0
LINE
8
default
6
CONTINUOUS
10
     -181.79
20
      604.27
11
     -182.84
21
      604.05
39
 0
62
 1
 0
LINE
8
default
6
CONTINUOUS
10
      182.84
20
      604.05
11
      183.89
21
      603.83
39
 0
62
 3
 0
LINE
8
default
6
CONTINUOUS
10
     -182.84
20
      604.05
11
     -183.89
21
      603.83
39
 0
62
 1
 0
LINE
8
default
6
CONTINUOUS
10
      183.89
20
      603.83
11
      184.94
21
      603.60
39
 0
62
 3
 0
LINE
8
default
6
CONTINUOUS
10
     -183.89
20
      603.83
11
     -184.94
21
      603.60
39
 0
62
 1
 0
LINE
8
default
6
CONTINUOUS
10
      184.94
20
      603.60
11
      185.99
21
      603.38
39
 0
62
 3
 0
LINE
8
default
6
CONTINUOUS
10
     -184.94
20
      603.60
11
     -185.99
21
      603.38
39
 0
62
 1
 0
LINE
8
default
6
CONTINUOUS
10
      185.99
20
      603.38
11
      187.04
21
      603.14
39
 0
62
 3
 0
LINE
8
default
6
CONTINUOUS
10
     -185.99
20
      603.38
11
     -187.04
21
      603.14
39
 0
62
 1
 0
LINE
8
default
6
CONTINUOUS
10
      187.04
20
      603.14
11
      188.09
21
      602.91
39
 0
62
 3
 0
LINE
8
default
6
CONTINUOUS
10
     -187.04
20
      603.14
11
     -188.09
21
      602.91
39
 0
62
 1
 0
LINE
8
default
6
CONTINUOUS
10
      188.09
20
      602.91
11
      189.14
21
      602.68
39
 0
62
 3
 0
LINE
8
default
6
CONTINUOUS
10
     -188.09
20
      602.91
11
     -189.14
21
      602.68
39
 0
62
 1
 0
LINE
8
default
6
CONTINUOUS
10
      189.14
20
      602.68
11
      190.19
21
      602.44
39
 0
62
 3
 0
LINE
8
default
6
CONTINUOUS
10
     -189.14
20
      602.68
11
     -190.19
21
      602.44
39
 0
62
 1
 0
LINE
8
default
6
CONTINUOUS
10
      190.19
20
      602.44
11
      191.24
21
      602.20
39
 0
62
 3
 0
LINE
8
default
6
CONTINUOUS
10
     -190.19
20
      602.44
11
     -191.24
21
      602.20
39
 0
62
 1
 0
LINE
8
default
6
CONTINUOUS
10
      191.24
20
      602.20
11
      192.29
21
      601.96
39
 0
62
 3
 0
LINE
8
default
6
CONTINUOUS
10
     -191.24
20
      602.20
11
     -192.29
21
      601.96
39
 0
62
 1
 0
LINE
8
default
6
CONTINUOUS
10
      192.29
20
      601.96
11
      193.33
21
      601.71
39
 0
62
 3
 0
LINE
8
default
6
CONTINUOUS
10
     -192.29
20
      601.96
11
     -193.33
21
      601.71
39
 0
62
 1
 0
LINE
8
default
6
CONTINUOUS
10
      193.33
20
      601.71
11
      194.38
21
      601.47
39
 0
62
 3
 0
LINE
8
default
6
CONTINUOUS
10
     -193.33
20
      601.71
11
     -194.38
21
      601.47
39
 0
62
 1
 0
LINE
8
default
6
CONTINUOUS
10
      194.38
20
      601.47
11
      195.43
21
      601.22
39
 0
62
 3
 0
LINE
8
default
6
CONTINUOUS
10
     -194.38
20
      601.47
11
     -195.43
21
      601.22
39
 0
62
 1
 0
LINE
8
default
6
CONTINUOUS
10
      195.43
20
      601.22
11
      196.47
21
      600.96
39
 0
62
 3
 0
LINE
8
default
6
CONTINUOUS
10
     -195.43
20
      601.22
11
     -196.47
21
      600.96
39
 0
62
 1
 0
LINE
8
default
6
CONTINUOUS
10
      196.47
20
      600.96
11
      197.52
21
      600.71
39
 0
62
 3
 0
LINE
8
default
6
CONTINUOUS
10
     -196.47
20
      600.96
11
     -197.52
21
      600.71
39
 0
62
 1
 0
LINE
8
default
6
CONTINUOUS
10
      197.52
20
      600.71
11
      198.56
21
      600.45
39
 0
62
 3
 0
LINE
8
default
6
CONTINUOUS
10
     -197.52
20
      600.71
11
     -198.56
21
      600.45
39
 0
62
 1
 0
LINE
8
default
6
CONTINUOUS
10
      198.56
20
      600.45
11
      199.60
21
      600.20
39
 0
62
 3
 0
LINE
8
default
6
CONTINUOUS
10
     -198.56
20
      600.45
11
     -199.60
21
      600.20
39
 0
62
 1
 0
LINE
8
default
6
CONTINUOUS
10
      199.60
20
      600.20
11
      200.65
21
      599.93
39
 0
62
 3
 0
LINE
8
default
6
CONTINUOUS
10
     -199.60
20
      600.20
11
     -200.65
21
      599.93
39
 0
62
 1
 0
LINE
8
default
6
CONTINUOUS
10
      200.65
20
      599.93
11
      201.69
21
      599.67
39
 0
62
 3
 0
LINE
8
default
6
CONTINUOUS
10
     -200.65
20
      599.93
11
     -201.69
21
      599.67
39
 0
62
 1
 0
LINE
8
default
6
CONTINUOUS
10
      201.69
20
      599.67
11
      202.73
21
      599.41
39
 0
62
 3
 0
LINE
8
default
6
CONTINUOUS
10
     -201.69
20
      599.67
11
     -202.73
21
      599.41
39
 0
62
 1
 0
LINE
8
default
6
CONTINUOUS
10
      202.73
20
      599.41
11
      203.77
21
      599.14
39
 0
62
 3
 0
LINE
8
default
6
CONTINUOUS
10
     -202.73
20
      599.41
11
     -203.77
21
      599.14
39
 0
62
 1
 0
LINE
8
default
6
CONTINUOUS
10
      203.77
20
      599.14
11
      204.81
21
      598.87
39
 0
62
 3
 0
LINE
8
default
6
CONTINUOUS
10
     -203.77
20
      599.14
11
     -204.81
21
      598.87
39
 0
62
 1
 0
LINE
8
default
6
CONTINUOUS
10
      204.81
20
      598.87
11
      205.85
21
      598.59
39
 0
62
 3
 0
LINE
8
default
6
CONTINUOUS
10
     -204.81
20
      598.87
11
     -205.85
21
      598.59
39
 0
62
 1
 0
LINE
8
default
6
CONTINUOUS
10
      205.85
20
      598.59
11
      206.89
21
      598.32
39
 0
62
 3
 0
LINE
8
default
6
CONTINUOUS
10
     -205.85
20
      598.59
11
     -206.89
21
      598.32
39
 0
62
 1
 0
LINE
8
default
6
CONTINUOUS
10
      206.89
20
      598.32
11
      207.93
21
      598.04
39
 0
62
 3
 0
LINE
8
default
6
CONTINUOUS
10
     -206.89
20
      598.32
11
     -207.93
21
      598.04
39
 0
62
 1
 0
LINE
8
default
6
CONTINUOUS
10
      207.93
20
      598.04
11
      208.97
21
      597.76
39
 0
62
 3
 0
LINE
8
default
6
CONTINUOUS
10
     -207.93
20
      598.04
11
     -208.97
21
      597.76
39
 0
62
 1
 0
LINE
8
default
6
CONTINUOUS
10
      208.97
20
      597.76
11
      210.01
21
      597.48
39
 0
62
 3
 0
LINE
8
default
6
CONTINUOUS
10
     -208.97
20
      597.76
11
     -210.01
21
      597.48
39
 0
62
 1
 0
LINE
8
default
6
CONTINUOUS
10
      210.01
20
      597.48
11
      211.05
21
      597.20
39
 0
62
 3
 0
LINE
8
default
6
CONTINUOUS
10
     -210.01
20
      597.48
11
     -211.05
21
      597.20
39
 0
62
 1
 0
LINE
8
default
6
CONTINUOUS
10
      211.05
20
      597.20
11
      212.08
21
      596.91
39
 0
62
 3
 0
LINE
8
default
6
CONTINUOUS
10
     -211.05
20
      597.20
11
     -212.08
21
      596.91
39
 0
62
 1
 0
LINE
8
default
6
CONTINUOUS
10
      212.08
20
      596.91
11
      213.12
21
      596.62
39
 0
62
 3
 0
LINE
8
default
6
CONTINUOUS
10
     -212.08
20
      596.91
11
     -213.12
21
      596.62
39
 0
62
 1
 0
LINE
8
default
6
CONTINUOUS
10
      213.12
20
      596.62
11
      214.15
21
      596.33
39
 0
62
 3
 0
LINE
8
default
6
CONTINUOUS
10
     -213.12
20
      596.62
11
     -214.15
21
      596.33
39
 0
62
 1
 0
LINE
8
default
6
CONTINUOUS
10
      214.15
20
      596.33
11
      215.19
21
      596.04
39
 0
62
 3
 0
LINE
8
default
6
CONTINUOUS
10
     -214.15
20
      596.33
11
     -215.19
21
      596.04
39
 0
62
 1
 0
LINE
8
default
6
CONTINUOUS
10
      215.19
20
      596.04
11
      216.22
21
      595.74
39
 0
62
 3
 0
LINE
8
default
6
CONTINUOUS
10
     -215.19
20
      596.04
11
     -216.22
21
      595.74
39
 0
62
 1
 0
LINE
8
default
6
CONTINUOUS
10
      216.22
20
      595.74
11
      217.25
21
      595.44
39
 0
62
 3
 0
LINE
8
default
6
CONTINUOUS
10
     -216.22
20
      595.74
11
     -217.25
21
      595.44
39
 0
62
 1
 0
LINE
8
default
6
CONTINUOUS
10
      217.25
20
      595.44
11
      218.29
21
      595.14
39
 0
62
 3
 0
LINE
8
default
6
CONTINUOUS
10
     -217.25
20
      595.44
11
     -218.29
21
      595.14
39
 0
62
 1
 0
LINE
8
default
6
CONTINUOUS
10
      218.29
20
      595.14
11
      219.32
21
      594.84
39
 0
62
 3
 0
LINE
8
default
6
CONTINUOUS
10
     -218.29
20
      595.14
11
     -219.32
21
      594.84
39
 0
62
 1
 0
LINE
8
default
6
CONTINUOUS
10
      219.32
20
      594.84
11
      220.35
21
      594.53
39
 0
62
 3
 0
LINE
8
default
6
CONTINUOUS
10
     -219.32
20
      594.84
11
     -220.35
21
      594.53
39
 0
62
 1
 0
LINE
8
default
6
CONTINUOUS
10
      220.35
20
      594.53
11
      221.38
21
      594.22
39
 0
62
 3
 0
LINE
8
default
6
CONTINUOUS
10
     -220.35
20
      594.53
11
     -221.38
21
      594.22
39
 0
62
 1
 0
LINE
8
default
6
CONTINUOUS
10
      221.38
20
      594.22
11
      222.41
21
      593.91
39
 0
62
 3
 0
LINE
8
default
6
CONTINUOUS
10
     -221.38
20
      594.22
11
     -222.41
21
      593.91
39
 0
62
 1
 0
LINE
8
default
6
CONTINUOUS
10
      222.41
20
      593.91
11
      223.44
21
      593.60
39
 0
62
 3
 0
LINE
8
default
6
CONTINUOUS
10
     -222.41
20
      593.91
11
     -223.44
21
      593.60
39
 0
62
 1
 0
LINE
8
default
6
CONTINUOUS
10
      223.44
20
      593.60
11
      224.47
21
      593.29
39
 0
62
 3
 0
LINE
8
default
6
CONTINUOUS
10
     -223.44
20
      593.60
11
     -224.47
21
      593.29
39
 0
62
 1
 0
LINE
8
default
6
CONTINUOUS
10
      224.47
20
      593.29
11
      225.49
21
      592.97
39
 0
62
 3
 0
LINE
8
default
6
CONTINUOUS
10
     -224.47
20
      593.29
11
     -225.49
21
      592.97
39
 0
62
 1
 0
LINE
8
default
6
CONTINUOUS
10
      225.49
20
      592.97
11
      226.52
21
      592.65
39
 0
62
 3
 0
LINE
8
default
6
CONTINUOUS
10
     -225.49
20
      592.97
11
     -226.52
21
      592.65
39
 0
62
 1
 0
LINE
8
default
6
CONTINUOUS
10
      226.52
20
      592.65
11
      227.55
21
      592.33
39
 0
62
 3
 0
LINE
8
default
6
CONTINUOUS
10
     -226.52
20
      592.65
11
     -227.55
21
      592.33
39
 0
62
 1
 0
LINE
8
default
6
CONTINUOUS
10
      227.55
20
      592.33
11
      228.57
21
      592.01
39
 0
62
 3
 0
LINE
8
default
6
CONTINUOUS
10
     -227.55
20
      592.33
11
     -228.57
21
      592.01
39
 0
62
 1
 0
LINE
8
default
6
CONTINUOUS
10
      228.57
20
      592.01
11
      229.60
21
      591.68
39
 0
62
 3
 0
LINE
8
default
6
CONTINUOUS
10
     -228.57
20
      592.01
11
     -229.60
21
      591.68
39
 0
62
 1
 0
LINE
8
default
6
CONTINUOUS
10
      229.60
20
      591.68
11
      230.62
21
      591.35
39
 0
62
 3
 0
LINE
8
default
6
CONTINUOUS
10
     -229.60
20
      591.68
11
     -230.62
21
      591.35
39
 0
62
 1
 0
LINE
8
default
6
CONTINUOUS
10
      230.62
20
      591.35
11
      231.64
21
      591.02
39
 0
62
 3
 0
LINE
8
default
6
CONTINUOUS
10
     -230.62
20
      591.35
11
     -231.64
21
      591.02
39
 0
62
 1
 0
LINE
8
default
6
CONTINUOUS
10
      231.64
20
      591.02
11
      232.67
21
      590.69
39
 0
62
 3
 0
LINE
8
default
6
CONTINUOUS
10
     -231.64
20
      591.02
11
     -232.67
21
      590.69
39
 0
62
 1
 0
LINE
8
default
6
CONTINUOUS
10
      232.67
20
      590.69
11
      233.69
21
      590.35
39
 0
62
 3
 0
LINE
8
default
6
CONTINUOUS
10
     -232.67
20
      590.69
11
     -233.69
21
      590.35
39
 0
62
 1
 0
LINE
8
default
6
CONTINUOUS
10
      233.69
20
      590.35
11
      234.71
21
      590.02
39
 0
62
 3
 0
LINE
8
default
6
CONTINUOUS
10
     -233.69
20
      590.35
11
     -234.71
21
      590.02
39
 0
62
 1
 0
LINE
8
default
6
CONTINUOUS
10
      234.71
20
      590.02
11
      235.73
21
      589.68
39
 0
62
 3
 0
LINE
8
default
6
CONTINUOUS
10
     -234.71
20
      590.02
11
     -235.73
21
      589.68
39
 0
62
 1
 0
LINE
8
default
6
CONTINUOUS
10
      235.73
20
      589.68
11
      236.75
21
      589.34
39
 0
62
 3
 0
LINE
8
default
6
CONTINUOUS
10
     -235.73
20
      589.68
11
     -236.75
21
      589.34
39
 0
62
 1
 0
LINE
8
default
6
CONTINUOUS
10
      236.75
20
      589.34
11
      237.77
21
      588.99
39
 0
62
 3
 0
LINE
8
default
6
CONTINUOUS
10
     -236.75
20
      589.34
11
     -237.77
21
      588.99
39
 0
62
 1
 0
LINE
8
default
6
CONTINUOUS
10
      237.77
20
      588.99
11
      238.78
21
      588.64
39
 0
62
 3
 0
LINE
8
default
6
CONTINUOUS
10
     -237.77
20
      588.99
11
     -238.78
21
      588.64
39
 0
62
 1
 0
LINE
8
default
6
CONTINUOUS
10
      238.78
20
      588.64
11
      239.80
21
      588.30
39
 0
62
 3
 0
LINE
8
default
6
CONTINUOUS
10
     -238.78
20
      588.64
11
     -239.80
21
      588.30
39
 0
62
 1
 0
LINE
8
default
6
CONTINUOUS
10
      239.80
20
      588.30
11
      240.82
21
      587.94
39
 0
62
 3
 0
LINE
8
default
6
CONTINUOUS
10
     -239.80
20
      588.30
11
     -240.82
21
      587.94
39
 0
62
 1
 0
LINE
8
default
6
CONTINUOUS
10
      240.82
20
      587.94
11
      241.83
21
      587.59
39
 0
62
 3
 0
LINE
8
default
6
CONTINUOUS
10
     -240.82
20
      587.94
11
     -241.83
21
      587.59
39
 0
62
 1
 0
LINE
8
default
6
CONTINUOUS
10
      241.83
20
      587.59
11
      242.85
21
      587.24
39
 0
62
 3
 0
LINE
8
default
6
CONTINUOUS
10
     -241.83
20
      587.59
11
     -242.85
21
      587.24
39
 0
62
 1
 0
LINE
8
default
6
CONTINUOUS
10
      242.85
20
      587.24
11
      243.86
21
      586.88
39
 0
62
 3
 0
LINE
8
default
6
CONTINUOUS
10
     -242.85
20
      587.24
11
     -243.86
21
      586.88
39
 0
62
 1
 0
LINE
8
default
6
CONTINUOUS
10
      243.86
20
      586.88
11
      244.88
21
      586.52
39
 0
62
 3
 0
LINE
8
default
6
CONTINUOUS
10
     -243.86
20
      586.88
11
     -244.88
21
      586.52
39
 0
62
 1
 0
LINE
8
default
6
CONTINUOUS
10
      244.88
20
      586.52
11
      245.89
21
      586.16
39
 0
62
 3
 0
LINE
8
default
6
CONTINUOUS
10
     -244.88
20
      586.52
11
     -245.89
21
      586.16
39
 0
62
 1
 0
LINE
8
default
6
CONTINUOUS
10
      245.89
20
      586.16
11
      246.90
21
      585.79
39
 0
62
 3
 0
LINE
8
default
6
CONTINUOUS
10
     -245.89
20
      586.16
11
     -246.90
21
      585.79
39
 0
62
 1
 0
LINE
8
default
6
CONTINUOUS
10
      246.90
20
      585.79
11
      247.91
21
      585.42
39
 0
62
 3
 0
LINE
8
default
6
CONTINUOUS
10
     -246.90
20
      585.79
11
     -247.91
21
      585.42
39
 0
62
 1
 0
LINE
8
default
6
CONTINUOUS
10
      247.91
20
      585.42
11
      248.92
21
      585.05
39
 0
62
 3
 0
LINE
8
default
6
CONTINUOUS
10
     -247.91
20
      585.42
11
     -248.92
21
      585.05
39
 0
62
 1
 0
LINE
8
default
6
CONTINUOUS
10
      248.92
20
      585.05
11
      249.93
21
      584.68
39
 0
62
 3
 0
LINE
8
default
6
CONTINUOUS
10
     -248.92
20
      585.05
11
     -249.93
21
      584.68
39
 0
62
 1
 0
LINE
8
default
6
CONTINUOUS
10
      249.93
20
      584.68
11
      250.94
21
      584.31
39
 0
62
 3
 0
LINE
8
default
6
CONTINUOUS
10
     -249.93
20
      584.68
11
     -250.94
21
      584.31
39
 0
62
 1
 0
LINE
8
default
6
CONTINUOUS
10
      250.94
20
      584.31
11
      251.94
21
      583.93
39
 0
62
 3
 0
LINE
8
default
6
CONTINUOUS
10
     -250.94
20
      584.31
11
     -251.94
21
      583.93
39
 0
62
 1
 0
LINE
8
default
6
CONTINUOUS
10
      251.94
20
      583.93
11
      252.95
21
      583.55
39
 0
62
 3
 0
LINE
8
default
6
CONTINUOUS
10
     -251.94
20
      583.93
11
     -252.95
21
      583.55
39
 0
62
 1
 0
LINE
8
default
6
CONTINUOUS
10
      252.95
20
      583.55
11
      253.96
21
      583.17
39
 0
62
 3
 0
LINE
8
default
6
CONTINUOUS
10
     -252.95
20
      583.55
11
     -253.96
21
      583.17
39
 0
62
 1
 0
LINE
8
default
6
CONTINUOUS
10
      253.96
20
      583.17
11
      254.96
21
      582.79
39
 0
62
 3
 0
LINE
8
default
6
CONTINUOUS
10
     -253.96
20
      583.17
11
     -254.96
21
      582.79
39
 0
62
 1
 0
LINE
8
default
6
CONTINUOUS
10
      254.96
20
      582.79
11
      255.97
21
      582.41
39
 0
62
 3
 0
LINE
8
default
6
CONTINUOUS
10
     -254.96
20
      582.79
11
     -255.97
21
      582.41
39
 0
62
 1
 0
LINE
8
default
6
CONTINUOUS
10
      255.97
20
      582.41
11
      256.97
21
      582.02
39
 0
62
 3
 0
LINE
8
default
6
CONTINUOUS
10
     -255.97
20
      582.41
11
     -256.97
21
      582.02
39
 0
62
 1
 0
LINE
8
default
6
CONTINUOUS
10
      256.97
20
      582.02
11
      257.97
21
      581.63
39
 0
62
 3
 0
LINE
8
default
6
CONTINUOUS
10
     -256.97
20
      582.02
11
     -257.97
21
      581.63
39
 0
62
 1
 0
LINE
8
default
6
CONTINUOUS
10
      257.97
20
      581.63
11
      258.97
21
      581.24
39
 0
62
 3
 0
LINE
8
default
6
CONTINUOUS
10
     -257.97
20
      581.63
11
     -258.97
21
      581.24
39
 0
62
 1
 0
LINE
8
default
6
CONTINUOUS
10
      258.97
20
      581.24
11
      259.97
21
      580.84
39
 0
62
 3
 0
LINE
8
default
6
CONTINUOUS
10
     -258.97
20
      581.24
11
     -259.97
21
      580.84
39
 0
62
 1
 0
LINE
8
default
6
CONTINUOUS
10
      259.97
20
      580.84
11
      260.97
21
      580.45
39
 0
62
 3
 0
LINE
8
default
6
CONTINUOUS
10
     -259.97
20
      580.84
11
     -260.97
21
      580.45
39
 0
62
 1
 0
LINE
8
default
6
CONTINUOUS
10
      260.97
20
      580.45
11
      261.97
21
      580.05
39
 0
62
 3
 0
LINE
8
default
6
CONTINUOUS
10
     -260.97
20
      580.45
11
     -261.97
21
      580.05
39
 0
62
 1
 0
LINE
8
default
6
CONTINUOUS
10
      261.97
20
      580.05
11
      262.97
21
      579.65
39
 0
62
 3
 0
LINE
8
default
6
CONTINUOUS
10
     -261.97
20
      580.05
11
     -262.97
21
      579.65
39
 0
62
 1
 0
LINE
8
default
6
CONTINUOUS
10
      262.97
20
      579.65
11
      263.96
21
      579.24
39
 0
62
 3
 0
LINE
8
default
6
CONTINUOUS
10
     -262.97
20
      579.65
11
     -263.96
21
      579.24
39
 0
62
 1
 0
LINE
8
default
6
CONTINUOUS
10
      263.96
20
      579.24
11
      264.96
21
      578.84
39
 0
62
 3
 0
LINE
8
default
6
CONTINUOUS
10
     -263.96
20
      579.24
11
     -264.96
21
      578.84
39
 0
62
 1
 0
LINE
8
default
6
CONTINUOUS
10
      264.96
20
      578.84
11
      265.96
21
      578.43
39
 0
62
 3
 0
LINE
8
default
6
CONTINUOUS
10
     -264.96
20
      578.84
11
     -265.96
21
      578.43
39
 0
62
 1
 0
LINE
8
default
6
CONTINUOUS
10
      265.96
20
      578.43
11
      266.95
21
      578.02
39
 0
62
 3
 0
LINE
8
default
6
CONTINUOUS
10
     -265.96
20
      578.43
11
     -266.95
21
      578.02
39
 0
62
 1
 0
LINE
8
default
6
CONTINUOUS
10
      266.95
20
      578.02
11
      267.94
21
      577.61
39
 0
62
 3
 0
LINE
8
default
6
CONTINUOUS
10
     -266.95
20
      578.02
11
     -267.94
21
      577.61
39
 0
62
 1
 0
LINE
8
default
6
CONTINUOUS
10
      267.94
20
      577.61
11
      268.94
21
      577.19
39
 0
62
 3
 0
LINE
8
default
6
CONTINUOUS
10
     -267.94
20
      577.61
11
     -268.94
21
      577.19
39
 0
62
 1
 0
LINE
8
default
6
CONTINUOUS
10
      268.94
20
      577.19
11
      269.93
21
      576.78
39
 0
62
 3
 0
LINE
8
default
6
CONTINUOUS
10
     -268.94
20
      577.19
11
     -269.93
21
      576.78
39
 0
62
 1
 0
LINE
8
default
6
CONTINUOUS
10
      269.93
20
      576.78
11
      271.42
21
      576.15
39
 0
62
 3
 0
LINE
8
default
6
CONTINUOUS
10
     -269.93
20
      576.78
11
     -271.42
21
      576.15
39
 0
62
 1
 0
LINE
8
default
6
CONTINUOUS
10
      271.42
20
      576.15
11
      272.91
21
      575.51
39
 0
62
 3
 0
LINE
8
default
6
CONTINUOUS
10
     -271.42
20
      576.15
11
     -272.91
21
      575.51
39
 0
62
 1
 0
LINE
8
default
6
CONTINUOUS
10
      272.91
20
      575.51
11
      274.40
21
      574.86
39
 0
62
 3
 0
LINE
8
default
6
CONTINUOUS
10
     -272.91
20
      575.51
11
     -274.40
21
      574.86
39
 0
62
 1
 0
LINE
8
default
6
CONTINUOUS
10
      274.40
20
      574.86
11
      275.88
21
      574.21
39
 0
62
 3
 0
LINE
8
default
6
CONTINUOUS
10
     -274.40
20
      574.86
11
     -275.88
21
      574.21
39
 0
62
 1
 0
LINE
8
default
6
CONTINUOUS
10
      275.88
20
      574.21
11
      277.36
21
      573.55
39
 0
62
 3
 0
LINE
8
default
6
CONTINUOUS
10
     -275.88
20
      574.21
11
     -277.36
21
      573.55
39
 0
62
 1
 0
LINE
8
default
6
CONTINUOUS
10
      277.36
20
      573.55
11
      278.84
21
      572.88
39
 0
62
 3
 0
LINE
8
default
6
CONTINUOUS
10
     -277.36
20
      573.55
11
     -278.84
21
      572.88
39
 0
62
 1
 0
LINE
8
default
6
CONTINUOUS
10
      278.84
20
      572.88
11
      280.32
21
      572.21
39
 0
62
 3
 0
LINE
8
default
6
CONTINUOUS
10
     -278.84
20
      572.88
11
     -280.32
21
      572.21
39
 0
62
 1
 0
LINE
8
default
6
CONTINUOUS
10
      280.32
20
      572.21
11
      281.79
21
      571.53
39
 0
62
 3
 0
LINE
8
default
6
CONTINUOUS
10
     -280.32
20
      572.21
11
     -281.79
21
      571.53
39
 0
62
 1
 0
LINE
8
default
6
CONTINUOUS
10
      281.79
20
      571.53
11
      283.26
21
      570.85
39
 0
62
 3
 0
LINE
8
default
6
CONTINUOUS
10
     -281.79
20
      571.53
11
     -283.26
21
      570.85
39
 0
62
 1
 0
LINE
8
default
6
CONTINUOUS
10
      283.26
20
      570.85
11
      284.73
21
      570.16
39
 0
62
 3
 0
LINE
8
default
6
CONTINUOUS
10
     -283.26
20
      570.85
11
     -284.73
21
      570.16
39
 0
62
 1
 0
LINE
8
default
6
CONTINUOUS
10
      284.73
20
      570.16
11
      286.19
21
      569.46
39
 0
62
 3
 0
LINE
8
default
6
CONTINUOUS
10
     -284.73
20
      570.16
11
     -286.19
21
      569.46
39
 0
62
 1
 0
LINE
8
default
6
CONTINUOUS
10
      286.19
20
      569.46
11
      287.65
21
      568.76
39
 0
62
 3
 0
LINE
8
default
6
CONTINUOUS
10
     -286.19
20
      569.46
11
     -287.65
21
      568.76
39
 0
62
 1
 0
LINE
8
default
6
CONTINUOUS
10
      287.65
20
      568.76
11
      289.11
21
      568.05
39
 0
62
 3
 0
LINE
8
default
6
CONTINUOUS
10
     -287.65
20
      568.76
11
     -289.11
21
      568.05
39
 0
62
 1
 0
LINE
8
default
6
CONTINUOUS
10
      289.11
20
      568.05
11
      290.56
21
      567.33
39
 0
62
 3
 0
LINE
8
default
6
CONTINUOUS
10
     -289.11
20
      568.05
11
     -290.56
21
      567.33
39
 0
62
 1
 0
LINE
8
default
6
CONTINUOUS
10
      290.56
20
      567.33
11
      292.01
21
      566.61
39
 0
62
 3
 0
LINE
8
default
6
CONTINUOUS
10
     -290.56
20
      567.33
11
     -292.01
21
      566.61
39
 0
62
 1
 0
LINE
8
default
6
CONTINUOUS
10
      292.01
20
      566.61
11
      293.46
21
      565.88
39
 0
62
 3
 0
LINE
8
default
6
CONTINUOUS
10
     -292.01
20
      566.61
11
     -293.46
21
      565.88
39
 0
62
 1
 0
LINE
8
default
6
CONTINUOUS
10
      293.46
20
      565.88
11
      294.91
21
      565.14
39
 0
62
 3
 0
LINE
8
default
6
CONTINUOUS
10
     -293.46
20
      565.88
11
     -294.91
21
      565.14
39
 0
62
 1
 0
LINE
8
default
6
CONTINUOUS
10
      294.91
20
      565.14
11
      296.35
21
      564.40
39
 0
62
 3
 0
LINE
8
default
6
CONTINUOUS
10
     -294.91
20
      565.14
11
     -296.35
21
      564.40
39
 0
62
 1
 0
LINE
8
default
6
CONTINUOUS
10
      296.35
20
      564.40
11
      297.79
21
      563.65
39
 0
62
 3
 0
LINE
8
default
6
CONTINUOUS
10
     -296.35
20
      564.40
11
     -297.79
21
      563.65
39
 0
62
 1
 0
LINE
8
default
6
CONTINUOUS
10
      297.79
20
      563.65
11
      299.22
21
      562.90
39
 0
62
 3
 0
LINE
8
default
6
CONTINUOUS
10
     -297.79
20
      563.65
11
     -299.22
21
      562.90
39
 0
62
 1
 0
LINE
8
default
6
CONTINUOUS
10
      299.22
20
      562.90
11
      300.66
21
      562.14
39
 0
62
 3
 0
LINE
8
default
6
CONTINUOUS
10
     -299.22
20
      562.90
11
     -300.66
21
      562.14
39
 0
62
 1
 0
LINE
8
default
6
CONTINUOUS
10
      300.66
20
      562.14
11
      302.08
21
      561.37
39
 0
62
 3
 0
LINE
8
default
6
CONTINUOUS
10
     -300.66
20
      562.14
11
     -302.08
21
      561.37
39
 0
62
 1
 0
LINE
8
default
6
CONTINUOUS
10
      302.08
20
      561.37
11
      303.51
21
      560.60
39
 0
62
 3
 0
LINE
8
default
6
CONTINUOUS
10
     -302.08
20
      561.37
11
     -303.51
21
      560.60
39
 0
62
 1
 0
LINE
8
default
6
CONTINUOUS
10
      303.51
20
      560.60
11
      304.93
21
      559.82
39
 0
62
 3
 0
LINE
8
default
6
CONTINUOUS
10
     -303.51
20
      560.60
11
     -304.93
21
      559.82
39
 0
62
 1
 0
LINE
8
default
6
CONTINUOUS
10
      304.93
20
      559.82
11
      306.35
21
      559.03
39
 0
62
 3
 0
LINE
8
default
6
CONTINUOUS
10
     -304.93
20
      559.82
11
     -306.35
21
      559.03
39
 0
62
 1
 0
LINE
8
default
6
CONTINUOUS
10
      306.35
20
      559.03
11
      307.76
21
      558.24
39
 0
62
 3
 0
LINE
8
default
6
CONTINUOUS
10
     -306.35
20
      559.03
11
     -307.76
21
      558.24
39
 0
62
 1
 0
LINE
8
default
6
CONTINUOUS
10
      307.76
20
      558.24
11
      309.18
21
      557.45
39
 0
62
 3
 0
LINE
8
default
6
CONTINUOUS
10
     -307.76
20
      558.24
11
     -309.18
21
      557.45
39
 0
62
 1
 0
LINE
8
default
6
CONTINUOUS
10
      309.18
20
      557.45
11
      310.58
21
      556.64
39
 0
62
 3
 0
LINE
8
default
6
CONTINUOUS
10
     -309.18
20
      557.45
11
     -310.58
21
      556.64
39
 0
62
 1
 0
LINE
8
default
6
CONTINUOUS
10
      310.58
20
      556.64
11
      311.99
21
      555.83
39
 0
62
 3
 0
LINE
8
default
6
CONTINUOUS
10
     -310.58
20
      556.64
11
     -311.99
21
      555.83
39
 0
62
 1
 0
LINE
8
default
6
CONTINUOUS
10
      311.99
20
      555.83
11
      313.39
21
      555.02
39
 0
62
 3
 0
LINE
8
default
6
CONTINUOUS
10
     -311.99
20
      555.83
11
     -313.39
21
      555.02
39
 0
62
 1
 0
LINE
8
default
6
CONTINUOUS
10
      313.39
20
      555.02
11
      314.79
21
      554.19
39
 0
62
 3
 0
LINE
8
default
6
CONTINUOUS
10
     -313.39
20
      555.02
11
     -314.79
21
      554.19
39
 0
62
 1
 0
LINE
8
default
6
CONTINUOUS
10
      314.79
20
      554.19
11
      316.18
21
      553.36
39
 0
62
 3
 0
LINE
8
default
6
CONTINUOUS
10
     -314.79
20
      554.19
11
     -316.18
21
      553.36
39
 0
62
 1
 0
LINE
8
default
6
CONTINUOUS
10
      316.18
20
      553.36
11
      317.57
21
      552.53
39
 0
62
 3
 0
LINE
8
default
6
CONTINUOUS
10
     -316.18
20
      553.36
11
     -317.57
21
      552.53
39
 0
62
 1
 0
LINE
8
default
6
CONTINUOUS
10
      317.57
20
      552.53
11
      318.96
21
      551.69
39
 0
62
 3
 0
LINE
8
default
6
CONTINUOUS
10
     -317.57
20
      552.53
11
     -318.96
21
      551.69
39
 0
62
 1
 0
LINE
8
default
6
CONTINUOUS
10
      318.96
20
      551.69
11
      320.34
21
      550.84
39
 0
62
 3
 0
LINE
8
default
6
CONTINUOUS
10
     -318.96
20
      551.69
11
     -320.34
21
      550.84
39
 0
62
 1
 0
LINE
8
default
6
CONTINUOUS
10
      320.34
20
      550.84
11
      321.72
21
      549.99
39
 0
62
 3
 0
LINE
8
default
6
CONTINUOUS
10
     -320.34
20
      550.84
11
     -321.72
21
      549.99
39
 0
62
 1
 0
LINE
8
default
6
CONTINUOUS
10
      321.72
20
      549.99
11
      323.10
21
      549.13
39
 0
62
 3
 0
LINE
8
default
6
CONTINUOUS
10
     -321.72
20
      549.99
11
     -323.10
21
      549.13
39
 0
62
 1
 0
LINE
8
default
6
CONTINUOUS
10
      323.10
20
      549.13
11
      324.47
21
      548.27
39
 0
62
 3
 0
LINE
8
default
6
CONTINUOUS
10
     -323.10
20
      549.13
11
     -324.47
21
      548.27
39
 0
62
 1
 0
LINE
8
default
6
CONTINUOUS
10
      324.47
20
      548.27
11
      325.84
21
      547.40
39
 0
62
 3
 0
LINE
8
default
6
CONTINUOUS
10
     -324.47
20
      548.27
11
     -325.84
21
      547.40
39
 0
62
 1
 0
LINE
8
default
6
CONTINUOUS
10
      325.84
20
      547.40
11
      327.20
21
      546.52
39
 0
62
 3
 0
LINE
8
default
6
CONTINUOUS
10
     -325.84
20
      547.40
11
     -327.20
21
      546.52
39
 0
62
 1
 0
LINE
8
default
6
CONTINUOUS
10
      327.20
20
      546.52
11
      328.56
21
      545.64
39
 0
62
 3
 0
LINE
8
default
6
CONTINUOUS
10
     -327.20
20
      546.52
11
     -328.56
21
      545.64
39
 0
62
 1
 0
LINE
8
default
6
CONTINUOUS
10
      328.56
20
      545.64
11
      329.92
21
      544.75
39
 0
62
 3
 0
LINE
8
default
6
CONTINUOUS
10
     -328.56
20
      545.64
11
     -329.92
21
      544.75
39
 0
62
 1
 0
LINE
8
default
6
CONTINUOUS
10
      329.92
20
      544.75
11
      331.27
21
      543.86
39
 0
62
 3
 0
LINE
8
default
6
CONTINUOUS
10
     -329.92
20
      544.75
11
     -331.27
21
      543.86
39
 0
62
 1
 0
LINE
8
default
6
CONTINUOUS
10
      331.27
20
      543.86
11
      332.62
21
      542.96
39
 0
62
 3
 0
LINE
8
default
6
CONTINUOUS
10
     -331.27
20
      543.86
11
     -332.62
21
      542.96
39
 0
62
 1
 0
LINE
8
default
6
CONTINUOUS
10
      332.62
20
      542.96
11
      333.96
21
      542.05
39
 0
62
 3
 0
LINE
8
default
6
CONTINUOUS
10
     -332.62
20
      542.96
11
     -333.96
21
      542.05
39
 0
62
 1
 0
LINE
8
default
6
CONTINUOUS
10
      333.96
20
      542.05
11
      335.30
21
      541.14
39
 0
62
 3
 0
LINE
8
default
6
CONTINUOUS
10
     -333.96
20
      542.05
11
     -335.30
21
      541.14
39
 0
62
 1
 0
LINE
8
default
6
CONTINUOUS
10
      335.30
20
      541.14
11
      336.64
21
      540.22
39
 0
62
 3
 0
LINE
8
default
6
CONTINUOUS
10
     -335.30
20
      541.14
11
     -336.64
21
      540.22
39
 0
62
 1
 0
LINE
8
default
6
CONTINUOUS
10
      336.64
20
      540.22
11
      337.97
21
      539.30
39
 0
62
 3
 0
LINE
8
default
6
CONTINUOUS
10
     -336.64
20
      540.22
11
     -337.97
21
      539.30
39
 0
62
 1
 0
LINE
8
default
6
CONTINUOUS
10
      337.97
20
      539.30
11
      339.30
21
      538.37
39
 0
62
 3
 0
LINE
8
default
6
CONTINUOUS
10
     -337.97
20
      539.30
11
     -339.30
21
      538.37
39
 0
62
 1
 0
LINE
8
default
6
CONTINUOUS
10
      339.30
20
      538.37
11
      340.63
21
      537.43
39
 0
62
 3
 0
LINE
8
default
6
CONTINUOUS
10
     -339.30
20
      538.37
11
     -340.63
21
      537.43
39
 0
62
 1
 0
LINE
8
default
6
CONTINUOUS
10
      340.63
20
      537.43
11
      341.95
21
      536.49
39
 0
62
 3
 0
LINE
8
default
6
CONTINUOUS
10
     -340.63
20
      537.43
11
     -341.95
21
      536.49
39
 0
62
 1
 0
LINE
8
default
6
CONTINUOUS
10
      341.95
20
      536.49
11
      343.26
21
      535.54
39
 0
62
 3
 0
LINE
8
default
6
CONTINUOUS
10
     -341.95
20
      536.49
11
     -343.26
21
      535.54
39
 0
62
 1
 0
LINE
8
default
6
CONTINUOUS
10
      343.26
20
      535.54
11
      344.57
21
      534.59
39
 0
62
 3
 0
LINE
8
default
6
CONTINUOUS
10
     -343.26
20
      535.54
11
     -344.57
21
      534.59
39
 0
62
 1
 0
LINE
8
default
6
CONTINUOUS
10
      344.57
20
      534.59
11
      345.88
21
      533.63
39
 0
62
 3
 0
LINE
8
default
6
CONTINUOUS
10
     -344.57
20
      534.59
11
     -345.88
21
      533.63
39
 0
62
 1
 0
LINE
8
default
6
CONTINUOUS
10
      345.88
20
      533.63
11
      347.19
21
      532.67
39
 0
62
 3
 0
LINE
8
default
6
CONTINUOUS
10
     -345.88
20
      533.63
11
     -347.19
21
      532.67
39
 0
62
 1
 0
LINE
8
default
6
CONTINUOUS
10
      347.19
20
      532.67
11
      348.49
21
      531.70
39
 0
62
 3
 0
LINE
8
default
6
CONTINUOUS
10
     -347.19
20
      532.67
11
     -348.49
21
      531.70
39
 0
62
 1
 0
LINE
8
default
6
CONTINUOUS
10
      348.49
20
      531.70
11
      349.78
21
      530.73
39
 0
62
 3
 0
LINE
8
default
6
CONTINUOUS
10
     -348.49
20
      531.70
11
     -349.78
21
      530.73
39
 0
62
 1
 0
LINE
8
default
6
CONTINUOUS
10
      349.78
20
      530.73
11
      351.07
21
      529.75
39
 0
62
 3
 0
LINE
8
default
6
CONTINUOUS
10
     -349.78
20
      530.73
11
     -351.07
21
      529.75
39
 0
62
 1
 0
LINE
8
default
6
CONTINUOUS
10
      351.07
20
      529.75
11
      352.36
21
      528.76
39
 0
62
 3
 0
LINE
8
default
6
CONTINUOUS
10
     -351.07
20
      529.75
11
     -352.36
21
      528.76
39
 0
62
 1
 0
LINE
8
default
6
CONTINUOUS
10
      352.36
20
      528.76
11
      353.64
21
      527.77
39
 0
62
 3
 0
LINE
8
default
6
CONTINUOUS
10
     -352.36
20
      528.76
11
     -353.64
21
      527.77
39
 0
62
 1
 0
LINE
8
default
6
CONTINUOUS
10
      353.64
20
      527.77
11
      354.92
21
      526.77
39
 0
62
 3
 0
LINE
8
default
6
CONTINUOUS
10
     -353.64
20
      527.77
11
     -354.92
21
      526.77
39
 0
62
 1
 0
LINE
8
default
6
CONTINUOUS
10
      354.92
20
      526.77
11
      356.19
21
      525.77
39
 0
62
 3
 0
LINE
8
default
6
CONTINUOUS
10
     -354.92
20
      526.77
11
     -356.19
21
      525.77
39
 0
62
 1
 0
LINE
8
default
6
CONTINUOUS
10
      356.19
20
      525.77
11
      357.46
21
      524.76
39
 0
62
 3
 0
LINE
8
default
6
CONTINUOUS
10
     -356.19
20
      525.77
11
     -357.46
21
      524.76
39
 0
62
 1
 0
LINE
8
default
6
CONTINUOUS
10
      357.46
20
      524.76
11
      358.73
21
      523.74
39
 0
62
 3
 0
LINE
8
default
6
CONTINUOUS
10
     -357.46
20
      524.76
11
     -358.73
21
      523.74
39
 0
62
 1
 0
LINE
8
default
6
CONTINUOUS
10
      358.73
20
      523.74
11
      359.99
21
      522.72
39
 0
62
 3
 0
LINE
8
default
6
CONTINUOUS
10
     -358.73
20
      523.74
11
     -359.99
21
      522.72
39
 0
62
 1
 0
LINE
8
default
6
CONTINUOUS
10
      359.99
20
      522.72
11
      361.25
21
      521.70
39
 0
62
 3
 0
LINE
8
default
6
CONTINUOUS
10
     -359.99
20
      522.72
11
     -361.25
21
      521.70
39
 0
62
 1
 0
LINE
8
default
6
CONTINUOUS
10
      361.25
20
      521.70
11
      362.50
21
      520.67
39
 0
62
 3
 0
LINE
8
default
6
CONTINUOUS
10
     -361.25
20
      521.70
11
     -362.50
21
      520.67
39
 0
62
 1
 0
LINE
8
default
6
CONTINUOUS
10
      362.50
20
      520.67
11
      363.75
21
      519.63
39
 0
62
 3
 0
LINE
8
default
6
CONTINUOUS
10
     -362.50
20
      520.67
11
     -363.75
21
      519.63
39
 0
62
 1
 0
LINE
8
default
6
CONTINUOUS
10
      363.75
20
      519.63
11
      364.99
21
      518.59
39
 0
62
 3
 0
LINE
8
default
6
CONTINUOUS
10
     -363.75
20
      519.63
11
     -364.99
21
      518.59
39
 0
62
 1
 0
LINE
8
default
6
CONTINUOUS
10
      364.99
20
      518.59
11
      366.23
21
      517.54
39
 0
62
 3
 0
LINE
8
default
6
CONTINUOUS
10
     -364.99
20
      518.59
11
     -366.23
21
      517.54
39
 0
62
 1
 0
LINE
8
default
6
CONTINUOUS
10
      366.23
20
      517.54
11
      367.46
21
      516.49
39
 0
62
 3
 0
LINE
8
default
6
CONTINUOUS
10
     -366.23
20
      517.54
11
     -367.46
21
      516.49
39
 0
62
 1
 0
LINE
8
default
6
CONTINUOUS
10
      367.46
20
      516.49
11
      368.69
21
      515.43
39
 0
62
 3
 0
LINE
8
default
6
CONTINUOUS
10
     -367.46
20
      516.49
11
     -368.69
21
      515.43
39
 0
62
 1
 0
LINE
8
default
6
CONTINUOUS
10
      368.69
20
      515.43
11
      369.91
21
      514.37
39
 0
62
 3
 0
LINE
8
default
6
CONTINUOUS
10
     -368.69
20
      515.43
11
     -369.91
21
      514.37
39
 0
62
 1
 0
LINE
8
default
6
CONTINUOUS
10
      369.91
20
      514.37
11
      371.13
21
      513.30
39
 0
62
 3
 0
LINE
8
default
6
CONTINUOUS
10
     -369.91
20
      514.37
11
     -371.13
21
      513.30
39
 0
62
 1
 0
LINE
8
default
6
CONTINUOUS
10
      371.13
20
      513.30
11
      372.35
21
      512.23
39
 0
62
 3
 0
LINE
8
default
6
CONTINUOUS
10
     -371.13
20
      513.30
11
     -372.35
21
      512.23
39
 0
62
 1
 0
LINE
8
default
6
CONTINUOUS
10
      372.35
20
      512.23
11
      373.56
21
      511.15
39
 0
62
 3
 0
LINE
8
default
6
CONTINUOUS
10
     -372.35
20
      512.23
11
     -373.56
21
      511.15
39
 0
62
 1
 0
LINE
8
default
6
CONTINUOUS
10
      373.56
20
      511.15
11
      374.76
21
      510.06
39
 0
62
 3
 0
LINE
8
default
6
CONTINUOUS
10
     -373.56
20
      511.15
11
     -374.76
21
      510.06
39
 0
62
 1
 0
LINE
8
default
6
CONTINUOUS
10
      374.76
20
      510.06
11
      375.96
21
      508.98
39
 0
62
 3
 0
LINE
8
default
6
CONTINUOUS
10
     -374.76
20
      510.06
11
     -375.96
21
      508.98
39
 0
62
 1
 0
LINE
8
default
6
CONTINUOUS
10
      375.96
20
      508.98
11
      377.16
21
      507.88
39
 0
62
 3
 0
LINE
8
default
6
CONTINUOUS
10
     -375.96
20
      508.98
11
     -377.16
21
      507.88
39
 0
62
 1
 0
LINE
8
default
6
CONTINUOUS
10
      377.16
20
      507.88
11
      378.35
21
      506.78
39
 0
62
 3
 0
LINE
8
default
6
CONTINUOUS
10
     -377.16
20
      507.88
11
     -378.35
21
      506.78
39
 0
62
 1
 0
LINE
8
default
6
CONTINUOUS
10
      378.35
20
      506.78
11
      379.54
21
      505.68
39
 0
62
 3
 0
LINE
8
default
6
CONTINUOUS
10
     -378.35
20
      506.78
11
     -379.54
21
      505.68
39
 0
62
 1
 0
LINE
8
default
6
CONTINUOUS
10
      379.54
20
      505.68
11
      380.72
21
      504.57
39
 0
62
 3
 0
LINE
8
default
6
CONTINUOUS
10
     -379.54
20
      505.68
11
     -380.72
21
      504.57
39
 0
62
 1
 0
LINE
8
default
6
CONTINUOUS
10
      380.72
20
      504.57
11
      381.90
21
      503.45
39
 0
62
 3
 0
LINE
8
default
6
CONTINUOUS
10
     -380.72
20
      504.57
11
     -381.90
21
      503.45
39
 0
62
 1
 0
LINE
8
default
6
CONTINUOUS
10
      381.90
20
      503.45
11
      383.07
21
      502.33
39
 0
62
 3
 0
LINE
8
default
6
CONTINUOUS
10
     -381.90
20
      503.45
11
     -383.07
21
      502.33
39
 0
62
 1
 0
LINE
8
default
6
CONTINUOUS
10
      383.07
20
      502.33
11
      384.24
21
      501.20
39
 0
62
 3
 0
LINE
8
default
6
CONTINUOUS
10
     -383.07
20
      502.33
11
     -384.24
21
      501.20
39
 0
62
 1
 0
LINE
8
default
6
CONTINUOUS
10
      384.24
20
      501.20
11
      385.40
21
      500.07
39
 0
62
 3
 0
LINE
8
default
6
CONTINUOUS
10
     -384.24
20
      501.20
11
     -385.40
21
      500.07
39
 0
62
 1
 0
LINE
8
default
6
CONTINUOUS
10
      385.40
20
      500.07
11
      386.55
21
      498.94
39
 0
62
 3
 0
LINE
8
default
6
CONTINUOUS
10
     -385.40
20
      500.07
11
     -386.55
21
      498.94
39
 0
62
 1
 0
LINE
8
default
6
CONTINUOUS
10
      386.55
20
      498.94
11
      387.71
21
      497.80
39
 0
62
 3
 0
LINE
8
default
6
CONTINUOUS
10
     -386.55
20
      498.94
11
     -387.71
21
      497.80
39
 0
62
 1
 0
LINE
8
default
6
CONTINUOUS
10
      387.71
20
      497.80
11
      388.85
21
      496.65
39
 0
62
 3
 0
LINE
8
default
6
CONTINUOUS
10
     -387.71
20
      497.80
11
     -388.85
21
      496.65
39
 0
62
 1
 0
LINE
8
default
6
CONTINUOUS
10
      388.85
20
      496.65
11
      390.00
21
      495.50
39
 0
62
 3
 0
LINE
8
default
6
CONTINUOUS
10
     -388.85
20
      496.65
11
     -390.00
21
      495.50
39
 0
62
 1
 0
LINE
8
default
6
CONTINUOUS
10
      390.00
20
      495.50
11
      391.13
21
      494.34
39
 0
62
 3
 0
LINE
8
default
6
CONTINUOUS
10
     -390.00
20
      495.50
11
     -391.13
21
      494.34
39
 0
62
 1
 0
LINE
8
default
6
CONTINUOUS
10
      391.13
20
      494.34
11
      392.27
21
      493.18
39
 0
62
 3
 0
LINE
8
default
6
CONTINUOUS
10
     -391.13
20
      494.34
11
     -392.27
21
      493.18
39
 0
62
 1
 0
LINE
8
default
6
CONTINUOUS
10
      392.27
20
      493.18
11
      393.39
21
      492.02
39
 0
62
 3
 0
LINE
8
default
6
CONTINUOUS
10
     -392.27
20
      493.18
11
     -393.39
21
      492.02
39
 0
62
 1
 0
LINE
8
default
6
CONTINUOUS
10
      393.39
20
      492.02
11
      394.51
21
      490.85
39
 0
62
 3
 0
LINE
8
default
6
CONTINUOUS
10
     -393.39
20
      492.02
11
     -394.51
21
      490.85
39
 0
62
 1
 0
LINE
8
default
6
CONTINUOUS
10
      394.51
20
      490.85
11
      395.63
21
      489.67
39
 0
62
 3
 0
LINE
8
default
6
CONTINUOUS
10
     -394.51
20
      490.85
11
     -395.63
21
      489.67
39
 0
62
 1
 0
LINE
8
default
6
CONTINUOUS
10
      395.63
20
      489.67
11
      396.74
21
      488.49
39
 0
62
 3
 0
LINE
8
default
6
CONTINUOUS
10
     -395.63
20
      489.67
11
     -396.74
21
      488.49
39
 0
62
 1
 0
LINE
8
default
6
CONTINUOUS
10
      396.74
20
      488.49
11
      397.85
21
      487.31
39
 0
62
 3
 0
LINE
8
default
6
CONTINUOUS
10
     -396.74
20
      488.49
11
     -397.85
21
      487.31
39
 0
62
 1
 0
LINE
8
default
6
CONTINUOUS
10
      397.85
20
      487.31
11
      400.05
21
      484.92
39
 0
62
 3
 0
LINE
8
default
6
CONTINUOUS
10
     -397.85
20
      487.31
11
     -400.05
21
      484.92
39
 0
62
 1
 0
LINE
8
default
6
CONTINUOUS
10
      400.05
20
      484.92
11
      400.69
21
      484.22
39
 0
62
 3
 0
LINE
8
default
6
CONTINUOUS
10
     -400.05
20
      484.92
11
     -400.69
21
      484.22
39
 0
62
 1
 0
LINE
8
default
6
CONTINUOUS
10
      400.69
20
      484.22
11
      401.32
21
      483.50
39
 0
62
 3
 0
LINE
8
default
6
CONTINUOUS
10
     -400.69
20
      484.22
11
     -401.32
21
      483.50
39
 0
62
 1
 0
LINE
8
default
6
CONTINUOUS
10
      401.32
20
      483.50
11
      401.95
21
      482.79
39
 0
62
 3
 0
LINE
8
default
6
CONTINUOUS
10
     -401.32
20
      483.50
11
     -401.95
21
      482.79
39
 0
62
 1
 0
LINE
8
default
6
CONTINUOUS
10
      401.95
20
      482.79
11
      402.58
21
      482.07
39
 0
62
 3
 0
LINE
8
default
6
CONTINUOUS
10
     -401.95
20
      482.79
11
     -402.58
21
      482.07
39
 0
62
 1
 0
LINE
8
default
6
CONTINUOUS
10
      402.58
20
      482.07
11
      403.20
21
      481.35
39
 0
62
 3
 0
LINE
8
default
6
CONTINUOUS
10
     -402.58
20
      482.07
11
     -403.20
21
      481.35
39
 0
62
 1
 0
LINE
8
default
6
CONTINUOUS
10
      403.20
20
      481.35
11
      403.82
21
      480.62
39
 0
62
 3
 0
LINE
8
default
6
CONTINUOUS
10
     -403.20
20
      481.35
11
     -403.82
21
      480.62
39
 0
62
 1
 0
LINE
8
default
6
CONTINUOUS
10
      403.82
20
      480.62
11
      404.43
21
      479.89
39
 0
62
 3
 0
LINE
8
default
6
CONTINUOUS
10
     -403.82
20
      480.62
11
     -404.43
21
      479.89
39
 0
62
 1
 0
LINE
8
default
6
CONTINUOUS
10
      404.43
20
      479.89
11
      405.04
21
      479.16
39
 0
62
 3
 0
LINE
8
default
6
CONTINUOUS
10
     -404.43
20
      479.89
11
     -405.04
21
      479.16
39
 0
62
 1
 0
LINE
8
default
6
CONTINUOUS
10
      405.04
20
      479.16
11
      405.64
21
      478.42
39
 0
62
 3
 0
LINE
8
default
6
CONTINUOUS
10
     -405.04
20
      479.16
11
     -405.64
21
      478.42
39
 0
62
 1
 0
LINE
8
default
6
CONTINUOUS
10
      405.64
20
      478.42
11
      406.24
21
      477.67
39
 0
62
 3
 0
LINE
8
default
6
CONTINUOUS
10
     -405.64
20
      478.42
11
     -406.24
21
      477.67
39
 0
62
 1
 0
LINE
8
default
6
CONTINUOUS
10
      406.24
20
      477.67
11
      406.83
21
      476.93
39
 0
62
 3
 0
LINE
8
default
6
CONTINUOUS
10
     -406.24
20
      477.67
11
     -406.83
21
      476.93
39
 0
62
 1
 0
LINE
8
default
6
CONTINUOUS
10
      406.83
20
      476.93
11
      407.42
21
      476.18
39
 0
62
 3
 0
LINE
8
default
6
CONTINUOUS
10
     -406.83
20
      476.93
11
     -407.42
21
      476.18
39
 0
62
 1
 0
LINE
8
default
6
CONTINUOUS
10
      407.42
20
      476.18
11
      408.01
21
      475.42
39
 0
62
 3
 0
LINE
8
default
6
CONTINUOUS
10
     -407.42
20
      476.18
11
     -408.01
21
      475.42
39
 0
62
 1
 0
LINE
8
default
6
CONTINUOUS
10
      408.01
20
      475.42
11
      408.58
21
      474.66
39
 0
62
 3
 0
LINE
8
default
6
CONTINUOUS
10
     -408.01
20
      475.42
11
     -408.58
21
      474.66
39
 0
62
 1
 0
LINE
8
default
6
CONTINUOUS
10
      408.58
20
      474.66
11
      409.16
21
      473.90
39
 0
62
 3
 0
LINE
8
default
6
CONTINUOUS
10
     -408.58
20
      474.66
11
     -409.16
21
      473.90
39
 0
62
 1
 0
LINE
8
default
6
CONTINUOUS
10
      409.16
20
      473.90
11
      409.72
21
      473.13
39
 0
62
 3
 0
LINE
8
default
6
CONTINUOUS
10
     -409.16
20
      473.90
11
     -409.72
21
      473.13
39
 0
62
 1
 0
LINE
8
default
6
CONTINUOUS
10
      409.72
20
      473.13
11
      410.29
21
      472.36
39
 0
62
 3
 0
LINE
8
default
6
CONTINUOUS
10
     -409.72
20
      473.13
11
     -410.29
21
      472.36
39
 0
62
 1
 0
LINE
8
default
6
CONTINUOUS
10
      410.29
20
      472.36
11
      410.85
21
      471.59
39
 0
62
 3
 0
LINE
8
default
6
CONTINUOUS
10
     -410.29
20
      472.36
11
     -410.85
21
      471.59
39
 0
62
 1
 0
LINE
8
default
6
CONTINUOUS
10
      410.85
20
      471.59
11
      411.40
21
      470.81
39
 0
62
 3
 0
LINE
8
default
6
CONTINUOUS
10
     -410.85
20
      471.59
11
     -411.40
21
      470.81
39
 0
62
 1
 0
LINE
8
default
6
CONTINUOUS
10
      411.40
20
      470.81
11
      411.95
21
      470.03
39
 0
62
 3
 0
LINE
8
default
6
CONTINUOUS
10
     -411.40
20
      470.81
11
     -411.95
21
      470.03
39
 0
62
 1
 0
LINE
8
default
6
CONTINUOUS
10
      411.95
20
      470.03
11
      412.49
21
      469.25
39
 0
62
 3
 0
LINE
8
default
6
CONTINUOUS
10
     -411.95
20
      470.03
11
     -412.49
21
      469.25
39
 0
62
 1
 0
LINE
8
default
6
CONTINUOUS
10
      412.49
20
      469.25
11
      413.03
21
      468.46
39
 0
62
 3
 0
LINE
8
default
6
CONTINUOUS
10
     -412.49
20
      469.25
11
     -413.03
21
      468.46
39
 0
62
 1
 0
LINE
8
default
6
CONTINUOUS
10
      413.03
20
      468.46
11
      413.56
21
      467.67
39
 0
62
 3
 0
LINE
8
default
6
CONTINUOUS
10
     -413.03
20
      468.46
11
     -413.56
21
      467.67
39
 0
62
 1
 0
LINE
8
default
6
CONTINUOUS
10
      413.56
20
      467.67
11
      414.08
21
      466.87
39
 0
62
 3
 0
LINE
8
default
6
CONTINUOUS
10
     -413.56
20
      467.67
11
     -414.08
21
      466.87
39
 0
62
 1
 0
LINE
8
default
6
CONTINUOUS
10
      414.08
20
      466.87
11
      414.61
21
      466.07
39
 0
62
 3
 0
LINE
8
default
6
CONTINUOUS
10
     -414.08
20
      466.87
11
     -414.61
21
      466.07
39
 0
62
 1
 0
LINE
8
default
6
CONTINUOUS
10
      414.61
20
      466.07
11
      415.12
21
      465.27
39
 0
62
 3
 0
LINE
8
default
6
CONTINUOUS
10
     -414.61
20
      466.07
11
     -415.12
21
      465.27
39
 0
62
 1
 0
LINE
8
default
6
CONTINUOUS
10
      415.12
20
      465.27
11
      415.63
21
      464.47
39
 0
62
 3
 0
LINE
8
default
6
CONTINUOUS
10
     -415.12
20
      465.27
11
     -415.63
21
      464.47
39
 0
62
 1
 0
LINE
8
default
6
CONTINUOUS
10
      415.63
20
      464.47
11
      416.14
21
      463.66
39
 0
62
 3
 0
LINE
8
default
6
CONTINUOUS
10
     -415.63
20
      464.47
11
     -416.14
21
      463.66
39
 0
62
 1
 0
LINE
8
default
6
CONTINUOUS
10
      416.14
20
      463.66
11
      416.64
21
      462.85
39
 0
62
 3
 0
LINE
8
default
6
CONTINUOUS
10
     -416.14
20
      463.66
11
     -416.64
21
      462.85
39
 0
62
 1
 0
LINE
8
default
6
CONTINUOUS
10
      416.64
20
      462.85
11
      417.13
21
      462.03
39
 0
62
 3
 0
LINE
8
default
6
CONTINUOUS
10
     -416.64
20
      462.85
11
     -417.13
21
      462.03
39
 0
62
 1
 0
LINE
8
default
6
CONTINUOUS
10
      417.13
20
      462.03
11
      417.62
21
      461.21
39
 0
62
 3
 0
LINE
8
default
6
CONTINUOUS
10
     -417.13
20
      462.03
11
     -417.62
21
      461.21
39
 0
62
 1
 0
LINE
8
default
6
CONTINUOUS
10
      417.62
20
      461.21
11
      418.11
21
      460.39
39
 0
62
 3
 0
LINE
8
default
6
CONTINUOUS
10
     -417.62
20
      461.21
11
     -418.11
21
      460.39
39
 0
62
 1
 0
LINE
8
default
6
CONTINUOUS
10
      418.11
20
      460.39
11
      418.59
21
      459.57
39
 0
62
 3
 0
LINE
8
default
6
CONTINUOUS
10
     -418.11
20
      460.39
11
     -418.59
21
      459.57
39
 0
62
 1
 0
LINE
8
default
6
CONTINUOUS
10
      418.59
20
      459.57
11
      419.06
21
      458.74
39
 0
62
 3
 0
LINE
8
default
6
CONTINUOUS
10
     -418.59
20
      459.57
11
     -419.06
21
      458.74
39
 0
62
 1
 0
LINE
8
default
6
CONTINUOUS
10
      419.06
20
      458.74
11
      419.53
21
      457.91
39
 0
62
 3
 0
LINE
8
default
6
CONTINUOUS
10
     -419.06
20
      458.74
11
     -419.53
21
      457.91
39
 0
62
 1
 0
LINE
8
default
6
CONTINUOUS
10
      419.53
20
      457.91
11
      419.99
21
      457.07
39
 0
62
 3
 0
LINE
8
default
6
CONTINUOUS
10
     -419.53
20
      457.91
11
     -419.99
21
      457.07
39
 0
62
 1
 0
LINE
8
default
6
CONTINUOUS
10
      419.99
20
      457.07
11
      420.45
21
      456.24
39
 0
62
 3
 0
LINE
8
default
6
CONTINUOUS
10
     -419.99
20
      457.07
11
     -420.45
21
      456.24
39
 0
62
 1
 0
LINE
8
default
6
CONTINUOUS
10
      420.45
20
      456.24
11
      420.90
21
      455.40
39
 0
62
 3
 0
LINE
8
default
6
CONTINUOUS
10
     -420.45
20
      456.24
11
     -420.90
21
      455.40
39
 0
62
 1
 0
LINE
8
default
6
CONTINUOUS
10
      420.90
20
      455.40
11
      421.34
21
      454.55
39
 0
62
 3
 0
LINE
8
default
6
CONTINUOUS
10
     -420.90
20
      455.40
11
     -421.34
21
      454.55
39
 0
62
 1
 0
LINE
8
default
6
CONTINUOUS
10
      421.34
20
      454.55
11
      421.78
21
      453.71
39
 0
62
 3
 0
LINE
8
default
6
CONTINUOUS
10
     -421.34
20
      454.55
11
     -421.78
21
      453.71
39
 0
62
 1
 0
LINE
8
default
6
CONTINUOUS
10
      421.78
20
      453.71
11
      422.22
21
      452.86
39
 0
62
 3
 0
LINE
8
default
6
CONTINUOUS
10
     -421.78
20
      453.71
11
     -422.22
21
      452.86
39
 0
62
 1
 0
LINE
8
default
6
CONTINUOUS
10
      422.22
20
      452.86
11
      422.65
21
      452.01
39
 0
62
 3
 0
LINE
8
default
6
CONTINUOUS
10
     -422.22
20
      452.86
11
     -422.65
21
      452.01
39
 0
62
 1
 0
LINE
8
default
6
CONTINUOUS
10
      422.65
20
      452.01
11
      423.07
21
      451.15
39
 0
62
 3
 0
LINE
8
default
6
CONTINUOUS
10
     -422.65
20
      452.01
11
     -423.07
21
      451.15
39
 0
62
 1
 0
LINE
8
default
6
CONTINUOUS
10
      423.07
20
      451.15
11
      423.49
21
      450.29
39
 0
62
 3
 0
LINE
8
default
6
CONTINUOUS
10
     -423.07
20
      451.15
11
     -423.49
21
      450.29
39
 0
62
 1
 0
LINE
8
default
6
CONTINUOUS
10
      423.49
20
      450.29
11
      423.90
21
      449.43
39
 0
62
 3
 0
LINE
8
default
6
CONTINUOUS
10
     -423.49
20
      450.29
11
     -423.90
21
      449.43
39
 0
62
 1
 0
LINE
8
default
6
CONTINUOUS
10
      423.90
20
      449.43
11
      424.31
21
      448.57
39
 0
62
 3
 0
LINE
8
default
6
CONTINUOUS
10
     -423.90
20
      449.43
11
     -424.31
21
      448.57
39
 0
62
 1
 0
LINE
8
default
6
CONTINUOUS
10
      424.31
20
      448.57
11
      424.71
21
      447.71
39
 0
62
 3
 0
LINE
8
default
6
CONTINUOUS
10
     -424.31
20
      448.57
11
     -424.71
21
      447.71
39
 0
62
 1
 0
LINE
8
default
6
CONTINUOUS
10
      424.71
20
      447.71
11
      425.10
21
      446.84
39
 0
62
 3
 0
LINE
8
default
6
CONTINUOUS
10
     -424.71
20
      447.71
11
     -425.10
21
      446.84
39
 0
62
 1
 0
LINE
8
default
6
CONTINUOUS
10
      425.10
20
      446.84
11
      425.49
21
      445.97
39
 0
62
 3
 0
LINE
8
default
6
CONTINUOUS
10
     -425.10
20
      446.84
11
     -425.49
21
      445.97
39
 0
62
 1
 0
LINE
8
default
6
CONTINUOUS
10
      425.49
20
      445.97
11
      425.87
21
      445.09
39
 0
62
 3
 0
LINE
8
default
6
CONTINUOUS
10
     -425.49
20
      445.97
11
     -425.87
21
      445.09
39
 0
62
 1
 0
LINE
8
default
6
CONTINUOUS
10
      425.87
20
      445.09
11
      426.25
21
      444.22
39
 0
62
 3
 0
LINE
8
default
6
CONTINUOUS
10
     -425.87
20
      445.09
11
     -426.25
21
      444.22
39
 0
62
 1
 0
LINE
8
default
6
CONTINUOUS
10
      426.25
20
      444.22
11
      426.62
21
      443.34
39
 0
62
 3
 0
LINE
8
default
6
CONTINUOUS
10
     -426.25
20
      444.22
11
     -426.62
21
      443.34
39
 0
62
 1
 0
LINE
8
default
6
CONTINUOUS
10
      426.62
20
      443.34
11
      426.99
21
      442.46
39
 0
62
 3
 0
LINE
8
default
6
CONTINUOUS
10
     -426.62
20
      443.34
11
     -426.99
21
      442.46
39
 0
62
 1
 0
LINE
8
default
6
CONTINUOUS
10
      426.99
20
      442.46
11
      427.35
21
      441.58
39
 0
62
 3
 0
LINE
8
default
6
CONTINUOUS
10
     -426.99
20
      442.46
11
     -427.35
21
      441.58
39
 0
62
 1
 0
LINE
8
default
6
CONTINUOUS
10
      427.35
20
      441.58
11
      427.70
21
      440.69
39
 0
62
 3
 0
LINE
8
default
6
CONTINUOUS
10
     -427.35
20
      441.58
11
     -427.70
21
      440.69
39
 0
62
 1
 0
LINE
8
default
6
CONTINUOUS
10
      427.70
20
      440.69
11
      428.05
21
      439.80
39
 0
62
 3
 0
LINE
8
default
6
CONTINUOUS
10
     -427.70
20
      440.69
11
     -428.05
21
      439.80
39
 0
62
 1
 0
LINE
8
default
6
CONTINUOUS
10
      428.05
20
      439.80
11
      428.40
21
      438.91
39
 0
62
 3
 0
LINE
8
default
6
CONTINUOUS
10
     -428.05
20
      439.80
11
     -428.40
21
      438.91
39
 0
62
 1
 0
LINE
8
default
6
CONTINUOUS
10
      428.40
20
      438.91
11
      428.73
21
      438.02
39
 0
62
 3
 0
LINE
8
default
6
CONTINUOUS
10
     -428.40
20
      438.91
11
     -428.73
21
      438.02
39
 0
62
 1
 0
LINE
8
default
6
CONTINUOUS
10
      428.73
20
      438.02
11
      429.06
21
      437.13
39
 0
62
 3
 0
LINE
8
default
6
CONTINUOUS
10
     -428.73
20
      438.02
11
     -429.06
21
      437.13
39
 0
62
 1
 0
LINE
8
default
6
CONTINUOUS
10
      429.06
20
      437.13
11
      429.39
21
      436.23
39
 0
62
 3
 0
LINE
8
default
6
CONTINUOUS
10
     -429.06
20
      437.13
11
     -429.39
21
      436.23
39
 0
62
 1
 0
LINE
8
default
6
CONTINUOUS
10
      429.39
20
      436.23
11
      429.71
21
      435.33
39
 0
62
 3
 0
LINE
8
default
6
CONTINUOUS
10
     -429.39
20
      436.23
11
     -429.71
21
      435.33
39
 0
62
 1
 0
LINE
8
default
6
CONTINUOUS
10
      429.71
20
      435.33
11
      430.02
21
      434.43
39
 0
62
 3
 0
LINE
8
default
6
CONTINUOUS
10
     -429.71
20
      435.33
11
     -430.02
21
      434.43
39
 0
62
 1
 0
LINE
8
default
6
CONTINUOUS
10
      430.02
20
      434.43
11
      430.33
21
      433.53
39
 0
62
 3
 0
LINE
8
default
6
CONTINUOUS
10
     -430.02
20
      434.43
11
     -430.33
21
      433.53
39
 0
62
 1
 0
LINE
8
default
6
CONTINUOUS
10
      430.33
20
      433.53
11
      430.63
21
      432.62
39
 0
62
 3
 0
LINE
8
default
6
CONTINUOUS
10
     -430.33
20
      433.53
11
     -430.63
21
      432.62
39
 0
62
 1
 0
LINE
8
default
6
CONTINUOUS
10
      430.63
20
      432.62
11
      430.92
21
      431.72
39
 0
62
 3
 0
LINE
8
default
6
CONTINUOUS
10
     -430.63
20
      432.62
11
     -430.92
21
      431.72
39
 0
62
 1
 0
LINE
8
default
6
CONTINUOUS
10
      430.92
20
      431.72
11
      431.21
21
      430.81
39
 0
62
 3
 0
LINE
8
default
6
CONTINUOUS
10
     -430.92
20
      431.72
11
     -431.21
21
      430.81
39
 0
62
 1
 0
LINE
8
default
6
CONTINUOUS
10
      431.21
20
      430.81
11
      431.50
21
      429.90
39
 0
62
 3
 0
LINE
8
default
6
CONTINUOUS
10
     -431.21
20
      430.81
11
     -431.50
21
      429.90
39
 0
62
 1
 0
LINE
8
default
6
CONTINUOUS
10
      431.50
20
      429.90
11
      431.77
21
      428.98
39
 0
62
 3
 0
LINE
8
default
6
CONTINUOUS
10
     -431.50
20
      429.90
11
     -431.77
21
      428.98
39
 0
62
 1
 0
LINE
8
default
6
CONTINUOUS
10
      431.77
20
      428.98
11
      432.05
21
      428.07
39
 0
62
 3
 0
LINE
8
default
6
CONTINUOUS
10
     -431.77
20
      428.98
11
     -432.05
21
      428.07
39
 0
62
 1
 0
LINE
8
default
6
CONTINUOUS
10
      432.05
20
      428.07
11
      432.31
21
      427.15
39
 0
62
 3
 0
LINE
8
default
6
CONTINUOUS
10
     -432.05
20
      428.07
11
     -432.31
21
      427.15
39
 0
62
 1
 0
LINE
8
default
6
CONTINUOUS
10
      432.31
20
      427.15
11
      432.57
21
      426.24
39
 0
62
 3
 0
LINE
8
default
6
CONTINUOUS
10
     -432.31
20
      427.15
11
     -432.57
21
      426.24
39
 0
62
 1
 0
LINE
8
default
6
CONTINUOUS
10
      432.57
20
      426.24
11
      432.82
21
      425.32
39
 0
62
 3
 0
LINE
8
default
6
CONTINUOUS
10
     -432.57
20
      426.24
11
     -432.82
21
      425.32
39
 0
62
 1
 0
LINE
8
default
6
CONTINUOUS
10
      432.82
20
      425.32
11
      433.07
21
      424.40
39
 0
62
 3
 0
LINE
8
default
6
CONTINUOUS
10
     -432.82
20
      425.32
11
     -433.07
21
      424.40
39
 0
62
 1
 0
LINE
8
default
6
CONTINUOUS
10
      433.07
20
      424.40
11
      433.31
21
      423.47
39
 0
62
 3
 0
LINE
8
default
6
CONTINUOUS
10
     -433.07
20
      424.40
11
     -433.31
21
      423.47
39
 0
62
 1
 0
LINE
8
default
6
CONTINUOUS
10
      433.31
20
      423.47
11
      433.55
21
      422.55
39
 0
62
 3
 0
LINE
8
default
6
CONTINUOUS
10
     -433.31
20
      423.47
11
     -433.55
21
      422.55
39
 0
62
 1
 0
LINE
8
default
6
CONTINUOUS
10
      433.55
20
      422.55
11
      433.77
21
      421.62
39
 0
62
 3
 0
LINE
8
default
6
CONTINUOUS
10
     -433.55
20
      422.55
11
     -433.77
21
      421.62
39
 0
62
 1
 0
LINE
8
default
6
CONTINUOUS
10
      433.77
20
      421.62
11
      434.00
21
      420.70
39
 0
62
 3
 0
LINE
8
default
6
CONTINUOUS
10
     -433.77
20
      421.62
11
     -434.00
21
      420.70
39
 0
62
 1
 0
LINE
8
default
6
CONTINUOUS
10
      434.00
20
      420.70
11
      434.21
21
      419.77
39
 0
62
 3
 0
LINE
8
default
6
CONTINUOUS
10
     -434.00
20
      420.70
11
     -434.21
21
      419.77
39
 0
62
 1
 0
LINE
8
default
6
CONTINUOUS
10
      434.21
20
      419.77
11
      434.42
21
      418.84
39
 0
62
 3
 0
LINE
8
default
6
CONTINUOUS
10
     -434.21
20
      419.77
11
     -434.42
21
      418.84
39
 0
62
 1
 0
LINE
8
default
6
CONTINUOUS
10
      434.42
20
      418.84
11
      434.63
21
      417.90
39
 0
62
 3
 0
LINE
8
default
6
CONTINUOUS
10
     -434.42
20
      418.84
11
     -434.63
21
      417.90
39
 0
62
 1
 0
LINE
8
default
6
CONTINUOUS
10
      434.63
20
      417.90
11
      434.83
21
      416.97
39
 0
62
 3
 0
LINE
8
default
6
CONTINUOUS
10
     -434.63
20
      417.90
11
     -434.83
21
      416.97
39
 0
62
 1
 0
LINE
8
default
6
CONTINUOUS
10
      434.83
20
      416.97
11
      435.02
21
      416.04
39
 0
62
 3
 0
LINE
8
default
6
CONTINUOUS
10
     -434.83
20
      416.97
11
     -435.02
21
      416.04
39
 0
62
 1
 0
LINE
8
default
6
CONTINUOUS
10
      435.02
20
      416.04
11
      435.20
21
      415.10
39
 0
62
 3
 0
LINE
8
default
6
CONTINUOUS
10
     -435.02
20
      416.04
11
     -435.20
21
      415.10
39
 0
62
 1
 0
LINE
8
default
6
CONTINUOUS
10
      435.20
20
      415.10
11
      435.38
21
      414.17
39
 0
62
 3
 0
LINE
8
default
6
CONTINUOUS
10
     -435.20
20
      415.10
11
     -435.38
21
      414.17
39
 0
62
 1
 0
LINE
8
default
6
CONTINUOUS
10
      435.38
20
      414.17
11
      435.56
21
      413.23
39
 0
62
 3
 0
LINE
8
default
6
CONTINUOUS
10
     -435.38
20
      414.17
11
     -435.56
21
      413.23
39
 0
62
 1
 0
LINE
8
default
6
CONTINUOUS
10
      435.56
20
      413.23
11
      435.72
21
      412.29
39
 0
62
 3
 0
LINE
8
default
6
CONTINUOUS
10
     -435.56
20
      413.23
11
     -435.72
21
      412.29
39
 0
62
 1
 0
LINE
8
default
6
CONTINUOUS
10
      435.72
20
      412.29
11
      435.89
21
      411.35
39
 0
62
 3
 0
LINE
8
default
6
CONTINUOUS
10
     -435.72
20
      412.29
11
     -435.89
21
      411.35
39
 0
62
 1
 0
LINE
8
default
6
CONTINUOUS
10
      435.89
20
      411.35
11
      436.04
21
      410.41
39
 0
62
 3
 0
LINE
8
default
6
CONTINUOUS
10
     -435.89
20
      411.35
11
     -436.04
21
      410.41
39
 0
62
 1
 0
LINE
8
default
6
CONTINUOUS
10
      436.04
20
      410.41
11
      436.19
21
      409.47
39
 0
62
 3
 0
LINE
8
default
6
CONTINUOUS
10
     -436.04
20
      410.41
11
     -436.19
21
      409.47
39
 0
62
 1
 0
LINE
8
default
6
CONTINUOUS
10
      436.19
20
      409.47
11
      436.33
21
      408.52
39
 0
62
 3
 0
LINE
8
default
6
CONTINUOUS
10
     -436.19
20
      409.47
11
     -436.33
21
      408.52
39
 0
62
 1
 0
LINE
8
default
6
CONTINUOUS
10
      436.33
20
      408.52
11
      436.47
21
      407.58
39
 0
62
 3
 0
LINE
8
default
6
CONTINUOUS
10
     -436.33
20
      408.52
11
     -436.47
21
      407.58
39
 0
62
 1
 0
LINE
8
default
6
CONTINUOUS
10
      436.47
20
      407.58
11
      436.60
21
      406.63
39
 0
62
 3
 0
LINE
8
default
6
CONTINUOUS
10
     -436.47
20
      407.58
11
     -436.60
21
      406.63
39
 0
62
 1
 0
LINE
8
default
6
CONTINUOUS
10
      436.60
20
      406.63
11
      436.72
21
      405.69
39
 0
62
 3
 0
LINE
8
default
6
CONTINUOUS
10
     -436.60
20
      406.63
11
     -436.72
21
      405.69
39
 0
62
 1
 0
LINE
8
default
6
CONTINUOUS
10
      436.72
20
      405.69
11
      436.84
21
      404.74
39
 0
62
 3
 0
LINE
8
default
6
CONTINUOUS
10
     -436.72
20
      405.69
11
     -436.84
21
      404.74
39
 0
62
 1
 0
LINE
8
default
6
CONTINUOUS
10
      436.84
20
      404.74
11
      436.95
21
      403.80
39
 0
62
 3
 0
LINE
8
default
6
CONTINUOUS
10
     -436.84
20
      404.74
11
     -436.95
21
      403.80
39
 0
62
 1
 0
LINE
8
default
6
CONTINUOUS
10
      436.95
20
      403.80
11
      437.06
21
      402.85
39
 0
62
 3
 0
LINE
8
default
6
CONTINUOUS
10
     -436.95
20
      403.80
11
     -437.06
21
      402.85
39
 0
62
 1
 0
LINE
8
default
6
CONTINUOUS
10
      437.06
20
      402.85
11
      437.15
21
      401.90
39
 0
62
 3
 0
LINE
8
default
6
CONTINUOUS
10
     -437.06
20
      402.85
11
     -437.15
21
      401.90
39
 0
62
 1
 0
LINE
8
default
6
CONTINUOUS
10
      437.15
20
      401.90
11
      437.25
21
      400.95
39
 0
62
 3
 0
LINE
8
default
6
CONTINUOUS
10
     -437.15
20
      401.90
11
     -437.25
21
      400.95
39
 0
62
 1
 0
LINE
8
default
6
CONTINUOUS
10
      437.25
20
      400.95
11
      437.33
21
      400.00
39
 0
62
 3
 0
LINE
8
default
6
CONTINUOUS
10
     -437.25
20
      400.95
11
     -437.33
21
      400.00
39
 0
62
 1
 0
LINE
8
default
6
CONTINUOUS
10
       20.44
20
        -.10
11
       20.44
21
     -246.39
39
 0
62
 3
 0
LINE
8
default
6
CONTINUOUS
10
      -20.44
20
        -.10
11
      -20.44
21
     -246.39
39
 0
62
 1
 0
LINE
8
default
6
CONTINUOUS
10
       61.14
20
        -.88
11
       61.14
21
     -245.82
39
 0
62
 3
 0
LINE
8
default
6
CONTINUOUS
10
      -61.14
20
        -.88
11
      -61.14
21
     -245.82
39
 0
62
 1
 0
LINE
8
default
6
CONTINUOUS
10
      101.49
20
       -2.44
11
      101.49
21
     -244.70
39
 0
62
 3
 0
LINE
8
default
6
CONTINUOUS
10
     -101.49
20
       -2.44
11
     -101.49
21
     -244.70
39
 0
62
 1
 0
LINE
8
default
6
CONTINUOUS
10
      141.31
20
       -4.76
11
      141.31
21
     -243.03
39
 0
62
 3
 0
LINE
8
default
6
CONTINUOUS
10
     -141.31
20
       -4.76
11
     -141.31
21
     -243.03
39
 0
62
 1
 0
LINE
8
default
6
CONTINUOUS
10
      180.43
20
       -7.82
11
      180.43
21
     -240.82
39
 0
62
 3
 0
LINE
8
default
6
CONTINUOUS
10
     -180.43
20
       -7.82
11
     -180.43
21
     -240.82
39
 0
62
 1
 0
LINE
8
default
6
CONTINUOUS
10
      218.64
20
      -11.60
11
      218.64
21
     -237.76
39
 0
62
 3
 0
LINE
8
default
6
CONTINUOUS
10
     -218.64
20
      -11.60
11
     -218.64
21
     -237.76
39
 0
62
 1
 0
LINE
8
default
6
CONTINUOUS
10
      255.75
20
      -16.06
11
      255.75
21
     -233.97
39
 0
62
 3
 0
LINE
8
default
6
CONTINUOUS
10
     -255.75
20
      -16.06
11
     -255.75
21
     -233.97
39
 0
62
 1
 0
LINE
8
default
6
CONTINUOUS
10
      291.60
20
      -21.18
11
      291.60
21
     -229.57
39
 0
62
 3
 0
LINE
8
default
6
CONTINUOUS
10
     -291.60
20
      -21.18
11
     -291.60
21
     -229.57
39
 0
62
 1
 0
LINE
8
default
6
CONTINUOUS
10
      326.04
20
      -26.89
11
      326.04
21
     -224.65
39
 0
62
 3
 0
LINE
8
default
6
CONTINUOUS
10
     -326.04
20
      -26.89
11
     -326.04
21
     -224.65
39
 0
62
 1
 0
LINE
8
default
6
CONTINUOUS
10
      358.92
20
      -33.21
11
      358.92
21
     -219.26
39
 0
62
 3
 0
LINE
8
default
6
CONTINUOUS
10
     -358.92
20
      -33.21
11
     -358.92
21
     -219.26
39
 0
62
 1
 0
LINE
8
default
6
CONTINUOUS
10
      390.05
20
      -40.63
11
      390.05
21
     -213.49
39
 0
62
 3
 0
LINE
8
default
6
CONTINUOUS
10
     -390.05
20
      -40.63
11
     -390.05
21
     -213.49
39
 0
62
 1
 0
LINE
8
default
6
CONTINUOUS
10
      419.19
20
      -49.61
11
      419.19
21
     -207.44
39
 0
62
 3
 0
LINE
8
default
6
CONTINUOUS
10
     -419.19
20
      -49.61
11
     -419.19
21
     -207.44
39
 0
62
 1
 0
LINE
8
default
6
CONTINUOUS
10
      446.09
20
      -60.24
11
      446.09
21
     -201.21
39
 0
62
 3
 0
LINE
8
default
6
CONTINUOUS
10
     -446.09
20
      -60.24
11
     -446.09
21
     -201.21
39
 0
62
 1
 0
LINE
8
default
6
CONTINUOUS
10
      470.55
20
      -72.30
11
      470.55
21
     -194.94
39
 0
62
 3
 0
LINE
8
default
6
CONTINUOUS
10
     -470.55
20
      -72.30
11
     -470.55
21
     -194.94
39
 0
62
 1
 0
LINE
8
default
6
CONTINUOUS
10
      492.46
20
      -85.38
11
      492.46
21
     -188.75
39
 0
62
 3
 0
LINE
8
default
6
CONTINUOUS
10
     -492.46
20
      -85.38
11
     -492.46
21
     -188.75
39
 0
62
 1
 0
LINE
8
default
6
CONTINUOUS
10
      511.60
20
     -100.29
11
      511.60
21
     -182.82
39
 0
62
 3
 0
LINE
8
default
6
CONTINUOUS
10
     -511.60
20
     -100.29
11
     -511.60
21
     -182.82
39
 0
62
 1
 0
LINE
8
default
6
CONTINUOUS
10
      527.00
20
     -123.24
11
      527.00
21
     -177.63
39
 0
62
 3
 0
LINE
8
default
6
CONTINUOUS
10
     -527.00
20
     -123.24
11
     -527.00
21
     -177.63
39
 0
62
 1
 0
LINE
8
default
6
CONTINUOUS
10
       20.44
20
      621.61
11
       20.44
21
      671.61
39
 0
62
 1
 0
LINE
8
default
6
CONTINUOUS
10
       20.44
20
      621.61
11
       21.47
21
      671.60
39
 0
62
 2
 0
LINE
8
default
6
CONTINUOUS
10
       61.10
20
      619.87
11
       61.10
21
      669.87
39
 0
62
 1
 0
LINE
8
default
6
CONTINUOUS
10
       61.10
20
      619.87
11
       64.27
21
      669.77
39
 0
62
 2
 0
LINE
8
default
6
CONTINUOUS
10
      101.30
20
      616.44
11
      101.30
21
      666.44
39
 0
62
 1
 0
LINE
8
default
6
CONTINUOUS
10
      101.30
20
      616.44
11
      106.61
21
      666.16
39
 0
62
 2
 0
LINE
8
default
6
CONTINUOUS
10
      140.79
20
      611.40
11
      140.79
21
      661.40
39
 0
62
 1
 0
LINE
8
default
6
CONTINUOUS
10
      140.79
20
      611.40
11
      148.13
21
      660.86
39
 0
62
 2
 0
LINE
8
default
6
CONTINUOUS
10
      179.34
20
      604.78
11
      179.34
21
      654.78
39
 0
62
 1
 0
LINE
8
default
6
CONTINUOUS
10
      179.34
20
      604.78
11
      189.29
21
      653.78
39
 0
62
 2
 0
LINE
8
default
6
CONTINUOUS
10
      216.44
20
      595.68
11
      216.44
21
      645.68
39
 0
62
 1
 0
LINE
8
default
6
CONTINUOUS
10
      216.44
20
      595.68
11
      230.31
21
      643.71
39
 0
62
 2
 0
LINE
8
default
6
CONTINUOUS
10
      251.67
20
      584.03
11
      251.67
21
      634.03
39
 0
62
 1
 0
LINE
8
default
6
CONTINUOUS
10
      251.67
20
      584.03
11
      269.16
21
      630.88
39
 0
62
 2
 0
LINE
8
default
6
CONTINUOUS
10
      284.72
20
      570.16
11
      284.72
21
      620.16
39
 0
62
 1
 0
LINE
8
default
6
CONTINUOUS
10
      284.72
20
      570.16
11
      306.03
21
      615.39
39
 0
62
 2
 0
LINE
8
default
6
CONTINUOUS
10
      315.11
20
      554.00
11
      315.11
21
      604.00
39
 0
62
 1
 0
LINE
8
default
6
CONTINUOUS
10
      315.11
20
      554.00
11
      340.66
21
      596.98
39
 0
62
 2
 0
LINE
8
default
6
CONTINUOUS
10
      342.62
20
      536.01
11
      342.62
21
      586.01
39
 0
62
 1
 0
LINE
8
default
6
CONTINUOUS
10
      342.62
20
      536.01
11
      371.81
21
      576.60
39
 0
62
 2
 0
LINE
8
default
6
CONTINUOUS
10
      367.11
20
      516.79
11
      367.11
21
      566.79
39
 0
62
 1
 0
LINE
8
default
6
CONTINUOUS
10
      367.11
20
      516.79
11
      399.56
21
      554.83
39
 0
62
 2
 0
LINE
8
default
6
CONTINUOUS
10
      388.49
20
      497.01
11
      388.49
21
      547.01
39
 0
62
 1
 0
LINE
8
default
6
CONTINUOUS
10
      388.49
20
      497.01
11
      423.83
21
      532.39
39
 0
62
 2
 0
LINE
8
default
6
CONTINUOUS
10
      406.64
20
      477.17
11
      406.64
21
      527.17
39
 0
62
 1
 0
LINE
8
default
6
CONTINUOUS
10
      406.64
20
      477.17
11
      445.80
21
      508.26
39
 0
62
 2
 0
LINE
8
default
6
CONTINUOUS
10
      420.14
20
      456.81
11
      420.14
21
      506.81
39
 0
62
 1
 0
LINE
8
default
6
CONTINUOUS
10
      420.14
20
      456.81
11
      464.03
21
      480.75
39
 0
62
 2
 0
LINE
8
default
6
CONTINUOUS
10
      429.16
20
      436.87
11
      429.16
21
      486.87
39
 0
62
 1
 0
LINE
8
default
6
CONTINUOUS
10
      429.16
20
      436.87
11
      476.16
21
      453.91
39
 0
62
 2
 0
LINE
8
default
6
CONTINUOUS
10
      434.50
20
      418.50
11
      434.50
21
      468.50
39
 0
62
 1
 0
LINE
8
default
6
CONTINUOUS
10
      434.50
20
      418.50
11
      483.34
21
      429.21
39
 0
62
 2
 0
LINE
8
default
6
CONTINUOUS
10
      437.33
20
      400.00
11
      437.33
21
      450.00
39
 0
62
 1
 0
LINE
8
default
6
CONTINUOUS
10
      437.33
20
      400.00
11
      487.03
21
      405.51
39
 0
62
 2
 0
ENDSEC
0
EOF
