0
SECTION
2
HEADER
9
$EXTMAX
10
    -900.000
20
      90.000
9
$EXTMIN
10
    5000.000
20
   -3000.000
0
ENDSEC
0
SECTION
2
ENTITIES
0
LINE
8
default
6
CONTINUOUS
10
        0.00
20
       -0.00
11
        6.42
21
       -0.01
39
 0
62
 1
 0
LINE
8
default
6
CONTINUOUS
10
        0.00
20
       -0.00
11
       -6.42
21
       -0.01
39
 0
62
 1
 0
LINE
8
default
6
CONTINUOUS
10
        6.42
20
       -0.01
11
       12.84
21
       -0.04
39
 0
62
 1
 0
LINE
8
default
6
CONTINUOUS
10
       -6.42
20
       -0.01
11
      -12.84
21
       -0.04
39
 0
62
 1
 0
LINE
8
default
6
CONTINUOUS
10
       12.84
20
       -0.04
11
       19.25
21
       -0.09
39
 0
62
 1
 0
LINE
8
default
6
CONTINUOUS
10
      -12.84
20
       -0.04
11
      -19.25
21
       -0.09
39
 0
62
 1
 0
LINE
8
default
6
CONTINUOUS
10
       19.25
20
       -0.09
11
       25.67
21
       -0.16
39
 0
62
 1
 0
LINE
8
default
6
CONTINUOUS
10
      -19.25
20
       -0.09
11
      -25.67
21
       -0.16
39
 0
62
 1
 0
LINE
8
default
6
CONTINUOUS
10
       25.67
20
       -0.16
11
       32.08
21
       -0.24
39
 0
62
 1
 0
LINE
8
default
6
CONTINUOUS
10
      -25.67
20
       -0.16
11
      -32.08
21
       -0.24
39
 0
62
 1
 0
LINE
8
default
6
CONTINUOUS
10
       32.08
20
       -0.24
11
       38.49
21
       -0.35
39
 0
62
 1
 0
LINE
8
default
6
CONTINUOUS
10
      -32.08
20
       -0.24
11
      -38.49
21
       -0.35
39
 0
62
 1
 0
LINE
8
default
6
CONTINUOUS
10
       38.49
20
       -0.35
11
       44.90
21
       -0.48
39
 0
62
 1
 0
LINE
8
default
6
CONTINUOUS
10
      -38.49
20
       -0.35
11
      -44.90
21
       -0.48
39
 0
62
 1
 0
LINE
8
default
6
CONTINUOUS
10
       44.90
20
       -0.48
11
       51.30
21
       -0.62
39
 0
62
 1
 0
LINE
8
default
6
CONTINUOUS
10
      -44.90
20
       -0.48
11
      -51.30
21
       -0.62
39
 0
62
 1
 0
LINE
8
default
6
CONTINUOUS
10
       51.30
20
       -0.62
11
       57.69
21
       -0.79
39
 0
62
 1
 0
LINE
8
default
6
CONTINUOUS
10
      -51.30
20
       -0.62
11
      -57.69
21
       -0.79
39
 0
62
 1
 0
LINE
8
default
6
CONTINUOUS
10
       57.69
20
       -0.79
11
       64.09
21
       -0.97
39
 0
62
 1
 0
LINE
8
default
6
CONTINUOUS
10
      -57.69
20
       -0.79
11
      -64.09
21
       -0.97
39
 0
62
 1
 0
LINE
8
default
6
CONTINUOUS
10
       64.09
20
       -0.97
11
       70.47
21
       -1.17
39
 0
62
 1
 0
LINE
8
default
6
CONTINUOUS
10
      -64.09
20
       -0.97
11
      -70.47
21
       -1.17
39
 0
62
 1
 0
LINE
8
default
6
CONTINUOUS
10
       70.47
20
       -1.17
11
       76.85
21
       -1.40
39
 0
62
 1
 0
LINE
8
default
6
CONTINUOUS
10
      -70.47
20
       -1.17
11
      -76.85
21
       -1.40
39
 0
62
 1
 0
LINE
8
default
6
CONTINUOUS
10
       76.85
20
       -1.40
11
       83.21
21
       -1.64
39
 0
62
 1
 0
LINE
8
default
6
CONTINUOUS
10
      -76.85
20
       -1.40
11
      -83.21
21
       -1.64
39
 0
62
 1
 0
LINE
8
default
6
CONTINUOUS
10
       83.21
20
       -1.64
11
       89.58
21
       -1.90
39
 0
62
 1
 0
LINE
8
default
6
CONTINUOUS
10
      -83.21
20
       -1.64
11
      -89.58
21
       -1.90
39
 0
62
 1
 0
LINE
8
default
6
CONTINUOUS
10
       89.58
20
       -1.90
11
       95.93
21
       -2.18
39
 0
62
 1
 0
LINE
8
default
6
CONTINUOUS
10
      -89.58
20
       -1.90
11
      -95.93
21
       -2.18
39
 0
62
 1
 0
LINE
8
default
6
CONTINUOUS
10
       95.93
20
       -2.18
11
      102.27
21
       -2.48
39
 0
62
 1
 0
LINE
8
default
6
CONTINUOUS
10
      -95.93
20
       -2.18
11
     -102.27
21
       -2.48
39
 0
62
 1
 0
LINE
8
default
6
CONTINUOUS
10
      102.27
20
       -2.48
11
      108.60
21
       -2.80
39
 0
62
 1
 0
LINE
8
default
6
CONTINUOUS
10
     -102.27
20
       -2.48
11
     -108.60
21
       -2.80
39
 0
62
 1
 0
LINE
8
default
6
CONTINUOUS
10
      108.60
20
       -2.80
11
      114.92
21
       -3.13
39
 0
62
 1
 0
LINE
8
default
6
CONTINUOUS
10
     -108.60
20
       -2.80
11
     -114.92
21
       -3.13
39
 0
62
 1
 0
LINE
8
default
6
CONTINUOUS
10
      114.92
20
       -3.13
11
      121.23
21
       -3.49
39
 0
62
 1
 0
LINE
8
default
6
CONTINUOUS
10
     -114.92
20
       -3.13
11
     -121.23
21
       -3.49
39
 0
62
 1
 0
LINE
8
default
6
CONTINUOUS
10
      121.23
20
       -3.49
11
      127.53
21
       -3.87
39
 0
62
 1
 0
LINE
8
default
6
CONTINUOUS
10
     -121.23
20
       -3.49
11
     -127.53
21
       -3.87
39
 0
62
 1
 0
LINE
8
default
6
CONTINUOUS
10
      127.53
20
       -3.87
11
      133.81
21
       -4.26
39
 0
62
 1
 0
LINE
8
default
6
CONTINUOUS
10
     -127.53
20
       -3.87
11
     -133.81
21
       -4.26
39
 0
62
 1
 0
LINE
8
default
6
CONTINUOUS
10
      133.81
20
       -4.26
11
      140.09
21
       -4.68
39
 0
62
 1
 0
LINE
8
default
6
CONTINUOUS
10
     -133.81
20
       -4.26
11
     -140.09
21
       -4.68
39
 0
62
 1
 0
LINE
8
default
6
CONTINUOUS
10
      140.09
20
       -4.68
11
      146.34
21
       -5.11
39
 0
62
 1
 0
LINE
8
default
6
CONTINUOUS
10
     -140.09
20
       -4.68
11
     -146.34
21
       -5.11
39
 0
62
 1
 0
LINE
8
default
6
CONTINUOUS
10
      146.34
20
       -5.11
11
      152.59
21
       -5.56
39
 0
62
 1
 0
LINE
8
default
6
CONTINUOUS
10
     -146.34
20
       -5.11
11
     -152.59
21
       -5.56
39
 0
62
 1
 0
LINE
8
default
6
CONTINUOUS
10
      152.59
20
       -5.56
11
      158.81
21
       -6.03
39
 0
62
 1
 0
LINE
8
default
6
CONTINUOUS
10
     -152.59
20
       -5.56
11
     -158.81
21
       -6.03
39
 0
62
 1
 0
LINE
8
default
6
CONTINUOUS
10
      158.81
20
       -6.03
11
      165.03
21
       -6.52
39
 0
62
 1
 0
LINE
8
default
6
CONTINUOUS
10
     -158.81
20
       -6.03
11
     -165.03
21
       -6.52
39
 0
62
 1
 0
LINE
8
default
6
CONTINUOUS
10
      165.03
20
       -6.52
11
      171.22
21
       -7.03
39
 0
62
 1
 0
LINE
8
default
6
CONTINUOUS
10
     -165.03
20
       -6.52
11
     -171.22
21
       -7.03
39
 0
62
 1
 0
LINE
8
default
6
CONTINUOUS
10
      171.22
20
       -7.03
11
      177.40
21
       -7.56
39
 0
62
 1
 0
LINE
8
default
6
CONTINUOUS
10
     -171.22
20
       -7.03
11
     -177.40
21
       -7.56
39
 0
62
 1
 0
LINE
8
default
6
CONTINUOUS
10
      177.40
20
       -7.56
11
      183.56
21
       -8.10
39
 0
62
 1
 0
LINE
8
default
6
CONTINUOUS
10
     -177.40
20
       -7.56
11
     -183.56
21
       -8.10
39
 0
62
 1
 0
LINE
8
default
6
CONTINUOUS
10
      183.56
20
       -8.10
11
      189.70
21
       -8.67
39
 0
62
 1
 0
LINE
8
default
6
CONTINUOUS
10
     -183.56
20
       -8.10
11
     -189.70
21
       -8.67
39
 0
62
 1
 0
LINE
8
default
6
CONTINUOUS
10
      189.70
20
       -8.67
11
      195.82
21
       -9.25
39
 0
62
 1
 0
LINE
8
default
6
CONTINUOUS
10
     -189.70
20
       -8.67
11
     -195.82
21
       -9.25
39
 0
62
 1
 0
LINE
8
default
6
CONTINUOUS
10
      195.82
20
       -9.25
11
      201.93
21
       -9.85
39
 0
62
 1
 0
LINE
8
default
6
CONTINUOUS
10
     -195.82
20
       -9.25
11
     -201.93
21
       -9.85
39
 0
62
 1
 0
LINE
8
default
6
CONTINUOUS
10
      201.93
20
       -9.85
11
      208.01
21
      -10.47
39
 0
62
 1
 0
LINE
8
default
6
CONTINUOUS
10
     -201.93
20
       -9.85
11
     -208.01
21
      -10.47
39
 0
62
 1
 0
LINE
8
default
6
CONTINUOUS
10
      208.01
20
      -10.47
11
      214.07
21
      -11.11
39
 0
62
 1
 0
LINE
8
default
6
CONTINUOUS
10
     -208.01
20
      -10.47
11
     -214.07
21
      -11.11
39
 0
62
 1
 0
LINE
8
default
6
CONTINUOUS
10
      214.07
20
      -11.11
11
      220.11
21
      -11.76
39
 0
62
 1
 0
LINE
8
default
6
CONTINUOUS
10
     -214.07
20
      -11.11
11
     -220.11
21
      -11.76
39
 0
62
 1
 0
LINE
8
default
6
CONTINUOUS
10
      220.11
20
      -11.76
11
      226.13
21
      -12.44
39
 0
62
 1
 0
LINE
8
default
6
CONTINUOUS
10
     -220.11
20
      -11.76
11
     -226.13
21
      -12.44
39
 0
62
 1
 0
LINE
8
default
6
CONTINUOUS
10
      226.13
20
      -12.44
11
      232.13
21
      -13.13
39
 0
62
 1
 0
LINE
8
default
6
CONTINUOUS
10
     -226.13
20
      -12.44
11
     -232.13
21
      -13.13
39
 0
62
 1
 0
LINE
8
default
6
CONTINUOUS
10
      232.13
20
      -13.13
11
      238.10
21
      -13.84
39
 0
62
 1
 0
LINE
8
default
6
CONTINUOUS
10
     -232.13
20
      -13.13
11
     -238.10
21
      -13.84
39
 0
62
 1
 0
LINE
8
default
6
CONTINUOUS
10
      238.10
20
      -13.84
11
      244.05
21
      -14.57
39
 0
62
 1
 0
LINE
8
default
6
CONTINUOUS
10
     -238.10
20
      -13.84
11
     -244.05
21
      -14.57
39
 0
62
 1
 0
LINE
8
default
6
CONTINUOUS
10
      244.05
20
      -14.57
11
      249.98
21
      -15.32
39
 0
62
 1
 0
LINE
8
default
6
CONTINUOUS
10
     -244.05
20
      -14.57
11
     -249.98
21
      -15.32
39
 0
62
 1
 0
LINE
8
default
6
CONTINUOUS
10
      249.98
20
      -15.32
11
      255.88
21
      -16.08
39
 0
62
 1
 0
LINE
8
default
6
CONTINUOUS
10
     -249.98
20
      -15.32
11
     -255.88
21
      -16.08
39
 0
62
 1
 0
LINE
8
default
6
CONTINUOUS
10
      255.88
20
      -16.08
11
      261.75
21
      -16.86
39
 0
62
 1
 0
LINE
8
default
6
CONTINUOUS
10
     -255.88
20
      -16.08
11
     -261.75
21
      -16.86
39
 0
62
 1
 0
LINE
8
default
6
CONTINUOUS
10
      261.75
20
      -16.86
11
      267.60
21
      -17.66
39
 0
62
 1
 0
LINE
8
default
6
CONTINUOUS
10
     -261.75
20
      -16.86
11
     -267.60
21
      -17.66
39
 0
62
 1
 0
LINE
8
default
6
CONTINUOUS
10
      267.60
20
      -17.66
11
      273.42
21
      -18.48
39
 0
62
 1
 0
LINE
8
default
6
CONTINUOUS
10
     -267.60
20
      -17.66
11
     -273.42
21
      -18.48
39
 0
62
 1
 0
LINE
8
default
6
CONTINUOUS
10
      273.42
20
      -18.48
11
      279.21
21
      -19.32
39
 0
62
 1
 0
LINE
8
default
6
CONTINUOUS
10
     -273.42
20
      -18.48
11
     -279.21
21
      -19.32
39
 0
62
 1
 0
LINE
8
default
6
CONTINUOUS
10
      279.21
20
      -19.32
11
      284.98
21
      -20.17
39
 0
62
 1
 0
LINE
8
default
6
CONTINUOUS
10
     -279.21
20
      -19.32
11
     -284.98
21
      -20.17
39
 0
62
 1
 0
LINE
8
default
6
CONTINUOUS
10
      284.98
20
      -20.17
11
      290.72
21
      -21.04
39
 0
62
 1
 0
LINE
8
default
6
CONTINUOUS
10
     -284.98
20
      -20.17
11
     -290.72
21
      -21.04
39
 0
62
 1
 0
LINE
8
default
6
CONTINUOUS
10
      290.72
20
      -21.04
11
      296.43
21
      -21.93
39
 0
62
 1
 0
LINE
8
default
6
CONTINUOUS
10
     -290.72
20
      -21.04
11
     -296.43
21
      -21.93
39
 0
62
 1
 0
LINE
8
default
6
CONTINUOUS
10
      296.43
20
      -21.93
11
      302.10
21
      -22.83
39
 0
62
 1
 0
LINE
8
default
6
CONTINUOUS
10
     -296.43
20
      -21.93
11
     -302.10
21
      -22.83
39
 0
62
 1
 0
LINE
8
default
6
CONTINUOUS
10
      302.10
20
      -22.83
11
      307.75
21
      -23.75
39
 0
62
 1
 0
LINE
8
default
6
CONTINUOUS
10
     -302.10
20
      -22.83
11
     -307.75
21
      -23.75
39
 0
62
 1
 0
LINE
8
default
6
CONTINUOUS
10
      307.75
20
      -23.75
11
      313.37
21
      -24.69
39
 0
62
 1
 0
LINE
8
default
6
CONTINUOUS
10
     -307.75
20
      -23.75
11
     -313.37
21
      -24.69
39
 0
62
 1
 0
LINE
8
default
6
CONTINUOUS
10
      313.37
20
      -24.69
11
      318.96
21
      -25.65
39
 0
62
 1
 0
LINE
8
default
6
CONTINUOUS
10
     -313.37
20
      -24.69
11
     -318.96
21
      -25.65
39
 0
62
 1
 0
LINE
8
default
6
CONTINUOUS
10
      318.96
20
      -25.65
11
      324.51
21
      -26.62
39
 0
62
 1
 0
LINE
8
default
6
CONTINUOUS
10
     -318.96
20
      -25.65
11
     -324.51
21
      -26.62
39
 0
62
 1
 0
LINE
8
default
6
CONTINUOUS
10
      324.51
20
      -26.62
11
      330.03
21
      -27.61
39
 0
62
 1
 0
LINE
8
default
6
CONTINUOUS
10
     -324.51
20
      -26.62
11
     -330.03
21
      -27.61
39
 0
62
 1
 0
LINE
8
default
6
CONTINUOUS
10
      330.03
20
      -27.61
11
      335.52
21
      -28.61
39
 0
62
 1
 0
LINE
8
default
6
CONTINUOUS
10
     -330.03
20
      -27.61
11
     -335.52
21
      -28.61
39
 0
62
 1
 0
LINE
8
default
6
CONTINUOUS
10
      335.52
20
      -28.61
11
      340.98
21
      -29.64
39
 0
62
 1
 0
LINE
8
default
6
CONTINUOUS
10
     -335.52
20
      -28.61
11
     -340.98
21
      -29.64
39
 0
62
 1
 0
LINE
8
default
6
CONTINUOUS
10
      340.98
20
      -29.64
11
      346.40
21
      -30.68
39
 0
62
 1
 0
LINE
8
default
6
CONTINUOUS
10
     -340.98
20
      -29.64
11
     -346.40
21
      -30.68
39
 0
62
 1
 0
LINE
8
default
6
CONTINUOUS
10
      346.40
20
      -30.68
11
      351.79
21
      -31.74
39
 0
62
 1
 0
LINE
8
default
6
CONTINUOUS
10
     -346.40
20
      -30.68
11
     -351.79
21
      -31.74
39
 0
62
 1
 0
LINE
8
default
6
CONTINUOUS
10
      351.79
20
      -31.74
11
      357.14
21
      -32.84
39
 0
62
 1
 0
LINE
8
default
6
CONTINUOUS
10
     -351.79
20
      -31.74
11
     -357.14
21
      -32.84
39
 0
62
 1
 0
LINE
8
default
6
CONTINUOUS
10
      357.14
20
      -32.84
11
      362.46
21
      -33.96
39
 0
62
 1
 0
LINE
8
default
6
CONTINUOUS
10
     -357.14
20
      -32.84
11
     -362.46
21
      -33.96
39
 0
62
 1
 0
LINE
8
default
6
CONTINUOUS
10
      362.46
20
      -33.96
11
      367.73
21
      -35.13
39
 0
62
 1
 0
LINE
8
default
6
CONTINUOUS
10
     -362.46
20
      -33.96
11
     -367.73
21
      -35.13
39
 0
62
 1
 0
LINE
8
default
6
CONTINUOUS
10
      367.73
20
      -35.13
11
      372.98
21
      -36.33
39
 0
62
 1
 0
LINE
8
default
6
CONTINUOUS
10
     -367.73
20
      -35.13
11
     -372.98
21
      -36.33
39
 0
62
 1
 0
LINE
8
default
6
CONTINUOUS
10
      372.98
20
      -36.33
11
      378.18
21
      -37.57
39
 0
62
 1
 0
LINE
8
default
6
CONTINUOUS
10
     -372.98
20
      -36.33
11
     -378.18
21
      -37.57
39
 0
62
 1
 0
LINE
8
default
6
CONTINUOUS
10
      378.18
20
      -37.57
11
      383.35
21
      -38.86
39
 0
62
 1
 0
LINE
8
default
6
CONTINUOUS
10
     -378.18
20
      -37.57
11
     -383.35
21
      -38.86
39
 0
62
 1
 0
LINE
8
default
6
CONTINUOUS
10
      383.35
20
      -38.86
11
      388.48
21
      -40.20
39
 0
62
 1
 0
LINE
8
default
6
CONTINUOUS
10
     -383.35
20
      -38.86
11
     -388.48
21
      -40.20
39
 0
62
 1
 0
LINE
8
default
6
CONTINUOUS
10
      388.48
20
      -40.20
11
      393.57
21
      -41.59
39
 0
62
 1
 0
LINE
8
default
6
CONTINUOUS
10
     -388.48
20
      -40.20
11
     -393.57
21
      -41.59
39
 0
62
 1
 0
LINE
8
default
6
CONTINUOUS
10
      393.57
20
      -41.59
11
      398.62
21
      -43.03
39
 0
62
 1
 0
LINE
8
default
6
CONTINUOUS
10
     -393.57
20
      -41.59
11
     -398.62
21
      -43.03
39
 0
62
 1
 0
LINE
8
default
6
CONTINUOUS
10
      398.62
20
      -43.03
11
      403.63
21
      -44.52
39
 0
62
 1
 0
LINE
8
default
6
CONTINUOUS
10
     -398.62
20
      -43.03
11
     -403.63
21
      -44.52
39
 0
62
 1
 0
LINE
8
default
6
CONTINUOUS
10
      403.63
20
      -44.52
11
      408.61
21
      -46.07
39
 0
62
 1
 0
LINE
8
default
6
CONTINUOUS
10
     -403.63
20
      -44.52
11
     -408.61
21
      -46.07
39
 0
62
 1
 0
LINE
8
default
6
CONTINUOUS
10
      408.61
20
      -46.07
11
      413.54
21
      -47.68
39
 0
62
 1
 0
LINE
8
default
6
CONTINUOUS
10
     -408.61
20
      -46.07
11
     -413.54
21
      -47.68
39
 0
62
 1
 0
LINE
8
default
6
CONTINUOUS
10
      413.54
20
      -47.68
11
      418.42
21
      -49.34
39
 0
62
 1
 0
LINE
8
default
6
CONTINUOUS
10
     -413.54
20
      -47.68
11
     -418.42
21
      -49.34
39
 0
62
 1
 0
LINE
8
default
6
CONTINUOUS
10
      418.42
20
      -49.34
11
      423.27
21
      -51.06
39
 0
62
 1
 0
LINE
8
default
6
CONTINUOUS
10
     -418.42
20
      -49.34
11
     -423.27
21
      -51.06
39
 0
62
 1
 0
LINE
8
default
6
CONTINUOUS
10
      423.27
20
      -51.06
11
      428.08
21
      -52.84
39
 0
62
 1
 0
LINE
8
default
6
CONTINUOUS
10
     -423.27
20
      -51.06
11
     -428.08
21
      -52.84
39
 0
62
 1
 0
LINE
8
default
6
CONTINUOUS
10
      428.08
20
      -52.84
11
      432.84
21
      -54.68
39
 0
62
 1
 0
LINE
8
default
6
CONTINUOUS
10
     -428.08
20
      -52.84
11
     -432.84
21
      -54.68
39
 0
62
 1
 0
LINE
8
default
6
CONTINUOUS
10
      432.84
20
      -54.68
11
      437.56
21
      -56.59
39
 0
62
 1
 0
LINE
8
default
6
CONTINUOUS
10
     -432.84
20
      -54.68
11
     -437.56
21
      -56.59
39
 0
62
 1
 0
LINE
8
default
6
CONTINUOUS
10
      437.56
20
      -56.59
11
      442.23
21
      -58.55
39
 0
62
 1
 0
LINE
8
default
6
CONTINUOUS
10
     -437.56
20
      -56.59
11
     -442.23
21
      -58.55
39
 0
62
 1
 0
LINE
8
default
6
CONTINUOUS
10
      442.23
20
      -58.55
11
      446.86
21
      -60.58
39
 0
62
 1
 0
LINE
8
default
6
CONTINUOUS
10
     -442.23
20
      -58.55
11
     -446.86
21
      -60.58
39
 0
62
 1
 0
LINE
8
default
6
CONTINUOUS
10
      446.86
20
      -60.58
11
      451.45
21
      -62.66
39
 0
62
 1
 0
LINE
8
default
6
CONTINUOUS
10
     -446.86
20
      -60.58
11
     -451.45
21
      -62.66
39
 0
62
 1
 0
LINE
8
default
6
CONTINUOUS
10
      451.45
20
      -62.66
11
      455.99
21
      -64.81
39
 0
62
 1
 0
LINE
8
default
6
CONTINUOUS
10
     -451.45
20
      -62.66
11
     -455.99
21
      -64.81
39
 0
62
 1
 0
LINE
8
default
6
CONTINUOUS
10
      455.99
20
      -64.81
11
      460.49
21
      -67.02
39
 0
62
 1
 0
LINE
8
default
6
CONTINUOUS
10
     -455.99
20
      -64.81
11
     -460.49
21
      -67.02
39
 0
62
 1
 0
LINE
8
default
6
CONTINUOUS
10
      460.49
20
      -67.02
11
      464.93
21
      -69.29
39
 0
62
 1
 0
LINE
8
default
6
CONTINUOUS
10
     -460.49
20
      -67.02
11
     -464.93
21
      -69.29
39
 0
62
 1
 0
LINE
8
default
6
CONTINUOUS
10
      464.93
20
      -69.29
11
      469.34
21
      -71.63
39
 0
62
 1
 0
LINE
8
default
6
CONTINUOUS
10
     -464.93
20
      -69.29
11
     -469.34
21
      -71.63
39
 0
62
 1
 0
LINE
8
default
6
CONTINUOUS
10
      469.34
20
      -71.63
11
      473.69
21
      -74.02
39
 0
62
 1
 0
LINE
8
default
6
CONTINUOUS
10
     -469.34
20
      -71.63
11
     -473.69
21
      -74.02
39
 0
62
 1
 0
LINE
8
default
6
CONTINUOUS
10
      473.69
20
      -74.02
11
      478.00
21
      -76.48
39
 0
62
 1
 0
LINE
8
default
6
CONTINUOUS
10
     -473.69
20
      -74.02
11
     -478.00
21
      -76.48
39
 0
62
 1
 0
LINE
8
default
6
CONTINUOUS
10
      478.00
20
      -76.48
11
      482.26
21
      -78.99
39
 0
62
 1
 0
LINE
8
default
6
CONTINUOUS
10
     -478.00
20
      -76.48
11
     -482.26
21
      -78.99
39
 0
62
 1
 0
LINE
8
default
6
CONTINUOUS
10
      482.26
20
      -78.99
11
      486.47
21
      -81.56
39
 0
62
 1
 0
LINE
8
default
6
CONTINUOUS
10
     -482.26
20
      -78.99
11
     -486.47
21
      -81.56
39
 0
62
 1
 0
LINE
8
default
6
CONTINUOUS
10
      486.47
20
      -81.56
11
      490.64
21
      -84.19
39
 0
62
 1
 0
LINE
8
default
6
CONTINUOUS
10
     -486.47
20
      -81.56
11
     -490.64
21
      -84.19
39
 0
62
 1
 0
LINE
8
default
6
CONTINUOUS
10
      490.64
20
      -84.19
11
      494.75
21
      -86.88
39
 0
62
 1
 0
LINE
8
default
6
CONTINUOUS
10
     -490.64
20
      -84.19
11
     -494.75
21
      -86.88
39
 0
62
 1
 0
LINE
8
default
6
CONTINUOUS
10
      494.75
20
      -86.88
11
      498.82
21
      -89.66
39
 0
62
 1
 0
LINE
8
default
6
CONTINUOUS
10
     -494.75
20
      -86.88
11
     -498.82
21
      -89.66
39
 0
62
 1
 0
LINE
8
default
6
CONTINUOUS
10
      498.82
20
      -89.66
11
      502.83
21
      -92.59
39
 0
62
 1
 0
LINE
8
default
6
CONTINUOUS
10
     -498.82
20
      -89.66
11
     -502.83
21
      -92.59
39
 0
62
 1
 0
LINE
8
default
6
CONTINUOUS
10
      502.83
20
      -92.59
11
      506.80
21
      -95.78
39
 0
62
 1
 0
LINE
8
default
6
CONTINUOUS
10
     -502.83
20
      -92.59
11
     -506.80
21
      -95.78
39
 0
62
 1
 0
LINE
8
default
6
CONTINUOUS
10
      506.80
20
      -95.78
11
      510.71
21
      -99.35
39
 0
62
 1
 0
LINE
8
default
6
CONTINUOUS
10
     -506.80
20
      -95.78
11
     -510.71
21
      -99.35
39
 0
62
 1
 0
LINE
8
default
6
CONTINUOUS
10
      510.71
20
      -99.35
11
      514.58
21
     -103.46
39
 0
62
 1
 0
LINE
8
default
6
CONTINUOUS
10
     -510.71
20
      -99.35
11
     -514.58
21
     -103.46
39
 0
62
 1
 0
LINE
8
default
6
CONTINUOUS
10
      514.58
20
     -103.46
11
      518.39
21
     -108.28
39
 0
62
 1
 0
LINE
8
default
6
CONTINUOUS
10
     -514.58
20
     -103.46
11
     -518.39
21
     -108.28
39
 0
62
 1
 0
LINE
8
default
6
CONTINUOUS
10
      518.39
20
     -108.28
11
      522.15
21
     -114.01
39
 0
62
 1
 0
LINE
8
default
6
CONTINUOUS
10
     -518.39
20
     -108.28
11
     -522.15
21
     -114.01
39
 0
62
 1
 0
LINE
8
default
6
CONTINUOUS
10
      522.15
20
     -114.01
11
      525.86
21
     -120.85
39
 0
62
 1
 0
LINE
8
default
6
CONTINUOUS
10
     -522.15
20
     -114.01
11
     -525.86
21
     -120.85
39
 0
62
 1
 0
LINE
8
default
6
CONTINUOUS
10
      525.86
20
     -120.85
11
      527.00
21
     -123.24
39
 0
62
 1
 0
LINE
8
default
6
CONTINUOUS
10
     -525.86
20
     -120.85
11
     -527.00
21
     -123.24
39
 0
62
 1
 0
LINE
8
default
6
CONTINUOUS
10
        0.00
20
     -246.46
11
        6.43
21
     -246.45
39
 0
62
 1
 0
LINE
8
default
6
CONTINUOUS
10
        0.00
20
     -246.46
11
       -6.43
21
     -246.45
39
 0
62
 1
 0
LINE
8
default
6
CONTINUOUS
10
        6.43
20
     -246.45
11
       12.86
21
     -246.43
39
 0
62
 1
 0
LINE
8
default
6
CONTINUOUS
10
       -6.43
20
     -246.45
11
      -12.86
21
     -246.43
39
 0
62
 1
 0
LINE
8
default
6
CONTINUOUS
10
       12.86
20
     -246.43
11
       19.30
21
     -246.40
39
 0
62
 1
 0
LINE
8
default
6
CONTINUOUS
10
      -12.86
20
     -246.43
11
      -19.30
21
     -246.40
39
 0
62
 1
 0
LINE
8
default
6
CONTINUOUS
10
       19.30
20
     -246.40
11
       25.72
21
     -246.35
39
 0
62
 1
 0
LINE
8
default
6
CONTINUOUS
10
      -19.30
20
     -246.40
11
      -25.72
21
     -246.35
39
 0
62
 1
 0
LINE
8
default
6
CONTINUOUS
10
       25.72
20
     -246.35
11
       32.15
21
     -246.28
39
 0
62
 1
 0
LINE
8
default
6
CONTINUOUS
10
      -25.72
20
     -246.35
11
      -32.15
21
     -246.28
39
 0
62
 1
 0
LINE
8
default
6
CONTINUOUS
10
       32.15
20
     -246.28
11
       38.57
21
     -246.21
39
 0
62
 1
 0
LINE
8
default
6
CONTINUOUS
10
      -32.15
20
     -246.28
11
      -38.57
21
     -246.21
39
 0
62
 1
 0
LINE
8
default
6
CONTINUOUS
10
       38.57
20
     -246.21
11
       44.99
21
     -246.12
39
 0
62
 1
 0
LINE
8
default
6
CONTINUOUS
10
      -38.57
20
     -246.21
11
      -44.99
21
     -246.12
39
 0
62
 1
 0
LINE
8
default
6
CONTINUOUS
10
       44.99
20
     -246.12
11
       51.41
21
     -246.01
39
 0
62
 1
 0
LINE
8
default
6
CONTINUOUS
10
      -44.99
20
     -246.12
11
      -51.41
21
     -246.01
39
 0
62
 1
 0
LINE
8
default
6
CONTINUOUS
10
       51.41
20
     -246.01
11
       57.82
21
     -245.89
39
 0
62
 1
 0
LINE
8
default
6
CONTINUOUS
10
      -51.41
20
     -246.01
11
      -57.82
21
     -245.89
39
 0
62
 1
 0
LINE
8
default
6
CONTINUOUS
10
       57.82
20
     -245.89
11
       64.22
21
     -245.76
39
 0
62
 1
 0
LINE
8
default
6
CONTINUOUS
10
      -57.82
20
     -245.89
11
      -64.22
21
     -245.76
39
 0
62
 1
 0
LINE
8
default
6
CONTINUOUS
10
       64.22
20
     -245.76
11
       70.62
21
     -245.61
39
 0
62
 1
 0
LINE
8
default
6
CONTINUOUS
10
      -64.22
20
     -245.76
11
      -70.62
21
     -245.61
39
 0
62
 1
 0
LINE
8
default
6
CONTINUOUS
10
       70.62
20
     -245.61
11
       77.01
21
     -245.45
39
 0
62
 1
 0
LINE
8
default
6
CONTINUOUS
10
      -70.62
20
     -245.61
11
      -77.01
21
     -245.45
39
 0
62
 1
 0
LINE
8
default
6
CONTINUOUS
10
       77.01
20
     -245.45
11
       83.39
21
     -245.27
39
 0
62
 1
 0
LINE
8
default
6
CONTINUOUS
10
      -77.01
20
     -245.45
11
      -83.39
21
     -245.27
39
 0
62
 1
 0
LINE
8
default
6
CONTINUOUS
10
       83.39
20
     -245.27
11
       89.77
21
     -245.09
39
 0
62
 1
 0
LINE
8
default
6
CONTINUOUS
10
      -83.39
20
     -245.27
11
      -89.77
21
     -245.09
39
 0
62
 1
 0
LINE
8
default
6
CONTINUOUS
10
       89.77
20
     -245.09
11
       96.13
21
     -244.88
39
 0
62
 1
 0
LINE
8
default
6
CONTINUOUS
10
      -89.77
20
     -245.09
11
      -96.13
21
     -244.88
39
 0
62
 1
 0
LINE
8
default
6
CONTINUOUS
10
       96.13
20
     -244.88
11
      102.49
21
     -244.67
39
 0
62
 1
 0
LINE
8
default
6
CONTINUOUS
10
      -96.13
20
     -244.88
11
     -102.49
21
     -244.67
39
 0
62
 1
 0
LINE
8
default
6
CONTINUOUS
10
      102.49
20
     -244.67
11
      108.83
21
     -244.43
39
 0
62
 1
 0
LINE
8
default
6
CONTINUOUS
10
     -102.49
20
     -244.67
11
     -108.83
21
     -244.43
39
 0
62
 1
 0
LINE
8
default
6
CONTINUOUS
10
      108.83
20
     -244.43
11
      115.17
21
     -244.19
39
 0
62
 1
 0
LINE
8
default
6
CONTINUOUS
10
     -108.83
20
     -244.43
11
     -115.17
21
     -244.19
39
 0
62
 1
 0
LINE
8
default
6
CONTINUOUS
10
      115.17
20
     -244.19
11
      121.49
21
     -243.93
39
 0
62
 1
 0
LINE
8
default
6
CONTINUOUS
10
     -115.17
20
     -244.19
11
     -121.49
21
     -243.93
39
 0
62
 1
 0
LINE
8
default
6
CONTINUOUS
10
      121.49
20
     -243.93
11
      127.80
21
     -243.66
39
 0
62
 1
 0
LINE
8
default
6
CONTINUOUS
10
     -121.49
20
     -243.93
11
     -127.80
21
     -243.66
39
 0
62
 1
 0
LINE
8
default
6
CONTINUOUS
10
      127.80
20
     -243.66
11
      134.10
21
     -243.37
39
 0
62
 1
 0
LINE
8
default
6
CONTINUOUS
10
     -127.80
20
     -243.66
11
     -134.10
21
     -243.37
39
 0
62
 1
 0
LINE
8
default
6
CONTINUOUS
10
      134.10
20
     -243.37
11
      140.38
21
     -243.07
39
 0
62
 1
 0
LINE
8
default
6
CONTINUOUS
10
     -134.10
20
     -243.37
11
     -140.38
21
     -243.07
39
 0
62
 1
 0
LINE
8
default
6
CONTINUOUS
10
      140.38
20
     -243.07
11
      146.65
21
     -242.76
39
 0
62
 1
 0
LINE
8
default
6
CONTINUOUS
10
     -140.38
20
     -243.07
11
     -146.65
21
     -242.76
39
 0
62
 1
 0
LINE
8
default
6
CONTINUOUS
10
      146.65
20
     -242.76
11
      152.91
21
     -242.43
39
 0
62
 1
 0
LINE
8
default
6
CONTINUOUS
10
     -146.65
20
     -242.76
11
     -152.91
21
     -242.43
39
 0
62
 1
 0
LINE
8
default
6
CONTINUOUS
10
      152.91
20
     -242.43
11
      159.15
21
     -242.09
39
 0
62
 1
 0
LINE
8
default
6
CONTINUOUS
10
     -152.91
20
     -242.43
11
     -159.15
21
     -242.09
39
 0
62
 1
 0
LINE
8
default
6
CONTINUOUS
10
      159.15
20
     -242.09
11
      165.37
21
     -241.74
39
 0
62
 1
 0
LINE
8
default
6
CONTINUOUS
10
     -159.15
20
     -242.09
11
     -165.37
21
     -241.74
39
 0
62
 1
 0
LINE
8
default
6
CONTINUOUS
10
      165.37
20
     -241.74
11
      171.58
21
     -241.37
39
 0
62
 1
 0
LINE
8
default
6
CONTINUOUS
10
     -165.37
20
     -241.74
11
     -171.58
21
     -241.37
39
 0
62
 1
 0
LINE
8
default
6
CONTINUOUS
10
      171.58
20
     -241.37
11
      177.77
21
     -240.99
39
 0
62
 1
 0
LINE
8
default
6
CONTINUOUS
10
     -171.58
20
     -241.37
11
     -177.77
21
     -240.99
39
 0
62
 1
 0
LINE
8
default
6
CONTINUOUS
10
      177.77
20
     -240.99
11
      183.95
21
     -240.59
39
 0
62
 1
 0
LINE
8
default
6
CONTINUOUS
10
     -177.77
20
     -240.99
11
     -183.95
21
     -240.59
39
 0
62
 1
 0
LINE
8
default
6
CONTINUOUS
10
      183.95
20
     -240.58
11
      190.10
21
     -240.14
39
 0
62
 1
 0
LINE
8
default
6
CONTINUOUS
10
     -183.95
20
     -240.58
11
     -190.10
21
     -240.14
39
 0
62
 1
 0
LINE
8
default
6
CONTINUOUS
10
      190.10
20
     -240.14
11
      196.24
21
     -239.67
39
 0
62
 1
 0
LINE
8
default
6
CONTINUOUS
10
     -190.10
20
     -240.14
11
     -196.24
21
     -239.67
39
 0
62
 1
 0
LINE
8
default
6
CONTINUOUS
10
      196.24
20
     -239.67
11
      202.35
21
     -239.18
39
 0
62
 1
 0
LINE
8
default
6
CONTINUOUS
10
     -196.24
20
     -239.67
11
     -202.35
21
     -239.18
39
 0
62
 1
 0
LINE
8
default
6
CONTINUOUS
10
      202.35
20
     -239.18
11
      208.45
21
     -238.67
39
 0
62
 1
 0
LINE
8
default
6
CONTINUOUS
10
     -202.35
20
     -239.18
11
     -208.45
21
     -238.67
39
 0
62
 1
 0
LINE
8
default
6
CONTINUOUS
10
      208.45
20
     -238.67
11
      214.53
21
     -238.14
39
 0
62
 1
 0
LINE
8
default
6
CONTINUOUS
10
     -208.45
20
     -238.67
11
     -214.53
21
     -238.14
39
 0
62
 1
 0
LINE
8
default
6
CONTINUOUS
10
      214.53
20
     -238.14
11
      220.58
21
     -237.59
39
 0
62
 1
 0
LINE
8
default
6
CONTINUOUS
10
     -214.53
20
     -238.14
11
     -220.58
21
     -237.59
39
 0
62
 1
 0
LINE
8
default
6
CONTINUOUS
10
      220.58
20
     -237.59
11
      226.61
21
     -237.02
39
 0
62
 1
 0
LINE
8
default
6
CONTINUOUS
10
     -220.58
20
     -237.59
11
     -226.61
21
     -237.02
39
 0
62
 1
 0
LINE
8
default
6
CONTINUOUS
10
      226.61
20
     -237.02
11
      232.62
21
     -236.43
39
 0
62
 1
 0
LINE
8
default
6
CONTINUOUS
10
     -226.61
20
     -237.02
11
     -232.62
21
     -236.43
39
 0
62
 1
 0
LINE
8
default
6
CONTINUOUS
10
      232.62
20
     -236.43
11
      238.61
21
     -235.82
39
 0
62
 1
 0
LINE
8
default
6
CONTINUOUS
10
     -232.62
20
     -236.43
11
     -238.61
21
     -235.82
39
 0
62
 1
 0
LINE
8
default
6
CONTINUOUS
10
      238.61
20
     -235.82
11
      244.57
21
     -235.20
39
 0
62
 1
 0
LINE
8
default
6
CONTINUOUS
10
     -238.61
20
     -235.82
11
     -244.57
21
     -235.20
39
 0
62
 1
 0
LINE
8
default
6
CONTINUOUS
10
      244.57
20
     -235.20
11
      250.50
21
     -234.55
39
 0
62
 1
 0
LINE
8
default
6
CONTINUOUS
10
     -244.57
20
     -235.20
11
     -250.50
21
     -234.55
39
 0
62
 1
 0
LINE
8
default
6
CONTINUOUS
10
      250.50
20
     -234.55
11
      256.42
21
     -233.90
39
 0
62
 1
 0
LINE
8
default
6
CONTINUOUS
10
     -250.50
20
     -234.55
11
     -256.42
21
     -233.90
39
 0
62
 1
 0
LINE
8
default
6
CONTINUOUS
10
      256.42
20
     -233.90
11
      262.30
21
     -233.22
39
 0
62
 1
 0
LINE
8
default
6
CONTINUOUS
10
     -256.42
20
     -233.90
11
     -262.30
21
     -233.22
39
 0
62
 1
 0
LINE
8
default
6
CONTINUOUS
10
      262.30
20
     -233.22
11
      268.16
21
     -232.53
39
 0
62
 1
 0
LINE
8
default
6
CONTINUOUS
10
     -262.30
20
     -233.22
11
     -268.16
21
     -232.53
39
 0
62
 1
 0
LINE
8
default
6
CONTINUOUS
10
      268.16
20
     -232.53
11
      274.00
21
     -231.82
39
 0
62
 1
 0
LINE
8
default
6
CONTINUOUS
10
     -268.16
20
     -232.53
11
     -274.00
21
     -231.82
39
 0
62
 1
 0
LINE
8
default
6
CONTINUOUS
10
      274.00
20
     -231.82
11
      279.80
21
     -231.10
39
 0
62
 1
 0
LINE
8
default
6
CONTINUOUS
10
     -274.00
20
     -231.82
11
     -279.80
21
     -231.10
39
 0
62
 1
 0
LINE
8
default
6
CONTINUOUS
10
      279.80
20
     -231.10
11
      285.58
21
     -230.36
39
 0
62
 1
 0
LINE
8
default
6
CONTINUOUS
10
     -279.80
20
     -231.10
11
     -285.58
21
     -230.36
39
 0
62
 1
 0
LINE
8
default
6
CONTINUOUS
10
      285.58
20
     -230.36
11
      291.33
21
     -229.61
39
 0
62
 1
 0
LINE
8
default
6
CONTINUOUS
10
     -285.58
20
     -230.36
11
     -291.33
21
     -229.61
39
 0
62
 1
 0
LINE
8
default
6
CONTINUOUS
10
      291.33
20
     -229.61
11
      297.05
21
     -228.84
39
 0
62
 1
 0
LINE
8
default
6
CONTINUOUS
10
     -291.33
20
     -229.61
11
     -297.05
21
     -228.84
39
 0
62
 1
 0
LINE
8
default
6
CONTINUOUS
10
      297.05
20
     -228.84
11
      302.74
21
     -228.06
39
 0
62
 1
 0
LINE
8
default
6
CONTINUOUS
10
     -297.05
20
     -228.84
11
     -302.74
21
     -228.06
39
 0
62
 1
 0
LINE
8
default
6
CONTINUOUS
10
      302.74
20
     -228.06
11
      308.40
21
     -227.26
39
 0
62
 1
 0
LINE
8
default
6
CONTINUOUS
10
     -302.74
20
     -228.06
11
     -308.40
21
     -227.26
39
 0
62
 1
 0
LINE
8
default
6
CONTINUOUS
10
      308.40
20
     -227.26
11
      314.03
21
     -226.44
39
 0
62
 1
 0
LINE
8
default
6
CONTINUOUS
10
     -308.40
20
     -227.26
11
     -314.03
21
     -226.44
39
 0
62
 1
 0
LINE
8
default
6
CONTINUOUS
10
      314.03
20
     -226.44
11
      319.63
21
     -225.62
39
 0
62
 1
 0
LINE
8
default
6
CONTINUOUS
10
     -314.03
20
     -226.44
11
     -319.63
21
     -225.62
39
 0
62
 1
 0
LINE
8
default
6
CONTINUOUS
10
      319.63
20
     -225.62
11
      325.20
21
     -224.78
39
 0
62
 1
 0
LINE
8
default
6
CONTINUOUS
10
     -319.63
20
     -225.62
11
     -325.20
21
     -224.78
39
 0
62
 1
 0
LINE
8
default
6
CONTINUOUS
10
      325.20
20
     -224.78
11
      330.73
21
     -223.92
39
 0
62
 1
 0
LINE
8
default
6
CONTINUOUS
10
     -325.20
20
     -224.78
11
     -330.73
21
     -223.92
39
 0
62
 1
 0
LINE
8
default
6
CONTINUOUS
10
      330.73
20
     -223.92
11
      336.23
21
     -223.05
39
 0
62
 1
 0
LINE
8
default
6
CONTINUOUS
10
     -330.73
20
     -223.92
11
     -336.23
21
     -223.05
39
 0
62
 1
 0
LINE
8
default
6
CONTINUOUS
10
      336.23
20
     -223.05
11
      341.70
21
     -222.17
39
 0
62
 1
 0
LINE
8
default
6
CONTINUOUS
10
     -336.23
20
     -223.05
11
     -341.70
21
     -222.17
39
 0
62
 1
 0
LINE
8
default
6
CONTINUOUS
10
      341.70
20
     -222.17
11
      347.13
21
     -221.27
39
 0
62
 1
 0
LINE
8
default
6
CONTINUOUS
10
     -341.70
20
     -222.17
11
     -347.13
21
     -221.27
39
 0
62
 1
 0
LINE
8
default
6
CONTINUOUS
10
      347.13
20
     -221.27
11
      352.53
21
     -220.36
39
 0
62
 1
 0
LINE
8
default
6
CONTINUOUS
10
     -347.13
20
     -221.27
11
     -352.53
21
     -220.36
39
 0
62
 1
 0
LINE
8
default
6
CONTINUOUS
10
      352.53
20
     -220.36
11
      357.90
21
     -219.44
39
 0
62
 1
 0
LINE
8
default
6
CONTINUOUS
10
     -352.53
20
     -220.36
11
     -357.90
21
     -219.44
39
 0
62
 1
 0
LINE
8
default
6
CONTINUOUS
10
      357.90
20
     -219.44
11
      363.22
21
     -218.50
39
 0
62
 1
 0
LINE
8
default
6
CONTINUOUS
10
     -357.90
20
     -219.44
11
     -363.22
21
     -218.50
39
 0
62
 1
 0
LINE
8
default
6
CONTINUOUS
10
      363.22
20
     -218.50
11
      368.51
21
     -217.56
39
 0
62
 1
 0
LINE
8
default
6
CONTINUOUS
10
     -363.22
20
     -218.50
11
     -368.51
21
     -217.56
39
 0
62
 1
 0
LINE
8
default
6
CONTINUOUS
10
      368.51
20
     -217.56
11
      373.77
21
     -216.60
39
 0
62
 1
 0
LINE
8
default
6
CONTINUOUS
10
     -368.51
20
     -217.56
11
     -373.77
21
     -216.60
39
 0
62
 1
 0
LINE
8
default
6
CONTINUOUS
10
      373.77
20
     -216.60
11
      378.98
21
     -215.62
39
 0
62
 1
 0
LINE
8
default
6
CONTINUOUS
10
     -373.77
20
     -216.60
11
     -378.98
21
     -215.62
39
 0
62
 1
 0
LINE
8
default
6
CONTINUOUS
10
      378.98
20
     -215.62
11
      384.16
21
     -214.64
39
 0
62
 1
 0
LINE
8
default
6
CONTINUOUS
10
     -378.98
20
     -215.62
11
     -384.16
21
     -214.64
39
 0
62
 1
 0
LINE
8
default
6
CONTINUOUS
10
      384.16
20
     -214.64
11
      389.30
21
     -213.64
39
 0
62
 1
 0
LINE
8
default
6
CONTINUOUS
10
     -384.16
20
     -214.64
11
     -389.30
21
     -213.64
39
 0
62
 1
 0
LINE
8
default
6
CONTINUOUS
10
      389.30
20
     -213.64
11
      394.41
21
     -212.63
39
 0
62
 1
 0
LINE
8
default
6
CONTINUOUS
10
     -389.30
20
     -213.64
11
     -394.41
21
     -212.63
39
 0
62
 1
 0
LINE
8
default
6
CONTINUOUS
10
      394.41
20
     -212.63
11
      399.47
21
     -211.61
39
 0
62
 1
 0
LINE
8
default
6
CONTINUOUS
10
     -394.41
20
     -212.63
11
     -399.47
21
     -211.61
39
 0
62
 1
 0
LINE
8
default
6
CONTINUOUS
10
      399.47
20
     -211.61
11
      404.49
21
     -210.58
39
 0
62
 1
 0
LINE
8
default
6
CONTINUOUS
10
     -399.47
20
     -211.61
11
     -404.49
21
     -210.58
39
 0
62
 1
 0
LINE
8
default
6
CONTINUOUS
10
      404.49
20
     -210.58
11
      409.47
21
     -209.53
39
 0
62
 1
 0
LINE
8
default
6
CONTINUOUS
10
     -404.49
20
     -210.58
11
     -409.47
21
     -209.53
39
 0
62
 1
 0
LINE
8
default
6
CONTINUOUS
10
      409.47
20
     -209.53
11
      414.41
21
     -208.48
39
 0
62
 1
 0
LINE
8
default
6
CONTINUOUS
10
     -409.47
20
     -209.53
11
     -414.41
21
     -208.48
39
 0
62
 1
 0
LINE
8
default
6
CONTINUOUS
10
      414.41
20
     -208.48
11
      419.31
21
     -207.41
39
 0
62
 1
 0
LINE
8
default
6
CONTINUOUS
10
     -414.41
20
     -208.48
11
     -419.31
21
     -207.41
39
 0
62
 1
 0
LINE
8
default
6
CONTINUOUS
10
      419.31
20
     -207.41
11
      424.17
21
     -206.34
39
 0
62
 1
 0
LINE
8
default
6
CONTINUOUS
10
     -419.31
20
     -207.41
11
     -424.17
21
     -206.34
39
 0
62
 1
 0
LINE
8
default
6
CONTINUOUS
10
      424.17
20
     -206.34
11
      428.98
21
     -205.25
39
 0
62
 1
 0
LINE
8
default
6
CONTINUOUS
10
     -424.17
20
     -206.34
11
     -428.98
21
     -205.25
39
 0
62
 1
 0
LINE
8
default
6
CONTINUOUS
10
      428.98
20
     -205.25
11
      433.76
21
     -204.15
39
 0
62
 1
 0
LINE
8
default
6
CONTINUOUS
10
     -428.98
20
     -205.25
11
     -433.76
21
     -204.15
39
 0
62
 1
 0
LINE
8
default
6
CONTINUOUS
10
      433.76
20
     -204.15
11
      438.48
21
     -203.04
39
 0
62
 1
 0
LINE
8
default
6
CONTINUOUS
10
     -433.76
20
     -204.15
11
     -438.48
21
     -203.04
39
 0
62
 1
 0
LINE
8
default
6
CONTINUOUS
10
      438.48
20
     -203.04
11
      443.17
21
     -201.92
39
 0
62
 1
 0
LINE
8
default
6
CONTINUOUS
10
     -438.48
20
     -203.04
11
     -443.17
21
     -201.92
39
 0
62
 1
 0
LINE
8
default
6
CONTINUOUS
10
      443.17
20
     -201.92
11
      447.81
21
     -200.79
39
 0
62
 1
 0
LINE
8
default
6
CONTINUOUS
10
     -443.17
20
     -201.92
11
     -447.81
21
     -200.79
39
 0
62
 1
 0
LINE
8
default
6
CONTINUOUS
10
      447.81
20
     -200.79
11
      452.41
21
     -199.65
39
 0
62
 1
 0
LINE
8
default
6
CONTINUOUS
10
     -447.81
20
     -200.79
11
     -452.41
21
     -199.65
39
 0
62
 1
 0
LINE
8
default
6
CONTINUOUS
10
      452.41
20
     -199.65
11
      456.96
21
     -198.50
39
 0
62
 1
 0
LINE
8
default
6
CONTINUOUS
10
     -452.41
20
     -199.65
11
     -456.96
21
     -198.50
39
 0
62
 1
 0
LINE
8
default
6
CONTINUOUS
10
      456.96
20
     -198.50
11
      461.46
21
     -197.35
39
 0
62
 1
 0
LINE
8
default
6
CONTINUOUS
10
     -456.96
20
     -198.50
11
     -461.46
21
     -197.35
39
 0
62
 1
 0
LINE
8
default
6
CONTINUOUS
10
      461.46
20
     -197.35
11
      465.92
21
     -196.18
39
 0
62
 1
 0
LINE
8
default
6
CONTINUOUS
10
     -461.46
20
     -197.35
11
     -465.92
21
     -196.18
39
 0
62
 1
 0
LINE
8
default
6
CONTINUOUS
10
      465.92
20
     -196.18
11
      470.33
21
     -195.00
39
 0
62
 1
 0
LINE
8
default
6
CONTINUOUS
10
     -465.92
20
     -196.18
11
     -470.33
21
     -195.00
39
 0
62
 1
 0
LINE
8
default
6
CONTINUOUS
10
      470.33
20
     -195.00
11
      474.70
21
     -193.81
39
 0
62
 1
 0
LINE
8
default
6
CONTINUOUS
10
     -470.33
20
     -195.00
11
     -474.70
21
     -193.81
39
 0
62
 1
 0
LINE
8
default
6
CONTINUOUS
10
      474.70
20
     -193.81
11
      479.01
21
     -192.62
39
 0
62
 1
 0
LINE
8
default
6
CONTINUOUS
10
     -474.70
20
     -193.81
11
     -479.01
21
     -192.62
39
 0
62
 1
 0
LINE
8
default
6
CONTINUOUS
10
      479.01
20
     -192.62
11
      483.28
21
     -191.42
39
 0
62
 1
 0
LINE
8
default
6
CONTINUOUS
10
     -479.01
20
     -192.62
11
     -483.28
21
     -191.42
39
 0
62
 1
 0
LINE
8
default
6
CONTINUOUS
10
      483.28
20
     -191.42
11
      487.50
21
     -190.20
39
 0
62
 1
 0
LINE
8
default
6
CONTINUOUS
10
     -483.28
20
     -191.42
11
     -487.50
21
     -190.20
39
 0
62
 1
 0
LINE
8
default
6
CONTINUOUS
10
      487.50
20
     -190.20
11
      491.68
21
     -188.98
39
 0
62
 1
 0
LINE
8
default
6
CONTINUOUS
10
     -487.50
20
     -190.20
11
     -491.68
21
     -188.98
39
 0
62
 1
 0
LINE
8
default
6
CONTINUOUS
10
      491.68
20
     -188.98
11
      495.80
21
     -187.75
39
 0
62
 1
 0
LINE
8
default
6
CONTINUOUS
10
     -491.68
20
     -188.98
11
     -495.80
21
     -187.75
39
 0
62
 1
 0
LINE
8
default
6
CONTINUOUS
10
      495.80
20
     -187.75
11
      499.87
21
     -186.52
39
 0
62
 1
 0
LINE
8
default
6
CONTINUOUS
10
     -495.80
20
     -187.75
11
     -499.87
21
     -186.52
39
 0
62
 1
 0
LINE
8
default
6
CONTINUOUS
10
      499.87
20
     -186.52
11
      503.90
21
     -185.27
39
 0
62
 1
 0
LINE
8
default
6
CONTINUOUS
10
     -499.87
20
     -186.52
11
     -503.90
21
     -185.27
39
 0
62
 1
 0
LINE
8
default
6
CONTINUOUS
10
      503.90
20
     -185.27
11
      507.87
21
     -184.02
39
 0
62
 1
 0
LINE
8
default
6
CONTINUOUS
10
     -503.90
20
     -185.27
11
     -507.87
21
     -184.02
39
 0
62
 1
 0
LINE
8
default
6
CONTINUOUS
10
      507.87
20
     -184.02
11
      511.79
21
     -182.76
39
 0
62
 1
 0
LINE
8
default
6
CONTINUOUS
10
     -507.87
20
     -184.02
11
     -511.79
21
     -182.76
39
 0
62
 1
 0
LINE
8
default
6
CONTINUOUS
10
      511.79
20
     -182.76
11
      515.67
21
     -181.49
39
 0
62
 1
 0
LINE
8
default
6
CONTINUOUS
10
     -511.79
20
     -182.76
11
     -515.67
21
     -181.49
39
 0
62
 1
 0
LINE
8
default
6
CONTINUOUS
10
      515.67
20
     -181.49
11
      519.49
21
     -180.21
39
 0
62
 1
 0
LINE
8
default
6
CONTINUOUS
10
     -515.67
20
     -181.49
11
     -519.49
21
     -180.21
39
 0
62
 1
 0
LINE
8
default
6
CONTINUOUS
10
      519.49
20
     -180.21
11
      523.25
21
     -178.93
39
 0
62
 1
 0
LINE
8
default
6
CONTINUOUS
10
     -519.49
20
     -180.21
11
     -523.25
21
     -178.93
39
 0
62
 1
 0
LINE
8
default
6
CONTINUOUS
10
      523.25
20
     -178.93
11
      526.97
21
     -177.64
39
 0
62
 1
 0
LINE
8
default
6
CONTINUOUS
10
     -523.25
20
     -178.93
11
     -526.97
21
     -177.64
39
 0
62
 1
 0
LINE
8
default
6
CONTINUOUS
10
      526.97
20
     -177.64
11
      527.00
21
     -177.63
39
 0
62
 1
 0
LINE
8
default
6
CONTINUOUS
10
     -526.97
20
     -177.64
11
     -527.00
21
     -177.63
39
 0
62
 1
 0
LINE
8
default
6
CONTINUOUS
10
      527.00
20
     -123.24
11
      527.00
21
     -177.63
39
 0
62
 1
 0
LINE
8
default
6
CONTINUOUS
10
     -527.00
20
     -123.24
11
     -527.00
21
     -177.63
39
 0
62
 1
 0
LINE
8
default
6
CONTINUOUS
10
        0.00
20
      632.39
11
        2.12
21
      632.38
39
 0
62
 3
 0
LINE
8
default
6
CONTINUOUS
10
        0.00
20
      632.39
11
       -2.12
21
      632.38
39
 0
62
 1
 0
LINE
8
default
6
CONTINUOUS
10
        2.12
20
      632.38
11
        4.25
21
      632.37
39
 0
62
 3
 0
LINE
8
default
6
CONTINUOUS
10
       -2.12
20
      632.38
11
       -4.25
21
      632.37
39
 0
62
 1
 0
LINE
8
default
6
CONTINUOUS
10
        4.25
20
      632.37
11
        6.37
21
      632.36
39
 0
62
 3
 0
LINE
8
default
6
CONTINUOUS
10
       -4.25
20
      632.37
11
       -6.37
21
      632.36
39
 0
62
 1
 0
LINE
8
default
6
CONTINUOUS
10
        6.37
20
      632.36
11
        8.49
21
      632.33
39
 0
62
 3
 0
LINE
8
default
6
CONTINUOUS
10
       -6.37
20
      632.36
11
       -8.49
21
      632.33
39
 0
62
 1
 0
LINE
8
default
6
CONTINUOUS
10
        8.49
20
      632.33
11
       10.61
21
      632.31
39
 0
62
 3
 0
LINE
8
default
6
CONTINUOUS
10
       -8.49
20
      632.33
11
      -10.61
21
      632.31
39
 0
62
 1
 0
LINE
8
default
6
CONTINUOUS
10
       10.61
20
      632.31
11
       12.74
21
      632.27
39
 0
62
 3
 0
LINE
8
default
6
CONTINUOUS
10
      -10.61
20
      632.31
11
      -12.74
21
      632.27
39
 0
62
 1
 0
LINE
8
default
6
CONTINUOUS
10
       12.74
20
      632.27
11
       14.86
21
      632.23
39
 0
62
 3
 0
LINE
8
default
6
CONTINUOUS
10
      -12.74
20
      632.27
11
      -14.86
21
      632.23
39
 0
62
 1
 0
LINE
8
default
6
CONTINUOUS
10
       14.86
20
      632.23
11
       16.98
21
      632.18
39
 0
62
 3
 0
LINE
8
default
6
CONTINUOUS
10
      -14.86
20
      632.23
11
      -16.98
21
      632.18
39
 0
62
 1
 0
LINE
8
default
6
CONTINUOUS
10
       16.98
20
      632.18
11
       19.10
21
      632.13
39
 0
62
 3
 0
LINE
8
default
6
CONTINUOUS
10
      -16.98
20
      632.18
11
      -19.10
21
      632.13
39
 0
62
 1
 0
LINE
8
default
6
CONTINUOUS
10
       19.10
20
      632.13
11
       21.22
21
      632.07
39
 0
62
 3
 0
LINE
8
default
6
CONTINUOUS
10
      -19.10
20
      632.13
11
      -21.22
21
      632.07
39
 0
62
 1
 0
LINE
8
default
6
CONTINUOUS
10
       21.22
20
      632.07
11
       23.34
21
      632.00
39
 0
62
 3
 0
LINE
8
default
6
CONTINUOUS
10
      -21.22
20
      632.07
11
      -23.34
21
      632.00
39
 0
62
 1
 0
LINE
8
default
6
CONTINUOUS
10
       23.34
20
      632.00
11
       25.46
21
      631.93
39
 0
62
 3
 0
LINE
8
default
6
CONTINUOUS
10
      -23.34
20
      632.00
11
      -25.46
21
      631.93
39
 0
62
 1
 0
LINE
8
default
6
CONTINUOUS
10
       25.46
20
      631.93
11
       27.58
21
      631.85
39
 0
62
 3
 0
LINE
8
default
6
CONTINUOUS
10
      -25.46
20
      631.93
11
      -27.58
21
      631.85
39
 0
62
 1
 0
LINE
8
default
6
CONTINUOUS
10
       27.58
20
      631.85
11
       29.70
21
      631.76
39
 0
62
 3
 0
LINE
8
default
6
CONTINUOUS
10
      -27.58
20
      631.85
11
      -29.70
21
      631.76
39
 0
62
 1
 0
LINE
8
default
6
CONTINUOUS
10
       29.70
20
      631.76
11
       31.81
21
      631.67
39
 0
62
 3
 0
LINE
8
default
6
CONTINUOUS
10
      -29.70
20
      631.76
11
      -31.81
21
      631.67
39
 0
62
 1
 0
LINE
8
default
6
CONTINUOUS
10
       31.81
20
      631.67
11
       33.93
21
      631.57
39
 0
62
 3
 0
LINE
8
default
6
CONTINUOUS
10
      -31.81
20
      631.67
11
      -33.93
21
      631.57
39
 0
62
 1
 0
LINE
8
default
6
CONTINUOUS
10
       33.93
20
      631.57
11
       36.05
21
      631.47
39
 0
62
 3
 0
LINE
8
default
6
CONTINUOUS
10
      -33.93
20
      631.57
11
      -36.05
21
      631.47
39
 0
62
 1
 0
LINE
8
default
6
CONTINUOUS
10
       36.05
20
      631.47
11
       38.16
21
      631.35
39
 0
62
 3
 0
LINE
8
default
6
CONTINUOUS
10
      -36.05
20
      631.47
11
      -38.16
21
      631.35
39
 0
62
 1
 0
LINE
8
default
6
CONTINUOUS
10
       38.16
20
      631.35
11
       40.27
21
      631.24
39
 0
62
 3
 0
LINE
8
default
6
CONTINUOUS
10
      -38.16
20
      631.35
11
      -40.27
21
      631.24
39
 0
62
 1
 0
LINE
8
default
6
CONTINUOUS
10
       40.27
20
      631.24
11
       42.39
21
      631.11
39
 0
62
 3
 0
LINE
8
default
6
CONTINUOUS
10
      -40.27
20
      631.24
11
      -42.39
21
      631.11
39
 0
62
 1
 0
LINE
8
default
6
CONTINUOUS
10
       42.39
20
      631.11
11
       44.50
21
      630.98
39
 0
62
 3
 0
LINE
8
default
6
CONTINUOUS
10
      -42.39
20
      631.11
11
      -44.50
21
      630.98
39
 0
62
 1
 0
LINE
8
default
6
CONTINUOUS
10
       44.50
20
      630.98
11
       46.61
21
      630.85
39
 0
62
 3
 0
LINE
8
default
6
CONTINUOUS
10
      -44.50
20
      630.98
11
      -46.61
21
      630.85
39
 0
62
 1
 0
LINE
8
default
6
CONTINUOUS
10
       46.61
20
      630.85
11
       48.71
21
      630.70
39
 0
62
 3
 0
LINE
8
default
6
CONTINUOUS
10
      -46.61
20
      630.85
11
      -48.71
21
      630.70
39
 0
62
 1
 0
LINE
8
default
6
CONTINUOUS
10
       48.71
20
      630.70
11
       50.82
21
      630.55
39
 0
62
 3
 0
LINE
8
default
6
CONTINUOUS
10
      -48.71
20
      630.70
11
      -50.82
21
      630.55
39
 0
62
 1
 0
LINE
8
default
6
CONTINUOUS
10
       50.82
20
      630.55
11
       52.93
21
      630.40
39
 0
62
 3
 0
LINE
8
default
6
CONTINUOUS
10
      -50.82
20
      630.55
11
      -52.93
21
      630.40
39
 0
62
 1
 0
LINE
8
default
6
CONTINUOUS
10
       52.93
20
      630.40
11
       55.03
21
      630.24
39
 0
62
 3
 0
LINE
8
default
6
CONTINUOUS
10
      -52.93
20
      630.40
11
      -55.03
21
      630.24
39
 0
62
 1
 0
LINE
8
default
6
CONTINUOUS
10
       55.03
20
      630.24
11
       57.13
21
      630.07
39
 0
62
 3
 0
LINE
8
default
6
CONTINUOUS
10
      -55.03
20
      630.24
11
      -57.13
21
      630.07
39
 0
62
 1
 0
LINE
8
default
6
CONTINUOUS
10
       57.13
20
      630.07
11
       59.23
21
      629.89
39
 0
62
 3
 0
LINE
8
default
6
CONTINUOUS
10
      -57.13
20
      630.07
11
      -59.23
21
      629.89
39
 0
62
 1
 0
LINE
8
default
6
CONTINUOUS
10
       59.23
20
      629.89
11
       61.33
21
      629.71
39
 0
62
 3
 0
LINE
8
default
6
CONTINUOUS
10
      -59.23
20
      629.89
11
      -61.33
21
      629.71
39
 0
62
 1
 0
LINE
8
default
6
CONTINUOUS
10
       61.33
20
      629.71
11
       63.43
21
      629.52
39
 0
62
 3
 0
LINE
8
default
6
CONTINUOUS
10
      -61.33
20
      629.71
11
      -63.43
21
      629.52
39
 0
62
 1
 0
LINE
8
default
6
CONTINUOUS
10
       63.43
20
      629.52
11
       65.53
21
      629.33
39
 0
62
 3
 0
LINE
8
default
6
CONTINUOUS
10
      -63.43
20
      629.52
11
      -65.53
21
      629.33
39
 0
62
 1
 0
LINE
8
default
6
CONTINUOUS
10
       65.53
20
      629.33
11
       67.62
21
      629.13
39
 0
62
 3
 0
LINE
8
default
6
CONTINUOUS
10
      -65.53
20
      629.33
11
      -67.62
21
      629.13
39
 0
62
 1
 0
LINE
8
default
6
CONTINUOUS
10
       67.62
20
      629.13
11
       69.72
21
      628.93
39
 0
62
 3
 0
LINE
8
default
6
CONTINUOUS
10
      -67.62
20
      629.13
11
      -69.72
21
      628.93
39
 0
62
 1
 0
LINE
8
default
6
CONTINUOUS
10
       69.72
20
      628.93
11
       71.81
21
      628.71
39
 0
62
 3
 0
LINE
8
default
6
CONTINUOUS
10
      -69.72
20
      628.93
11
      -71.81
21
      628.71
39
 0
62
 1
 0
LINE
8
default
6
CONTINUOUS
10
       71.81
20
      628.71
11
       73.89
21
      628.49
39
 0
62
 3
 0
LINE
8
default
6
CONTINUOUS
10
      -71.81
20
      628.71
11
      -73.89
21
      628.49
39
 0
62
 1
 0
LINE
8
default
6
CONTINUOUS
10
       73.89
20
      628.49
11
       75.98
21
      628.27
39
 0
62
 3
 0
LINE
8
default
6
CONTINUOUS
10
      -73.89
20
      628.49
11
      -75.98
21
      628.27
39
 0
62
 1
 0
LINE
8
default
6
CONTINUOUS
10
       75.98
20
      628.27
11
       78.07
21
      628.04
39
 0
62
 3
 0
LINE
8
default
6
CONTINUOUS
10
      -75.98
20
      628.27
11
      -78.07
21
      628.04
39
 0
62
 1
 0
LINE
8
default
6
CONTINUOUS
10
       78.07
20
      628.04
11
       80.15
21
      627.80
39
 0
62
 3
 0
LINE
8
default
6
CONTINUOUS
10
      -78.07
20
      628.04
11
      -80.15
21
      627.80
39
 0
62
 1
 0
LINE
8
default
6
CONTINUOUS
10
       80.15
20
      627.80
11
       82.23
21
      627.56
39
 0
62
 3
 0
LINE
8
default
6
CONTINUOUS
10
      -80.15
20
      627.80
11
      -82.23
21
      627.56
39
 0
62
 1
 0
LINE
8
default
6
CONTINUOUS
10
       82.23
20
      627.56
11
       84.31
21
      627.31
39
 0
62
 3
 0
LINE
8
default
6
CONTINUOUS
10
      -82.23
20
      627.56
11
      -84.31
21
      627.31
39
 0
62
 1
 0
LINE
8
default
6
CONTINUOUS
10
       84.31
20
      627.31
11
       86.38
21
      627.05
39
 0
62
 3
 0
LINE
8
default
6
CONTINUOUS
10
      -84.31
20
      627.31
11
      -86.38
21
      627.05
39
 0
62
 1
 0
LINE
8
default
6
CONTINUOUS
10
       86.38
20
      627.05
11
       88.45
21
      626.79
39
 0
62
 3
 0
LINE
8
default
6
CONTINUOUS
10
      -86.38
20
      627.05
11
      -88.45
21
      626.79
39
 0
62
 1
 0
LINE
8
default
6
CONTINUOUS
10
       88.45
20
      626.79
11
       90.53
21
      626.52
39
 0
62
 3
 0
LINE
8
default
6
CONTINUOUS
10
      -88.45
20
      626.79
11
      -90.53
21
      626.52
39
 0
62
 1
 0
LINE
8
default
6
CONTINUOUS
10
       90.53
20
      626.52
11
       92.59
21
      626.25
39
 0
62
 3
 0
LINE
8
default
6
CONTINUOUS
10
      -90.53
20
      626.52
11
      -92.59
21
      626.25
39
 0
62
 1
 0
LINE
8
default
6
CONTINUOUS
10
       92.59
20
      626.25
11
       94.66
21
      625.96
39
 0
62
 3
 0
LINE
8
default
6
CONTINUOUS
10
      -92.59
20
      626.25
11
      -94.66
21
      625.96
39
 0
62
 1
 0
LINE
8
default
6
CONTINUOUS
10
       94.66
20
      625.96
11
       96.72
21
      625.68
39
 0
62
 3
 0
LINE
8
default
6
CONTINUOUS
10
      -94.66
20
      625.96
11
      -96.72
21
      625.68
39
 0
62
 1
 0
LINE
8
default
6
CONTINUOUS
10
       96.72
20
      625.68
11
       98.78
21
      625.38
39
 0
62
 3
 0
LINE
8
default
6
CONTINUOUS
10
      -96.72
20
      625.68
11
      -98.78
21
      625.38
39
 0
62
 1
 0
LINE
8
default
6
CONTINUOUS
10
       98.78
20
      625.38
11
      100.84
21
      625.08
39
 0
62
 3
 0
LINE
8
default
6
CONTINUOUS
10
      -98.78
20
      625.38
11
     -100.84
21
      625.08
39
 0
62
 1
 0
LINE
8
default
6
CONTINUOUS
10
      100.84
20
      625.08
11
      102.90
21
      624.78
39
 0
62
 3
 0
LINE
8
default
6
CONTINUOUS
10
     -100.84
20
      625.08
11
     -102.90
21
      624.78
39
 0
62
 1
 0
LINE
8
default
6
CONTINUOUS
10
      102.90
20
      624.78
11
      104.95
21
      624.47
39
 0
62
 3
 0
LINE
8
default
6
CONTINUOUS
10
     -102.90
20
      624.78
11
     -104.95
21
      624.47
39
 0
62
 1
 0
LINE
8
default
6
CONTINUOUS
10
      104.95
20
      624.47
11
      107.00
21
      624.15
39
 0
62
 3
 0
LINE
8
default
6
CONTINUOUS
10
     -104.95
20
      624.47
11
     -107.00
21
      624.15
39
 0
62
 1
 0
LINE
8
default
6
CONTINUOUS
10
      107.00
20
      624.15
11
      109.04
21
      623.83
39
 0
62
 3
 0
LINE
8
default
6
CONTINUOUS
10
     -107.00
20
      624.15
11
     -109.04
21
      623.83
39
 0
62
 1
 0
LINE
8
default
6
CONTINUOUS
10
      109.04
20
      623.83
11
      111.09
21
      623.49
39
 0
62
 3
 0
LINE
8
default
6
CONTINUOUS
10
     -109.04
20
      623.83
11
     -111.09
21
      623.49
39
 0
62
 1
 0
LINE
8
default
6
CONTINUOUS
10
      111.09
20
      623.49
11
      113.13
21
      623.16
39
 0
62
 3
 0
LINE
8
default
6
CONTINUOUS
10
     -111.09
20
      623.49
11
     -113.13
21
      623.16
39
 0
62
 1
 0
LINE
8
default
6
CONTINUOUS
10
      113.13
20
      623.16
11
      115.16
21
      622.82
39
 0
62
 3
 0
LINE
8
default
6
CONTINUOUS
10
     -113.13
20
      623.16
11
     -115.16
21
      622.82
39
 0
62
 1
 0
LINE
8
default
6
CONTINUOUS
10
      115.16
20
      622.82
11
      117.20
21
      622.47
39
 0
62
 3
 0
LINE
8
default
6
CONTINUOUS
10
     -115.16
20
      622.82
11
     -117.20
21
      622.47
39
 0
62
 1
 0
LINE
8
default
6
CONTINUOUS
10
      117.20
20
      622.47
11
      119.23
21
      622.11
39
 0
62
 3
 0
LINE
8
default
6
CONTINUOUS
10
     -117.20
20
      622.47
11
     -119.23
21
      622.11
39
 0
62
 1
 0
LINE
8
default
6
CONTINUOUS
10
      119.23
20
      622.11
11
      121.26
21
      621.75
39
 0
62
 3
 0
LINE
8
default
6
CONTINUOUS
10
     -119.23
20
      622.11
11
     -121.26
21
      621.75
39
 0
62
 1
 0
LINE
8
default
6
CONTINUOUS
10
      121.26
20
      621.75
11
      123.28
21
      621.38
39
 0
62
 3
 0
LINE
8
default
6
CONTINUOUS
10
     -121.26
20
      621.75
11
     -123.28
21
      621.38
39
 0
62
 1
 0
LINE
8
default
6
CONTINUOUS
10
      123.28
20
      621.38
11
      125.30
21
      621.01
39
 0
62
 3
 0
LINE
8
default
6
CONTINUOUS
10
     -123.28
20
      621.38
11
     -125.30
21
      621.01
39
 0
62
 1
 0
LINE
8
default
6
CONTINUOUS
10
      125.30
20
      621.01
11
      127.32
21
      620.63
39
 0
62
 3
 0
LINE
8
default
6
CONTINUOUS
10
     -125.30
20
      621.01
11
     -127.32
21
      620.63
39
 0
62
 1
 0
LINE
8
default
6
CONTINUOUS
10
      127.32
20
      620.63
11
      129.33
21
      620.25
39
 0
62
 3
 0
LINE
8
default
6
CONTINUOUS
10
     -127.32
20
      620.63
11
     -129.33
21
      620.25
39
 0
62
 1
 0
LINE
8
default
6
CONTINUOUS
10
      129.33
20
      620.25
11
      131.34
21
      619.86
39
 0
62
 3
 0
LINE
8
default
6
CONTINUOUS
10
     -129.33
20
      620.25
11
     -131.34
21
      619.86
39
 0
62
 1
 0
LINE
8
default
6
CONTINUOUS
10
      131.34
20
      619.86
11
      133.35
21
      619.46
39
 0
62
 3
 0
LINE
8
default
6
CONTINUOUS
10
     -131.34
20
      619.86
11
     -133.35
21
      619.46
39
 0
62
 1
 0
LINE
8
default
6
CONTINUOUS
10
      133.35
20
      619.46
11
      135.35
21
      619.06
39
 0
62
 3
 0
LINE
8
default
6
CONTINUOUS
10
     -133.35
20
      619.46
11
     -135.35
21
      619.06
39
 0
62
 1
 0
LINE
8
default
6
CONTINUOUS
10
      135.35
20
      619.06
11
      137.35
21
      618.65
39
 0
62
 3
 0
LINE
8
default
6
CONTINUOUS
10
     -135.35
20
      619.06
11
     -137.35
21
      618.65
39
 0
62
 1
 0
LINE
8
default
6
CONTINUOUS
10
      137.35
20
      618.65
11
      139.35
21
      618.23
39
 0
62
 3
 0
LINE
8
default
6
CONTINUOUS
10
     -137.35
20
      618.65
11
     -139.35
21
      618.23
39
 0
62
 1
 0
LINE
8
default
6
CONTINUOUS
10
      139.35
20
      618.23
11
      141.34
21
      617.81
39
 0
62
 3
 0
LINE
8
default
6
CONTINUOUS
10
     -139.35
20
      618.23
11
     -141.34
21
      617.81
39
 0
62
 1
 0
LINE
8
default
6
CONTINUOUS
10
      141.34
20
      617.81
11
      143.33
21
      617.38
39
 0
62
 3
 0
LINE
8
default
6
CONTINUOUS
10
     -141.34
20
      617.81
11
     -143.33
21
      617.38
39
 0
62
 1
 0
LINE
8
default
6
CONTINUOUS
10
      143.33
20
      617.38
11
      145.31
21
      616.95
39
 0
62
 3
 0
LINE
8
default
6
CONTINUOUS
10
     -143.33
20
      617.38
11
     -145.31
21
      616.95
39
 0
62
 1
 0
LINE
8
default
6
CONTINUOUS
10
      145.31
20
      616.95
11
      147.29
21
      616.51
39
 0
62
 3
 0
LINE
8
default
6
CONTINUOUS
10
     -145.31
20
      616.95
11
     -147.29
21
      616.51
39
 0
62
 1
 0
LINE
8
default
6
CONTINUOUS
10
      147.29
20
      616.51
11
      149.27
21
      616.07
39
 0
62
 3
 0
LINE
8
default
6
CONTINUOUS
10
     -147.29
20
      616.51
11
     -149.27
21
      616.07
39
 0
62
 1
 0
LINE
8
default
6
CONTINUOUS
10
      149.27
20
      616.07
11
      151.24
21
      615.62
39
 0
62
 3
 0
LINE
8
default
6
CONTINUOUS
10
     -149.27
20
      616.07
11
     -151.24
21
      615.62
39
 0
62
 1
 0
LINE
8
default
6
CONTINUOUS
10
      151.24
20
      615.62
11
      153.21
21
      615.16
39
 0
62
 3
 0
LINE
8
default
6
CONTINUOUS
10
     -151.24
20
      615.62
11
     -153.21
21
      615.16
39
 0
62
 1
 0
LINE
8
default
6
CONTINUOUS
10
      153.21
20
      615.16
11
      155.17
21
      614.70
39
 0
62
 3
 0
LINE
8
default
6
CONTINUOUS
10
     -153.21
20
      615.16
11
     -155.17
21
      614.70
39
 0
62
 1
 0
LINE
8
default
6
CONTINUOUS
10
      155.17
20
      614.70
11
      157.13
21
      614.23
39
 0
62
 3
 0
LINE
8
default
6
CONTINUOUS
10
     -155.17
20
      614.70
11
     -157.13
21
      614.23
39
 0
62
 1
 0
LINE
8
default
6
CONTINUOUS
10
      157.13
20
      614.23
11
      159.09
21
      613.75
39
 0
62
 3
 0
LINE
8
default
6
CONTINUOUS
10
     -157.13
20
      614.23
11
     -159.09
21
      613.75
39
 0
62
 1
 0
LINE
8
default
6
CONTINUOUS
10
      159.09
20
      613.75
11
      161.04
21
      613.27
39
 0
62
 3
 0
LINE
8
default
6
CONTINUOUS
10
     -159.09
20
      613.75
11
     -161.04
21
      613.27
39
 0
62
 1
 0
LINE
8
default
6
CONTINUOUS
10
      161.04
20
      613.27
11
      162.99
21
      612.79
39
 0
62
 3
 0
LINE
8
default
6
CONTINUOUS
10
     -161.04
20
      613.27
11
     -162.99
21
      612.79
39
 0
62
 1
 0
LINE
8
default
6
CONTINUOUS
10
      162.99
20
      612.79
11
      164.93
21
      612.29
39
 0
62
 3
 0
LINE
8
default
6
CONTINUOUS
10
     -162.99
20
      612.79
11
     -164.93
21
      612.29
39
 0
62
 1
 0
LINE
8
default
6
CONTINUOUS
10
      164.93
20
      612.29
11
      166.86
21
      611.80
39
 0
62
 3
 0
LINE
8
default
6
CONTINUOUS
10
     -164.93
20
      612.29
11
     -166.86
21
      611.80
39
 0
62
 1
 0
LINE
8
default
6
CONTINUOUS
10
      166.86
20
      611.80
11
      168.80
21
      611.29
39
 0
62
 3
 0
LINE
8
default
6
CONTINUOUS
10
     -166.86
20
      611.80
11
     -168.80
21
      611.29
39
 0
62
 1
 0
LINE
8
default
6
CONTINUOUS
10
      168.80
20
      611.29
11
      170.73
21
      610.78
39
 0
62
 3
 0
LINE
8
default
6
CONTINUOUS
10
     -168.80
20
      611.29
11
     -170.73
21
      610.78
39
 0
62
 1
 0
LINE
8
default
6
CONTINUOUS
10
      170.73
20
      610.78
11
      172.65
21
      610.27
39
 0
62
 3
 0
LINE
8
default
6
CONTINUOUS
10
     -170.73
20
      610.78
11
     -172.65
21
      610.27
39
 0
62
 1
 0
LINE
8
default
6
CONTINUOUS
10
      172.65
20
      610.27
11
      174.57
21
      609.75
39
 0
62
 3
 0
LINE
8
default
6
CONTINUOUS
10
     -172.65
20
      610.27
11
     -174.57
21
      609.75
39
 0
62
 1
 0
LINE
8
default
6
CONTINUOUS
10
      174.57
20
      609.75
11
      176.48
21
      609.22
39
 0
62
 3
 0
LINE
8
default
6
CONTINUOUS
10
     -174.57
20
      609.75
11
     -176.48
21
      609.22
39
 0
62
 1
 0
LINE
8
default
6
CONTINUOUS
10
      176.48
20
      609.22
11
      178.39
21
      608.69
39
 0
62
 3
 0
LINE
8
default
6
CONTINUOUS
10
     -176.48
20
      609.22
11
     -178.39
21
      608.69
39
 0
62
 1
 0
LINE
8
default
6
CONTINUOUS
10
      178.39
20
      608.69
11
      180.29
21
      608.15
39
 0
62
 3
 0
LINE
8
default
6
CONTINUOUS
10
     -178.39
20
      608.69
11
     -180.29
21
      608.15
39
 0
62
 1
 0
LINE
8
default
6
CONTINUOUS
10
      180.29
20
      608.15
11
      182.19
21
      607.61
39
 0
62
 3
 0
LINE
8
default
6
CONTINUOUS
10
     -180.29
20
      608.15
11
     -182.19
21
      607.61
39
 0
62
 1
 0
LINE
8
default
6
CONTINUOUS
10
      182.19
20
      607.61
11
      184.09
21
      607.06
39
 0
62
 3
 0
LINE
8
default
6
CONTINUOUS
10
     -182.19
20
      607.61
11
     -184.09
21
      607.06
39
 0
62
 1
 0
LINE
8
default
6
CONTINUOUS
10
      184.09
20
      607.06
11
      185.98
21
      606.50
39
 0
62
 3
 0
LINE
8
default
6
CONTINUOUS
10
     -184.09
20
      607.06
11
     -185.98
21
      606.50
39
 0
62
 1
 0
LINE
8
default
6
CONTINUOUS
10
      185.98
20
      606.50
11
      187.86
21
      605.94
39
 0
62
 3
 0
LINE
8
default
6
CONTINUOUS
10
     -185.98
20
      606.50
11
     -187.86
21
      605.94
39
 0
62
 1
 0
LINE
8
default
6
CONTINUOUS
10
      187.86
20
      605.94
11
      189.74
21
      605.37
39
 0
62
 3
 0
LINE
8
default
6
CONTINUOUS
10
     -187.86
20
      605.94
11
     -189.74
21
      605.37
39
 0
62
 1
 0
LINE
8
default
6
CONTINUOUS
10
      189.74
20
      605.37
11
      191.61
21
      604.80
39
 0
62
 3
 0
LINE
8
default
6
CONTINUOUS
10
     -189.74
20
      605.37
11
     -191.61
21
      604.80
39
 0
62
 1
 0
LINE
8
default
6
CONTINUOUS
10
      191.61
20
      604.80
11
      193.48
21
      604.22
39
 0
62
 3
 0
LINE
8
default
6
CONTINUOUS
10
     -191.61
20
      604.80
11
     -193.48
21
      604.22
39
 0
62
 1
 0
LINE
8
default
6
CONTINUOUS
10
      193.48
20
      604.22
11
      195.35
21
      603.64
39
 0
62
 3
 0
LINE
8
default
6
CONTINUOUS
10
     -193.48
20
      604.22
11
     -195.35
21
      603.64
39
 0
62
 1
 0
LINE
8
default
6
CONTINUOUS
10
      195.35
20
      603.64
11
      197.20
21
      603.05
39
 0
62
 3
 0
LINE
8
default
6
CONTINUOUS
10
     -195.35
20
      603.64
11
     -197.20
21
      603.05
39
 0
62
 1
 0
LINE
8
default
6
CONTINUOUS
10
      197.20
20
      603.05
11
      199.06
21
      602.46
39
 0
62
 3
 0
LINE
8
default
6
CONTINUOUS
10
     -197.20
20
      603.05
11
     -199.06
21
      602.46
39
 0
62
 1
 0
LINE
8
default
6
CONTINUOUS
10
      199.06
20
      602.46
11
      200.90
21
      601.86
39
 0
62
 3
 0
LINE
8
default
6
CONTINUOUS
10
     -199.06
20
      602.46
11
     -200.90
21
      601.86
39
 0
62
 1
 0
LINE
8
default
6
CONTINUOUS
10
      200.90
20
      601.86
11
      202.74
21
      601.25
39
 0
62
 3
 0
LINE
8
default
6
CONTINUOUS
10
     -200.90
20
      601.86
11
     -202.74
21
      601.25
39
 0
62
 1
 0
LINE
8
default
6
CONTINUOUS
10
      202.74
20
      601.25
11
      204.58
21
      600.64
39
 0
62
 3
 0
LINE
8
default
6
CONTINUOUS
10
     -202.74
20
      601.25
11
     -204.58
21
      600.64
39
 0
62
 1
 0
LINE
8
default
6
CONTINUOUS
10
      204.58
20
      600.64
11
      206.41
21
      600.02
39
 0
62
 3
 0
LINE
8
default
6
CONTINUOUS
10
     -204.58
20
      600.64
11
     -206.41
21
      600.02
39
 0
62
 1
 0
LINE
8
default
6
CONTINUOUS
10
      206.41
20
      600.02
11
      208.23
21
      599.40
39
 0
62
 3
 0
LINE
8
default
6
CONTINUOUS
10
     -206.41
20
      600.02
11
     -208.23
21
      599.40
39
 0
62
 1
 0
LINE
8
default
6
CONTINUOUS
10
      208.23
20
      599.40
11
      210.05
21
      598.77
39
 0
62
 3
 0
LINE
8
default
6
CONTINUOUS
10
     -208.23
20
      599.40
11
     -210.05
21
      598.77
39
 0
62
 1
 0
LINE
8
default
6
CONTINUOUS
10
      210.05
20
      598.77
11
      211.87
21
      598.14
39
 0
62
 3
 0
LINE
8
default
6
CONTINUOUS
10
     -210.05
20
      598.77
11
     -211.87
21
      598.14
39
 0
62
 1
 0
LINE
8
default
6
CONTINUOUS
10
      211.87
20
      598.14
11
      213.67
21
      597.50
39
 0
62
 3
 0
LINE
8
default
6
CONTINUOUS
10
     -211.87
20
      598.14
11
     -213.67
21
      597.50
39
 0
62
 1
 0
LINE
8
default
6
CONTINUOUS
10
      213.67
20
      597.50
11
      215.48
21
      596.86
39
 0
62
 3
 0
LINE
8
default
6
CONTINUOUS
10
     -213.67
20
      597.50
11
     -215.48
21
      596.86
39
 0
62
 1
 0
LINE
8
default
6
CONTINUOUS
10
      215.48
20
      596.86
11
      217.27
21
      596.21
39
 0
62
 3
 0
LINE
8
default
6
CONTINUOUS
10
     -215.48
20
      596.86
11
     -217.27
21
      596.21
39
 0
62
 1
 0
LINE
8
default
6
CONTINUOUS
10
      217.27
20
      596.21
11
      219.06
21
      595.56
39
 0
62
 3
 0
LINE
8
default
6
CONTINUOUS
10
     -217.27
20
      596.21
11
     -219.06
21
      595.56
39
 0
62
 1
 0
LINE
8
default
6
CONTINUOUS
10
      219.06
20
      595.56
11
      220.84
21
      594.90
39
 0
62
 3
 0
LINE
8
default
6
CONTINUOUS
10
     -219.06
20
      595.56
11
     -220.84
21
      594.90
39
 0
62
 1
 0
LINE
8
default
6
CONTINUOUS
10
      220.84
20
      594.90
11
      222.62
21
      594.23
39
 0
62
 3
 0
LINE
8
default
6
CONTINUOUS
10
     -220.84
20
      594.90
11
     -222.62
21
      594.23
39
 0
62
 1
 0
LINE
8
default
6
CONTINUOUS
10
      222.62
20
      594.23
11
      224.39
21
      593.56
39
 0
62
 3
 0
LINE
8
default
6
CONTINUOUS
10
     -222.62
20
      594.23
11
     -224.39
21
      593.56
39
 0
62
 1
 0
LINE
8
default
6
CONTINUOUS
10
      224.39
20
      593.56
11
      226.16
21
      592.88
39
 0
62
 3
 0
LINE
8
default
6
CONTINUOUS
10
     -224.39
20
      593.56
11
     -226.16
21
      592.88
39
 0
62
 1
 0
LINE
8
default
6
CONTINUOUS
10
      226.16
20
      592.88
11
      227.92
21
      592.20
39
 0
62
 3
 0
LINE
8
default
6
CONTINUOUS
10
     -226.16
20
      592.88
11
     -227.92
21
      592.20
39
 0
62
 1
 0
LINE
8
default
6
CONTINUOUS
10
      227.92
20
      592.20
11
      229.67
21
      591.52
39
 0
62
 3
 0
LINE
8
default
6
CONTINUOUS
10
     -227.92
20
      592.20
11
     -229.67
21
      591.52
39
 0
62
 1
 0
LINE
8
default
6
CONTINUOUS
10
      229.67
20
      591.52
11
      231.42
21
      590.82
39
 0
62
 3
 0
LINE
8
default
6
CONTINUOUS
10
     -229.67
20
      591.52
11
     -231.42
21
      590.82
39
 0
62
 1
 0
LINE
8
default
6
CONTINUOUS
10
      231.42
20
      590.82
11
      233.16
21
      590.13
39
 0
62
 3
 0
LINE
8
default
6
CONTINUOUS
10
     -231.42
20
      590.82
11
     -233.16
21
      590.13
39
 0
62
 1
 0
LINE
8
default
6
CONTINUOUS
10
      233.16
20
      590.13
11
      234.89
21
      589.42
39
 0
62
 3
 0
LINE
8
default
6
CONTINUOUS
10
     -233.16
20
      590.13
11
     -234.89
21
      589.42
39
 0
62
 1
 0
LINE
8
default
6
CONTINUOUS
10
      234.89
20
      589.42
11
      236.62
21
      588.72
39
 0
62
 3
 0
LINE
8
default
6
CONTINUOUS
10
     -234.89
20
      589.42
11
     -236.62
21
      588.72
39
 0
62
 1
 0
LINE
8
default
6
CONTINUOUS
10
      236.62
20
      588.72
11
      238.34
21
      588.00
39
 0
62
 3
 0
LINE
8
default
6
CONTINUOUS
10
     -236.62
20
      588.72
11
     -238.34
21
      588.00
39
 0
62
 1
 0
LINE
8
default
6
CONTINUOUS
10
      238.34
20
      588.00
11
      240.05
21
      587.29
39
 0
62
 3
 0
LINE
8
default
6
CONTINUOUS
10
     -238.34
20
      588.00
11
     -240.05
21
      587.29
39
 0
62
 1
 0
LINE
8
default
6
CONTINUOUS
10
      240.05
20
      587.29
11
      241.76
21
      586.56
39
 0
62
 3
 0
LINE
8
default
6
CONTINUOUS
10
     -240.05
20
      587.29
11
     -241.76
21
      586.56
39
 0
62
 1
 0
LINE
8
default
6
CONTINUOUS
10
      241.76
20
      586.56
11
      243.46
21
      585.84
39
 0
62
 3
 0
LINE
8
default
6
CONTINUOUS
10
     -241.76
20
      586.56
11
     -243.46
21
      585.84
39
 0
62
 1
 0
LINE
8
default
6
CONTINUOUS
10
      243.46
20
      585.84
11
      245.16
21
      585.10
39
 0
62
 3
 0
LINE
8
default
6
CONTINUOUS
10
     -243.46
20
      585.84
11
     -245.16
21
      585.10
39
 0
62
 1
 0
LINE
8
default
6
CONTINUOUS
10
      245.16
20
      585.10
11
      246.85
21
      584.36
39
 0
62
 3
 0
LINE
8
default
6
CONTINUOUS
10
     -245.16
20
      585.10
11
     -246.85
21
      584.36
39
 0
62
 1
 0
LINE
8
default
6
CONTINUOUS
10
      246.85
20
      584.36
11
      248.53
21
      583.62
39
 0
62
 3
 0
LINE
8
default
6
CONTINUOUS
10
     -246.85
20
      584.36
11
     -248.53
21
      583.62
39
 0
62
 1
 0
LINE
8
default
6
CONTINUOUS
10
      248.53
20
      583.62
11
      250.20
21
      582.87
39
 0
62
 3
 0
LINE
8
default
6
CONTINUOUS
10
     -248.53
20
      583.62
11
     -250.20
21
      582.87
39
 0
62
 1
 0
LINE
8
default
6
CONTINUOUS
10
      250.20
20
      582.87
11
      251.87
21
      582.12
39
 0
62
 3
 0
LINE
8
default
6
CONTINUOUS
10
     -250.20
20
      582.87
11
     -251.87
21
      582.12
39
 0
62
 1
 0
LINE
8
default
6
CONTINUOUS
10
      251.87
20
      582.12
11
      253.53
21
      581.36
39
 0
62
 3
 0
LINE
8
default
6
CONTINUOUS
10
     -251.87
20
      582.12
11
     -253.53
21
      581.36
39
 0
62
 1
 0
LINE
8
default
6
CONTINUOUS
10
      253.53
20
      581.36
11
      255.18
21
      580.60
39
 0
62
 3
 0
LINE
8
default
6
CONTINUOUS
10
     -253.53
20
      581.36
11
     -255.18
21
      580.60
39
 0
62
 1
 0
LINE
8
default
6
CONTINUOUS
10
      255.18
20
      580.60
11
      256.83
21
      579.83
39
 0
62
 3
 0
LINE
8
default
6
CONTINUOUS
10
     -255.18
20
      580.60
11
     -256.83
21
      579.83
39
 0
62
 1
 0
LINE
8
default
6
CONTINUOUS
10
      256.83
20
      579.83
11
      258.47
21
      579.06
39
 0
62
 3
 0
LINE
8
default
6
CONTINUOUS
10
     -256.83
20
      579.83
11
     -258.47
21
      579.06
39
 0
62
 1
 0
LINE
8
default
6
CONTINUOUS
10
      258.47
20
      579.06
11
      259.71
21
      578.46
39
 0
62
 3
 0
LINE
8
default
6
CONTINUOUS
10
     -258.47
20
      579.06
11
     -259.71
21
      578.46
39
 0
62
 1
 0
LINE
8
default
6
CONTINUOUS
10
      259.71
20
      578.46
11
      263.41
21
      576.68
39
 0
62
 3
 0
LINE
8
default
6
CONTINUOUS
10
     -259.71
20
      578.46
11
     -263.41
21
      576.68
39
 0
62
 1
 0
LINE
8
default
6
CONTINUOUS
10
      263.41
20
      576.68
11
      267.03
21
      574.90
39
 0
62
 3
 0
LINE
8
default
6
CONTINUOUS
10
     -263.41
20
      576.68
11
     -267.03
21
      574.90
39
 0
62
 1
 0
LINE
8
default
6
CONTINUOUS
10
      267.03
20
      574.90
11
      270.58
21
      573.11
39
 0
62
 3
 0
LINE
8
default
6
CONTINUOUS
10
     -267.03
20
      574.90
11
     -270.58
21
      573.11
39
 0
62
 1
 0
LINE
8
default
6
CONTINUOUS
10
      270.58
20
      573.11
11
      274.07
21
      571.33
39
 0
62
 3
 0
LINE
8
default
6
CONTINUOUS
10
     -270.58
20
      573.11
11
     -274.07
21
      571.33
39
 0
62
 1
 0
LINE
8
default
6
CONTINUOUS
10
      274.07
20
      571.33
11
      277.49
21
      569.54
39
 0
62
 3
 0
LINE
8
default
6
CONTINUOUS
10
     -274.07
20
      571.33
11
     -277.49
21
      569.54
39
 0
62
 1
 0
LINE
8
default
6
CONTINUOUS
10
      277.49
20
      569.54
11
      280.85
21
      567.76
39
 0
62
 3
 0
LINE
8
default
6
CONTINUOUS
10
     -277.49
20
      569.54
11
     -280.85
21
      567.76
39
 0
62
 1
 0
LINE
8
default
6
CONTINUOUS
10
      280.85
20
      567.76
11
      284.15
21
      565.97
39
 0
62
 3
 0
LINE
8
default
6
CONTINUOUS
10
     -280.85
20
      567.76
11
     -284.15
21
      565.97
39
 0
62
 1
 0
LINE
8
default
6
CONTINUOUS
10
      284.15
20
      565.97
11
      287.39
21
      564.19
39
 0
62
 3
 0
LINE
8
default
6
CONTINUOUS
10
     -284.15
20
      565.97
11
     -287.39
21
      564.19
39
 0
62
 1
 0
LINE
8
default
6
CONTINUOUS
10
      287.39
20
      564.19
11
      290.58
21
      562.40
39
 0
62
 3
 0
LINE
8
default
6
CONTINUOUS
10
     -287.39
20
      564.19
11
     -290.58
21
      562.40
39
 0
62
 1
 0
LINE
8
default
6
CONTINUOUS
10
      290.58
20
      562.40
11
      293.72
21
      560.62
39
 0
62
 3
 0
LINE
8
default
6
CONTINUOUS
10
     -290.58
20
      562.40
11
     -293.72
21
      560.62
39
 0
62
 1
 0
LINE
8
default
6
CONTINUOUS
10
      293.72
20
      560.62
11
      296.81
21
      558.83
39
 0
62
 3
 0
LINE
8
default
6
CONTINUOUS
10
     -293.72
20
      560.62
11
     -296.81
21
      558.83
39
 0
62
 1
 0
LINE
8
default
6
CONTINUOUS
10
      296.81
20
      558.83
11
      299.85
21
      557.05
39
 0
62
 3
 0
LINE
8
default
6
CONTINUOUS
10
     -296.81
20
      558.83
11
     -299.85
21
      557.05
39
 0
62
 1
 0
LINE
8
default
6
CONTINUOUS
10
      299.85
20
      557.05
11
      302.84
21
      555.26
39
 0
62
 3
 0
LINE
8
default
6
CONTINUOUS
10
     -299.85
20
      557.05
11
     -302.84
21
      555.26
39
 0
62
 1
 0
LINE
8
default
6
CONTINUOUS
10
      302.84
20
      555.26
11
      305.78
21
      553.48
39
 0
62
 3
 0
LINE
8
default
6
CONTINUOUS
10
     -302.84
20
      555.26
11
     -305.78
21
      553.48
39
 0
62
 1
 0
LINE
8
default
6
CONTINUOUS
10
      305.78
20
      553.48
11
      308.68
21
      551.69
39
 0
62
 3
 0
LINE
8
default
6
CONTINUOUS
10
     -305.78
20
      553.48
11
     -308.68
21
      551.69
39
 0
62
 1
 0
LINE
8
default
6
CONTINUOUS
10
      308.68
20
      551.69
11
      311.54
21
      549.91
39
 0
62
 3
 0
LINE
8
default
6
CONTINUOUS
10
     -308.68
20
      551.69
11
     -311.54
21
      549.91
39
 0
62
 1
 0
LINE
8
default
6
CONTINUOUS
10
      311.54
20
      549.91
11
      314.36
21
      548.13
39
 0
62
 3
 0
LINE
8
default
6
CONTINUOUS
10
     -311.54
20
      549.91
11
     -314.36
21
      548.13
39
 0
62
 1
 0
LINE
8
default
6
CONTINUOUS
10
      314.36
20
      548.13
11
      317.14
21
      546.34
39
 0
62
 3
 0
LINE
8
default
6
CONTINUOUS
10
     -314.36
20
      548.13
11
     -317.14
21
      546.34
39
 0
62
 1
 0
LINE
8
default
6
CONTINUOUS
10
      317.14
20
      546.34
11
      319.88
21
      544.56
39
 0
62
 3
 0
LINE
8
default
6
CONTINUOUS
10
     -317.14
20
      546.34
11
     -319.88
21
      544.56
39
 0
62
 1
 0
LINE
8
default
6
CONTINUOUS
10
      319.88
20
      544.56
11
      322.57
21
      542.77
39
 0
62
 3
 0
LINE
8
default
6
CONTINUOUS
10
     -319.88
20
      544.56
11
     -322.57
21
      542.77
39
 0
62
 1
 0
LINE
8
default
6
CONTINUOUS
10
      322.57
20
      542.77
11
      325.24
21
      540.99
39
 0
62
 3
 0
LINE
8
default
6
CONTINUOUS
10
     -322.57
20
      542.77
11
     -325.24
21
      540.99
39
 0
62
 1
 0
LINE
8
default
6
CONTINUOUS
10
      325.24
20
      540.99
11
      327.86
21
      539.20
39
 0
62
 3
 0
LINE
8
default
6
CONTINUOUS
10
     -325.24
20
      540.99
11
     -327.86
21
      539.20
39
 0
62
 1
 0
LINE
8
default
6
CONTINUOUS
10
      327.86
20
      539.20
11
      330.45
21
      537.42
39
 0
62
 3
 0
LINE
8
default
6
CONTINUOUS
10
     -327.86
20
      539.20
11
     -330.45
21
      537.42
39
 0
62
 1
 0
LINE
8
default
6
CONTINUOUS
10
      330.45
20
      537.42
11
      333.00
21
      535.63
39
 0
62
 3
 0
LINE
8
default
6
CONTINUOUS
10
     -330.45
20
      537.42
11
     -333.00
21
      535.63
39
 0
62
 1
 0
LINE
8
default
6
CONTINUOUS
10
      333.00
20
      535.63
11
      335.52
21
      533.85
39
 0
62
 3
 0
LINE
8
default
6
CONTINUOUS
10
     -333.00
20
      535.63
11
     -335.52
21
      533.85
39
 0
62
 1
 0
LINE
8
default
6
CONTINUOUS
10
      335.52
20
      533.85
11
      338.00
21
      532.06
39
 0
62
 3
 0
LINE
8
default
6
CONTINUOUS
10
     -335.52
20
      533.85
11
     -338.00
21
      532.06
39
 0
62
 1
 0
LINE
8
default
6
CONTINUOUS
10
      338.00
20
      532.06
11
      340.45
21
      530.28
39
 0
62
 3
 0
LINE
8
default
6
CONTINUOUS
10
     -338.00
20
      532.06
11
     -340.45
21
      530.28
39
 0
62
 1
 0
LINE
8
default
6
CONTINUOUS
10
      340.45
20
      530.28
11
      342.87
21
      528.49
39
 0
62
 3
 0
LINE
8
default
6
CONTINUOUS
10
     -340.45
20
      530.28
11
     -342.87
21
      528.49
39
 0
62
 1
 0
LINE
8
default
6
CONTINUOUS
10
      342.87
20
      528.49
11
      345.25
21
      526.71
39
 0
62
 3
 0
LINE
8
default
6
CONTINUOUS
10
     -342.87
20
      528.49
11
     -345.25
21
      526.71
39
 0
62
 1
 0
LINE
8
default
6
CONTINUOUS
10
      345.25
20
      526.71
11
      347.61
21
      524.92
39
 0
62
 3
 0
LINE
8
default
6
CONTINUOUS
10
     -345.25
20
      526.71
11
     -347.61
21
      524.92
39
 0
62
 1
 0
LINE
8
default
6
CONTINUOUS
10
      347.61
20
      524.92
11
      349.93
21
      523.14
39
 0
62
 3
 0
LINE
8
default
6
CONTINUOUS
10
     -347.61
20
      524.92
11
     -349.93
21
      523.14
39
 0
62
 1
 0
LINE
8
default
6
CONTINUOUS
10
      349.93
20
      523.14
11
      352.22
21
      521.36
39
 0
62
 3
 0
LINE
8
default
6
CONTINUOUS
10
     -349.93
20
      523.14
11
     -352.22
21
      521.36
39
 0
62
 1
 0
LINE
8
default
6
CONTINUOUS
10
      352.22
20
      521.36
11
      354.47
21
      519.57
39
 0
62
 3
 0
LINE
8
default
6
CONTINUOUS
10
     -352.22
20
      521.36
11
     -354.47
21
      519.57
39
 0
62
 1
 0
LINE
8
default
6
CONTINUOUS
10
      354.47
20
      519.57
11
      356.70
21
      517.79
39
 0
62
 3
 0
LINE
8
default
6
CONTINUOUS
10
     -354.47
20
      519.57
11
     -356.70
21
      517.79
39
 0
62
 1
 0
LINE
8
default
6
CONTINUOUS
10
      356.70
20
      517.79
11
      358.90
21
      516.00
39
 0
62
 3
 0
LINE
8
default
6
CONTINUOUS
10
     -356.70
20
      517.79
11
     -358.90
21
      516.00
39
 0
62
 1
 0
LINE
8
default
6
CONTINUOUS
10
      358.90
20
      516.00
11
      361.06
21
      514.22
39
 0
62
 3
 0
LINE
8
default
6
CONTINUOUS
10
     -358.90
20
      516.00
11
     -361.06
21
      514.22
39
 0
62
 1
 0
LINE
8
default
6
CONTINUOUS
10
      361.06
20
      514.22
11
      363.20
21
      512.43
39
 0
62
 3
 0
LINE
8
default
6
CONTINUOUS
10
     -361.06
20
      514.22
11
     -363.20
21
      512.43
39
 0
62
 1
 0
LINE
8
default
6
CONTINUOUS
10
      363.20
20
      512.43
11
      365.30
21
      510.65
39
 0
62
 3
 0
LINE
8
default
6
CONTINUOUS
10
     -363.20
20
      512.43
11
     -365.30
21
      510.65
39
 0
62
 1
 0
LINE
8
default
6
CONTINUOUS
10
      365.30
20
      510.65
11
      367.38
21
      508.86
39
 0
62
 3
 0
LINE
8
default
6
CONTINUOUS
10
     -365.30
20
      510.65
11
     -367.38
21
      508.86
39
 0
62
 1
 0
LINE
8
default
6
CONTINUOUS
10
      367.38
20
      508.86
11
      369.42
21
      507.08
39
 0
62
 3
 0
LINE
8
default
6
CONTINUOUS
10
     -367.38
20
      508.86
11
     -369.42
21
      507.08
39
 0
62
 1
 0
LINE
8
default
6
CONTINUOUS
10
      369.42
20
      507.08
11
      371.43
21
      505.29
39
 0
62
 3
 0
LINE
8
default
6
CONTINUOUS
10
     -369.42
20
      507.08
11
     -371.43
21
      505.29
39
 0
62
 1
 0
LINE
8
default
6
CONTINUOUS
10
      371.43
20
      505.29
11
      373.42
21
      503.51
39
 0
62
 3
 0
LINE
8
default
6
CONTINUOUS
10
     -371.43
20
      505.29
11
     -373.42
21
      503.51
39
 0
62
 1
 0
LINE
8
default
6
CONTINUOUS
10
      373.42
20
      503.51
11
      375.37
21
      501.72
39
 0
62
 3
 0
LINE
8
default
6
CONTINUOUS
10
     -373.42
20
      503.51
11
     -375.37
21
      501.72
39
 0
62
 1
 0
LINE
8
default
6
CONTINUOUS
10
      375.37
20
      501.72
11
      377.30
21
      499.94
39
 0
62
 3
 0
LINE
8
default
6
CONTINUOUS
10
     -375.37
20
      501.72
11
     -377.30
21
      499.94
39
 0
62
 1
 0
LINE
8
default
6
CONTINUOUS
10
      377.30
20
      499.94
11
      379.19
21
      498.16
39
 0
62
 3
 0
LINE
8
default
6
CONTINUOUS
10
     -377.30
20
      499.94
11
     -379.19
21
      498.16
39
 0
62
 1
 0
LINE
8
default
6
CONTINUOUS
10
      379.19
20
      498.16
11
      381.06
21
      496.37
39
 0
62
 3
 0
LINE
8
default
6
CONTINUOUS
10
     -379.19
20
      498.16
11
     -381.06
21
      496.37
39
 0
62
 1
 0
LINE
8
default
6
CONTINUOUS
10
      381.06
20
      496.37
11
      382.89
21
      494.59
39
 0
62
 3
 0
LINE
8
default
6
CONTINUOUS
10
     -381.06
20
      496.37
11
     -382.89
21
      494.59
39
 0
62
 1
 0
LINE
8
default
6
CONTINUOUS
10
      382.89
20
      494.59
11
      384.70
21
      492.80
39
 0
62
 3
 0
LINE
8
default
6
CONTINUOUS
10
     -382.89
20
      494.59
11
     -384.70
21
      492.80
39
 0
62
 1
 0
LINE
8
default
6
CONTINUOUS
10
      384.70
20
      492.80
11
      386.47
21
      491.02
39
 0
62
 3
 0
LINE
8
default
6
CONTINUOUS
10
     -384.70
20
      492.80
11
     -386.47
21
      491.02
39
 0
62
 1
 0
LINE
8
default
6
CONTINUOUS
10
      386.47
20
      491.02
11
      388.21
21
      489.23
39
 0
62
 3
 0
LINE
8
default
6
CONTINUOUS
10
     -386.47
20
      491.02
11
     -388.21
21
      489.23
39
 0
62
 1
 0
LINE
8
default
6
CONTINUOUS
10
      388.21
20
      489.23
11
      389.93
21
      487.45
39
 0
62
 3
 0
LINE
8
default
6
CONTINUOUS
10
     -388.21
20
      489.23
11
     -389.93
21
      487.45
39
 0
62
 1
 0
LINE
8
default
6
CONTINUOUS
10
      389.93
20
      487.45
11
      391.61
21
      485.66
39
 0
62
 3
 0
LINE
8
default
6
CONTINUOUS
10
     -389.93
20
      487.45
11
     -391.61
21
      485.66
39
 0
62
 1
 0
LINE
8
default
6
CONTINUOUS
10
      391.61
20
      485.66
11
      393.26
21
      483.88
39
 0
62
 3
 0
LINE
8
default
6
CONTINUOUS
10
     -391.61
20
      485.66
11
     -393.26
21
      483.88
39
 0
62
 1
 0
LINE
8
default
6
CONTINUOUS
10
      393.26
20
      483.88
11
      394.88
21
      482.09
39
 0
62
 3
 0
LINE
8
default
6
CONTINUOUS
10
     -393.26
20
      483.88
11
     -394.88
21
      482.09
39
 0
62
 1
 0
LINE
8
default
6
CONTINUOUS
10
      394.88
20
      482.09
11
      396.48
21
      480.31
39
 0
62
 3
 0
LINE
8
default
6
CONTINUOUS
10
     -394.88
20
      482.09
11
     -396.48
21
      480.31
39
 0
62
 1
 0
LINE
8
default
6
CONTINUOUS
10
      396.48
20
      480.31
11
      398.04
21
      478.52
39
 0
62
 3
 0
LINE
8
default
6
CONTINUOUS
10
     -396.48
20
      480.31
11
     -398.04
21
      478.52
39
 0
62
 1
 0
LINE
8
default
6
CONTINUOUS
10
      398.04
20
      478.52
11
      399.56
21
      476.74
39
 0
62
 3
 0
LINE
8
default
6
CONTINUOUS
10
     -398.04
20
      478.52
11
     -399.56
21
      476.74
39
 0
62
 1
 0
LINE
8
default
6
CONTINUOUS
10
      399.56
20
      476.74
11
      401.06
21
      474.95
39
 0
62
 3
 0
LINE
8
default
6
CONTINUOUS
10
     -399.56
20
      476.74
11
     -401.06
21
      474.95
39
 0
62
 1
 0
LINE
8
default
6
CONTINUOUS
10
      401.06
20
      474.95
11
      402.53
21
      473.17
39
 0
62
 3
 0
LINE
8
default
6
CONTINUOUS
10
     -401.06
20
      474.95
11
     -402.53
21
      473.17
39
 0
62
 1
 0
LINE
8
default
6
CONTINUOUS
10
      402.53
20
      473.17
11
      403.96
21
      471.39
39
 0
62
 3
 0
LINE
8
default
6
CONTINUOUS
10
     -402.53
20
      473.17
11
     -403.96
21
      471.39
39
 0
62
 1
 0
LINE
8
default
6
CONTINUOUS
10
      403.96
20
      471.39
11
      405.36
21
      469.60
39
 0
62
 3
 0
LINE
8
default
6
CONTINUOUS
10
     -403.96
20
      471.39
11
     -405.36
21
      469.60
39
 0
62
 1
 0
LINE
8
default
6
CONTINUOUS
10
      405.36
20
      469.60
11
      406.73
21
      467.82
39
 0
62
 3
 0
LINE
8
default
6
CONTINUOUS
10
     -405.36
20
      469.60
11
     -406.73
21
      467.82
39
 0
62
 1
 0
LINE
8
default
6
CONTINUOUS
10
      406.73
20
      467.82
11
      408.07
21
      466.03
39
 0
62
 3
 0
LINE
8
default
6
CONTINUOUS
10
     -406.73
20
      467.82
11
     -408.07
21
      466.03
39
 0
62
 1
 0
LINE
8
default
6
CONTINUOUS
10
      408.07
20
      466.03
11
      409.37
21
      464.25
39
 0
62
 3
 0
LINE
8
default
6
CONTINUOUS
10
     -408.07
20
      466.03
11
     -409.37
21
      464.25
39
 0
62
 1
 0
LINE
8
default
6
CONTINUOUS
10
      409.37
20
      464.25
11
      410.65
21
      462.46
39
 0
62
 3
 0
LINE
8
default
6
CONTINUOUS
10
     -409.37
20
      464.25
11
     -410.65
21
      462.46
39
 0
62
 1
 0
LINE
8
default
6
CONTINUOUS
10
      410.65
20
      462.46
11
      411.89
21
      460.68
39
 0
62
 3
 0
LINE
8
default
6
CONTINUOUS
10
     -410.65
20
      462.46
11
     -411.89
21
      460.68
39
 0
62
 1
 0
LINE
8
default
6
CONTINUOUS
10
      411.89
20
      460.68
11
      413.09
21
      458.89
39
 0
62
 3
 0
LINE
8
default
6
CONTINUOUS
10
     -411.89
20
      460.68
11
     -413.09
21
      458.89
39
 0
62
 1
 0
LINE
8
default
6
CONTINUOUS
10
      413.09
20
      458.89
11
      414.26
21
      457.11
39
 0
62
 3
 0
LINE
8
default
6
CONTINUOUS
10
     -413.09
20
      458.89
11
     -414.26
21
      457.11
39
 0
62
 1
 0
LINE
8
default
6
CONTINUOUS
10
      414.26
20
      457.11
11
      415.40
21
      455.32
39
 0
62
 3
 0
LINE
8
default
6
CONTINUOUS
10
     -414.26
20
      457.11
11
     -415.40
21
      455.32
39
 0
62
 1
 0
LINE
8
default
6
CONTINUOUS
10
      415.40
20
      455.32
11
      416.51
21
      453.54
39
 0
62
 3
 0
LINE
8
default
6
CONTINUOUS
10
     -415.40
20
      455.32
11
     -416.51
21
      453.54
39
 0
62
 1
 0
LINE
8
default
6
CONTINUOUS
10
      416.51
20
      453.54
11
      417.58
21
      451.75
39
 0
62
 3
 0
LINE
8
default
6
CONTINUOUS
10
     -416.51
20
      453.54
11
     -417.58
21
      451.75
39
 0
62
 1
 0
LINE
8
default
6
CONTINUOUS
10
      417.58
20
      451.75
11
      418.62
21
      449.97
39
 0
62
 3
 0
LINE
8
default
6
CONTINUOUS
10
     -417.58
20
      451.75
11
     -418.62
21
      449.97
39
 0
62
 1
 0
LINE
8
default
6
CONTINUOUS
10
      418.62
20
      449.97
11
      419.62
21
      448.19
39
 0
62
 3
 0
LINE
8
default
6
CONTINUOUS
10
     -418.62
20
      449.97
11
     -419.62
21
      448.19
39
 0
62
 1
 0
LINE
8
default
6
CONTINUOUS
10
      419.62
20
      448.19
11
      420.59
21
      446.40
39
 0
62
 3
 0
LINE
8
default
6
CONTINUOUS
10
     -419.62
20
      448.19
11
     -420.59
21
      446.40
39
 0
62
 1
 0
LINE
8
default
6
CONTINUOUS
10
      420.59
20
      446.40
11
      421.52
21
      444.62
39
 0
62
 3
 0
LINE
8
default
6
CONTINUOUS
10
     -420.59
20
      446.40
11
     -421.52
21
      444.62
39
 0
62
 1
 0
LINE
8
default
6
CONTINUOUS
10
      421.52
20
      444.62
11
      422.42
21
      442.83
39
 0
62
 3
 0
LINE
8
default
6
CONTINUOUS
10
     -421.52
20
      444.62
11
     -422.42
21
      442.83
39
 0
62
 1
 0
LINE
8
default
6
CONTINUOUS
10
      422.42
20
      442.83
11
      423.28
21
      441.05
39
 0
62
 3
 0
LINE
8
default
6
CONTINUOUS
10
     -422.42
20
      442.83
11
     -423.28
21
      441.05
39
 0
62
 1
 0
LINE
8
default
6
CONTINUOUS
10
      423.28
20
      441.05
11
      424.11
21
      439.26
39
 0
62
 3
 0
LINE
8
default
6
CONTINUOUS
10
     -423.28
20
      441.05
11
     -424.11
21
      439.26
39
 0
62
 1
 0
LINE
8
default
6
CONTINUOUS
10
      424.11
20
      439.26
11
      424.90
21
      437.48
39
 0
62
 3
 0
LINE
8
default
6
CONTINUOUS
10
     -424.11
20
      439.26
11
     -424.90
21
      437.48
39
 0
62
 1
 0
LINE
8
default
6
CONTINUOUS
10
      424.90
20
      437.48
11
      425.66
21
      435.69
39
 0
62
 3
 0
LINE
8
default
6
CONTINUOUS
10
     -424.90
20
      437.48
11
     -425.66
21
      435.69
39
 0
62
 1
 0
LINE
8
default
6
CONTINUOUS
10
      425.66
20
      435.69
11
      426.38
21
      433.91
39
 0
62
 3
 0
LINE
8
default
6
CONTINUOUS
10
     -425.66
20
      435.69
11
     -426.38
21
      433.91
39
 0
62
 1
 0
LINE
8
default
6
CONTINUOUS
10
      426.38
20
      433.91
11
      427.07
21
      432.12
39
 0
62
 3
 0
LINE
8
default
6
CONTINUOUS
10
     -426.38
20
      433.91
11
     -427.07
21
      432.12
39
 0
62
 1
 0
LINE
8
default
6
CONTINUOUS
10
      427.07
20
      432.12
11
      427.71
21
      430.34
39
 0
62
 3
 0
LINE
8
default
6
CONTINUOUS
10
     -427.07
20
      432.12
11
     -427.71
21
      430.34
39
 0
62
 1
 0
LINE
8
default
6
CONTINUOUS
10
      427.71
20
      430.34
11
      428.33
21
      428.55
39
 0
62
 3
 0
LINE
8
default
6
CONTINUOUS
10
     -427.71
20
      430.34
11
     -428.33
21
      428.55
39
 0
62
 1
 0
LINE
8
default
6
CONTINUOUS
10
      428.33
20
      428.55
11
      428.90
21
      426.77
39
 0
62
 3
 0
LINE
8
default
6
CONTINUOUS
10
     -428.33
20
      428.55
11
     -428.90
21
      426.77
39
 0
62
 1
 0
LINE
8
default
6
CONTINUOUS
10
      428.90
20
      426.77
11
      429.44
21
      424.98
39
 0
62
 3
 0
LINE
8
default
6
CONTINUOUS
10
     -428.90
20
      426.77
11
     -429.44
21
      424.98
39
 0
62
 1
 0
LINE
8
default
6
CONTINUOUS
10
      429.44
20
      424.98
11
      429.95
21
      423.20
39
 0
62
 3
 0
LINE
8
default
6
CONTINUOUS
10
     -429.44
20
      424.98
11
     -429.95
21
      423.20
39
 0
62
 1
 0
LINE
8
default
6
CONTINUOUS
10
      429.95
20
      423.20
11
      430.41
21
      421.42
39
 0
62
 3
 0
LINE
8
default
6
CONTINUOUS
10
     -429.95
20
      423.20
11
     -430.41
21
      421.42
39
 0
62
 1
 0
LINE
8
default
6
CONTINUOUS
10
      430.41
20
      421.42
11
      430.84
21
      419.63
39
 0
62
 3
 0
LINE
8
default
6
CONTINUOUS
10
     -430.41
20
      421.42
11
     -430.84
21
      419.63
39
 0
62
 1
 0
LINE
8
default
6
CONTINUOUS
10
      430.84
20
      419.63
11
      431.24
21
      417.85
39
 0
62
 3
 0
LINE
8
default
6
CONTINUOUS
10
     -430.84
20
      419.63
11
     -431.24
21
      417.85
39
 0
62
 1
 0
LINE
8
default
6
CONTINUOUS
10
      431.24
20
      417.85
11
      431.59
21
      416.06
39
 0
62
 3
 0
LINE
8
default
6
CONTINUOUS
10
     -431.24
20
      417.85
11
     -431.59
21
      416.06
39
 0
62
 1
 0
LINE
8
default
6
CONTINUOUS
10
      431.59
20
      416.06
11
      431.91
21
      414.28
39
 0
62
 3
 0
LINE
8
default
6
CONTINUOUS
10
     -431.59
20
      416.06
11
     -431.91
21
      414.28
39
 0
62
 1
 0
LINE
8
default
6
CONTINUOUS
10
      431.91
20
      414.28
11
      432.19
21
      412.49
39
 0
62
 3
 0
LINE
8
default
6
CONTINUOUS
10
     -431.91
20
      414.28
11
     -432.19
21
      412.49
39
 0
62
 1
 0
LINE
8
default
6
CONTINUOUS
10
      432.19
20
      412.49
11
      432.43
21
      410.71
39
 0
62
 3
 0
LINE
8
default
6
CONTINUOUS
10
     -432.19
20
      412.49
11
     -432.43
21
      410.71
39
 0
62
 1
 0
LINE
8
default
6
CONTINUOUS
10
      432.43
20
      410.71
11
      432.64
21
      408.92
39
 0
62
 3
 0
LINE
8
default
6
CONTINUOUS
10
     -432.43
20
      410.71
11
     -432.64
21
      408.92
39
 0
62
 1
 0
LINE
8
default
6
CONTINUOUS
10
      432.64
20
      408.92
11
      432.81
21
      407.14
39
 0
62
 3
 0
LINE
8
default
6
CONTINUOUS
10
     -432.64
20
      408.92
11
     -432.81
21
      407.14
39
 0
62
 1
 0
LINE
8
default
6
CONTINUOUS
10
      432.81
20
      407.14
11
      432.94
21
      405.35
39
 0
62
 3
 0
LINE
8
default
6
CONTINUOUS
10
     -432.81
20
      407.14
11
     -432.94
21
      405.35
39
 0
62
 1
 0
LINE
8
default
6
CONTINUOUS
10
      432.94
20
      405.35
11
      433.03
21
      403.57
39
 0
62
 3
 0
LINE
8
default
6
CONTINUOUS
10
     -432.94
20
      405.35
11
     -433.03
21
      403.57
39
 0
62
 1
 0
LINE
8
default
6
CONTINUOUS
10
      433.03
20
      403.57
11
      433.09
21
      401.78
39
 0
62
 3
 0
LINE
8
default
6
CONTINUOUS
10
     -433.03
20
      403.57
11
     -433.09
21
      401.78
39
 0
62
 1
 0
LINE
8
default
6
CONTINUOUS
10
      433.09
20
      401.78
11
      433.11
21
      400.00
39
 0
62
 3
 0
LINE
8
default
6
CONTINUOUS
10
     -433.09
20
      401.78
11
     -433.11
21
      400.00
39
 0
62
 1
 0
LINE
8
default
6
CONTINUOUS
10
       19.57
20
       -0.09
11
       19.57
21
     -246.39
39
 0
62
 3
 0
LINE
8
default
6
CONTINUOUS
10
      -19.57
20
       -0.09
11
      -19.57
21
     -246.39
39
 0
62
 1
 0
LINE
8
default
6
CONTINUOUS
10
       58.58
20
       -0.81
11
       58.58
21
     -245.88
39
 0
62
 3
 0
LINE
8
default
6
CONTINUOUS
10
      -58.58
20
       -0.81
11
      -58.58
21
     -245.88
39
 0
62
 1
 0
LINE
8
default
6
CONTINUOUS
10
       97.32
20
       -2.24
11
       97.32
21
     -244.84
39
 0
62
 3
 0
LINE
8
default
6
CONTINUOUS
10
      -97.32
20
       -2.24
11
      -97.32
21
     -244.84
39
 0
62
 1
 0
LINE
8
default
6
CONTINUOUS
10
      135.64
20
       -4.38
11
      135.64
21
     -243.30
39
 0
62
 3
 0
LINE
8
default
6
CONTINUOUS
10
     -135.64
20
       -4.38
11
     -135.64
21
     -243.30
39
 0
62
 1
 0
LINE
8
default
6
CONTINUOUS
10
      173.42
20
       -7.22
11
      173.42
21
     -241.26
39
 0
62
 3
 0
LINE
8
default
6
CONTINUOUS
10
     -173.42
20
       -7.22
11
     -173.42
21
     -241.26
39
 0
62
 1
 0
LINE
8
default
6
CONTINUOUS
10
      210.51
20
      -10.73
11
      210.51
21
     -238.49
39
 0
62
 3
 0
LINE
8
default
6
CONTINUOUS
10
     -210.51
20
      -10.73
11
     -210.51
21
     -238.49
39
 0
62
 1
 0
LINE
8
default
6
CONTINUOUS
10
      246.73
20
      -14.91
11
      246.73
21
     -234.96
39
 0
62
 3
 0
LINE
8
default
6
CONTINUOUS
10
     -246.73
20
      -14.91
11
     -246.73
21
     -234.96
39
 0
62
 1
 0
LINE
8
default
6
CONTINUOUS
10
      281.96
20
      -19.72
11
      281.96
21
     -230.82
39
 0
62
 3
 0
LINE
8
default
6
CONTINUOUS
10
     -281.96
20
      -19.72
11
     -281.96
21
     -230.82
39
 0
62
 1
 0
LINE
8
default
6
CONTINUOUS
10
      316.07
20
      -25.15
11
      316.07
21
     -226.14
39
 0
62
 3
 0
LINE
8
default
6
CONTINUOUS
10
     -316.07
20
      -25.15
11
     -316.07
21
     -226.14
39
 0
62
 1
 0
LINE
8
default
6
CONTINUOUS
10
      348.93
20
      -31.18
11
      348.93
21
     -220.97
39
 0
62
 3
 0
LINE
8
default
6
CONTINUOUS
10
     -348.93
20
      -31.18
11
     -348.93
21
     -220.97
39
 0
62
 1
 0
LINE
8
default
6
CONTINUOUS
10
      380.39
20
      -38.13
11
      380.39
21
     -215.36
39
 0
62
 3
 0
LINE
8
default
6
CONTINUOUS
10
     -380.39
20
      -38.13
11
     -380.39
21
     -215.36
39
 0
62
 1
 0
LINE
8
default
6
CONTINUOUS
10
      410.24
20
      -46.61
11
      410.24
21
     -209.37
39
 0
62
 3
 0
LINE
8
default
6
CONTINUOUS
10
     -410.24
20
      -46.61
11
     -410.24
21
     -209.37
39
 0
62
 1
 0
LINE
8
default
6
CONTINUOUS
10
      438.26
20
      -56.88
11
      438.26
21
     -203.09
39
 0
62
 3
 0
LINE
8
default
6
CONTINUOUS
10
     -438.26
20
      -56.88
11
     -438.26
21
     -203.09
39
 0
62
 1
 0
LINE
8
default
6
CONTINUOUS
10
      464.21
20
      -68.93
11
      464.21
21
     -196.63
39
 0
62
 3
 0
LINE
8
default
6
CONTINUOUS
10
     -464.21
20
      -68.93
11
     -464.21
21
     -196.63
39
 0
62
 1
 0
LINE
8
default
6
CONTINUOUS
10
      487.93
20
      -82.48
11
      487.93
21
     -190.08
39
 0
62
 3
 0
LINE
8
default
6
CONTINUOUS
10
     -487.93
20
      -82.48
11
     -487.93
21
     -190.08
39
 0
62
 1
 0
LINE
8
default
6
CONTINUOUS
10
      509.20
20
      -97.97
11
      509.20
21
     -183.59
39
 0
62
 3
 0
LINE
8
default
6
CONTINUOUS
10
     -509.20
20
      -97.97
11
     -509.20
21
     -183.59
39
 0
62
 1
 0
LINE
8
default
6
CONTINUOUS
10
      527.00
20
     -123.24
11
      527.00
21
     -177.63
39
 0
62
 3
 0
LINE
8
default
6
CONTINUOUS
10
     -527.00
20
     -123.24
11
     -527.00
21
     -177.63
39
 0
62
 1
 0
LINE
8
default
6
CONTINUOUS
10
       19.57
20
      632.11
11
       19.57
21
      682.11
39
 0
62
 1
 0
LINE
8
default
6
CONTINUOUS
10
       19.57
20
      632.11
11
       21.00
21
      682.09
39
 0
62
 2
 0
LINE
8
default
6
CONTINUOUS
10
       58.51
20
      629.95
11
       58.51
21
      679.95
39
 0
62
 1
 0
LINE
8
default
6
CONTINUOUS
10
       58.51
20
      629.95
11
       62.65
21
      679.78
39
 0
62
 2
 0
LINE
8
default
6
CONTINUOUS
10
       97.00
20
      625.64
11
       97.00
21
      675.64
39
 0
62
 1
 0
LINE
8
default
6
CONTINUOUS
10
       97.00
20
      625.64
11
      104.05
21
      675.14
39
 0
62
 2
 0
LINE
8
default
6
CONTINUOUS
10
      134.77
20
      619.17
11
      134.77
21
      669.17
39
 0
62
 1
 0
LINE
8
default
6
CONTINUOUS
10
      134.77
20
      619.17
11
      144.64
21
      668.19
39
 0
62
 2
 0
LINE
8
default
6
CONTINUOUS
10
      171.55
20
      610.56
11
      171.55
21
      660.56
39
 0
62
 1
 0
LINE
8
default
6
CONTINUOUS
10
      171.55
20
      610.56
11
      184.49
21
      658.86
39
 0
62
 2
 0
LINE
8
default
6
CONTINUOUS
10
      207.04
20
      599.81
11
      207.04
21
      649.81
39
 0
62
 1
 0
LINE
8
default
6
CONTINUOUS
10
      207.04
20
      599.81
11
      223.17
21
      647.14
39
 0
62
 2
 0
LINE
8
default
6
CONTINUOUS
10
      240.89
20
      586.93
11
      240.89
21
      636.93
39
 0
62
 1
 0
LINE
8
default
6
CONTINUOUS
10
      240.89
20
      586.93
11
      260.38
21
      632.98
39
 0
62
 2
 0
LINE
8
default
6
CONTINUOUS
10
      272.78
20
      571.98
11
      272.78
21
      621.98
39
 0
62
 1
 0
LINE
8
default
6
CONTINUOUS
10
      272.78
20
      571.98
11
      295.57
21
      616.49
39
 0
62
 2
 0
LINE
8
default
6
CONTINUOUS
10
      302.58
20
      555.42
11
      302.58
21
      605.42
39
 0
62
 1
 0
LINE
8
default
6
CONTINUOUS
10
      302.58
20
      555.42
11
      328.20
21
      598.36
39
 0
62
 2
 0
LINE
8
default
6
CONTINUOUS
10
      330.19
20
      537.60
11
      330.19
21
      587.60
39
 0
62
 1
 0
LINE
8
default
6
CONTINUOUS
10
      330.19
20
      537.60
11
      358.57
21
      578.76
39
 0
62
 2
 0
LINE
8
default
6
CONTINUOUS
10
      355.42
20
      518.81
11
      355.42
21
      568.81
39
 0
62
 1
 0
LINE
8
default
6
CONTINUOUS
10
      355.42
20
      518.81
11
      386.69
21
      557.83
39
 0
62
 2
 0
LINE
8
default
6
CONTINUOUS
10
      377.99
20
      499.29
11
      377.99
21
      549.29
39
 0
62
 1
 0
LINE
8
default
6
CONTINUOUS
10
      377.99
20
      499.29
11
      412.27
21
      535.68
39
 0
62
 2
 0
LINE
8
default
6
CONTINUOUS
10
      397.47
20
      479.17
11
      397.47
21
      529.17
39
 0
62
 1
 0
LINE
8
default
6
CONTINUOUS
10
      397.47
20
      479.17
11
      435.12
21
      512.08
39
 0
62
 2
 0
LINE
8
default
6
CONTINUOUS
10
      413.28
20
      458.61
11
      413.28
21
      508.61
39
 0
62
 1
 0
LINE
8
default
6
CONTINUOUS
10
      413.28
20
      458.61
11
      455.06
21
      486.07
39
 0
62
 2
 0
LINE
8
default
6
CONTINUOUS
10
      424.73
20
      437.87
11
      424.73
21
      487.87
39
 0
62
 1
 0
LINE
8
default
6
CONTINUOUS
10
      424.73
20
      437.87
11
      470.42
21
      458.17
39
 0
62
 2
 0
LINE
8
default
6
CONTINUOUS
10
      431.27
20
      417.67
11
      431.27
21
      467.67
39
 0
62
 1
 0
LINE
8
default
6
CONTINUOUS
10
      431.27
20
      417.67
11
      480.31
21
      427.44
39
 0
62
 2
 0
LINE
8
default
6
CONTINUOUS
10
      433.11
20
      400.00
11
      433.11
21
      450.00
39
 0
62
 1
 0
LINE
8
default
6
CONTINUOUS
10
      433.11
20
      400.00
11
      483.11
21
      400.53
39
 0
62
 2
 0
ENDSEC
0
EOF
