0
SECTION
2
HEADER
9
$EXTMAX
10
    -900.000
20
      90.000
9
$EXTMIN
10
    5000.000
20
   -3000.000
0
ENDSEC
0
SECTION
2
ENTITIES
0
LINE
8
default
6
CONTINUOUS
10
        0.00
20
       -0.00
11
        6.42
21
       -0.01
39
 0
62
 1
 0
LINE
8
default
6
CONTINUOUS
10
        0.00
20
       -0.00
11
       -6.42
21
       -0.01
39
 0
62
 1
 0
LINE
8
default
6
CONTINUOUS
10
        6.42
20
       -0.01
11
       12.84
21
       -0.04
39
 0
62
 1
 0
LINE
8
default
6
CONTINUOUS
10
       -6.42
20
       -0.01
11
      -12.84
21
       -0.04
39
 0
62
 1
 0
LINE
8
default
6
CONTINUOUS
10
       12.84
20
       -0.04
11
       19.25
21
       -0.09
39
 0
62
 1
 0
LINE
8
default
6
CONTINUOUS
10
      -12.84
20
       -0.04
11
      -19.25
21
       -0.09
39
 0
62
 1
 0
LINE
8
default
6
CONTINUOUS
10
       19.25
20
       -0.09
11
       25.67
21
       -0.16
39
 0
62
 1
 0
LINE
8
default
6
CONTINUOUS
10
      -19.25
20
       -0.09
11
      -25.67
21
       -0.16
39
 0
62
 1
 0
LINE
8
default
6
CONTINUOUS
10
       25.67
20
       -0.16
11
       32.08
21
       -0.24
39
 0
62
 1
 0
LINE
8
default
6
CONTINUOUS
10
      -25.67
20
       -0.16
11
      -32.08
21
       -0.24
39
 0
62
 1
 0
LINE
8
default
6
CONTINUOUS
10
       32.08
20
       -0.24
11
       38.49
21
       -0.35
39
 0
62
 1
 0
LINE
8
default
6
CONTINUOUS
10
      -32.08
20
       -0.24
11
      -38.49
21
       -0.35
39
 0
62
 1
 0
LINE
8
default
6
CONTINUOUS
10
       38.49
20
       -0.35
11
       44.90
21
       -0.48
39
 0
62
 1
 0
LINE
8
default
6
CONTINUOUS
10
      -38.49
20
       -0.35
11
      -44.90
21
       -0.48
39
 0
62
 1
 0
LINE
8
default
6
CONTINUOUS
10
       44.90
20
       -0.48
11
       51.30
21
       -0.62
39
 0
62
 1
 0
LINE
8
default
6
CONTINUOUS
10
      -44.90
20
       -0.48
11
      -51.30
21
       -0.62
39
 0
62
 1
 0
LINE
8
default
6
CONTINUOUS
10
       51.30
20
       -0.62
11
       57.69
21
       -0.79
39
 0
62
 1
 0
LINE
8
default
6
CONTINUOUS
10
      -51.30
20
       -0.62
11
      -57.69
21
       -0.79
39
 0
62
 1
 0
LINE
8
default
6
CONTINUOUS
10
       57.69
20
       -0.79
11
       64.09
21
       -0.97
39
 0
62
 1
 0
LINE
8
default
6
CONTINUOUS
10
      -57.69
20
       -0.79
11
      -64.09
21
       -0.97
39
 0
62
 1
 0
LINE
8
default
6
CONTINUOUS
10
       64.09
20
       -0.97
11
       70.47
21
       -1.17
39
 0
62
 1
 0
LINE
8
default
6
CONTINUOUS
10
      -64.09
20
       -0.97
11
      -70.47
21
       -1.17
39
 0
62
 1
 0
LINE
8
default
6
CONTINUOUS
10
       70.47
20
       -1.17
11
       76.85
21
       -1.40
39
 0
62
 1
 0
LINE
8
default
6
CONTINUOUS
10
      -70.47
20
       -1.17
11
      -76.85
21
       -1.40
39
 0
62
 1
 0
LINE
8
default
6
CONTINUOUS
10
       76.85
20
       -1.40
11
       83.21
21
       -1.64
39
 0
62
 1
 0
LINE
8
default
6
CONTINUOUS
10
      -76.85
20
       -1.40
11
      -83.21
21
       -1.64
39
 0
62
 1
 0
LINE
8
default
6
CONTINUOUS
10
       83.21
20
       -1.64
11
       89.58
21
       -1.90
39
 0
62
 1
 0
LINE
8
default
6
CONTINUOUS
10
      -83.21
20
       -1.64
11
      -89.58
21
       -1.90
39
 0
62
 1
 0
LINE
8
default
6
CONTINUOUS
10
       89.58
20
       -1.90
11
       95.93
21
       -2.18
39
 0
62
 1
 0
LINE
8
default
6
CONTINUOUS
10
      -89.58
20
       -1.90
11
      -95.93
21
       -2.18
39
 0
62
 1
 0
LINE
8
default
6
CONTINUOUS
10
       95.93
20
       -2.18
11
      102.27
21
       -2.48
39
 0
62
 1
 0
LINE
8
default
6
CONTINUOUS
10
      -95.93
20
       -2.18
11
     -102.27
21
       -2.48
39
 0
62
 1
 0
LINE
8
default
6
CONTINUOUS
10
      102.27
20
       -2.48
11
      108.60
21
       -2.80
39
 0
62
 1
 0
LINE
8
default
6
CONTINUOUS
10
     -102.27
20
       -2.48
11
     -108.60
21
       -2.80
39
 0
62
 1
 0
LINE
8
default
6
CONTINUOUS
10
      108.60
20
       -2.80
11
      114.92
21
       -3.13
39
 0
62
 1
 0
LINE
8
default
6
CONTINUOUS
10
     -108.60
20
       -2.80
11
     -114.92
21
       -3.13
39
 0
62
 1
 0
LINE
8
default
6
CONTINUOUS
10
      114.92
20
       -3.13
11
      121.23
21
       -3.49
39
 0
62
 1
 0
LINE
8
default
6
CONTINUOUS
10
     -114.92
20
       -3.13
11
     -121.23
21
       -3.49
39
 0
62
 1
 0
LINE
8
default
6
CONTINUOUS
10
      121.23
20
       -3.49
11
      127.53
21
       -3.87
39
 0
62
 1
 0
LINE
8
default
6
CONTINUOUS
10
     -121.23
20
       -3.49
11
     -127.53
21
       -3.87
39
 0
62
 1
 0
LINE
8
default
6
CONTINUOUS
10
      127.53
20
       -3.87
11
      133.81
21
       -4.26
39
 0
62
 1
 0
LINE
8
default
6
CONTINUOUS
10
     -127.53
20
       -3.87
11
     -133.81
21
       -4.26
39
 0
62
 1
 0
LINE
8
default
6
CONTINUOUS
10
      133.81
20
       -4.26
11
      140.09
21
       -4.68
39
 0
62
 1
 0
LINE
8
default
6
CONTINUOUS
10
     -133.81
20
       -4.26
11
     -140.09
21
       -4.68
39
 0
62
 1
 0
LINE
8
default
6
CONTINUOUS
10
      140.09
20
       -4.68
11
      146.34
21
       -5.11
39
 0
62
 1
 0
LINE
8
default
6
CONTINUOUS
10
     -140.09
20
       -4.68
11
     -146.34
21
       -5.11
39
 0
62
 1
 0
LINE
8
default
6
CONTINUOUS
10
      146.34
20
       -5.11
11
      152.59
21
       -5.56
39
 0
62
 1
 0
LINE
8
default
6
CONTINUOUS
10
     -146.34
20
       -5.11
11
     -152.59
21
       -5.56
39
 0
62
 1
 0
LINE
8
default
6
CONTINUOUS
10
      152.59
20
       -5.56
11
      158.81
21
       -6.03
39
 0
62
 1
 0
LINE
8
default
6
CONTINUOUS
10
     -152.59
20
       -5.56
11
     -158.81
21
       -6.03
39
 0
62
 1
 0
LINE
8
default
6
CONTINUOUS
10
      158.81
20
       -6.03
11
      165.03
21
       -6.52
39
 0
62
 1
 0
LINE
8
default
6
CONTINUOUS
10
     -158.81
20
       -6.03
11
     -165.03
21
       -6.52
39
 0
62
 1
 0
LINE
8
default
6
CONTINUOUS
10
      165.03
20
       -6.52
11
      171.22
21
       -7.03
39
 0
62
 1
 0
LINE
8
default
6
CONTINUOUS
10
     -165.03
20
       -6.52
11
     -171.22
21
       -7.03
39
 0
62
 1
 0
LINE
8
default
6
CONTINUOUS
10
      171.22
20
       -7.03
11
      177.40
21
       -7.56
39
 0
62
 1
 0
LINE
8
default
6
CONTINUOUS
10
     -171.22
20
       -7.03
11
     -177.40
21
       -7.56
39
 0
62
 1
 0
LINE
8
default
6
CONTINUOUS
10
      177.40
20
       -7.56
11
      183.56
21
       -8.10
39
 0
62
 1
 0
LINE
8
default
6
CONTINUOUS
10
     -177.40
20
       -7.56
11
     -183.56
21
       -8.10
39
 0
62
 1
 0
LINE
8
default
6
CONTINUOUS
10
      183.56
20
       -8.10
11
      189.70
21
       -8.67
39
 0
62
 1
 0
LINE
8
default
6
CONTINUOUS
10
     -183.56
20
       -8.10
11
     -189.70
21
       -8.67
39
 0
62
 1
 0
LINE
8
default
6
CONTINUOUS
10
      189.70
20
       -8.67
11
      195.82
21
       -9.25
39
 0
62
 1
 0
LINE
8
default
6
CONTINUOUS
10
     -189.70
20
       -8.67
11
     -195.82
21
       -9.25
39
 0
62
 1
 0
LINE
8
default
6
CONTINUOUS
10
      195.82
20
       -9.25
11
      201.93
21
       -9.85
39
 0
62
 1
 0
LINE
8
default
6
CONTINUOUS
10
     -195.82
20
       -9.25
11
     -201.93
21
       -9.85
39
 0
62
 1
 0
LINE
8
default
6
CONTINUOUS
10
      201.93
20
       -9.85
11
      208.01
21
      -10.47
39
 0
62
 1
 0
LINE
8
default
6
CONTINUOUS
10
     -201.93
20
       -9.85
11
     -208.01
21
      -10.47
39
 0
62
 1
 0
LINE
8
default
6
CONTINUOUS
10
      208.01
20
      -10.47
11
      214.07
21
      -11.11
39
 0
62
 1
 0
LINE
8
default
6
CONTINUOUS
10
     -208.01
20
      -10.47
11
     -214.07
21
      -11.11
39
 0
62
 1
 0
LINE
8
default
6
CONTINUOUS
10
      214.07
20
      -11.11
11
      220.11
21
      -11.76
39
 0
62
 1
 0
LINE
8
default
6
CONTINUOUS
10
     -214.07
20
      -11.11
11
     -220.11
21
      -11.76
39
 0
62
 1
 0
LINE
8
default
6
CONTINUOUS
10
      220.11
20
      -11.76
11
      226.13
21
      -12.44
39
 0
62
 1
 0
LINE
8
default
6
CONTINUOUS
10
     -220.11
20
      -11.76
11
     -226.13
21
      -12.44
39
 0
62
 1
 0
LINE
8
default
6
CONTINUOUS
10
      226.13
20
      -12.44
11
      232.13
21
      -13.13
39
 0
62
 1
 0
LINE
8
default
6
CONTINUOUS
10
     -226.13
20
      -12.44
11
     -232.13
21
      -13.13
39
 0
62
 1
 0
LINE
8
default
6
CONTINUOUS
10
      232.13
20
      -13.13
11
      238.10
21
      -13.84
39
 0
62
 1
 0
LINE
8
default
6
CONTINUOUS
10
     -232.13
20
      -13.13
11
     -238.10
21
      -13.84
39
 0
62
 1
 0
LINE
8
default
6
CONTINUOUS
10
      238.10
20
      -13.84
11
      244.05
21
      -14.57
39
 0
62
 1
 0
LINE
8
default
6
CONTINUOUS
10
     -238.10
20
      -13.84
11
     -244.05
21
      -14.57
39
 0
62
 1
 0
LINE
8
default
6
CONTINUOUS
10
      244.05
20
      -14.57
11
      249.98
21
      -15.32
39
 0
62
 1
 0
LINE
8
default
6
CONTINUOUS
10
     -244.05
20
      -14.57
11
     -249.98
21
      -15.32
39
 0
62
 1
 0
LINE
8
default
6
CONTINUOUS
10
      249.98
20
      -15.32
11
      255.88
21
      -16.08
39
 0
62
 1
 0
LINE
8
default
6
CONTINUOUS
10
     -249.98
20
      -15.32
11
     -255.88
21
      -16.08
39
 0
62
 1
 0
LINE
8
default
6
CONTINUOUS
10
      255.88
20
      -16.08
11
      261.75
21
      -16.86
39
 0
62
 1
 0
LINE
8
default
6
CONTINUOUS
10
     -255.88
20
      -16.08
11
     -261.75
21
      -16.86
39
 0
62
 1
 0
LINE
8
default
6
CONTINUOUS
10
      261.75
20
      -16.86
11
      267.60
21
      -17.66
39
 0
62
 1
 0
LINE
8
default
6
CONTINUOUS
10
     -261.75
20
      -16.86
11
     -267.60
21
      -17.66
39
 0
62
 1
 0
LINE
8
default
6
CONTINUOUS
10
      267.60
20
      -17.66
11
      273.42
21
      -18.48
39
 0
62
 1
 0
LINE
8
default
6
CONTINUOUS
10
     -267.60
20
      -17.66
11
     -273.42
21
      -18.48
39
 0
62
 1
 0
LINE
8
default
6
CONTINUOUS
10
      273.42
20
      -18.48
11
      279.21
21
      -19.32
39
 0
62
 1
 0
LINE
8
default
6
CONTINUOUS
10
     -273.42
20
      -18.48
11
     -279.21
21
      -19.32
39
 0
62
 1
 0
LINE
8
default
6
CONTINUOUS
10
      279.21
20
      -19.32
11
      284.98
21
      -20.17
39
 0
62
 1
 0
LINE
8
default
6
CONTINUOUS
10
     -279.21
20
      -19.32
11
     -284.98
21
      -20.17
39
 0
62
 1
 0
LINE
8
default
6
CONTINUOUS
10
      284.98
20
      -20.17
11
      290.72
21
      -21.04
39
 0
62
 1
 0
LINE
8
default
6
CONTINUOUS
10
     -284.98
20
      -20.17
11
     -290.72
21
      -21.04
39
 0
62
 1
 0
LINE
8
default
6
CONTINUOUS
10
      290.72
20
      -21.04
11
      296.43
21
      -21.93
39
 0
62
 1
 0
LINE
8
default
6
CONTINUOUS
10
     -290.72
20
      -21.04
11
     -296.43
21
      -21.93
39
 0
62
 1
 0
LINE
8
default
6
CONTINUOUS
10
      296.43
20
      -21.93
11
      302.10
21
      -22.83
39
 0
62
 1
 0
LINE
8
default
6
CONTINUOUS
10
     -296.43
20
      -21.93
11
     -302.10
21
      -22.83
39
 0
62
 1
 0
LINE
8
default
6
CONTINUOUS
10
      302.10
20
      -22.83
11
      307.75
21
      -23.75
39
 0
62
 1
 0
LINE
8
default
6
CONTINUOUS
10
     -302.10
20
      -22.83
11
     -307.75
21
      -23.75
39
 0
62
 1
 0
LINE
8
default
6
CONTINUOUS
10
      307.75
20
      -23.75
11
      313.37
21
      -24.69
39
 0
62
 1
 0
LINE
8
default
6
CONTINUOUS
10
     -307.75
20
      -23.75
11
     -313.37
21
      -24.69
39
 0
62
 1
 0
LINE
8
default
6
CONTINUOUS
10
      313.37
20
      -24.69
11
      318.96
21
      -25.65
39
 0
62
 1
 0
LINE
8
default
6
CONTINUOUS
10
     -313.37
20
      -24.69
11
     -318.96
21
      -25.65
39
 0
62
 1
 0
LINE
8
default
6
CONTINUOUS
10
      318.96
20
      -25.65
11
      324.51
21
      -26.62
39
 0
62
 1
 0
LINE
8
default
6
CONTINUOUS
10
     -318.96
20
      -25.65
11
     -324.51
21
      -26.62
39
 0
62
 1
 0
LINE
8
default
6
CONTINUOUS
10
      324.51
20
      -26.62
11
      330.03
21
      -27.61
39
 0
62
 1
 0
LINE
8
default
6
CONTINUOUS
10
     -324.51
20
      -26.62
11
     -330.03
21
      -27.61
39
 0
62
 1
 0
LINE
8
default
6
CONTINUOUS
10
      330.03
20
      -27.61
11
      335.52
21
      -28.61
39
 0
62
 1
 0
LINE
8
default
6
CONTINUOUS
10
     -330.03
20
      -27.61
11
     -335.52
21
      -28.61
39
 0
62
 1
 0
LINE
8
default
6
CONTINUOUS
10
      335.52
20
      -28.61
11
      340.98
21
      -29.64
39
 0
62
 1
 0
LINE
8
default
6
CONTINUOUS
10
     -335.52
20
      -28.61
11
     -340.98
21
      -29.64
39
 0
62
 1
 0
LINE
8
default
6
CONTINUOUS
10
      340.98
20
      -29.64
11
      346.40
21
      -30.68
39
 0
62
 1
 0
LINE
8
default
6
CONTINUOUS
10
     -340.98
20
      -29.64
11
     -346.40
21
      -30.68
39
 0
62
 1
 0
LINE
8
default
6
CONTINUOUS
10
      346.40
20
      -30.68
11
      351.79
21
      -31.74
39
 0
62
 1
 0
LINE
8
default
6
CONTINUOUS
10
     -346.40
20
      -30.68
11
     -351.79
21
      -31.74
39
 0
62
 1
 0
LINE
8
default
6
CONTINUOUS
10
      351.79
20
      -31.74
11
      357.14
21
      -32.84
39
 0
62
 1
 0
LINE
8
default
6
CONTINUOUS
10
     -351.79
20
      -31.74
11
     -357.14
21
      -32.84
39
 0
62
 1
 0
LINE
8
default
6
CONTINUOUS
10
      357.14
20
      -32.84
11
      362.46
21
      -33.96
39
 0
62
 1
 0
LINE
8
default
6
CONTINUOUS
10
     -357.14
20
      -32.84
11
     -362.46
21
      -33.96
39
 0
62
 1
 0
LINE
8
default
6
CONTINUOUS
10
      362.46
20
      -33.96
11
      367.73
21
      -35.13
39
 0
62
 1
 0
LINE
8
default
6
CONTINUOUS
10
     -362.46
20
      -33.96
11
     -367.73
21
      -35.13
39
 0
62
 1
 0
LINE
8
default
6
CONTINUOUS
10
      367.73
20
      -35.13
11
      372.98
21
      -36.33
39
 0
62
 1
 0
LINE
8
default
6
CONTINUOUS
10
     -367.73
20
      -35.13
11
     -372.98
21
      -36.33
39
 0
62
 1
 0
LINE
8
default
6
CONTINUOUS
10
      372.98
20
      -36.33
11
      378.18
21
      -37.57
39
 0
62
 1
 0
LINE
8
default
6
CONTINUOUS
10
     -372.98
20
      -36.33
11
     -378.18
21
      -37.57
39
 0
62
 1
 0
LINE
8
default
6
CONTINUOUS
10
      378.18
20
      -37.57
11
      383.35
21
      -38.86
39
 0
62
 1
 0
LINE
8
default
6
CONTINUOUS
10
     -378.18
20
      -37.57
11
     -383.35
21
      -38.86
39
 0
62
 1
 0
LINE
8
default
6
CONTINUOUS
10
      383.35
20
      -38.86
11
      388.48
21
      -40.20
39
 0
62
 1
 0
LINE
8
default
6
CONTINUOUS
10
     -383.35
20
      -38.86
11
     -388.48
21
      -40.20
39
 0
62
 1
 0
LINE
8
default
6
CONTINUOUS
10
      388.48
20
      -40.20
11
      393.57
21
      -41.59
39
 0
62
 1
 0
LINE
8
default
6
CONTINUOUS
10
     -388.48
20
      -40.20
11
     -393.57
21
      -41.59
39
 0
62
 1
 0
LINE
8
default
6
CONTINUOUS
10
      393.57
20
      -41.59
11
      398.62
21
      -43.03
39
 0
62
 1
 0
LINE
8
default
6
CONTINUOUS
10
     -393.57
20
      -41.59
11
     -398.62
21
      -43.03
39
 0
62
 1
 0
LINE
8
default
6
CONTINUOUS
10
      398.62
20
      -43.03
11
      403.63
21
      -44.52
39
 0
62
 1
 0
LINE
8
default
6
CONTINUOUS
10
     -398.62
20
      -43.03
11
     -403.63
21
      -44.52
39
 0
62
 1
 0
LINE
8
default
6
CONTINUOUS
10
      403.63
20
      -44.52
11
      408.61
21
      -46.07
39
 0
62
 1
 0
LINE
8
default
6
CONTINUOUS
10
     -403.63
20
      -44.52
11
     -408.61
21
      -46.07
39
 0
62
 1
 0
LINE
8
default
6
CONTINUOUS
10
      408.61
20
      -46.07
11
      413.54
21
      -47.68
39
 0
62
 1
 0
LINE
8
default
6
CONTINUOUS
10
     -408.61
20
      -46.07
11
     -413.54
21
      -47.68
39
 0
62
 1
 0
LINE
8
default
6
CONTINUOUS
10
      413.54
20
      -47.68
11
      418.42
21
      -49.34
39
 0
62
 1
 0
LINE
8
default
6
CONTINUOUS
10
     -413.54
20
      -47.68
11
     -418.42
21
      -49.34
39
 0
62
 1
 0
LINE
8
default
6
CONTINUOUS
10
      418.42
20
      -49.34
11
      423.27
21
      -51.06
39
 0
62
 1
 0
LINE
8
default
6
CONTINUOUS
10
     -418.42
20
      -49.34
11
     -423.27
21
      -51.06
39
 0
62
 1
 0
LINE
8
default
6
CONTINUOUS
10
      423.27
20
      -51.06
11
      428.08
21
      -52.84
39
 0
62
 1
 0
LINE
8
default
6
CONTINUOUS
10
     -423.27
20
      -51.06
11
     -428.08
21
      -52.84
39
 0
62
 1
 0
LINE
8
default
6
CONTINUOUS
10
      428.08
20
      -52.84
11
      432.84
21
      -54.68
39
 0
62
 1
 0
LINE
8
default
6
CONTINUOUS
10
     -428.08
20
      -52.84
11
     -432.84
21
      -54.68
39
 0
62
 1
 0
LINE
8
default
6
CONTINUOUS
10
      432.84
20
      -54.68
11
      437.56
21
      -56.59
39
 0
62
 1
 0
LINE
8
default
6
CONTINUOUS
10
     -432.84
20
      -54.68
11
     -437.56
21
      -56.59
39
 0
62
 1
 0
LINE
8
default
6
CONTINUOUS
10
      437.56
20
      -56.59
11
      442.23
21
      -58.55
39
 0
62
 1
 0
LINE
8
default
6
CONTINUOUS
10
     -437.56
20
      -56.59
11
     -442.23
21
      -58.55
39
 0
62
 1
 0
LINE
8
default
6
CONTINUOUS
10
      442.23
20
      -58.55
11
      446.86
21
      -60.58
39
 0
62
 1
 0
LINE
8
default
6
CONTINUOUS
10
     -442.23
20
      -58.55
11
     -446.86
21
      -60.58
39
 0
62
 1
 0
LINE
8
default
6
CONTINUOUS
10
      446.86
20
      -60.58
11
      451.45
21
      -62.66
39
 0
62
 1
 0
LINE
8
default
6
CONTINUOUS
10
     -446.86
20
      -60.58
11
     -451.45
21
      -62.66
39
 0
62
 1
 0
LINE
8
default
6
CONTINUOUS
10
      451.45
20
      -62.66
11
      455.99
21
      -64.81
39
 0
62
 1
 0
LINE
8
default
6
CONTINUOUS
10
     -451.45
20
      -62.66
11
     -455.99
21
      -64.81
39
 0
62
 1
 0
LINE
8
default
6
CONTINUOUS
10
      455.99
20
      -64.81
11
      460.49
21
      -67.02
39
 0
62
 1
 0
LINE
8
default
6
CONTINUOUS
10
     -455.99
20
      -64.81
11
     -460.49
21
      -67.02
39
 0
62
 1
 0
LINE
8
default
6
CONTINUOUS
10
      460.49
20
      -67.02
11
      464.93
21
      -69.29
39
 0
62
 1
 0
LINE
8
default
6
CONTINUOUS
10
     -460.49
20
      -67.02
11
     -464.93
21
      -69.29
39
 0
62
 1
 0
LINE
8
default
6
CONTINUOUS
10
      464.93
20
      -69.29
11
      469.34
21
      -71.63
39
 0
62
 1
 0
LINE
8
default
6
CONTINUOUS
10
     -464.93
20
      -69.29
11
     -469.34
21
      -71.63
39
 0
62
 1
 0
LINE
8
default
6
CONTINUOUS
10
      469.34
20
      -71.63
11
      473.69
21
      -74.02
39
 0
62
 1
 0
LINE
8
default
6
CONTINUOUS
10
     -469.34
20
      -71.63
11
     -473.69
21
      -74.02
39
 0
62
 1
 0
LINE
8
default
6
CONTINUOUS
10
      473.69
20
      -74.02
11
      478.00
21
      -76.48
39
 0
62
 1
 0
LINE
8
default
6
CONTINUOUS
10
     -473.69
20
      -74.02
11
     -478.00
21
      -76.48
39
 0
62
 1
 0
LINE
8
default
6
CONTINUOUS
10
      478.00
20
      -76.48
11
      482.26
21
      -78.99
39
 0
62
 1
 0
LINE
8
default
6
CONTINUOUS
10
     -478.00
20
      -76.48
11
     -482.26
21
      -78.99
39
 0
62
 1
 0
LINE
8
default
6
CONTINUOUS
10
      482.26
20
      -78.99
11
      486.47
21
      -81.56
39
 0
62
 1
 0
LINE
8
default
6
CONTINUOUS
10
     -482.26
20
      -78.99
11
     -486.47
21
      -81.56
39
 0
62
 1
 0
LINE
8
default
6
CONTINUOUS
10
      486.47
20
      -81.56
11
      490.64
21
      -84.19
39
 0
62
 1
 0
LINE
8
default
6
CONTINUOUS
10
     -486.47
20
      -81.56
11
     -490.64
21
      -84.19
39
 0
62
 1
 0
LINE
8
default
6
CONTINUOUS
10
      490.64
20
      -84.19
11
      494.75
21
      -86.88
39
 0
62
 1
 0
LINE
8
default
6
CONTINUOUS
10
     -490.64
20
      -84.19
11
     -494.75
21
      -86.88
39
 0
62
 1
 0
LINE
8
default
6
CONTINUOUS
10
      494.75
20
      -86.88
11
      498.82
21
      -89.66
39
 0
62
 1
 0
LINE
8
default
6
CONTINUOUS
10
     -494.75
20
      -86.88
11
     -498.82
21
      -89.66
39
 0
62
 1
 0
LINE
8
default
6
CONTINUOUS
10
      498.82
20
      -89.66
11
      502.83
21
      -92.59
39
 0
62
 1
 0
LINE
8
default
6
CONTINUOUS
10
     -498.82
20
      -89.66
11
     -502.83
21
      -92.59
39
 0
62
 1
 0
LINE
8
default
6
CONTINUOUS
10
      502.83
20
      -92.59
11
      506.80
21
      -95.78
39
 0
62
 1
 0
LINE
8
default
6
CONTINUOUS
10
     -502.83
20
      -92.59
11
     -506.80
21
      -95.78
39
 0
62
 1
 0
LINE
8
default
6
CONTINUOUS
10
      506.80
20
      -95.78
11
      510.71
21
      -99.35
39
 0
62
 1
 0
LINE
8
default
6
CONTINUOUS
10
     -506.80
20
      -95.78
11
     -510.71
21
      -99.35
39
 0
62
 1
 0
LINE
8
default
6
CONTINUOUS
10
      510.71
20
      -99.35
11
      514.58
21
     -103.46
39
 0
62
 1
 0
LINE
8
default
6
CONTINUOUS
10
     -510.71
20
      -99.35
11
     -514.58
21
     -103.46
39
 0
62
 1
 0
LINE
8
default
6
CONTINUOUS
10
      514.58
20
     -103.46
11
      518.39
21
     -108.28
39
 0
62
 1
 0
LINE
8
default
6
CONTINUOUS
10
     -514.58
20
     -103.46
11
     -518.39
21
     -108.28
39
 0
62
 1
 0
LINE
8
default
6
CONTINUOUS
10
      518.39
20
     -108.28
11
      522.15
21
     -114.01
39
 0
62
 1
 0
LINE
8
default
6
CONTINUOUS
10
     -518.39
20
     -108.28
11
     -522.15
21
     -114.01
39
 0
62
 1
 0
LINE
8
default
6
CONTINUOUS
10
      522.15
20
     -114.01
11
      525.86
21
     -120.85
39
 0
62
 1
 0
LINE
8
default
6
CONTINUOUS
10
     -522.15
20
     -114.01
11
     -525.86
21
     -120.85
39
 0
62
 1
 0
LINE
8
default
6
CONTINUOUS
10
      525.86
20
     -120.85
11
      527.00
21
     -123.24
39
 0
62
 1
 0
LINE
8
default
6
CONTINUOUS
10
     -525.86
20
     -120.85
11
     -527.00
21
     -123.24
39
 0
62
 1
 0
LINE
8
default
6
CONTINUOUS
10
        0.00
20
     -246.46
11
        6.43
21
     -246.45
39
 0
62
 1
 0
LINE
8
default
6
CONTINUOUS
10
        0.00
20
     -246.46
11
       -6.43
21
     -246.45
39
 0
62
 1
 0
LINE
8
default
6
CONTINUOUS
10
        6.43
20
     -246.45
11
       12.86
21
     -246.43
39
 0
62
 1
 0
LINE
8
default
6
CONTINUOUS
10
       -6.43
20
     -246.45
11
      -12.86
21
     -246.43
39
 0
62
 1
 0
LINE
8
default
6
CONTINUOUS
10
       12.86
20
     -246.43
11
       19.30
21
     -246.40
39
 0
62
 1
 0
LINE
8
default
6
CONTINUOUS
10
      -12.86
20
     -246.43
11
      -19.30
21
     -246.40
39
 0
62
 1
 0
LINE
8
default
6
CONTINUOUS
10
       19.30
20
     -246.40
11
       25.72
21
     -246.35
39
 0
62
 1
 0
LINE
8
default
6
CONTINUOUS
10
      -19.30
20
     -246.40
11
      -25.72
21
     -246.35
39
 0
62
 1
 0
LINE
8
default
6
CONTINUOUS
10
       25.72
20
     -246.35
11
       32.15
21
     -246.28
39
 0
62
 1
 0
LINE
8
default
6
CONTINUOUS
10
      -25.72
20
     -246.35
11
      -32.15
21
     -246.28
39
 0
62
 1
 0
LINE
8
default
6
CONTINUOUS
10
       32.15
20
     -246.28
11
       38.57
21
     -246.21
39
 0
62
 1
 0
LINE
8
default
6
CONTINUOUS
10
      -32.15
20
     -246.28
11
      -38.57
21
     -246.21
39
 0
62
 1
 0
LINE
8
default
6
CONTINUOUS
10
       38.57
20
     -246.21
11
       44.99
21
     -246.12
39
 0
62
 1
 0
LINE
8
default
6
CONTINUOUS
10
      -38.57
20
     -246.21
11
      -44.99
21
     -246.12
39
 0
62
 1
 0
LINE
8
default
6
CONTINUOUS
10
       44.99
20
     -246.12
11
       51.41
21
     -246.01
39
 0
62
 1
 0
LINE
8
default
6
CONTINUOUS
10
      -44.99
20
     -246.12
11
      -51.41
21
     -246.01
39
 0
62
 1
 0
LINE
8
default
6
CONTINUOUS
10
       51.41
20
     -246.01
11
       57.82
21
     -245.89
39
 0
62
 1
 0
LINE
8
default
6
CONTINUOUS
10
      -51.41
20
     -246.01
11
      -57.82
21
     -245.89
39
 0
62
 1
 0
LINE
8
default
6
CONTINUOUS
10
       57.82
20
     -245.89
11
       64.22
21
     -245.76
39
 0
62
 1
 0
LINE
8
default
6
CONTINUOUS
10
      -57.82
20
     -245.89
11
      -64.22
21
     -245.76
39
 0
62
 1
 0
LINE
8
default
6
CONTINUOUS
10
       64.22
20
     -245.76
11
       70.62
21
     -245.61
39
 0
62
 1
 0
LINE
8
default
6
CONTINUOUS
10
      -64.22
20
     -245.76
11
      -70.62
21
     -245.61
39
 0
62
 1
 0
LINE
8
default
6
CONTINUOUS
10
       70.62
20
     -245.61
11
       77.01
21
     -245.45
39
 0
62
 1
 0
LINE
8
default
6
CONTINUOUS
10
      -70.62
20
     -245.61
11
      -77.01
21
     -245.45
39
 0
62
 1
 0
LINE
8
default
6
CONTINUOUS
10
       77.01
20
     -245.45
11
       83.39
21
     -245.27
39
 0
62
 1
 0
LINE
8
default
6
CONTINUOUS
10
      -77.01
20
     -245.45
11
      -83.39
21
     -245.27
39
 0
62
 1
 0
LINE
8
default
6
CONTINUOUS
10
       83.39
20
     -245.27
11
       89.77
21
     -245.09
39
 0
62
 1
 0
LINE
8
default
6
CONTINUOUS
10
      -83.39
20
     -245.27
11
      -89.77
21
     -245.09
39
 0
62
 1
 0
LINE
8
default
6
CONTINUOUS
10
       89.77
20
     -245.09
11
       96.13
21
     -244.88
39
 0
62
 1
 0
LINE
8
default
6
CONTINUOUS
10
      -89.77
20
     -245.09
11
      -96.13
21
     -244.88
39
 0
62
 1
 0
LINE
8
default
6
CONTINUOUS
10
       96.13
20
     -244.88
11
      102.49
21
     -244.67
39
 0
62
 1
 0
LINE
8
default
6
CONTINUOUS
10
      -96.13
20
     -244.88
11
     -102.49
21
     -244.67
39
 0
62
 1
 0
LINE
8
default
6
CONTINUOUS
10
      102.49
20
     -244.67
11
      108.83
21
     -244.43
39
 0
62
 1
 0
LINE
8
default
6
CONTINUOUS
10
     -102.49
20
     -244.67
11
     -108.83
21
     -244.43
39
 0
62
 1
 0
LINE
8
default
6
CONTINUOUS
10
      108.83
20
     -244.43
11
      115.17
21
     -244.19
39
 0
62
 1
 0
LINE
8
default
6
CONTINUOUS
10
     -108.83
20
     -244.43
11
     -115.17
21
     -244.19
39
 0
62
 1
 0
LINE
8
default
6
CONTINUOUS
10
      115.17
20
     -244.19
11
      121.49
21
     -243.93
39
 0
62
 1
 0
LINE
8
default
6
CONTINUOUS
10
     -115.17
20
     -244.19
11
     -121.49
21
     -243.93
39
 0
62
 1
 0
LINE
8
default
6
CONTINUOUS
10
      121.49
20
     -243.93
11
      127.80
21
     -243.66
39
 0
62
 1
 0
LINE
8
default
6
CONTINUOUS
10
     -121.49
20
     -243.93
11
     -127.80
21
     -243.66
39
 0
62
 1
 0
LINE
8
default
6
CONTINUOUS
10
      127.80
20
     -243.66
11
      134.10
21
     -243.37
39
 0
62
 1
 0
LINE
8
default
6
CONTINUOUS
10
     -127.80
20
     -243.66
11
     -134.10
21
     -243.37
39
 0
62
 1
 0
LINE
8
default
6
CONTINUOUS
10
      134.10
20
     -243.37
11
      140.38
21
     -243.07
39
 0
62
 1
 0
LINE
8
default
6
CONTINUOUS
10
     -134.10
20
     -243.37
11
     -140.38
21
     -243.07
39
 0
62
 1
 0
LINE
8
default
6
CONTINUOUS
10
      140.38
20
     -243.07
11
      146.65
21
     -242.76
39
 0
62
 1
 0
LINE
8
default
6
CONTINUOUS
10
     -140.38
20
     -243.07
11
     -146.65
21
     -242.76
39
 0
62
 1
 0
LINE
8
default
6
CONTINUOUS
10
      146.65
20
     -242.76
11
      152.91
21
     -242.43
39
 0
62
 1
 0
LINE
8
default
6
CONTINUOUS
10
     -146.65
20
     -242.76
11
     -152.91
21
     -242.43
39
 0
62
 1
 0
LINE
8
default
6
CONTINUOUS
10
      152.91
20
     -242.43
11
      159.15
21
     -242.09
39
 0
62
 1
 0
LINE
8
default
6
CONTINUOUS
10
     -152.91
20
     -242.43
11
     -159.15
21
     -242.09
39
 0
62
 1
 0
LINE
8
default
6
CONTINUOUS
10
      159.15
20
     -242.09
11
      165.37
21
     -241.74
39
 0
62
 1
 0
LINE
8
default
6
CONTINUOUS
10
     -159.15
20
     -242.09
11
     -165.37
21
     -241.74
39
 0
62
 1
 0
LINE
8
default
6
CONTINUOUS
10
      165.37
20
     -241.74
11
      171.58
21
     -241.37
39
 0
62
 1
 0
LINE
8
default
6
CONTINUOUS
10
     -165.37
20
     -241.74
11
     -171.58
21
     -241.37
39
 0
62
 1
 0
LINE
8
default
6
CONTINUOUS
10
      171.58
20
     -241.37
11
      177.77
21
     -240.99
39
 0
62
 1
 0
LINE
8
default
6
CONTINUOUS
10
     -171.58
20
     -241.37
11
     -177.77
21
     -240.99
39
 0
62
 1
 0
LINE
8
default
6
CONTINUOUS
10
      177.77
20
     -240.99
11
      183.95
21
     -240.59
39
 0
62
 1
 0
LINE
8
default
6
CONTINUOUS
10
     -177.77
20
     -240.99
11
     -183.95
21
     -240.59
39
 0
62
 1
 0
LINE
8
default
6
CONTINUOUS
10
      183.95
20
     -240.58
11
      190.10
21
     -240.14
39
 0
62
 1
 0
LINE
8
default
6
CONTINUOUS
10
     -183.95
20
     -240.58
11
     -190.10
21
     -240.14
39
 0
62
 1
 0
LINE
8
default
6
CONTINUOUS
10
      190.10
20
     -240.14
11
      196.24
21
     -239.67
39
 0
62
 1
 0
LINE
8
default
6
CONTINUOUS
10
     -190.10
20
     -240.14
11
     -196.24
21
     -239.67
39
 0
62
 1
 0
LINE
8
default
6
CONTINUOUS
10
      196.24
20
     -239.67
11
      202.35
21
     -239.18
39
 0
62
 1
 0
LINE
8
default
6
CONTINUOUS
10
     -196.24
20
     -239.67
11
     -202.35
21
     -239.18
39
 0
62
 1
 0
LINE
8
default
6
CONTINUOUS
10
      202.35
20
     -239.18
11
      208.45
21
     -238.67
39
 0
62
 1
 0
LINE
8
default
6
CONTINUOUS
10
     -202.35
20
     -239.18
11
     -208.45
21
     -238.67
39
 0
62
 1
 0
LINE
8
default
6
CONTINUOUS
10
      208.45
20
     -238.67
11
      214.53
21
     -238.14
39
 0
62
 1
 0
LINE
8
default
6
CONTINUOUS
10
     -208.45
20
     -238.67
11
     -214.53
21
     -238.14
39
 0
62
 1
 0
LINE
8
default
6
CONTINUOUS
10
      214.53
20
     -238.14
11
      220.58
21
     -237.59
39
 0
62
 1
 0
LINE
8
default
6
CONTINUOUS
10
     -214.53
20
     -238.14
11
     -220.58
21
     -237.59
39
 0
62
 1
 0
LINE
8
default
6
CONTINUOUS
10
      220.58
20
     -237.59
11
      226.61
21
     -237.02
39
 0
62
 1
 0
LINE
8
default
6
CONTINUOUS
10
     -220.58
20
     -237.59
11
     -226.61
21
     -237.02
39
 0
62
 1
 0
LINE
8
default
6
CONTINUOUS
10
      226.61
20
     -237.02
11
      232.62
21
     -236.43
39
 0
62
 1
 0
LINE
8
default
6
CONTINUOUS
10
     -226.61
20
     -237.02
11
     -232.62
21
     -236.43
39
 0
62
 1
 0
LINE
8
default
6
CONTINUOUS
10
      232.62
20
     -236.43
11
      238.61
21
     -235.82
39
 0
62
 1
 0
LINE
8
default
6
CONTINUOUS
10
     -232.62
20
     -236.43
11
     -238.61
21
     -235.82
39
 0
62
 1
 0
LINE
8
default
6
CONTINUOUS
10
      238.61
20
     -235.82
11
      244.57
21
     -235.20
39
 0
62
 1
 0
LINE
8
default
6
CONTINUOUS
10
     -238.61
20
     -235.82
11
     -244.57
21
     -235.20
39
 0
62
 1
 0
LINE
8
default
6
CONTINUOUS
10
      244.57
20
     -235.20
11
      250.50
21
     -234.55
39
 0
62
 1
 0
LINE
8
default
6
CONTINUOUS
10
     -244.57
20
     -235.20
11
     -250.50
21
     -234.55
39
 0
62
 1
 0
LINE
8
default
6
CONTINUOUS
10
      250.50
20
     -234.55
11
      256.42
21
     -233.90
39
 0
62
 1
 0
LINE
8
default
6
CONTINUOUS
10
     -250.50
20
     -234.55
11
     -256.42
21
     -233.90
39
 0
62
 1
 0
LINE
8
default
6
CONTINUOUS
10
      256.42
20
     -233.90
11
      262.30
21
     -233.22
39
 0
62
 1
 0
LINE
8
default
6
CONTINUOUS
10
     -256.42
20
     -233.90
11
     -262.30
21
     -233.22
39
 0
62
 1
 0
LINE
8
default
6
CONTINUOUS
10
      262.30
20
     -233.22
11
      268.16
21
     -232.53
39
 0
62
 1
 0
LINE
8
default
6
CONTINUOUS
10
     -262.30
20
     -233.22
11
     -268.16
21
     -232.53
39
 0
62
 1
 0
LINE
8
default
6
CONTINUOUS
10
      268.16
20
     -232.53
11
      274.00
21
     -231.82
39
 0
62
 1
 0
LINE
8
default
6
CONTINUOUS
10
     -268.16
20
     -232.53
11
     -274.00
21
     -231.82
39
 0
62
 1
 0
LINE
8
default
6
CONTINUOUS
10
      274.00
20
     -231.82
11
      279.80
21
     -231.10
39
 0
62
 1
 0
LINE
8
default
6
CONTINUOUS
10
     -274.00
20
     -231.82
11
     -279.80
21
     -231.10
39
 0
62
 1
 0
LINE
8
default
6
CONTINUOUS
10
      279.80
20
     -231.10
11
      285.58
21
     -230.36
39
 0
62
 1
 0
LINE
8
default
6
CONTINUOUS
10
     -279.80
20
     -231.10
11
     -285.58
21
     -230.36
39
 0
62
 1
 0
LINE
8
default
6
CONTINUOUS
10
      285.58
20
     -230.36
11
      291.33
21
     -229.61
39
 0
62
 1
 0
LINE
8
default
6
CONTINUOUS
10
     -285.58
20
     -230.36
11
     -291.33
21
     -229.61
39
 0
62
 1
 0
LINE
8
default
6
CONTINUOUS
10
      291.33
20
     -229.61
11
      297.05
21
     -228.84
39
 0
62
 1
 0
LINE
8
default
6
CONTINUOUS
10
     -291.33
20
     -229.61
11
     -297.05
21
     -228.84
39
 0
62
 1
 0
LINE
8
default
6
CONTINUOUS
10
      297.05
20
     -228.84
11
      302.74
21
     -228.06
39
 0
62
 1
 0
LINE
8
default
6
CONTINUOUS
10
     -297.05
20
     -228.84
11
     -302.74
21
     -228.06
39
 0
62
 1
 0
LINE
8
default
6
CONTINUOUS
10
      302.74
20
     -228.06
11
      308.40
21
     -227.26
39
 0
62
 1
 0
LINE
8
default
6
CONTINUOUS
10
     -302.74
20
     -228.06
11
     -308.40
21
     -227.26
39
 0
62
 1
 0
LINE
8
default
6
CONTINUOUS
10
      308.40
20
     -227.26
11
      314.03
21
     -226.44
39
 0
62
 1
 0
LINE
8
default
6
CONTINUOUS
10
     -308.40
20
     -227.26
11
     -314.03
21
     -226.44
39
 0
62
 1
 0
LINE
8
default
6
CONTINUOUS
10
      314.03
20
     -226.44
11
      319.63
21
     -225.62
39
 0
62
 1
 0
LINE
8
default
6
CONTINUOUS
10
     -314.03
20
     -226.44
11
     -319.63
21
     -225.62
39
 0
62
 1
 0
LINE
8
default
6
CONTINUOUS
10
      319.63
20
     -225.62
11
      325.20
21
     -224.78
39
 0
62
 1
 0
LINE
8
default
6
CONTINUOUS
10
     -319.63
20
     -225.62
11
     -325.20
21
     -224.78
39
 0
62
 1
 0
LINE
8
default
6
CONTINUOUS
10
      325.20
20
     -224.78
11
      330.73
21
     -223.92
39
 0
62
 1
 0
LINE
8
default
6
CONTINUOUS
10
     -325.20
20
     -224.78
11
     -330.73
21
     -223.92
39
 0
62
 1
 0
LINE
8
default
6
CONTINUOUS
10
      330.73
20
     -223.92
11
      336.23
21
     -223.05
39
 0
62
 1
 0
LINE
8
default
6
CONTINUOUS
10
     -330.73
20
     -223.92
11
     -336.23
21
     -223.05
39
 0
62
 1
 0
LINE
8
default
6
CONTINUOUS
10
      336.23
20
     -223.05
11
      341.70
21
     -222.17
39
 0
62
 1
 0
LINE
8
default
6
CONTINUOUS
10
     -336.23
20
     -223.05
11
     -341.70
21
     -222.17
39
 0
62
 1
 0
LINE
8
default
6
CONTINUOUS
10
      341.70
20
     -222.17
11
      347.13
21
     -221.27
39
 0
62
 1
 0
LINE
8
default
6
CONTINUOUS
10
     -341.70
20
     -222.17
11
     -347.13
21
     -221.27
39
 0
62
 1
 0
LINE
8
default
6
CONTINUOUS
10
      347.13
20
     -221.27
11
      352.53
21
     -220.36
39
 0
62
 1
 0
LINE
8
default
6
CONTINUOUS
10
     -347.13
20
     -221.27
11
     -352.53
21
     -220.36
39
 0
62
 1
 0
LINE
8
default
6
CONTINUOUS
10
      352.53
20
     -220.36
11
      357.90
21
     -219.44
39
 0
62
 1
 0
LINE
8
default
6
CONTINUOUS
10
     -352.53
20
     -220.36
11
     -357.90
21
     -219.44
39
 0
62
 1
 0
LINE
8
default
6
CONTINUOUS
10
      357.90
20
     -219.44
11
      363.22
21
     -218.50
39
 0
62
 1
 0
LINE
8
default
6
CONTINUOUS
10
     -357.90
20
     -219.44
11
     -363.22
21
     -218.50
39
 0
62
 1
 0
LINE
8
default
6
CONTINUOUS
10
      363.22
20
     -218.50
11
      368.51
21
     -217.56
39
 0
62
 1
 0
LINE
8
default
6
CONTINUOUS
10
     -363.22
20
     -218.50
11
     -368.51
21
     -217.56
39
 0
62
 1
 0
LINE
8
default
6
CONTINUOUS
10
      368.51
20
     -217.56
11
      373.77
21
     -216.60
39
 0
62
 1
 0
LINE
8
default
6
CONTINUOUS
10
     -368.51
20
     -217.56
11
     -373.77
21
     -216.60
39
 0
62
 1
 0
LINE
8
default
6
CONTINUOUS
10
      373.77
20
     -216.60
11
      378.98
21
     -215.62
39
 0
62
 1
 0
LINE
8
default
6
CONTINUOUS
10
     -373.77
20
     -216.60
11
     -378.98
21
     -215.62
39
 0
62
 1
 0
LINE
8
default
6
CONTINUOUS
10
      378.98
20
     -215.62
11
      384.16
21
     -214.64
39
 0
62
 1
 0
LINE
8
default
6
CONTINUOUS
10
     -378.98
20
     -215.62
11
     -384.16
21
     -214.64
39
 0
62
 1
 0
LINE
8
default
6
CONTINUOUS
10
      384.16
20
     -214.64
11
      389.30
21
     -213.64
39
 0
62
 1
 0
LINE
8
default
6
CONTINUOUS
10
     -384.16
20
     -214.64
11
     -389.30
21
     -213.64
39
 0
62
 1
 0
LINE
8
default
6
CONTINUOUS
10
      389.30
20
     -213.64
11
      394.41
21
     -212.63
39
 0
62
 1
 0
LINE
8
default
6
CONTINUOUS
10
     -389.30
20
     -213.64
11
     -394.41
21
     -212.63
39
 0
62
 1
 0
LINE
8
default
6
CONTINUOUS
10
      394.41
20
     -212.63
11
      399.47
21
     -211.61
39
 0
62
 1
 0
LINE
8
default
6
CONTINUOUS
10
     -394.41
20
     -212.63
11
     -399.47
21
     -211.61
39
 0
62
 1
 0
LINE
8
default
6
CONTINUOUS
10
      399.47
20
     -211.61
11
      404.49
21
     -210.58
39
 0
62
 1
 0
LINE
8
default
6
CONTINUOUS
10
     -399.47
20
     -211.61
11
     -404.49
21
     -210.58
39
 0
62
 1
 0
LINE
8
default
6
CONTINUOUS
10
      404.49
20
     -210.58
11
      409.47
21
     -209.53
39
 0
62
 1
 0
LINE
8
default
6
CONTINUOUS
10
     -404.49
20
     -210.58
11
     -409.47
21
     -209.53
39
 0
62
 1
 0
LINE
8
default
6
CONTINUOUS
10
      409.47
20
     -209.53
11
      414.41
21
     -208.48
39
 0
62
 1
 0
LINE
8
default
6
CONTINUOUS
10
     -409.47
20
     -209.53
11
     -414.41
21
     -208.48
39
 0
62
 1
 0
LINE
8
default
6
CONTINUOUS
10
      414.41
20
     -208.48
11
      419.31
21
     -207.41
39
 0
62
 1
 0
LINE
8
default
6
CONTINUOUS
10
     -414.41
20
     -208.48
11
     -419.31
21
     -207.41
39
 0
62
 1
 0
LINE
8
default
6
CONTINUOUS
10
      419.31
20
     -207.41
11
      424.17
21
     -206.34
39
 0
62
 1
 0
LINE
8
default
6
CONTINUOUS
10
     -419.31
20
     -207.41
11
     -424.17
21
     -206.34
39
 0
62
 1
 0
LINE
8
default
6
CONTINUOUS
10
      424.17
20
     -206.34
11
      428.98
21
     -205.25
39
 0
62
 1
 0
LINE
8
default
6
CONTINUOUS
10
     -424.17
20
     -206.34
11
     -428.98
21
     -205.25
39
 0
62
 1
 0
LINE
8
default
6
CONTINUOUS
10
      428.98
20
     -205.25
11
      433.76
21
     -204.15
39
 0
62
 1
 0
LINE
8
default
6
CONTINUOUS
10
     -428.98
20
     -205.25
11
     -433.76
21
     -204.15
39
 0
62
 1
 0
LINE
8
default
6
CONTINUOUS
10
      433.76
20
     -204.15
11
      438.48
21
     -203.04
39
 0
62
 1
 0
LINE
8
default
6
CONTINUOUS
10
     -433.76
20
     -204.15
11
     -438.48
21
     -203.04
39
 0
62
 1
 0
LINE
8
default
6
CONTINUOUS
10
      438.48
20
     -203.04
11
      443.17
21
     -201.92
39
 0
62
 1
 0
LINE
8
default
6
CONTINUOUS
10
     -438.48
20
     -203.04
11
     -443.17
21
     -201.92
39
 0
62
 1
 0
LINE
8
default
6
CONTINUOUS
10
      443.17
20
     -201.92
11
      447.81
21
     -200.79
39
 0
62
 1
 0
LINE
8
default
6
CONTINUOUS
10
     -443.17
20
     -201.92
11
     -447.81
21
     -200.79
39
 0
62
 1
 0
LINE
8
default
6
CONTINUOUS
10
      447.81
20
     -200.79
11
      452.41
21
     -199.65
39
 0
62
 1
 0
LINE
8
default
6
CONTINUOUS
10
     -447.81
20
     -200.79
11
     -452.41
21
     -199.65
39
 0
62
 1
 0
LINE
8
default
6
CONTINUOUS
10
      452.41
20
     -199.65
11
      456.96
21
     -198.50
39
 0
62
 1
 0
LINE
8
default
6
CONTINUOUS
10
     -452.41
20
     -199.65
11
     -456.96
21
     -198.50
39
 0
62
 1
 0
LINE
8
default
6
CONTINUOUS
10
      456.96
20
     -198.50
11
      461.46
21
     -197.35
39
 0
62
 1
 0
LINE
8
default
6
CONTINUOUS
10
     -456.96
20
     -198.50
11
     -461.46
21
     -197.35
39
 0
62
 1
 0
LINE
8
default
6
CONTINUOUS
10
      461.46
20
     -197.35
11
      465.92
21
     -196.18
39
 0
62
 1
 0
LINE
8
default
6
CONTINUOUS
10
     -461.46
20
     -197.35
11
     -465.92
21
     -196.18
39
 0
62
 1
 0
LINE
8
default
6
CONTINUOUS
10
      465.92
20
     -196.18
11
      470.33
21
     -195.00
39
 0
62
 1
 0
LINE
8
default
6
CONTINUOUS
10
     -465.92
20
     -196.18
11
     -470.33
21
     -195.00
39
 0
62
 1
 0
LINE
8
default
6
CONTINUOUS
10
      470.33
20
     -195.00
11
      474.70
21
     -193.81
39
 0
62
 1
 0
LINE
8
default
6
CONTINUOUS
10
     -470.33
20
     -195.00
11
     -474.70
21
     -193.81
39
 0
62
 1
 0
LINE
8
default
6
CONTINUOUS
10
      474.70
20
     -193.81
11
      479.01
21
     -192.62
39
 0
62
 1
 0
LINE
8
default
6
CONTINUOUS
10
     -474.70
20
     -193.81
11
     -479.01
21
     -192.62
39
 0
62
 1
 0
LINE
8
default
6
CONTINUOUS
10
      479.01
20
     -192.62
11
      483.28
21
     -191.42
39
 0
62
 1
 0
LINE
8
default
6
CONTINUOUS
10
     -479.01
20
     -192.62
11
     -483.28
21
     -191.42
39
 0
62
 1
 0
LINE
8
default
6
CONTINUOUS
10
      483.28
20
     -191.42
11
      487.50
21
     -190.20
39
 0
62
 1
 0
LINE
8
default
6
CONTINUOUS
10
     -483.28
20
     -191.42
11
     -487.50
21
     -190.20
39
 0
62
 1
 0
LINE
8
default
6
CONTINUOUS
10
      487.50
20
     -190.20
11
      491.68
21
     -188.98
39
 0
62
 1
 0
LINE
8
default
6
CONTINUOUS
10
     -487.50
20
     -190.20
11
     -491.68
21
     -188.98
39
 0
62
 1
 0
LINE
8
default
6
CONTINUOUS
10
      491.68
20
     -188.98
11
      495.80
21
     -187.75
39
 0
62
 1
 0
LINE
8
default
6
CONTINUOUS
10
     -491.68
20
     -188.98
11
     -495.80
21
     -187.75
39
 0
62
 1
 0
LINE
8
default
6
CONTINUOUS
10
      495.80
20
     -187.75
11
      499.87
21
     -186.52
39
 0
62
 1
 0
LINE
8
default
6
CONTINUOUS
10
     -495.80
20
     -187.75
11
     -499.87
21
     -186.52
39
 0
62
 1
 0
LINE
8
default
6
CONTINUOUS
10
      499.87
20
     -186.52
11
      503.90
21
     -185.27
39
 0
62
 1
 0
LINE
8
default
6
CONTINUOUS
10
     -499.87
20
     -186.52
11
     -503.90
21
     -185.27
39
 0
62
 1
 0
LINE
8
default
6
CONTINUOUS
10
      503.90
20
     -185.27
11
      507.87
21
     -184.02
39
 0
62
 1
 0
LINE
8
default
6
CONTINUOUS
10
     -503.90
20
     -185.27
11
     -507.87
21
     -184.02
39
 0
62
 1
 0
LINE
8
default
6
CONTINUOUS
10
      507.87
20
     -184.02
11
      511.79
21
     -182.76
39
 0
62
 1
 0
LINE
8
default
6
CONTINUOUS
10
     -507.87
20
     -184.02
11
     -511.79
21
     -182.76
39
 0
62
 1
 0
LINE
8
default
6
CONTINUOUS
10
      511.79
20
     -182.76
11
      515.67
21
     -181.49
39
 0
62
 1
 0
LINE
8
default
6
CONTINUOUS
10
     -511.79
20
     -182.76
11
     -515.67
21
     -181.49
39
 0
62
 1
 0
LINE
8
default
6
CONTINUOUS
10
      515.67
20
     -181.49
11
      519.49
21
     -180.21
39
 0
62
 1
 0
LINE
8
default
6
CONTINUOUS
10
     -515.67
20
     -181.49
11
     -519.49
21
     -180.21
39
 0
62
 1
 0
LINE
8
default
6
CONTINUOUS
10
      519.49
20
     -180.21
11
      523.25
21
     -178.93
39
 0
62
 1
 0
LINE
8
default
6
CONTINUOUS
10
     -519.49
20
     -180.21
11
     -523.25
21
     -178.93
39
 0
62
 1
 0
LINE
8
default
6
CONTINUOUS
10
      523.25
20
     -178.93
11
      526.97
21
     -177.64
39
 0
62
 1
 0
LINE
8
default
6
CONTINUOUS
10
     -523.25
20
     -178.93
11
     -526.97
21
     -177.64
39
 0
62
 1
 0
LINE
8
default
6
CONTINUOUS
10
      526.97
20
     -177.64
11
      527.00
21
     -177.63
39
 0
62
 1
 0
LINE
8
default
6
CONTINUOUS
10
     -526.97
20
     -177.64
11
     -527.00
21
     -177.63
39
 0
62
 1
 0
LINE
8
default
6
CONTINUOUS
10
      527.00
20
     -123.24
11
      527.00
21
     -177.63
39
 0
62
 1
 0
LINE
8
default
6
CONTINUOUS
10
     -527.00
20
     -123.24
11
     -527.00
21
     -177.63
39
 0
62
 1
 0
LINE
8
default
6
CONTINUOUS
10
        0.00
20
      621.11
11
        1.70
21
      621.11
39
 0
62
 3
 0
LINE
8
default
6
CONTINUOUS
10
        0.00
20
      621.11
11
       -1.70
21
      621.11
39
 0
62
 1
 0
LINE
8
default
6
CONTINUOUS
10
        1.70
20
      621.11
11
        3.40
21
      621.11
39
 0
62
 3
 0
LINE
8
default
6
CONTINUOUS
10
       -1.70
20
      621.11
11
       -3.40
21
      621.11
39
 0
62
 1
 0
LINE
8
default
6
CONTINUOUS
10
        3.40
20
      621.11
11
        5.10
21
      621.10
39
 0
62
 3
 0
LINE
8
default
6
CONTINUOUS
10
       -3.40
20
      621.11
11
       -5.10
21
      621.10
39
 0
62
 1
 0
LINE
8
default
6
CONTINUOUS
10
        5.10
20
      621.10
11
        6.80
21
      621.09
39
 0
62
 3
 0
LINE
8
default
6
CONTINUOUS
10
       -5.10
20
      621.10
11
       -6.80
21
      621.09
39
 0
62
 1
 0
LINE
8
default
6
CONTINUOUS
10
        6.80
20
      621.09
11
        8.50
21
      621.07
39
 0
62
 3
 0
LINE
8
default
6
CONTINUOUS
10
       -6.80
20
      621.09
11
       -8.50
21
      621.07
39
 0
62
 1
 0
LINE
8
default
6
CONTINUOUS
10
        8.50
20
      621.07
11
       10.21
21
      621.06
39
 0
62
 3
 0
LINE
8
default
6
CONTINUOUS
10
       -8.50
20
      621.07
11
      -10.21
21
      621.06
39
 0
62
 1
 0
LINE
8
default
6
CONTINUOUS
10
       10.21
20
      621.06
11
       11.91
21
      621.04
39
 0
62
 3
 0
LINE
8
default
6
CONTINUOUS
10
      -10.21
20
      621.06
11
      -11.91
21
      621.04
39
 0
62
 1
 0
LINE
8
default
6
CONTINUOUS
10
       11.91
20
      621.04
11
       13.61
21
      621.01
39
 0
62
 3
 0
LINE
8
default
6
CONTINUOUS
10
      -11.91
20
      621.04
11
      -13.61
21
      621.01
39
 0
62
 1
 0
LINE
8
default
6
CONTINUOUS
10
       13.61
20
      621.01
11
       15.31
21
      620.99
39
 0
62
 3
 0
LINE
8
default
6
CONTINUOUS
10
      -13.61
20
      621.01
11
      -15.31
21
      620.99
39
 0
62
 1
 0
LINE
8
default
6
CONTINUOUS
10
       15.31
20
      620.99
11
       17.01
21
      620.96
39
 0
62
 3
 0
LINE
8
default
6
CONTINUOUS
10
      -15.31
20
      620.99
11
      -17.01
21
      620.96
39
 0
62
 1
 0
LINE
8
default
6
CONTINUOUS
10
       17.01
20
      620.96
11
       18.71
21
      620.93
39
 0
62
 3
 0
LINE
8
default
6
CONTINUOUS
10
      -17.01
20
      620.96
11
      -18.71
21
      620.93
39
 0
62
 1
 0
LINE
8
default
6
CONTINUOUS
10
       18.71
20
      620.93
11
       20.41
21
      620.89
39
 0
62
 3
 0
LINE
8
default
6
CONTINUOUS
10
      -18.71
20
      620.93
11
      -20.41
21
      620.89
39
 0
62
 1
 0
LINE
8
default
6
CONTINUOUS
10
       20.41
20
      620.89
11
       22.11
21
      620.86
39
 0
62
 3
 0
LINE
8
default
6
CONTINUOUS
10
      -20.41
20
      620.89
11
      -22.11
21
      620.86
39
 0
62
 1
 0
LINE
8
default
6
CONTINUOUS
10
       22.11
20
      620.86
11
       23.81
21
      620.81
39
 0
62
 3
 0
LINE
8
default
6
CONTINUOUS
10
      -22.11
20
      620.86
11
      -23.81
21
      620.81
39
 0
62
 1
 0
LINE
8
default
6
CONTINUOUS
10
       23.81
20
      620.81
11
       25.51
21
      620.77
39
 0
62
 3
 0
LINE
8
default
6
CONTINUOUS
10
      -23.81
20
      620.81
11
      -25.51
21
      620.77
39
 0
62
 1
 0
LINE
8
default
6
CONTINUOUS
10
       25.51
20
      620.77
11
       27.21
21
      620.72
39
 0
62
 3
 0
LINE
8
default
6
CONTINUOUS
10
      -25.51
20
      620.77
11
      -27.21
21
      620.72
39
 0
62
 1
 0
LINE
8
default
6
CONTINUOUS
10
       27.21
20
      620.72
11
       28.91
21
      620.67
39
 0
62
 3
 0
LINE
8
default
6
CONTINUOUS
10
      -27.21
20
      620.72
11
      -28.91
21
      620.67
39
 0
62
 1
 0
LINE
8
default
6
CONTINUOUS
10
       28.91
20
      620.67
11
       30.61
21
      620.62
39
 0
62
 3
 0
LINE
8
default
6
CONTINUOUS
10
      -28.91
20
      620.67
11
      -30.61
21
      620.62
39
 0
62
 1
 0
LINE
8
default
6
CONTINUOUS
10
       30.61
20
      620.62
11
       32.31
21
      620.56
39
 0
62
 3
 0
LINE
8
default
6
CONTINUOUS
10
      -30.61
20
      620.62
11
      -32.31
21
      620.56
39
 0
62
 1
 0
LINE
8
default
6
CONTINUOUS
10
       32.31
20
      620.56
11
       34.01
21
      620.50
39
 0
62
 3
 0
LINE
8
default
6
CONTINUOUS
10
      -32.31
20
      620.56
11
      -34.01
21
      620.50
39
 0
62
 1
 0
LINE
8
default
6
CONTINUOUS
10
       34.01
20
      620.50
11
       35.71
21
      620.44
39
 0
62
 3
 0
LINE
8
default
6
CONTINUOUS
10
      -34.01
20
      620.50
11
      -35.71
21
      620.44
39
 0
62
 1
 0
LINE
8
default
6
CONTINUOUS
10
       35.71
20
      620.44
11
       37.41
21
      620.38
39
 0
62
 3
 0
LINE
8
default
6
CONTINUOUS
10
      -35.71
20
      620.44
11
      -37.41
21
      620.38
39
 0
62
 1
 0
LINE
8
default
6
CONTINUOUS
10
       37.41
20
      620.38
11
       39.11
21
      620.31
39
 0
62
 3
 0
LINE
8
default
6
CONTINUOUS
10
      -37.41
20
      620.38
11
      -39.11
21
      620.31
39
 0
62
 1
 0
LINE
8
default
6
CONTINUOUS
10
       39.11
20
      620.31
11
       40.81
21
      620.24
39
 0
62
 3
 0
LINE
8
default
6
CONTINUOUS
10
      -39.11
20
      620.31
11
      -40.81
21
      620.24
39
 0
62
 1
 0
LINE
8
default
6
CONTINUOUS
10
       40.81
20
      620.24
11
       42.51
21
      620.16
39
 0
62
 3
 0
LINE
8
default
6
CONTINUOUS
10
      -40.81
20
      620.24
11
      -42.51
21
      620.16
39
 0
62
 1
 0
LINE
8
default
6
CONTINUOUS
10
       42.51
20
      620.16
11
       44.21
21
      620.09
39
 0
62
 3
 0
LINE
8
default
6
CONTINUOUS
10
      -42.51
20
      620.16
11
      -44.21
21
      620.09
39
 0
62
 1
 0
LINE
8
default
6
CONTINUOUS
10
       44.21
20
      620.09
11
       45.91
21
      620.00
39
 0
62
 3
 0
LINE
8
default
6
CONTINUOUS
10
      -44.21
20
      620.09
11
      -45.91
21
      620.00
39
 0
62
 1
 0
LINE
8
default
6
CONTINUOUS
10
       45.91
20
      620.00
11
       47.61
21
      619.92
39
 0
62
 3
 0
LINE
8
default
6
CONTINUOUS
10
      -45.91
20
      620.00
11
      -47.61
21
      619.92
39
 0
62
 1
 0
LINE
8
default
6
CONTINUOUS
10
       47.61
20
      619.92
11
       49.31
21
      619.83
39
 0
62
 3
 0
LINE
8
default
6
CONTINUOUS
10
      -47.61
20
      619.92
11
      -49.31
21
      619.83
39
 0
62
 1
 0
LINE
8
default
6
CONTINUOUS
10
       49.31
20
      619.83
11
       51.01
21
      619.75
39
 0
62
 3
 0
LINE
8
default
6
CONTINUOUS
10
      -49.31
20
      619.83
11
      -51.01
21
      619.75
39
 0
62
 1
 0
LINE
8
default
6
CONTINUOUS
10
       51.01
20
      619.75
11
       52.70
21
      619.65
39
 0
62
 3
 0
LINE
8
default
6
CONTINUOUS
10
      -51.01
20
      619.75
11
      -52.70
21
      619.65
39
 0
62
 1
 0
LINE
8
default
6
CONTINUOUS
10
       52.70
20
      619.65
11
       54.40
21
      619.56
39
 0
62
 3
 0
LINE
8
default
6
CONTINUOUS
10
      -52.70
20
      619.65
11
      -54.40
21
      619.56
39
 0
62
 1
 0
LINE
8
default
6
CONTINUOUS
10
       54.40
20
      619.56
11
       56.10
21
      619.46
39
 0
62
 3
 0
LINE
8
default
6
CONTINUOUS
10
      -54.40
20
      619.56
11
      -56.10
21
      619.46
39
 0
62
 1
 0
LINE
8
default
6
CONTINUOUS
10
       56.10
20
      619.46
11
       57.80
21
      619.36
39
 0
62
 3
 0
LINE
8
default
6
CONTINUOUS
10
      -56.10
20
      619.46
11
      -57.80
21
      619.36
39
 0
62
 1
 0
LINE
8
default
6
CONTINUOUS
10
       57.80
20
      619.36
11
       59.50
21
      619.25
39
 0
62
 3
 0
LINE
8
default
6
CONTINUOUS
10
      -57.80
20
      619.36
11
      -59.50
21
      619.25
39
 0
62
 1
 0
LINE
8
default
6
CONTINUOUS
10
       59.50
20
      619.25
11
       61.19
21
      619.14
39
 0
62
 3
 0
LINE
8
default
6
CONTINUOUS
10
      -59.50
20
      619.25
11
      -61.19
21
      619.14
39
 0
62
 1
 0
LINE
8
default
6
CONTINUOUS
10
       61.19
20
      619.14
11
       62.89
21
      619.03
39
 0
62
 3
 0
LINE
8
default
6
CONTINUOUS
10
      -61.19
20
      619.14
11
      -62.89
21
      619.03
39
 0
62
 1
 0
LINE
8
default
6
CONTINUOUS
10
       62.89
20
      619.03
11
       64.59
21
      618.92
39
 0
62
 3
 0
LINE
8
default
6
CONTINUOUS
10
      -62.89
20
      619.03
11
      -64.59
21
      618.92
39
 0
62
 1
 0
LINE
8
default
6
CONTINUOUS
10
       64.59
20
      618.92
11
       66.28
21
      618.80
39
 0
62
 3
 0
LINE
8
default
6
CONTINUOUS
10
      -64.59
20
      618.92
11
      -66.28
21
      618.80
39
 0
62
 1
 0
LINE
8
default
6
CONTINUOUS
10
       66.28
20
      618.80
11
       67.98
21
      618.68
39
 0
62
 3
 0
LINE
8
default
6
CONTINUOUS
10
      -66.28
20
      618.80
11
      -67.98
21
      618.68
39
 0
62
 1
 0
LINE
8
default
6
CONTINUOUS
10
       67.98
20
      618.68
11
       69.68
21
      618.56
39
 0
62
 3
 0
LINE
8
default
6
CONTINUOUS
10
      -67.98
20
      618.68
11
      -69.68
21
      618.56
39
 0
62
 1
 0
LINE
8
default
6
CONTINUOUS
10
       69.68
20
      618.56
11
       71.37
21
      618.43
39
 0
62
 3
 0
LINE
8
default
6
CONTINUOUS
10
      -69.68
20
      618.56
11
      -71.37
21
      618.43
39
 0
62
 1
 0
LINE
8
default
6
CONTINUOUS
10
       71.37
20
      618.43
11
       73.07
21
      618.30
39
 0
62
 3
 0
LINE
8
default
6
CONTINUOUS
10
      -71.37
20
      618.43
11
      -73.07
21
      618.30
39
 0
62
 1
 0
LINE
8
default
6
CONTINUOUS
10
       73.07
20
      618.30
11
       74.77
21
      618.17
39
 0
62
 3
 0
LINE
8
default
6
CONTINUOUS
10
      -73.07
20
      618.30
11
      -74.77
21
      618.17
39
 0
62
 1
 0
LINE
8
default
6
CONTINUOUS
10
       74.77
20
      618.17
11
       76.46
21
      618.04
39
 0
62
 3
 0
LINE
8
default
6
CONTINUOUS
10
      -74.77
20
      618.17
11
      -76.46
21
      618.04
39
 0
62
 1
 0
LINE
8
default
6
CONTINUOUS
10
       76.46
20
      618.04
11
       78.16
21
      617.90
39
 0
62
 3
 0
LINE
8
default
6
CONTINUOUS
10
      -76.46
20
      618.04
11
      -78.16
21
      617.90
39
 0
62
 1
 0
LINE
8
default
6
CONTINUOUS
10
       78.16
20
      617.90
11
       79.85
21
      617.76
39
 0
62
 3
 0
LINE
8
default
6
CONTINUOUS
10
      -78.16
20
      617.90
11
      -79.85
21
      617.76
39
 0
62
 1
 0
LINE
8
default
6
CONTINUOUS
10
       79.85
20
      617.76
11
       81.55
21
      617.61
39
 0
62
 3
 0
LINE
8
default
6
CONTINUOUS
10
      -79.85
20
      617.76
11
      -81.55
21
      617.61
39
 0
62
 1
 0
LINE
8
default
6
CONTINUOUS
10
       81.55
20
      617.61
11
       83.24
21
      617.47
39
 0
62
 3
 0
LINE
8
default
6
CONTINUOUS
10
      -81.55
20
      617.61
11
      -83.24
21
      617.47
39
 0
62
 1
 0
LINE
8
default
6
CONTINUOUS
10
       83.24
20
      617.47
11
       84.94
21
      617.32
39
 0
62
 3
 0
LINE
8
default
6
CONTINUOUS
10
      -83.24
20
      617.47
11
      -84.94
21
      617.32
39
 0
62
 1
 0
LINE
8
default
6
CONTINUOUS
10
       84.94
20
      617.32
11
       86.63
21
      617.16
39
 0
62
 3
 0
LINE
8
default
6
CONTINUOUS
10
      -84.94
20
      617.32
11
      -86.63
21
      617.16
39
 0
62
 1
 0
LINE
8
default
6
CONTINUOUS
10
       86.63
20
      617.16
11
       88.32
21
      617.01
39
 0
62
 3
 0
LINE
8
default
6
CONTINUOUS
10
      -86.63
20
      617.16
11
      -88.32
21
      617.01
39
 0
62
 1
 0
LINE
8
default
6
CONTINUOUS
10
       88.32
20
      617.01
11
       90.02
21
      616.85
39
 0
62
 3
 0
LINE
8
default
6
CONTINUOUS
10
      -88.32
20
      617.01
11
      -90.02
21
      616.85
39
 0
62
 1
 0
LINE
8
default
6
CONTINUOUS
10
       90.02
20
      616.85
11
       91.71
21
      616.69
39
 0
62
 3
 0
LINE
8
default
6
CONTINUOUS
10
      -90.02
20
      616.85
11
      -91.71
21
      616.69
39
 0
62
 1
 0
LINE
8
default
6
CONTINUOUS
10
       91.71
20
      616.69
11
       93.40
21
      616.52
39
 0
62
 3
 0
LINE
8
default
6
CONTINUOUS
10
      -91.71
20
      616.69
11
      -93.40
21
      616.52
39
 0
62
 1
 0
LINE
8
default
6
CONTINUOUS
10
       93.40
20
      616.52
11
       95.10
21
      616.35
39
 0
62
 3
 0
LINE
8
default
6
CONTINUOUS
10
      -93.40
20
      616.52
11
      -95.10
21
      616.35
39
 0
62
 1
 0
LINE
8
default
6
CONTINUOUS
10
       95.10
20
      616.35
11
       96.79
21
      616.18
39
 0
62
 3
 0
LINE
8
default
6
CONTINUOUS
10
      -95.10
20
      616.35
11
      -96.79
21
      616.18
39
 0
62
 1
 0
LINE
8
default
6
CONTINUOUS
10
       96.79
20
      616.18
11
       98.48
21
      616.01
39
 0
62
 3
 0
LINE
8
default
6
CONTINUOUS
10
      -96.79
20
      616.18
11
      -98.48
21
      616.01
39
 0
62
 1
 0
LINE
8
default
6
CONTINUOUS
10
       98.48
20
      616.01
11
      100.17
21
      615.83
39
 0
62
 3
 0
LINE
8
default
6
CONTINUOUS
10
      -98.48
20
      616.01
11
     -100.17
21
      615.83
39
 0
62
 1
 0
LINE
8
default
6
CONTINUOUS
10
      100.17
20
      615.83
11
      101.86
21
      615.65
39
 0
62
 3
 0
LINE
8
default
6
CONTINUOUS
10
     -100.17
20
      615.83
11
     -101.86
21
      615.65
39
 0
62
 1
 0
LINE
8
default
6
CONTINUOUS
10
      101.86
20
      615.65
11
      103.55
21
      615.47
39
 0
62
 3
 0
LINE
8
default
6
CONTINUOUS
10
     -101.86
20
      615.65
11
     -103.55
21
      615.47
39
 0
62
 1
 0
LINE
8
default
6
CONTINUOUS
10
      103.55
20
      615.47
11
      105.25
21
      615.28
39
 0
62
 3
 0
LINE
8
default
6
CONTINUOUS
10
     -103.55
20
      615.47
11
     -105.25
21
      615.28
39
 0
62
 1
 0
LINE
8
default
6
CONTINUOUS
10
      105.25
20
      615.28
11
      106.94
21
      615.09
39
 0
62
 3
 0
LINE
8
default
6
CONTINUOUS
10
     -105.25
20
      615.28
11
     -106.94
21
      615.09
39
 0
62
 1
 0
LINE
8
default
6
CONTINUOUS
10
      106.94
20
      615.09
11
      108.63
21
      614.90
39
 0
62
 3
 0
LINE
8
default
6
CONTINUOUS
10
     -106.94
20
      615.09
11
     -108.63
21
      614.90
39
 0
62
 1
 0
LINE
8
default
6
CONTINUOUS
10
      108.63
20
      614.90
11
      110.32
21
      614.70
39
 0
62
 3
 0
LINE
8
default
6
CONTINUOUS
10
     -108.63
20
      614.90
11
     -110.32
21
      614.70
39
 0
62
 1
 0
LINE
8
default
6
CONTINUOUS
10
      110.32
20
      614.70
11
      112.01
21
      614.50
39
 0
62
 3
 0
LINE
8
default
6
CONTINUOUS
10
     -110.32
20
      614.70
11
     -112.01
21
      614.50
39
 0
62
 1
 0
LINE
8
default
6
CONTINUOUS
10
      112.01
20
      614.50
11
      113.69
21
      614.30
39
 0
62
 3
 0
LINE
8
default
6
CONTINUOUS
10
     -112.01
20
      614.50
11
     -113.69
21
      614.30
39
 0
62
 1
 0
LINE
8
default
6
CONTINUOUS
10
      113.69
20
      614.30
11
      115.38
21
      614.10
39
 0
62
 3
 0
LINE
8
default
6
CONTINUOUS
10
     -113.69
20
      614.30
11
     -115.38
21
      614.10
39
 0
62
 1
 0
LINE
8
default
6
CONTINUOUS
10
      115.38
20
      614.10
11
      117.07
21
      613.89
39
 0
62
 3
 0
LINE
8
default
6
CONTINUOUS
10
     -115.38
20
      614.10
11
     -117.07
21
      613.89
39
 0
62
 1
 0
LINE
8
default
6
CONTINUOUS
10
      117.07
20
      613.89
11
      118.76
21
      613.68
39
 0
62
 3
 0
LINE
8
default
6
CONTINUOUS
10
     -117.07
20
      613.89
11
     -118.76
21
      613.68
39
 0
62
 1
 0
LINE
8
default
6
CONTINUOUS
10
      118.76
20
      613.68
11
      120.45
21
      613.47
39
 0
62
 3
 0
LINE
8
default
6
CONTINUOUS
10
     -118.76
20
      613.68
11
     -120.45
21
      613.47
39
 0
62
 1
 0
LINE
8
default
6
CONTINUOUS
10
      120.45
20
      613.47
11
      122.13
21
      613.25
39
 0
62
 3
 0
LINE
8
default
6
CONTINUOUS
10
     -120.45
20
      613.47
11
     -122.13
21
      613.25
39
 0
62
 1
 0
LINE
8
default
6
CONTINUOUS
10
      122.13
20
      613.25
11
      123.82
21
      613.03
39
 0
62
 3
 0
LINE
8
default
6
CONTINUOUS
10
     -122.13
20
      613.25
11
     -123.82
21
      613.03
39
 0
62
 1
 0
LINE
8
default
6
CONTINUOUS
10
      123.82
20
      613.03
11
      125.51
21
      612.81
39
 0
62
 3
 0
LINE
8
default
6
CONTINUOUS
10
     -123.82
20
      613.03
11
     -125.51
21
      612.81
39
 0
62
 1
 0
LINE
8
default
6
CONTINUOUS
10
      125.51
20
      612.81
11
      127.19
21
      612.58
39
 0
62
 3
 0
LINE
8
default
6
CONTINUOUS
10
     -125.51
20
      612.81
11
     -127.19
21
      612.58
39
 0
62
 1
 0
LINE
8
default
6
CONTINUOUS
10
      127.19
20
      612.58
11
      128.88
21
      612.35
39
 0
62
 3
 0
LINE
8
default
6
CONTINUOUS
10
     -127.19
20
      612.58
11
     -128.88
21
      612.35
39
 0
62
 1
 0
LINE
8
default
6
CONTINUOUS
10
      128.88
20
      612.35
11
      130.56
21
      612.12
39
 0
62
 3
 0
LINE
8
default
6
CONTINUOUS
10
     -128.88
20
      612.35
11
     -130.56
21
      612.12
39
 0
62
 1
 0
LINE
8
default
6
CONTINUOUS
10
      130.56
20
      612.12
11
      132.25
21
      611.89
39
 0
62
 3
 0
LINE
8
default
6
CONTINUOUS
10
     -130.56
20
      612.12
11
     -132.25
21
      611.89
39
 0
62
 1
 0
LINE
8
default
6
CONTINUOUS
10
      132.25
20
      611.89
11
      133.93
21
      611.65
39
 0
62
 3
 0
LINE
8
default
6
CONTINUOUS
10
     -132.25
20
      611.89
11
     -133.93
21
      611.65
39
 0
62
 1
 0
LINE
8
default
6
CONTINUOUS
10
      133.93
20
      611.65
11
      135.62
21
      611.41
39
 0
62
 3
 0
LINE
8
default
6
CONTINUOUS
10
     -133.93
20
      611.65
11
     -135.62
21
      611.41
39
 0
62
 1
 0
LINE
8
default
6
CONTINUOUS
10
      135.62
20
      611.41
11
      137.30
21
      611.16
39
 0
62
 3
 0
LINE
8
default
6
CONTINUOUS
10
     -135.62
20
      611.41
11
     -137.30
21
      611.16
39
 0
62
 1
 0
LINE
8
default
6
CONTINUOUS
10
      137.30
20
      611.16
11
      138.98
21
      610.92
39
 0
62
 3
 0
LINE
8
default
6
CONTINUOUS
10
     -137.30
20
      611.16
11
     -138.98
21
      610.92
39
 0
62
 1
 0
LINE
8
default
6
CONTINUOUS
10
      138.98
20
      610.92
11
      140.67
21
      610.67
39
 0
62
 3
 0
LINE
8
default
6
CONTINUOUS
10
     -138.98
20
      610.92
11
     -140.67
21
      610.67
39
 0
62
 1
 0
LINE
8
default
6
CONTINUOUS
10
      140.67
20
      610.67
11
      142.35
21
      610.41
39
 0
62
 3
 0
LINE
8
default
6
CONTINUOUS
10
     -140.67
20
      610.67
11
     -142.35
21
      610.41
39
 0
62
 1
 0
LINE
8
default
6
CONTINUOUS
10
      142.35
20
      610.41
11
      144.03
21
      610.16
39
 0
62
 3
 0
LINE
8
default
6
CONTINUOUS
10
     -142.35
20
      610.41
11
     -144.03
21
      610.16
39
 0
62
 1
 0
LINE
8
default
6
CONTINUOUS
10
      144.03
20
      610.16
11
      145.71
21
      609.90
39
 0
62
 3
 0
LINE
8
default
6
CONTINUOUS
10
     -144.03
20
      610.16
11
     -145.71
21
      609.90
39
 0
62
 1
 0
LINE
8
default
6
CONTINUOUS
10
      145.71
20
      609.90
11
      147.39
21
      609.64
39
 0
62
 3
 0
LINE
8
default
6
CONTINUOUS
10
     -145.71
20
      609.90
11
     -147.39
21
      609.64
39
 0
62
 1
 0
LINE
8
default
6
CONTINUOUS
10
      147.39
20
      609.64
11
      149.07
21
      609.37
39
 0
62
 3
 0
LINE
8
default
6
CONTINUOUS
10
     -147.39
20
      609.64
11
     -149.07
21
      609.37
39
 0
62
 1
 0
LINE
8
default
6
CONTINUOUS
10
      149.07
20
      609.37
11
      150.75
21
      609.11
39
 0
62
 3
 0
LINE
8
default
6
CONTINUOUS
10
     -149.07
20
      609.37
11
     -150.75
21
      609.11
39
 0
62
 1
 0
LINE
8
default
6
CONTINUOUS
10
      150.75
20
      609.11
11
      152.43
21
      608.84
39
 0
62
 3
 0
LINE
8
default
6
CONTINUOUS
10
     -150.75
20
      609.11
11
     -152.43
21
      608.84
39
 0
62
 1
 0
LINE
8
default
6
CONTINUOUS
10
      152.43
20
      608.84
11
      154.11
21
      608.56
39
 0
62
 3
 0
LINE
8
default
6
CONTINUOUS
10
     -152.43
20
      608.84
11
     -154.11
21
      608.56
39
 0
62
 1
 0
LINE
8
default
6
CONTINUOUS
10
      154.11
20
      608.56
11
      155.79
21
      608.28
39
 0
62
 3
 0
LINE
8
default
6
CONTINUOUS
10
     -154.11
20
      608.56
11
     -155.79
21
      608.28
39
 0
62
 1
 0
LINE
8
default
6
CONTINUOUS
10
      155.79
20
      608.28
11
      157.47
21
      608.01
39
 0
62
 3
 0
LINE
8
default
6
CONTINUOUS
10
     -155.79
20
      608.28
11
     -157.47
21
      608.01
39
 0
62
 1
 0
LINE
8
default
6
CONTINUOUS
10
      157.47
20
      608.01
11
      159.14
21
      607.72
39
 0
62
 3
 0
LINE
8
default
6
CONTINUOUS
10
     -157.47
20
      608.01
11
     -159.14
21
      607.72
39
 0
62
 1
 0
LINE
8
default
6
CONTINUOUS
10
      159.14
20
      607.72
11
      160.82
21
      607.44
39
 0
62
 3
 0
LINE
8
default
6
CONTINUOUS
10
     -159.14
20
      607.72
11
     -160.82
21
      607.44
39
 0
62
 1
 0
LINE
8
default
6
CONTINUOUS
10
      160.82
20
      607.44
11
      162.50
21
      607.15
39
 0
62
 3
 0
LINE
8
default
6
CONTINUOUS
10
     -160.82
20
      607.44
11
     -162.50
21
      607.15
39
 0
62
 1
 0
LINE
8
default
6
CONTINUOUS
10
      162.50
20
      607.15
11
      164.17
21
      606.86
39
 0
62
 3
 0
LINE
8
default
6
CONTINUOUS
10
     -162.50
20
      607.15
11
     -164.17
21
      606.86
39
 0
62
 1
 0
LINE
8
default
6
CONTINUOUS
10
      164.17
20
      606.86
11
      165.85
21
      606.56
39
 0
62
 3
 0
LINE
8
default
6
CONTINUOUS
10
     -164.17
20
      606.86
11
     -165.85
21
      606.56
39
 0
62
 1
 0
LINE
8
default
6
CONTINUOUS
10
      165.85
20
      606.56
11
      167.52
21
      606.26
39
 0
62
 3
 0
LINE
8
default
6
CONTINUOUS
10
     -165.85
20
      606.56
11
     -167.52
21
      606.26
39
 0
62
 1
 0
LINE
8
default
6
CONTINUOUS
10
      167.52
20
      606.26
11
      168.58
21
      606.07
39
 0
62
 3
 0
LINE
8
default
6
CONTINUOUS
10
     -167.52
20
      606.26
11
     -168.58
21
      606.07
39
 0
62
 1
 0
LINE
8
default
6
CONTINUOUS
10
      168.58
20
      606.07
11
      169.63
21
      605.88
39
 0
62
 3
 0
LINE
8
default
6
CONTINUOUS
10
     -168.58
20
      606.07
11
     -169.63
21
      605.88
39
 0
62
 1
 0
LINE
8
default
6
CONTINUOUS
10
      169.63
20
      605.88
11
      170.68
21
      605.69
39
 0
62
 3
 0
LINE
8
default
6
CONTINUOUS
10
     -169.63
20
      605.88
11
     -170.68
21
      605.69
39
 0
62
 1
 0
LINE
8
default
6
CONTINUOUS
10
      170.68
20
      605.69
11
      171.74
21
      605.49
39
 0
62
 3
 0
LINE
8
default
6
CONTINUOUS
10
     -170.68
20
      605.69
11
     -171.74
21
      605.49
39
 0
62
 1
 0
LINE
8
default
6
CONTINUOUS
10
      171.74
20
      605.49
11
      172.79
21
      605.29
39
 0
62
 3
 0
LINE
8
default
6
CONTINUOUS
10
     -171.74
20
      605.49
11
     -172.79
21
      605.29
39
 0
62
 1
 0
LINE
8
default
6
CONTINUOUS
10
      172.79
20
      605.29
11
      173.84
21
      605.09
39
 0
62
 3
 0
LINE
8
default
6
CONTINUOUS
10
     -172.79
20
      605.29
11
     -173.84
21
      605.09
39
 0
62
 1
 0
LINE
8
default
6
CONTINUOUS
10
      173.84
20
      605.09
11
      174.90
21
      604.89
39
 0
62
 3
 0
LINE
8
default
6
CONTINUOUS
10
     -173.84
20
      605.09
11
     -174.90
21
      604.89
39
 0
62
 1
 0
LINE
8
default
6
CONTINUOUS
10
      174.90
20
      604.89
11
      175.95
21
      604.68
39
 0
62
 3
 0
LINE
8
default
6
CONTINUOUS
10
     -174.90
20
      604.89
11
     -175.95
21
      604.68
39
 0
62
 1
 0
LINE
8
default
6
CONTINUOUS
10
      175.95
20
      604.68
11
      177.00
21
      604.47
39
 0
62
 3
 0
LINE
8
default
6
CONTINUOUS
10
     -175.95
20
      604.68
11
     -177.00
21
      604.47
39
 0
62
 1
 0
LINE
8
default
6
CONTINUOUS
10
      177.00
20
      604.47
11
      178.05
21
      604.26
39
 0
62
 3
 0
LINE
8
default
6
CONTINUOUS
10
     -177.00
20
      604.47
11
     -178.05
21
      604.26
39
 0
62
 1
 0
LINE
8
default
6
CONTINUOUS
10
      178.05
20
      604.26
11
      179.10
21
      604.05
39
 0
62
 3
 0
LINE
8
default
6
CONTINUOUS
10
     -178.05
20
      604.26
11
     -179.10
21
      604.05
39
 0
62
 1
 0
LINE
8
default
6
CONTINUOUS
10
      179.10
20
      604.05
11
      180.15
21
      603.83
39
 0
62
 3
 0
LINE
8
default
6
CONTINUOUS
10
     -179.10
20
      604.05
11
     -180.15
21
      603.83
39
 0
62
 1
 0
LINE
8
default
6
CONTINUOUS
10
      180.15
20
      603.83
11
      181.20
21
      603.61
39
 0
62
 3
 0
LINE
8
default
6
CONTINUOUS
10
     -180.15
20
      603.83
11
     -181.20
21
      603.61
39
 0
62
 1
 0
LINE
8
default
6
CONTINUOUS
10
      181.20
20
      603.61
11
      182.25
21
      603.39
39
 0
62
 3
 0
LINE
8
default
6
CONTINUOUS
10
     -181.20
20
      603.61
11
     -182.25
21
      603.39
39
 0
62
 1
 0
LINE
8
default
6
CONTINUOUS
10
      182.25
20
      603.39
11
      183.30
21
      603.17
39
 0
62
 3
 0
LINE
8
default
6
CONTINUOUS
10
     -182.25
20
      603.39
11
     -183.30
21
      603.17
39
 0
62
 1
 0
LINE
8
default
6
CONTINUOUS
10
      183.30
20
      603.17
11
      184.34
21
      602.95
39
 0
62
 3
 0
LINE
8
default
6
CONTINUOUS
10
     -183.30
20
      603.17
11
     -184.34
21
      602.95
39
 0
62
 1
 0
LINE
8
default
6
CONTINUOUS
10
      184.34
20
      602.95
11
      185.39
21
      602.72
39
 0
62
 3
 0
LINE
8
default
6
CONTINUOUS
10
     -184.34
20
      602.95
11
     -185.39
21
      602.72
39
 0
62
 1
 0
LINE
8
default
6
CONTINUOUS
10
      185.39
20
      602.72
11
      186.44
21
      602.49
39
 0
62
 3
 0
LINE
8
default
6
CONTINUOUS
10
     -185.39
20
      602.72
11
     -186.44
21
      602.49
39
 0
62
 1
 0
LINE
8
default
6
CONTINUOUS
10
      186.44
20
      602.49
11
      187.49
21
      602.26
39
 0
62
 3
 0
LINE
8
default
6
CONTINUOUS
10
     -186.44
20
      602.49
11
     -187.49
21
      602.26
39
 0
62
 1
 0
LINE
8
default
6
CONTINUOUS
10
      187.49
20
      602.26
11
      188.53
21
      602.02
39
 0
62
 3
 0
LINE
8
default
6
CONTINUOUS
10
     -187.49
20
      602.26
11
     -188.53
21
      602.02
39
 0
62
 1
 0
LINE
8
default
6
CONTINUOUS
10
      188.53
20
      602.02
11
      189.58
21
      601.79
39
 0
62
 3
 0
LINE
8
default
6
CONTINUOUS
10
     -188.53
20
      602.02
11
     -189.58
21
      601.79
39
 0
62
 1
 0
LINE
8
default
6
CONTINUOUS
10
      189.58
20
      601.79
11
      190.62
21
      601.55
39
 0
62
 3
 0
LINE
8
default
6
CONTINUOUS
10
     -189.58
20
      601.79
11
     -190.62
21
      601.55
39
 0
62
 1
 0
LINE
8
default
6
CONTINUOUS
10
      190.62
20
      601.55
11
      191.67
21
      601.30
39
 0
62
 3
 0
LINE
8
default
6
CONTINUOUS
10
     -190.62
20
      601.55
11
     -191.67
21
      601.30
39
 0
62
 1
 0
LINE
8
default
6
CONTINUOUS
10
      191.67
20
      601.30
11
      192.71
21
      601.06
39
 0
62
 3
 0
LINE
8
default
6
CONTINUOUS
10
     -191.67
20
      601.30
11
     -192.71
21
      601.06
39
 0
62
 1
 0
LINE
8
default
6
CONTINUOUS
10
      192.71
20
      601.06
11
      193.75
21
      600.81
39
 0
62
 3
 0
LINE
8
default
6
CONTINUOUS
10
     -192.71
20
      601.06
11
     -193.75
21
      600.81
39
 0
62
 1
 0
LINE
8
default
6
CONTINUOUS
10
      193.75
20
      600.81
11
      194.80
21
      600.57
39
 0
62
 3
 0
LINE
8
default
6
CONTINUOUS
10
     -193.75
20
      600.81
11
     -194.80
21
      600.57
39
 0
62
 1
 0
LINE
8
default
6
CONTINUOUS
10
      194.80
20
      600.57
11
      195.84
21
      600.32
39
 0
62
 3
 0
LINE
8
default
6
CONTINUOUS
10
     -194.80
20
      600.57
11
     -195.84
21
      600.32
39
 0
62
 1
 0
LINE
8
default
6
CONTINUOUS
10
      195.84
20
      600.32
11
      196.88
21
      600.06
39
 0
62
 3
 0
LINE
8
default
6
CONTINUOUS
10
     -195.84
20
      600.32
11
     -196.88
21
      600.06
39
 0
62
 1
 0
LINE
8
default
6
CONTINUOUS
10
      196.88
20
      600.06
11
      197.92
21
      599.81
39
 0
62
 3
 0
LINE
8
default
6
CONTINUOUS
10
     -196.88
20
      600.06
11
     -197.92
21
      599.81
39
 0
62
 1
 0
LINE
8
default
6
CONTINUOUS
10
      197.92
20
      599.81
11
      198.96
21
      599.55
39
 0
62
 3
 0
LINE
8
default
6
CONTINUOUS
10
     -197.92
20
      599.81
11
     -198.96
21
      599.55
39
 0
62
 1
 0
LINE
8
default
6
CONTINUOUS
10
      198.96
20
      599.55
11
      200.00
21
      599.29
39
 0
62
 3
 0
LINE
8
default
6
CONTINUOUS
10
     -198.96
20
      599.55
11
     -200.00
21
      599.29
39
 0
62
 1
 0
LINE
8
default
6
CONTINUOUS
10
      200.00
20
      599.29
11
      201.04
21
      599.03
39
 0
62
 3
 0
LINE
8
default
6
CONTINUOUS
10
     -200.00
20
      599.29
11
     -201.04
21
      599.03
39
 0
62
 1
 0
LINE
8
default
6
CONTINUOUS
10
      201.04
20
      599.03
11
      202.08
21
      598.76
39
 0
62
 3
 0
LINE
8
default
6
CONTINUOUS
10
     -201.04
20
      599.03
11
     -202.08
21
      598.76
39
 0
62
 1
 0
LINE
8
default
6
CONTINUOUS
10
      202.08
20
      598.76
11
      203.12
21
      598.49
39
 0
62
 3
 0
LINE
8
default
6
CONTINUOUS
10
     -202.08
20
      598.76
11
     -203.12
21
      598.49
39
 0
62
 1
 0
LINE
8
default
6
CONTINUOUS
10
      203.12
20
      598.49
11
      204.15
21
      598.22
39
 0
62
 3
 0
LINE
8
default
6
CONTINUOUS
10
     -203.12
20
      598.49
11
     -204.15
21
      598.22
39
 0
62
 1
 0
LINE
8
default
6
CONTINUOUS
10
      204.15
20
      598.22
11
      205.19
21
      597.95
39
 0
62
 3
 0
LINE
8
default
6
CONTINUOUS
10
     -204.15
20
      598.22
11
     -205.19
21
      597.95
39
 0
62
 1
 0
LINE
8
default
6
CONTINUOUS
10
      205.19
20
      597.95
11
      206.23
21
      597.68
39
 0
62
 3
 0
LINE
8
default
6
CONTINUOUS
10
     -205.19
20
      597.95
11
     -206.23
21
      597.68
39
 0
62
 1
 0
LINE
8
default
6
CONTINUOUS
10
      206.23
20
      597.68
11
      207.26
21
      597.40
39
 0
62
 3
 0
LINE
8
default
6
CONTINUOUS
10
     -206.23
20
      597.68
11
     -207.26
21
      597.40
39
 0
62
 1
 0
LINE
8
default
6
CONTINUOUS
10
      207.26
20
      597.40
11
      208.30
21
      597.12
39
 0
62
 3
 0
LINE
8
default
6
CONTINUOUS
10
     -207.26
20
      597.40
11
     -208.30
21
      597.12
39
 0
62
 1
 0
LINE
8
default
6
CONTINUOUS
10
      208.30
20
      597.12
11
      209.33
21
      596.84
39
 0
62
 3
 0
LINE
8
default
6
CONTINUOUS
10
     -208.30
20
      597.12
11
     -209.33
21
      596.84
39
 0
62
 1
 0
LINE
8
default
6
CONTINUOUS
10
      209.33
20
      596.84
11
      210.36
21
      596.56
39
 0
62
 3
 0
LINE
8
default
6
CONTINUOUS
10
     -209.33
20
      596.84
11
     -210.36
21
      596.56
39
 0
62
 1
 0
LINE
8
default
6
CONTINUOUS
10
      210.36
20
      596.56
11
      211.40
21
      596.27
39
 0
62
 3
 0
LINE
8
default
6
CONTINUOUS
10
     -210.36
20
      596.56
11
     -211.40
21
      596.27
39
 0
62
 1
 0
LINE
8
default
6
CONTINUOUS
10
      211.40
20
      596.27
11
      212.43
21
      595.99
39
 0
62
 3
 0
LINE
8
default
6
CONTINUOUS
10
     -211.40
20
      596.27
11
     -212.43
21
      595.99
39
 0
62
 1
 0
LINE
8
default
6
CONTINUOUS
10
      212.43
20
      595.99
11
      213.46
21
      595.69
39
 0
62
 3
 0
LINE
8
default
6
CONTINUOUS
10
     -212.43
20
      595.99
11
     -213.46
21
      595.69
39
 0
62
 1
 0
LINE
8
default
6
CONTINUOUS
10
      213.46
20
      595.69
11
      214.49
21
      595.40
39
 0
62
 3
 0
LINE
8
default
6
CONTINUOUS
10
     -213.46
20
      595.69
11
     -214.49
21
      595.40
39
 0
62
 1
 0
LINE
8
default
6
CONTINUOUS
10
      214.49
20
      595.40
11
      215.52
21
      595.11
39
 0
62
 3
 0
LINE
8
default
6
CONTINUOUS
10
     -214.49
20
      595.40
11
     -215.52
21
      595.11
39
 0
62
 1
 0
LINE
8
default
6
CONTINUOUS
10
      215.52
20
      595.11
11
      216.55
21
      594.81
39
 0
62
 3
 0
LINE
8
default
6
CONTINUOUS
10
     -215.52
20
      595.11
11
     -216.55
21
      594.81
39
 0
62
 1
 0
LINE
8
default
6
CONTINUOUS
10
      216.55
20
      594.81
11
      217.58
21
      594.51
39
 0
62
 3
 0
LINE
8
default
6
CONTINUOUS
10
     -216.55
20
      594.81
11
     -217.58
21
      594.51
39
 0
62
 1
 0
LINE
8
default
6
CONTINUOUS
10
      217.58
20
      594.51
11
      218.61
21
      594.21
39
 0
62
 3
 0
LINE
8
default
6
CONTINUOUS
10
     -217.58
20
      594.51
11
     -218.61
21
      594.21
39
 0
62
 1
 0
LINE
8
default
6
CONTINUOUS
10
      218.61
20
      594.21
11
      219.64
21
      593.90
39
 0
62
 3
 0
LINE
8
default
6
CONTINUOUS
10
     -218.61
20
      594.21
11
     -219.64
21
      593.90
39
 0
62
 1
 0
LINE
8
default
6
CONTINUOUS
10
      219.64
20
      593.90
11
      220.66
21
      593.60
39
 0
62
 3
 0
LINE
8
default
6
CONTINUOUS
10
     -219.64
20
      593.90
11
     -220.66
21
      593.60
39
 0
62
 1
 0
LINE
8
default
6
CONTINUOUS
10
      220.66
20
      593.60
11
      221.69
21
      593.29
39
 0
62
 3
 0
LINE
8
default
6
CONTINUOUS
10
     -220.66
20
      593.60
11
     -221.69
21
      593.29
39
 0
62
 1
 0
LINE
8
default
6
CONTINUOUS
10
      221.69
20
      593.29
11
      222.72
21
      592.98
39
 0
62
 3
 0
LINE
8
default
6
CONTINUOUS
10
     -221.69
20
      593.29
11
     -222.72
21
      592.98
39
 0
62
 1
 0
LINE
8
default
6
CONTINUOUS
10
      222.72
20
      592.98
11
      223.74
21
      592.66
39
 0
62
 3
 0
LINE
8
default
6
CONTINUOUS
10
     -222.72
20
      592.98
11
     -223.74
21
      592.66
39
 0
62
 1
 0
LINE
8
default
6
CONTINUOUS
10
      223.74
20
      592.66
11
      224.77
21
      592.35
39
 0
62
 3
 0
LINE
8
default
6
CONTINUOUS
10
     -223.74
20
      592.66
11
     -224.77
21
      592.35
39
 0
62
 1
 0
LINE
8
default
6
CONTINUOUS
10
      224.77
20
      592.35
11
      225.79
21
      592.03
39
 0
62
 3
 0
LINE
8
default
6
CONTINUOUS
10
     -224.77
20
      592.35
11
     -225.79
21
      592.03
39
 0
62
 1
 0
LINE
8
default
6
CONTINUOUS
10
      225.79
20
      592.03
11
      226.81
21
      591.71
39
 0
62
 3
 0
LINE
8
default
6
CONTINUOUS
10
     -225.79
20
      592.03
11
     -226.81
21
      591.71
39
 0
62
 1
 0
LINE
8
default
6
CONTINUOUS
10
      226.81
20
      591.71
11
      227.83
21
      591.39
39
 0
62
 3
 0
LINE
8
default
6
CONTINUOUS
10
     -226.81
20
      591.71
11
     -227.83
21
      591.39
39
 0
62
 1
 0
LINE
8
default
6
CONTINUOUS
10
      227.83
20
      591.39
11
      228.85
21
      591.06
39
 0
62
 3
 0
LINE
8
default
6
CONTINUOUS
10
     -227.83
20
      591.39
11
     -228.85
21
      591.06
39
 0
62
 1
 0
LINE
8
default
6
CONTINUOUS
10
      228.85
20
      591.06
11
      229.88
21
      590.74
39
 0
62
 3
 0
LINE
8
default
6
CONTINUOUS
10
     -228.85
20
      591.06
11
     -229.88
21
      590.74
39
 0
62
 1
 0
LINE
8
default
6
CONTINUOUS
10
      229.88
20
      590.74
11
      230.90
21
      590.41
39
 0
62
 3
 0
LINE
8
default
6
CONTINUOUS
10
     -229.88
20
      590.74
11
     -230.90
21
      590.41
39
 0
62
 1
 0
LINE
8
default
6
CONTINUOUS
10
      230.90
20
      590.41
11
      231.91
21
      590.07
39
 0
62
 3
 0
LINE
8
default
6
CONTINUOUS
10
     -230.90
20
      590.41
11
     -231.91
21
      590.07
39
 0
62
 1
 0
LINE
8
default
6
CONTINUOUS
10
      231.91
20
      590.07
11
      232.93
21
      589.74
39
 0
62
 3
 0
LINE
8
default
6
CONTINUOUS
10
     -231.91
20
      590.07
11
     -232.93
21
      589.74
39
 0
62
 1
 0
LINE
8
default
6
CONTINUOUS
10
      232.93
20
      589.74
11
      233.95
21
      589.40
39
 0
62
 3
 0
LINE
8
default
6
CONTINUOUS
10
     -232.93
20
      589.74
11
     -233.95
21
      589.40
39
 0
62
 1
 0
LINE
8
default
6
CONTINUOUS
10
      233.95
20
      589.40
11
      234.97
21
      589.07
39
 0
62
 3
 0
LINE
8
default
6
CONTINUOUS
10
     -233.95
20
      589.40
11
     -234.97
21
      589.07
39
 0
62
 1
 0
LINE
8
default
6
CONTINUOUS
10
      234.97
20
      589.07
11
      235.98
21
      588.72
39
 0
62
 3
 0
LINE
8
default
6
CONTINUOUS
10
     -234.97
20
      589.07
11
     -235.98
21
      588.72
39
 0
62
 1
 0
LINE
8
default
6
CONTINUOUS
10
      235.98
20
      588.72
11
      237.00
21
      588.38
39
 0
62
 3
 0
LINE
8
default
6
CONTINUOUS
10
     -235.98
20
      588.72
11
     -237.00
21
      588.38
39
 0
62
 1
 0
LINE
8
default
6
CONTINUOUS
10
      237.00
20
      588.38
11
      238.01
21
      588.04
39
 0
62
 3
 0
LINE
8
default
6
CONTINUOUS
10
     -237.00
20
      588.38
11
     -238.01
21
      588.04
39
 0
62
 1
 0
LINE
8
default
6
CONTINUOUS
10
      238.01
20
      588.04
11
      239.03
21
      587.69
39
 0
62
 3
 0
LINE
8
default
6
CONTINUOUS
10
     -238.01
20
      588.04
11
     -239.03
21
      587.69
39
 0
62
 1
 0
LINE
8
default
6
CONTINUOUS
10
      239.03
20
      587.69
11
      240.04
21
      587.34
39
 0
62
 3
 0
LINE
8
default
6
CONTINUOUS
10
     -239.03
20
      587.69
11
     -240.04
21
      587.34
39
 0
62
 1
 0
LINE
8
default
6
CONTINUOUS
10
      240.04
20
      587.34
11
      241.05
21
      586.99
39
 0
62
 3
 0
LINE
8
default
6
CONTINUOUS
10
     -240.04
20
      587.34
11
     -241.05
21
      586.99
39
 0
62
 1
 0
LINE
8
default
6
CONTINUOUS
10
      241.05
20
      586.99
11
      242.06
21
      586.63
39
 0
62
 3
 0
LINE
8
default
6
CONTINUOUS
10
     -241.05
20
      586.99
11
     -242.06
21
      586.63
39
 0
62
 1
 0
LINE
8
default
6
CONTINUOUS
10
      242.06
20
      586.63
11
      243.07
21
      586.27
39
 0
62
 3
 0
LINE
8
default
6
CONTINUOUS
10
     -242.06
20
      586.63
11
     -243.07
21
      586.27
39
 0
62
 1
 0
LINE
8
default
6
CONTINUOUS
10
      243.07
20
      586.27
11
      244.08
21
      585.92
39
 0
62
 3
 0
LINE
8
default
6
CONTINUOUS
10
     -243.07
20
      586.27
11
     -244.08
21
      585.92
39
 0
62
 1
 0
LINE
8
default
6
CONTINUOUS
10
      244.08
20
      585.92
11
      245.09
21
      585.55
39
 0
62
 3
 0
LINE
8
default
6
CONTINUOUS
10
     -244.08
20
      585.92
11
     -245.09
21
      585.55
39
 0
62
 1
 0
LINE
8
default
6
CONTINUOUS
10
      245.09
20
      585.55
11
      246.10
21
      585.19
39
 0
62
 3
 0
LINE
8
default
6
CONTINUOUS
10
     -245.09
20
      585.55
11
     -246.10
21
      585.19
39
 0
62
 1
 0
LINE
8
default
6
CONTINUOUS
10
      246.10
20
      585.19
11
      247.11
21
      584.82
39
 0
62
 3
 0
LINE
8
default
6
CONTINUOUS
10
     -246.10
20
      585.19
11
     -247.11
21
      584.82
39
 0
62
 1
 0
LINE
8
default
6
CONTINUOUS
10
      247.11
20
      584.82
11
      248.12
21
      584.46
39
 0
62
 3
 0
LINE
8
default
6
CONTINUOUS
10
     -247.11
20
      584.82
11
     -248.12
21
      584.46
39
 0
62
 1
 0
LINE
8
default
6
CONTINUOUS
10
      248.12
20
      584.46
11
      249.12
21
      584.09
39
 0
62
 3
 0
LINE
8
default
6
CONTINUOUS
10
     -248.12
20
      584.46
11
     -249.12
21
      584.09
39
 0
62
 1
 0
LINE
8
default
6
CONTINUOUS
10
      249.12
20
      584.09
11
      250.13
21
      583.71
39
 0
62
 3
 0
LINE
8
default
6
CONTINUOUS
10
     -249.12
20
      584.09
11
     -250.13
21
      583.71
39
 0
62
 1
 0
LINE
8
default
6
CONTINUOUS
10
      250.13
20
      583.71
11
      251.13
21
      583.34
39
 0
62
 3
 0
LINE
8
default
6
CONTINUOUS
10
     -250.13
20
      583.71
11
     -251.13
21
      583.34
39
 0
62
 1
 0
LINE
8
default
6
CONTINUOUS
10
      251.13
20
      583.34
11
      252.13
21
      582.96
39
 0
62
 3
 0
LINE
8
default
6
CONTINUOUS
10
     -251.13
20
      583.34
11
     -252.13
21
      582.96
39
 0
62
 1
 0
LINE
8
default
6
CONTINUOUS
10
      252.13
20
      582.96
11
      253.14
21
      582.58
39
 0
62
 3
 0
LINE
8
default
6
CONTINUOUS
10
     -252.13
20
      582.96
11
     -253.14
21
      582.58
39
 0
62
 1
 0
LINE
8
default
6
CONTINUOUS
10
      253.14
20
      582.58
11
      254.14
21
      582.20
39
 0
62
 3
 0
LINE
8
default
6
CONTINUOUS
10
     -253.14
20
      582.58
11
     -254.14
21
      582.20
39
 0
62
 1
 0
LINE
8
default
6
CONTINUOUS
10
      254.14
20
      582.20
11
      255.14
21
      581.82
39
 0
62
 3
 0
LINE
8
default
6
CONTINUOUS
10
     -254.14
20
      582.20
11
     -255.14
21
      581.82
39
 0
62
 1
 0
LINE
8
default
6
CONTINUOUS
10
      255.14
20
      581.82
11
      256.14
21
      581.43
39
 0
62
 3
 0
LINE
8
default
6
CONTINUOUS
10
     -255.14
20
      581.82
11
     -256.14
21
      581.43
39
 0
62
 1
 0
LINE
8
default
6
CONTINUOUS
10
      256.14
20
      581.43
11
      257.14
21
      581.04
39
 0
62
 3
 0
LINE
8
default
6
CONTINUOUS
10
     -256.14
20
      581.43
11
     -257.14
21
      581.04
39
 0
62
 1
 0
LINE
8
default
6
CONTINUOUS
10
      257.14
20
      581.04
11
      258.14
21
      580.65
39
 0
62
 3
 0
LINE
8
default
6
CONTINUOUS
10
     -257.14
20
      581.04
11
     -258.14
21
      580.65
39
 0
62
 1
 0
LINE
8
default
6
CONTINUOUS
10
      258.14
20
      580.65
11
      259.13
21
      580.26
39
 0
62
 3
 0
LINE
8
default
6
CONTINUOUS
10
     -258.14
20
      580.65
11
     -259.13
21
      580.26
39
 0
62
 1
 0
LINE
8
default
6
CONTINUOUS
10
      259.13
20
      580.26
11
      260.13
21
      579.86
39
 0
62
 3
 0
LINE
8
default
6
CONTINUOUS
10
     -259.13
20
      580.26
11
     -260.13
21
      579.86
39
 0
62
 1
 0
LINE
8
default
6
CONTINUOUS
10
      260.13
20
      579.86
11
      261.12
21
      579.47
39
 0
62
 3
 0
LINE
8
default
6
CONTINUOUS
10
     -260.13
20
      579.86
11
     -261.12
21
      579.47
39
 0
62
 1
 0
LINE
8
default
6
CONTINUOUS
10
      261.12
20
      579.47
11
      262.12
21
      579.07
39
 0
62
 3
 0
LINE
8
default
6
CONTINUOUS
10
     -261.12
20
      579.47
11
     -262.12
21
      579.07
39
 0
62
 1
 0
LINE
8
default
6
CONTINUOUS
10
      262.12
20
      579.07
11
      263.11
21
      578.66
39
 0
62
 3
 0
LINE
8
default
6
CONTINUOUS
10
     -262.12
20
      579.07
11
     -263.11
21
      578.66
39
 0
62
 1
 0
LINE
8
default
6
CONTINUOUS
10
      263.11
20
      578.66
11
      264.11
21
      578.26
39
 0
62
 3
 0
LINE
8
default
6
CONTINUOUS
10
     -263.11
20
      578.66
11
     -264.11
21
      578.26
39
 0
62
 1
 0
LINE
8
default
6
CONTINUOUS
10
      264.11
20
      578.26
11
      265.10
21
      577.85
39
 0
62
 3
 0
LINE
8
default
6
CONTINUOUS
10
     -264.11
20
      578.26
11
     -265.10
21
      577.85
39
 0
62
 1
 0
LINE
8
default
6
CONTINUOUS
10
      265.10
20
      577.85
11
      266.09
21
      577.45
39
 0
62
 3
 0
LINE
8
default
6
CONTINUOUS
10
     -265.10
20
      577.85
11
     -266.09
21
      577.45
39
 0
62
 1
 0
LINE
8
default
6
CONTINUOUS
10
      266.09
20
      577.45
11
      267.08
21
      577.04
39
 0
62
 3
 0
LINE
8
default
6
CONTINUOUS
10
     -266.09
20
      577.45
11
     -267.08
21
      577.04
39
 0
62
 1
 0
LINE
8
default
6
CONTINUOUS
10
      267.08
20
      577.04
11
      268.07
21
      576.62
39
 0
62
 3
 0
LINE
8
default
6
CONTINUOUS
10
     -267.08
20
      577.04
11
     -268.07
21
      576.62
39
 0
62
 1
 0
LINE
8
default
6
CONTINUOUS
10
      268.07
20
      576.62
11
      269.06
21
      576.21
39
 0
62
 3
 0
LINE
8
default
6
CONTINUOUS
10
     -268.07
20
      576.62
11
     -269.06
21
      576.21
39
 0
62
 1
 0
LINE
8
default
6
CONTINUOUS
10
      269.06
20
      576.21
11
      270.54
21
      575.58
39
 0
62
 3
 0
LINE
8
default
6
CONTINUOUS
10
     -269.06
20
      576.21
11
     -270.54
21
      575.58
39
 0
62
 1
 0
LINE
8
default
6
CONTINUOUS
10
      270.54
20
      575.58
11
      272.03
21
      574.94
39
 0
62
 3
 0
LINE
8
default
6
CONTINUOUS
10
     -270.54
20
      575.58
11
     -272.03
21
      574.94
39
 0
62
 1
 0
LINE
8
default
6
CONTINUOUS
10
      272.03
20
      574.94
11
      273.51
21
      574.30
39
 0
62
 3
 0
LINE
8
default
6
CONTINUOUS
10
     -272.03
20
      574.94
11
     -273.51
21
      574.30
39
 0
62
 1
 0
LINE
8
default
6
CONTINUOUS
10
      273.51
20
      574.30
11
      274.99
21
      573.65
39
 0
62
 3
 0
LINE
8
default
6
CONTINUOUS
10
     -273.51
20
      574.30
11
     -274.99
21
      573.65
39
 0
62
 1
 0
LINE
8
default
6
CONTINUOUS
10
      274.99
20
      573.65
11
      276.47
21
      572.99
39
 0
62
 3
 0
LINE
8
default
6
CONTINUOUS
10
     -274.99
20
      573.65
11
     -276.47
21
      572.99
39
 0
62
 1
 0
LINE
8
default
6
CONTINUOUS
10
      276.47
20
      572.99
11
      277.94
21
      572.33
39
 0
62
 3
 0
LINE
8
default
6
CONTINUOUS
10
     -276.47
20
      572.99
11
     -277.94
21
      572.33
39
 0
62
 1
 0
LINE
8
default
6
CONTINUOUS
10
      277.94
20
      572.33
11
      279.41
21
      571.66
39
 0
62
 3
 0
LINE
8
default
6
CONTINUOUS
10
     -277.94
20
      572.33
11
     -279.41
21
      571.66
39
 0
62
 1
 0
LINE
8
default
6
CONTINUOUS
10
      279.41
20
      571.66
11
      280.88
21
      570.98
39
 0
62
 3
 0
LINE
8
default
6
CONTINUOUS
10
     -279.41
20
      571.66
11
     -280.88
21
      570.98
39
 0
62
 1
 0
LINE
8
default
6
CONTINUOUS
10
      280.88
20
      570.98
11
      282.35
21
      570.30
39
 0
62
 3
 0
LINE
8
default
6
CONTINUOUS
10
     -280.88
20
      570.98
11
     -282.35
21
      570.30
39
 0
62
 1
 0
LINE
8
default
6
CONTINUOUS
10
      282.35
20
      570.30
11
      283.81
21
      569.61
39
 0
62
 3
 0
LINE
8
default
6
CONTINUOUS
10
     -282.35
20
      570.30
11
     -283.81
21
      569.61
39
 0
62
 1
 0
LINE
8
default
6
CONTINUOUS
10
      283.81
20
      569.61
11
      285.27
21
      568.91
39
 0
62
 3
 0
LINE
8
default
6
CONTINUOUS
10
     -283.81
20
      569.61
11
     -285.27
21
      568.91
39
 0
62
 1
 0
LINE
8
default
6
CONTINUOUS
10
      285.27
20
      568.91
11
      286.72
21
      568.21
39
 0
62
 3
 0
LINE
8
default
6
CONTINUOUS
10
     -285.27
20
      568.91
11
     -286.72
21
      568.21
39
 0
62
 1
 0
LINE
8
default
6
CONTINUOUS
10
      286.72
20
      568.21
11
      288.18
21
      567.50
39
 0
62
 3
 0
LINE
8
default
6
CONTINUOUS
10
     -286.72
20
      568.21
11
     -288.18
21
      567.50
39
 0
62
 1
 0
LINE
8
default
6
CONTINUOUS
10
      288.18
20
      567.50
11
      289.63
21
      566.79
39
 0
62
 3
 0
LINE
8
default
6
CONTINUOUS
10
     -288.18
20
      567.50
11
     -289.63
21
      566.79
39
 0
62
 1
 0
LINE
8
default
6
CONTINUOUS
10
      289.63
20
      566.79
11
      291.07
21
      566.07
39
 0
62
 3
 0
LINE
8
default
6
CONTINUOUS
10
     -289.63
20
      566.79
11
     -291.07
21
      566.07
39
 0
62
 1
 0
LINE
8
default
6
CONTINUOUS
10
      291.07
20
      566.07
11
      292.52
21
      565.34
39
 0
62
 3
 0
LINE
8
default
6
CONTINUOUS
10
     -291.07
20
      566.07
11
     -292.52
21
      565.34
39
 0
62
 1
 0
LINE
8
default
6
CONTINUOUS
10
      292.52
20
      565.34
11
      293.96
21
      564.61
39
 0
62
 3
 0
LINE
8
default
6
CONTINUOUS
10
     -292.52
20
      565.34
11
     -293.96
21
      564.61
39
 0
62
 1
 0
LINE
8
default
6
CONTINUOUS
10
      293.96
20
      564.61
11
      295.39
21
      563.87
39
 0
62
 3
 0
LINE
8
default
6
CONTINUOUS
10
     -293.96
20
      564.61
11
     -295.39
21
      563.87
39
 0
62
 1
 0
LINE
8
default
6
CONTINUOUS
10
      295.39
20
      563.87
11
      296.83
21
      563.13
39
 0
62
 3
 0
LINE
8
default
6
CONTINUOUS
10
     -295.39
20
      563.87
11
     -296.83
21
      563.13
39
 0
62
 1
 0
LINE
8
default
6
CONTINUOUS
10
      296.83
20
      563.13
11
      298.26
21
      562.37
39
 0
62
 3
 0
LINE
8
default
6
CONTINUOUS
10
     -296.83
20
      563.13
11
     -298.26
21
      562.37
39
 0
62
 1
 0
LINE
8
default
6
CONTINUOUS
10
      298.26
20
      562.37
11
      299.68
21
      561.62
39
 0
62
 3
 0
LINE
8
default
6
CONTINUOUS
10
     -298.26
20
      562.37
11
     -299.68
21
      561.62
39
 0
62
 1
 0
LINE
8
default
6
CONTINUOUS
10
      299.68
20
      561.62
11
      301.11
21
      560.85
39
 0
62
 3
 0
LINE
8
default
6
CONTINUOUS
10
     -299.68
20
      561.62
11
     -301.11
21
      560.85
39
 0
62
 1
 0
LINE
8
default
6
CONTINUOUS
10
      301.11
20
      560.85
11
      302.53
21
      560.08
39
 0
62
 3
 0
LINE
8
default
6
CONTINUOUS
10
     -301.11
20
      560.85
11
     -302.53
21
      560.08
39
 0
62
 1
 0
LINE
8
default
6
CONTINUOUS
10
      302.53
20
      560.08
11
      303.95
21
      559.30
39
 0
62
 3
 0
LINE
8
default
6
CONTINUOUS
10
     -302.53
20
      560.08
11
     -303.95
21
      559.30
39
 0
62
 1
 0
LINE
8
default
6
CONTINUOUS
10
      303.95
20
      559.30
11
      305.36
21
      558.52
39
 0
62
 3
 0
LINE
8
default
6
CONTINUOUS
10
     -303.95
20
      559.30
11
     -305.36
21
      558.52
39
 0
62
 1
 0
LINE
8
default
6
CONTINUOUS
10
      305.36
20
      558.52
11
      306.77
21
      557.73
39
 0
62
 3
 0
LINE
8
default
6
CONTINUOUS
10
     -305.36
20
      558.52
11
     -306.77
21
      557.73
39
 0
62
 1
 0
LINE
8
default
6
CONTINUOUS
10
      306.77
20
      557.73
11
      308.18
21
      556.94
39
 0
62
 3
 0
LINE
8
default
6
CONTINUOUS
10
     -306.77
20
      557.73
11
     -308.18
21
      556.94
39
 0
62
 1
 0
LINE
8
default
6
CONTINUOUS
10
      308.18
20
      556.94
11
      309.58
21
      556.14
39
 0
62
 3
 0
LINE
8
default
6
CONTINUOUS
10
     -308.18
20
      556.94
11
     -309.58
21
      556.14
39
 0
62
 1
 0
LINE
8
default
6
CONTINUOUS
10
      309.58
20
      556.14
11
      310.98
21
      555.33
39
 0
62
 3
 0
LINE
8
default
6
CONTINUOUS
10
     -309.58
20
      556.14
11
     -310.98
21
      555.33
39
 0
62
 1
 0
LINE
8
default
6
CONTINUOUS
10
      310.98
20
      555.33
11
      312.38
21
      554.51
39
 0
62
 3
 0
LINE
8
default
6
CONTINUOUS
10
     -310.98
20
      555.33
11
     -312.38
21
      554.51
39
 0
62
 1
 0
LINE
8
default
6
CONTINUOUS
10
      312.38
20
      554.51
11
      313.77
21
      553.69
39
 0
62
 3
 0
LINE
8
default
6
CONTINUOUS
10
     -312.38
20
      554.51
11
     -313.77
21
      553.69
39
 0
62
 1
 0
LINE
8
default
6
CONTINUOUS
10
      313.77
20
      553.69
11
      315.16
21
      552.87
39
 0
62
 3
 0
LINE
8
default
6
CONTINUOUS
10
     -313.77
20
      553.69
11
     -315.16
21
      552.87
39
 0
62
 1
 0
LINE
8
default
6
CONTINUOUS
10
      315.16
20
      552.87
11
      316.55
21
      552.04
39
 0
62
 3
 0
LINE
8
default
6
CONTINUOUS
10
     -315.16
20
      552.87
11
     -316.55
21
      552.04
39
 0
62
 1
 0
LINE
8
default
6
CONTINUOUS
10
      316.55
20
      552.04
11
      317.93
21
      551.20
39
 0
62
 3
 0
LINE
8
default
6
CONTINUOUS
10
     -316.55
20
      552.04
11
     -317.93
21
      551.20
39
 0
62
 1
 0
LINE
8
default
6
CONTINUOUS
10
      317.93
20
      551.20
11
      319.31
21
      550.36
39
 0
62
 3
 0
LINE
8
default
6
CONTINUOUS
10
     -317.93
20
      551.20
11
     -319.31
21
      550.36
39
 0
62
 1
 0
LINE
8
default
6
CONTINUOUS
10
      319.31
20
      550.36
11
      320.68
21
      549.51
39
 0
62
 3
 0
LINE
8
default
6
CONTINUOUS
10
     -319.31
20
      550.36
11
     -320.68
21
      549.51
39
 0
62
 1
 0
LINE
8
default
6
CONTINUOUS
10
      320.68
20
      549.51
11
      322.05
21
      548.65
39
 0
62
 3
 0
LINE
8
default
6
CONTINUOUS
10
     -320.68
20
      549.51
11
     -322.05
21
      548.65
39
 0
62
 1
 0
LINE
8
default
6
CONTINUOUS
10
      322.05
20
      548.65
11
      323.42
21
      547.79
39
 0
62
 3
 0
LINE
8
default
6
CONTINUOUS
10
     -322.05
20
      548.65
11
     -323.42
21
      547.79
39
 0
62
 1
 0
LINE
8
default
6
CONTINUOUS
10
      323.42
20
      547.79
11
      324.78
21
      546.92
39
 0
62
 3
 0
LINE
8
default
6
CONTINUOUS
10
     -323.42
20
      547.79
11
     -324.78
21
      546.92
39
 0
62
 1
 0
LINE
8
default
6
CONTINUOUS
10
      324.78
20
      546.92
11
      326.14
21
      546.05
39
 0
62
 3
 0
LINE
8
default
6
CONTINUOUS
10
     -324.78
20
      546.92
11
     -326.14
21
      546.05
39
 0
62
 1
 0
LINE
8
default
6
CONTINUOUS
10
      326.14
20
      546.05
11
      327.50
21
      545.17
39
 0
62
 3
 0
LINE
8
default
6
CONTINUOUS
10
     -326.14
20
      546.05
11
     -327.50
21
      545.17
39
 0
62
 1
 0
LINE
8
default
6
CONTINUOUS
10
      327.50
20
      545.17
11
      328.85
21
      544.28
39
 0
62
 3
 0
LINE
8
default
6
CONTINUOUS
10
     -327.50
20
      545.17
11
     -328.85
21
      544.28
39
 0
62
 1
 0
LINE
8
default
6
CONTINUOUS
10
      328.85
20
      544.28
11
      330.20
21
      543.39
39
 0
62
 3
 0
LINE
8
default
6
CONTINUOUS
10
     -328.85
20
      544.28
11
     -330.20
21
      543.39
39
 0
62
 1
 0
LINE
8
default
6
CONTINUOUS
10
      330.20
20
      543.39
11
      331.54
21
      542.49
39
 0
62
 3
 0
LINE
8
default
6
CONTINUOUS
10
     -330.20
20
      543.39
11
     -331.54
21
      542.49
39
 0
62
 1
 0
LINE
8
default
6
CONTINUOUS
10
      331.54
20
      542.49
11
      332.88
21
      541.59
39
 0
62
 3
 0
LINE
8
default
6
CONTINUOUS
10
     -331.54
20
      542.49
11
     -332.88
21
      541.59
39
 0
62
 1
 0
LINE
8
default
6
CONTINUOUS
10
      332.88
20
      541.59
11
      334.22
21
      540.68
39
 0
62
 3
 0
LINE
8
default
6
CONTINUOUS
10
     -332.88
20
      541.59
11
     -334.22
21
      540.68
39
 0
62
 1
 0
LINE
8
default
6
CONTINUOUS
10
      334.22
20
      540.68
11
      335.55
21
      539.77
39
 0
62
 3
 0
LINE
8
default
6
CONTINUOUS
10
     -334.22
20
      540.68
11
     -335.55
21
      539.77
39
 0
62
 1
 0
LINE
8
default
6
CONTINUOUS
10
      335.55
20
      539.77
11
      336.88
21
      538.85
39
 0
62
 3
 0
LINE
8
default
6
CONTINUOUS
10
     -335.55
20
      539.77
11
     -336.88
21
      538.85
39
 0
62
 1
 0
LINE
8
default
6
CONTINUOUS
10
      336.88
20
      538.85
11
      338.21
21
      537.92
39
 0
62
 3
 0
LINE
8
default
6
CONTINUOUS
10
     -336.88
20
      538.85
11
     -338.21
21
      537.92
39
 0
62
 1
 0
LINE
8
default
6
CONTINUOUS
10
      338.21
20
      537.92
11
      339.53
21
      536.99
39
 0
62
 3
 0
LINE
8
default
6
CONTINUOUS
10
     -338.21
20
      537.92
11
     -339.53
21
      536.99
39
 0
62
 1
 0
LINE
8
default
6
CONTINUOUS
10
      339.53
20
      536.99
11
      340.84
21
      536.05
39
 0
62
 3
 0
LINE
8
default
6
CONTINUOUS
10
     -339.53
20
      536.99
11
     -340.84
21
      536.05
39
 0
62
 1
 0
LINE
8
default
6
CONTINUOUS
10
      340.84
20
      536.05
11
      342.15
21
      535.11
39
 0
62
 3
 0
LINE
8
default
6
CONTINUOUS
10
     -340.84
20
      536.05
11
     -342.15
21
      535.11
39
 0
62
 1
 0
LINE
8
default
6
CONTINUOUS
10
      342.15
20
      535.11
11
      343.46
21
      534.16
39
 0
62
 3
 0
LINE
8
default
6
CONTINUOUS
10
     -342.15
20
      535.11
11
     -343.46
21
      534.16
39
 0
62
 1
 0
LINE
8
default
6
CONTINUOUS
10
      343.46
20
      534.16
11
      344.77
21
      533.20
39
 0
62
 3
 0
LINE
8
default
6
CONTINUOUS
10
     -343.46
20
      534.16
11
     -344.77
21
      533.20
39
 0
62
 1
 0
LINE
8
default
6
CONTINUOUS
10
      344.77
20
      533.20
11
      346.07
21
      532.24
39
 0
62
 3
 0
LINE
8
default
6
CONTINUOUS
10
     -344.77
20
      533.20
11
     -346.07
21
      532.24
39
 0
62
 1
 0
LINE
8
default
6
CONTINUOUS
10
      346.07
20
      532.24
11
      347.36
21
      531.28
39
 0
62
 3
 0
LINE
8
default
6
CONTINUOUS
10
     -346.07
20
      532.24
11
     -347.36
21
      531.28
39
 0
62
 1
 0
LINE
8
default
6
CONTINUOUS
10
      347.36
20
      531.28
11
      348.65
21
      530.30
39
 0
62
 3
 0
LINE
8
default
6
CONTINUOUS
10
     -347.36
20
      531.28
11
     -348.65
21
      530.30
39
 0
62
 1
 0
LINE
8
default
6
CONTINUOUS
10
      348.65
20
      530.30
11
      349.94
21
      529.33
39
 0
62
 3
 0
LINE
8
default
6
CONTINUOUS
10
     -348.65
20
      530.30
11
     -349.94
21
      529.33
39
 0
62
 1
 0
LINE
8
default
6
CONTINUOUS
10
      349.94
20
      529.33
11
      351.22
21
      528.34
39
 0
62
 3
 0
LINE
8
default
6
CONTINUOUS
10
     -349.94
20
      529.33
11
     -351.22
21
      528.34
39
 0
62
 1
 0
LINE
8
default
6
CONTINUOUS
10
      351.22
20
      528.34
11
      352.50
21
      527.35
39
 0
62
 3
 0
LINE
8
default
6
CONTINUOUS
10
     -351.22
20
      528.34
11
     -352.50
21
      527.35
39
 0
62
 1
 0
LINE
8
default
6
CONTINUOUS
10
      352.50
20
      527.35
11
      353.77
21
      526.36
39
 0
62
 3
 0
LINE
8
default
6
CONTINUOUS
10
     -352.50
20
      527.35
11
     -353.77
21
      526.36
39
 0
62
 1
 0
LINE
8
default
6
CONTINUOUS
10
      353.77
20
      526.36
11
      355.04
21
      525.36
39
 0
62
 3
 0
LINE
8
default
6
CONTINUOUS
10
     -353.77
20
      526.36
11
     -355.04
21
      525.36
39
 0
62
 1
 0
LINE
8
default
6
CONTINUOUS
10
      355.04
20
      525.36
11
      356.31
21
      524.35
39
 0
62
 3
 0
LINE
8
default
6
CONTINUOUS
10
     -355.04
20
      525.36
11
     -356.31
21
      524.35
39
 0
62
 1
 0
LINE
8
default
6
CONTINUOUS
10
      356.31
20
      524.35
11
      357.57
21
      523.34
39
 0
62
 3
 0
LINE
8
default
6
CONTINUOUS
10
     -356.31
20
      524.35
11
     -357.57
21
      523.34
39
 0
62
 1
 0
LINE
8
default
6
CONTINUOUS
10
      357.57
20
      523.34
11
      358.83
21
      522.33
39
 0
62
 3
 0
LINE
8
default
6
CONTINUOUS
10
     -357.57
20
      523.34
11
     -358.83
21
      522.33
39
 0
62
 1
 0
LINE
8
default
6
CONTINUOUS
10
      358.83
20
      522.33
11
      360.08
21
      521.31
39
 0
62
 3
 0
LINE
8
default
6
CONTINUOUS
10
     -358.83
20
      522.33
11
     -360.08
21
      521.31
39
 0
62
 1
 0
LINE
8
default
6
CONTINUOUS
10
      360.08
20
      521.31
11
      361.33
21
      520.28
39
 0
62
 3
 0
LINE
8
default
6
CONTINUOUS
10
     -360.08
20
      521.31
11
     -361.33
21
      520.28
39
 0
62
 1
 0
LINE
8
default
6
CONTINUOUS
10
      361.33
20
      520.28
11
      362.57
21
      519.25
39
 0
62
 3
 0
LINE
8
default
6
CONTINUOUS
10
     -361.33
20
      520.28
11
     -362.57
21
      519.25
39
 0
62
 1
 0
LINE
8
default
6
CONTINUOUS
10
      362.57
20
      519.25
11
      363.81
21
      518.21
39
 0
62
 3
 0
LINE
8
default
6
CONTINUOUS
10
     -362.57
20
      519.25
11
     -363.81
21
      518.21
39
 0
62
 1
 0
LINE
8
default
6
CONTINUOUS
10
      363.81
20
      518.21
11
      365.04
21
      517.16
39
 0
62
 3
 0
LINE
8
default
6
CONTINUOUS
10
     -363.81
20
      518.21
11
     -365.04
21
      517.16
39
 0
62
 1
 0
LINE
8
default
6
CONTINUOUS
10
      365.04
20
      517.16
11
      366.27
21
      516.11
39
 0
62
 3
 0
LINE
8
default
6
CONTINUOUS
10
     -365.04
20
      517.16
11
     -366.27
21
      516.11
39
 0
62
 1
 0
LINE
8
default
6
CONTINUOUS
10
      366.27
20
      516.11
11
      367.50
21
      515.06
39
 0
62
 3
 0
LINE
8
default
6
CONTINUOUS
10
     -366.27
20
      516.11
11
     -367.50
21
      515.06
39
 0
62
 1
 0
LINE
8
default
6
CONTINUOUS
10
      367.50
20
      515.06
11
      368.72
21
      514.00
39
 0
62
 3
 0
LINE
8
default
6
CONTINUOUS
10
     -367.50
20
      515.06
11
     -368.72
21
      514.00
39
 0
62
 1
 0
LINE
8
default
6
CONTINUOUS
10
      368.72
20
      514.00
11
      369.93
21
      512.94
39
 0
62
 3
 0
LINE
8
default
6
CONTINUOUS
10
     -368.72
20
      514.00
11
     -369.93
21
      512.94
39
 0
62
 1
 0
LINE
8
default
6
CONTINUOUS
10
      369.93
20
      512.94
11
      371.14
21
      511.87
39
 0
62
 3
 0
LINE
8
default
6
CONTINUOUS
10
     -369.93
20
      512.94
11
     -371.14
21
      511.87
39
 0
62
 1
 0
LINE
8
default
6
CONTINUOUS
10
      371.14
20
      511.87
11
      372.35
21
      510.79
39
 0
62
 3
 0
LINE
8
default
6
CONTINUOUS
10
     -371.14
20
      511.87
11
     -372.35
21
      510.79
39
 0
62
 1
 0
LINE
8
default
6
CONTINUOUS
10
      372.35
20
      510.79
11
      373.55
21
      509.71
39
 0
62
 3
 0
LINE
8
default
6
CONTINUOUS
10
     -372.35
20
      510.79
11
     -373.55
21
      509.71
39
 0
62
 1
 0
LINE
8
default
6
CONTINUOUS
10
      373.55
20
      509.71
11
      374.75
21
      508.62
39
 0
62
 3
 0
LINE
8
default
6
CONTINUOUS
10
     -373.55
20
      509.71
11
     -374.75
21
      508.62
39
 0
62
 1
 0
LINE
8
default
6
CONTINUOUS
10
      374.75
20
      508.62
11
      375.94
21
      507.53
39
 0
62
 3
 0
LINE
8
default
6
CONTINUOUS
10
     -374.75
20
      508.62
11
     -375.94
21
      507.53
39
 0
62
 1
 0
LINE
8
default
6
CONTINUOUS
10
      375.94
20
      507.53
11
      377.13
21
      506.44
39
 0
62
 3
 0
LINE
8
default
6
CONTINUOUS
10
     -375.94
20
      507.53
11
     -377.13
21
      506.44
39
 0
62
 1
 0
LINE
8
default
6
CONTINUOUS
10
      377.13
20
      506.44
11
      378.31
21
      505.33
39
 0
62
 3
 0
LINE
8
default
6
CONTINUOUS
10
     -377.13
20
      506.44
11
     -378.31
21
      505.33
39
 0
62
 1
 0
LINE
8
default
6
CONTINUOUS
10
      378.31
20
      505.33
11
      379.49
21
      504.23
39
 0
62
 3
 0
LINE
8
default
6
CONTINUOUS
10
     -378.31
20
      505.33
11
     -379.49
21
      504.23
39
 0
62
 1
 0
LINE
8
default
6
CONTINUOUS
10
      379.49
20
      504.23
11
      380.66
21
      503.12
39
 0
62
 3
 0
LINE
8
default
6
CONTINUOUS
10
     -379.49
20
      504.23
11
     -380.66
21
      503.12
39
 0
62
 1
 0
LINE
8
default
6
CONTINUOUS
10
      380.66
20
      503.12
11
      381.83
21
      502.00
39
 0
62
 3
 0
LINE
8
default
6
CONTINUOUS
10
     -380.66
20
      503.12
11
     -381.83
21
      502.00
39
 0
62
 1
 0
LINE
8
default
6
CONTINUOUS
10
      381.83
20
      502.00
11
      382.99
21
      500.88
39
 0
62
 3
 0
LINE
8
default
6
CONTINUOUS
10
     -381.83
20
      502.00
11
     -382.99
21
      500.88
39
 0
62
 1
 0
LINE
8
default
6
CONTINUOUS
10
      382.99
20
      500.88
11
      384.15
21
      499.75
39
 0
62
 3
 0
LINE
8
default
6
CONTINUOUS
10
     -382.99
20
      500.88
11
     -384.15
21
      499.75
39
 0
62
 1
 0
LINE
8
default
6
CONTINUOUS
10
      384.15
20
      499.75
11
      385.31
21
      498.62
39
 0
62
 3
 0
LINE
8
default
6
CONTINUOUS
10
     -384.15
20
      499.75
11
     -385.31
21
      498.62
39
 0
62
 1
 0
LINE
8
default
6
CONTINUOUS
10
      385.31
20
      498.62
11
      386.45
21
      497.48
39
 0
62
 3
 0
LINE
8
default
6
CONTINUOUS
10
     -385.31
20
      498.62
11
     -386.45
21
      497.48
39
 0
62
 1
 0
LINE
8
default
6
CONTINUOUS
10
      386.45
20
      497.48
11
      387.60
21
      496.34
39
 0
62
 3
 0
LINE
8
default
6
CONTINUOUS
10
     -386.45
20
      497.48
11
     -387.60
21
      496.34
39
 0
62
 1
 0
LINE
8
default
6
CONTINUOUS
10
      387.60
20
      496.34
11
      388.74
21
      495.19
39
 0
62
 3
 0
LINE
8
default
6
CONTINUOUS
10
     -387.60
20
      496.34
11
     -388.74
21
      495.19
39
 0
62
 1
 0
LINE
8
default
6
CONTINUOUS
10
      388.74
20
      495.19
11
      389.87
21
      494.04
39
 0
62
 3
 0
LINE
8
default
6
CONTINUOUS
10
     -388.74
20
      495.19
11
     -389.87
21
      494.04
39
 0
62
 1
 0
LINE
8
default
6
CONTINUOUS
10
      389.87
20
      494.04
11
      391.00
21
      492.88
39
 0
62
 3
 0
LINE
8
default
6
CONTINUOUS
10
     -389.87
20
      494.04
11
     -391.00
21
      492.88
39
 0
62
 1
 0
LINE
8
default
6
CONTINUOUS
10
      391.00
20
      492.88
11
      392.12
21
      491.72
39
 0
62
 3
 0
LINE
8
default
6
CONTINUOUS
10
     -391.00
20
      492.88
11
     -392.12
21
      491.72
39
 0
62
 1
 0
LINE
8
default
6
CONTINUOUS
10
      392.12
20
      491.72
11
      393.24
21
      490.55
39
 0
62
 3
 0
LINE
8
default
6
CONTINUOUS
10
     -392.12
20
      491.72
11
     -393.24
21
      490.55
39
 0
62
 1
 0
LINE
8
default
6
CONTINUOUS
10
      393.24
20
      490.55
11
      394.35
21
      489.38
39
 0
62
 3
 0
LINE
8
default
6
CONTINUOUS
10
     -393.24
20
      490.55
11
     -394.35
21
      489.38
39
 0
62
 1
 0
LINE
8
default
6
CONTINUOUS
10
      394.35
20
      489.38
11
      395.46
21
      488.21
39
 0
62
 3
 0
LINE
8
default
6
CONTINUOUS
10
     -394.35
20
      489.38
11
     -395.46
21
      488.21
39
 0
62
 1
 0
LINE
8
default
6
CONTINUOUS
10
      395.46
20
      488.21
11
      396.56
21
      487.02
39
 0
62
 3
 0
LINE
8
default
6
CONTINUOUS
10
     -395.46
20
      488.21
11
     -396.56
21
      487.02
39
 0
62
 1
 0
LINE
8
default
6
CONTINUOUS
10
      396.56
20
      487.02
11
      398.75
21
      484.65
39
 0
62
 3
 0
LINE
8
default
6
CONTINUOUS
10
     -396.56
20
      487.02
11
     -398.75
21
      484.65
39
 0
62
 1
 0
LINE
8
default
6
CONTINUOUS
10
      398.75
20
      484.65
11
      399.39
21
      483.94
39
 0
62
 3
 0
LINE
8
default
6
CONTINUOUS
10
     -398.75
20
      484.65
11
     -399.39
21
      483.94
39
 0
62
 1
 0
LINE
8
default
6
CONTINUOUS
10
      399.39
20
      483.94
11
      400.03
21
      483.23
39
 0
62
 3
 0
LINE
8
default
6
CONTINUOUS
10
     -399.39
20
      483.94
11
     -400.03
21
      483.23
39
 0
62
 1
 0
LINE
8
default
6
CONTINUOUS
10
      400.03
20
      483.23
11
      400.66
21
      482.52
39
 0
62
 3
 0
LINE
8
default
6
CONTINUOUS
10
     -400.03
20
      483.23
11
     -400.66
21
      482.52
39
 0
62
 1
 0
LINE
8
default
6
CONTINUOUS
10
      400.66
20
      482.52
11
      401.28
21
      481.81
39
 0
62
 3
 0
LINE
8
default
6
CONTINUOUS
10
     -400.66
20
      482.52
11
     -401.28
21
      481.81
39
 0
62
 1
 0
LINE
8
default
6
CONTINUOUS
10
      401.28
20
      481.81
11
      401.90
21
      481.09
39
 0
62
 3
 0
LINE
8
default
6
CONTINUOUS
10
     -401.28
20
      481.81
11
     -401.90
21
      481.09
39
 0
62
 1
 0
LINE
8
default
6
CONTINUOUS
10
      401.90
20
      481.09
11
      402.52
21
      480.36
39
 0
62
 3
 0
LINE
8
default
6
CONTINUOUS
10
     -401.90
20
      481.09
11
     -402.52
21
      480.36
39
 0
62
 1
 0
LINE
8
default
6
CONTINUOUS
10
      402.52
20
      480.36
11
      403.13
21
      479.63
39
 0
62
 3
 0
LINE
8
default
6
CONTINUOUS
10
     -402.52
20
      480.36
11
     -403.13
21
      479.63
39
 0
62
 1
 0
LINE
8
default
6
CONTINUOUS
10
      403.13
20
      479.63
11
      403.73
21
      478.90
39
 0
62
 3
 0
LINE
8
default
6
CONTINUOUS
10
     -403.13
20
      479.63
11
     -403.73
21
      478.90
39
 0
62
 1
 0
LINE
8
default
6
CONTINUOUS
10
      403.73
20
      478.90
11
      404.33
21
      478.16
39
 0
62
 3
 0
LINE
8
default
6
CONTINUOUS
10
     -403.73
20
      478.90
11
     -404.33
21
      478.16
39
 0
62
 1
 0
LINE
8
default
6
CONTINUOUS
10
      404.33
20
      478.16
11
      404.93
21
      477.42
39
 0
62
 3
 0
LINE
8
default
6
CONTINUOUS
10
     -404.33
20
      478.16
11
     -404.93
21
      477.42
39
 0
62
 1
 0
LINE
8
default
6
CONTINUOUS
10
      404.93
20
      477.42
11
      405.52
21
      476.68
39
 0
62
 3
 0
LINE
8
default
6
CONTINUOUS
10
     -404.93
20
      477.42
11
     -405.52
21
      476.68
39
 0
62
 1
 0
LINE
8
default
6
CONTINUOUS
10
      405.52
20
      476.68
11
      406.11
21
      475.93
39
 0
62
 3
 0
LINE
8
default
6
CONTINUOUS
10
     -405.52
20
      476.68
11
     -406.11
21
      475.93
39
 0
62
 1
 0
LINE
8
default
6
CONTINUOUS
10
      406.11
20
      475.93
11
      406.69
21
      475.18
39
 0
62
 3
 0
LINE
8
default
6
CONTINUOUS
10
     -406.11
20
      475.93
11
     -406.69
21
      475.18
39
 0
62
 1
 0
LINE
8
default
6
CONTINUOUS
10
      406.69
20
      475.18
11
      407.26
21
      474.42
39
 0
62
 3
 0
LINE
8
default
6
CONTINUOUS
10
     -406.69
20
      475.18
11
     -407.26
21
      474.42
39
 0
62
 1
 0
LINE
8
default
6
CONTINUOUS
10
      407.26
20
      474.42
11
      407.84
21
      473.66
39
 0
62
 3
 0
LINE
8
default
6
CONTINUOUS
10
     -407.26
20
      474.42
11
     -407.84
21
      473.66
39
 0
62
 1
 0
LINE
8
default
6
CONTINUOUS
10
      407.84
20
      473.66
11
      408.40
21
      472.90
39
 0
62
 3
 0
LINE
8
default
6
CONTINUOUS
10
     -407.84
20
      473.66
11
     -408.40
21
      472.90
39
 0
62
 1
 0
LINE
8
default
6
CONTINUOUS
10
      408.40
20
      472.90
11
      408.96
21
      472.13
39
 0
62
 3
 0
LINE
8
default
6
CONTINUOUS
10
     -408.40
20
      472.90
11
     -408.96
21
      472.13
39
 0
62
 1
 0
LINE
8
default
6
CONTINUOUS
10
      408.96
20
      472.13
11
      409.52
21
      471.36
39
 0
62
 3
 0
LINE
8
default
6
CONTINUOUS
10
     -408.96
20
      472.13
11
     -409.52
21
      471.36
39
 0
62
 1
 0
LINE
8
default
6
CONTINUOUS
10
      409.52
20
      471.36
11
      410.07
21
      470.58
39
 0
62
 3
 0
LINE
8
default
6
CONTINUOUS
10
     -409.52
20
      471.36
11
     -410.07
21
      470.58
39
 0
62
 1
 0
LINE
8
default
6
CONTINUOUS
10
      410.07
20
      470.58
11
      410.62
21
      469.81
39
 0
62
 3
 0
LINE
8
default
6
CONTINUOUS
10
     -410.07
20
      470.58
11
     -410.62
21
      469.81
39
 0
62
 1
 0
LINE
8
default
6
CONTINUOUS
10
      410.62
20
      469.81
11
      411.16
21
      469.02
39
 0
62
 3
 0
LINE
8
default
6
CONTINUOUS
10
     -410.62
20
      469.81
11
     -411.16
21
      469.02
39
 0
62
 1
 0
LINE
8
default
6
CONTINUOUS
10
      411.16
20
      469.02
11
      411.69
21
      468.24
39
 0
62
 3
 0
LINE
8
default
6
CONTINUOUS
10
     -411.16
20
      469.02
11
     -411.69
21
      468.24
39
 0
62
 1
 0
LINE
8
default
6
CONTINUOUS
10
      411.69
20
      468.24
11
      412.22
21
      467.45
39
 0
62
 3
 0
LINE
8
default
6
CONTINUOUS
10
     -411.69
20
      468.24
11
     -412.22
21
      467.45
39
 0
62
 1
 0
LINE
8
default
6
CONTINUOUS
10
      412.22
20
      467.45
11
      412.75
21
      466.66
39
 0
62
 3
 0
LINE
8
default
6
CONTINUOUS
10
     -412.22
20
      467.45
11
     -412.75
21
      466.66
39
 0
62
 1
 0
LINE
8
default
6
CONTINUOUS
10
      412.75
20
      466.66
11
      413.27
21
      465.86
39
 0
62
 3
 0
LINE
8
default
6
CONTINUOUS
10
     -412.75
20
      466.66
11
     -413.27
21
      465.86
39
 0
62
 1
 0
LINE
8
default
6
CONTINUOUS
10
      413.27
20
      465.86
11
      413.78
21
      465.06
39
 0
62
 3
 0
LINE
8
default
6
CONTINUOUS
10
     -413.27
20
      465.86
11
     -413.78
21
      465.06
39
 0
62
 1
 0
LINE
8
default
6
CONTINUOUS
10
      413.78
20
      465.06
11
      414.29
21
      464.26
39
 0
62
 3
 0
LINE
8
default
6
CONTINUOUS
10
     -413.78
20
      465.06
11
     -414.29
21
      464.26
39
 0
62
 1
 0
LINE
8
default
6
CONTINUOUS
10
      414.29
20
      464.26
11
      414.79
21
      463.45
39
 0
62
 3
 0
LINE
8
default
6
CONTINUOUS
10
     -414.29
20
      464.26
11
     -414.79
21
      463.45
39
 0
62
 1
 0
LINE
8
default
6
CONTINUOUS
10
      414.79
20
      463.45
11
      415.29
21
      462.64
39
 0
62
 3
 0
LINE
8
default
6
CONTINUOUS
10
     -414.79
20
      463.45
11
     -415.29
21
      462.64
39
 0
62
 1
 0
LINE
8
default
6
CONTINUOUS
10
      415.29
20
      462.64
11
      415.79
21
      461.83
39
 0
62
 3
 0
LINE
8
default
6
CONTINUOUS
10
     -415.29
20
      462.64
11
     -415.79
21
      461.83
39
 0
62
 1
 0
LINE
8
default
6
CONTINUOUS
10
      415.79
20
      461.83
11
      416.27
21
      461.02
39
 0
62
 3
 0
LINE
8
default
6
CONTINUOUS
10
     -415.79
20
      461.83
11
     -416.27
21
      461.02
39
 0
62
 1
 0
LINE
8
default
6
CONTINUOUS
10
      416.27
20
      461.02
11
      416.76
21
      460.20
39
 0
62
 3
 0
LINE
8
default
6
CONTINUOUS
10
     -416.27
20
      461.02
11
     -416.76
21
      460.20
39
 0
62
 1
 0
LINE
8
default
6
CONTINUOUS
10
      416.76
20
      460.20
11
      417.23
21
      459.37
39
 0
62
 3
 0
LINE
8
default
6
CONTINUOUS
10
     -416.76
20
      460.20
11
     -417.23
21
      459.37
39
 0
62
 1
 0
LINE
8
default
6
CONTINUOUS
10
      417.23
20
      459.37
11
      417.71
21
      458.55
39
 0
62
 3
 0
LINE
8
default
6
CONTINUOUS
10
     -417.23
20
      459.37
11
     -417.71
21
      458.55
39
 0
62
 1
 0
LINE
8
default
6
CONTINUOUS
10
      417.71
20
      458.55
11
      418.17
21
      457.72
39
 0
62
 3
 0
LINE
8
default
6
CONTINUOUS
10
     -417.71
20
      458.55
11
     -418.17
21
      457.72
39
 0
62
 1
 0
LINE
8
default
6
CONTINUOUS
10
      418.17
20
      457.72
11
      418.63
21
      456.89
39
 0
62
 3
 0
LINE
8
default
6
CONTINUOUS
10
     -418.17
20
      457.72
11
     -418.63
21
      456.89
39
 0
62
 1
 0
LINE
8
default
6
CONTINUOUS
10
      418.63
20
      456.89
11
      419.09
21
      456.05
39
 0
62
 3
 0
LINE
8
default
6
CONTINUOUS
10
     -418.63
20
      456.89
11
     -419.09
21
      456.05
39
 0
62
 1
 0
LINE
8
default
6
CONTINUOUS
10
      419.09
20
      456.05
11
      419.54
21
      455.22
39
 0
62
 3
 0
LINE
8
default
6
CONTINUOUS
10
     -419.09
20
      456.05
11
     -419.54
21
      455.22
39
 0
62
 1
 0
LINE
8
default
6
CONTINUOUS
10
      419.54
20
      455.22
11
      419.98
21
      454.38
39
 0
62
 3
 0
LINE
8
default
6
CONTINUOUS
10
     -419.54
20
      455.22
11
     -419.98
21
      454.38
39
 0
62
 1
 0
LINE
8
default
6
CONTINUOUS
10
      419.98
20
      454.38
11
      420.42
21
      453.53
39
 0
62
 3
 0
LINE
8
default
6
CONTINUOUS
10
     -419.98
20
      454.38
11
     -420.42
21
      453.53
39
 0
62
 1
 0
LINE
8
default
6
CONTINUOUS
10
      420.42
20
      453.53
11
      420.85
21
      452.69
39
 0
62
 3
 0
LINE
8
default
6
CONTINUOUS
10
     -420.42
20
      453.53
11
     -420.85
21
      452.69
39
 0
62
 1
 0
LINE
8
default
6
CONTINUOUS
10
      420.85
20
      452.69
11
      421.28
21
      451.84
39
 0
62
 3
 0
LINE
8
default
6
CONTINUOUS
10
     -420.85
20
      452.69
11
     -421.28
21
      451.84
39
 0
62
 1
 0
LINE
8
default
6
CONTINUOUS
10
      421.28
20
      451.84
11
      421.70
21
      450.99
39
 0
62
 3
 0
LINE
8
default
6
CONTINUOUS
10
     -421.28
20
      451.84
11
     -421.70
21
      450.99
39
 0
62
 1
 0
LINE
8
default
6
CONTINUOUS
10
      421.70
20
      450.99
11
      422.12
21
      450.13
39
 0
62
 3
 0
LINE
8
default
6
CONTINUOUS
10
     -421.70
20
      450.99
11
     -422.12
21
      450.13
39
 0
62
 1
 0
LINE
8
default
6
CONTINUOUS
10
      422.12
20
      450.13
11
      422.53
21
      449.27
39
 0
62
 3
 0
LINE
8
default
6
CONTINUOUS
10
     -422.12
20
      450.13
11
     -422.53
21
      449.27
39
 0
62
 1
 0
LINE
8
default
6
CONTINUOUS
10
      422.53
20
      449.27
11
      422.94
21
      448.41
39
 0
62
 3
 0
LINE
8
default
6
CONTINUOUS
10
     -422.53
20
      449.27
11
     -422.94
21
      448.41
39
 0
62
 1
 0
LINE
8
default
6
CONTINUOUS
10
      422.94
20
      448.41
11
      423.33
21
      447.55
39
 0
62
 3
 0
LINE
8
default
6
CONTINUOUS
10
     -422.94
20
      448.41
11
     -423.33
21
      447.55
39
 0
62
 1
 0
LINE
8
default
6
CONTINUOUS
10
      423.33
20
      447.55
11
      423.73
21
      446.69
39
 0
62
 3
 0
LINE
8
default
6
CONTINUOUS
10
     -423.33
20
      447.55
11
     -423.73
21
      446.69
39
 0
62
 1
 0
LINE
8
default
6
CONTINUOUS
10
      423.73
20
      446.69
11
      424.12
21
      445.82
39
 0
62
 3
 0
LINE
8
default
6
CONTINUOUS
10
     -423.73
20
      446.69
11
     -424.12
21
      445.82
39
 0
62
 1
 0
LINE
8
default
6
CONTINUOUS
10
      424.12
20
      445.82
11
      424.50
21
      444.95
39
 0
62
 3
 0
LINE
8
default
6
CONTINUOUS
10
     -424.12
20
      445.82
11
     -424.50
21
      444.95
39
 0
62
 1
 0
LINE
8
default
6
CONTINUOUS
10
      424.50
20
      444.95
11
      424.88
21
      444.08
39
 0
62
 3
 0
LINE
8
default
6
CONTINUOUS
10
     -424.50
20
      444.95
11
     -424.88
21
      444.08
39
 0
62
 1
 0
LINE
8
default
6
CONTINUOUS
10
      424.88
20
      444.08
11
      425.25
21
      443.20
39
 0
62
 3
 0
LINE
8
default
6
CONTINUOUS
10
     -424.88
20
      444.08
11
     -425.25
21
      443.20
39
 0
62
 1
 0
LINE
8
default
6
CONTINUOUS
10
      425.25
20
      443.20
11
      425.61
21
      442.32
39
 0
62
 3
 0
LINE
8
default
6
CONTINUOUS
10
     -425.25
20
      443.20
11
     -425.61
21
      442.32
39
 0
62
 1
 0
LINE
8
default
6
CONTINUOUS
10
      425.61
20
      442.32
11
      425.97
21
      441.44
39
 0
62
 3
 0
LINE
8
default
6
CONTINUOUS
10
     -425.61
20
      442.32
11
     -425.97
21
      441.44
39
 0
62
 1
 0
LINE
8
default
6
CONTINUOUS
10
      425.97
20
      441.44
11
      426.32
21
      440.56
39
 0
62
 3
 0
LINE
8
default
6
CONTINUOUS
10
     -425.97
20
      441.44
11
     -426.32
21
      440.56
39
 0
62
 1
 0
LINE
8
default
6
CONTINUOUS
10
      426.32
20
      440.56
11
      426.67
21
      439.67
39
 0
62
 3
 0
LINE
8
default
6
CONTINUOUS
10
     -426.32
20
      440.56
11
     -426.67
21
      439.67
39
 0
62
 1
 0
LINE
8
default
6
CONTINUOUS
10
      426.67
20
      439.67
11
      427.01
21
      438.79
39
 0
62
 3
 0
LINE
8
default
6
CONTINUOUS
10
     -426.67
20
      439.67
11
     -427.01
21
      438.79
39
 0
62
 1
 0
LINE
8
default
6
CONTINUOUS
10
      427.01
20
      438.79
11
      427.35
21
      437.90
39
 0
62
 3
 0
LINE
8
default
6
CONTINUOUS
10
     -427.01
20
      438.79
11
     -427.35
21
      437.90
39
 0
62
 1
 0
LINE
8
default
6
CONTINUOUS
10
      427.35
20
      437.90
11
      427.68
21
      437.01
39
 0
62
 3
 0
LINE
8
default
6
CONTINUOUS
10
     -427.35
20
      437.90
11
     -427.68
21
      437.01
39
 0
62
 1
 0
LINE
8
default
6
CONTINUOUS
10
      427.68
20
      437.01
11
      428.00
21
      436.11
39
 0
62
 3
 0
LINE
8
default
6
CONTINUOUS
10
     -427.68
20
      437.01
11
     -428.00
21
      436.11
39
 0
62
 1
 0
LINE
8
default
6
CONTINUOUS
10
      428.00
20
      436.11
11
      428.32
21
      435.22
39
 0
62
 3
 0
LINE
8
default
6
CONTINUOUS
10
     -428.00
20
      436.11
11
     -428.32
21
      435.22
39
 0
62
 1
 0
LINE
8
default
6
CONTINUOUS
10
      428.32
20
      435.22
11
      428.63
21
      434.32
39
 0
62
 3
 0
LINE
8
default
6
CONTINUOUS
10
     -428.32
20
      435.22
11
     -428.63
21
      434.32
39
 0
62
 1
 0
LINE
8
default
6
CONTINUOUS
10
      428.63
20
      434.32
11
      428.94
21
      433.42
39
 0
62
 3
 0
LINE
8
default
6
CONTINUOUS
10
     -428.63
20
      434.32
11
     -428.94
21
      433.42
39
 0
62
 1
 0
LINE
8
default
6
CONTINUOUS
10
      428.94
20
      433.42
11
      429.24
21
      432.52
39
 0
62
 3
 0
LINE
8
default
6
CONTINUOUS
10
     -428.94
20
      433.42
11
     -429.24
21
      432.52
39
 0
62
 1
 0
LINE
8
default
6
CONTINUOUS
10
      429.24
20
      432.52
11
      429.53
21
      431.61
39
 0
62
 3
 0
LINE
8
default
6
CONTINUOUS
10
     -429.24
20
      432.52
11
     -429.53
21
      431.61
39
 0
62
 1
 0
LINE
8
default
6
CONTINUOUS
10
      429.53
20
      431.61
11
      429.82
21
      430.71
39
 0
62
 3
 0
LINE
8
default
6
CONTINUOUS
10
     -429.53
20
      431.61
11
     -429.82
21
      430.71
39
 0
62
 1
 0
LINE
8
default
6
CONTINUOUS
10
      429.82
20
      430.71
11
      430.10
21
      429.80
39
 0
62
 3
 0
LINE
8
default
6
CONTINUOUS
10
     -429.82
20
      430.71
11
     -430.10
21
      429.80
39
 0
62
 1
 0
LINE
8
default
6
CONTINUOUS
10
      430.10
20
      429.80
11
      430.38
21
      428.89
39
 0
62
 3
 0
LINE
8
default
6
CONTINUOUS
10
     -430.10
20
      429.80
11
     -430.38
21
      428.89
39
 0
62
 1
 0
LINE
8
default
6
CONTINUOUS
10
      430.38
20
      428.89
11
      430.65
21
      427.98
39
 0
62
 3
 0
LINE
8
default
6
CONTINUOUS
10
     -430.38
20
      428.89
11
     -430.65
21
      427.98
39
 0
62
 1
 0
LINE
8
default
6
CONTINUOUS
10
      430.65
20
      427.98
11
      430.91
21
      427.07
39
 0
62
 3
 0
LINE
8
default
6
CONTINUOUS
10
     -430.65
20
      427.98
11
     -430.91
21
      427.07
39
 0
62
 1
 0
LINE
8
default
6
CONTINUOUS
10
      430.91
20
      427.07
11
      431.17
21
      426.15
39
 0
62
 3
 0
LINE
8
default
6
CONTINUOUS
10
     -430.91
20
      427.07
11
     -431.17
21
      426.15
39
 0
62
 1
 0
LINE
8
default
6
CONTINUOUS
10
      431.17
20
      426.15
11
      431.43
21
      425.23
39
 0
62
 3
 0
LINE
8
default
6
CONTINUOUS
10
     -431.17
20
      426.15
11
     -431.43
21
      425.23
39
 0
62
 1
 0
LINE
8
default
6
CONTINUOUS
10
      431.43
20
      425.23
11
      431.67
21
      424.32
39
 0
62
 3
 0
LINE
8
default
6
CONTINUOUS
10
     -431.43
20
      425.23
11
     -431.67
21
      424.32
39
 0
62
 1
 0
LINE
8
default
6
CONTINUOUS
10
      431.67
20
      424.32
11
      431.91
21
      423.40
39
 0
62
 3
 0
LINE
8
default
6
CONTINUOUS
10
     -431.67
20
      424.32
11
     -431.91
21
      423.40
39
 0
62
 1
 0
LINE
8
default
6
CONTINUOUS
10
      431.91
20
      423.40
11
      432.15
21
      422.48
39
 0
62
 3
 0
LINE
8
default
6
CONTINUOUS
10
     -431.91
20
      423.40
11
     -432.15
21
      422.48
39
 0
62
 1
 0
LINE
8
default
6
CONTINUOUS
10
      432.15
20
      422.48
11
      432.37
21
      421.55
39
 0
62
 3
 0
LINE
8
default
6
CONTINUOUS
10
     -432.15
20
      422.48
11
     -432.37
21
      421.55
39
 0
62
 1
 0
LINE
8
default
6
CONTINUOUS
10
      432.37
20
      421.55
11
      432.60
21
      420.63
39
 0
62
 3
 0
LINE
8
default
6
CONTINUOUS
10
     -432.37
20
      421.55
11
     -432.60
21
      420.63
39
 0
62
 1
 0
LINE
8
default
6
CONTINUOUS
10
      432.60
20
      420.63
11
      432.81
21
      419.70
39
 0
62
 3
 0
LINE
8
default
6
CONTINUOUS
10
     -432.60
20
      420.63
11
     -432.81
21
      419.70
39
 0
62
 1
 0
LINE
8
default
6
CONTINUOUS
10
      432.81
20
      419.70
11
      433.02
21
      418.78
39
 0
62
 3
 0
LINE
8
default
6
CONTINUOUS
10
     -432.81
20
      419.70
11
     -433.02
21
      418.78
39
 0
62
 1
 0
LINE
8
default
6
CONTINUOUS
10
      433.02
20
      418.78
11
      433.22
21
      417.85
39
 0
62
 3
 0
LINE
8
default
6
CONTINUOUS
10
     -433.02
20
      418.78
11
     -433.22
21
      417.85
39
 0
62
 1
 0
LINE
8
default
6
CONTINUOUS
10
      433.22
20
      417.85
11
      433.42
21
      416.92
39
 0
62
 3
 0
LINE
8
default
6
CONTINUOUS
10
     -433.22
20
      417.85
11
     -433.42
21
      416.92
39
 0
62
 1
 0
LINE
8
default
6
CONTINUOUS
10
      433.42
20
      416.92
11
      433.61
21
      415.99
39
 0
62
 3
 0
LINE
8
default
6
CONTINUOUS
10
     -433.42
20
      416.92
11
     -433.61
21
      415.99
39
 0
62
 1
 0
LINE
8
default
6
CONTINUOUS
10
      433.61
20
      415.99
11
      433.80
21
      415.05
39
 0
62
 3
 0
LINE
8
default
6
CONTINUOUS
10
     -433.61
20
      415.99
11
     -433.80
21
      415.05
39
 0
62
 1
 0
LINE
8
default
6
CONTINUOUS
10
      433.80
20
      415.05
11
      433.98
21
      414.12
39
 0
62
 3
 0
LINE
8
default
6
CONTINUOUS
10
     -433.80
20
      415.05
11
     -433.98
21
      414.12
39
 0
62
 1
 0
LINE
8
default
6
CONTINUOUS
10
      433.98
20
      414.12
11
      434.15
21
      413.19
39
 0
62
 3
 0
LINE
8
default
6
CONTINUOUS
10
     -433.98
20
      414.12
11
     -434.15
21
      413.19
39
 0
62
 1
 0
LINE
8
default
6
CONTINUOUS
10
      434.15
20
      413.19
11
      434.32
21
      412.25
39
 0
62
 3
 0
LINE
8
default
6
CONTINUOUS
10
     -434.15
20
      413.19
11
     -434.32
21
      412.25
39
 0
62
 1
 0
LINE
8
default
6
CONTINUOUS
10
      434.32
20
      412.25
11
      434.48
21
      411.31
39
 0
62
 3
 0
LINE
8
default
6
CONTINUOUS
10
     -434.32
20
      412.25
11
     -434.48
21
      411.31
39
 0
62
 1
 0
LINE
8
default
6
CONTINUOUS
10
      434.48
20
      411.31
11
      434.63
21
      410.37
39
 0
62
 3
 0
LINE
8
default
6
CONTINUOUS
10
     -434.48
20
      411.31
11
     -434.63
21
      410.37
39
 0
62
 1
 0
LINE
8
default
6
CONTINUOUS
10
      434.63
20
      410.37
11
      434.78
21
      409.44
39
 0
62
 3
 0
LINE
8
default
6
CONTINUOUS
10
     -434.63
20
      410.37
11
     -434.78
21
      409.44
39
 0
62
 1
 0
LINE
8
default
6
CONTINUOUS
10
      434.78
20
      409.44
11
      434.92
21
      408.50
39
 0
62
 3
 0
LINE
8
default
6
CONTINUOUS
10
     -434.78
20
      409.44
11
     -434.92
21
      408.50
39
 0
62
 1
 0
LINE
8
default
6
CONTINUOUS
10
      434.92
20
      408.50
11
      435.06
21
      407.55
39
 0
62
 3
 0
LINE
8
default
6
CONTINUOUS
10
     -434.92
20
      408.50
11
     -435.06
21
      407.55
39
 0
62
 1
 0
LINE
8
default
6
CONTINUOUS
10
      435.06
20
      407.55
11
      435.19
21
      406.61
39
 0
62
 3
 0
LINE
8
default
6
CONTINUOUS
10
     -435.06
20
      407.55
11
     -435.19
21
      406.61
39
 0
62
 1
 0
LINE
8
default
6
CONTINUOUS
10
      435.19
20
      406.61
11
      435.31
21
      405.67
39
 0
62
 3
 0
LINE
8
default
6
CONTINUOUS
10
     -435.19
20
      406.61
11
     -435.31
21
      405.67
39
 0
62
 1
 0
LINE
8
default
6
CONTINUOUS
10
      435.31
20
      405.67
11
      435.43
21
      404.73
39
 0
62
 3
 0
LINE
8
default
6
CONTINUOUS
10
     -435.31
20
      405.67
11
     -435.43
21
      404.73
39
 0
62
 1
 0
LINE
8
default
6
CONTINUOUS
10
      435.43
20
      404.73
11
      435.54
21
      403.78
39
 0
62
 3
 0
LINE
8
default
6
CONTINUOUS
10
     -435.43
20
      404.73
11
     -435.54
21
      403.78
39
 0
62
 1
 0
LINE
8
default
6
CONTINUOUS
10
      435.54
20
      403.78
11
      435.64
21
      402.84
39
 0
62
 3
 0
LINE
8
default
6
CONTINUOUS
10
     -435.54
20
      403.78
11
     -435.64
21
      402.84
39
 0
62
 1
 0
LINE
8
default
6
CONTINUOUS
10
      435.64
20
      402.84
11
      435.74
21
      401.89
39
 0
62
 3
 0
LINE
8
default
6
CONTINUOUS
10
     -435.64
20
      402.84
11
     -435.74
21
      401.89
39
 0
62
 1
 0
LINE
8
default
6
CONTINUOUS
10
      435.74
20
      401.89
11
      435.83
21
      400.95
39
 0
62
 3
 0
LINE
8
default
6
CONTINUOUS
10
     -435.74
20
      401.89
11
     -435.83
21
      400.95
39
 0
62
 1
 0
LINE
8
default
6
CONTINUOUS
10
      435.83
20
      400.95
11
      435.92
21
      400.00
39
 0
62
 3
 0
LINE
8
default
6
CONTINUOUS
10
     -435.83
20
      400.95
11
     -435.92
21
      400.00
39
 0
62
 1
 0
LINE
8
default
6
CONTINUOUS
10
       20.44
20
       -0.10
11
       20.44
21
     -246.39
39
 0
62
 3
 0
LINE
8
default
6
CONTINUOUS
10
      -20.44
20
       -0.10
11
      -20.44
21
     -246.39
39
 0
62
 1
 0
LINE
8
default
6
CONTINUOUS
10
       61.14
20
       -0.88
11
       61.14
21
     -245.82
39
 0
62
 3
 0
LINE
8
default
6
CONTINUOUS
10
      -61.14
20
       -0.88
11
      -61.14
21
     -245.82
39
 0
62
 1
 0
LINE
8
default
6
CONTINUOUS
10
      101.49
20
       -2.44
11
      101.49
21
     -244.70
39
 0
62
 3
 0
LINE
8
default
6
CONTINUOUS
10
     -101.49
20
       -2.44
11
     -101.49
21
     -244.70
39
 0
62
 1
 0
LINE
8
default
6
CONTINUOUS
10
      141.31
20
       -4.76
11
      141.31
21
     -243.03
39
 0
62
 3
 0
LINE
8
default
6
CONTINUOUS
10
     -141.31
20
       -4.76
11
     -141.31
21
     -243.03
39
 0
62
 1
 0
LINE
8
default
6
CONTINUOUS
10
      180.43
20
       -7.82
11
      180.43
21
     -240.82
39
 0
62
 3
 0
LINE
8
default
6
CONTINUOUS
10
     -180.43
20
       -7.82
11
     -180.43
21
     -240.82
39
 0
62
 1
 0
LINE
8
default
6
CONTINUOUS
10
      218.64
20
      -11.60
11
      218.64
21
     -237.76
39
 0
62
 3
 0
LINE
8
default
6
CONTINUOUS
10
     -218.64
20
      -11.60
11
     -218.64
21
     -237.76
39
 0
62
 1
 0
LINE
8
default
6
CONTINUOUS
10
      255.75
20
      -16.06
11
      255.75
21
     -233.97
39
 0
62
 3
 0
LINE
8
default
6
CONTINUOUS
10
     -255.75
20
      -16.06
11
     -255.75
21
     -233.97
39
 0
62
 1
 0
LINE
8
default
6
CONTINUOUS
10
      291.60
20
      -21.18
11
      291.60
21
     -229.57
39
 0
62
 3
 0
LINE
8
default
6
CONTINUOUS
10
     -291.60
20
      -21.18
11
     -291.60
21
     -229.57
39
 0
62
 1
 0
LINE
8
default
6
CONTINUOUS
10
      326.04
20
      -26.89
11
      326.04
21
     -224.65
39
 0
62
 3
 0
LINE
8
default
6
CONTINUOUS
10
     -326.04
20
      -26.89
11
     -326.04
21
     -224.65
39
 0
62
 1
 0
LINE
8
default
6
CONTINUOUS
10
      358.92
20
      -33.21
11
      358.92
21
     -219.26
39
 0
62
 3
 0
LINE
8
default
6
CONTINUOUS
10
     -358.92
20
      -33.21
11
     -358.92
21
     -219.26
39
 0
62
 1
 0
LINE
8
default
6
CONTINUOUS
10
      390.05
20
      -40.63
11
      390.05
21
     -213.49
39
 0
62
 3
 0
LINE
8
default
6
CONTINUOUS
10
     -390.05
20
      -40.63
11
     -390.05
21
     -213.49
39
 0
62
 1
 0
LINE
8
default
6
CONTINUOUS
10
      419.19
20
      -49.61
11
      419.19
21
     -207.44
39
 0
62
 3
 0
LINE
8
default
6
CONTINUOUS
10
     -419.19
20
      -49.61
11
     -419.19
21
     -207.44
39
 0
62
 1
 0
LINE
8
default
6
CONTINUOUS
10
      446.09
20
      -60.24
11
      446.09
21
     -201.21
39
 0
62
 3
 0
LINE
8
default
6
CONTINUOUS
10
     -446.09
20
      -60.24
11
     -446.09
21
     -201.21
39
 0
62
 1
 0
LINE
8
default
6
CONTINUOUS
10
      470.55
20
      -72.30
11
      470.55
21
     -194.94
39
 0
62
 3
 0
LINE
8
default
6
CONTINUOUS
10
     -470.55
20
      -72.30
11
     -470.55
21
     -194.94
39
 0
62
 1
 0
LINE
8
default
6
CONTINUOUS
10
      492.46
20
      -85.38
11
      492.46
21
     -188.75
39
 0
62
 3
 0
LINE
8
default
6
CONTINUOUS
10
     -492.46
20
      -85.38
11
     -492.46
21
     -188.75
39
 0
62
 1
 0
LINE
8
default
6
CONTINUOUS
10
      511.60
20
     -100.29
11
      511.60
21
     -182.82
39
 0
62
 3
 0
LINE
8
default
6
CONTINUOUS
10
     -511.60
20
     -100.29
11
     -511.60
21
     -182.82
39
 0
62
 1
 0
LINE
8
default
6
CONTINUOUS
10
      527.00
20
     -123.24
11
      527.00
21
     -177.63
39
 0
62
 3
 0
LINE
8
default
6
CONTINUOUS
10
     -527.00
20
     -123.24
11
     -527.00
21
     -177.63
39
 0
62
 1
 0
LINE
8
default
6
CONTINUOUS
10
       20.44
20
      620.89
11
       20.44
21
      670.89
39
 0
62
 1
 0
LINE
8
default
6
CONTINUOUS
10
       20.44
20
      620.89
11
       21.56
21
      670.88
39
 0
62
 2
 0
LINE
8
default
6
CONTINUOUS
10
       61.10
20
      619.15
11
       61.10
21
      669.15
39
 0
62
 1
 0
LINE
8
default
6
CONTINUOUS
10
       61.10
20
      619.15
11
       64.27
21
      669.05
39
 0
62
 2
 0
LINE
8
default
6
CONTINUOUS
10
      101.30
20
      615.71
11
      101.30
21
      665.71
39
 0
62
 1
 0
LINE
8
default
6
CONTINUOUS
10
      101.30
20
      615.71
11
      106.60
21
      665.43
39
 0
62
 2
 0
LINE
8
default
6
CONTINUOUS
10
      140.79
20
      610.65
11
      140.79
21
      660.65
39
 0
62
 1
 0
LINE
8
default
6
CONTINUOUS
10
      140.79
20
      610.65
11
      148.22
21
      660.09
39
 0
62
 2
 0
LINE
8
default
6
CONTINUOUS
10
      179.33
20
      604.00
11
      179.33
21
      654.00
39
 0
62
 1
 0
LINE
8
default
6
CONTINUOUS
10
      179.33
20
      604.00
11
      189.39
21
      652.98
39
 0
62
 2
 0
LINE
8
default
6
CONTINUOUS
10
      216.42
20
      594.85
11
      216.42
21
      644.85
39
 0
62
 1
 0
LINE
8
default
6
CONTINUOUS
10
      216.42
20
      594.85
11
      230.29
21
      642.89
39
 0
62
 2
 0
LINE
8
default
6
CONTINUOUS
10
      251.63
20
      583.15
11
      251.63
21
      633.15
39
 0
62
 1
 0
LINE
8
default
6
CONTINUOUS
10
      251.63
20
      583.15
11
      269.23
21
      629.95
39
 0
62
 2
 0
LINE
8
default
6
CONTINUOUS
10
      284.65
20
      569.21
11
      284.65
21
      619.21
39
 0
62
 1
 0
LINE
8
default
6
CONTINUOUS
10
      284.65
20
      569.21
11
      306.15
21
      614.35
39
 0
62
 2
 0
LINE
8
default
6
CONTINUOUS
10
      315.00
20
      552.96
11
      315.00
21
      602.96
39
 0
62
 1
 0
LINE
8
default
6
CONTINUOUS
10
      315.00
20
      552.96
11
      340.54
21
      595.95
39
 0
62
 2
 0
LINE
8
default
6
CONTINUOUS
10
      342.46
20
      534.89
11
      342.46
21
      584.89
39
 0
62
 1
 0
LINE
8
default
6
CONTINUOUS
10
      342.46
20
      534.89
11
      371.82
21
      575.35
39
 0
62
 2
 0
LINE
8
default
6
CONTINUOUS
10
      366.88
20
      515.59
11
      366.88
21
      565.59
39
 0
62
 1
 0
LINE
8
default
6
CONTINUOUS
10
      366.88
20
      515.59
11
      399.49
21
      553.49
39
 0
62
 2
 0
LINE
8
default
6
CONTINUOUS
10
      388.19
20
      495.74
11
      388.19
21
      545.74
39
 0
62
 1
 0
LINE
8
default
6
CONTINUOUS
10
      388.19
20
      495.74
11
      423.68
21
      530.96
39
 0
62
 2
 0
LINE
8
default
6
CONTINUOUS
10
      406.21
20
      475.79
11
      406.21
21
      525.79
39
 0
62
 1
 0
LINE
8
default
6
CONTINUOUS
10
      406.21
20
      475.79
11
      445.78
21
      506.36
39
 0
62
 2
 0
LINE
8
default
6
CONTINUOUS
10
      419.50
20
      455.28
11
      419.50
21
      505.28
39
 0
62
 1
 0
LINE
8
default
6
CONTINUOUS
10
      419.50
20
      455.28
11
      463.55
21
      478.94
39
 0
62
 2
 0
LINE
8
default
6
CONTINUOUS
10
      428.31
20
      435.25
11
      428.31
21
      485.25
39
 0
62
 1
 0
LINE
8
default
6
CONTINUOUS
10
      428.31
20
      435.25
11
      475.43
21
      451.98
39
 0
62
 2
 0
LINE
8
default
6
CONTINUOUS
10
      433.44
20
      416.83
11
      433.44
21
      466.83
39
 0
62
 1
 0
LINE
8
default
6
CONTINUOUS
10
      433.44
20
      416.83
11
      482.42
21
      426.89
39
 0
62
 2
 0
LINE
8
default
6
CONTINUOUS
10
      435.92
20
      400.00
11
      435.92
21
      450.00
39
 0
62
 1
 0
LINE
8
default
6
CONTINUOUS
10
      435.92
20
      400.00
11
      485.68
21
      404.85
39
 0
62
 2
 0
ENDSEC
0
EOF
